<svg width="60" height="60" viewBox="0 0 60 60" fill="none" xmlns="http://www.w3.org/2000/svg">
<path d="M53.125 6.875V14.0375H21.3913C19.4409 14.0375 17.5705 14.8123 16.1914 16.1914C14.8123 17.5705 14.0375 19.4409 14.0375 21.3913V32.1125C14.0375 33.0531 13.8522 33.9845 13.4923 34.8535C13.1323 35.7225 12.6048 36.5121 11.9397 37.1772C11.2746 37.8423 10.485 38.3698 9.61597 38.7298C8.74698 39.0897 7.81559 39.275 6.875 39.275V21.4862C6.875 13.4162 13.4162 6.875 21.4862 6.875H53.125ZM53.125 20.725V38.5138C53.125 46.5838 46.5838 53.125 38.5138 53.125H6.875V45.9625H38.6087C40.5591 45.9625 42.4295 45.1877 43.8086 43.8086C45.1877 42.4295 45.9625 40.5591 45.9625 38.6087V27.8875C45.9625 25.9879 46.7171 24.1661 48.0603 22.8228C49.4036 21.4796 51.2254 20.725 53.125 20.725Z" stroke="#268BBF" stroke-width="3" stroke-linecap="round" stroke-linejoin="round"/>
<path d="M22.3828 37.4276V22.3826L30.0003 33.7976L37.6178 22.3826V37.6176" stroke="#268BBF" stroke-linecap="round" stroke-linejoin="round"/>
</svg>
