<svg width="60" height="60" viewBox="0 0 60 60" fill="none" xmlns="http://www.w3.org/2000/svg">
<g clip-path="url(#clip0_657_1168)">
<path d="M52.5 24.375H56.25V28.125H52.5V24.375ZM44.5837 8.99438L47.235 6.34312L49.8863 8.99438L47.235 11.6456L44.5837 8.99438ZM28.125 0H31.875V3.75H28.125V0ZM12.765 11.6869L10.1119 9.03375L12.765 6.3825L15.4163 9.03375L12.765 11.6869ZM3.75 24.375H7.5V28.125H3.75V24.375ZM37.5 24.375H31.875V18.75H28.125V24.375H22.5V28.125H28.125V33.75H31.875V28.125H37.5V24.375ZM24.375 56.25H35.625V60H24.375V56.25ZM20.625 48.75H39.375V52.5H20.625V48.75Z" fill="#268BBF"/>
<path d="M30 7.5C19.6875 7.5 11.25 15.9375 11.25 26.25C11.25 34.5 15 38.0625 17.8125 40.5C19.6875 42.1875 20.625 43.3125 20.625 45H24.375C24.375 41.625 22.3125 39.5625 20.25 37.6875C17.625 35.4375 15 32.8125 15 26.25C15 18 21.75 11.25 30 11.25C38.25 11.25 45 18 45 26.25C45 32.8125 42.375 35.4375 39.75 37.6875C37.6875 39.5625 35.625 41.4375 35.625 45H39.375C39.375 43.3125 40.3125 42.1875 42.1875 40.5C45 38.0625 48.75 34.5 48.75 26.25C48.75 15.9375 40.3125 7.5 30 7.5Z" fill="#268BBF"/>
</g>
<defs>
<clipPath id="clip0_657_1168">
<rect width="60" height="60" fill="white"/>
</clipPath>
</defs>
</svg>
