<svg width="60" height="60" viewBox="0 0 60 60" fill="none" xmlns="http://www.w3.org/2000/svg">
<path d="M36.775 34.5976L48.6475 29.9076C51.305 28.8576 52.085 29.1601 53.325 30.0888C54.0262 30.6138 54.2825 31.2513 54.3463 32.0388C54.4788 33.6776 54.165 34.7401 53.1138 35.4476C46.74 39.7338 39.9462 42.9276 31.4287 46.4288C27.2887 48.1301 21.1663 47.0076 15.6662 45.1163L8.3 45.0876C7.94937 45.0882 7.60204 45.0198 7.27785 44.8863C6.95366 44.7527 6.65896 44.5566 6.41056 44.3091C6.16216 44.0616 5.96494 43.7677 5.83015 43.444C5.69537 43.1203 5.62566 42.7732 5.625 42.4226V34.9701C5.625 33.4876 6.81875 32.2951 8.3 32.2951H16.2075C19.2162 28.5551 28.375 29.8013 34.8575 30.0213C36.6075 30.0813 37.2625 31.8826 36.775 34.5976ZM36.775 34.5976C35.09 37.8313 30.8062 36.9751 26.775 37.1213M39.9612 22.9738L38.42 21.4326L36.8775 22.9751H35.6562M32.5712 22.9738L34.1138 21.4326L35.655 22.9738M28.3212 16.6376H40.4675L43.875 19.8063L40.4675 22.9751H39.9625M32.5725 22.9751H28.3225M28.3212 22.9738L25.2413 26.0538C24.1163 27.1788 22.3062 27.1788 21.1825 26.0538L16.9625 21.8376C15.8375 20.7126 15.8375 18.9026 16.9625 17.7776L21.1812 13.5588C22.3062 12.4338 24.1162 12.4338 25.24 13.5588L28.32 16.6388M22.9413 19.8063C22.9413 20.8863 22.0663 21.7626 20.985 21.7626C19.905 21.7626 19.0275 20.8876 19.0275 19.8063C19.0275 18.7263 19.9025 17.8501 20.9838 17.8501C22.0638 17.8501 22.9413 18.7251 22.9413 19.8051V19.8063Z" stroke="#268BBF" stroke-width="2" stroke-linecap="round" stroke-linejoin="round"/>
</svg>
