<svg width="60" height="60" viewBox="0 0 60 60" fill="none" xmlns="http://www.w3.org/2000/svg">
<g clip-path="url(#clip0_673_3587)">
<path d="M30 15.9375C27.9319 15.9375 26.25 17.6194 26.25 19.6875C26.25 21.7556 27.9319 23.4375 30 23.4375C32.0681 23.4375 33.75 21.7556 33.75 19.6875C33.75 17.6194 32.0681 15.9375 30 15.9375ZM30 21.5625C28.9659 21.5625 28.125 20.7216 28.125 19.6875C28.125 18.6534 28.9659 17.8125 30 17.8125C31.0341 17.8125 31.875 18.6534 31.875 19.6875C31.875 20.7216 31.0341 21.5625 30 21.5625Z" fill="#268BBF"/>
<path d="M42.6103 23.2463C43.1128 22.8412 43.5994 22.4137 44.0625 21.9506C44.6672 21.3459 45 20.5425 45 19.6875C45 18.8325 44.6672 18.0281 44.0625 17.4244C43.6003 16.9622 43.1128 16.5338 42.6103 16.1288C41.0212 10.4813 35.8931 6.5625 30 6.5625C24.1069 6.5625 18.9787 10.4813 17.3897 16.1288C16.8872 16.5338 16.4006 16.9613 15.9375 17.4244C15.3328 18.0291 15 18.8325 15 19.6875C15 20.5425 15.3328 21.3469 15.9375 21.9506C16.3997 22.4128 16.8872 22.8412 17.3897 23.2463C18.9787 28.8937 24.1069 32.8125 30 32.8125C35.8931 32.8125 41.0212 28.8937 42.6103 23.2463ZM43.125 19.6875C43.125 20.0419 42.9872 20.3737 42.7369 20.625C40.7016 22.6603 38.2087 24.0628 35.4966 24.7725C36.7359 23.4347 37.5 21.6506 37.5 19.6875C37.5 17.7244 36.7359 15.9403 35.4966 14.6025C38.2087 15.3131 40.7016 16.7147 42.7369 18.75C42.9872 19.0013 43.125 19.3331 43.125 19.6875ZM24.375 19.6875C24.375 16.5853 26.8978 14.0625 30 14.0625C33.1022 14.0625 35.625 16.5853 35.625 19.6875C35.625 22.7897 33.1022 25.3125 30 25.3125C26.8978 25.3125 24.375 22.7897 24.375 19.6875ZM30 8.4375C34.1906 8.4375 37.9359 10.7475 39.8672 14.3006C37.3003 12.9206 34.4166 12.1875 31.4203 12.1875H28.5806C25.5844 12.1875 22.7006 12.9206 20.1337 14.3006C22.0641 10.7475 25.8094 8.4375 30 8.4375ZM16.875 19.6875C16.875 19.3331 17.0128 19.0013 17.2631 18.75C19.2984 16.7147 21.7912 15.3122 24.5034 14.6025C23.2641 15.9403 22.5 17.7244 22.5 19.6875C22.5 21.6506 23.2641 23.4347 24.5034 24.7725C21.7912 24.0619 19.2984 22.6603 17.2631 20.625C17.0128 20.3737 16.875 20.0419 16.875 19.6875ZM20.1328 25.0744C22.6997 26.4544 25.5834 27.1875 28.5797 27.1875H31.4194C34.4156 27.1875 37.2994 26.4544 39.8662 25.0744C37.9359 28.6275 34.1906 30.9375 30 30.9375C25.8094 30.9375 22.0641 28.6275 20.1328 25.0744Z" fill="#268BBF"/>
<path d="M55.3125 57.1875V37.4897H58.7044L53.7581 27.5963C53.34 26.7591 52.4981 26.2397 51.5625 26.2397C50.6269 26.2397 49.785 26.76 49.3669 27.5963L44.4206 37.4897H47.8125V57.1875H46.8216L46.6603 54.4416C46.2309 47.1413 40.8553 40.9931 33.75 39.5288V37.6519L34.3031 35.9934C35.7666 35.6081 37.1691 35.0259 38.4844 34.2572L40.7916 35.4113L45.7256 30.4772L44.5716 28.17C45.3394 26.8547 45.9216 25.4522 46.3078 23.9887L48.75 23.1759V16.2L46.3069 15.3853C45.9216 13.9219 45.3394 12.5194 44.5706 11.2041L45.7247 8.89687L40.7906 3.96281L38.4844 5.11688C37.1691 4.34906 35.7666 3.76688 34.3031 3.38063L33.4884 0.9375H26.5125L25.6969 3.38063C24.2334 3.76594 22.8309 4.34813 21.5156 5.11688L19.2084 3.96281L14.2744 8.89687L15.4284 11.2041C14.6606 12.5194 14.0784 13.9219 13.6922 15.3853L11.25 16.1991V23.175L13.6931 23.9897C14.0784 25.4531 14.6606 26.8556 15.4294 28.1709L14.2753 30.4781L19.2094 35.4122L21.5166 34.2581C22.8319 35.0259 24.2344 35.6081 25.6978 35.9944L26.25 37.6519V39.5288C19.1447 40.9931 13.7691 47.1413 13.3397 54.4416L13.1784 57.1875H12.1875V37.4897H15.5794L10.6331 27.5963C10.215 26.76 9.37313 26.2397 8.4375 26.2397C7.50187 26.2397 6.66 26.76 6.24188 27.5963L1.29562 37.4897H4.6875V57.1875H0.9375V59.0625H59.0625V57.1875H55.3125ZM47.4544 35.6147L51.0441 28.4353C51.2419 28.0397 51.8831 28.0397 52.08 28.4353L55.6697 35.6147H53.4375V57.1875H49.6875V35.6147H47.4544ZM44.7881 54.5513L44.9437 57.1875H41.1525L40.3078 49.5844L38.4441 49.7916L39.2653 57.1875H32.2641L33.8662 55.5853L31.9275 48.7997L32.3512 47.7394L34.4663 49.8544L35.3475 41.9344C40.6266 43.8544 44.4497 48.7941 44.7881 54.5513ZM31.875 38.4375V40.0003L30 42.4997L28.125 40.0003V38.4375H31.875ZM31.2375 43.9744L33.2081 41.3466C33.3113 41.3662 33.4153 41.3859 33.5184 41.4084L33.0337 45.7706L31.2375 43.9744ZM26.7919 41.3466L28.7625 43.9744L26.9662 45.7697L26.4816 41.4075C26.5837 41.3859 26.6878 41.3662 26.7919 41.3466ZM30 45.3881L30.9084 46.2966L30.3028 47.8125H29.6972L29.0916 46.2966L30 45.3881ZM29.7703 49.6875H30.2306L31.7606 55.0397L30 56.7994L28.2403 55.0397L29.7703 49.6875ZM22.0566 32.3944L21.6094 32.115L19.5778 33.1312L16.5553 30.1088L17.5716 28.0772L17.2922 27.63C16.4034 26.2106 15.7641 24.6712 15.3928 23.0541L15.2747 22.5403L13.125 21.8241V17.55L15.2756 16.8328L15.3938 16.3191C15.765 14.7019 16.4044 13.1625 17.2931 11.7431L17.5725 11.2959L16.5562 9.26625L19.5788 6.24375L21.6103 7.26L22.0575 6.98063C23.4769 6.09188 25.0163 5.4525 26.6334 5.08125L27.1472 4.96313L27.8634 2.8125H32.1375L32.8547 4.96313L33.3684 5.08125C34.9856 5.4525 36.525 6.09188 37.9444 6.98063L38.3916 7.26L40.4231 6.24375L43.4456 9.26625L42.4294 11.2978L42.7087 11.745C43.5975 13.1644 44.2369 14.7038 44.6081 16.3209L44.7262 16.8347L46.875 17.5509V21.825L44.7244 22.5422L44.6063 23.0559C44.235 24.6731 43.5956 26.2125 42.7069 27.6319L42.4275 28.0791L43.4437 30.1106L40.4212 33.1331L38.3897 32.1169L37.9425 32.3962C36.5231 33.285 34.9837 33.9244 33.3666 34.2956L32.8528 34.4137L32.1366 36.5625H27.8625L27.1453 34.4119L26.6316 34.2938C25.0162 33.9225 23.4759 33.2831 22.0566 32.3944ZM15.2119 54.5513C15.5503 48.7931 19.3734 43.8544 24.6534 41.9344L25.5347 49.8544L27.6497 47.7394L28.0734 48.7997L26.1347 55.5853L27.7369 57.1875H20.7356L21.5578 49.7906L19.6941 49.5834L18.8484 57.1875H15.0562L15.2119 54.5513ZM4.32938 35.6147L7.91906 28.4353C8.11687 28.0397 8.75812 28.0397 8.955 28.4353L12.5447 35.6147H10.3125V57.1875H6.5625V35.6147H4.32938Z" fill="#268BBF"/>
</g>
<defs>
<clipPath id="clip0_673_3587">
<rect width="60" height="60" fill="white"/>
</clipPath>
</defs>
</svg>
