<svg width="60" height="60" viewBox="0 0 60 60" fill="none" xmlns="http://www.w3.org/2000/svg">
<path d="M9.8585 33.9809C10.0261 33.6903 10.0261 33.3329 9.8585 33.0422L5.80264 26.0204C5.63506 25.7297 5.32568 25.5516 4.99053 25.5516C4.65537 25.5516 4.346 25.7309 4.17842 26.0215L0.12373 33.0422C-0.0438477 33.3329 -0.0438477 33.6903 0.12373 33.9809C0.291309 34.2715 0.600684 34.4497 0.93584 34.4497H9.04404C9.38037 34.4497 9.69092 34.2704 9.8585 33.9809ZM2.56123 32.5723L4.98936 28.3653L7.41982 32.5723H2.56123ZM59.8753 33.0422L55.8194 26.0204C55.6519 25.7297 55.3425 25.5516 55.0073 25.5516C54.6722 25.5516 54.3628 25.7309 54.1952 26.0215L50.1429 33.0434C49.9753 33.334 49.9753 33.6915 50.1429 33.9821C50.3105 34.2727 50.6198 34.4508 50.955 34.4508H59.062C59.3972 34.4508 59.7065 34.2715 59.8753 33.9821C60.0429 33.6903 60.0429 33.3317 59.8753 33.0422ZM52.5792 32.5723L55.0073 28.3653L57.4378 32.5723H52.5792ZM29.9995 9.4395C32.4534 9.4395 34.4491 7.4438 34.4491 4.98989C34.4491 2.53599 32.4534 0.540283 29.9995 0.540283C27.5456 0.540283 25.5499 2.53599 25.5499 4.98989C25.5499 7.4438 27.5456 9.4395 29.9995 9.4395ZM29.9995 2.41763C31.4187 2.41763 32.5718 3.57192 32.5718 4.98989C32.5718 6.40903 31.4175 7.56216 29.9995 7.56216C28.5804 7.56216 27.4272 6.40786 27.4272 4.98989C27.4272 3.57075 28.5804 2.41763 29.9995 2.41763ZM33.5104 50.5606H26.4886C25.9706 50.5606 25.5499 50.9801 25.5499 51.4993V58.5211C25.5499 59.0391 25.9694 59.4598 26.4886 59.4598H33.5104C34.0284 59.4598 34.4491 59.0403 34.4491 58.5211V51.4993C34.4491 50.9813 34.0296 50.5606 33.5104 50.5606ZM32.5718 57.5825H27.4261V52.4368H32.5718V57.5825ZM22.769 54.0739C22.6354 54.4641 22.271 54.709 21.8808 54.709C21.78 54.709 21.678 54.6926 21.5772 54.6586C13.9976 52.0711 7.92725 46.0008 5.33975 38.4211C5.17217 37.9301 5.43467 37.3969 5.92451 37.2293C6.41553 37.0618 6.94873 37.3243 7.11631 37.8141C9.51748 44.8477 15.1495 50.4809 22.1843 52.8821C22.6741 53.0508 22.9366 53.584 22.769 54.0739ZM5.33975 21.5778C6.61475 17.843 8.77217 14.386 11.5776 11.5793C14.3831 8.77388 17.8401 6.61645 21.5761 5.34028C22.0671 5.1727 22.6003 5.43403 22.7679 5.92505C22.9354 6.41606 22.6741 6.94927 22.1831 7.11685C15.1472 9.52153 9.51514 15.1547 7.11514 22.1848C6.98154 22.575 6.61709 22.82 6.22686 22.82C6.12607 22.82 6.02412 22.8036 5.92334 22.7696C5.43467 22.602 5.17334 22.0688 5.33975 21.5778ZM37.23 5.92505C37.3976 5.43403 37.9308 5.1727 38.4218 5.34028C42.1565 6.61645 45.6136 8.77505 48.419 11.5793C51.2245 14.3836 53.3819 17.8418 54.6581 21.5766C54.8257 22.0676 54.5644 22.6008 54.0733 22.7684C53.9726 22.8024 53.8706 22.8188 53.7698 22.8188C53.3796 22.8188 53.0151 22.5739 52.8815 22.1836C50.478 15.1524 44.8448 9.51919 37.8136 7.11567C37.3237 6.94927 37.0624 6.41606 37.23 5.92505ZM29.9995 19.5118C24.214 19.5118 19.5077 24.2168 19.5077 30C19.5077 32.9754 20.7534 35.6661 22.7491 37.5762C22.7913 37.6254 22.8382 37.6688 22.8909 37.7086C24.7612 39.4348 27.2597 40.4918 29.9995 40.4918C32.7405 40.4918 35.239 39.4336 37.1093 37.7063C37.1538 37.6711 37.196 37.6325 37.2335 37.5915C39.2374 35.679 40.4878 32.9836 40.4878 30.0012C40.4878 24.2168 35.7827 19.5118 29.9995 19.5118ZM24.5503 36.6668C25.1022 35.3297 26.2683 34.3278 27.6792 33.9973C28.3753 34.3582 29.164 34.5633 29.9995 34.5633C30.8351 34.5633 31.6237 34.3582 32.3187 33.9973C33.7319 34.329 34.8968 35.3309 35.4464 36.668C33.9616 37.8844 32.0644 38.6157 29.9995 38.6157C27.9335 38.6157 26.0362 37.8833 24.5503 36.6668ZM26.8155 29.502C26.8155 27.7477 28.244 26.3215 29.9995 26.3215C31.7538 26.3215 33.18 27.7489 33.18 29.502C33.18 31.2575 31.7526 32.686 29.9995 32.686C28.244 32.686 26.8155 31.2575 26.8155 29.502ZM36.8315 35.236C36.1788 34.0852 35.1851 33.1629 33.9921 32.6028C34.6589 31.745 35.0573 30.6692 35.0573 29.502C35.0573 26.7129 32.7886 24.4442 29.9995 24.4442C27.2093 24.4442 24.9382 26.7129 24.9382 29.502C24.9382 30.6704 25.3366 31.7461 26.0046 32.604C24.8116 33.1641 23.8179 34.0864 23.1651 35.2372C22.0495 33.7852 21.3839 31.9688 21.3839 30.0012C21.3839 25.2528 25.2487 21.3891 29.9995 21.3891C34.748 21.3891 38.6116 25.2528 38.6116 30.0012C38.6116 31.9688 37.9472 33.7829 36.8315 35.236ZM46.7105 33.1829C47.4534 32.9379 47.9526 32.2489 47.9526 31.4684V28.5317C47.9526 27.7465 47.4499 27.0575 46.7069 26.8184L44.5624 26.12C44.2202 24.8333 43.7081 23.5969 43.0401 22.4438L44.0632 20.4364C44.4171 19.7415 44.2858 18.9012 43.7304 18.3399L41.655 16.268C41.1007 15.7137 40.2593 15.5801 39.5632 15.9352L37.5522 16.9571C36.4026 16.2915 35.1675 15.7805 33.8796 15.436L33.1823 13.2961C32.9421 12.5485 32.2519 12.0469 31.4655 12.0469H28.5323C27.7519 12.0469 27.0628 12.5461 26.8155 13.2938L26.1206 15.436C24.8292 15.7805 23.5929 16.2926 22.4456 16.9583L20.4335 15.934C19.7339 15.5813 18.8925 15.7149 18.3405 16.2668L16.2593 18.3446C15.7097 18.9012 15.5772 19.7426 15.9312 20.4364L16.9554 22.4461C16.2815 23.611 15.7694 24.8485 15.4343 26.1176L13.2909 26.8161C12.5433 27.0563 12.0417 27.7454 12.0417 28.5305V31.4672C12.0417 32.2477 12.5409 32.9368 13.2886 33.184L15.4343 33.8801C15.7729 35.161 16.2851 36.3973 16.9565 37.554L15.9288 39.5661C15.5761 40.2657 15.7097 41.1059 16.2628 41.659L18.3394 43.7356C18.8913 44.2875 19.7327 44.4223 20.4358 44.0672L22.4433 43.0418C23.6011 43.7145 24.8386 44.2266 26.1171 44.5641L26.8144 46.7145C27.0593 47.4575 27.7483 47.9567 28.5288 47.9567H31.462C32.2495 47.9567 32.9397 47.4551 33.1776 46.711L33.8772 44.5629C35.1546 44.2254 36.3886 43.7145 37.5487 43.043L39.5585 44.0672C40.2558 44.4223 41.0972 44.2899 41.6515 43.7356L43.728 41.659C44.2812 41.1059 44.4147 40.2657 44.0597 39.5625L43.0366 37.5575C43.7022 36.4102 44.2155 35.175 44.5612 33.879L46.7105 33.1829ZM42.7577 33.3645C42.453 34.5176 41.996 35.6204 41.403 36.6352C41.0843 37.1719 41.062 37.8024 41.3468 38.3719L42.3663 40.3676L40.3647 42.3692L38.3726 41.3543C37.8171 41.0661 37.1855 41.0825 36.6417 41.4C35.6058 42.0036 34.503 42.4594 33.3616 42.7583C33.3581 42.7594 33.3558 42.7594 33.3522 42.7606C32.7499 42.9247 32.2952 43.3583 32.1054 43.9465L31.4105 46.0793H28.5815L27.8913 43.9501C27.7003 43.3571 27.2433 42.9235 26.6304 42.7583C25.4878 42.4594 24.3862 42.0036 23.3538 41.4C22.8112 41.0848 22.1808 41.0672 21.6241 41.352L19.6284 42.3715L17.6257 40.3688L18.644 38.3743C18.93 37.8165 18.9124 37.186 18.596 36.6422C17.9937 35.611 17.5366 34.5094 17.2366 33.3598C17.0737 32.754 16.639 32.2969 16.0483 32.1071L13.9167 31.4157V28.5868L16.046 27.893C16.6378 27.7032 17.0714 27.2485 17.2378 26.6356C17.5343 25.4977 17.9913 24.395 18.5925 23.3614C18.9077 22.8258 18.9265 22.1766 18.6429 21.6317L17.6233 19.6325L19.6261 17.6333L21.6206 18.6481C22.1784 18.934 22.8089 18.9165 23.3526 18.6C24.3745 18.0036 25.4761 17.5465 26.6257 17.243C27.2339 17.086 27.6933 16.6536 27.8878 16.0559L28.5792 13.9243H31.4081L32.103 16.0571C32.2964 16.6524 32.7546 17.0848 33.3569 17.2418C34.5089 17.5454 35.6128 18.0036 36.6347 18.5977C37.1702 18.9129 37.8194 18.9317 38.3632 18.6493L40.3624 17.6333L42.364 19.6313L41.3433 21.634C41.0632 22.1883 41.0843 22.8329 41.3995 23.3625C41.9972 24.3891 42.453 25.4918 42.7542 26.6368C42.9124 27.2438 43.346 27.702 43.939 27.893L46.0718 28.5879V31.4168L43.939 32.1082C43.346 32.3016 42.9136 32.7622 42.7577 33.3645ZM54.6593 38.4223C53.3819 42.1582 51.2245 45.6153 48.4202 48.4207C45.6147 51.2274 42.1565 53.3848 38.4218 54.6586C38.321 54.6926 38.219 54.709 38.1183 54.709C37.728 54.709 37.3636 54.4629 37.23 54.0739C37.0624 53.5829 37.3249 53.0497 37.8147 52.8821C44.8448 50.4821 50.478 44.85 52.8827 37.8141C53.0503 37.3231 53.5835 37.0618 54.0745 37.2293C54.5644 37.3981 54.8269 37.9313 54.6593 38.4223Z" fill="#268BBF"/>
</svg>
