<svg width="60" height="60" viewBox="0 0 60 60" fill="none" xmlns="http://www.w3.org/2000/svg">
<path d="M39.8828 59.1211H8.37891C6.95508 59.1211 5.80078 57.9668 5.80078 56.543V53.2617C5.80078 52.744 6.22055 52.3242 6.73828 52.3242H53.2617C53.7795 52.3242 54.1992 52.744 54.1992 53.2617V56.543C54.1992 57.9668 53.0449 59.1211 51.6211 59.1211H44.0495" stroke="#268BBF" stroke-width="1.75781" stroke-miterlimit="10" stroke-linecap="round" stroke-linejoin="round"/>
<path d="M24.7266 52.3479H35.2734V54.4768C35.2734 55.1133 34.7575 55.6292 34.1211 55.6292H25.879C25.2425 55.6292 24.7267 55.1132 24.7267 54.4768V52.3479H24.7266Z" stroke="#268BBF" stroke-width="1.75781" stroke-miterlimit="10" stroke-linecap="round" stroke-linejoin="round"/>
<path d="M9.49219 35.2734V28.0664C9.49219 26.772 10.5415 25.7227 11.8359 25.7227H45.6836" stroke="#268BBF" stroke-width="1.75781" stroke-miterlimit="10" stroke-linecap="round" stroke-linejoin="round"/>
<path d="M50.5078 40.6641V49.9805C50.5078 51.2749 49.4585 52.3242 48.1641 52.3242H11.8359C10.5415 52.3242 9.49219 51.2749 9.49219 49.9805V46.1329" stroke="#268BBF" stroke-width="1.75781" stroke-miterlimit="10" stroke-linecap="round" stroke-linejoin="round"/>
<path d="M13.0078 35.4036V29.5636C13.0078 29.3839 13.1535 29.2383 13.3331 29.2383H45.6837" stroke="#268BBF" stroke-width="1.75781" stroke-miterlimit="10" stroke-linecap="round" stroke-linejoin="round"/>
<path d="M46.9922 40.1562V48.4834C46.9922 48.663 46.8465 48.8087 46.6669 48.8087H13.3331C13.1535 48.8087 13.0078 48.663 13.0078 48.4834V46.237" stroke="#268BBF" stroke-width="1.75781" stroke-miterlimit="10" stroke-linecap="round" stroke-linejoin="round"/>
<path d="M11.7637 55.7227H13.3335" stroke="#268BBF" stroke-width="1.75781" stroke-miterlimit="10" stroke-linecap="round" stroke-linejoin="round"/>
<path d="M16.4727 55.7227H18.0425" stroke="#268BBF" stroke-width="1.75781" stroke-miterlimit="10" stroke-linecap="round" stroke-linejoin="round"/>
<path d="M22.3496 14.1772V35.5919" stroke="#268BBF" stroke-width="1.75781" stroke-miterlimit="10" stroke-linecap="round" stroke-linejoin="round"/>
<path d="M26.2046 33.4126L22.5738 36.8777L18.4941 33.4126" stroke="#268BBF" stroke-width="1.75781" stroke-miterlimit="10" stroke-linecap="round" stroke-linejoin="round"/>
<path d="M37.6562 34.0976V12.6829" stroke="#268BBF" stroke-width="1.75781" stroke-miterlimit="10" stroke-linecap="round" stroke-linejoin="round"/>
<path d="M33.8008 14.8621L37.4316 11.397L41.5112 14.8621" stroke="#268BBF" stroke-width="1.75781" stroke-miterlimit="10" stroke-linecap="round" stroke-linejoin="round"/>
<path d="M13.3222 6.82957C12.9676 7.45031 12.7312 8.14711 12.6452 8.88902C12.5636 9.59273 12.6184 10.2722 12.7831 10.9072C12.8233 11.0621 12.7007 11.2109 12.5416 11.195C12.4085 11.1818 12.2735 11.1749 12.1368 11.1749C9.73672 11.1749 7.81051 13.2062 7.97903 15.6455C8.12258 17.7234 9.8177 19.3975 11.8945 19.5154C13.1384 19.5859 14.2714 19.1093 15.0779 18.3045C15.1861 18.1965 15.3651 18.2189 15.44 18.3521C16.376 20.0176 18.1576 21.1429 20.202 21.1429C21.8473 21.1429 23.3217 20.4134 24.3228 19.2608C24.4184 19.1507 24.5909 19.1566 24.6774 19.2741C25.8812 20.9079 27.8169 21.9679 30 21.9679C32.183 21.9679 34.1189 20.9079 35.3225 19.2741C35.409 19.1566 35.5815 19.1507 35.6771 19.2608C36.6782 20.4135 38.1526 21.1429 39.7979 21.1429C41.8423 21.1429 43.6238 20.0176 44.5599 18.3521C44.6348 18.2189 44.814 18.1965 44.922 18.3045C45.7284 19.1093 46.8615 19.5859 48.1054 19.5154C50.1822 19.3975 51.8773 17.7234 52.0209 15.6455C52.1894 13.2061 50.2631 11.1749 47.8631 11.1749C47.7264 11.1749 47.5916 11.1818 47.4583 11.195C47.2993 11.2109 47.1766 11.062 47.2168 10.9072C47.3817 10.2721 47.4363 9.59262 47.3547 8.88902C47.0545 6.2993 44.9225 4.2607 42.3253 4.07801C40.4095 3.94324 38.6868 4.7993 37.6139 6.18527C37.5006 6.33164 37.2729 6.2898 37.2153 6.11379C36.2222 3.07441 33.3673 0.878906 30.0001 0.878906C26.6328 0.878906 23.778 3.07441 22.7846 6.11379C22.7271 6.2898 22.4994 6.33164 22.3861 6.18527C21.3131 4.7993 19.5904 3.94324 17.6747 4.07801C17.2449 4.10824 16.828 4.18934 16.4299 4.3152" stroke="#268BBF" stroke-width="1.75781" stroke-miterlimit="10" stroke-linecap="round" stroke-linejoin="round"/>
<path d="M59.1219 24.9259V37.947C59.1219 39.3295 57.9924 40.4503 56.599 40.4503H48.3498C46.9565 40.4503 45.8269 39.3295 45.8269 37.947V35.3571C45.8269 35.1929 45.7126 35.0509 45.5522 35.0158L42.5179 34.3522C42.1409 34.2697 42.0502 33.7734 42.3737 33.563L45.668 31.4209C45.7671 31.3564 45.8269 31.2462 45.8269 31.128V24.9259C45.8269 23.5434 46.9565 22.4226 48.3498 22.4226H56.599C57.9924 22.4226 59.1219 23.5434 59.1219 24.9259Z" stroke="#268BBF" stroke-width="1.75781" stroke-miterlimit="10" stroke-linecap="round" stroke-linejoin="round"/>
<path d="M50.0312 28.5051H52.3886" stroke="#268BBF" stroke-width="1.75781" stroke-miterlimit="10" stroke-linecap="round" stroke-linejoin="round"/>
<path d="M50.0312 31.3176H54.7461" stroke="#268BBF" stroke-width="1.75781" stroke-miterlimit="10" stroke-linecap="round" stroke-linejoin="round"/>
<path d="M50.0312 34.1301H54.7461" stroke="#268BBF" stroke-width="1.75781" stroke-miterlimit="10" stroke-linecap="round" stroke-linejoin="round"/>
<path d="M14.9414 45.9045H1.34766C1.08879 45.9045 0.878906 45.6947 0.878906 45.4358V36.0608C0.878906 35.8019 1.08879 35.592 1.34766 35.592H14.9414C15.2003 35.592 15.4102 35.8019 15.4102 36.0608V45.4358C15.4102 45.6948 15.2003 45.9045 14.9414 45.9045Z" stroke="#268BBF" stroke-width="1.75781" stroke-miterlimit="10" stroke-linecap="round" stroke-linejoin="round"/>
<path d="M4.58594 39.3425H7.66281" stroke="#268BBF" stroke-width="1.75781" stroke-miterlimit="10" stroke-linecap="round" stroke-linejoin="round"/>
<path d="M4.58594 42.155H10.7398" stroke="#268BBF" stroke-width="1.75781" stroke-miterlimit="10" stroke-linecap="round" stroke-linejoin="round"/>
<path d="M29.2246 38.5244H31.9813" stroke="#268BBF" stroke-width="1.75781" stroke-miterlimit="10" stroke-linecap="round" stroke-linejoin="round"/>
<path d="M29.2246 41.5972H40.7414" stroke="#268BBF" stroke-width="1.75781" stroke-miterlimit="10" stroke-linecap="round" stroke-linejoin="round"/>
<path d="M29.2246 44.6702H40.7414" stroke="#268BBF" stroke-width="1.75781" stroke-miterlimit="10" stroke-linecap="round" stroke-linejoin="round"/>
</svg>
