<svg width="58" height="58" viewBox="0 0 58 58" fill="none" xmlns="http://www.w3.org/2000/svg">
<path d="M44.002 18.6797C44.002 37.8797 29.002 45.9197 29.002 45.9197C29.002 45.9197 14.002 37.9997 14.002 18.6797" stroke="#268BBF" stroke-width="1.8" stroke-miterlimit="10" stroke-linecap="round" stroke-linejoin="round"/>
<path d="M14.002 18.3196C17.842 18.3196 20.842 15.5596 20.842 12.0796H37.162C37.162 15.5596 40.282 18.3196 44.002 18.3196" stroke="#268BBF" stroke-width="1.8" stroke-miterlimit="10" stroke-linecap="round" stroke-linejoin="round"/>
<path d="M35.8398 29.7198C35.7198 30.4398 35.3598 31.0398 35.1198 31.6398L36.4398 33.5598L34.5198 35.4798L32.5998 34.0398C31.9998 34.3998 31.3998 34.6398 30.6798 34.7598L30.3198 37.0398H27.5598L27.1998 34.7598C26.4798 34.6398 25.8798 34.2798 25.2798 34.0398L23.3598 35.3598L21.4398 33.4398L22.7598 31.5198C22.3998 30.9198 22.1598 30.3198 22.0398 29.5998L19.7598 29.2398V26.5998L22.0398 26.2398C22.1598 25.5198 22.5198 24.9198 22.7598 24.3198L21.4398 22.3998L23.3598 20.4798L25.3998 21.7998C25.9998 21.4398 26.5998 21.1998 27.3198 21.0798L27.6798 18.7998H30.4398L30.7998 21.0798C31.5198 21.1998 32.1198 21.5598 32.7198 21.9198L34.5198 20.5998L36.4398 22.5198L35.1198 24.4398C35.4798 25.0398 35.7198 25.6398 35.8398 26.3598L38.1198 26.7198V29.4798L35.8398 29.7198Z" stroke="#268BBF" stroke-width="1.8" stroke-miterlimit="10" stroke-linecap="round" stroke-linejoin="round"/>
<path d="M29.003 30.7996C30.5936 30.7996 31.883 29.5101 31.883 27.9196C31.883 26.329 30.5936 25.0396 29.003 25.0396C27.4125 25.0396 26.123 26.329 26.123 27.9196C26.123 29.5101 27.4125 30.7996 29.003 30.7996Z" stroke="#268BBF" stroke-width="1.8" stroke-miterlimit="10" stroke-linecap="round" stroke-linejoin="round"/>
<path d="M29 8.59868V1.39868" stroke="#268BBF" stroke-width="1.8" stroke-miterlimit="10" stroke-linecap="round" stroke-linejoin="round"/>
<path d="M27.4395 2.95868L28.9995 1.39868L30.5595 2.95868" stroke="#268BBF" stroke-width="1.8" stroke-miterlimit="10" stroke-linecap="round" stroke-linejoin="round"/>
<path d="M29 49.3987V56.5987" stroke="#268BBF" stroke-width="1.8" stroke-miterlimit="10" stroke-linecap="round" stroke-linejoin="round"/>
<path d="M27.4395 55.0386L28.9995 56.5986L30.5595 55.0386" stroke="#268BBF" stroke-width="1.8" stroke-miterlimit="10" stroke-linecap="round" stroke-linejoin="round"/>
<path d="M49.4062 28.9988H56.6062" stroke="#268BBF" stroke-width="1.8" stroke-miterlimit="10" stroke-linecap="round" stroke-linejoin="round"/>
<path d="M55.0469 27.4387L56.6069 28.9987L55.0469 30.5587" stroke="#268BBF" stroke-width="1.8" stroke-miterlimit="10" stroke-linecap="round" stroke-linejoin="round"/>
<path d="M8.60625 28.9988H1.40625" stroke="#268BBF" stroke-width="1.8" stroke-miterlimit="10" stroke-linecap="round" stroke-linejoin="round"/>
<path d="M2.96625 27.4387L1.40625 28.9987L2.96625 30.5587" stroke="#268BBF" stroke-width="1.8" stroke-miterlimit="10" stroke-linecap="round" stroke-linejoin="round"/>
<path d="M43.4043 14.5987L48.5643 9.43872" stroke="#268BBF" stroke-width="1.8" stroke-miterlimit="10" stroke-linecap="round" stroke-linejoin="round"/>
<path d="M46.2832 9.43872H48.5632V11.7187" stroke="#268BBF" stroke-width="1.8" stroke-miterlimit="10" stroke-linecap="round" stroke-linejoin="round"/>
<path d="M14.6014 43.3987L9.44141 48.5587" stroke="#268BBF" stroke-width="1.8" stroke-miterlimit="10" stroke-linecap="round" stroke-linejoin="round"/>
<path d="M9.44141 46.2786V48.5586H11.7214" stroke="#268BBF" stroke-width="1.8" stroke-miterlimit="10" stroke-linecap="round" stroke-linejoin="round"/>
<path d="M43.4043 43.3987L48.5643 48.5587" stroke="#268BBF" stroke-width="1.8" stroke-miterlimit="10" stroke-linecap="round" stroke-linejoin="round"/>
<path d="M48.5632 46.2788V48.5588H46.2832" stroke="#268BBF" stroke-width="1.8" stroke-miterlimit="10" stroke-linecap="round" stroke-linejoin="round"/>
<path d="M14.6014 14.5987L9.44141 9.43872" stroke="#268BBF" stroke-width="1.8" stroke-miterlimit="10" stroke-linecap="round" stroke-linejoin="round"/>
<path d="M11.7214 9.43872H9.44141V11.7187" stroke="#268BBF" stroke-width="1.8" stroke-miterlimit="10" stroke-linecap="round" stroke-linejoin="round"/>
</svg>
