<svg width="58" height="60" viewBox="0 0 58 60" fill="none" xmlns="http://www.w3.org/2000/svg">
<path d="M43.0611 48.2653C45.1256 48.2653 46.8053 46.5857 46.8053 44.5212V30.9304H50.5726C50.988 32.5009 52.4208 33.6622 54.12 33.6622C56.1434 33.6622 57.7894 32.0162 57.7894 29.9929C57.7894 27.9695 56.1434 26.3235 54.12 26.3235C52.4207 26.3235 50.9879 27.4848 50.5726 29.0554H46.8053V15.4645C46.8053 13.4 45.1256 11.7204 43.0611 11.7204H40.4998V7.51863H49.4128C49.8282 9.08918 51.261 10.2505 52.9603 10.2505C54.9837 10.2505 56.6297 8.60437 56.6297 6.58113C56.6297 4.55789 54.9837 2.91176 52.9603 2.91176C51.261 2.91176 49.8282 4.07309 49.4128 5.64363H39.5623C39.0445 5.64363 38.6248 6.0634 38.6248 6.58113V11.7203H30.1555V8.15426C31.7261 7.73883 32.8874 6.30609 32.8874 4.60676C32.8873 2.58352 31.2413 0.9375 29.218 0.9375C27.1948 0.9375 25.5486 2.58352 25.5486 4.60687C25.5486 6.30621 26.71 7.73895 28.2804 8.15426V11.7204H19.6923V6.58113C19.6923 6.0634 19.2725 5.64363 18.7548 5.64363H11.4361C11.0209 4.0732 9.58805 2.91199 7.88883 2.91199C5.86559 2.91199 4.21945 4.55801 4.21945 6.58125C4.21945 8.60461 5.86547 10.2506 7.88883 10.2506C9.58816 10.2506 11.0209 9.0893 11.4363 7.51875H17.8174V11.7204H15.3748C13.3103 11.7204 11.6306 13.4 11.6306 15.4645V29.0555H7.4277C7.01227 27.4849 5.57953 26.3236 3.88031 26.3236C1.85707 26.3236 0.210938 27.9696 0.210938 29.993C0.210938 32.0163 1.85695 33.6623 3.88031 33.6623C5.57965 33.6623 7.01238 32.501 7.4277 30.9305H11.6306V44.5213C11.6306 46.5858 13.3103 48.2654 15.3748 48.2654H17.8174V52.2341H11.4362C11.0208 50.6636 9.58805 49.5022 7.88883 49.5022C5.86559 49.5022 4.21945 51.1482 4.21945 53.1716C4.21945 55.195 5.86547 56.841 7.88883 56.841C9.58816 56.841 11.0209 55.6796 11.4362 54.1091H18.7549C19.2727 54.1091 19.6924 53.6893 19.6924 53.1716V48.2654H28.2805V51.8457C26.71 52.2612 25.5487 53.6939 25.5487 55.3932C25.5487 57.4166 27.1948 59.0626 29.218 59.0626C31.2414 59.0626 32.8874 57.4166 32.8874 55.3932C32.8874 53.6939 31.7261 52.2612 30.1555 51.8457V48.2654H39.8909V53.1716C39.8909 53.6893 40.3106 54.1091 40.8284 54.1091H48.1469C48.5624 55.6796 49.9951 56.841 51.6945 56.841C53.7178 56.841 55.3638 55.195 55.3638 53.1716C55.3638 51.1482 53.7178 49.5022 51.6945 49.5022C49.9951 49.5022 48.5624 50.6636 48.1469 52.2341H41.7659V48.2654L43.0611 48.2653ZM54.1201 28.1986C55.1094 28.1986 55.9145 29.0036 55.9145 29.993C55.9145 30.9824 55.1095 31.7873 54.1201 31.7873C53.1307 31.7873 52.3259 30.9824 52.3259 29.993C52.3259 29.0036 53.1307 28.1986 54.1201 28.1986ZM52.9603 4.78688C53.9496 4.78688 54.7547 5.59184 54.7547 6.58125C54.7547 7.57066 53.9497 8.37563 52.9603 8.37563C51.9709 8.37563 51.1659 7.57066 51.1659 6.58125C51.1659 5.59184 51.9709 4.78688 52.9603 4.78688ZM27.4236 4.60687C27.4236 3.61758 28.2286 2.8125 29.218 2.8125C30.2074 2.8125 31.0124 3.61746 31.0124 4.60687C31.0124 5.59629 30.2074 6.40125 29.218 6.40125C28.2286 6.40125 27.4236 5.59617 27.4236 4.60687ZM7.88883 8.37551C6.89941 8.37551 6.09445 7.57055 6.09445 6.58113C6.09445 5.59172 6.89941 4.78688 7.88883 4.78688C8.87824 4.78688 9.6832 5.59172 9.6832 6.58113C9.6832 7.57055 8.87824 8.37551 7.88883 8.37551ZM3.8802 31.7872C2.89078 31.7872 2.08582 30.9823 2.08582 29.9929C2.08582 29.0034 2.89078 28.1985 3.8802 28.1985C4.86949 28.1985 5.67445 29.0034 5.67445 29.9929C5.67445 30.9823 4.86961 31.7872 3.8802 31.7872ZM7.88883 54.9659C6.89941 54.9659 6.09445 54.1609 6.09445 53.1715C6.09445 52.1821 6.89941 51.3771 7.88883 51.3771C8.87813 51.3771 9.68309 52.1821 9.68309 53.1715C9.68309 54.1609 8.87813 54.9659 7.88883 54.9659ZM31.0123 55.3931C31.0123 56.3824 30.2073 57.1875 29.2179 57.1875C28.2286 57.1875 27.4236 56.3825 27.4236 55.3931C27.4236 54.4037 28.2286 53.5988 29.2179 53.5988C30.2073 53.5989 31.0123 54.4038 31.0123 55.3931ZM51.6943 51.3772C52.6838 51.3772 53.4887 52.1822 53.4887 53.1716C53.4887 54.161 52.6838 54.966 51.6943 54.966C50.7049 54.966 49.9 54.161 49.9 53.1716C49.9 52.1822 50.705 51.3772 51.6943 51.3772ZM13.5056 44.5212V15.4645C13.5056 14.4339 14.3441 13.5954 15.3748 13.5954H43.0611C44.0918 13.5954 44.9303 14.4339 44.9303 15.4645V44.5212C44.9303 45.5518 44.0918 46.3903 43.0611 46.3903H15.3748C14.3441 46.3903 13.5056 45.5518 13.5056 44.5212ZM43.5434 32.7609C43.9053 32.6217 44.1441 32.2739 44.1441 31.886V28.0997C44.1441 27.7118 43.9052 27.3641 43.5434 27.2248L41.6757 26.5058C41.3974 25.5097 41.0009 24.5529 40.492 23.6505L41.305 21.8204C41.4625 21.4661 41.3853 21.0513 41.1111 20.777L38.4338 18.0997C38.1595 17.8255 37.7448 17.7483 37.3903 17.9059L35.5594 18.7189C34.657 18.2102 33.7005 17.8137 32.705 17.5356L31.9859 15.6673C31.8466 15.3054 31.4988 15.0666 31.1109 15.0666H27.3247C26.9368 15.0666 26.5891 15.3054 26.4498 15.6673L25.7306 17.5356C24.7352 17.8137 23.7786 18.2102 22.8764 18.7189L21.0455 17.9059C20.691 17.7484 20.2763 17.8255 20.002 18.0997L17.3246 20.7771C17.0504 21.0514 16.9733 21.4662 17.1308 21.8205L17.9439 23.6511C17.4352 24.5532 17.0386 25.5098 16.7603 26.5057L14.8923 27.2248C14.5303 27.364 14.2916 27.7118 14.2916 28.0997V31.886C14.2916 32.2739 14.5304 32.6216 14.8923 32.7609L16.7599 33.4799C17.0382 34.4761 17.4349 35.4329 17.9436 36.3352L17.1307 38.1653C16.9732 38.5196 17.0503 38.9344 17.3245 39.2087L20.0019 41.886C20.2761 42.1602 20.6909 42.237 21.0454 42.0798L22.8763 41.2666C23.7786 41.7754 24.7351 42.172 25.7306 42.4501L26.4497 44.3183C26.5889 44.6802 26.9367 44.919 27.3246 44.919H31.1109C31.4988 44.919 31.8465 44.6802 31.9859 44.3183L32.7047 42.4507C33.7008 42.1724 34.6577 41.7757 35.56 41.2669L37.3901 42.0798C37.7445 42.2373 38.1592 42.1602 38.4335 41.886L41.1109 39.2086C41.3851 38.9343 41.4622 38.5195 41.3047 38.1652L40.4917 36.3343C41.0003 35.4321 41.397 34.4755 41.675 33.4801L43.5434 32.7609ZM39.9764 32.5612C39.7056 33.6993 39.2563 34.783 38.6409 35.7825C38.4789 36.0457 38.457 36.372 38.5825 36.6545L39.33 38.3378L37.5629 40.1047L35.8804 39.3574C35.5976 39.2318 35.2714 39.2538 35.0082 39.416C34.0091 40.0314 32.925 40.4808 31.7862 40.7516C31.4855 40.8232 31.2393 41.0384 31.1283 41.3269L30.4675 43.0437H27.9686L27.3075 41.3263C27.1965 41.0378 26.9503 40.8226 26.6496 40.7511C25.5116 40.4802 24.4277 40.0309 23.4284 39.4157C23.1652 39.2535 22.8389 39.2316 22.5562 39.3571L20.8729 40.1047L19.1058 38.3379L19.8531 36.6552C19.9786 36.3727 19.9567 36.0464 19.7945 35.7831C19.1793 34.7842 18.7298 33.7001 18.4588 32.5609C18.3872 32.2603 18.172 32.0141 17.8835 31.9031L16.1667 31.2422V28.7434L17.8839 28.0823C18.1724 27.9714 18.3875 27.7252 18.4591 27.4245C18.7301 26.2859 19.1794 25.202 19.7947 24.2031C19.9569 23.9398 19.9788 23.6135 19.8533 23.331L19.1058 21.6478L20.8729 19.8809L22.5561 20.6284C22.8387 20.7539 23.1648 20.7321 23.4281 20.5699C24.4277 19.9546 25.5115 19.5053 26.6495 19.2345C26.9502 19.163 27.1964 18.9478 27.3074 18.6593L27.9686 16.9418H30.4675L31.1285 18.6593C31.2395 18.9478 31.4857 19.163 31.7864 19.2345C32.9245 19.5054 34.0083 19.9547 35.0078 20.5699C35.2711 20.732 35.5972 20.754 35.8798 20.6284L37.5632 19.8809L39.3302 21.6477L38.5829 23.3304C38.4574 23.6129 38.4793 23.9392 38.6415 24.2025C39.2569 25.2016 39.7063 26.2856 39.9772 27.4246C40.0488 27.7253 40.264 27.9715 40.5525 28.0825L42.2693 28.7434V31.2422L40.5519 31.9034C40.2633 32.0143 40.048 32.2605 39.9764 32.5612ZM29.2179 21.3162C24.4336 21.3162 20.5413 25.2086 20.5413 29.9929C20.5413 34.7771 24.4336 38.6694 29.2179 38.6694C34.0022 38.6694 37.8946 34.7771 37.8946 29.9929C37.8946 25.2086 34.0022 21.3162 29.2179 21.3162ZM29.3791 30.2979C29.2013 30.0981 28.9465 29.9837 28.6788 29.9837H26.5348L28.9351 26.9102L28.8212 28.8667C28.8062 29.1243 28.8981 29.3768 29.0752 29.5645C29.2522 29.7523 29.4989 29.8587 29.7571 29.8587H31.8594L29.3903 32.9129L29.61 31.0298C29.6411 30.7642 29.557 30.4978 29.3791 30.2979ZM22.4163 29.9929C22.4163 26.2424 25.4675 23.1912 29.2179 23.1912C29.3154 23.1912 29.4121 23.1945 29.5086 23.1986C29.4339 23.2509 29.3652 23.3135 29.3068 23.3882L23.8743 30.3442C23.6537 30.6266 23.6134 31.0102 23.7705 31.3323C23.9277 31.6543 24.2548 31.8587 24.6131 31.8587H27.6257L27.1527 35.9118C27.1275 36.128 27.1798 36.3384 27.2887 36.5141C24.4753 35.6803 22.4163 33.0732 22.4163 29.9929ZM29.2179 36.7944C29.0256 36.7944 28.8357 36.7845 28.6474 36.7688C28.7078 36.7233 28.7637 36.6707 28.8128 36.6098L34.5518 29.5106C34.7789 29.2297 34.8244 28.8434 34.6688 28.5172C34.5131 28.1913 34.1839 27.9837 33.8228 27.9837H30.7507L30.9816 24.0196C30.9956 23.7783 30.9144 23.5495 30.7683 23.3715C33.7738 24.0752 36.0195 26.7758 36.0195 29.9927C36.0196 33.7432 32.9684 36.7944 29.2179 36.7944Z" fill="#268BBF"/>
</svg>
