<svg width="54" height="54" viewBox="0 0 54 54" fill="none" xmlns="http://www.w3.org/2000/svg">
<path d="M38.1352 10.1501C38.312 9.87901 38.6747 9.80237 38.946 9.97909C41.8939 11.9 44.4156 14.5062 46.2381 17.516C47.8507 20.1794 48.9298 23.1818 49.3895 26.2645L50.4457 25.2107C50.6747 24.9821 51.0457 24.9826 51.2742 25.2116C51.5029 25.4407 51.5024 25.8117 51.2733 26.0402L49.3706 27.9387C49.278 28.0324 49.1535 28.0956 49.0123 28.1098C49.0119 28.1098 49.0113 28.1099 49.0109 28.1099C49.0105 28.1099 49.0098 28.1099 49.0098 28.11C49.0093 28.11 49.0089 28.11 49.0082 28.1101C49.0077 28.1101 49.007 28.1102 49.0063 28.1102C49.0057 28.1102 49.0051 28.1103 49.0045 28.1103C49.0039 28.1103 49.0037 28.1103 49.0028 28.1105C49.0023 28.1105 49.0015 28.1105 49.0011 28.1106C48.985 28.1119 48.9689 28.1126 48.953 28.1126C48.8413 28.1126 48.7357 28.0808 48.6457 28.025L46.3739 26.6556C46.0968 26.4885 46.0075 26.1284 46.1746 25.8513C46.3414 25.5742 46.7016 25.4848 46.9788 25.652L48.2264 26.404C47.2839 20.0659 43.715 14.4851 38.306 10.9605C38.0351 10.7842 37.9586 10.4212 38.1352 10.1501ZM53.9531 47.0305C53.9531 47.3541 53.6909 47.6164 53.3672 47.6164H37.0873C36.7636 47.6164 36.5013 47.3541 36.5013 47.0305C36.5013 43.1095 39.1013 39.7849 42.6675 38.6884C41.4606 37.8669 40.6662 36.4823 40.6662 34.9154C40.6662 32.4005 42.7123 30.3544 45.2272 30.3544C47.7422 30.3544 49.7883 32.4005 49.7883 34.9154C49.7883 36.4823 48.994 37.8669 47.787 38.6884C51.3532 39.785 53.9531 43.1095 53.9531 47.0305ZM45.2261 38.3047H45.2272C45.2272 38.3047 45.2279 38.3047 45.2284 38.3047C47.0967 38.3041 48.6164 36.784 48.6164 34.9155C48.6164 33.0467 47.096 31.5264 45.2272 31.5264C43.3584 31.5264 41.838 33.0467 41.838 34.9155C41.838 36.784 43.3577 38.3041 45.2261 38.3047ZM52.7589 46.4446C52.4589 42.5522 49.1961 39.4771 45.2284 39.4765C45.228 39.4765 45.2277 39.4765 45.2272 39.4765C45.2268 39.4765 45.2264 39.4765 45.2261 39.4765C41.2583 39.4771 37.9956 42.5522 37.6956 46.4446H52.7589ZM18.2741 16.8662C18.2741 12.9452 20.874 9.62062 24.4403 8.52409C23.2334 7.70261 22.4389 6.31804 22.4389 4.75124C22.4389 2.23628 24.485 0.190186 27 0.190186C29.5151 0.190186 31.5612 2.23628 31.5612 4.75124C31.5612 6.31804 30.7668 7.70273 29.5598 8.52421C33.126 9.62073 35.7259 12.9453 35.7259 16.8663C35.7259 17.1899 35.4636 17.4523 35.14 17.4523H18.86C18.5364 17.4521 18.2741 17.1898 18.2741 16.8662ZM26.9988 8.1403H27C27 8.1403 27.0007 8.1403 27.0012 8.1403C28.8695 8.13972 30.3893 6.61956 30.3893 4.75112C30.3893 2.88233 28.8688 1.36194 27 1.36194C25.1312 1.36194 23.6108 2.88233 23.6108 4.75112C23.6108 6.61968 25.1305 8.13972 26.9988 8.1403ZM19.4684 16.2803H34.5316C34.2316 12.3879 30.9689 9.31277 27.0012 9.31218C27.0008 9.31218 27.0005 9.31218 27 9.31218C26.9995 9.31218 26.9992 9.31218 26.9988 9.31218C23.0311 9.31288 19.7684 12.388 19.4684 16.2803ZM21.1393 30.3708C20.8643 29.3443 21.0054 28.2723 21.5368 27.3521C22.068 26.4319 22.926 25.7736 23.9523 25.4986C24.979 25.2237 26.0507 25.3648 26.9711 25.896C28.8707 26.9928 29.5239 29.4307 28.4272 31.3303C27.6912 32.605 26.351 33.3185 24.9752 33.3185C24.3007 33.3185 23.6179 33.1472 22.9929 32.7864C22.0726 32.255 21.4144 31.3972 21.1393 30.3708ZM22.2712 30.0675C22.4652 30.7916 22.9296 31.3967 23.5787 31.7715C24.9191 32.5452 26.6385 32.0843 27.4123 30.7444C28.1859 29.4043 27.725 27.6846 26.385 26.9109C25.9527 26.6613 25.4727 26.5338 24.9865 26.5338C24.7426 26.5338 24.4973 26.5658 24.2556 26.6306C23.5315 26.8247 22.9263 27.289 22.5516 27.9382C22.1768 28.5874 22.0773 29.3435 22.2712 30.0675ZM16.9129 47.6164H0.632812C0.309141 47.6164 0.046875 47.3541 0.046875 47.0305C0.046875 43.1095 2.6468 39.7849 6.21305 38.6884C5.00602 37.8669 4.21172 36.4823 4.21172 34.9154C4.21172 32.4005 6.25781 30.3544 8.77289 30.3544C11.2879 30.3544 13.3339 32.4005 13.3339 34.9154C13.3339 36.4823 12.5396 37.8669 11.3326 38.6884C14.8989 39.7849 17.4988 43.1095 17.4988 47.0305C17.4988 47.3542 17.2365 47.6164 16.9129 47.6164ZM8.77172 38.3047H8.77277H8.77395C10.6423 38.3041 12.1621 36.784 12.1621 34.9155C12.1621 33.0467 10.6417 31.5264 8.77289 31.5264C6.9041 31.5264 5.38359 33.0466 5.38359 34.9155C5.38359 36.7839 6.9034 38.304 8.77172 38.3047ZM16.3044 46.4446C16.0044 42.5523 12.7418 39.4772 8.77395 39.4765C8.77359 39.4765 8.77324 39.4765 8.77289 39.4765C8.77254 39.4765 8.77207 39.4765 8.77172 39.4765C4.80398 39.4771 1.54113 42.5522 1.24125 46.4446H16.3044ZM3.10922 29.0671C3.12 29.0676 3.13066 29.0679 3.14121 29.0679C3.45047 29.0679 3.70898 28.8259 3.72574 28.5136C4.07367 22.067 7.12231 16.1857 12.14 12.2005L12.1126 13.657C12.1065 13.9806 12.3639 14.2478 12.6873 14.2539C13.0075 14.2589 13.2782 14.0026 13.2843 13.6791L13.3343 11.0269C13.3378 10.9096 13.3063 10.7901 13.2368 10.6855C13.2366 10.6853 13.2364 10.6849 13.2362 10.6847C13.236 10.6843 13.2356 10.684 13.2354 10.6835C13.2301 10.6757 13.2246 10.6679 13.219 10.6603C13.2191 10.6602 13.2186 10.6601 13.2185 10.6597C13.136 10.5487 13.0212 10.4751 12.8966 10.4426L10.3015 9.74413C9.98883 9.66011 9.6675 9.84526 9.58336 10.1577C9.49922 10.4702 9.68437 10.7917 9.9968 10.8757L11.4375 11.2635C8.99766 13.2029 6.93715 15.6384 5.4368 18.3668C3.74145 21.45 2.74512 24.9368 2.55563 28.4503C2.53828 28.7735 2.78613 29.0496 3.10922 29.0671ZM14.5399 30.8599C14.3925 29.851 14.3914 28.8299 14.5371 27.8249C14.6681 26.919 15.427 26.2623 16.342 26.2623H16.3488C17.0282 26.2623 17.6605 25.8977 17.9998 25.3101C18.3396 24.7216 18.3387 23.9901 17.9973 23.4012C17.5377 22.6084 17.7265 21.6212 18.4464 21.0539C19.2439 20.4253 20.1287 19.9157 21.0763 19.5388C21.9265 19.2007 22.8743 19.5309 23.3307 20.3234C23.6701 20.9128 24.3029 21.2789 24.982 21.2789C25.6615 21.2789 26.2943 20.9126 26.6337 20.3228C27.0908 19.5281 28.0409 19.1987 28.892 19.539C29.3597 19.726 29.8194 19.9494 30.2583 20.2028C30.6974 20.4564 31.1205 20.7428 31.5162 21.0541C32.2366 21.621 32.4261 22.6084 31.9665 23.4018C31.6255 23.9905 31.6247 24.7217 31.9643 25.3101C32.3036 25.8976 32.936 26.2624 33.6153 26.2624H33.6193C34.5332 26.2624 35.292 26.9182 35.4241 27.8225C35.5147 28.4426 35.5494 29.0702 35.5291 29.6952C35.862 29.763 36.1917 29.8644 36.5137 30.0019C36.6927 30.0783 36.8221 30.2385 36.859 30.4295C36.8959 30.6205 36.8355 30.8174 36.698 30.955L33.4185 34.2344C33.3669 34.2861 33.3668 34.3735 33.4185 34.4252L34.7439 35.7505C34.7955 35.8022 34.8831 35.8022 34.9348 35.7505L38.2143 32.471C38.352 32.3335 38.5486 32.2733 38.7397 32.31C38.9307 32.3469 39.0909 32.4763 39.1673 32.6552C39.9799 34.5585 39.5595 36.7338 38.096 38.197C36.9322 39.3609 35.3111 39.8746 33.7022 39.6037L27.6409 45.6649C27.0708 46.2351 26.3214 46.5203 25.5725 46.5203C24.8232 46.5203 24.0744 46.2351 23.5041 45.6649C22.3635 44.5243 22.3635 42.6684 23.5041 41.5278L26.6487 38.3832C26.6437 38.3749 26.638 38.3673 26.6332 38.359C26.2938 37.7696 25.661 37.4035 24.9819 37.4035C24.3025 37.4035 23.6698 37.7699 23.3304 38.3596C22.9942 38.9439 22.3917 39.2767 21.758 39.2767C21.5298 39.2767 21.2974 39.2335 21.0721 39.1434C20.6044 38.9563 20.1448 38.733 19.7058 38.4796C19.2673 38.2264 18.844 37.94 18.4478 37.6283C17.7273 37.0612 17.5378 36.0739 17.9974 35.2806C18.3384 34.6918 18.3393 33.9606 17.9996 33.3722C17.6604 32.7847 17.0279 32.4199 16.3486 32.4199C16.3473 32.4199 16.3461 32.4199 16.3446 32.4199C15.4309 32.4202 14.6721 31.7642 14.5399 30.8599ZM34.5287 30.7658C33.5259 30.7658 32.5437 31.1585 31.8006 31.9016C30.8468 32.8554 30.4623 34.2098 30.7719 35.5249C30.8183 35.7225 30.7594 35.93 30.6158 36.0735L24.3327 42.3566C23.649 43.0403 23.649 44.1526 24.3327 44.8363C24.6621 45.1657 25.1024 45.347 25.5727 45.347C26.0428 45.347 26.4832 45.1656 26.8125 44.8363L33.0956 38.5532C33.2392 38.4096 33.447 38.3505 33.6442 38.3972C34.9595 38.7068 36.3138 38.3221 37.2676 37.3684C38.1702 36.4658 38.5557 35.2103 38.3487 33.9939L35.7633 36.5791C35.2536 37.0887 34.4246 37.0884 33.9152 36.5791L32.5898 35.2539C32.0803 34.7444 32.0802 33.9155 32.5897 33.4058L35.1751 30.8204C34.9602 30.784 34.7439 30.7658 34.5287 30.7658ZM15.6994 30.6905C15.7466 31.0138 16.018 31.2483 16.3447 31.2483H16.3486C17.4452 31.2483 18.4665 31.8374 19.0145 32.7865C19.5632 33.7369 19.562 34.9176 19.0114 35.8682C18.8473 36.1517 18.9149 36.5048 19.1725 36.7076C19.5248 36.9847 19.9015 37.2396 20.2917 37.4648C20.6825 37.6904 21.0915 37.8892 21.5074 38.0556C21.8116 38.1772 22.1512 38.0594 22.3147 37.7753C22.8626 36.8232 23.8846 36.2319 24.982 36.2319C25.9842 36.2319 26.9225 36.7263 27.4952 37.537L29.5653 35.4669C29.2945 33.8586 29.808 32.237 30.9721 31.0731C31.899 30.1461 33.1118 29.6381 34.3602 29.5965C34.3741 29.061 34.3424 28.5234 34.2647 27.992C34.2175 27.6687 33.9461 27.4342 33.6193 27.4342C33.6179 27.4342 33.6166 27.4342 33.6152 27.4342C32.5187 27.4342 31.4974 26.8451 30.9495 25.896C30.4008 24.9456 30.402 23.7648 30.9525 22.8144C31.1167 22.5307 31.0491 22.1777 30.7915 21.975C30.4396 21.6981 30.063 21.4433 29.6722 21.2176C29.2816 20.9921 28.8727 20.7934 28.4566 20.6271C28.1524 20.5052 27.8129 20.6231 27.6493 20.9072C27.1014 21.8593 26.0794 22.4507 24.9819 22.4507C23.8849 22.4507 22.8632 21.8597 22.3152 20.9081C22.1521 20.6249 21.813 20.5068 21.5092 20.6276C20.6667 20.9626 19.8803 21.4157 19.1715 21.9742C18.9143 22.1769 18.8467 22.53 19.011 22.8134C19.5621 23.7642 19.5634 24.9453 19.0145 25.896C18.4665 26.8451 17.4454 27.4341 16.3487 27.4341C16.3462 27.4341 16.3443 27.4341 16.3419 27.4341C16.0148 27.4341 15.7437 27.6688 15.6967 27.9927C15.5674 28.8859 15.5684 29.7935 15.6994 30.6905ZM36.2172 49.6846C30.4604 52.6066 23.8429 52.907 17.8826 50.5541L19.1577 49.8497C19.4409 49.6932 19.5437 49.3368 19.3873 49.0535C19.2307 48.7704 18.8745 48.6675 18.591 48.8241L16.2686 50.1071C16.1647 50.163 16.077 50.2506 16.0214 50.3637C16.0171 50.3723 16.0131 50.381 16.0092 50.3899C16.009 50.3903 16.0089 50.3907 16.0086 50.3911C15.954 50.5178 15.9477 50.6535 15.9818 50.7773L16.6746 53.3746C16.7446 53.6367 16.9814 53.8096 17.2404 53.8096C17.2904 53.8096 17.3412 53.8031 17.3918 53.7896C17.7045 53.7062 17.8903 53.3851 17.8069 53.0725L17.4223 51.6308C20.322 52.7741 23.4613 53.3415 26.5744 53.2759C30.0922 53.2026 33.6101 52.322 36.7477 50.7294C37.0363 50.5829 37.1514 50.2303 37.0049 49.9417C36.8583 49.6534 36.5056 49.538 36.2172 49.6846Z" fill="#268BBF"/>
</svg>
