<svg width="50" height="52" viewBox="0 0 50 52" fill="none" xmlns="http://www.w3.org/2000/svg">
<path d="M24.3456 27.5645L23.2849 17.268C23.2527 17.0002 23.0277 16.7859 22.7492 16.7859C22.4706 16.7859 22.2456 16.9895 22.2134 17.268L21.1527 27.5645C20.7777 27.9609 20.5527 28.4859 20.5527 29.0645C20.5527 30.2752 21.5384 31.2609 22.7492 31.2609C23.9599 31.2609 24.9456 30.2752 24.9456 29.0645C24.9456 28.4752 24.7099 27.9502 24.3456 27.5645ZM22.7492 22.5395L23.1992 26.9109C23.0492 26.8787 22.8992 26.868 22.7492 26.868C22.5992 26.868 22.4492 26.8895 22.2992 26.9109L22.7492 22.5395ZM22.7492 30.1895C22.1277 30.1895 21.6242 29.6859 21.6242 29.0645C21.6242 28.443 22.1277 27.9395 22.7492 27.9395C23.3706 27.9395 23.8742 28.443 23.8742 29.0645C23.8742 29.6859 23.3706 30.1895 22.7492 30.1895Z" fill="#268BBF"/>
<path d="M22.7506 14.9752C23.0506 14.9752 23.2863 14.7395 23.2863 14.4395V12.3502C23.2863 12.0502 23.0506 11.8145 22.7506 11.8145C22.4506 11.8145 22.2148 12.0502 22.2148 12.3502V14.4395C22.2148 14.7395 22.4506 14.9752 22.7506 14.9752Z" fill="#268BBF"/>
<path d="M14.7452 14.3431C14.5952 14.0859 14.2631 14.0002 14.0167 14.1502C13.7595 14.3002 13.6738 14.6217 13.8238 14.8788L14.8738 16.6895C14.9702 16.8609 15.1524 16.9574 15.3345 16.9574C15.4202 16.9574 15.5167 16.9359 15.6024 16.8824C15.8595 16.7324 15.9452 16.4109 15.7952 16.1538L14.7452 14.3431Z" fill="#268BBF"/>
<path d="M10.1717 21.3931L8.36097 20.3431C8.10383 20.1931 7.7824 20.2788 7.6324 20.536C7.4824 20.7931 7.56812 21.1145 7.82526 21.2645L9.63597 22.3145C9.72169 22.3681 9.8074 22.3895 9.90383 22.3895C10.086 22.3895 10.2681 22.2931 10.3645 22.1217C10.5145 21.8645 10.4288 21.5431 10.1717 21.3931Z" fill="#268BBF"/>
<path d="M8.45658 29.2681C8.45658 28.9681 8.22087 28.7324 7.92087 28.7324H5.82087C5.52087 28.7324 5.28516 28.9681 5.28516 29.2681C5.28516 29.5681 5.52087 29.8039 5.82087 29.8039H7.91016C8.21016 29.8039 8.45658 29.5681 8.45658 29.2681Z" fill="#268BBF"/>
<path d="M39.668 28.7324H37.5787C37.2787 28.7324 37.043 28.9681 37.043 29.2681C37.043 29.5681 37.2787 29.8039 37.5787 29.8039H39.668C39.968 29.8039 40.2037 29.5681 40.2037 29.2681C40.2037 28.9681 39.9573 28.7324 39.668 28.7324Z" fill="#268BBF"/>
<path d="M9.63597 36.2215L7.82526 37.2715C7.56812 37.4215 7.4824 37.7429 7.6324 38.0001C7.72883 38.1715 7.91097 38.2679 8.09312 38.2679C8.17883 38.2679 8.27526 38.2465 8.36097 38.1929L10.1717 37.1429C10.4288 36.9929 10.5145 36.6715 10.3645 36.4144C10.2145 36.1572 9.89312 36.0715 9.63597 36.2215Z" fill="#268BBF"/>
<path d="M15.6024 41.6431C15.3452 41.4931 15.0238 41.5789 14.8738 41.836L13.8238 43.6467C13.6738 43.9039 13.7595 44.2253 14.0167 44.3753C14.1024 44.4289 14.1881 44.4503 14.2845 44.4503C14.4667 44.4503 14.6488 44.3539 14.7452 44.1824L15.7952 42.3717C15.9452 42.1253 15.8595 41.7931 15.6024 41.6431Z" fill="#268BBF"/>
<path d="M29.8956 16.8931C29.9813 16.9467 30.067 16.9681 30.1634 16.9681C30.3456 16.9681 30.5277 16.8717 30.6241 16.7003L31.6741 14.8895C31.8241 14.6324 31.7384 14.311 31.4813 14.161C31.2241 14.011 30.9027 14.0967 30.7527 14.3538L29.7027 16.1645C29.5527 16.411 29.6384 16.7431 29.8956 16.8931Z" fill="#268BBF"/>
<path d="M49.407 48.4466L47.532 32.4824C47.4035 31.2181 46.3428 30.2645 45.0677 30.2645H44.8749C44.8963 29.8788 44.9178 29.4824 44.9178 29.0431C44.9178 23.9109 43.1499 19.1966 40.2035 15.4359L40.6856 14.9538L40.9535 15.2216C41.1356 15.4038 41.382 15.5002 41.6285 15.5002C41.8749 15.5002 42.1213 15.4038 42.3035 15.2216L43.9535 13.5609C44.1356 13.3788 44.232 13.1431 44.232 12.8859C44.232 12.6288 44.1356 12.3931 43.9535 12.2109L40.5677 8.82521C40.1927 8.45021 39.5928 8.45021 39.2178 8.82521L37.557 10.4859C37.182 10.8609 37.182 11.4609 37.557 11.8359L37.8249 12.1038L37.4285 12.5002C34.4285 9.84307 30.7213 7.9895 26.6177 7.26092V5.83592H28.032C28.557 5.83592 28.9856 5.41807 28.9856 4.89307V1.71092C28.9856 1.19664 28.557 0.768066 28.032 0.768066H17.4677C16.9427 0.768066 16.5142 1.18592 16.5142 1.71092V4.90378C16.5142 5.41807 16.9427 5.84664 17.4677 5.84664H18.882V7.26092C14.7785 7.9895 11.0606 9.84307 8.0606 12.5002L7.66417 12.1038L7.93203 11.8359C8.30703 11.4609 8.30703 10.8609 7.93203 10.4859L6.27132 8.82521C5.89632 8.45021 5.29632 8.45021 4.92132 8.82521L1.5356 12.2109C1.1606 12.5859 1.1606 13.1859 1.5356 13.5609L3.19632 15.2216C3.37846 15.4038 3.62489 15.5002 3.87132 15.5002C4.11775 15.5002 4.36417 15.4038 4.54632 15.2216L4.81417 14.9538L5.29632 15.4359C2.34989 19.1966 0.582031 23.9109 0.582031 29.0538C0.582031 41.2788 10.5249 51.2324 22.7392 51.2324C23.4463 51.2324 24.132 51.2002 24.8285 51.1359C25.032 51.1895 25.2463 51.2216 25.4606 51.2216H46.9427C47.6499 51.2216 48.3249 50.9109 48.807 50.3859C49.2678 49.8502 49.4927 49.1431 49.407 48.4466ZM39.8927 9.66092L43.1392 12.8645L41.6177 14.3859L38.3927 11.1609L39.8927 9.66092ZM38.5856 12.8538L39.9249 14.1931L39.5177 14.6002C39.0999 14.1181 38.6713 13.6574 38.2213 13.2074L38.5856 12.8538ZM17.5749 1.8395H27.9142V4.7645H17.5749V1.8395ZM19.9535 5.83592H25.5463V7.0895C24.6249 6.97164 23.6927 6.89664 22.7392 6.89664C21.7963 6.89664 20.8642 6.97164 19.9535 7.0895V5.83592ZM2.37132 12.8859L5.59632 9.66092L7.0856 11.1502L3.8606 14.3752L2.37132 12.8859ZM5.56417 14.1931L6.90346 12.8538L7.26775 13.2181C6.81775 13.6574 6.38917 14.1288 5.97132 14.6109L5.56417 14.1931ZM1.65346 29.0538C1.65346 17.4288 11.1142 7.96807 22.7392 7.96807C34.3749 7.96807 43.8463 17.4288 43.8463 29.0538C43.8463 29.4931 43.8249 29.8895 43.8035 30.2752H43.1927V28.9359C43.1927 27.1038 42.4749 25.4324 41.3177 24.1895C39.1427 15.9502 31.6535 9.84307 22.7499 9.84307C12.1427 9.84307 3.51775 18.4788 3.51775 29.0859C3.51775 39.6824 12.1427 48.2966 22.7499 48.2966C22.8249 48.2966 22.9213 48.2966 22.9963 48.2859L22.9749 48.4574C22.8999 49.0574 23.0606 49.6466 23.4035 50.1395C23.1785 50.1502 22.9535 50.1716 22.7285 50.1716C11.1035 50.1609 1.65346 40.6895 1.65346 29.0538ZM30.2606 30.2645V28.9252C30.2606 25.6574 32.9178 22.9895 36.1963 22.9895C37.8142 22.9895 39.282 23.6431 40.3535 24.7038C40.6963 26.1074 40.8999 27.5645 40.8999 29.0645C40.8999 29.4502 40.8785 29.8574 40.857 30.2645H30.2606ZM23.2856 45.9074V44.0966C23.2856 43.7966 23.0499 43.5609 22.7499 43.5609C22.4499 43.5609 22.2142 43.7966 22.2142 44.0966V46.1859C22.2142 46.4859 22.4499 46.7216 22.7499 46.7216C22.9642 46.7216 23.1356 46.5931 23.2213 46.4216L23.1356 47.2038C23.007 47.2038 22.8892 47.2145 22.7606 47.2145C12.7427 47.2145 4.59989 39.0824 4.59989 29.0752C4.59989 19.0574 12.7427 10.9038 22.7606 10.9038C30.6249 10.9038 37.3106 15.9395 39.8285 22.9574C38.8535 22.3574 37.7285 22.0038 36.5177 21.9502L37.6749 21.2859C37.932 21.1359 38.0177 20.8145 37.8677 20.5574C37.7177 20.3002 37.3856 20.2145 37.1392 20.3645L35.3285 21.4145C35.1035 21.5431 35.0177 21.8109 35.1035 22.0466C31.7713 22.5824 29.2106 25.4645 29.2106 28.9574V30.2966H27.3249C26.0713 30.2966 25.0106 31.2502 24.8606 32.5038L23.2856 45.9074ZM41.8856 27.2752C42.0356 27.8002 42.1213 28.3466 42.1213 28.9252V30.2645H41.9285C41.9606 29.8574 41.9713 29.4609 41.9713 29.0645C41.982 28.4645 41.9392 27.8752 41.8856 27.2752ZM47.9927 49.6788C47.7249 49.9788 47.3392 50.1609 46.932 50.1609H25.4499C25.0427 50.1609 24.6677 49.9895 24.3999 49.6895C24.132 49.3895 24.0035 48.9824 24.0463 48.5752L25.9106 32.6109C25.9963 31.8931 26.5963 31.3466 27.3142 31.3466H29.1999V32.0216C28.1499 32.2681 27.3892 33.1895 27.3892 34.3252C27.3892 35.6109 28.4499 36.6609 29.7463 36.6609C31.032 36.6609 32.0713 35.6109 32.0713 34.3252C32.0713 33.2002 31.2999 32.2681 30.2713 32.0216V31.3574H42.132V32.0324C41.0928 32.2788 40.3213 33.2109 40.3213 34.3252C40.3213 35.6109 41.382 36.6609 42.6785 36.6609C43.9642 36.6609 45.0035 35.6109 45.0035 34.3252C45.0035 33.2002 44.232 32.2681 43.2035 32.0216V31.3574H45.0785C45.7963 31.3574 46.3963 31.8931 46.4713 32.6216L48.3463 48.5859C48.3892 48.9716 48.2606 49.3681 47.9927 49.6788ZM29.7249 34.5931C30.0249 34.5931 30.2606 34.3574 30.2606 34.0574V33.1359C30.6892 33.3395 30.9892 33.7895 30.9892 34.3038C30.9892 35.0002 30.432 35.5681 29.7356 35.5681C29.0177 35.5681 28.4499 35.0109 28.4499 34.3038C28.4499 33.7788 28.7499 33.3395 29.1892 33.1359V34.0466C29.1892 34.3574 29.4356 34.5931 29.7249 34.5931ZM42.657 34.5931C42.957 34.5931 43.1927 34.3574 43.1927 34.0574V33.1359C43.6213 33.3395 43.9213 33.7895 43.9213 34.3038C43.9213 35.0002 43.3642 35.5681 42.6678 35.5681C41.9606 35.5681 41.382 35.0002 41.382 34.3038C41.382 33.7895 41.682 33.3502 42.1213 33.1466V34.0574C42.1213 34.3574 42.3677 34.5931 42.657 34.5931Z" fill="#268BBF"/>
<path d="M39.1648 41.793C38.5648 41.793 38.0827 41.9858 37.7398 42.3608C37.397 42.7465 37.2148 43.3251 37.2148 44.118C37.2148 44.9108 37.3863 45.5001 37.7398 45.8858C38.0934 46.2715 38.5648 46.4537 39.1863 46.4537C39.7756 46.4537 40.247 46.2608 40.6006 45.8858C40.9541 45.5108 41.1256 44.9108 41.1256 44.118C41.1256 43.3251 40.9541 42.7358 40.6006 42.3608C40.2577 41.9751 39.7756 41.793 39.1648 41.793ZM39.572 45.2751C39.4756 45.4251 39.3363 45.4894 39.1541 45.4894C38.972 45.4894 38.8434 45.4144 38.7363 45.2644C38.6077 45.0715 38.5327 44.6858 38.5327 44.118C38.5327 43.5501 38.597 43.1537 38.7363 42.9608C38.8327 42.8108 38.972 42.7465 39.1541 42.7465C39.3363 42.7465 39.4756 42.8215 39.572 42.9608C39.7006 43.1537 39.7648 43.5394 39.7648 44.118C39.7648 44.6965 39.7113 45.0715 39.572 45.2751Z" fill="#268BBF"/>
<path d="M37.9428 37.1216L33.2285 46.443H34.4821L39.1535 37.1216H37.9428Z" fill="#268BBF"/>
<path d="M35.1568 39.4466C35.1568 38.6537 34.9854 38.0644 34.6318 37.6787C34.289 37.3037 33.8068 37.1108 33.1854 37.1108C32.5854 37.1108 32.1247 37.3037 31.7711 37.6787C31.4282 38.0644 31.2461 38.643 31.2461 39.4358C31.2461 40.2287 31.4175 40.818 31.7711 41.2037C32.1139 41.5787 32.5961 41.7716 33.2175 41.7716C33.8175 41.7716 34.2782 41.5787 34.6318 41.2037C34.9854 40.8287 35.1568 40.2394 35.1568 39.4466ZM33.614 40.593C33.5175 40.743 33.3675 40.8073 33.1961 40.8073C33.014 40.8073 32.8854 40.7323 32.7782 40.593C32.6497 40.4001 32.5747 40.0144 32.5747 39.4358C32.5747 38.8573 32.6389 38.4716 32.7782 38.2787C32.8747 38.1287 33.014 38.0644 33.1961 38.0644C33.3782 38.0644 33.5175 38.1394 33.614 38.2894C33.7425 38.4823 33.8068 38.868 33.8068 39.4358C33.8068 40.0037 33.7425 40.4001 33.614 40.593Z" fill="#268BBF"/>
</svg>
