<svg width="58" height="58" viewBox="0 0 58 58" fill="none" xmlns="http://www.w3.org/2000/svg">
<path d="M57.727 38.2353C57.3132 37.0133 56.3245 36.1258 54.9433 35.7364C54.0159 35.4751 52.9144 35.4288 51.6518 35.5968V12.2536C51.6518 11.8005 51.2845 11.4332 50.8315 11.4332H45.155C44.702 11.4332 44.3347 11.8005 44.3347 12.2536V37.5601L41.4152 38.4166V17.3759C41.4152 16.9229 41.048 16.5556 40.5949 16.5556H34.9185C34.4654 16.5556 34.0981 16.9229 34.0981 17.3759V36.458L31.1787 35.6757V22.4984C31.1787 22.0454 30.8114 21.6781 30.3583 21.6781H24.6819C24.2289 21.6781 23.8616 22.0454 23.8616 22.4984V32.6514C20.8635 31.8134 18.5218 32.7961 15.5092 34.2692C13.4495 35.2763 11.3899 36.2566 9.43955 37.1786L9.03186 36.1995C8.4908 34.9005 6.99362 34.2823 5.69401 34.8223L1.63065 36.5096C0.99725 36.7726 0.505297 37.2641 0.245844 37.8934C-0.0138439 38.5225 -0.0115002 39.2178 0.252172 39.851L7.1326 56.373C7.54065 57.3532 8.49315 57.9455 9.4944 57.9455C9.82018 57.9455 10.1512 57.8829 10.4703 57.7503L14.5337 56.063C15.1671 55.8001 15.659 55.3086 15.9185 54.6793C16.1782 54.0501 16.1758 53.3548 15.9122 52.7217L15.4513 51.615L18.0998 50.3272C19.067 49.857 20.0395 49.7739 21.0724 50.0741L29.5241 52.528C30.1465 52.7087 30.7896 52.7859 31.4421 52.7859C33.6886 52.7859 36.0442 51.8693 38.0242 51.0986C38.1985 51.0308 38.3698 50.9642 38.5371 50.8998L54.3991 44.7873C56.9673 43.7976 58.5534 40.6747 57.727 38.2353ZM45.9753 13.0739H50.0112V35.9136C49.7457 35.9792 49.475 36.0521 49.1982 36.1332L45.9752 37.0787V13.0739H45.9753ZM35.7387 18.1963H39.7745V38.8978L38.6101 39.2394C38.5656 39.1489 38.5179 39.0594 38.4668 38.9711C37.8756 37.947 36.9244 37.2154 35.7886 36.9111L35.7384 36.8976V18.1963H35.7387ZM25.5021 23.3188H29.5379V35.2361L28.2664 34.8955C27.2686 34.1962 26.3551 33.6614 25.502 33.2656V23.3188H25.5021ZM14.402 54.0535C14.3096 54.2773 14.1329 54.4529 13.9045 54.5478L9.84116 56.2351C9.37616 56.4279 8.84061 56.2072 8.64713 55.7423L1.76635 39.2202C1.6712 38.9919 1.66979 38.7429 1.76213 38.5191C1.85448 38.2953 2.03119 38.1198 2.25959 38.0248L6.32295 36.3376C6.43721 36.2902 6.55545 36.2677 6.67205 36.2677C7.0303 36.2677 7.3712 36.4797 7.51721 36.8304L14.3979 53.3525C14.4929 53.5808 14.4943 53.8298 14.402 54.0535ZM53.8094 43.2562L37.9474 49.3687C37.7783 49.434 37.6055 49.5013 37.4293 49.5698C35.1049 50.4743 32.2122 51.6003 29.9817 50.9524L21.53 48.4985C20.1087 48.0859 18.7133 48.2047 17.3824 48.8518L14.8195 50.098L10.0707 38.6948C12.0471 37.7608 14.1368 36.7664 16.2296 35.7431C20.2731 33.7659 22.6078 32.8936 27.4386 36.3192C27.518 36.3754 27.6068 36.4173 27.7008 36.4425L35.3641 38.4959C36.0765 38.6868 36.6739 39.1469 37.0461 39.7916C37.4183 40.4362 37.5181 41.1835 37.3271 41.896C37.1362 42.6084 36.6762 43.2058 36.0314 43.578C35.3867 43.9502 34.6396 44.0502 33.9269 43.859L23.7426 41.1302C23.3054 41.0132 22.8552 41.2727 22.738 41.7103C22.6208 42.1479 22.8805 42.5976 23.3181 42.7149L33.5024 45.4438C34.6381 45.7481 35.8277 45.5901 36.8517 44.9987C37.8759 44.4075 38.6075 43.4562 38.9119 42.3205C39.0448 41.8248 39.0895 41.3186 39.0485 40.8205L49.6601 37.7075C53.1664 36.6789 55.601 37.073 56.173 38.7616C56.715 40.3614 55.5443 42.5878 53.8094 43.2562ZM9.66268 19.2734C14.9613 19.2734 19.2721 14.9627 19.2721 9.66406C19.2721 4.36543 14.9613 0.0546875 9.66268 0.0546875C4.36405 0.0546875 0.0533044 4.36543 0.0533044 9.66406C0.0533044 14.9627 4.36405 19.2734 9.66268 19.2734ZM9.66268 1.69531C14.0566 1.69531 17.6314 5.27012 17.6314 9.66406C17.6314 14.058 14.0566 17.6328 9.66268 17.6328C5.26873 17.6328 1.69393 14.058 1.69393 9.66406C1.69393 5.27012 5.26873 1.69531 9.66268 1.69531ZM6.4794 7.59277C6.4794 6.24266 7.47631 5.10301 8.82807 4.76457L8.81459 4.20148C8.80369 3.74867 9.16217 3.37273 9.6151 3.36184C9.62178 3.36172 9.62834 3.3616 9.63502 3.3616C10.079 3.3616 10.4441 3.71598 10.4547 4.16234L10.4696 4.78449C11.2096 4.98277 12.0541 5.41332 12.4445 6.00734C12.6933 6.38586 12.5881 6.89457 12.2094 7.14324C11.8308 7.39238 11.3221 7.28691 11.0735 6.90816C10.9223 6.67824 10.1099 6.30301 9.6628 6.30301C8.81213 6.30301 8.12014 6.88168 8.12014 7.59277C8.12014 8.30387 8.81201 8.88254 9.66268 8.88254C11.4179 8.88254 12.8458 10.1971 12.8458 11.8129C12.8458 13.1625 11.8499 14.3018 10.499 14.6408L10.5109 15.1265C10.5219 15.5795 10.1635 15.9554 9.71061 15.9664C9.70381 15.9665 9.69713 15.9666 9.69045 15.9666C9.24655 15.9666 8.88151 15.6124 8.87073 15.1661L8.85854 14.6568C8.10326 14.482 7.60205 14.065 7.12276 13.6129C6.79323 13.3021 6.77811 12.7829 7.08901 12.4532C7.39991 12.1237 7.91916 12.1086 8.2487 12.4195C8.79221 12.9322 9.07276 13.1028 9.6628 13.1028C10.5133 13.1028 11.2053 12.5241 11.2053 11.8129C11.2053 11.1018 10.5133 10.5232 9.6628 10.5232C7.90733 10.5232 6.4794 9.20855 6.4794 7.59277ZM23.5865 18.7251C23.3838 18.3199 23.5479 17.8271 23.953 17.6244L49.0663 5.05766L47.6885 4.59207C47.2594 4.44699 47.029 3.98141 47.1739 3.55227C47.319 3.12313 47.7842 2.89273 48.2137 3.0377L51.4558 4.1334C51.662 4.20312 51.8319 4.35172 51.9285 4.54672C52.0249 4.74172 52.0399 4.96707 51.9703 5.1732L50.8745 8.41543C50.7293 8.84469 50.2638 9.07473 49.8347 8.93C49.4055 8.78492 49.1751 8.31934 49.3201 7.8902L49.7777 6.53609L24.6873 19.0916C24.5694 19.1505 24.4442 19.1785 24.3208 19.1785C24.0199 19.1785 23.7303 19.0123 23.5865 18.7251Z" fill="#268BBF"/>
</svg>
