<svg width="58" height="56" viewBox="0 0 58 56" fill="none" xmlns="http://www.w3.org/2000/svg">
<path d="M3.49684 32.7016C3.43051 31.9508 3.39676 31.192 3.39676 30.4466C3.39676 25.287 4.92816 20.3157 7.82527 16.0701C10.2252 12.5532 13.4253 9.71879 17.1649 7.77711L16.3614 7.4709C15.8776 7.28656 15.6349 6.7448 15.8192 6.26105C16.0036 5.77731 16.5455 5.53437 17.0291 5.71883L19.9059 6.81512C20.1384 6.90371 20.3261 7.08113 20.4279 7.30824C20.5295 7.53535 20.5367 7.79352 20.4478 8.0259L19.3482 10.9027C19.2055 11.2762 18.8497 11.5058 18.4723 11.5058C18.361 11.5058 18.2479 11.4859 18.1379 11.4437C17.6543 11.2589 17.412 10.7169 17.5968 10.2332L17.8679 9.52391C10.1473 13.5983 5.27164 21.583 5.27164 30.4466C5.27164 31.1371 5.30281 31.8404 5.36434 32.5366C5.40992 33.0523 5.02883 33.5074 4.51297 33.553C4.48496 33.5554 4.45695 33.5566 4.42941 33.5566C3.94895 33.5566 3.53984 33.1892 3.49684 32.7016ZM39.1456 51.7984C35.9445 53.3311 32.5086 54.1082 28.9334 54.1082C24.4811 54.1082 20.2216 52.8928 16.4925 50.577L17.371 50.3879C17.8771 50.2789 18.1992 49.7803 18.0902 49.2741C17.9812 48.7679 17.4827 48.446 16.9764 48.555L13.9667 49.2028C13.4606 49.3118 13.1386 49.8104 13.2475 50.3165L13.8954 53.3261C13.99 53.7658 14.3786 54.0666 14.8109 54.0665C14.8763 54.0665 14.9427 54.0596 15.0091 54.0453C15.5152 53.9363 15.8373 53.4377 15.7283 52.9316L15.5737 52.2137C19.5827 54.686 24.1553 55.9832 28.9333 55.9832C32.7909 55.9832 36.4992 55.1442 39.9552 53.4895C40.4221 53.2659 40.6195 52.7061 40.3959 52.2391C40.1722 51.7721 39.6125 51.5748 39.1454 51.7984H39.1456ZM38.3948 8.75293C47.0212 12.5188 52.5951 21.0339 52.5951 30.4466C52.5951 30.9935 52.5757 31.5387 52.5392 32.0803L52.0094 31.4251C51.6839 31.0224 51.0936 30.96 50.6909 31.2855C50.2883 31.6111 50.2258 32.2013 50.5515 32.604L52.4881 34.9991C52.6734 35.2282 52.9443 35.3471 53.2177 35.3471C53.4244 35.3471 53.6327 35.279 53.806 35.1391L56.2011 33.2057C56.604 32.8805 56.6669 32.2903 56.3417 31.8874C56.0165 31.4845 55.4261 31.4216 55.0234 31.7468L54.4072 32.2441C54.4482 31.6481 54.4701 31.0481 54.4701 30.4466C54.4701 20.2884 48.4546 11.0987 39.1449 7.03461C38.6705 6.82754 38.1178 7.04422 37.9106 7.51871C37.7034 7.9932 37.9202 8.54586 38.3947 8.75293H38.3948ZM35.6546 30.4466C35.6546 34.1507 32.6395 37.1643 28.9336 37.1643C25.2276 37.1643 22.2159 34.1507 22.2159 30.4466C22.2159 26.7424 25.2294 23.7289 28.9336 23.7289C32.6377 23.7289 35.6546 26.7425 35.6546 30.4466ZM33.7796 30.4466C33.7796 27.7763 31.6057 25.6039 28.9336 25.6039C26.2614 25.6039 24.0909 27.7763 24.0909 30.4466C24.0909 33.1168 26.2633 35.2893 28.9336 35.2893C31.6038 35.2893 33.7796 33.1169 33.7796 30.4466ZM40.9784 38.7432C41.1046 39.0861 41.0202 39.4711 40.762 39.7296L38.2207 42.2742C37.9623 42.5329 37.5771 42.6178 37.2338 42.4916L34.6773 41.5515L32.727 42.3577L31.5853 44.8314C31.432 45.1634 31.0998 45.376 30.734 45.376H27.1364C26.7706 45.376 26.4384 45.1634 26.2851 44.8313L25.1434 42.3576L23.1931 41.5514L20.6366 42.4914C20.2934 42.6177 19.9085 42.5329 19.6502 42.2744L17.1056 39.7298C16.8468 39.4711 16.7622 39.0854 16.889 38.7421L17.8314 36.1899L17.0229 34.2398L14.5516 33.0979C14.2198 32.9446 14.0074 32.6124 14.0074 32.2469V28.6493C14.0074 28.2837 14.2198 27.9515 14.5517 27.7982L17.023 26.6564L17.8317 24.706L16.889 22.1504C16.7625 21.8071 16.8471 21.4217 17.1057 21.1631L19.6503 18.6184C19.9091 18.3596 20.2945 18.2751 20.6376 18.4017L23.1934 19.3443L25.1434 18.5357L26.2853 16.0614C26.4386 15.7295 26.7709 15.5169 27.1366 15.5169H30.7343C31.1 15.5169 31.4322 15.7295 31.5855 16.0614L32.7275 18.5357L34.6775 19.3443L37.2331 18.4017C37.5766 18.275 37.9623 18.3598 38.2209 18.6188L40.7622 21.1636C41.0203 21.422 41.1048 21.8068 40.9788 22.1496L40.0389 24.7055L40.8479 26.6564L43.319 27.7982C43.6509 27.9515 43.8634 28.2837 43.8634 28.6493V32.2469C43.8634 32.6124 43.6509 32.9446 43.3191 33.0979L40.8479 34.2398L40.0391 36.1904L40.9787 38.743L40.9784 38.7432ZM39.7286 32.6916L41.9881 31.6476V29.249L39.7287 28.205C39.515 28.1062 39.3461 27.9305 39.256 27.713L38.1664 25.0854C38.0761 24.8676 38.0711 24.6239 38.1525 24.4027L39.012 22.0648L37.3183 20.3689L34.9817 21.2308C34.7602 21.3125 34.5161 21.3077 34.2982 21.2172L31.6705 20.1276C31.4528 20.0374 31.2772 19.8684 31.1784 19.6545L30.1341 17.3921H27.7361L26.692 19.6545C26.5932 19.8685 26.4175 20.0374 26.1999 20.1277L23.5722 21.2173C23.3541 21.3077 23.11 21.3125 22.8887 21.2309L20.5516 20.3689L18.8557 22.065L19.7177 24.402C19.7994 24.6235 19.7945 24.8675 19.7041 25.0856L18.6145 27.7133C18.5243 27.9308 18.3555 28.1064 18.1418 28.2052L15.8823 29.2493V31.6479L18.1418 32.6919C18.3555 32.7907 18.5243 32.9663 18.6145 33.1838L19.7041 35.8115C19.7946 36.0296 19.7994 36.2738 19.7176 36.4953L18.8558 38.8289L20.5521 40.5252L22.8896 39.6657C23.1105 39.5845 23.3538 39.5893 23.5713 39.6792L26.199 40.7655C26.4171 40.8556 26.5932 41.0247 26.6921 41.2391L27.7362 43.5015H30.1343L31.1785 41.2391C31.2774 41.0248 31.4534 40.8557 31.6716 40.7655L34.2993 39.6792C34.5167 39.5892 34.7602 39.5845 34.981 39.6657L37.3181 40.525L39.0121 38.8289L38.1528 36.4945C38.0714 36.2732 38.0763 36.0294 38.1666 35.8115L39.2562 33.1838C39.3465 32.9663 39.5151 32.7907 39.729 32.6919L39.7286 32.6916ZM22.4251 12.0993V0.954102C22.4251 0.436367 22.8448 0.0166016 23.3626 0.0166016H34.5077C35.0254 0.0166016 35.4452 0.436367 35.4452 0.954102V12.0993C35.4452 12.6171 35.0254 13.0368 34.5077 13.0368H23.3626C22.8448 13.0368 22.4251 12.6171 22.4251 12.0993ZM24.3001 11.1618H33.5702V1.8916H24.3001V11.1618ZM57.3509 48.8505C57.1835 49.1405 56.874 49.3193 56.5391 49.3193H42.7596C42.4246 49.3193 42.1152 49.1405 41.9477 48.8505C41.7802 48.5605 41.7802 48.203 41.9477 47.913L48.8374 35.9773C49.0048 35.6872 49.3143 35.5085 49.6494 35.5085C49.9844 35.5085 50.2939 35.6872 50.4614 35.9773L57.351 47.913C57.5185 48.203 57.5185 48.5605 57.351 48.8505H57.3509ZM54.9152 47.4443L49.6493 38.3216L44.3833 47.4443H54.9151H54.9152ZM14.3442 42.4088C14.3442 46.2193 11.2442 49.3193 7.43375 49.3193C3.62328 49.3193 0.523438 46.2193 0.523438 42.4088C0.523438 38.5984 3.6234 35.4951 7.43375 35.4951C11.2441 35.4951 14.3442 38.5966 14.3442 42.4088ZM12.4692 42.4088C12.4692 39.6305 10.2103 37.3701 7.43375 37.3701C4.65723 37.3701 2.39844 39.6304 2.39844 42.4088C2.39844 45.1872 4.65723 47.4443 7.43375 47.4443C10.2103 47.4443 12.4692 45.1854 12.4692 42.4088Z" fill="#268BBF"/>
</svg>
