<svg width="60" height="60" viewBox="0 0 60 60" fill="none" xmlns="http://www.w3.org/2000/svg">
<path d="M13.0139 33.911C16.1467 33.911 18.6954 31.3623 18.6954 28.2295C18.6954 25.0968 16.1467 22.548 13.0139 22.548C9.88113 22.548 7.33242 25.0968 7.33242 28.2295C7.33242 31.3623 9.88113 33.911 13.0139 33.911ZM13.0139 24.4229C15.1129 24.4229 16.8204 26.1305 16.8204 28.2294C16.8204 30.3284 15.1129 32.0359 13.0139 32.0359C10.915 32.0359 9.20742 30.3284 9.20742 28.2294C9.20742 26.1305 10.915 24.4229 13.0139 24.4229ZM57.7247 36.2275C56.4943 34.9266 54.7686 34.2101 52.8656 34.2101H44.3399C42.6775 34.2101 41.2978 33.6386 40.1223 32.4629L34.5511 26.8918C33.2968 25.6378 31.2561 25.6378 30.0019 26.8918C30.0012 26.8925 30.0006 26.8932 29.9999 26.8939C29.9993 26.8932 29.9987 26.8927 29.998 26.892C29.3923 26.2861 28.5845 25.9525 27.7234 25.9525C26.8623 25.9525 26.0546 26.2861 25.4488 26.8918L19.8777 32.4629C18.7022 33.6386 17.3224 34.2101 15.66 34.2101H7.13414C5.23113 34.2101 3.50543 34.9266 2.2752 36.2275C1.01672 37.5581 0.351562 39.3755 0.351562 41.4833V54.1546C0.351562 55.0113 0.686836 55.8184 1.29574 56.4273C1.90465 57.0362 2.7116 57.3715 3.56836 57.3714C5.01609 57.3714 6.24363 56.4101 6.64594 55.0922H20.1802C20.6979 55.0922 21.1177 54.6724 21.1177 54.1547V40.3216L29.9981 31.4413C29.9988 31.4406 29.9993 31.44 30 31.4393C30.0007 31.44 30.0012 31.4406 30.0019 31.4413L38.8823 40.3216V54.1547C38.8823 54.6724 39.3021 55.0922 39.8198 55.0922H53.3541C53.7564 56.4101 54.9838 57.3714 56.4315 57.3714H56.4319C57.2885 57.3714 58.0955 57.0361 58.7043 56.4273C59.313 55.8185 59.6484 55.0113 59.6484 54.1546V41.4833C59.6484 39.3756 58.983 37.5582 57.7247 36.2275ZM28.6721 30.1152L19.5171 39.2702C19.3413 39.4461 19.2425 39.6845 19.2425 39.9332V53.2169H6.78516V43.3834C6.78516 42.8657 6.36539 42.4459 5.84766 42.4459C5.32992 42.4459 4.91016 42.8657 4.91016 43.3834V54.1544C4.91016 54.8943 4.30816 55.4961 3.56824 55.4961C3.21246 55.4961 2.87625 55.356 2.6216 55.1013C2.36695 54.8467 2.22668 54.5103 2.22668 54.1544V41.4832C2.22668 38.2543 4.19883 36.0851 7.13426 36.0851H15.66C17.8147 36.0851 19.6799 35.3125 21.2037 33.7888L26.7748 28.2177C27.0264 27.9661 27.3633 27.8273 27.7235 27.8273C28.0837 27.8273 28.4207 27.966 28.6724 28.2177C28.9202 28.4655 29.0577 28.7961 29.0618 29.1502V29.1828C29.0577 29.5368 28.9201 29.8673 28.6724 30.1152H28.6721ZM57.7733 54.1546C57.7733 54.5105 57.6332 54.8467 57.3784 55.1014C57.1236 55.3562 56.7877 55.4963 56.4318 55.4963C55.692 55.4963 55.09 54.8944 55.09 54.1546V43.3835C55.09 42.8658 54.6702 42.446 54.1525 42.446C53.6347 42.446 53.215 42.8658 53.215 43.3835V53.2171H40.7575V39.9333C40.7575 39.6846 40.6587 39.4463 40.4829 39.2704L31.3279 30.1153C31.0736 29.861 30.9439 29.5293 30.9368 29.1953C30.9368 29.1857 30.9375 29.1762 30.9375 29.1666C30.9375 29.157 30.9369 29.1475 30.9368 29.1378C30.9438 28.8039 31.0736 28.4721 31.3279 28.2178C31.851 27.6945 32.7025 27.6947 33.2254 28.2178L38.7964 33.7889C40.3202 35.3126 42.1853 36.0852 44.34 36.0852H52.8657C55.8012 36.0852 57.7734 38.2546 57.7734 41.4833V54.1546H57.7733ZM46.986 33.911C50.1187 33.911 52.6675 31.3623 52.6675 28.2295C52.6675 25.0968 50.1187 22.548 46.986 22.548C43.8532 22.548 41.3045 25.0968 41.3045 28.2295C41.3045 31.3623 43.8532 33.911 46.986 33.911ZM46.986 24.4229C49.0849 24.4229 50.7925 26.1305 50.7925 28.2294C50.7925 30.3284 49.0849 32.0359 46.986 32.0359C44.887 32.0359 43.1795 30.3284 43.1795 28.2294C43.1795 26.1305 44.887 24.4229 46.986 24.4229ZM31.2708 37.3727C30.9422 37.0078 30.4909 36.8067 29.9999 36.8067C29.5089 36.8067 29.0575 37.0078 28.7286 37.373L22.6973 44.0761C22.2391 44.585 22.1276 45.2899 22.4064 45.9157C22.685 46.5414 23.2835 46.93 23.9684 46.93H25.5938V58.0018C25.5938 58.9096 26.3324 59.6482 27.2401 59.6482H32.7595C33.6673 59.6482 34.4059 58.9095 34.4059 58.0017V46.93H36.0314C36.7162 46.93 37.3146 46.5414 37.5933 45.9157C37.872 45.2902 37.7605 44.5853 37.3025 44.0763L31.2708 37.3727ZM33.4684 45.0551C32.9507 45.0551 32.5309 45.4748 32.5309 45.9926V57.7732H27.4689V45.9926C27.4689 45.4748 27.0491 45.0551 26.5314 45.0551H24.3389L29.9999 38.7635L35.661 45.0551H33.4685H33.4684ZM19.2802 15.2517L20.5225 15.4525C20.6851 15.9546 20.8876 16.443 21.1283 16.9136L20.3916 17.9344C19.9412 18.5585 20.0092 19.4066 20.5535 19.9513L22.4317 21.8295C22.976 22.3736 23.8241 22.442 24.4486 21.9914L25.4694 21.2548C25.94 21.4956 26.4285 21.6981 26.9305 21.8606L27.1313 23.1029C27.2542 23.8629 27.9021 24.4145 28.6719 24.4145H31.328C32.0978 24.4145 32.7458 23.8629 32.8686 23.1028L33.0695 21.8605C33.5716 21.6979 34.06 21.4953 34.5305 21.2546L35.5513 21.9914C36.1755 22.4419 37.0236 22.3737 37.5682 21.8295L39.4464 19.9513C39.9907 19.4068 40.0588 18.5586 39.6083 17.9344L38.8717 16.9137C39.1126 16.4429 39.3151 15.9545 39.4777 15.4525L40.72 15.2517C41.4798 15.1288 42.0314 14.4809 42.0314 13.7111V11.055C42.0314 10.2852 41.4798 9.63715 40.7198 9.51434L39.4773 9.31348C39.3148 8.81156 39.1123 8.32313 38.8716 7.85262L39.6083 6.83168C40.0589 6.2073 39.9907 5.3591 39.4463 4.81465L37.5683 2.93684C37.0239 2.39203 36.1757 2.32395 35.5513 2.77465L34.5303 3.51141C34.06 3.27059 33.5716 3.0682 33.0695 2.90555L32.8686 1.66301C32.7457 0.903164 32.0978 0.351562 31.328 0.351562H28.6719C27.9021 0.351562 27.2541 0.903164 27.1313 1.66312L26.9304 2.90555C26.4284 3.06809 25.9399 3.27059 25.4694 3.51129L24.4487 2.77453C23.8245 2.32418 22.9761 2.39215 22.4318 2.9366L20.5534 4.81488C20.0092 5.35934 19.9411 6.20754 20.3916 6.83168L21.1282 7.8525C20.8874 8.32301 20.6849 8.81145 20.5222 9.31348L19.28 9.51434C18.5201 9.63727 17.9685 10.2852 17.9685 11.055V13.7111C17.9685 14.4809 18.5201 15.1289 19.2802 15.2517ZM19.8435 11.3225L21.407 11.0698C21.7755 11.0101 22.0734 10.7378 22.1658 10.3763C22.3552 9.63492 22.65 8.92406 23.042 8.26371C23.2325 7.94273 23.2146 7.53914 22.9961 7.23645L22.0686 5.95137L23.5685 4.45148L24.8535 5.37891C25.1562 5.59758 25.5595 5.61551 25.8806 5.42508C26.541 5.03309 27.2518 4.73836 27.9933 4.54887C28.3549 4.45652 28.6273 4.15852 28.6868 3.79008L28.9396 2.22645H31.0605L31.3133 3.79008C31.3729 4.15852 31.6452 4.45652 32.0067 4.54887C32.7486 4.73848 33.4594 5.0332 34.1193 5.42496C34.4405 5.61574 34.8439 5.59758 35.1465 5.37902L36.4317 4.4516L37.9315 5.95137L37.0041 7.23656C36.7857 7.53926 36.7676 7.94262 36.958 8.26371C37.35 8.92406 37.6446 9.6348 37.8341 10.3763C37.9264 10.7379 38.2245 11.0102 38.5929 11.0698L40.1566 11.3225V13.4435L38.5931 13.6962C38.2246 13.7557 37.9266 14.0282 37.8342 14.3898C37.6451 15.1311 37.3504 15.842 36.9582 16.5023C36.7677 16.8233 36.7856 17.2269 37.0042 17.5296L37.9315 18.8147L36.4317 20.3145L35.1466 19.387C34.8441 19.1687 34.4405 19.1504 34.1195 19.341C33.4594 19.7329 32.7486 20.0275 32.0067 20.2172C31.6452 20.3095 31.3729 20.6075 31.3133 20.976L31.0605 22.5396H28.9396L28.6869 20.976C28.6274 20.6074 28.3549 20.3094 27.9933 20.2171C27.252 20.0279 26.5411 19.7332 25.8807 19.3411C25.5598 19.1504 25.1562 19.1686 24.8535 19.387L23.5684 20.3145L22.0686 18.8147L22.9961 17.5296C23.2145 17.2269 23.2325 16.8236 23.0421 16.5025C22.6502 15.8423 22.3556 15.1315 22.1659 14.3896C22.0736 14.028 21.7755 13.7557 21.4071 13.6962L19.8435 13.4435V11.3225ZM29.9999 18.7936C33.5347 18.7936 36.4105 15.9178 36.4105 12.383C36.4105 8.84812 33.5347 5.97234 29.9999 5.97234C26.465 5.97234 23.5894 8.84812 23.5894 12.383C23.5894 15.9178 26.4652 18.7936 29.9999 18.7936ZM29.9999 7.84734C32.5009 7.84734 34.5355 9.88195 34.5355 12.383C34.5355 14.884 32.5009 16.9186 29.9999 16.9186C27.4989 16.9186 25.4644 14.884 25.4644 12.383C25.4644 9.88195 27.499 7.84734 29.9999 7.84734Z" fill="#268BBF"/>
</svg>
