<svg width="54" height="58" viewBox="0 0 54 58" fill="none" xmlns="http://www.w3.org/2000/svg">
<path d="M37.0251 43.7367L35.7227 42.3879C30.9124 47.0332 23.0854 47.0332 18.2751 42.3879L16.9727 43.7367C19.6778 46.3074 23.2671 47.7408 26.9989 47.7408C30.7307 47.7408 34.3199 46.3074 37.0251 43.7367Z" fill="#268BBF"/>
<path d="M14.5494 45.2231L13.2012 46.5262C16.8853 50.3379 21.7858 52.4372 27.0003 52.4372C32.2147 52.4372 37.1153 50.3379 40.7994 46.5262L39.4512 45.2231C36.1236 48.666 31.7018 50.5622 27.0003 50.5622C22.2988 50.5622 17.877 48.666 14.5494 45.2231Z" fill="#268BBF"/>
<path d="M27.0002 55.2497C20.8887 55.2497 15.1393 52.6922 10.8111 48.0481L9.43945 49.3264C14.1262 54.3552 20.3627 57.1247 27.0002 57.1247C33.6373 57.1247 39.8746 54.3549 44.5611 49.3264L43.1895 48.0481C38.8612 52.6922 33.1118 55.2497 27.0002 55.2497Z" fill="#268BBF"/>
<path d="M34.4414 26.1873H32.6246V28.0623H34.4389C34.211 29.8746 33.3294 31.5414 31.9597 32.7497C30.5899 33.9581 28.8261 34.6248 26.9996 34.6248C25.173 34.6248 23.4093 33.9581 22.0395 32.7497C20.6697 31.5414 19.7881 29.8746 19.5603 28.0623H21.3746V26.1873H19.5603C19.7276 24.8535 20.2522 23.5898 21.0786 22.5296L22.5867 24.0377L23.9125 22.7119L22.4044 21.2038C23.4646 20.3774 24.7283 19.8528 26.0621 19.6855V21.4998H27.9371V19.6837C28.7706 19.786 29.5806 20.0296 30.3324 20.4039L31.1668 18.7248C29.8726 18.0796 28.4456 17.7458 26.9996 17.7498C24.9562 17.7509 22.9692 18.42 21.3413 19.655C19.7134 20.8901 18.5339 22.6235 17.9824 24.591C17.431 26.5586 17.5378 28.6525 18.2867 30.5537C19.0356 32.4549 20.3855 34.0592 22.1306 35.1221C23.8758 36.185 25.9206 36.6483 27.9535 36.4414C29.9864 36.2345 31.8959 35.3687 33.3911 33.976C34.8863 32.5832 35.8853 30.7399 36.2357 28.7268C36.5862 26.7137 36.269 24.6412 35.3324 22.8251L33.6668 23.6861C34.0719 24.4671 34.3342 25.3141 34.4414 26.1873Z" fill="#268BBF"/>
<path d="M44.0588 29.9555C42.9507 29.7313 41.9539 29.1314 41.2371 28.257C40.5203 27.3827 40.1275 26.2876 40.125 25.157V20.5623H40.1223C40.0664 16.4269 38.8414 12.3917 36.5888 8.92307C34.3362 5.45449 31.1481 2.69416 27.3929 0.961113L27 0.779785L26.6071 0.961118C22.8519 2.69417 19.6638 5.4545 17.4112 8.92308C15.1586 12.3917 13.9336 16.4269 13.8777 20.5623H13.875V25.157C13.8725 26.2876 13.4796 27.3827 12.7629 28.257C12.0461 29.1314 11.0493 29.7313 9.94115 29.9555C8.40838 30.2656 7.02971 31.0955 6.03827 32.3048C5.04683 33.5142 4.50344 35.0288 4.5 36.5926V40.2498H49.5V36.5926C49.4966 35.0288 48.9532 33.5142 47.9617 32.3048C46.9703 31.0955 45.5916 30.2656 44.0588 29.9555ZM13.875 38.3748H6.375V36.5926C6.37749 35.462 6.77035 34.367 7.48715 33.4926C8.20394 32.6183 9.20069 32.0183 10.3088 31.7941C11.6722 31.5207 12.9177 30.8327 13.875 29.8242V38.3748ZM27 2.85007C29.6182 4.13112 31.9246 5.96929 33.7574 8.23574L32.8181 8.75757C31.0405 9.75286 29.0373 10.2755 27 10.2755C24.9627 10.2755 22.9595 9.75286 21.1819 8.75757L20.2426 8.23574C22.0754 5.96929 24.3818 4.13112 27 2.85007ZM38.25 25.157V38.3748H15.75V20.8603C15.7542 16.9079 16.9272 13.0451 19.1214 9.75778L20.2713 10.3966C22.0529 11.3846 24.03 11.9686 26.0625 12.1074V15.8748H27.9375V12.1074C29.97 11.9686 31.9471 11.3846 33.7287 10.3966L34.8786 9.75778C37.0728 13.0451 38.2458 16.9079 38.25 20.8603V25.157ZM47.625 38.3748H40.125V29.8242C41.0823 30.8327 42.3278 31.5207 43.6912 31.7941C44.7993 32.0183 45.7961 32.6183 46.5129 33.4926C47.2297 34.367 47.6225 35.462 47.625 36.5926V38.3748Z" fill="#268BBF"/>
<path d="M28.212 24.5872C27.6131 24.301 26.9323 24.2359 26.29 24.4031C25.6477 24.5704 25.0852 24.9594 24.702 25.5013C24.3187 26.0432 24.1394 26.7032 24.1957 27.3645C24.252 28.0259 24.5403 28.646 25.0096 29.1154C25.479 29.5847 26.0991 29.873 26.7605 29.9293C27.4218 29.9856 28.0818 29.8063 28.6237 29.423C29.1656 29.0398 29.5546 28.4773 29.7218 27.835C29.8891 27.1926 29.8239 26.5119 29.5378 25.913L35.1631 20.2877L33.8373 18.9619L28.212 24.5872ZM27.0002 28.0623C26.8147 28.0623 26.6335 28.0073 26.4793 27.9043C26.3251 27.8013 26.205 27.6549 26.134 27.4836C26.0631 27.3123 26.0445 27.1238 26.0807 26.9419C26.1168 26.7601 26.2061 26.593 26.3372 26.4619C26.4684 26.3308 26.6354 26.2415 26.8173 26.2053C26.9991 26.1692 27.1876 26.1877 27.3589 26.2587C27.5302 26.3296 27.6766 26.4498 27.7797 26.604C27.8827 26.7581 27.9377 26.9394 27.9377 27.1248C27.9374 27.3734 27.8385 27.6117 27.6628 27.7874C27.487 27.9632 27.2487 28.062 27.0002 28.0623Z" fill="#268BBF"/>
<path d="M46.6875 3.68726H48.5625V8.37476H46.6875V3.68726Z" fill="#268BBF"/>
<path d="M42.9375 13.0623H44.8125V20.5623H42.9375V13.0623Z" fill="#268BBF"/>
<path d="M42.9375 23.3748H44.8125V25.2498H42.9375V23.3748Z" fill="#268BBF"/>
<path d="M51.375 11.1873H53.25V17.7498H51.375V11.1873Z" fill="#268BBF"/>
<path d="M49.5 23.3748H51.375V29.9373H49.5V23.3748Z" fill="#268BBF"/>
<path d="M9.1875 0.874756H11.0625V6.49976H9.1875V0.874756Z" fill="#268BBF"/>
<path d="M0.75 4.62476H2.625V10.2498H0.75V4.62476Z" fill="#268BBF"/>
<path d="M0.75 12.1248H2.625V13.9998H0.75V12.1248Z" fill="#268BBF"/>
<path d="M7.3125 12.1248H9.1875V19.6248H7.3125V12.1248Z" fill="#268BBF"/>
<path d="M0.75 21.4998H2.625V28.9998H0.75V21.4998Z" fill="#268BBF"/>
</svg>
