<svg width="58" height="60" viewBox="0 0 58 60" fill="none" xmlns="http://www.w3.org/2000/svg">
<path d="M55.4361 60H49.0075C48.1204 59.999 47.4013 59.28 47.4004 58.3928V48.75C47.4013 47.8628 48.1204 47.1438 49.0075 47.1428H55.4361C56.3232 47.1438 57.0423 47.8628 57.0432 48.75V58.3928C57.0423 59.28 56.3234 59.999 55.4361 60ZM49.5432 57.8571H54.9004V49.2857H49.5432V57.8571Z" fill="#268BBF"/>
<path d="M43.6509 60.0001H37.2224C36.3352 59.9991 35.6162 59.2801 35.6152 58.3929V42.3215C35.6162 41.4344 36.3352 40.7153 37.2224 40.7144H43.6509C44.5381 40.7153 45.2572 41.4344 45.2581 42.3215V58.3929C45.2572 59.2801 44.5382 59.9991 43.6509 60.0001ZM37.7581 57.8572H43.1152V42.8572H37.7581V57.8572Z" fill="#268BBF"/>
<path d="M31.8658 59.9999H25.4372C24.5501 59.999 23.831 59.2799 23.8301 58.3928V35.8928C23.831 35.0056 24.5501 34.2866 25.4372 34.2856H31.8658C32.7529 34.2866 33.472 35.0056 33.4729 35.8928V58.3928C33.472 59.2799 32.7531 59.999 31.8658 59.9999ZM25.9729 57.8571H31.3301V36.4285H25.9729V57.8571Z" fill="#268BBF"/>
<path d="M20.0787 59.9999H13.6501C12.763 59.9989 12.0439 59.2799 12.043 58.3927V25.1784C12.0439 24.2913 12.763 23.5722 13.6501 23.5713H20.0787C20.9658 23.5722 21.6849 24.2913 21.6858 25.1784V58.3927C21.6849 59.2799 20.966 59.9989 20.0787 59.9999ZM14.1858 57.857H19.543V25.7141H14.1858V57.857Z" fill="#268BBF"/>
<path d="M8.29353 60.0001H1.86496C0.977813 59.9991 0.25875 59.2801 0.257812 58.3929V12.3215C0.25875 11.4344 0.977813 10.7153 1.86496 10.7144H8.29353C9.18067 10.7153 9.89973 11.4344 9.90067 12.3215V58.3929C9.89973 59.2801 9.1808 59.9991 8.29353 60.0001ZM2.40067 57.8572H7.75781V12.8572H2.40067V57.8572Z" fill="#268BBF"/>
<path d="M57.1694 40.3271L55.4692 35.7008C55.2614 35.1469 54.644 34.866 54.0901 35.0737C53.5413 35.2794 53.2598 35.888 53.4581 36.4395L54.3218 38.7903C42.5808 34.1263 31.9983 26.9578 23.3122 17.7842C18.5369 12.7115 14.3953 7.07758 10.9788 1.00606C10.684 0.493112 10.0292 0.316058 9.51627 0.610835C9.00935 0.901996 8.82962 1.54592 9.1122 2.05767C12.6138 8.28079 16.8585 14.0554 21.7533 19.2544C30.5547 28.569 41.2648 35.8717 53.1506 40.6626L51.1685 41.3913C50.6141 41.5979 50.3323 42.2149 50.539 42.7693C50.7443 43.3199 51.3546 43.6023 51.9072 43.4024L56.5335 41.7021C57.0771 41.4857 57.3566 40.8817 57.1694 40.3271Z" fill="#268BBF"/>
<path d="M45.9615 23.5714C39.4524 23.5714 34.1758 18.2948 34.1758 11.7857C34.1758 5.27665 39.4524 0 45.9615 0C52.4706 0 57.7472 5.27665 57.7472 11.7857C57.7398 18.2917 52.4675 23.5641 45.9615 23.5714ZM45.9615 2.14286C40.636 2.14286 36.3186 6.46005 36.3186 11.7857C36.3186 17.1114 40.636 21.4286 45.9615 21.4286C51.287 21.4286 55.6044 17.1113 55.6044 11.7857C55.5982 6.46272 51.2845 2.14902 45.9615 2.14286Z" fill="#268BBF"/>
<path d="M50.2762 14.4203C50.2762 12.7621 49.0033 11.0003 46.0271 10.6964C44.3229 10.5233 43.7912 9.81384 43.7912 9.15102C43.7912 8.30406 44.7852 7.58834 45.9623 7.58834C46.7273 7.55593 47.4605 7.89638 47.9294 8.50174C48.2582 8.99392 48.9237 9.12625 49.4158 8.79759C49.9019 8.47281 50.038 7.81843 49.7218 7.32678C49.0882 6.41312 48.1244 5.78138 47.0338 5.56482V4.82607C47.0338 4.23437 46.5541 3.75464 45.9624 3.75464C45.3707 3.75464 44.891 4.23437 44.891 4.82607V5.57513C43.1058 5.86013 41.7579 7.34647 41.6484 9.15102C41.6484 10.7539 42.8231 12.5272 45.8112 12.8283C47.5674 13.0066 48.1335 13.7758 48.1335 14.4203C48.1335 15.2673 47.1395 15.983 45.9624 15.983C45.1858 16.0191 44.4421 15.6668 43.9781 15.0428C43.6612 14.5429 42.9992 14.3945 42.4993 14.7113C42.0046 15.025 41.8532 15.6778 42.1596 16.177C42.788 17.1283 43.7721 17.7874 44.891 18.0064V18.7453C44.891 19.337 45.3707 19.8167 45.9624 19.8167C46.5541 19.8167 47.0338 19.337 47.0338 18.7453V17.9962C48.819 17.7112 50.1668 16.2247 50.2762 14.4203Z" fill="#268BBF"/>
</svg>
