<svg width="50" height="64" viewBox="0 0 50 64" fill="none" xmlns="http://www.w3.org/2000/svg">
<path d="M12.2922 23.707L22.2922 33.707C22.4797 33.8945 22.734 33.9998 22.9992 33.9998C23.2643 33.9998 23.5186 33.8945 23.7062 33.707L33.7062 23.707C33.8503 23.562 33.9461 23.376 33.9805 23.1744C34.0149 22.9729 33.9861 22.7656 33.8982 22.581C33.8982 22.571 33.8982 22.564 33.8982 22.553L30.8982 16.553C30.8148 16.3862 30.6864 16.246 30.5276 16.1482C30.3687 16.0505 30.1857 15.9992 29.9992 16H15.9992C15.8133 15.9999 15.6311 16.0516 15.4731 16.1493C15.315 16.247 15.1872 16.3868 15.1042 16.553L12.1042 22.553C12.1042 22.559 12.1112 22.562 12.1042 22.568C12.0126 22.7537 11.9815 22.9634 12.0152 23.1677C12.0489 23.372 12.1458 23.5606 12.2922 23.707ZM18.3222 24L20.2612 28.848L15.4132 24H18.3222ZM24.2782 18L25.6122 22H20.3862L21.7202 18H24.2782ZM30.5852 24L25.7372 28.848L27.6762 24H30.5852ZM25.5222 24L22.9992 30.308L20.4762 24H25.5222ZM31.3812 22H27.7202L26.3872 18H29.3812L31.3812 22ZM16.6172 18H19.6112L18.2782 22H14.6172L16.6172 18Z" fill="#268BBF"/>
<path d="M26 48.0001V45.8001C31.7899 45.0384 37.0732 42.1028 40.7783 37.5889C44.4833 33.0749 46.3325 27.3206 45.9509 21.4934C45.5692 15.6661 42.9852 10.2022 38.723 6.21007C34.4609 2.21796 28.8398 -0.00341797 23 -0.00341797C17.1603 -0.00341797 11.5392 2.21796 7.27702 6.21007C3.01488 10.2022 0.43088 15.6661 0.0492101 21.4934C-0.33246 27.3206 1.51678 33.0749 5.2218 37.5889C8.92682 42.1028 14.2102 45.0384 20 45.8001V48.0001C19.2044 48.0001 18.4413 48.3162 17.8787 48.8788C17.3161 49.4414 17 50.2044 17 51.0001V63.0001C17 63.2653 17.1054 63.5197 17.2929 63.7072C17.4805 63.8947 17.7348 64.0001 18 64.0001C18.2653 64.0001 18.5196 63.8947 18.7071 63.7072C18.8947 63.5197 19 63.2653 19 63.0001V51.0001C19 50.7349 19.1054 50.4805 19.2929 50.293C19.4805 50.1054 19.7348 50.0001 20 50.0001H26C26.2653 50.0001 26.5196 50.1054 26.7071 50.293C26.8947 50.4805 27 50.7349 27 51.0001V63.0001C27 63.2653 27.1054 63.5197 27.2929 63.7072C27.4805 63.8947 27.7348 64.0001 28 64.0001C28.2653 64.0001 28.5196 63.8947 28.7071 63.7072C28.8947 63.5197 29 63.2653 29 63.0001V51.0001C29 50.2044 28.684 49.4414 28.1214 48.8788C27.5587 48.3162 26.7957 48.0001 26 48.0001ZM21.09 43.9091C15.7084 43.4176 10.7234 40.8703 7.17188 36.7972C3.62038 32.7241 1.7758 27.4386 2.02181 22.0401C2.26782 16.6417 4.58548 11.5459 8.49272 7.81266C12.4 4.07941 17.596 1.99613 23 1.99613C28.4041 1.99613 33.6001 4.07941 37.5073 7.81266C41.4146 11.5459 43.7323 16.6417 43.9783 22.0401C44.2243 27.4386 42.3797 32.7241 38.8282 36.7972C35.2767 40.8703 30.2917 43.4176 24.91 43.9091C24.6607 43.9316 24.4289 44.0468 24.2604 44.232C24.0919 44.4171 23.999 44.6588 24 44.9091V48.0001H22V44.9051C22 44.6554 21.9067 44.4148 21.7383 44.2305C21.5699 44.0462 21.3387 43.9316 21.09 43.9091Z" fill="#268BBF"/>
<path d="M41 43C39.22 43 37.4799 43.5278 35.9999 44.5168C34.5198 45.5057 33.3663 46.9113 32.6851 48.5559C32.0039 50.2004 31.8257 52.01 32.1729 53.7558C32.5202 55.5016 33.3774 57.1053 34.636 58.364C35.8947 59.6226 37.4984 60.4798 39.2442 60.8271C40.99 61.1743 42.7996 60.9961 44.4442 60.3149C46.0887 59.6337 47.4943 58.4802 48.4832 57.0001C49.4722 55.5201 50 53.78 50 52C49.9974 49.6139 49.0483 47.3262 47.361 45.639C45.6738 43.9517 43.3861 43.0026 41 43ZM41 59C39.6155 59 38.2622 58.5895 37.111 57.8203C35.9599 57.0511 35.0627 55.9579 34.5328 54.6788C34.003 53.3997 33.8644 51.9922 34.1345 50.6344C34.4046 49.2765 35.0713 48.0292 36.0503 47.0503C37.0292 46.0713 38.2765 45.4046 39.6344 45.1345C40.9922 44.8644 42.3997 45.003 43.6788 45.5328C44.9579 46.0627 46.0511 46.9599 46.8203 48.111C47.5895 49.2622 48 50.6155 48 52C47.9979 53.8559 47.2597 55.6351 45.9474 56.9474C44.6351 58.2597 42.8559 58.9979 41 59Z" fill="#268BBF"/>
<path d="M43.2924 49.2932L39.9994 52.5862L38.7064 51.2932C38.5178 51.111 38.2652 51.0102 38.003 51.0125C37.7408 51.0148 37.49 51.1199 37.3046 51.3053C37.1192 51.4908 37.014 51.7416 37.0118 52.0038C37.0095 52.266 37.1103 52.5186 37.2924 52.7072L39.2924 54.7072C39.48 54.8946 39.7343 54.9999 39.9994 54.9999C40.2646 54.9999 40.5189 54.8946 40.7064 54.7072L44.7064 50.7072C44.8886 50.5186 44.9894 50.266 44.9871 50.0038C44.9848 49.7416 44.8797 49.4908 44.6943 49.3053C44.5088 49.1199 44.258 49.0148 43.9958 49.0125C43.7336 49.0102 43.481 49.111 43.2924 49.2932Z" fill="#268BBF"/>
<path d="M35.4196 37.3491C35.6201 37.1754 35.7434 36.9291 35.7623 36.6645C35.7813 36.3999 35.6943 36.1386 35.5206 35.9381C35.3469 35.7376 35.1006 35.6143 34.836 35.5954C34.5714 35.5764 34.3101 35.6634 34.1096 35.8371C30.8064 38.7066 26.5297 40.202 22.1582 40.0163C17.7866 39.8305 13.6522 37.9776 10.6044 34.8383C7.55651 31.6989 5.82667 27.5115 5.77025 23.1364C5.71383 18.7613 7.33511 14.5307 10.301 11.3138C13.2669 8.09689 17.3521 6.138 21.7174 5.83957C26.0827 5.54114 30.3966 6.92584 33.7727 9.70917C37.1487 12.4925 39.3307 16.4631 39.8702 20.8052C40.4097 25.1473 39.2659 29.5312 36.6736 33.0561C36.5957 33.1618 36.5393 33.2818 36.5078 33.4093C36.4762 33.5368 36.4701 33.6693 36.4897 33.7991C36.5294 34.0614 36.6716 34.2972 36.8851 34.4546C37.0986 34.612 37.3659 34.6781 37.6282 34.6385C37.8904 34.5988 38.1262 34.4566 38.2836 34.2431C40.7001 30.993 42.0036 27.0501 42.0006 23.0001C42.0134 18.6476 40.5359 14.4219 37.8137 11.0257C35.0915 7.62956 31.2887 5.26762 27.0378 4.33274C22.7869 3.39785 18.344 3.94635 14.4481 5.88702C10.5522 7.8277 7.43804 11.0436 5.62355 14.9998C3.80906 18.9561 3.40359 23.4143 4.47459 27.6329C5.54558 31.8516 8.02848 35.5765 11.5104 38.1882C14.9922 40.7999 19.2632 42.1409 23.6131 41.9882C27.9629 41.8356 32.1294 40.1984 35.4196 37.3491Z" fill="#268BBF"/>
</svg>
