<svg width="58" height="58" viewBox="0 0 58 58" fill="none" xmlns="http://www.w3.org/2000/svg">
<path fill-rule="evenodd" clip-rule="evenodd" d="M29.0004 12.9288C28.5869 12.9288 28.2518 12.5936 28.2518 12.1802C28.2518 11.7667 28.5869 11.4316 29.0004 11.4316C38.703 11.4316 46.569 19.2975 46.569 29.0002C46.569 38.703 38.7031 46.5689 29.0004 46.5689C28.5869 46.5689 28.2518 46.2337 28.2518 45.8203C28.2518 45.4068 28.5869 45.0717 29.0004 45.0717C37.8765 45.0717 45.0718 37.8764 45.0718 29.0002C45.0718 20.1241 37.8765 12.9288 29.0004 12.9288ZM23.303 44.0327C22.7314 43.8193 22.1607 44.3382 22.3164 44.928C22.3824 45.164 22.5462 45.346 22.7755 45.4338C23.2639 45.6191 23.7568 45.7794 24.2594 45.9214C24.579 46.0106 24.9173 45.8797 25.0945 45.5996C25.3606 45.1757 25.1446 44.6142 24.6625 44.4795C24.2019 44.3494 23.7506 44.2024 23.3029 44.0326L23.303 44.0327ZM18.4242 41.1015C17.9814 40.721 17.2975 40.9621 17.1949 41.5382C17.1507 41.7978 17.2428 42.057 17.441 42.2305C17.8333 42.5737 18.2413 42.8995 18.6624 43.2065C18.9934 43.4433 19.4423 43.3791 19.6934 43.0589C19.9522 42.7226 19.8839 42.2441 19.541 41.9941C19.1558 41.7132 18.783 41.4152 18.4242 41.1014V41.1015ZM13.0855 31.2527C13.0461 30.9823 12.8677 30.7585 12.6131 30.6596C12.0777 30.4569 11.5244 30.8977 11.6033 31.4641C11.6757 31.9808 11.7716 32.4924 11.8895 33.0007C11.9677 33.3285 12.2469 33.56 12.5832 33.5777C13.0815 33.5974 13.4593 33.1454 13.347 32.6588C13.2392 32.1936 13.1517 31.7255 13.0855 31.2527ZM13.2975 25.5637C13.4079 25.0416 12.9628 24.5786 12.4364 24.6676C12.1355 24.7224 11.8996 24.9469 11.8344 25.2464L11.5699 26.7892C11.5026 27.3521 12.0538 27.7788 12.583 27.5785C12.8427 27.4757 13.0208 27.2486 13.0559 26.971C13.1152 26.4998 13.1955 26.0275 13.2975 25.5637ZM15.4818 20.3061C15.689 19.977 15.6158 19.5495 15.3078 19.311C14.9579 19.0423 14.4574 19.1305 14.2193 19.5015C13.9378 19.9403 13.6742 20.3899 13.4326 20.8519C13.1547 21.3923 13.5975 22.0203 14.2004 21.9383C14.442 21.9037 14.6485 21.7583 14.7614 21.5417C14.983 21.1185 15.224 20.7082 15.4818 20.3061ZM19.3597 16.1394C19.7816 15.8172 19.7486 15.1774 19.2948 14.9008C19.0295 14.7437 18.7043 14.7596 18.457 14.945C18.0402 15.2581 17.6384 15.5894 17.2508 15.938C16.807 16.3405 16.9914 17.0746 17.5729 17.2201C17.8171 17.279 18.0677 17.2169 18.2547 17.0486C18.6099 16.7293 18.9778 16.4262 19.3596 16.1394H19.3597ZM15.6031 37.8806C15.3391 37.4813 15.0948 37.0762 14.8659 36.6559C14.6982 36.351 14.3472 36.2026 14.0117 36.2933C13.5444 36.4236 13.3214 36.9487 13.5528 37.375C13.8014 37.8315 14.0707 38.283 14.36 38.7148C14.7952 39.3624 15.7654 38.9958 15.7298 38.2593C15.723 38.1184 15.6791 37.9983 15.6031 37.8806ZM24.4438 13.5832C25.012 13.4123 25.1663 12.6828 24.7157 12.2961C24.5197 12.131 24.2625 12.0759 24.0163 12.1483L22.5371 12.6581C21.9506 12.8959 21.9011 13.7028 22.4554 14.0097C22.6544 14.1168 22.8825 14.1322 23.0929 14.0483C23.5348 13.8728 23.9877 13.7176 24.4438 13.5832ZM25.5823 29.7114L27.9951 31.6087C28.3289 31.8711 28.7871 31.7991 29.0497 31.4767L32.5205 27.4676C32.7902 27.156 32.7562 26.6846 32.4445 26.415C32.1328 26.1453 31.6614 26.1793 31.3918 26.491L28.3597 29.9934L26.5064 28.536C26.1818 28.2809 25.7117 28.3372 25.4566 28.6618C25.2015 28.9864 25.2577 29.4564 25.5823 29.7116V29.7114ZM35.0682 22.9323C31.7172 19.5813 26.2836 19.5812 22.9325 22.9323C19.5815 26.2832 19.5815 31.717 22.9325 35.068C26.2836 38.4189 31.7171 38.4189 35.0682 35.068C38.4193 31.7169 38.4192 26.2833 35.0682 22.9323ZM29.0004 18.9219C23.4345 18.9219 18.9221 23.4343 18.9221 29.0001C18.9221 34.5659 23.4345 39.0784 29.0004 39.0784C34.5662 39.0784 39.0786 34.5659 39.0786 29.0001C39.0786 23.4343 34.5662 18.9219 29.0004 18.9219ZM48.6515 5.66819L43.2666 10.67L47.0108 14.701L52.3948 9.70003C52.6537 9.45921 53.0588 9.47374 53.2996 9.73261L54.6657 11.2033L55.6511 2.91991L47.3177 3.29245L48.6841 4.76351C48.9249 5.02237 48.9104 5.42737 48.6515 5.66819ZM41.9257 10.168C41.6668 10.4088 41.6523 10.8139 41.8931 11.0728L46.5086 16.042C46.7495 16.3008 47.1546 16.3154 47.4134 16.0746L52.7975 11.0736L54.6479 13.0658C55.0215 13.4887 55.7087 13.2898 55.7752 12.7285L57.0133 2.32237H57.012C57.0577 1.93062 56.7425 1.59077 56.3491 1.60812L45.9027 2.07499C45.3248 2.08999 45.0717 2.7562 45.4389 3.15124L47.3107 5.16628L41.9258 10.1681L41.9257 10.168ZM5.66844 9.34894L10.6702 14.7338L14.7013 10.9897L9.70027 5.60562C9.45945 5.34675 9.47398 4.94163 9.73285 4.70081L11.2036 3.33476L2.92016 2.34933L3.2927 10.6828L4.76375 9.31636C5.02262 9.07554 5.42762 9.09007 5.66844 9.34894ZM10.1681 16.0748L5.16629 10.6899L3.15125 12.5616C2.75633 12.9289 2.09 12.6757 2.075 12.0979L1.60813 1.65148C1.5909 1.25808 1.93063 0.942843 2.32227 0.988546V0.987257L12.7286 2.22534C13.29 2.29191 13.4888 2.97898 13.0659 3.35269L11.0737 5.20308L16.0747 10.5871C16.3155 10.846 16.301 11.2511 16.0421 11.4919L11.0729 16.1075C10.814 16.3483 10.4089 16.3338 10.1681 16.0749V16.0748ZM9.34918 52.3321L14.7341 47.3303L10.9899 43.2993L5.60586 48.3003C5.34699 48.5411 4.94188 48.5266 4.70106 48.2677L3.335 46.797L2.34945 55.0804L10.6829 54.7079L9.31648 53.2368C9.07566 52.978 9.0902 52.5728 9.34906 52.332L9.34918 52.3321ZM16.075 47.8324L10.6902 52.8342L12.5619 54.8492C12.9291 55.2443 12.6759 55.9105 12.0982 55.9255L1.65172 56.3923C1.25832 56.4096 0.943087 56.0698 0.98879 55.6782H0.987501L2.22559 45.2718C2.29215 44.7105 2.97922 44.5116 3.35293 44.9346L5.20332 46.9268L10.5874 41.9258C10.8463 41.685 11.2514 41.6995 11.4922 41.9584L16.1077 46.9276C16.3486 47.1864 16.334 47.5916 16.0752 47.8324H16.075ZM52.3323 48.6513L47.3305 43.2664L43.2995 47.0105L48.3004 52.3946C48.5413 52.6535 48.5267 53.0586 48.2678 53.2994L46.7971 54.6655L55.0805 55.6509L54.708 47.3175L53.237 48.6839C52.9781 48.9247 52.573 48.9101 52.3321 48.6513H52.3323ZM47.8326 41.9254C47.5918 41.6666 47.1867 41.652 46.9278 41.8928L41.9586 46.5084C41.6997 46.7492 41.6852 47.1543 41.926 47.4132L46.927 52.7973L44.9348 54.6476C44.5119 55.0212 44.7107 55.7084 45.2721 55.775L55.6782 57.0131V57.0118C56.07 57.0575 56.4098 56.7423 56.3925 56.3489L55.9256 45.9024C55.9106 45.3246 55.2444 45.0714 54.8493 45.4387L52.8343 47.3104L47.8325 41.9255L47.8326 41.9254Z" fill="#268BBF"/>
</svg>
