<svg width="52" height="60" viewBox="0 0 52 60" fill="none" xmlns="http://www.w3.org/2000/svg">
<path d="M24.8352 5.59805C24.8352 5.86714 24.7554 6.13019 24.6059 6.35393C24.4564 6.57767 24.2439 6.75205 23.9953 6.85503C23.7467 6.958 23.4731 6.98495 23.2092 6.93245C22.9453 6.87995 22.7028 6.75037 22.5126 6.5601C22.3223 6.36982 22.1927 6.1274 22.1402 5.86348C22.0877 5.59956 22.1147 5.326 22.2176 5.07739C22.3206 4.82878 22.495 4.61629 22.7187 4.46679C22.9425 4.31729 23.2055 4.2375 23.4746 4.2375C23.8353 4.23812 24.181 4.38166 24.436 4.63668C24.691 4.8917 24.8345 5.2374 24.8352 5.59805ZM14.6762 21.6246C14.4335 21.3843 14.2866 21.0638 14.2629 20.7231C14.2392 20.3824 14.3402 20.0447 14.5473 19.773C15.1786 18.9339 15.9245 18.1876 16.7633 17.5559C17.0351 17.349 17.3729 17.2481 17.7136 17.272C18.0543 17.296 18.3747 17.4431 18.6148 17.6859L19.1164 18.1875C19.62 17.9223 20.1468 17.7038 20.6902 17.5348V16.8316C20.6871 16.4892 20.8091 16.1574 21.0333 15.8984C21.2575 15.6395 21.5684 15.4713 21.9078 15.4254C22.9473 15.2801 24.0019 15.2801 25.0414 15.4254C25.3808 15.4713 25.6917 15.6395 25.9159 15.8984C26.1401 16.1574 26.2621 16.4892 26.259 16.8316V17.5348C26.8024 17.7038 27.3292 17.9223 27.8328 18.1875L28.3344 17.6859C28.5746 17.4428 28.8952 17.2955 29.2362 17.2715C29.5772 17.2476 29.9152 17.3487 30.1871 17.5559C31.0259 18.1876 31.7718 18.9339 32.4031 19.773C32.61 20.0448 32.7109 20.3826 32.687 20.7233C32.663 21.0641 32.5159 21.3844 32.273 21.6246L31.7715 22.1262C32.0371 22.6295 32.2556 23.1564 32.4242 23.7H33.1344C33.4758 23.6983 33.8062 23.821 34.0639 24.045C34.3216 24.2691 34.489 24.5792 34.5348 24.9176C34.6816 25.9569 34.6816 27.0118 34.5348 28.0512C34.4861 28.3883 34.318 28.6968 34.0609 28.9203C33.8038 29.1438 33.475 29.2675 33.1344 29.2687H32.4242C32.2556 29.8124 32.0371 30.3392 31.7715 30.8426L32.273 31.3441C32.5159 31.5843 32.663 31.9047 32.687 32.2454C32.7109 32.5861 32.61 32.9239 32.4031 33.1957C31.7715 34.0346 31.0256 34.7809 30.1871 35.4129C29.9152 35.6201 29.5772 35.7212 29.2362 35.6972C28.8952 35.6733 28.5746 35.526 28.3344 35.2828L27.8328 34.7812C27.3292 35.0464 26.8024 35.2649 26.259 35.434V36.143C26.2621 36.4854 26.1401 36.8173 25.9159 37.0762C25.6917 37.3351 25.3808 37.5033 25.0414 37.5492C24.0019 37.6945 22.9473 37.6945 21.9078 37.5492C21.5684 37.5033 21.2575 37.3351 21.0333 37.0762C20.8091 36.8173 20.6871 36.4854 20.6902 36.143V35.4328C20.1468 35.2641 19.62 35.046 19.1164 34.7812L18.6172 35.2828C18.3753 35.5228 18.0553 35.6679 17.7154 35.6915C17.3755 35.7152 17.0384 35.6159 16.7656 35.4117C15.9263 34.781 15.1803 34.035 14.5496 33.1957C14.3427 32.9239 14.2418 32.5861 14.2658 32.2454C14.2897 31.9047 14.4368 31.5843 14.6797 31.3441L15.1801 30.8426C14.9154 30.3388 14.6969 29.812 14.5273 29.2687H13.8125C13.47 29.2718 13.1382 29.1499 12.8793 28.9257C12.6204 28.7015 12.4522 28.3906 12.4062 28.0512C12.2609 27.0117 12.2609 25.9571 12.4062 24.9176C12.4552 24.5795 12.6243 24.2704 12.8826 24.0468C13.1408 23.8233 13.4709 23.7001 13.8125 23.7H14.5215C14.6906 23.1566 14.909 22.6298 15.1742 22.1262L14.6762 21.6246ZM15.2445 25.575H14.2238C14.1945 25.8762 14.1805 26.1809 14.1805 26.4844C14.1805 26.7879 14.1945 27.0926 14.2238 27.3937H15.2445C15.4568 27.3944 15.6627 27.4671 15.8283 27.5999C15.9939 27.7328 16.1095 27.9179 16.1562 28.125C16.3447 28.9648 16.6769 29.7656 17.1383 30.4922C17.2523 30.6721 17.3017 30.8855 17.2783 31.0972C17.2548 31.309 17.16 31.5064 17.0094 31.657L16.2875 32.3789C16.6741 32.8496 17.1059 33.2814 17.5766 33.668L18.2984 32.9461C18.4491 32.7955 18.6465 32.7006 18.8582 32.6772C19.07 32.6538 19.2834 32.7031 19.4633 32.8172C20.1897 33.2788 20.9906 33.6111 21.8305 33.7992C22.0384 33.8456 22.2244 33.9613 22.3577 34.1275C22.4911 34.2936 22.5638 34.5002 22.5641 34.7133V35.7352C23.1689 35.7937 23.778 35.7937 24.3828 35.7352V34.7145C24.3828 34.5012 24.4554 34.2943 24.5888 34.1279C24.7222 33.9615 24.9083 33.8456 25.1164 33.7992C25.9565 33.6118 26.7575 33.2795 27.4836 32.8172C27.6636 32.7028 27.8773 32.6533 28.0893 32.6767C28.3012 32.7002 28.4989 32.7952 28.6496 32.9461L29.3703 33.668C29.8413 33.2817 30.2731 32.8499 30.6594 32.3789L29.9375 31.657C29.7869 31.5064 29.692 31.309 29.6686 31.0972C29.6452 30.8855 29.6945 30.6721 29.8086 30.4922C30.2709 29.7661 30.6032 28.9651 30.7906 28.125C30.837 27.9169 30.953 27.7308 31.1193 27.5974C31.2857 27.464 31.4926 27.3914 31.7059 27.3914H32.7266C32.7562 27.0891 32.7711 26.7859 32.7711 26.482C32.7711 26.1785 32.7559 25.8738 32.7266 25.5727H31.7059C31.4926 25.5727 31.2857 25.5 31.1193 25.3667C30.953 25.2333 30.837 25.0472 30.7906 24.8391C30.6031 23.9992 30.2713 23.1982 29.8098 22.4719C29.6956 22.2921 29.646 22.0788 29.6692 21.867C29.6924 21.6553 29.7871 21.4578 29.9375 21.307L30.6594 20.5852C30.2728 20.1144 29.8411 19.6827 29.3703 19.2961L28.6473 20.018C28.4966 20.1686 28.2992 20.2634 28.0875 20.2869C27.8757 20.3103 27.6623 20.2609 27.4824 20.1469C26.7564 19.6845 25.9553 19.3522 25.1152 19.1648C24.9071 19.1185 24.721 19.0025 24.5876 18.8361C24.4543 18.6697 24.3816 18.4629 24.3816 18.2496V17.2289C23.7768 17.1703 23.1677 17.1703 22.5629 17.2289V18.2496C22.5629 18.4629 22.4903 18.6697 22.3569 18.8361C22.2235 19.0025 22.0374 19.1185 21.8293 19.1648C20.9894 19.353 20.1885 19.6852 19.4621 20.1469C19.2822 20.2609 19.0688 20.3103 18.8571 20.2869C18.6453 20.2634 18.4479 20.1686 18.2973 20.018L17.5754 19.2961C17.1044 19.6824 16.6726 20.1142 16.2863 20.5852L17.0082 21.307C17.1588 21.4577 17.2537 21.6551 17.2771 21.8668C17.3005 22.0786 17.2512 22.292 17.1371 22.4719C16.6747 23.1994 16.3428 24.0021 16.1562 24.8438C16.1095 25.0509 15.9939 25.236 15.8283 25.3688C15.6627 25.5017 15.4568 25.5744 15.2445 25.575ZM17.3281 26.4844C17.3279 25.2682 17.6883 24.0792 18.3639 23.0678C19.0395 22.0565 19.9998 21.2682 21.1234 20.8027C22.247 20.3371 23.4834 20.2153 24.6762 20.4525C25.8691 20.6897 26.9648 21.2753 27.8248 22.1353C28.6848 22.9953 29.2705 24.091 29.5077 25.2839C29.7449 26.4768 29.623 27.7132 29.1575 28.8368C28.692 29.9604 27.9037 30.9207 26.8923 31.5963C25.881 32.2718 24.692 32.6323 23.4758 32.632C21.8459 32.6302 20.2833 31.9819 19.1308 30.8294C17.9783 29.6769 17.33 28.1143 17.3281 26.4844ZM19.2031 26.4844C19.2031 27.3297 19.4538 28.1561 19.9235 28.8589C20.3931 29.5618 21.0607 30.1095 21.8417 30.433C22.6227 30.7564 23.4821 30.841 24.3112 30.676C25.1402 30.511 25.9018 30.1038 26.4994 29.506C27.0971 28.9082 27.504 28.1466 27.6688 27.3174C27.8336 26.4883 27.7488 25.629 27.4251 24.848C27.1015 24.0671 26.5535 23.3997 25.8505 22.9302C25.1475 22.4608 24.3211 22.2103 23.4758 22.2105C22.3427 22.2115 21.2563 22.6621 20.4552 23.4634C19.6541 24.2648 19.2037 25.3513 19.2031 26.4844ZM8.94219 42.0574H24.391C24.6397 42.0574 24.8781 41.9586 25.0539 41.7828C25.2297 41.607 25.3285 41.3686 25.3285 41.1199C25.3285 40.8713 25.2297 40.6328 25.0539 40.457C24.8781 40.2812 24.6397 40.1824 24.391 40.1824H8.94219C8.69355 40.1824 8.45509 40.2812 8.27927 40.457C8.10346 40.6328 8.00469 40.8713 8.00469 41.1199C8.00469 41.3686 8.10346 41.607 8.27927 41.7828C8.45509 41.9586 8.69355 42.0574 8.94219 42.0574ZM8.00469 49.323C8.00469 49.5717 8.10346 49.8101 8.27927 49.986C8.45509 50.1618 8.69355 50.2605 8.94219 50.2605H37.8582C38.1068 50.2605 38.3453 50.1618 38.5211 49.986C38.6969 49.8101 38.7957 49.5717 38.7957 49.323C38.7957 49.0744 38.6969 48.8359 38.5211 48.6601C38.3453 48.4843 38.1068 48.3855 37.8582 48.3855H8.94219C8.69355 48.3855 8.45509 48.4843 8.27927 48.6601C8.10346 48.8359 8.00469 49.0744 8.00469 49.323ZM8.94219 46.159H30.5527C30.8014 46.159 31.0398 46.0602 31.2156 45.8844C31.3915 45.7086 31.4902 45.4701 31.4902 45.2215C31.4902 44.9728 31.3915 44.7344 31.2156 44.5586C31.0398 44.3828 30.8014 44.284 30.5527 44.284H8.94219C8.69355 44.284 8.45509 44.3828 8.27927 44.5586C8.10346 44.7344 8.00469 44.9728 8.00469 45.2215C8.00469 45.4701 8.10346 45.7086 8.27927 45.8844C8.45509 46.0602 8.69355 46.159 8.94219 46.159ZM46.734 45.2883V57.2238C46.7334 57.7113 46.5395 58.1786 46.1948 58.5233C45.8501 58.868 45.3828 59.0619 44.8953 59.0625H2.05391C1.56706 59.061 1.10065 58.8666 0.756724 58.522C0.4128 58.1775 0.219367 57.7107 0.21875 57.2238V7.50938C0.219367 7.02253 0.4128 6.55574 0.756724 6.21116C1.10065 5.86658 1.56706 5.67225 2.05391 5.6707H13.7152V5.31914C13.7168 4.91217 13.8794 4.52236 14.1675 4.23492C14.4556 3.94747 14.8458 3.78577 15.2527 3.78516H19.0027C19.427 2.14453 21.2387 0.9375 23.4723 0.9375C25.7059 0.9375 27.5234 2.13984 27.9453 3.78516H31.6953C32.1028 3.78578 32.4934 3.948 32.7814 4.23624C33.0694 4.52447 33.2313 4.91518 33.2316 5.32266V5.67422H44.893C45.3804 5.67484 45.8477 5.86875 46.1924 6.21344C46.5371 6.55812 46.731 7.02543 46.7316 7.51289V29.0051C48.2497 29.7566 49.5275 30.9174 50.4208 32.3565C51.3142 33.7956 51.7876 35.4557 51.7876 37.1496C51.7876 38.8435 51.3142 40.5036 50.4208 41.9427C49.5275 43.3819 48.2497 44.5426 46.7316 45.2941L46.734 45.2883ZM33.234 7.5457V9.45703H41.7477C42.1999 9.45765 42.6334 9.63765 42.9531 9.95754C43.2727 10.2774 43.4524 10.7111 43.4527 11.1633V28.0875C43.927 28.1281 44.3972 28.2065 44.859 28.3219V7.5457H33.234ZM15.5902 10.8434H31.359V5.66016H27.0922C26.9611 5.66076 26.8313 5.63387 26.7113 5.58122C26.5912 5.52857 26.4836 5.45132 26.3952 5.35448C26.3069 5.25763 26.2398 5.14333 26.1984 5.01895C26.157 4.89458 26.1421 4.7629 26.1547 4.63242C26.1564 4.59846 26.1564 4.56443 26.1547 4.53047C26.1547 3.59883 24.923 2.8125 23.4652 2.8125C22.0074 2.8125 20.7852 3.59883 20.7852 4.53047C20.7852 4.56328 20.7852 4.59727 20.7852 4.63242C20.7978 4.7629 20.7829 4.89458 20.7415 5.01895C20.7 5.14333 20.633 5.25763 20.5446 5.35448C20.4563 5.45132 20.3486 5.52857 20.2286 5.58122C20.1085 5.63387 19.9787 5.66076 19.8477 5.66016H15.5902V10.8434ZM15.2527 12.7184C14.8724 12.7165 14.5062 12.5737 14.2248 12.3177C13.9435 12.0617 13.767 11.7105 13.7293 11.332H5.375V53.4023H41.5859V46.1719C39.3819 45.9032 37.3523 44.8371 35.8803 43.1748C34.4083 41.5124 33.5957 39.3688 33.5957 37.1484C33.5957 34.928 34.4083 32.7844 35.8803 31.1221C37.3523 29.4598 39.3819 28.3937 41.5859 28.125V11.332H33.227C33.1892 11.7116 33.0118 12.0635 32.7293 12.3197C32.4467 12.5758 32.079 12.7179 31.6977 12.7184H15.2527ZM44.859 45.9762C44.3969 46.089 43.9267 46.1654 43.4527 46.2047V53.5699C43.4524 54.0221 43.2727 54.4558 42.9531 54.7757C42.6334 55.0955 42.1999 55.2756 41.7477 55.2762H5.20273C4.75091 55.2749 4.318 55.0947 3.99885 54.7748C3.67969 54.455 3.50031 54.0217 3.5 53.5699V11.1633C3.50031 10.7115 3.67969 10.2782 3.99885 9.95836C4.318 9.63855 4.75091 9.45827 5.20273 9.45703H13.7152V7.5457H2.09375V57.1875H44.8672L44.859 45.9762ZM49.9062 37.1484C49.9065 35.7207 49.4833 34.3249 48.6902 33.1376C47.8972 31.9503 46.7698 31.0249 45.4508 30.4783C44.1318 29.9318 42.6803 29.7887 41.2799 30.0671C39.8795 30.3455 38.5932 31.0329 37.5835 32.0424C36.5738 33.0519 35.8862 34.3382 35.6075 35.7385C35.3289 37.1389 35.4718 38.5904 36.0181 39.9095C36.5645 41.2286 37.4897 42.3561 38.6769 43.1494C39.864 43.9426 41.2597 44.366 42.6875 44.366C44.6013 44.3642 46.4361 43.6032 47.7895 42.2501C49.1428 40.8969 49.9041 39.0622 49.9062 37.1484ZM45.3359 33.968L41.3398 38.332L40.0297 37.0078C39.8547 36.831 39.6166 36.7309 39.3679 36.7296C39.1191 36.7282 38.88 36.8258 38.7031 37.0008C38.5263 37.1758 38.4262 37.4138 38.4249 37.6626C38.4235 37.9114 38.5211 38.1505 38.6961 38.3273L40.7 40.3512C40.7871 40.4391 40.8908 40.5089 41.005 40.5566C41.1193 40.6043 41.2418 40.6289 41.3656 40.6289H41.3844C41.5112 40.6265 41.6362 40.5983 41.7518 40.5461C41.8674 40.4939 41.9713 40.4189 42.057 40.3254L46.7188 35.2336C46.8803 35.0492 46.9632 34.8089 46.9497 34.5642C46.9362 34.3194 46.8274 34.0897 46.6466 33.9242C46.4658 33.7587 46.2273 33.6706 45.9823 33.6788C45.7374 33.687 45.5053 33.7908 45.3359 33.968Z" fill="#268BBF"/>
</svg>
