<svg width="60" height="60" viewBox="0 0 60 60" fill="none" xmlns="http://www.w3.org/2000/svg">
<path d="M57.0968 58.0645V40.6452H49.3548V58.0645H47.4194V44.5161H39.6774V58.0645H37.7419V48.3871H30V58.0645H28.0645V57.0968C28.0645 52.1168 25.1487 47.8161 20.94 45.7781C23.9555 44.5945 26.2413 41.9477 26.9013 38.7097H27.0968C29.2006 38.7097 30.9097 37.021 30.959 34.9287C32.0197 35.459 33.1239 35.8858 34.2687 36.1868L35.1087 38.7097H42.3097L43.1506 36.1877C44.6613 35.79 46.109 35.189 47.4668 34.3955L49.8494 35.5868L54.9406 30.4945L53.7503 28.1129C54.5429 26.7552 55.1439 25.3074 55.5416 23.7968L58.0645 22.9558V15.7548L55.5426 14.9139C55.1448 13.4032 54.5439 11.9555 53.7513 10.5977L54.9416 8.21613L49.8503 3.12387L47.4677 4.31516C46.11 3.52161 44.6623 2.92161 43.1516 2.5229L42.3106 0H35.1097L34.2687 2.52194C32.7581 2.91968 31.3103 3.52064 29.9526 4.31323L27.571 3.1229L22.4787 8.21516L23.669 10.5968C22.799 12.0881 22.1594 13.6858 21.7665 15.3571L21.6706 15.5777C21.2274 15.5226 20.7803 15.4839 20.3226 15.4839H11.1019C8.17064 15.4839 5.52484 17.0555 4.12161 19.6055C1.57161 21.0087 0 23.6545 0 26.5858V27.1974C0 28.9016 0.397742 30.5845 1.11387 32.1281C0.426774 32.8277 0 33.7839 0 34.8387C0 36.9735 1.73613 38.7097 3.87097 38.7097H4.06548C4.72548 41.9477 7.01129 44.5955 10.0268 45.779C5.81903 47.8161 2.90323 52.1168 2.90323 57.0968V58.0645H0V60H60V58.0645H57.0968ZM51.2903 42.5806H55.1613V58.0645H51.2903V42.5806ZM41.6129 46.4516H45.4839V58.0645H41.6129V46.4516ZM31.9355 50.3226H35.8064V58.0645H31.9355V50.3226ZM26.129 57.0968V58.0645H22.2581V54.1935H20.3226V58.0645H17.82L19.4739 56.4106L18.1723 51.8545L21.0765 54.0329L21.7645 48.5216C24.4045 50.461 26.129 53.5771 26.129 57.0968ZM12.0029 47.0477L13.2368 49.1042L11.3981 50.4832L11.0187 47.4464C11.339 47.2974 11.6671 47.1648 12.0029 47.0477ZM15.4839 46.4516C15.9977 46.4516 16.499 46.501 16.9926 46.5716L15.9039 48.3871H15.0648L13.9752 46.5716C14.4687 46.501 14.97 46.4516 15.4839 46.4516ZM19.949 47.4464L19.5697 50.4832L17.731 49.1042L18.9648 47.0477C19.3006 47.1648 19.6287 47.2974 19.949 47.4464ZM15.2458 50.3226H15.721L17.2994 55.8474L15.4839 57.6639L13.6674 55.8474L15.2458 50.3226ZM27.0968 36.7742V32.9032C28.1642 32.9032 29.0323 33.7713 29.0323 34.8387C29.0323 35.9061 28.1642 36.7742 27.0968 36.7742ZM50.2732 18.3871H48.3387C48.2758 17.76 48.151 17.1513 47.9748 16.5648L49.769 15.8216C50.0313 16.6403 50.1997 17.5006 50.2732 18.3871ZM47.2268 14.7794C46.9316 14.2316 46.5842 13.7177 46.1932 13.2397L47.5694 11.8635C48.1316 12.5274 48.6174 13.2561 49.0219 14.0352L47.2268 14.7794ZM44.8239 11.8713C44.3458 11.4803 43.8319 11.1329 43.2842 10.8377L44.0274 9.04258C44.8064 9.44613 45.5352 9.93194 46.199 10.4952L44.8239 11.8713ZM41.4997 10.0916C40.9132 9.91452 40.3045 9.79064 39.6774 9.72774V7.79129C40.5639 7.86484 41.4242 8.03323 42.2429 8.29645L41.4997 10.0916ZM37.7419 9.72774C37.1148 9.79064 36.5061 9.91452 35.9197 10.0916L35.1803 8.30613C36.001 8.04097 36.8574 7.8629 37.7419 7.78935V9.72774ZM33.391 9.04452L34.1342 10.8387C33.5864 11.1339 33.0726 11.4803 32.5945 11.8723L31.229 10.5068C31.8939 9.94452 32.6148 9.44806 33.391 9.04452ZM29.8587 11.8723L31.2261 13.2397C30.8352 13.7177 30.4877 14.2316 30.1926 14.7794L28.4013 14.0371C28.8058 13.259 29.2965 12.5352 29.8587 11.8723ZM27.659 15.8245L29.4445 16.5639C29.2674 17.1503 29.1426 17.759 29.0806 18.3861H27.6068C27.4694 18.2565 27.3319 18.1277 27.1887 18.0058C27.2748 17.2539 27.4345 16.5252 27.659 15.8245ZM30.9677 20.3226V19.3548C30.9677 15.0861 34.441 11.6129 38.7097 11.6129C42.9784 11.6129 46.4516 15.0861 46.4516 19.3548V20.3226H50.2732C50.1281 22.0752 49.591 23.7145 48.751 25.1613H43.44C43.5048 24.8439 43.5484 24.5206 43.5484 24.1935C43.5484 21.8574 41.8829 19.9026 39.6774 19.4526V13.5484H37.7419V19.4526C35.5364 19.9026 33.871 21.8565 33.871 24.1935C33.871 24.5206 33.9145 24.8439 33.9794 25.1613H30.9194C30.7587 23.3874 30.1606 21.7394 29.2335 20.3226H30.9677ZM30.9677 27.991V27.0968H47.341C45.2129 29.4658 42.1374 30.9677 38.7097 30.9677C35.8306 30.9677 33.1016 29.9081 30.9677 27.9948C30.9677 27.9929 30.9677 27.9919 30.9677 27.991ZM35.8064 24.1935C35.8064 22.5929 37.109 21.2903 38.7097 21.2903C40.3103 21.2903 41.6129 22.5929 41.6129 24.1935C41.6129 24.5274 41.5355 24.8497 41.4252 25.1613H35.9942C35.8839 24.8497 35.8064 24.5274 35.8064 24.1935ZM23.6323 15.8797C24.0155 14.2103 24.6755 12.6213 25.5929 11.1561L25.8813 10.6955L24.8332 8.59742L27.9523 5.47839L30.0503 6.52645L30.511 6.23806C31.9761 5.31968 33.5652 4.66065 35.2345 4.27742L35.7639 4.15645L36.5042 1.93548H40.9161L41.6564 4.15548L42.1858 4.27645C43.8552 4.65968 45.4442 5.31968 46.9094 6.2371L47.37 6.52548L49.4681 5.47742L52.5871 8.59645L51.539 10.6945L51.8274 11.1552C52.7458 12.6203 53.4048 14.2094 53.7881 15.8787L53.909 16.4081L56.129 17.1494V21.5613L53.909 22.3016L53.7881 22.831C53.4048 24.5003 52.7448 26.0894 51.8274 27.5545L51.539 28.0152L52.5871 30.1132L49.4681 33.2323L47.37 32.1842L46.9094 32.4726C45.4442 33.391 43.8552 34.05 42.1858 34.4332L41.6564 34.5542L40.9152 36.7742H36.5032L35.7629 34.5542L35.2335 34.4332C33.5642 34.05 31.9752 33.39 30.449 32.4368L30.1384 32.2723C30.391 31.6277 30.5903 30.9648 30.7258 30.2855C33.0348 31.9752 35.8055 32.9032 38.7097 32.9032C46.1806 32.9032 52.2581 26.8258 52.2581 19.3548C52.2581 11.8839 46.1806 5.80645 38.7097 5.80645C32.1842 5.80645 26.6284 10.5184 25.4168 16.7855C24.839 16.469 24.2284 16.2087 23.5926 16.0026L23.6323 15.8797ZM1.93548 26.5858C1.93548 24.2855 3.21387 22.2164 5.27129 21.1877L5.55968 21.0435L5.70387 20.7552C6.73355 18.6977 8.80161 17.4194 11.1019 17.4194H20.3226C25.1245 17.4194 29.0323 21.3271 29.0323 26.129V27.991C29.0323 29.0903 28.8406 30.1935 28.4758 31.2329C28.0461 31.0684 27.5845 30.9677 27.0968 30.9677V26.129C27.0968 24.5284 25.7942 23.2258 24.1935 23.2258H23.2258V25.1613H24.1935C24.7268 25.1613 25.1613 25.5958 25.1613 26.129C25.1613 26.6623 24.7268 27.0968 24.1935 27.0968C23.1097 27.0968 22.0461 26.8026 21.1152 26.249C21.2177 25.9016 21.2903 25.5416 21.2903 25.1613C21.2903 23.0265 19.5542 21.2903 17.4194 21.2903V23.2258C18.4868 23.2258 19.3548 24.0939 19.3548 25.1613C19.3548 26.2287 18.4868 27.0968 17.4194 27.0968H13.5484C12.481 27.0968 11.6129 26.2287 11.6129 25.1613C11.6129 24.0939 12.481 23.2258 13.5484 23.2258V21.2903C11.4135 21.2903 9.67742 23.0265 9.67742 25.1613C9.67742 25.5416 9.75 25.9016 9.85258 26.249C8.92161 26.8026 7.85806 27.0968 6.77419 27.0968C6.24097 27.0968 5.80645 26.6623 5.80645 26.129C5.80645 25.5958 6.24097 25.1613 6.77419 25.1613H7.74194V23.2258H6.77419C5.17355 23.2258 3.87097 24.5284 3.87097 26.129V30.9677C3.49161 30.9677 3.13161 31.0394 2.78419 31.1419C2.23645 29.9013 1.93548 28.5581 1.93548 27.1974V26.5858ZM1.93548 34.8387C1.93548 33.7713 2.80355 32.9032 3.87097 32.9032V36.7742C2.80355 36.7742 1.93548 35.9061 1.93548 34.8387ZM13.5484 44.5161C9.27968 44.5161 5.80645 41.0439 5.80645 36.7742V28.8532C6.11032 28.9626 6.43355 29.0323 6.77419 29.0323C8.20355 29.0323 9.60677 28.6442 10.8348 27.9155C11.5335 28.6045 12.4916 29.0323 13.5484 29.0323H17.4194C18.4761 29.0323 19.4342 28.6045 20.1329 27.9155C21.361 28.6442 22.7642 29.0323 24.1935 29.0323C24.5342 29.0323 24.8574 28.9626 25.1613 28.8542V36.7742C25.1613 41.0439 21.6881 44.5161 17.4184 44.5161H13.5484ZM4.83871 57.0968C4.83871 53.5771 6.56323 50.461 9.20323 48.5216L9.89129 54.0329L12.7955 51.8545L11.4939 56.4106L13.1477 58.0645H10.6452V54.1935H8.70968V58.0645H4.83871V57.0968Z" fill="#268BBF"/>
</svg>
