<svg width="60" height="56" viewBox="0 0 60 56" fill="none" xmlns="http://www.w3.org/2000/svg">
<path d="M32.475 38.4754C38.25 38.4754 42.9492 33.775 42.9492 27.9989C42.9492 22.2239 38.2512 17.5247 32.475 17.5247C26.6977 17.5247 21.9984 22.2227 21.9984 27.9989C21.9973 33.775 26.6977 38.4754 32.475 38.4754ZM32.475 19.3985C37.2176 19.3985 41.0754 23.2563 41.0754 27.9989C41.0754 32.7426 37.2176 36.6028 32.475 36.6028C27.7312 36.6028 23.8711 32.7426 23.8711 27.9989C23.8711 23.2563 27.7312 19.3985 32.475 19.3985ZM32.475 35.5926C36.6621 35.5926 40.0688 32.186 40.0688 27.9989C40.0688 23.8129 36.6621 20.4086 32.475 20.4086C28.2879 20.4086 24.8813 23.8141 24.8813 27.9989C24.8813 32.186 28.2879 35.5926 32.475 35.5926ZM32.475 22.2813C35.6297 22.2813 38.1949 24.8454 38.1949 27.9977C38.1949 31.1524 35.6285 33.7176 32.475 33.7176C29.3203 33.7176 26.7551 31.1512 26.7551 27.9977C26.7551 24.8465 29.3203 22.2813 32.475 22.2813ZM31.5375 27.9989V24.2254C31.5375 23.7075 31.957 23.2891 32.4738 23.2891C32.9906 23.2891 33.4102 23.7086 33.4102 24.2254V27.0625H35.1973C35.7152 27.0625 36.1336 27.4821 36.1336 27.9989C36.1336 28.5168 35.7141 28.9352 35.1973 28.9352H32.4738C31.957 28.9352 31.5375 28.5157 31.5375 27.9989ZM18.5379 34.6434C18.7184 35.0208 18.9129 35.3911 19.1227 35.7497L18.0621 37.8274C17.7047 38.5352 17.8395 39.386 18.3984 39.945L20.5312 42.0778C21.0961 42.6368 21.948 42.7692 22.6477 42.4094L24.7207 41.3536C25.9078 42.0438 27.1828 42.5711 28.5105 42.9227L29.2313 45.1411C29.4797 45.8934 30.1781 46.3985 30.968 46.3985H33.9773C34.7672 46.3985 35.4656 45.8934 35.7152 45.1352L36.4313 42.9227C37.7578 42.5723 39.0316 42.0461 40.2246 41.3524L42.2953 42.4071C43.0008 42.7704 43.8527 42.6356 44.4152 42.0731L46.541 39.9473C47.1059 39.3895 47.2441 38.5364 46.8832 37.8215L45.825 35.7473C46.5176 34.559 47.0461 33.284 47.3965 31.9586L49.6078 31.2403C50.3637 30.9965 50.8723 30.2993 50.8723 29.5047V26.4918C50.8723 25.6973 50.3637 25 49.6102 24.7575L47.3965 24.0379C47.0461 22.7114 46.5176 21.4375 45.825 20.2493L46.8855 18.168C47.2441 17.4579 47.1059 16.6071 46.5457 16.054L44.4164 13.9247C43.8539 13.3622 43.002 13.2286 42.2988 13.5895L40.2258 14.6454C39.0398 13.9563 37.7637 13.4266 36.4324 13.0715L35.7152 10.8567C35.468 10.1079 34.7695 9.60161 33.9797 9.60161H30.9703C30.1805 9.60161 29.482 10.1067 29.2324 10.8625L28.5129 13.0739C27.1828 13.429 25.9078 13.9575 24.723 14.6465L22.6523 13.5918C21.9492 13.2297 21.0973 13.3633 20.5289 13.9258L18.3984 16.0551C17.8406 16.6129 17.7047 17.4625 18.0633 18.1727L19.1215 20.2504C18.9117 20.609 18.7172 20.9782 18.5379 21.3555C16.6172 19.0258 13.7098 17.5375 10.4602 17.5375C4.69336 17.5375 0 22.2309 0 27.9989C0 33.7692 4.69219 38.4625 10.4602 38.4625C13.7098 38.4625 16.6172 36.9743 18.5379 34.6434ZM20.8031 19.4207L19.7496 17.3536L21.8285 15.2747L23.9004 16.3305C24.4617 16.6141 25.0969 16.5954 25.6453 16.2778C26.6977 15.6637 27.832 15.1938 29.0074 14.8821C29.6238 14.7262 30.0902 14.2868 30.2859 13.6786L31.0031 11.4754H33.9457L34.6582 13.6762C34.8551 14.2856 35.3227 14.725 35.9309 14.8786C37.1156 15.1926 38.25 15.6625 39.3047 16.2778C39.8508 16.5954 40.4871 16.6141 41.0508 16.3282L43.118 15.2747L45.198 17.3547L44.1469 19.4184C43.8586 19.9821 43.875 20.6208 44.1961 21.1715C44.8137 22.2274 45.2836 23.3606 45.5941 24.5442C45.757 25.1547 46.1941 25.6165 46.7941 25.8122L49.0008 26.5293V29.4696L46.7941 30.1868C46.1941 30.3825 45.757 30.8442 45.5941 31.4571C45.2848 32.6372 44.8148 33.7704 44.1949 34.8286C43.8762 35.377 43.8598 36.0157 44.148 36.5782L45.2016 38.6418L43.1203 40.7231L41.0508 39.6684C40.4836 39.3813 39.8449 39.4024 39.3059 39.7211C38.25 40.3364 37.1168 40.8063 35.9344 41.1157C35.3215 41.2774 34.8574 41.7145 34.6605 42.318L33.9469 44.5235H31.0043L30.2871 42.3168C30.0914 41.7157 29.6285 41.2774 29.0168 41.1157C27.8355 40.8063 26.7023 40.3364 25.6523 39.7247C25.1074 39.4012 24.4688 39.3813 23.8992 39.6696L21.8297 40.7243L19.7496 38.6442L20.8031 36.5793C21.0914 36.0157 21.075 35.377 20.7539 34.825C20.3719 34.1735 20.0438 33.4832 19.7754 32.7661C20.5113 31.3352 20.9262 29.7145 20.9262 27.9977C20.9262 26.2821 20.5113 24.6614 19.7754 23.2317C20.0438 22.5157 20.373 21.8243 20.7562 21.1704C21.0738 20.6219 21.0902 19.9832 20.8031 19.4207ZM10.4613 36.5887C5.72695 36.5887 1.87383 32.7356 1.87383 27.9989C1.87383 23.2645 5.72578 19.4114 10.4613 19.4114C15.198 19.4114 19.0512 23.2633 19.0512 27.9989C19.0512 32.7356 15.198 36.5887 10.4613 36.5887ZM15.5484 24.7317C15.9141 25.0973 15.9141 25.6903 15.5484 26.0559L10.3359 31.2684C10.1602 31.4442 9.92227 31.5426 9.67383 31.5426C9.42539 31.5426 9.1875 31.4442 9.01172 31.2684L5.37773 27.6344C5.01211 27.2688 5.01211 26.6758 5.37773 26.3102C5.74336 25.9446 6.33633 25.9446 6.70195 26.3102L9.67383 29.2821L14.223 24.7329C14.5887 24.3661 15.1816 24.3661 15.5484 24.7317ZM53.7668 10.559C53.4961 10.2239 53.107 10.0247 52.6734 9.99888C52.6676 9.99888 52.6605 9.9977 52.6547 9.9977C52.2223 9.9813 51.8156 10.1395 51.5109 10.4442L49.268 12.6907C48.7113 13.2391 48.6598 14.111 49.1461 14.7192C52.1836 18.5278 53.7879 23.1192 53.7879 27.9977C53.7879 39.7516 44.2266 49.3141 32.475 49.3141C27.5977 49.3141 23.0051 47.7086 19.193 44.6688C18.5848 44.1895 17.7152 44.2399 17.1703 44.7848L14.918 47.0372C14.6098 47.3454 14.4527 47.7532 14.475 48.1868C14.4937 48.6204 14.6906 49.0118 15.0293 49.2907C19.9301 53.3114 26.1258 55.5262 32.475 55.5262C39.8262 55.5262 46.7379 52.6633 51.9375 47.4637C57.1371 42.2641 60 35.3512 60 27.9989C60 21.652 57.7863 15.4598 53.7668 10.559ZM32.475 53.6536C26.6859 53.6536 21.0352 51.679 16.5188 48.0872L18.2742 46.3317C22.3699 49.511 27.2719 51.1891 32.475 51.1891C45.2602 51.1891 55.6617 40.7864 55.6617 27.9989C55.6617 22.7993 53.9848 17.8973 50.8066 13.8016L52.5598 12.0461C56.1516 16.5637 58.1262 22.2133 58.1262 27.9989C58.1262 42.1446 46.6195 53.6536 32.475 53.6536ZM17.1691 11.2141C17.7152 11.7602 18.5848 11.8094 19.1965 11.3266C23.0016 8.29028 27.593 6.68481 32.4738 6.68481C37.3512 6.68481 41.9438 8.29028 45.7559 11.3301C46.0348 11.5504 46.3699 11.6594 46.7027 11.6583C47.0941 11.6583 47.4844 11.5083 47.7797 11.2129L50.025 8.96411C50.332 8.66177 50.4914 8.2563 50.475 7.82036C50.475 7.8145 50.475 7.80864 50.4738 7.80278C50.4492 7.37036 50.2535 6.9813 49.9207 6.70708C45.0199 2.68755 38.8242 0.473877 32.475 0.473877C26.1258 0.473877 19.9301 2.68872 15.027 6.7106C14.6895 6.98833 14.4937 7.37974 14.475 7.81333C14.4516 8.24692 14.6086 8.65474 14.918 8.96294L17.1691 11.2141ZM32.475 2.34653C38.2629 2.34653 43.9137 4.32114 48.4301 7.91177L46.6758 9.66841C42.5812 6.48911 37.6781 4.81099 32.475 4.81099C27.3434 4.81099 22.3113 6.53481 18.2742 9.66841L16.5188 7.91411C21.0363 4.32114 26.6871 2.34653 32.475 2.34653Z" fill="#268BBF"/>
</svg>
