<svg width="61" height="61" viewBox="0 0 61 61" fill="none" xmlns="http://www.w3.org/2000/svg">
<mask id="mask0_674_4090" style="mask-type:luminance" maskUnits="userSpaceOnUse" x="0" y="0" width="61" height="61">
<path d="M0.341797 0.335453H60.3418V60.3354H0.341797V0.335453Z" fill="white"/>
</mask>
<g mask="url(#mask0_674_4090)">
<path d="M30.3418 46.7422C30.9887 46.7422 31.5137 47.2672 31.5137 47.9141C31.5137 48.5609 30.9887 49.0859 30.3418 49.0859C29.6949 49.0859 29.1699 48.5609 29.1699 47.9141C29.1699 47.2672 29.6949 46.7422 30.3418 46.7422Z" fill="#268BBF"/>
<path d="M55.3027 37.3672C55.3027 40.6027 52.6789 43.2266 49.4434 43.2266C46.2078 43.2266 43.584 40.6027 43.584 37.3672C43.584 34.1316 46.2078 31.5078 49.4434 31.5078C52.6789 31.5078 55.3027 34.1316 55.3027 37.3672Z" stroke="#268BBF" stroke-width="2.34375" stroke-miterlimit="10" stroke-linecap="round" stroke-linejoin="round"/>
<path d="M17.4512 57.2891H1.51367V54.9453C1.51367 49.768 6.06289 45.5703 11.2402 45.5703C14.4055 45.5703 17.5555 47.1383 19.2523 49.5406" stroke="#268BBF" stroke-width="2.34375" stroke-miterlimit="10" stroke-linecap="round" stroke-linejoin="round"/>
<path d="M41.4297 49.5406C43.1266 47.1383 46.2766 45.5703 49.4418 45.5703C54.6191 45.5703 59.1684 49.768 59.1684 54.9453V57.2891H43.2309" stroke="#268BBF" stroke-width="2.34375" stroke-miterlimit="10" stroke-linecap="round" stroke-linejoin="round"/>
<path d="M17.0996 37.3672C17.0996 40.6027 14.4758 43.2266 11.2402 43.2266C8.00469 43.2266 5.38086 40.6027 5.38086 37.3672C5.38086 34.1316 8.00469 31.5078 11.2402 31.5078C14.4758 31.5078 17.0996 34.1316 17.0996 37.3672Z" stroke="#268BBF" stroke-width="2.34375" stroke-miterlimit="10" stroke-linecap="round" stroke-linejoin="round"/>
<path d="M38.5449 32.6797C38.5449 37.2102 34.8723 40.8828 30.3418 40.8828C25.8113 40.8828 22.1387 37.2102 22.1387 32.6797C22.1387 28.1492 25.8113 24.4766 30.3418 24.4766C34.8723 24.4766 38.5449 28.1492 38.5449 32.6797Z" stroke="#268BBF" stroke-width="2.34375" stroke-miterlimit="10" stroke-linecap="round" stroke-linejoin="round"/>
<path d="M30.2977 3.38272L27.7629 8.56592L22.0957 9.38857L26.1973 13.3858L25.2293 19.0308L30.2977 16.3659C32.202 17.3667 33.5169 18.0581 35.3673 19.0308L34.398 13.3858L38.4996 9.38857L32.8324 8.56592L30.2977 3.38272Z" stroke="#268BBF" stroke-width="2.34375" stroke-miterlimit="10" stroke-linecap="round" stroke-linejoin="round"/>
<path d="M50.1773 23.1391L53.7855 25.0352L53.0965 21.018L56.0155 18.1715L51.9809 17.5855L50.1773 13.9293L48.3727 17.5855L44.3379 18.1715L47.257 21.018L46.568 25.0352L50.1773 23.1391Z" stroke="#268BBF" stroke-width="2.34375" stroke-miterlimit="10" stroke-linecap="round" stroke-linejoin="round"/>
<path d="M10.3336 23.1391L13.9418 25.0352L13.2527 21.018L16.1719 18.1715L12.1371 17.5855L10.3336 13.9293L8.52891 17.5855L4.49414 18.1715L7.41328 21.018L6.72422 25.0352L10.3336 23.1391Z" stroke="#268BBF" stroke-width="2.34375" stroke-miterlimit="10" stroke-linecap="round" stroke-linejoin="round"/>
<path d="M43.2324 57.2891H17.4512V56.1172C17.4512 53.7148 18.1086 51.466 19.2523 49.5406C21.5 45.7602 25.625 43.2266 30.3418 43.2266C33.902 43.2266 37.1246 44.6691 39.4566 47.0023C40.2148 47.7605 40.8793 48.6125 41.4312 49.5406C42.575 51.466 43.2324 53.7148 43.2324 56.1172V57.2891Z" stroke="#268BBF" stroke-width="2.34375" stroke-miterlimit="10" stroke-linecap="round" stroke-linejoin="round"/>
<path d="M34.832 49.2559C36.0859 50.0797 37.102 51.2375 37.7512 52.6016" stroke="#268BBF" stroke-width="2.34375" stroke-miterlimit="10" stroke-linecap="round" stroke-linejoin="round"/>
</g>
</svg>
