<svg width="60" height="60" viewBox="0 0 60 60" fill="none" xmlns="http://www.w3.org/2000/svg">
<path d="M45.9375 29.0625C42.815 29.05 39.6999 29.3696 36.645 30.0159L35.3906 28.7616C35.9948 27.6689 36.4747 26.512 36.8213 25.3125H39.375C39.6236 25.3125 39.8621 25.2137 40.0379 25.0379C40.2137 24.8621 40.3125 24.6236 40.3125 24.375V16.875C40.3125 16.6264 40.2137 16.3879 40.0379 16.2121C39.8621 16.0363 39.6236 15.9375 39.375 15.9375H36.8213C36.4748 14.7379 35.995 13.581 35.3906 12.4884L37.1981 10.6809C37.3739 10.5051 37.4726 10.2667 37.4726 10.0181C37.4726 9.76953 37.3739 9.53112 37.1981 9.35531L31.8947 4.05188C31.7153 3.88264 31.478 3.78838 31.2314 3.78838C30.9848 3.78838 30.7475 3.88264 30.5681 4.05188L28.7625 5.85938C27.6697 5.25491 26.5124 4.77503 25.3125 4.42875V1.875C25.3125 1.62636 25.2137 1.3879 25.0379 1.21209C24.8621 1.03627 24.6236 0.9375 24.375 0.9375H16.875C16.6264 0.9375 16.3879 1.03627 16.2121 1.21209C16.0363 1.3879 15.9375 1.62636 15.9375 1.875V4.42875C14.7376 4.77503 13.5803 5.25491 12.4875 5.85938L10.6819 4.05188C10.5948 3.96471 10.4914 3.89556 10.3776 3.84838C10.2638 3.8012 10.1418 3.77692 10.0186 3.77692C9.89539 3.77692 9.7734 3.8012 9.65959 3.84838C9.54578 3.89556 9.44238 3.96471 9.35531 4.05188L4.05188 9.35531C3.87612 9.53112 3.77739 9.76953 3.77739 10.0181C3.77739 10.2667 3.87612 10.5051 4.05188 10.6809L5.85938 12.4884C5.25503 13.581 4.77516 14.7379 4.42875 15.9375H1.875C1.62636 15.9375 1.3879 16.0363 1.21209 16.2121C1.03627 16.3879 0.9375 16.6264 0.9375 16.875V24.375C0.9375 24.6236 1.03627 24.8621 1.21209 25.0379C1.3879 25.2137 1.62636 25.3125 1.875 25.3125H4.42875C4.77533 26.512 5.2552 27.6689 5.85938 28.7616L4.05188 30.5681C3.96471 30.6552 3.89556 30.7586 3.84838 30.8724C3.8012 30.9862 3.77692 31.1082 3.77692 31.2314C3.77692 31.3546 3.8012 31.4766 3.84838 31.5904C3.89556 31.7042 3.96471 31.8076 4.05188 31.8947L9.35531 37.1981C9.5347 37.3674 9.77198 37.4616 10.0186 37.4616C10.2652 37.4616 10.5025 37.3674 10.6819 37.1981L12.4875 35.3906C13.5805 35.9948 14.7377 36.4747 15.9375 36.8213V39.375C15.9375 39.6236 16.0363 39.8621 16.2121 40.0379C16.3879 40.2137 16.6264 40.3125 16.875 40.3125H24.375C24.6236 40.3125 24.8621 40.2137 25.0379 40.0379C25.2137 39.8621 25.3125 39.6236 25.3125 39.375V36.8213C26.5123 36.4747 27.6695 35.9948 28.7625 35.3906L30.5681 37.1981C30.6552 37.2853 30.7586 37.3544 30.8724 37.4016C30.9862 37.4488 31.1082 37.4731 31.2314 37.4731C31.3546 37.4731 31.4766 37.4488 31.5904 37.4016C31.7042 37.3544 31.8076 37.2853 31.8947 37.1981L32.8125 36.2812V55.3125C32.8125 58.9575 44.5941 59.0625 45.9375 59.0625C47.2809 59.0625 59.0625 58.9575 59.0625 55.3125V32.8125C59.0625 29.1675 47.2809 29.0625 45.9375 29.0625ZM57.1359 32.8125C56.4647 33.5316 52.4344 34.6875 45.9375 34.6875C39.4406 34.6875 35.4103 33.5316 34.7391 32.8125C35.4103 32.0934 39.4406 30.9375 45.9375 30.9375C52.4344 30.9375 56.4647 32.0934 57.1359 32.8125ZM57.1875 40.2403C56.7328 40.9509 52.6584 42.1875 45.9375 42.1875C39.2166 42.1875 35.1422 40.9509 34.6875 40.2403V34.9416C38.0691 36.5034 44.9316 36.5625 45.9375 36.5625C46.9434 36.5625 53.8059 36.5034 57.1875 34.9416V40.2403ZM57.1875 47.7403C56.7328 48.4509 52.6584 49.6875 45.9375 49.6875C39.2166 49.6875 35.1422 48.4509 34.6875 47.7403V42.4416C38.0691 44.0034 44.9316 44.0625 45.9375 44.0625C46.9434 44.0625 53.8059 44.0034 57.1875 42.4416V47.7403ZM31.2309 35.2097L29.5781 33.555C29.4293 33.4062 29.2347 33.3117 29.0257 33.2869C28.8168 33.2621 28.6055 33.3083 28.4259 33.4181C27.1032 34.2268 25.6624 34.8242 24.1556 35.1891C23.951 35.2383 23.7689 35.355 23.6387 35.5203C23.5084 35.6856 23.4375 35.8899 23.4375 36.1003V38.4375H17.8125V36.1003C17.8125 35.8899 17.7416 35.6856 17.6113 35.5203C17.4811 35.355 17.299 35.2383 17.0944 35.1891C15.5876 34.8242 14.1468 34.2268 12.8241 33.4181C12.6445 33.3083 12.4332 33.2621 12.2242 33.2869C12.0153 33.3117 11.8207 33.4062 11.6719 33.555L10.0191 35.2097L6.04031 31.2309L7.695 29.5772C7.84361 29.4284 7.93791 29.2341 7.96273 29.0253C7.98756 28.8165 7.94147 28.6054 7.83187 28.4259C7.02299 27.103 6.42549 25.6619 6.06094 24.1547C6.01151 23.9503 5.89478 23.7684 5.7295 23.6383C5.56423 23.5082 5.36001 23.4375 5.14969 23.4375H2.8125V17.8125H5.14969C5.36001 17.8125 5.56423 17.7418 5.7295 17.6117C5.89478 17.4816 6.01151 17.2997 6.06094 17.0953C6.42549 15.5881 7.02299 14.147 7.83187 12.8241C7.94147 12.6446 7.98756 12.4335 7.96273 12.2247C7.93791 12.0159 7.84361 11.8216 7.695 11.6728L6.04031 10.0181L10.0191 6.04125L11.6719 7.695C11.8207 7.84384 12.0153 7.93827 12.2242 7.9631C12.4332 7.98793 12.6445 7.9417 12.8241 7.83187C14.1466 7.02277 15.5874 6.42525 17.0944 6.06094C17.299 6.01169 17.4811 5.89504 17.6113 5.72974C17.7416 5.56445 17.8125 5.36014 17.8125 5.14969V2.8125H23.4375V5.14969C23.4375 5.36014 23.5084 5.56445 23.6387 5.72974C23.7689 5.89504 23.951 6.01169 24.1556 6.06094C25.6626 6.42525 27.1034 7.02277 28.4259 7.83187C28.6055 7.9417 28.8168 7.98793 29.0257 7.9631C29.2347 7.93827 29.4293 7.84384 29.5781 7.695L31.2309 6.04125L35.2097 10.0181L33.555 11.6728C33.4064 11.8216 33.3121 12.0159 33.2873 12.2247C33.2624 12.4335 33.3085 12.6446 33.4181 12.8241C34.227 14.147 34.8245 15.5881 35.1891 17.0953C35.2385 17.2997 35.3552 17.4816 35.5205 17.6117C35.6858 17.7418 35.89 17.8125 36.1003 17.8125H38.4375V23.4375H36.1003C35.89 23.4375 35.6858 23.5082 35.5205 23.6383C35.3552 23.7684 35.2385 23.9503 35.1891 24.1547C34.8245 25.6619 34.227 27.103 33.4181 28.4259C33.3085 28.6054 33.2624 28.8165 33.2873 29.0253C33.3121 29.2341 33.4064 29.4284 33.555 29.5772L34.6697 30.6919C33.5466 31.2131 32.8125 31.9031 32.8125 32.8125V33.6281L31.2309 35.2097ZM45.9375 57.1875C39.2438 57.1875 35.1703 55.9603 34.6875 55.2487V49.9416C38.0691 51.5034 44.9316 51.5625 45.9375 51.5625C46.9434 51.5625 53.8059 51.5034 57.1875 49.9416V55.2487C56.7047 55.9603 52.6312 57.1875 45.9375 57.1875Z" fill="#268BBF"/>
</svg>
