<svg width="60" height="58" viewBox="0 0 60 58" fill="none" xmlns="http://www.w3.org/2000/svg">
<path d="M10.5971 37.524H1.75781C1.30477 37.524 0.9375 37.8913 0.9375 38.3443V47.1838C0.9375 47.6368 1.30477 48.0041 1.75781 48.0041H10.5971C11.0502 48.0041 11.4175 47.6368 11.4175 47.1838V38.3443C11.4175 37.8913 11.0502 37.524 10.5971 37.524ZM9.77684 46.3634H2.57812V39.1646H9.77684V46.3634ZM44.6589 49.0674C38.5281 54.8287 27.2275 54.0514 19.3309 50.38L20.2152 48.5903C20.3579 48.3014 20.3182 47.9554 20.1136 47.7063C19.909 47.4571 19.5773 47.351 19.2661 47.4349L12.4664 49.2685C12.2389 49.3299 12.0489 49.4861 11.9445 49.6974C11.84 49.9087 11.8317 50.1547 11.9212 50.3725L14.5986 56.8834C14.7212 57.1815 15.007 57.3801 15.3291 57.3913C15.3386 57.3915 15.348 57.3917 15.3574 57.3917C15.6687 57.3917 15.9541 57.2152 16.0927 56.9348L16.991 55.1169C20.4047 56.6741 24.0571 57.468 27.7566 57.468C29.1404 57.468 30.5313 57.3569 31.918 57.1334C37.1637 56.2877 41.9595 53.9105 45.7868 50.2589C46.1138 49.947 46.1269 49.4294 45.8162 49.1014C45.5054 48.7733 44.9879 48.7582 44.6589 49.0677V49.0674ZM16.9762 53.2945C16.5701 53.0939 16.0781 53.2605 15.8775 53.6668C15.8775 53.6669 15.8774 53.6671 15.8773 53.6673L15.4257 54.5809L13.7929 50.6098L17.9396 49.4916L17.5064 50.3683C17.5024 50.3757 17.4979 50.3825 17.4941 50.39C17.291 50.795 17.4545 51.2879 17.8595 51.4911C22.0924 53.6148 27.2685 54.8572 32.0605 54.8995C32.9834 54.908 33.8821 54.8724 34.7531 54.7944C28.9671 56.5061 22.6024 56.0731 16.9762 53.2945ZM4.305 35.9792C4.36816 35.9792 4.43227 35.972 4.49637 35.9566C4.93582 35.8516 5.2077 35.4107 5.10422 34.9709C3.17789 26.7836 9.50133 17.3823 16.6296 12.3754L17.7374 14.0383C17.8911 14.2689 18.1486 14.4038 18.4199 14.4038C18.4642 14.4038 18.5089 14.4002 18.5537 14.3929C18.8719 14.3404 19.1298 14.1064 19.2128 13.7948L21.0266 6.98832C21.0873 6.76062 21.0471 6.51781 20.9163 6.32176C20.7854 6.1257 20.5767 5.99539 20.343 5.9641L13.3638 5.0273C13.044 4.98465 12.7293 5.13266 12.5588 5.40617C12.3881 5.67957 12.3935 6.02773 12.5725 6.29586L13.6991 7.98348C9.50098 10.9755 6.32508 15.0796 4.48957 19.901C2.59898 24.867 2.25973 30.2102 3.50859 35.3525C3.59965 35.7276 3.93527 35.9795 4.305 35.9795V35.9792ZM15.2845 8.88113C15.6614 8.62965 15.763 8.12035 15.5116 7.74348C15.5116 7.74336 14.9453 6.89492 14.9453 6.89492L19.2015 7.46621L18.0955 11.6165L17.5317 10.7703L17.5305 10.7711C17.2791 10.4007 16.7762 10.2997 16.4011 10.5467C12.4447 13.1534 8.78109 17.0158 6.34957 21.1433C5.8834 21.9346 5.46668 22.7264 5.10023 23.5157C6.51281 17.6531 10.069 12.3616 15.2848 8.88125L15.2845 8.88113ZM58.9664 29.0001C58.815 28.7155 58.51 28.546 58.1893 28.5668L56.1636 28.6975C55.6709 23.5658 53.7042 18.7634 50.4465 14.7634C47.0916 10.6438 42.635 7.67879 37.5588 6.18922C37.1252 6.0623 36.6704 6.30934 36.5415 6.74246C36.4126 7.17559 36.6584 7.63133 37.0909 7.76176C45.1461 10.1906 50.1237 20.3666 50.8922 29.0403L48.8971 29.1714C48.5755 29.1925 48.2961 29.4001 48.1828 29.7017C48.0696 30.0034 48.1436 30.3434 48.3717 30.5709L53.3578 35.5404C53.512 35.6941 53.7205 35.7796 53.9368 35.7796C53.9545 35.7796 53.9722 35.7791 53.9899 35.7779C54.225 35.7627 54.4421 35.6471 54.5861 35.4607L58.8912 29.8866C59.0883 29.6315 59.1176 29.2846 58.9662 29L58.9664 29.0001ZM53.8569 33.7212L50.815 30.6895L51.835 30.6225V30.6211C52.2793 30.5865 52.6164 30.2028 52.5901 29.7559C52.3126 25.0298 50.8001 19.9268 48.44 15.7551C47.9859 14.9524 47.5069 14.1932 47.0044 13.4785C51.379 17.6335 54.1861 23.3611 54.5933 29.6212C54.6227 30.0732 55.0116 30.4153 55.4652 30.3866H55.4657L56.483 30.3208L53.8567 33.7211L53.8569 33.7212ZM54.5475 37.8746C53.237 37.1186 51.7153 36.9166 50.2635 37.3061C47.2528 38.1124 45.4591 41.217 46.2652 44.2272C46.6545 45.6792 47.5908 46.8955 48.9016 47.6521C49.7768 48.1573 50.7456 48.4154 51.725 48.4154C52.2129 48.4154 52.7033 48.3514 53.186 48.2219C54.6395 47.8326 55.8568 46.8969 56.6138 45.587C57.3708 44.2768 57.5734 42.7548 57.1842 41.3012C56.795 39.8478 55.8586 38.6309 54.5475 37.8746ZM55.1933 44.7662C54.6555 45.6968 53.7919 46.3613 52.7616 46.6372C52.7616 46.6372 52.7614 46.6372 52.7613 46.6372C51.7328 46.913 50.6534 46.7688 49.722 46.2311C48.7905 45.6936 48.1257 44.8309 47.85 43.8024C47.278 41.6663 48.551 39.463 50.6882 38.8907C51.03 38.7991 51.3773 38.7537 51.7232 38.7537C52.4181 38.7537 53.1061 38.937 53.7278 39.2957C54.6591 39.8329 55.3239 40.6959 55.5996 41.7255C55.8755 42.7556 55.7312 43.8355 55.1934 44.7661L55.1933 44.7662ZM23.0208 11.9523H34.8831C35.1793 11.9523 35.4526 11.7925 35.5979 11.5344C35.7432 11.2762 35.7381 10.9598 35.5845 10.7064L29.6517 0.927031C29.503 0.681875 29.237 0.532109 28.9502 0.532227C28.6635 0.532227 28.3976 0.681992 28.2489 0.927266L22.3194 10.7067C22.1658 10.96 22.1607 11.2764 22.3061 11.5345C22.4515 11.7927 22.7246 11.9523 23.0209 11.9523H23.0208ZM28.9505 2.93434L33.426 10.3116H24.4775L28.9505 2.93434ZM41.3727 20.8761L38.6753 18.1788C38.4491 17.9525 38.1118 17.8786 37.8117 17.9891L35.037 19.0109L32.8423 18.1006L31.6015 15.4182C31.4673 15.1279 31.1767 14.9422 30.857 14.9422H27.0435C26.7238 14.9422 26.4332 15.1279 26.299 15.4181L25.0582 18.1005L22.8636 19.0107L20.0924 17.9891C19.7923 17.8784 19.4551 17.9523 19.2289 18.1783L16.5282 20.8756C16.3017 21.1018 16.2275 21.4392 16.3382 21.7395L17.3602 24.5148L16.4528 26.7086L13.7682 27.946C13.4775 28.0801 13.2913 28.3709 13.2913 28.691V32.5078C13.2913 32.8278 13.4775 33.1188 13.7682 33.2527L16.4528 34.4901L17.3602 36.684L16.3382 39.4592C16.2275 39.7596 16.3017 40.0968 16.5282 40.3231L19.2289 43.0204C19.4552 43.2465 19.7923 43.3203 20.0924 43.2097L22.8636 42.188L25.0582 43.0984L26.299 45.7808C26.4332 46.0709 26.7238 46.2567 27.0435 46.2567H30.857C31.1767 46.2567 31.4673 46.0709 31.6015 45.7807L32.8423 43.0982L35.037 42.1879L37.8117 43.2098C38.1118 43.3201 38.449 43.2463 38.6753 43.0201L41.3727 40.3228C41.5989 40.0966 41.6729 39.7595 41.5624 39.4592L40.5404 36.684L41.4478 34.4901L44.1323 33.2526C44.4231 33.1187 44.6093 32.8278 44.6093 32.5077V28.6909C44.6093 28.3708 44.4231 28.0798 44.1323 27.9459L41.4478 26.7084L40.5404 24.5145L41.5624 21.7393C41.6729 21.4391 41.5989 21.102 41.3727 20.8757V20.8761ZM42.9686 29.2163V31.9828L40.4692 33.135C40.2816 33.2214 40.1334 33.3755 40.0545 33.5664L38.9018 36.3535C38.823 36.5439 38.8188 36.7571 38.8901 36.9505L39.8415 39.534L37.8862 41.4891L35.3027 40.5377C35.1091 40.4664 34.8956 40.4707 34.705 40.5498L31.9179 41.7058C31.7277 41.7847 31.5741 41.9322 31.4877 42.1191L30.3327 44.6163H27.5679L26.4128 42.1191C26.3264 41.9322 26.1728 41.7847 25.9826 41.7058L23.1956 40.5498C23.0048 40.4707 22.7913 40.4666 22.5975 40.5378L20.017 41.4891L18.0591 39.5336L19.0104 36.9505C19.0816 36.7571 19.0774 36.5439 18.9987 36.3535L17.846 33.5664C17.767 33.3755 17.6189 33.2214 17.4313 33.135L14.9318 31.9829V29.2164L17.4313 28.0644C17.6189 27.9779 17.767 27.8238 17.846 27.6329L18.9987 24.8458C19.0774 24.6554 19.0816 24.4422 19.0104 24.2489L18.0591 21.6657L20.017 19.7102L22.5975 20.6615C22.7912 20.7329 23.0047 20.7287 23.1956 20.6496L25.9826 19.4936C26.1729 19.4148 26.3264 19.2672 26.4128 19.0803L27.5679 16.5832H30.3327L31.4877 19.0803C31.5742 19.2672 31.7277 19.4148 31.918 19.4936L34.7051 20.6496C34.8956 20.7287 35.1091 20.7329 35.3029 20.6616L37.8864 19.7102L39.8416 21.6654L38.8902 24.2489C38.8189 24.4422 38.8232 24.6554 38.9019 24.8458L40.0546 27.6329C40.1336 27.8238 40.2817 27.9779 40.4693 28.0644L42.9687 29.2166L42.9686 29.2163ZM25.2681 24.2238C21.7555 26.2528 20.5459 30.7638 22.5728 34.2801C23.5564 35.9833 25.1445 37.2017 27.0446 37.7109C27.6793 37.8809 28.3232 37.9651 28.963 37.9651C30.2389 37.9651 31.4982 37.6304 32.6325 36.9753C34.3357 35.9916 35.5541 34.4042 36.0633 32.5052C36.5725 30.6059 36.3112 28.622 35.3278 26.919C33.297 23.4024 28.7842 22.1933 25.2681 24.2238ZM34.4786 32.0804C34.0829 33.5563 33.1358 34.79 31.8121 35.5545C30.4886 36.3189 28.9461 36.5218 27.4693 36.1262C25.9924 35.7304 24.7581 34.7834 23.9939 33.4603C22.4186 30.7273 23.3583 27.2213 26.0885 25.6446C26.9875 25.1253 27.9701 24.8787 28.9405 24.8787C30.9198 24.8787 32.8478 25.9053 33.9069 27.7394C34.6712 29.0628 34.8742 30.6045 34.4786 32.0804Z" fill="#268BBF"/>
</svg>
