<svg width="60" height="57" viewBox="0 0 60 57" fill="none" xmlns="http://www.w3.org/2000/svg">
<path d="M10.9079 45.9095C11.4534 46.4549 11.7261 47.364 11.6352 48.1822H11.3624C10.3624 48.1822 9.54426 49.0004 9.54426 50.0004V54.2731C9.54426 55.2731 10.3624 56.0913 11.3624 56.0913H26.3624C27.3624 56.0913 28.1806 55.2731 28.1806 54.2731V50.0004C28.1806 49.0004 27.3624 48.1822 26.3624 48.1822H25.817C24.9079 43.0913 25.6352 40.0004 22.817 36.8186L15.3624 28.5458C14.3624 27.4549 12.817 27.0913 11.6352 27.7277C9.81699 28.6367 9.27154 30.9095 10.5443 32.5458L12.5443 34.9095C12.9079 35.2731 12.9079 36.0004 12.4534 36.2731C12.0897 36.5458 11.5443 36.5458 11.1806 36.1822L8.18063 32.6367C7.72608 32.0913 7.54426 31.4549 7.54426 30.7277L8.08972 22.7277C8.18063 21.364 7.36245 20.0913 6.18063 19.6367C4.27154 18.9095 2.18063 20.2731 1.99881 22.1822L0.907901 33.6367C0.816992 34.9095 1.27154 36.1822 2.18063 37.0913L10.9079 45.9095ZM26.3624 49.9095V54.1822H11.2715V49.9095H25.9988H26.3624ZM3.81699 22.4549C3.9079 21.7277 4.81699 21.1822 5.54426 21.4549C5.99881 21.6367 6.36245 22.0913 6.27154 22.6367L5.72608 30.6367C5.63517 31.8186 5.99881 33.0004 6.81699 33.8186L9.81699 37.2731C10.7261 38.2731 12.3624 38.4549 13.5443 37.6367C14.817 36.7277 14.9079 34.9095 13.9079 33.6367L11.9079 31.2731C11.3624 30.6367 11.5443 29.6367 12.3624 29.2731C12.9079 29.0004 13.5443 29.1822 13.9988 29.7277L21.4534 38.0004C23.7261 40.5458 23.0897 43.0004 23.9988 48.1822H13.3624C13.4534 46.9095 12.9988 45.6367 12.0897 44.6367L3.36245 35.8186C2.9079 35.2731 2.63517 34.5458 2.72608 33.8186L3.81699 22.4549Z" fill="#268BBF"/>
<path d="M52.4567 30.819C52.5476 31.4553 52.2749 32.1826 51.8203 32.7281L48.8203 36.1826C48.5476 36.5463 48.0021 36.5463 47.5476 36.2735C47.093 36.0008 47.093 35.2735 47.4567 34.9099L49.4567 32.4553C50.7294 30.9099 50.184 28.5463 48.3658 27.6372C47.184 27.0917 45.5476 27.4553 44.6385 28.4553C38.4567 35.819 35.5476 37.1826 35.0021 41.5463L34.1839 48.0917H33.6385C32.6385 48.0917 31.8203 48.9099 31.8203 49.9099V54.1826C31.8203 55.1826 32.6385 56.0008 33.6385 56.0008H48.7294C49.7294 56.0008 50.5476 55.1826 50.5476 54.1826V49.9099C50.5476 48.9099 49.7294 48.0917 48.7294 48.0917H48.4567C48.093 45.819 50.0021 45.5463 57.9112 37.0917C58.8203 36.1826 59.2749 34.9099 59.093 33.6372L58.0021 22.2735C57.8203 20.4553 55.7294 19.0917 53.8203 19.7281C52.6385 20.1826 51.8203 21.4553 51.9112 22.819L52.4567 30.819ZM33.6385 54.2735V50.0008H33.9112H48.6385V54.2735H33.6385ZM53.184 33.819C53.9112 32.9099 54.3658 31.819 54.2749 30.6372L53.7294 22.6372C53.7294 22.0917 54.0021 21.5463 54.4567 21.4553C55.184 21.1826 56.1839 21.7281 56.1839 22.4553L57.2749 33.819C57.3658 34.5463 57.093 35.2735 56.5476 35.819C49.3658 43.7281 46.2749 44.6372 46.5476 48.1826H36.0021L36.8203 41.9099C37.2749 38.2735 39.4567 37.5463 46.0021 29.7281C46.4567 29.2735 47.093 29.0917 47.6385 29.2735C48.4567 29.6372 48.6385 30.6372 48.093 31.2735L46.093 33.7281C45.093 34.9099 45.2749 36.7281 46.4567 37.7281C47.5476 38.5463 49.2749 38.3644 50.184 37.3644L53.184 33.819Z" fill="#268BBF"/>
<path d="M18.2727 21.4549C18.6364 21.8186 19.1818 21.8186 19.5455 21.4549L22.3636 18.6368C23.5455 19.2731 25.0909 19.0913 26.0909 18.0913C27.0909 17.0913 27.2727 15.5459 26.6364 14.364L29.4545 11.5459C29.8182 11.1822 29.8182 10.6368 29.4545 10.2731L26.0909 6.90949C25.7273 6.54585 25.1818 6.54585 24.8182 6.90949C24.2727 7.45495 23.4545 7.45495 22.9091 6.90949C22.3636 6.36404 22.3636 5.54585 22.9091 5.0004C23.2727 4.63676 23.2727 4.09131 22.9091 3.72767L19.5455 0.364036C19.1818 0.000399508 18.6364 0.000399508 18.2727 0.364036L8.27273 10.364C7.90909 10.7277 7.90909 11.2731 8.27273 11.6368L18.2727 21.4549ZM14.6364 6.45495L16.1818 8.18222C16.5455 8.54585 17.0909 8.54585 17.4545 8.18222C17.8182 7.81858 17.8182 7.27313 17.4545 6.90949L15.8182 5.18222L18.8182 2.18222L21.0909 4.36404C20.4545 5.54585 20.6364 7.09131 21.6364 8.09131C22.6364 9.09131 24.1818 9.27313 25.3636 8.63676L27.5455 10.8186L24.8182 13.5459C24.4545 13.9095 24.4545 14.4549 24.8182 14.8186C25.3636 15.364 25.3636 16.1822 24.8182 16.7277C24.2727 17.1822 23.4545 17.2731 22.9091 16.7277C22.5455 16.364 22 16.364 21.6364 16.7277L18.9091 19.4549L10.1818 10.7277L14.6364 6.45495Z" fill="#268BBF"/>
<path d="M33.9078 20.3643C34.2715 20.7279 34.8169 20.7279 35.1806 20.3643C35.726 19.8188 36.5442 19.8188 37.0897 20.3643C37.6351 20.9097 37.6351 21.7279 37.0897 22.2733C36.726 22.637 36.726 23.1824 37.0897 23.5461L40.4533 26.9097C40.8169 27.2733 41.3624 27.2733 41.726 26.9097L51.726 16.9097C52.0897 16.5461 52.0897 16.0006 51.726 15.637L41.726 5.63699C41.3624 5.27335 40.8169 5.27335 40.4533 5.63699L37.6351 8.45517C36.4533 7.8188 34.9078 8.00062 33.9078 9.00062C32.9078 10.0006 32.726 11.5461 33.3624 12.7279L30.5442 15.5461C30.1806 15.9097 30.1806 16.4552 30.5442 16.8188L33.9078 20.3643ZM35.1806 13.5461C35.5442 13.1824 35.5442 12.637 35.1806 12.2733C34.6351 11.7279 34.6351 10.9097 35.1806 10.3643C35.726 9.8188 36.5442 9.8188 37.0897 10.3643C37.4533 10.7279 37.9988 10.7279 38.3624 10.3643L41.0897 7.63699L43.6351 10.1824L42.0897 11.9097C41.726 12.2733 41.726 12.8188 42.0897 13.1824C42.4533 13.5461 42.9988 13.5461 43.3624 13.1824L44.9079 11.5461L49.726 16.3643L40.9988 25.0915L38.8169 22.9097C39.4533 21.7279 39.2715 20.1824 38.2715 19.1824C37.2715 18.1824 35.726 18.0006 34.5442 18.637L32.3624 16.4552L35.1806 13.5461Z" fill="#268BBF"/>
<path d="M29.362 25.1824L26.9075 27.6369C26.5439 28.0006 26.5439 28.546 26.9075 28.9097C27.2711 29.2733 27.8166 29.2733 28.1802 28.9097L29.0893 28.0006V38.8188C29.0893 39.3642 29.4529 39.7279 29.9984 39.7279C30.5439 39.7279 30.9075 39.3642 30.9075 38.8188V28.0006L31.8166 28.9097C32.1802 29.2733 32.7257 29.2733 33.0893 28.9097C33.4529 28.546 33.4529 28.0006 33.0893 27.6369L30.6348 25.1824C30.2711 24.8188 29.7257 24.8188 29.362 25.1824Z" fill="#268BBF"/>
</svg>
