<svg width="60" height="58" viewBox="0 0 60 58" fill="none" xmlns="http://www.w3.org/2000/svg">
<path fill-rule="evenodd" clip-rule="evenodd" d="M2.44257 23.7207L2.4174 23.7393C1.99916 24.0474 1.40951 23.9581 1.1014 23.5399C0.79316 23.1217 0.882572 22.532 1.30069 22.2239L3.51622 20.5913C3.74292 20.4242 4.03245 20.3675 4.30551 20.4366C4.57857 20.5057 4.80622 20.6935 4.9261 20.9482L6.15869 23.5677C6.37987 24.0378 6.17787 24.5989 5.70787 24.8201C5.23787 25.0413 4.67669 24.8393 4.45551 24.3692L4.29963 24.038C3.91775 25.8113 3.71681 27.6514 3.71681 29.5381C3.71681 43.9087 15.3837 55.5757 29.7543 55.5757C33.01 55.5757 36.1269 54.9772 39.0008 53.8836C39.4863 53.6989 40.0305 53.9432 40.2152 54.4287C40.3999 54.9141 40.1556 55.4582 39.6702 55.643C36.5882 56.8156 33.2458 57.4581 29.7543 57.4581C14.3449 57.4581 1.83445 44.9476 1.83445 29.5381C1.83445 27.5434 2.0441 25.5974 2.44257 23.7207ZM34.6865 3.96775C33.0893 3.66116 31.4403 3.50057 29.7543 3.50057C27.3606 3.50057 25.0417 3.8241 22.8394 4.43022C22.3386 4.56798 21.8201 4.27328 21.6822 3.77246C21.5445 3.27163 21.8392 2.75304 22.34 2.61528C24.7014 1.96551 27.1876 1.61822 29.7543 1.61822C31.6128 1.61822 33.4292 1.80034 35.1865 2.1474L35.1061 2.03704C34.8007 1.61693 34.8937 1.02775 35.3139 0.722338C35.734 0.416808 36.3232 0.509985 36.6286 0.930102L38.247 3.15598C38.4126 3.38375 38.4675 3.67363 38.3967 3.94622C38.3258 4.21881 38.1366 4.44528 37.881 4.56351L35.2538 5.7794C34.7823 5.99751 34.2225 5.79198 34.0043 5.32057C33.7861 4.84904 33.9918 4.28928 34.4632 4.07104L34.6865 3.96775ZM57.4474 33.1096L57.5254 33.0415C57.9165 32.6995 58.5115 32.7394 58.8534 33.1305C59.1954 33.5215 59.1555 34.1166 58.7645 34.4586L56.6928 36.2701C56.4808 36.4554 56.1969 36.5361 55.919 36.49C55.6413 36.4439 55.3987 36.2757 55.258 36.0319L53.8114 33.5242C53.5518 33.0742 53.7063 32.4982 54.1563 32.2387C54.6062 31.979 55.1823 32.1336 55.4419 32.5836L55.5852 32.8321C55.7216 31.7532 55.7919 30.6539 55.7919 29.5381C55.7919 26.7007 55.3373 23.9687 54.4966 21.411C54.3343 20.9176 54.6033 20.3853 55.0968 20.223C55.5902 20.0608 56.1226 20.3298 56.2848 20.8233C57.1863 23.5659 57.6742 26.4955 57.6742 29.5381C57.6742 30.7481 57.597 31.9401 57.4474 33.1096ZM17.678 41.5169L18.0332 42.1446C18.0336 42.1453 18.0341 42.1461 18.0345 42.1469C18.5406 43.047 18.2193 44.1956 17.3245 44.701L15.5436 45.7103C15.5427 45.7108 15.5417 45.7114 15.5408 45.712C14.6407 46.218 13.4921 45.8967 12.9865 45.0014L7.74987 35.7485C7.23904 34.8473 7.56034 33.6974 8.45657 33.1912L10.2394 32.1819L10.2402 32.1814C11.1359 31.6755 12.285 31.9932 12.795 32.8888L12.7962 32.891L13.0535 33.3456L17.4461 30.8025C17.9194 30.5288 18.3963 30.2876 18.8794 30.1033C18.4194 27.9999 18.711 25.66 20.0353 23.3332L20.0359 23.3322C21.0869 21.4901 22.6761 19.4309 24.8122 17.0621C24.2586 16.6193 23.9021 15.9381 23.9021 15.1765C23.9021 14.1819 24.5128 13.3228 25.3777 12.9557C24.8549 12.4329 24.3879 11.9657 24.3885 11.9663C23.432 11.0139 23.4306 9.45234 24.387 8.49587C25.1425 7.74057 26.3141 7.5701 27.254 8.05634C27.5669 7.06434 28.5001 6.33951 29.5934 6.33951C30.666 6.33951 31.6132 7.04834 31.9323 8.0561C32.8561 7.57622 34.0269 7.72328 34.7996 8.49587L34.801 8.49728C35.7528 9.45292 35.7514 11.0133 34.7996 11.965L33.8089 12.9557C34.6739 13.3228 35.2846 14.182 35.2846 15.1765C35.2846 15.9386 34.9277 16.62 34.3735 17.0628C36.511 19.4316 38.0999 21.4908 39.1488 23.3329C40.5294 25.757 40.791 28.1945 40.2461 30.3652C40.9846 30.3563 41.562 30.5543 41.9879 30.84C42.8239 31.4009 43.2175 32.3556 43.1925 33.2957C43.1672 34.2487 42.7035 35.1539 41.9562 35.6141L30.4346 42.7079C29.1474 43.5023 27.7375 43.69 26.2767 43.3003L26.2757 43.3001L18.2943 41.161L17.678 41.5169ZM13.9807 34.9839L16.7508 39.8787L17.6907 39.336C17.9069 39.211 18.1639 39.1773 18.405 39.2419L26.7622 41.4816C27.7047 41.733 28.6154 41.6187 29.446 41.1061L29.4468 41.1055L40.9692 34.0114C41.2076 33.8645 41.3027 33.5497 41.3108 33.2457C41.3377 32.2321 40.3063 31.676 37.9178 33.0675L31.5682 36.7655C30.4857 37.3965 29.3514 37.573 28.1149 37.3761C28.1139 37.376 28.1128 37.3759 28.1117 37.3756C28.1117 37.3756 27.3241 37.2475 27.3237 37.2474C27.3109 37.2453 27.2983 37.243 27.2856 37.2405C27.2853 37.2403 27.2848 37.2402 27.2843 37.2401C25.8454 36.9447 24.5108 36.5106 23.0299 36.1126C22.5282 35.9777 22.2305 35.461 22.3653 34.9594C22.5001 34.4577 23.0168 34.1599 23.5185 34.2947C24.9476 34.6788 26.2363 35.1003 27.6233 35.3881C28.1488 35.4419 28.5459 35.2443 28.6673 34.7921L28.6674 34.7916C28.7883 34.3422 28.5003 33.9142 28.0682 33.7503C25.517 33.278 23.0223 32.2232 21.4906 31.7266L21.4902 31.7265C20.3906 31.3694 19.3897 31.8529 18.3886 32.4319L13.9807 34.9839ZM20.7246 29.7268C21.166 29.7234 21.6143 29.7876 22.0714 29.9361C23.5615 30.4193 25.9933 31.4627 28.4757 31.9113C28.5173 31.9188 28.5582 31.9292 28.5983 31.9421C28.6088 31.9455 28.6194 31.9489 28.6299 31.9525C28.6255 31.916 28.6233 31.8789 28.6233 31.8413V31.5474C27.4309 31.2668 26.4185 30.4569 26.0994 29.1754C25.9739 28.6713 26.2813 28.1602 26.7853 28.0347C27.2894 27.9092 27.8005 28.2165 27.926 28.7206C28.1065 29.4455 28.8214 29.7609 29.5323 29.775C29.543 29.7747 29.5537 29.7746 29.5645 29.7746C29.5786 29.7746 29.5927 29.7748 29.6066 29.7755C29.6194 29.7754 29.6321 29.7752 29.6449 29.7748C29.9857 29.7665 30.3565 29.6952 30.6694 29.542C30.9649 29.3973 31.2154 29.1653 31.1699 28.7819C31.1194 28.3703 30.8297 28.1516 30.5034 28.0036C30.1647 27.85 29.7797 27.7665 29.4197 27.7074C27.9601 27.4687 26.4213 26.714 26.3372 24.982V24.9815C26.2728 23.644 27.0899 22.658 28.2281 22.2101C28.3563 22.1596 28.4883 22.1165 28.6233 22.0809V21.7713C28.6233 21.2517 29.045 20.8301 29.5645 20.8301C30.084 20.8301 30.5056 21.2517 30.5056 21.7713V22.0708C31.4549 22.312 32.3207 22.9427 32.775 24.0265C32.9759 24.5055 32.75 25.0575 32.2709 25.2583C31.7919 25.4592 31.2399 25.2333 31.039 24.7542C30.7741 24.1223 30.198 23.8468 29.6267 23.836C29.6061 23.8373 29.5854 23.838 29.5645 23.838C29.5497 23.838 29.5352 23.8376 29.5206 23.8369C29.3109 23.8449 29.1046 23.8881 28.9173 23.9618C28.5227 24.117 28.1952 24.4272 28.2173 24.8909C28.2345 25.242 28.4723 25.4349 28.7436 25.5674C29.0453 25.7148 29.3946 25.796 29.7236 25.8497L29.7241 25.8499C31.2121 26.094 32.8236 26.7905 33.0386 28.5552L33.0387 28.5569C33.2416 30.2497 31.932 31.2575 30.5056 31.5605V31.8413C30.5056 32.2617 30.2294 32.6181 29.8486 32.7387C30.446 33.387 30.7222 34.2914 30.5047 35.2037C30.5434 35.1832 30.582 35.1616 30.6206 35.1392L36.9703 31.441C37.3696 31.2083 37.7475 31.019 38.1042 30.8679C38.9055 28.9042 38.8306 26.5776 37.5132 24.2645C36.4105 22.328 34.6719 20.1474 32.305 17.5896H26.8795C24.5147 20.1475 22.7761 22.3281 21.671 24.2647C20.6015 26.144 20.3497 28.0313 20.7246 29.7268ZM27.8499 12.7659H31.3368L33.4686 10.634C33.6903 10.4123 33.6892 10.049 33.4673 9.82563C33.2748 9.63445 32.977 9.6101 32.757 9.7514L32.7566 9.75163C32.267 10.0656 31.708 10.1169 31.1705 9.8934C30.6343 9.67045 30.2739 9.2401 30.15 8.6694C30.0914 8.41022 29.8594 8.22187 29.5934 8.22187C29.3214 8.22187 29.0919 8.41457 29.0368 8.66893C28.9145 9.23822 28.5535 9.66987 28.0162 9.8934C27.4787 10.1169 26.9197 10.0656 26.4325 9.75316C26.2066 9.60928 25.9066 9.63834 25.7181 9.82693C25.496 10.0489 25.4947 10.4115 25.7167 10.6327L25.7181 10.634L27.8499 12.7659ZM26.3128 15.7073H32.8739C33.1648 15.7073 33.4022 15.4683 33.4022 15.1765C33.4022 14.886 33.1645 14.6482 32.8739 14.6482H26.3128C26.0223 14.6482 25.7845 14.886 25.7845 15.1765C25.7845 15.4683 26.0219 15.7073 26.3128 15.7073ZM9.39045 34.8255L14.6217 44.0692L16.3917 43.066L11.1609 33.8233L9.39045 34.8255ZM10.7605 34.6399C11.1647 34.5796 11.54 34.8587 11.6001 35.2629C11.6579 35.667 11.3788 36.0448 10.9746 36.1026C10.5705 36.1627 10.1952 35.8812 10.1349 35.477C10.0773 35.0728 10.3563 34.6975 10.7605 34.6399ZM50.2656 3.2621C50.8149 3.4274 51.346 3.64751 51.8517 3.9194L52.8696 3.46681C53.2255 3.30857 53.6421 3.38587 53.9175 3.66128L55.6312 5.37493C55.9062 5.64998 55.9838 6.06598 55.8262 6.42163C55.8262 6.42163 55.3752 7.43998 55.375 7.43998C55.6475 7.94657 55.8679 8.47857 56.0333 9.02975L57.0712 9.42916C57.4345 9.56904 57.6742 9.91822 57.6742 10.3075V12.7316C57.6742 13.1209 57.4345 13.4701 57.0712 13.61C57.0712 13.61 56.0327 14.0096 56.0327 14.0095C55.8669 14.5589 55.6461 15.09 55.3747 15.5957L55.8262 16.615C55.9838 16.9708 55.9062 17.3867 55.6312 17.6617L53.9175 19.3754C53.6425 19.6505 53.2266 19.728 52.8708 19.5705C52.8708 19.5705 51.8529 19.1196 51.853 19.1195C51.3475 19.3916 50.8154 19.6119 50.2653 19.7773L49.8658 20.8154C49.7259 21.1787 49.3767 21.4185 48.9874 21.4185H46.5633C46.174 21.4185 45.8248 21.1787 45.6849 20.8154C45.6849 20.8154 45.2854 19.7773 45.2855 19.7774C44.7346 19.6115 44.2028 19.3905 43.6967 19.1189L42.6774 19.5705C42.3218 19.728 41.9058 19.6505 41.6307 19.3754L39.917 17.6617C39.6416 17.3863 39.5643 16.9697 39.7226 16.6139C39.7226 16.6139 40.1749 15.5965 40.1749 15.5966C39.903 15.0914 39.6828 14.5596 39.5165 14.01L38.4772 13.61C38.1138 13.4701 37.874 13.1209 37.874 12.7316V10.3075C37.874 9.91822 38.1138 9.56904 38.4772 9.42916C38.4772 9.42916 39.5162 9.02928 39.5161 9.0294C39.6826 8.47846 39.9029 7.94693 40.1752 7.44069L39.7226 6.42281C39.5643 6.06693 39.6416 5.65034 39.917 5.37493L41.6307 3.66128C41.9061 3.38587 42.3227 3.30857 42.6786 3.46681L43.6965 3.9194C44.2026 3.64728 44.7339 3.42716 45.2834 3.26187L45.6853 2.22057C45.8253 1.85763 46.1742 1.61822 46.5633 1.61822H48.9874C49.3769 1.61822 49.7262 1.85822 49.8659 2.22187L50.2656 3.2621ZM48.68 4.38363L48.3407 3.50057H47.2089L46.8678 4.38493C46.7561 4.67422 46.509 4.88998 46.2073 4.96175C45.5139 5.12645 44.8527 5.40045 44.2449 5.77493C43.9805 5.93787 43.6526 5.95987 43.3688 5.83363L42.5046 5.4494L41.7052 6.24881L42.0894 7.11304C42.2156 7.39681 42.1936 7.72469 42.0307 7.98916C41.6558 8.59763 41.3816 9.25963 41.2146 9.95598C41.1423 10.2572 40.9265 10.5035 40.6374 10.6147L39.7563 10.9537V12.0854L40.6374 12.4245C40.9262 12.5356 41.142 12.7816 41.2145 13.0826C41.3814 13.7763 41.6552 14.4403 42.03 15.0463C42.1936 15.3109 42.2159 15.6394 42.0894 15.9237L41.7052 16.7879L42.5053 17.588L43.37 17.2049C43.6528 17.0796 43.979 17.1014 44.2428 17.2629C44.8512 17.6356 45.5129 17.9123 46.209 18.0773C46.5114 18.1489 46.7589 18.365 46.8705 18.655L47.2095 19.5361H48.3412L48.6802 18.655C48.7918 18.3653 49.0389 18.1492 49.3409 18.0774C50.0339 17.9128 50.6969 17.6393 51.3021 17.2649C51.5663 17.1016 51.8942 17.0792 52.1783 17.2049L53.0429 17.588L53.8438 16.7872L53.4607 15.9226C53.3354 15.6397 53.3572 15.3134 53.5187 15.0496C53.8915 14.4412 54.1682 13.7794 54.3332 13.0852C54.4049 12.7832 54.621 12.536 54.9108 12.4245L55.7919 12.0854V10.9537L54.9108 10.6147C54.6208 10.5032 54.4047 10.2556 54.333 9.95328C54.1683 9.25787 53.8945 8.59681 53.52 7.98916C53.3573 7.72504 53.335 7.39775 53.4607 7.11422L53.8438 6.24951L53.0436 5.4494L52.1795 5.83363C51.8956 5.95987 51.5679 5.93787 51.3034 5.77493C50.6956 5.40045 50.0343 5.12645 49.3409 4.96175C49.0388 4.88987 48.7914 4.67363 48.68 4.38363ZM47.7741 6.34916C50.6302 6.34916 52.9458 8.66234 52.9458 11.5183C52.9458 14.3742 50.63 16.69 47.7741 16.69C44.9181 16.69 42.6049 14.3745 42.6049 11.5183C42.6049 8.6621 44.9179 6.34916 47.7741 6.34916ZM47.7741 8.23151C45.958 8.23151 44.4873 9.70222 44.4873 11.5183C44.4873 13.3347 45.9579 14.8076 47.7741 14.8076C49.5906 14.8076 51.0634 13.3348 51.0634 11.5183C51.0634 9.7021 49.5905 8.23151 47.7741 8.23151ZM11.8466 21.4185C6.39504 21.4185 1.94645 16.9699 1.94645 11.5183C1.94645 6.06681 6.39504 1.61822 11.8466 1.61822C17.2981 1.61822 21.7467 6.06681 21.7467 11.5183C21.7467 16.9699 17.2981 21.4185 11.8466 21.4185ZM11.8466 19.5361C16.2615 19.5361 19.8643 15.9334 19.8643 11.5183C19.8643 7.1034 16.2615 3.50057 11.8466 3.50057C7.43151 3.50057 3.82881 7.1034 3.82881 11.5183C3.82881 15.9334 7.43151 19.5361 11.8466 19.5361ZM10.9054 6.28869V5.84822C10.9054 5.32881 11.3272 4.90704 11.8466 4.90704C12.366 4.90704 12.7877 5.32881 12.7877 5.84822V6.27846C13.857 6.52422 14.8409 7.21622 15.3515 8.43093C15.5528 8.90975 15.3275 9.46198 14.8486 9.66328C14.3697 9.86457 13.8175 9.63928 13.6162 9.16045C13.1608 8.07693 11.9455 7.86081 11.0739 8.20398C10.5834 8.39704 10.1842 8.78846 10.2119 9.36457C10.2339 9.81034 10.5274 10.061 10.8713 10.2293C11.2213 10.4003 11.6262 10.4955 12.007 10.5582C13.6299 10.8237 15.4045 11.5717 15.6401 13.501L15.6402 13.5023C15.8662 15.3746 14.3741 16.47 12.7877 16.7742V17.1885C12.7877 17.7079 12.366 18.1296 11.8466 18.1296C11.3272 18.1296 10.9054 17.7079 10.9054 17.1885V16.7605C9.56587 16.4741 8.41587 15.5856 8.05975 14.1555C7.93434 13.6514 8.24163 13.1402 8.74575 13.0148C9.24975 12.8893 9.76092 13.1967 9.88645 13.7007C10.1145 14.6166 11.0462 14.9997 11.941 14.9787C12.4276 14.9672 12.9699 14.848 13.369 14.5728C13.6353 14.3893 13.8179 14.1152 13.7715 13.7286C13.7089 13.2181 13.3561 12.9413 12.9515 12.7577C12.561 12.5806 12.1177 12.4837 11.7032 12.4159L11.7022 12.4157C10.1122 12.154 8.42422 11.3465 8.33175 9.4561V9.45563C8.26175 8.00587 9.14998 6.93834 10.3845 6.45246C10.5526 6.38622 10.7269 6.33151 10.9054 6.28869ZM47.7741 35.2506C53.2432 35.2506 57.6742 39.6817 57.6742 45.1507C57.6742 50.6197 53.2432 55.0508 47.7741 55.0508C42.3052 55.0508 37.874 50.6197 37.874 45.1507C37.874 39.6817 42.3052 35.2506 47.7741 35.2506ZM41.8647 39.731C40.6266 41.0803 39.8448 42.855 39.7634 44.8113C39.8997 44.4594 40.2416 44.2095 40.6414 44.2095H41.4136C41.933 44.2095 42.3548 44.6313 42.3548 45.1507C42.3548 45.6702 41.933 46.0919 41.4136 46.0919H40.6414C40.2416 46.0919 39.8997 45.8421 39.7634 45.4902C39.8448 47.4463 40.6266 49.2212 41.8647 50.5704C41.716 50.2264 41.7821 49.8116 42.063 49.5308L42.6109 48.9829C42.9782 48.6156 43.5746 48.6156 43.9419 48.9829C44.3092 49.3502 44.3092 49.9467 43.9419 50.314L43.394 50.8619C43.1132 51.1427 42.6983 51.2088 42.3545 51.0601C43.7038 52.2982 45.4785 53.08 47.4347 53.1614C47.0828 53.0252 46.8329 52.6833 46.8329 52.2834V51.5112C46.8329 50.9917 47.2547 50.57 47.7741 50.57C48.2935 50.57 48.7153 50.9917 48.7153 51.5112V52.2834C48.7153 52.6833 48.4655 53.0252 48.1136 53.1614C50.0698 53.08 51.8446 52.2982 53.1939 51.0601C52.8499 51.2088 52.435 51.1427 52.1542 50.8619L51.6063 50.314C51.239 49.9467 51.239 49.3502 51.6063 48.9829C51.9736 48.6156 52.5701 48.6156 52.9374 48.9829L53.4853 49.5308C53.7661 49.8116 53.8322 50.2266 53.6835 50.5704C54.9201 49.2228 55.7014 47.4508 55.7846 45.4976C55.6463 45.8456 55.3065 46.0919 54.9094 46.0919H54.1346C53.6152 46.0919 53.1934 45.6702 53.1934 45.1507C53.1934 44.6313 53.6152 44.2095 54.1346 44.2095H54.9094C55.3065 44.2095 55.6463 44.4559 55.7846 44.8037C55.7014 42.8506 54.9201 41.0786 53.6835 39.731C53.8322 40.0749 53.7661 40.4897 53.4853 40.7706L52.9374 41.3185C52.5701 41.6857 51.9736 41.6857 51.6063 41.3185C51.239 40.9512 51.239 40.3548 51.6063 39.9875L52.1542 39.4396C52.435 39.1587 52.8499 39.0927 53.1939 39.2413C51.8446 38.0033 50.0698 37.2214 48.1136 37.14C48.4655 37.2763 48.7153 37.6182 48.7153 38.018V38.7902C48.7153 39.3096 48.2935 39.7314 47.7741 39.7314C47.2547 39.7314 46.8329 39.3096 46.8329 38.7902V38.018C46.8329 37.6182 47.0828 37.2763 47.4347 37.14C45.4785 37.2214 43.7038 38.0033 42.3545 39.2413C42.6983 39.0927 43.1132 39.1587 43.394 39.4396L43.9419 39.9875C44.3092 40.3548 44.3092 40.9512 43.9419 41.3185C43.5746 41.6857 42.9782 41.6857 42.6109 41.3185L42.063 40.7706C41.7821 40.4897 41.716 40.0749 41.8647 39.731ZM46.8329 41.7617C46.8329 41.2423 47.2547 40.8206 47.7741 40.8206C48.2935 40.8206 48.7153 41.2423 48.7153 41.7617V44.6073L50.5092 45.6427C50.959 45.9023 51.1134 46.4783 50.8537 46.9282C50.5941 47.3781 50.018 47.5326 49.5681 47.2729L47.3036 45.9659C47.0123 45.7977 46.8329 45.487 46.8329 45.1507V41.7617Z" fill="#268BBF"/>
</svg>
