<svg width="60" height="60" viewBox="0 0 60 60" fill="none" xmlns="http://www.w3.org/2000/svg">
<path d="M56.9325 33.4228L55.3125 33.0188L51.5625 32.0803L49.6875 31.6116L47.8125 31.1428V24.9769C53.2884 23.6887 57.1875 18.8316 57.1875 13.125C57.1875 6.405 51.72 0.9375 45 0.9375C38.28 0.9375 32.8125 6.405 32.8125 13.125C32.8125 18.8316 36.7116 23.6887 42.1875 24.9769V34.9031C41.3184 34.1934 40.2244 33.75 39.0169 33.75C37.6641 33.75 36.5625 34.8516 36.5625 36.2044C36.5625 36.5831 36.6525 36.9638 36.8213 37.3022L37.9416 39.5447C38.2659 40.1916 38.4375 40.9163 38.4375 41.64V45.8391C38.4375 47.3231 38.9484 48.78 39.8747 49.9388L41.9672 52.5534C40.8872 54.2175 40.3125 56.1403 40.3125 58.125V59.0625H57.1875V58.125C57.1875 56.1403 56.6128 54.2175 55.5328 52.5544L57.6253 49.9397C58.5516 48.78 59.0625 47.3241 59.0625 45.84V36.1519C59.0625 34.8591 58.1859 33.7359 56.9325 33.4228ZM34.6875 13.125C34.6875 7.43906 39.3141 2.8125 45 2.8125C50.6859 2.8125 55.3125 7.43906 55.3125 13.125C55.3125 17.8031 52.2169 21.8081 47.8125 23.0438V20.625C47.8125 19.0744 46.5506 17.8125 45 17.8125C43.4494 17.8125 42.1875 19.0744 42.1875 20.625V23.0438C37.7831 21.8081 34.6875 17.8031 34.6875 13.125ZM42.24 57.1875C42.3881 55.8694 42.8475 54.6075 43.59 53.4928L43.6266 53.4375H53.8734L53.91 53.4928C54.6525 54.6075 55.1119 55.8694 55.26 57.1875H42.24ZM57.1875 45.84C57.1875 46.9003 56.8228 47.94 56.16 48.7678L53.9241 51.5625H43.5759L41.34 48.7678C40.6772 47.94 40.3125 46.8994 40.3125 45.84V41.6409C40.3125 40.6275 40.0725 39.6122 39.6197 38.7066L38.4994 36.4641C38.4581 36.3844 38.4375 36.2944 38.4375 36.2044C38.4375 35.8847 38.6972 35.625 39.0169 35.625C40.7644 35.625 42.1875 37.0481 42.1875 38.7956V40.3125V43.125H44.0625V40.3125V38.7956V20.625C44.0625 20.1075 44.4825 19.6875 45 19.6875C45.5175 19.6875 45.9375 20.1075 45.9375 20.625V30.6741V43.125H47.8125V33.0759L49.6875 33.5447V43.125H51.5625V34.0134L53.4375 34.4822V43.125H55.3125V34.95L56.4769 35.2416C56.895 35.3466 57.1875 35.7206 57.1875 36.1519V45.84Z" fill="#268BBF"/>
<path d="M52.226 8.16254L50.9004 6.83691L42.1882 15.5491L40.0385 13.3994L38.7129 14.725L42.1882 18.2004L52.226 8.16254Z" fill="#268BBF"/>
<path d="M15.9375 44.235V43.125C15.9375 39.5072 12.9928 36.5625 9.375 36.5625C5.75719 36.5625 2.8125 39.5072 2.8125 43.125V44.235C1.72406 44.6231 0.9375 45.6544 0.9375 46.875V56.25C0.9375 57.8006 2.19937 59.0625 3.75 59.0625H15C16.5506 59.0625 17.8125 57.8006 17.8125 56.25V46.875C17.8125 45.6544 17.0259 44.6231 15.9375 44.235ZM9.375 38.4375C11.9597 38.4375 14.0625 40.5403 14.0625 43.125V44.0625H4.6875V43.125C4.6875 40.5403 6.79031 38.4375 9.375 38.4375ZM15.9375 56.25C15.9375 56.7675 15.5175 57.1875 15 57.1875H3.75C3.2325 57.1875 2.8125 56.7675 2.8125 56.25V46.875C2.8125 46.3575 3.2325 45.9375 3.75 45.9375H15C15.5175 45.9375 15.9375 46.3575 15.9375 46.875V56.25Z" fill="#268BBF"/>
<path d="M9.375 47.8125C7.82437 47.8125 6.5625 49.0744 6.5625 50.625C6.5625 51.8456 7.34906 52.8769 8.4375 53.265V55.3125H10.3125V53.265C11.4009 52.8769 12.1875 51.8456 12.1875 50.625C12.1875 49.0744 10.9256 47.8125 9.375 47.8125ZM9.375 51.5625C8.8575 51.5625 8.4375 51.1425 8.4375 50.625C8.4375 50.1075 8.8575 49.6875 9.375 49.6875C9.8925 49.6875 10.3125 50.1075 10.3125 50.625C10.3125 51.1425 9.8925 51.5625 9.375 51.5625Z" fill="#268BBF"/>
<path d="M9.375 0.9375C4.72219 0.9375 0.9375 4.72219 0.9375 9.375C0.9375 14.0278 4.72219 17.8125 9.375 17.8125C14.0278 17.8125 17.8125 14.0278 17.8125 9.375C17.8125 4.72219 14.0278 0.9375 9.375 0.9375ZM7.88625 12.1875C7.72687 11.6156 7.60781 10.9875 7.54688 10.3125H11.2041C11.1431 10.9875 11.0241 11.6156 10.8647 12.1875H7.88625ZM10.1419 14.0625C9.87937 14.5913 9.61031 15.03 9.375 15.3703C9.13969 15.03 8.87063 14.5913 8.60813 14.0625H10.1419ZM7.54594 8.4375C7.60687 7.7625 7.72594 7.13438 7.88531 6.5625H10.8638C11.0231 7.13438 11.1422 7.7625 11.2031 8.4375H7.54594ZM8.60813 4.6875C8.87063 4.15875 9.13969 3.72 9.375 3.38063C9.61031 3.72 9.87937 4.15875 10.1419 4.6875H8.60813ZM6.54281 4.6875H4.79156C5.49188 4.00219 6.345 3.47531 7.29469 3.15656C7.03875 3.59812 6.78 4.10719 6.54281 4.6875ZM5.95031 6.5625C5.81437 7.14656 5.71031 7.77 5.66062 8.4375H2.8875C2.98312 7.77563 3.17625 7.14563 3.45469 6.5625H5.95031ZM5.66062 10.3125C5.71031 10.98 5.81437 11.6034 5.95031 12.1875H3.45469C3.17625 11.6044 2.98312 10.9744 2.8875 10.3125H5.66062ZM6.54281 14.0625C6.77906 14.6428 7.03875 15.1519 7.29375 15.5934C6.345 15.2747 5.49188 14.7478 4.79063 14.0625H6.54281ZM12.2072 14.0625H13.9584C13.2581 14.7478 12.405 15.2747 11.4553 15.5934C11.7113 15.1519 11.97 14.6428 12.2072 14.0625ZM12.7997 12.1875C12.9356 11.6034 13.0397 10.98 13.0894 10.3125H15.8625C15.7669 10.9744 15.5738 11.6044 15.2953 12.1875H12.7997ZM13.0894 8.4375C13.0397 7.77 12.9356 7.14656 12.7997 6.5625H15.2953C15.5738 7.14563 15.7669 7.77563 15.8625 8.4375H13.0894ZM12.2072 4.6875C11.9709 4.10719 11.7113 3.59812 11.4563 3.15656C12.405 3.47531 13.2581 4.00219 13.9594 4.6875H12.2072Z" fill="#268BBF"/>
<path d="M6.5625 31.875C6.5625 33.4256 7.82437 34.6875 9.375 34.6875C10.9256 34.6875 12.1875 33.4256 12.1875 31.875C12.1875 30.3244 10.9256 29.0625 9.375 29.0625C7.82437 29.0625 6.5625 30.3244 6.5625 31.875ZM10.3125 31.875C10.3125 32.3925 9.8925 32.8125 9.375 32.8125C8.8575 32.8125 8.4375 32.3925 8.4375 31.875C8.4375 31.3575 8.8575 30.9375 9.375 30.9375C9.8925 30.9375 10.3125 31.3575 10.3125 31.875Z" fill="#268BBF"/>
<path d="M14.0138 27.2353C12.7753 25.9959 11.1272 25.3125 9.37406 25.3125C7.62094 25.3125 5.97281 25.9959 4.73438 27.2353L6.06 28.5609C6.945 27.6759 8.1225 27.1875 9.37406 27.1875C10.6256 27.1875 11.8031 27.6759 12.6881 28.5609L14.0138 27.2353Z" fill="#268BBF"/>
<path d="M16.6667 24.5831C12.6458 20.5621 6.10297 20.5621 2.08203 24.5831L3.40766 25.9087C6.69828 22.6181 12.0505 22.6181 15.3411 25.9087L16.6667 24.5831Z" fill="#268BBF"/>
<path d="M28.125 14.3887C28.125 11.1075 25.455 8.4375 22.1738 8.4375H19.6875V10.3125H22.1738C24.4219 10.3125 26.25 12.1406 26.25 14.3887V30.9375H19.6875V32.8125H26.25V45.6113C26.25 47.8594 24.4219 49.6875 22.1738 49.6875H19.6875V51.5625H22.1738C25.455 51.5625 28.125 48.8925 28.125 45.6113V32.8125H34.6875V30.9375H28.125V14.3887Z" fill="#268BBF"/>
</svg>
