<svg width="60" height="60" viewBox="0 0 60 60" fill="none" xmlns="http://www.w3.org/2000/svg">
<path fill-rule="evenodd" clip-rule="evenodd" d="M37.4229 57.01V57.3669C37.4229 58.3631 36.6093 59.1767 35.6133 59.1767H32.0935C31.101 59.1767 30.2837 58.3631 30.2837 57.3669V42.1655C30.2837 41.1694 31.101 40.3558 32.0935 40.3558H35.6133C36.5772 40.3558 37.3702 41.1176 37.4205 42.0695C38.0103 42.0169 38.417 41.7474 38.7093 41.3253C40.1275 39.2731 40.0014 39.3122 41.8574 38.0998C44.3403 36.4759 44.2435 35.8099 45.1888 31.7016C45.2453 31.456 45.3979 31.2434 45.6125 31.1113C45.827 30.9791 46.0858 30.9386 46.3305 30.9987C48.4352 31.5155 49.3663 33.0991 49.5743 34.9729C49.7608 36.6539 49.3115 38.5659 48.7274 39.9495H55.0122C56.6769 39.9495 58.0389 41.3096 58.0389 42.9745C58.0389 43.5298 57.8869 44.0516 57.6225 44.5005C58.5483 45.0189 59.1772 46.01 59.1772 47.1421C59.1772 48.1474 58.6815 49.0414 57.9222 49.5921C58.2616 50.0809 58.4609 50.6734 58.4609 51.3099C58.4609 52.7718 57.4121 54.0001 56.0292 54.2778C56.1899 54.6465 56.279 55.0528 56.279 55.4793C56.279 57.1418 54.919 58.5042 53.2541 58.5042H44.0956C41.1056 58.5042 39.2888 57.6748 37.4229 57.01ZM37.4229 43.9563V55.0243C39.3297 55.672 41.0636 56.6219 44.0956 56.6219H53.2541C53.883 56.6219 54.3967 56.1073 54.3967 55.4793C54.3967 54.8503 53.883 54.3366 53.2541 54.3366H49.5749C49.0555 54.3366 48.6338 53.9148 48.6338 53.3954C48.6338 52.876 49.0555 52.4542 49.5749 52.4542H55.436C56.065 52.4542 56.5786 51.9391 56.5786 51.3099C56.5786 50.6819 56.0649 50.1672 55.436 50.1672H49.5749C49.0555 50.1672 48.6338 49.7454 48.6338 49.226C48.6338 48.7066 49.0555 48.2848 49.5749 48.2848H56.1521C56.781 48.2848 57.2948 47.7711 57.2948 47.1421C57.2948 46.5132 56.781 45.9995 56.1521 45.9995H49.5749C49.0555 45.9995 48.6338 45.5778 48.6338 45.0583C48.6338 44.5389 49.0555 44.1172 49.5749 44.1172H55.0122C55.6413 44.1172 56.1566 43.6027 56.1566 42.9745C56.1566 42.3453 55.6413 41.8319 55.0122 41.8319H47.1252C46.7568 41.8319 46.4223 41.6169 46.2692 41.282C46.116 40.9471 46.1723 40.5535 46.4133 40.2749C47.1026 39.4781 47.9189 37.1229 47.7034 35.1805C47.6177 34.4087 47.351 33.6976 46.7666 33.2427C45.8685 37.1512 45.6094 37.8951 42.8877 39.6751L42.8874 39.6753C41.3292 40.6933 41.4481 40.6731 40.2575 42.3959L40.2572 42.3965C39.6255 43.3089 38.7445 43.8965 37.4229 43.9563ZM32.1661 57.2943H35.5406V42.2381L32.1661 42.238V57.2943ZM28.8921 19.272C27.7685 18.6952 26.5213 18.3126 25.1899 18.1727C19.4072 17.5636 14.2261 21.7578 13.617 27.5406C13.374 29.8522 13.8985 32.0666 14.9839 33.9318C15.2452 34.3807 15.0928 34.9574 14.6439 35.2186C14.1949 35.4799 13.6182 35.3275 13.357 34.8786C12.0773 32.6795 11.4585 30.0689 11.745 27.3435C12.4629 20.5269 18.5702 15.5828 25.3869 16.3006C27.1175 16.4826 28.7274 17.0125 30.1545 17.8133L30.0454 17.4309C29.9028 16.9315 30.1926 16.4102 30.692 16.2676C31.1915 16.1251 31.7128 16.4148 31.8554 16.9143L32.6937 19.8513C32.7732 20.1295 32.7201 20.4288 32.5501 20.6628C32.38 20.8969 32.1116 21.0398 31.8225 21.0501L28.7701 21.1599C28.251 21.1786 27.8145 20.7722 27.7957 20.2532C27.777 19.734 28.1834 19.2974 28.7025 19.2788L28.8921 19.272ZM18.0203 39.4726L18.1295 39.8551C18.2721 40.3546 17.9823 40.8758 17.4828 41.0183C16.9833 41.1609 16.462 40.8712 16.3195 40.3716L15.4812 37.4347C15.4017 37.1565 15.4547 36.8572 15.6248 36.6232C15.7949 36.3891 16.0632 36.2462 16.3523 36.2359L19.4047 36.1261C19.9239 36.1074 20.3605 36.5138 20.3792 37.0328C20.3977 37.552 19.9915 37.9886 19.4723 38.0073L19.2829 38.014C20.4067 38.5906 21.6541 38.9732 22.985 39.1134C28.7677 39.7223 33.9488 35.5281 34.5577 29.7454C34.8008 27.4351 34.2777 25.2198 33.1912 23.3546C32.9296 22.9058 33.0817 22.3291 33.5306 22.0676C33.9795 21.8061 34.5561 21.9582 34.8176 22.4071C36.0988 24.6062 36.7165 27.2183 36.4297 29.9425C35.712 36.7592 29.6046 41.7032 22.7879 40.9854C21.0579 40.8032 19.4476 40.2732 18.0203 39.4726ZM28.474 53.064C28.9657 52.8966 29.5008 53.1599 29.6682 53.6516C29.8356 54.1434 29.5723 54.6785 29.0806 54.8459C27.7842 55.2873 26.4414 55.6329 25.0601 55.8738L24.2467 56.0159C24.1395 56.0347 24.0297 56.0347 23.9226 56.0159L23.1096 55.8738C10.2959 53.6399 0.824219 42.3938 0.824219 29.3795V11.332C0.824219 10.9555 1.04857 10.6152 1.39457 10.4669L23.7139 0.899878C23.9506 0.798348 24.2187 0.798348 24.4554 0.899878L46.7747 10.4669C47.1207 10.6152 47.345 10.9555 47.345 11.332V29.3795C47.345 29.8991 46.9233 30.3207 46.4039 30.3207C45.8845 30.3207 45.4627 29.8991 45.4627 29.3795V11.9525L24.0846 2.78894C21.4762 3.90705 5.89645 10.5852 2.70657 11.9525V29.3795C2.70657 41.4831 11.5157 51.9419 23.4329 54.0194L24.0846 54.1333L24.7363 54.0194C26.0207 53.7955 27.2689 53.4742 28.474 53.064ZM38.7219 39.6134C38.4666 40.0659 37.8921 40.226 37.4396 39.9708C36.9873 39.7155 36.8272 39.1411 37.0823 38.6886C38.648 35.9132 39.5359 32.7276 39.5359 29.3795V15.8603L24.0847 9.24458L8.63904 15.8602V29.3795C8.63904 38.4766 15.1899 46.3745 24.0848 48.1073C25.6081 47.8107 27.0627 47.3334 28.4272 46.7003C28.8983 46.4818 29.4585 46.6868 29.677 47.158C29.8956 47.6292 29.6906 48.1893 29.2194 48.4079C27.6627 49.1301 25.9996 49.6679 24.256 49.9908C24.1427 50.0118 24.0265 50.0118 23.9132 49.9907C14.0454 48.1625 6.75669 39.4379 6.75669 29.3795V15.2395C6.75669 14.8629 6.98116 14.5226 7.32728 14.3743L23.7141 7.35553C23.9507 7.25423 24.2185 7.25411 24.455 7.35553L40.8475 14.3743C41.1937 14.5226 41.4182 14.8629 41.4182 15.2395V29.3795C41.4182 33.0602 40.4429 36.5623 38.7219 39.6134ZM18.7199 28.6912C18.3526 28.3239 18.3526 27.7275 18.7199 27.3602C19.0872 26.9928 19.6836 26.9928 20.0509 27.3602L22.9316 30.2409L28.124 25.0486C28.4914 24.6813 29.0877 24.6813 29.455 25.0486C29.8223 25.4159 29.8223 26.0122 29.455 26.3795L23.5972 32.2374C23.2296 32.6051 22.6337 32.6051 22.2661 32.2374L18.7199 28.6912Z" fill="#268BBF"/>
</svg>
