<svg width="58" height="60" viewBox="0 0 58 60" fill="none" xmlns="http://www.w3.org/2000/svg">
<path d="M14.3018 23.0665C13.9114 23.8174 13.5861 24.6021 13.3312 25.4074L11.5589 25.9833C10.5842 26.3 9.95441 27.1669 9.95453 28.1917V31.519C9.95453 32.5438 10.5843 33.4107 11.5591 33.7275L13.3312 34.3032C13.5862 35.1089 13.9116 35.8933 14.302 36.6442L13.4554 38.3056C12.9902 39.2188 13.1577 40.2771 13.8825 41.0018L16.2353 43.3547C16.9601 44.0794 18.0183 44.2469 18.9314 43.7816L20.5928 42.935C21.3439 43.3256 22.1286 43.6509 22.9338 43.9057L23.5096 45.6779C23.8264 46.6526 24.6932 47.2823 25.7181 47.2823H29.0454C30.0704 47.2823 30.9372 46.6526 31.2539 45.6778L31.8297 43.9057C32.6352 43.6507 33.4198 43.3254 34.1705 42.935L35.832 43.7816C36.7452 44.2471 37.8036 44.0794 38.5282 43.3544L40.8809 41.0018C41.6057 40.2771 41.7733 39.2188 41.308 38.3056L40.4615 36.6442C40.8519 35.8931 41.1773 35.1085 41.4321 34.3031L43.2044 33.7274C44.179 33.4107 44.8089 32.5438 44.8089 31.519V28.1917C44.8089 27.1667 44.179 26.2999 43.2044 25.9832L41.4321 25.4074C41.1774 24.6021 40.852 23.8174 40.4616 23.0665L41.308 21.4051C41.7733 20.492 41.6057 19.4335 40.881 18.7089L38.5282 16.3562C37.8037 15.6313 36.7452 15.4637 35.8321 15.9291L34.1705 16.7756C33.4197 16.3853 32.6351 16.0599 31.8298 15.8052L31.2538 14.0327C30.9371 13.0581 30.0702 12.4282 29.0454 12.4282H25.7181C24.6932 12.4282 23.8264 13.0581 23.5097 14.0327L22.9339 15.8048C22.1286 16.0598 21.344 16.3851 20.593 16.7756L18.9316 15.9291C18.0183 15.4641 16.9601 15.6315 16.2354 16.3562L13.8827 18.7089C13.158 19.4335 12.9904 20.4919 13.4555 21.4051L14.3021 23.0665H14.3018ZM14.5734 26.1573C14.8475 25.2063 15.2301 24.2837 15.7104 23.4151C15.8234 23.2107 15.8276 22.9636 15.7216 22.7556L14.7082 20.7668C14.5219 20.401 14.5865 19.9936 14.8768 19.7033L17.2295 17.3505C17.5197 17.0603 17.9271 16.9958 18.2928 17.1821L20.2818 18.1956C20.4897 18.3015 20.7368 18.2974 20.9412 18.1843C21.8098 17.704 22.7324 17.3214 23.6834 17.0471C23.9077 16.9824 24.0852 16.8108 24.1573 16.5887L24.8466 14.4673C24.9734 14.0769 25.3071 13.8344 25.7177 13.8344H29.045C29.4554 13.8344 29.7892 14.0769 29.916 14.4673L30.6053 16.5889C30.6775 16.811 30.855 16.9827 31.0793 17.0474C32.0304 17.3215 32.9529 17.704 33.8213 18.1842C34.0257 18.2972 34.2729 18.3014 34.4808 18.1953L36.47 17.1819C36.8355 16.9955 37.243 17.06 37.5333 17.3504L39.8861 19.7031C40.1764 19.9933 40.2408 20.4008 40.0545 20.7666L39.0412 22.7555C38.9352 22.9635 38.9393 23.2106 39.0524 23.4149C39.5328 24.2835 39.9154 25.2061 40.1894 26.1571C40.2539 26.3814 40.4257 26.559 40.6477 26.6311L42.7693 27.3205C43.1596 27.4473 43.4021 27.781 43.4021 28.1916V31.5189C43.4021 31.9292 43.1596 32.2631 42.7693 32.3899L40.6477 33.0792C40.4257 33.1513 40.2539 33.3289 40.1894 33.5532C39.9154 34.504 39.5328 35.4267 39.0523 36.2955C38.9393 36.4998 38.9351 36.7469 39.041 36.9549L40.0544 38.9439C40.2407 39.3096 40.1762 39.7171 39.886 40.0072L37.5332 42.36C37.2429 42.6503 36.8355 42.7147 36.4698 42.5285L34.4808 41.5151C34.2728 41.409 34.0257 41.4132 33.8213 41.5263C32.953 42.0065 32.0304 42.389 31.0791 42.6635C30.8548 42.7282 30.6773 42.8999 30.6052 43.1217L29.9159 45.2433C29.7891 45.6335 29.4554 45.876 29.0448 45.876H25.7175C25.3071 45.876 24.9733 45.6335 24.8465 45.2432L24.1571 43.1216C24.085 42.8996 23.9075 42.728 23.6832 42.6633C22.7323 42.3893 21.8097 42.0067 20.941 41.5262C20.8352 41.4677 20.718 41.4384 20.6007 41.4384C20.4913 41.4384 20.3819 41.464 20.2814 41.5151L18.2925 42.5284C17.9269 42.7145 17.5193 42.65 17.2292 42.36L14.8765 40.0072C14.5862 39.7168 14.5217 39.3095 14.708 38.9437L15.7213 36.9548C15.8274 36.7467 15.8232 36.4996 15.7101 36.2952C15.2298 35.4272 14.8473 34.5046 14.5729 33.5531C14.5082 33.3288 14.3365 33.1513 14.1146 33.0792L11.9931 32.3899C11.6027 32.263 11.3602 31.9291 11.3602 31.5187V28.1914C11.3602 27.781 11.6027 27.4473 11.993 27.3205L14.1146 26.6311C14.3365 26.559 14.5082 26.3814 14.5729 26.1572L14.5734 26.1573ZM27.3814 40.4102C30.0856 40.4102 32.7897 39.381 34.8483 37.3222C38.9656 33.2049 38.9656 26.5056 34.8483 22.3883C32.8538 20.394 30.2018 19.2954 27.3814 19.2954C24.5609 19.2954 21.9088 20.3938 19.9144 22.3883C15.7971 26.5056 15.7971 33.2049 19.9144 37.3222C21.973 39.3808 24.6773 40.4102 27.3814 40.4102ZM20.9089 23.3828C22.6377 21.6539 24.9365 20.7017 27.3815 20.7017C29.8265 20.7017 32.1251 21.6539 33.854 23.3828C37.423 26.9518 37.423 32.7589 33.854 36.328C32.0693 38.1126 29.7257 39.0049 27.3814 39.0047C25.0376 39.0044 22.693 38.1123 20.9089 36.328C17.3399 32.7589 17.3399 26.9517 20.9089 23.3828ZM56.8969 53.3437L48.9928 48.4573C48.7759 48.3232 48.5035 48.317 48.2807 48.4412C48.058 48.5653 47.9199 48.8003 47.9199 49.0553V51.4182H42.9809C44.1128 50.5957 45.1889 49.6798 46.1975 48.6714C51.2234 43.6454 53.9914 36.9632 53.9914 29.8555C53.9914 22.7478 51.2234 16.0655 46.1975 11.0395C42.3075 7.14948 37.4225 4.60393 32.0366 3.65401V1.17198C32.0366 0.91698 31.8986 0.682019 31.6758 0.5578C31.4532 0.433581 31.1806 0.439675 30.9637 0.573855L26.6223 3.2578C19.8021 3.45069 13.3961 6.20846 8.56539 11.0393C3.53945 16.0652 0.771484 22.7476 0.771484 29.8554C0.771484 36.9632 3.53945 43.6454 8.56539 48.6712C9.56746 49.6734 10.6455 50.5916 11.7851 51.4181H4.95484C4.5666 51.4181 4.25172 51.733 4.25172 52.1212V55.762C4.25172 56.1503 4.5666 56.4651 4.95484 56.4651H47.9199V58.8281C47.9199 59.0831 48.0579 59.3182 48.2807 59.4422C48.3873 59.5017 48.5052 59.5312 48.623 59.5312C48.7514 59.5312 48.8796 59.4961 48.9927 59.4262L56.8968 54.5398C57.1041 54.4115 57.2302 54.1854 57.2302 53.9416C57.2302 53.6979 57.104 53.4717 56.8968 53.3435L56.8969 53.3437ZM9.55984 47.6771C4.79945 42.9167 2.17785 36.5876 2.17785 29.8555C2.17785 23.1234 4.79945 16.7941 9.55984 12.0339C13.501 8.09261 18.5492 5.60858 24.0013 4.87839L23.0596 5.46057C22.8524 5.58866 22.7262 5.81495 22.7262 6.0587C22.7262 6.30245 22.8523 6.52862 23.0596 6.65682L23.8669 7.15592C19.0647 7.8976 14.6057 10.148 11.1398 13.6139C6.80148 17.9523 4.41227 23.7203 4.41227 29.8555C4.41227 35.9907 6.80148 41.7589 11.1398 46.0971C13.5304 48.4878 16.3558 50.2851 19.437 51.4183H14.3254C12.602 50.3729 10.9989 49.1162 9.55984 47.6771ZM25.8012 8.35147L30.9638 11.5431C31.1807 11.6773 31.4533 11.6833 31.6758 11.5591C31.8985 11.4349 32.0366 11.1999 32.0366 10.9449V8.79819C36.0514 9.68038 39.6987 11.6781 42.6287 14.6081C51.0361 23.0155 51.0361 36.6954 42.6287 45.1028C38.5561 49.1754 33.1413 51.4183 27.3815 51.4183C21.6217 51.4183 16.2068 49.1754 12.1342 45.1028C8.0616 41.0301 5.81851 35.615 5.81851 29.8554C5.81851 24.0957 8.06148 18.6808 12.1342 14.6081C15.7982 10.9441 20.6444 8.72835 25.8012 8.35147ZM5.65797 55.059V52.8245H27.3815C33.5168 52.8245 39.2849 50.4353 43.6231 46.097C52.5788 37.1414 52.5788 22.5694 43.6231 13.6138C40.2891 10.2798 36.0823 8.07889 31.4576 7.24909C31.2525 7.21253 31.042 7.26831 30.8823 7.4019C30.7226 7.5355 30.6304 7.73296 30.6304 7.9412V9.68378L24.7666 6.05858L30.6304 2.43339V4.25038C30.6304 4.59749 30.8837 4.89268 31.2268 4.94542C36.5502 5.76268 41.3832 8.21378 45.2031 12.0337C49.9635 16.7941 52.5851 23.1232 52.5851 29.8554C52.5851 36.5876 49.9635 42.9166 45.2031 47.677C40.4427 52.4374 34.1137 55.059 27.3815 55.059H5.65797ZM49.3261 57.5668V55.7621C49.3261 55.3739 49.0112 55.059 48.623 55.059H35.9543C37.6517 54.4834 39.2856 53.7355 40.835 52.8245H48.623C49.0112 52.8245 49.3261 52.5096 49.3261 52.1214V50.3167L55.19 53.9419L49.3261 57.5671V57.5668ZM27.3814 31.8895C27.8755 31.8895 28.3288 31.7121 28.6817 31.418L31.8177 33.2286C31.9285 33.2925 32.0494 33.323 32.1687 33.323C32.4116 33.323 32.648 33.1969 32.7783 32.9713C32.9725 32.6349 32.8572 32.205 32.521 32.0108L29.3843 30.1998C29.4036 30.0875 29.4157 29.973 29.4157 29.8554C29.4157 28.9812 28.8603 28.2362 28.0847 27.9491V23.5367C28.0847 23.1485 27.7698 22.8336 27.3816 22.8336C26.9934 22.8336 26.6785 23.1485 26.6785 23.5367V27.9491C25.9028 28.2362 25.3475 28.9812 25.3475 29.8554C25.3475 30.9771 26.26 31.8896 27.3816 31.8896L27.3814 31.8895ZM27.3814 29.2274C27.7277 29.2274 28.0093 29.5091 28.0093 29.8553C28.0093 30.2014 27.7275 30.4833 27.3814 30.4833C27.0352 30.4833 26.7535 30.2016 26.7535 29.8553C26.7535 29.509 27.0352 29.2274 27.3814 29.2274Z" fill="#268BBF"/>
</svg>
