<svg width="60" height="60" viewBox="0 0 60 60" fill="none" xmlns="http://www.w3.org/2000/svg">
<path d="M30 9.375C18.627 9.375 9.375 18.627 9.375 30C9.375 41.373 18.627 50.625 30 50.625C41.373 50.625 50.625 41.373 50.625 30C50.625 18.627 41.373 9.375 30 9.375ZM30 48.75C19.6617 48.75 11.25 40.3383 11.25 30C11.25 19.6617 19.6617 11.25 30 11.25C40.3383 11.25 48.75 19.6617 48.75 30C48.75 40.3383 40.3383 48.75 30 48.75Z" fill="#268BBF"/>
<path d="M58.125 25.3125H53.9227C53.2963 22.1257 52.0405 19.0959 50.2289 16.4004L53.202 13.4273C53.3776 13.2513 53.4762 13.0127 53.4762 12.7641C53.4762 12.5154 53.3776 12.2769 53.202 12.1008L47.8992 6.79805C47.7231 6.62244 47.4846 6.52382 47.2359 6.52382C46.9873 6.52382 46.7487 6.62244 46.5727 6.79805L43.5996 9.77109C40.9041 7.95946 37.8743 6.70371 34.6875 6.07734V1.875C34.6875 1.62636 34.5887 1.3879 34.4129 1.21209C34.2371 1.03627 33.9986 0.9375 33.75 0.9375H26.25C26.0014 0.9375 25.7629 1.03627 25.5871 1.21209C25.4113 1.3879 25.3125 1.62636 25.3125 1.875V6.07734C22.1257 6.70371 19.0959 7.95946 16.4004 9.77109L13.4273 6.79805C13.2513 6.62244 13.0127 6.52382 12.7641 6.52382C12.5154 6.52382 12.2769 6.62244 12.1008 6.79805L6.79805 12.1008C6.62244 12.2769 6.52382 12.5154 6.52382 12.7641C6.52382 13.0127 6.62244 13.2513 6.79805 13.4273L9.77109 16.4004C7.95946 19.0959 6.70371 22.1257 6.07734 25.3125H1.875C1.62636 25.3125 1.3879 25.4113 1.21209 25.5871C1.03627 25.7629 0.9375 26.0014 0.9375 26.25V33.75C0.9375 33.9986 1.03627 34.2371 1.21209 34.4129C1.3879 34.5887 1.62636 34.6875 1.875 34.6875H6.07734C6.70371 37.8743 7.95946 40.9041 9.77109 43.5996L6.79805 46.5727C6.62244 46.7487 6.52382 46.9873 6.52382 47.2359C6.52382 47.4846 6.62244 47.7231 6.79805 47.8992L12.1008 53.202C12.2769 53.3776 12.5154 53.4762 12.7641 53.4762C13.0127 53.4762 13.2513 53.3776 13.4273 53.202L16.4004 50.2289C19.0959 52.0405 22.1257 53.2963 25.3125 53.9227V58.125C25.3125 58.3736 25.4113 58.6121 25.5871 58.7879C25.7629 58.9637 26.0014 59.0625 26.25 59.0625H33.75C33.9986 59.0625 34.2371 58.9637 34.4129 58.7879C34.5887 58.6121 34.6875 58.3736 34.6875 58.125V53.9227C37.8743 53.2963 40.9041 52.0405 43.5996 50.2289L46.5727 53.202C46.7487 53.3776 46.9873 53.4762 47.2359 53.4762C47.4846 53.4762 47.7231 53.3776 47.8992 53.202L53.202 47.8992C53.3776 47.7231 53.4762 47.4846 53.4762 47.2359C53.4762 46.9873 53.3776 46.7487 53.202 46.5727L50.2289 43.5996C52.0405 40.9041 53.2963 37.8743 53.9227 34.6875H58.125C58.3736 34.6875 58.6121 34.5887 58.7879 34.4129C58.9637 34.2371 59.0625 33.9986 59.0625 33.75V26.25C59.0625 26.0014 58.9637 25.7629 58.7879 25.5871C58.6121 25.4113 58.3736 25.3125 58.125 25.3125ZM57.1875 32.8125H53.1375C52.9146 32.8125 52.699 32.8918 52.5294 33.0364C52.3597 33.1809 52.2471 33.3811 52.2117 33.6012C51.6518 37.0516 50.2957 40.324 48.2508 43.159C48.1203 43.3395 48.0584 43.5607 48.0762 43.7828C48.094 44.0048 48.1904 44.2133 48.348 44.3707L51.2133 47.2359L47.2359 51.2133L44.3707 48.348C44.2131 48.1907 44.0047 48.0944 43.7827 48.0766C43.5607 48.0588 43.3396 48.1205 43.159 48.2508C40.324 50.2957 37.0516 51.6518 33.6012 52.2117C33.3811 52.2471 33.1809 52.3597 33.0364 52.5294C32.8918 52.699 32.8125 52.9146 32.8125 53.1375V57.1875H27.1875V53.1375C27.1875 52.9146 27.1082 52.699 26.9636 52.5294C26.8191 52.3597 26.6189 52.2471 26.3988 52.2117C22.9484 51.6518 19.676 50.2957 16.841 48.2508C16.6605 48.1203 16.4393 48.0584 16.2172 48.0762C15.9952 48.094 15.7867 48.1904 15.6293 48.348L12.7641 51.2133L8.78672 47.2359L11.652 44.3707C11.8096 44.2133 11.906 44.0048 11.9238 43.7828C11.9416 43.5607 11.8797 43.3395 11.7492 43.159C9.70433 40.324 8.34816 37.0516 7.78828 33.6012C7.7529 33.3811 7.64028 33.1809 7.47063 33.0364C7.30097 32.8918 7.08537 32.8125 6.8625 32.8125H2.8125V27.1875H6.8625C7.08537 27.1875 7.30097 27.1082 7.47063 26.9636C7.64028 26.8191 7.7529 26.6189 7.78828 26.3988C8.34816 22.9484 9.70433 19.676 11.7492 16.841C11.8797 16.6605 11.9416 16.4393 11.9238 16.2172C11.906 15.9952 11.8096 15.7867 11.652 15.6293L8.78672 12.7641L12.7641 8.78672L15.6293 11.652C15.7869 11.8093 15.9953 11.9056 16.2173 11.9234C16.4393 11.9412 16.6604 11.8795 16.841 11.7492C19.676 9.70433 22.9484 8.34816 26.3988 7.78828C26.6189 7.7529 26.8191 7.64028 26.9636 7.47063C27.1082 7.30097 27.1875 7.08537 27.1875 6.8625V2.8125H32.8125V6.8625C32.8125 7.08537 32.8918 7.30097 33.0364 7.47063C33.1809 7.64028 33.3811 7.7529 33.6012 7.78828C37.0516 8.34816 40.324 9.70433 43.159 11.7492C43.3396 11.8795 43.5607 11.9412 43.7827 11.9234C44.0047 11.9056 44.2131 11.8093 44.3707 11.652L47.2359 8.78672L51.2133 12.7641L48.348 15.6293C48.1904 15.7867 48.094 15.9952 48.0762 16.2172C48.0584 16.4393 48.1203 16.6605 48.2508 16.841C50.2957 19.676 51.6518 22.9484 52.2117 26.3988C52.2471 26.6189 52.3597 26.8191 52.5294 26.9636C52.699 27.1082 52.9146 27.1875 53.1375 27.1875H57.1875V32.8125Z" fill="#268BBF"/>
<path d="M43.1255 30.0002C43.1252 32.3472 42.4957 34.6512 41.3025 36.6723C40.1092 38.6933 38.3959 40.3575 36.341 41.4914C34.2861 42.6254 31.9648 43.1876 29.6188 43.1197C27.2728 43.0517 24.9879 42.3559 23.0021 41.1049C22.8008 40.9683 22.6605 40.7587 22.6108 40.5205C22.5612 40.2824 22.606 40.0342 22.736 39.8285C22.8659 39.6228 23.0707 39.4757 23.3071 39.4182C23.5435 39.3608 23.793 39.3974 24.0029 39.5205C26.0627 40.8186 28.488 41.4135 30.9147 41.2159C33.3414 41.0183 35.6385 40.0389 37.4612 38.4246C39.2839 36.8104 40.5338 34.6485 41.0233 32.2635C41.5127 29.8785 41.2153 27.3991 40.1758 25.1974C39.1362 22.9958 37.4105 21.1908 35.2578 20.0534C33.1051 18.916 30.6415 18.5076 28.2369 18.8894C25.8323 19.2713 23.6164 20.4228 21.922 22.1712C20.2276 23.9196 19.146 26.1704 18.8396 28.5857L19.9622 27.4619C20.1382 27.286 20.3767 27.1872 20.6255 27.1872C20.8743 27.1872 21.1129 27.286 21.2888 27.4619C21.4647 27.6378 21.5635 27.8764 21.5635 28.1252C21.5635 28.374 21.4647 28.6126 21.2888 28.7885L18.4763 31.601C18.3002 31.7766 18.0617 31.8752 17.813 31.8752C17.5643 31.8752 17.3258 31.7766 17.1497 31.601L14.3372 28.7885C14.1613 28.6126 14.0625 28.374 14.0625 28.1252C14.0625 27.8764 14.1613 27.6378 14.3372 27.4619C14.5132 27.286 14.7517 27.1872 15.0005 27.1872C15.2493 27.1872 15.4879 27.286 15.6638 27.4619L16.9365 28.7358C17.261 25.3798 18.8645 22.2775 21.4146 20.0719C23.9647 17.8663 27.2658 16.7267 30.6335 16.8893C34.0012 17.0519 37.1771 18.5042 39.5029 20.9452C41.8286 23.3862 43.1258 26.6286 43.1255 30.0002Z" fill="#268BBF"/>
</svg>
