<svg width="60" height="60" viewBox="0 0 60 60" fill="none" xmlns="http://www.w3.org/2000/svg">
<path d="M53.4375 46.875V19.6875C53.436 18.4447 52.9417 17.2533 52.063 16.3745C51.1842 15.4958 49.9928 15.0015 48.75 15H45.1877C44.939 15 44.7006 15.0988 44.5248 15.2746C44.349 15.4504 44.2502 15.6889 44.2502 15.9375C44.2502 16.1861 44.349 16.4246 44.5248 16.6004C44.7006 16.7762 44.939 16.875 45.1877 16.875H48.75C49.4957 16.8758 50.2106 17.1724 50.7378 17.6997C51.2651 18.2269 51.5617 18.9418 51.5625 19.6875V46.875H41.0889C39.6027 46.7441 38.3444 48.5322 37.3865 49.4133C37.2996 49.5006 37.1963 49.5697 37.0825 49.6168C36.9688 49.6639 36.8468 49.6879 36.7237 49.6875H23.2764C23.1532 49.6879 23.0313 49.6639 22.9175 49.6168C22.8037 49.5697 22.7004 49.5006 22.6136 49.4133C21.6499 48.524 20.4008 46.749 18.9111 46.875L8.4375 46.875V19.6875C8.43831 18.9418 8.73489 18.2269 9.26216 17.6997C9.78943 17.1724 10.5043 16.8758 11.25 16.875H13.125C13.3736 16.875 13.6121 16.7762 13.7879 16.6004C13.9637 16.4246 14.0625 16.1861 14.0625 15.9375C14.0625 15.6889 13.9637 15.4504 13.7879 15.2746C13.6121 15.0988 13.3736 15 13.125 15H11.25C10.0072 15.0015 8.81581 15.4958 7.93705 16.3745C7.05829 17.2533 6.56396 18.4447 6.5625 19.6875V46.875C5.81683 46.8758 5.10193 47.1724 4.57466 47.6997C4.04739 48.2269 3.75081 48.9418 3.75 49.6875V51.5625C3.75146 52.8053 4.24579 53.9967 5.12455 54.8755C6.00331 55.7542 7.19475 56.2485 8.4375 56.25H51.5625C52.8053 56.2485 53.9967 55.7542 54.8755 54.8755C55.7542 53.9967 56.2485 52.8053 56.25 51.5625V49.6875C56.2492 48.9418 55.9526 48.2269 55.4253 47.6997C54.8981 47.1724 54.1832 46.8758 53.4375 46.875ZM54.375 51.5625C54.3742 52.3082 54.0776 53.0231 53.5503 53.5503C53.0231 54.0776 52.3082 54.3742 51.5625 54.375H8.4375C7.69183 54.3742 6.97693 54.0776 6.44966 53.5503C5.92239 53.0231 5.62581 52.3082 5.625 51.5625V49.6875C5.62525 49.4389 5.7241 49.2006 5.89986 49.0249C6.07562 48.8491 6.31394 48.7502 6.5625 48.75H18.9111C19.1596 48.751 19.3977 48.8496 19.5739 49.0247L21.2878 50.739C21.5483 51.0009 21.8582 51.2086 22.1996 51.35C22.5409 51.4913 22.9069 51.5636 23.2764 51.5625H36.7236C38.2197 51.6899 39.4625 49.9081 40.426 49.0246C40.6023 48.8496 40.8404 48.7509 41.0889 48.75H53.4375C53.6861 48.7502 53.9244 48.8491 54.1001 49.0249C54.2759 49.2006 54.3748 49.4389 54.375 49.6875V51.5625Z" fill="#268BBF"/>
<path d="M12.1408 22.5H13.125C13.3736 22.5 13.6121 22.4013 13.7879 22.2255C13.9637 22.0496 14.0625 21.8112 14.0625 21.5625C14.0625 21.3139 13.9637 21.0754 13.7879 20.8996C13.6121 20.7238 13.3736 20.625 13.125 20.625H12.1408C11.6599 20.6219 11.1973 20.8096 10.8545 21.147C10.5118 21.4844 10.3169 21.944 10.3125 22.425V41.3251C10.3169 41.8061 10.5118 42.2656 10.8545 42.6031C11.1973 42.9405 11.6599 43.1282 12.1408 43.125H47.8592C48.3401 43.1282 48.8027 42.9405 49.1455 42.6031C49.4882 42.2656 49.6831 41.8061 49.6875 41.3251V22.425C49.6831 21.944 49.4882 21.4844 49.1455 21.147C48.8027 20.8096 48.3401 20.6219 47.8592 20.625H46.8567C46.608 20.6263 46.3701 20.7262 46.1951 20.9029C46.0202 21.0795 45.9226 21.3185 45.9238 21.5671C45.925 21.8158 46.0249 22.0537 46.2016 22.2287C46.3783 22.4036 46.6172 22.5013 46.8658 22.5L47.8125 22.425L47.8592 41.25L12.1875 41.3251L12.1408 22.5Z" fill="#268BBF"/>
<path d="M26.1374 30.9377C27.4402 30.9361 28.741 30.8364 30.0289 30.6396C31.4267 31.4518 33.0151 31.8782 34.6317 31.8752C35.9456 31.856 37.2415 31.5666 38.4387 31.0249C39.6359 30.4832 40.7088 29.7008 41.5905 28.7265C42.4723 27.7522 43.144 26.6069 43.5639 25.3617C43.9839 24.1166 44.143 22.7983 44.0314 21.489C43.6581 16.7801 40.4649 13.8449 36.3418 12.6374L36.3419 7.85177C36.3021 2.39993 15.9767 2.39941 15.9375 7.85177V26.8361C15.9335 29.5313 21.067 30.9369 26.1374 30.9377ZM34.4669 12.6082C32.086 12.6504 29.8113 13.6012 28.1085 15.2657C27.4287 15.8279 27.1702 16.8704 26.1374 16.6407C22.9779 16.6408 19.985 16.0521 18.5175 15.1439C18.0304 14.8377 17.8125 14.5543 17.8125 14.4097V10.3227C21.7214 12.4919 30.5577 12.4922 34.4668 10.3227L34.4669 12.6082ZM18.0982 20.9526C17.9716 20.832 17.7991 20.6355 17.8125 20.5126L17.8125 16.8893C20.361 18.0475 23.1422 18.6026 25.94 18.5113C25.3858 19.8415 25.1395 21.2797 25.2193 22.7184C21.2803 22.5886 18.8813 21.6433 18.0982 20.9526ZM26.1374 29.0627C20.6451 29.0627 17.8125 27.5054 17.8125 26.8407C17.809 26.8377 17.815 22.9851 17.8125 22.9811C20.2241 24.0806 22.8491 24.633 25.4992 24.5985C25.5199 24.6826 25.5301 24.7707 25.5533 24.8536C25.992 26.4071 26.8069 27.8284 27.9259 28.992C27.3371 29.034 26.7419 29.0627 26.1374 29.0627ZM42.1619 21.6305C42.7017 27.1603 36.9886 31.601 31.8951 29.4764C26.7928 27.5529 25.4423 20.3348 29.4151 16.6106C33.9927 12.0696 41.784 15.2939 42.1619 21.6305ZM26.1401 5.62521C31.6342 5.62521 34.4669 7.18572 34.4669 7.85177C34.4669 8.51782 31.6342 10.0783 26.1401 10.0783C20.6461 10.0783 17.8125 8.51782 17.8125 7.85177C17.8125 7.18572 20.6461 5.62521 26.1401 5.62521Z" fill="#268BBF"/>
<path d="M31.4057 20.118L30.697 19.1716C30.5459 18.9781 30.3249 18.8515 30.0816 18.8191C29.8382 18.7866 29.5918 18.8509 29.3953 18.998C29.1988 19.1452 29.0678 19.3635 29.0305 19.6062C28.9931 19.8488 29.0524 20.0965 29.1955 20.2959L31.0705 22.7994C31.1895 22.9486 31.3495 23.0599 31.5309 23.1195C31.7122 23.1791 31.907 23.1845 32.0914 23.1349L35.2124 22.1974C35.4473 22.1232 35.6436 21.9594 35.7588 21.7416C35.8739 21.5237 35.8987 21.2693 35.8277 21.0333C35.7567 20.7974 35.5956 20.5989 35.3794 20.4807C35.1631 20.3626 34.9091 20.3343 34.6722 20.4021L33.1223 20.8677C33.4161 20.3429 33.8705 19.9261 34.4187 19.6788C34.9669 19.4315 35.5801 19.3666 36.1679 19.4937C36.7558 19.6208 37.2873 19.9332 37.6844 20.3849C38.0815 20.8367 38.3231 21.4039 38.3738 22.0032C38.4245 22.6025 38.2815 23.2022 37.966 23.7142C37.6504 24.2262 37.1789 24.6234 36.6207 24.8474C36.0626 25.0715 35.4473 25.1105 34.8653 24.9588C34.2833 24.807 33.7654 24.4726 33.3877 24.0045C33.2321 23.8105 33.0059 23.6861 32.7588 23.6587C32.5116 23.6312 32.2636 23.703 32.0693 23.8582C30.605 25.3813 34.2945 27.0897 35.5712 26.9247C36.4036 26.9257 37.2213 26.7048 37.9399 26.2847C38.6586 25.8645 39.2522 25.2604 39.6596 24.5345C40.0671 23.8085 40.2736 22.9871 40.2579 22.1548C40.2422 21.3225 40.0049 20.5094 39.5703 19.7994C39.1358 19.0894 38.5198 18.508 37.7858 18.1153C37.0518 17.7225 36.2264 17.5326 35.3946 17.5651C34.5628 17.5975 33.7547 17.8512 33.0535 18.2999C32.3524 18.7487 31.7836 19.3763 31.4057 20.118Z" fill="#268BBF"/>
</svg>
