<svg width="60" height="60" viewBox="0 0 60 60" fill="none" xmlns="http://www.w3.org/2000/svg">
<path d="M55.3125 15.0004H54.0949C55.1827 13.7871 55.8959 12.2846 56.1482 10.6746C56.4006 9.06465 56.1813 7.41605 55.5168 5.92803C54.8524 4.44001 53.7713 3.17623 52.4041 2.28941C51.0369 1.40259 49.4421 0.930664 47.8125 0.930664C46.1829 0.930664 44.5881 1.40259 43.2209 2.28941C41.8537 3.17623 40.7726 4.44001 40.1082 5.92803C39.4437 7.41605 39.2244 9.06465 39.4768 10.6746C39.7291 12.2846 40.4423 13.7871 41.5301 15.0004H30V5.62544C30 5.3768 29.9012 5.13835 29.7254 4.96253C29.5496 4.78672 29.3111 4.68794 29.0625 4.68794H25.3125C25.0639 4.68794 24.8254 4.78672 24.6496 4.96253C24.4738 5.13835 24.375 5.3768 24.375 5.62544V15.0004H23.4375V1.87544C23.4375 1.6268 23.3387 1.38835 23.1629 1.21253C22.9871 1.03672 22.7486 0.937944 22.5 0.937944H18.75C18.5014 0.937944 18.2629 1.03672 18.0871 1.21253C17.9113 1.38835 17.8125 1.6268 17.8125 1.87544V15.0004H16.875V8.43794C16.875 8.1893 16.7762 7.95085 16.6004 7.77503C16.4246 7.59922 16.1861 7.50044 15.9375 7.50044H12.1875C11.9389 7.50044 11.7004 7.59922 11.5246 7.77503C11.3488 7.95085 11.25 8.1893 11.25 8.43794V15.0004H4.6875C3.69328 15.0016 2.7401 15.397 2.03708 16.1C1.33406 16.803 0.938617 17.7562 0.9375 18.7504V46.8754C0.938617 47.8697 1.33406 48.8228 2.03708 49.5259C2.7401 50.2289 3.69328 50.6243 4.6875 50.6254H24.0117L22.7613 54.3754H19.6875C19.4389 54.3754 19.2004 54.4742 19.0246 54.65C18.8488 54.8258 18.75 55.0643 18.75 55.3129V57.1879H9.375C9.12636 57.1879 8.8879 57.2867 8.71209 57.4625C8.53627 57.6383 8.4375 57.8768 8.4375 58.1254C8.4375 58.3741 8.53627 58.6125 8.71209 58.7884C8.8879 58.9642 9.12636 59.0629 9.375 59.0629H50.625C50.8736 59.0629 51.1121 58.9642 51.2879 58.7884C51.4637 58.6125 51.5625 58.3741 51.5625 58.1254C51.5625 57.8768 51.4637 57.6383 51.2879 57.4625C51.1121 57.2867 50.8736 57.1879 50.625 57.1879H41.25V55.3129C41.25 55.0643 41.1512 54.8258 40.9754 54.65C40.7996 54.4742 40.5611 54.3754 40.3125 54.3754H37.2387L35.9883 50.6254H55.3125C56.3067 50.6243 57.2599 50.2289 57.9629 49.5259C58.6659 48.8228 59.0614 47.8697 59.0625 46.8754V18.7504C59.0614 17.7562 58.6659 16.803 57.9629 16.1C57.2599 15.397 56.3067 15.0016 55.3125 15.0004ZM48.75 2.88091C50.1511 3.08537 51.4488 3.73666 52.4501 4.73789C53.4513 5.73913 54.1026 7.03682 54.307 8.43794H48.75V2.88091ZM48.2004 10.3129H54.307C54.1451 11.4395 53.6928 12.5045 52.9946 13.4032C52.2964 14.302 51.3763 15.0036 50.3248 15.439C49.2733 15.8744 48.1265 16.0287 46.9973 15.8867C45.8681 15.7447 44.7953 15.3112 43.8844 14.629L48.2004 10.3129ZM41.25 9.37544C41.2523 7.79808 41.8217 6.27414 42.8544 5.08181C43.8871 3.88949 45.3141 3.10832 46.875 2.88091V8.98755L42.559 13.3036C41.708 12.1709 41.2485 10.7922 41.25 9.37544ZM26.25 6.56294H28.125V24.3754H26.25V6.56294ZM23.4375 16.8754H24.375V24.3754H23.4375V16.8754ZM19.6875 2.81294H21.5625V24.3754H19.6875V2.81294ZM16.875 16.8754H17.8125V24.3754H16.875V16.8754ZM13.125 9.37544H15V24.3754H13.125V9.37544ZM39.375 56.2504V57.1879H20.625V56.2504H39.375ZM24.7383 54.3754L25.9887 50.6254H34.0113L35.2617 54.3754H24.7383ZM57.1875 46.8754C57.1868 47.3725 56.9891 47.8491 56.6376 48.2006C56.2861 48.552 55.8096 48.7498 55.3125 48.7504H4.6875C4.19042 48.7498 3.71388 48.552 3.36239 48.2006C3.0109 47.8491 2.81315 47.3725 2.8125 46.8754V45.0004H57.1875V46.8754ZM57.1875 43.1254H2.8125V18.7504C2.81315 18.2534 3.0109 17.7768 3.36239 17.4253C3.71388 17.0738 4.19042 16.8761 4.6875 16.8754H11.25V24.3754H10.3125V18.7504C10.3125 18.5018 10.2137 18.2633 10.0379 18.0875C9.8621 17.9117 9.62364 17.8129 9.375 17.8129H5.625C5.37636 17.8129 5.1379 17.9117 4.96209 18.0875C4.78627 18.2633 4.6875 18.5018 4.6875 18.7504V25.3129C4.6875 25.5616 4.78627 25.8 4.96209 25.9759C5.1379 26.1517 5.37636 26.2504 5.625 26.2504H35.625C35.8736 26.2504 36.1121 26.1517 36.2879 25.9759C36.4637 25.8 36.5625 25.5616 36.5625 25.3129V18.7504C36.5625 18.5018 36.4637 18.2633 36.2879 18.0875C36.1121 17.9117 35.8736 17.8129 35.625 17.8129H31.875C31.6264 17.8129 31.3879 17.9117 31.2121 18.0875C31.0363 18.2633 30.9375 18.5018 30.9375 18.7504V24.3754H30V16.8754H43.9547C45.1473 17.4915 46.4702 17.8129 47.8125 17.8129C49.1548 17.8129 50.4777 17.4915 51.6703 16.8754H55.3125C55.8096 16.8761 56.2861 17.0738 56.6376 17.4253C56.9891 17.7768 57.1868 18.2534 57.1875 18.7504V43.1254ZM8.4375 19.6879V24.3754H6.5625V19.6879H8.4375ZM32.8125 24.3754V19.6879H34.6875V24.3754H32.8125Z" fill="#268BBF"/>
<path d="M11.25 45.938H5.625C5.37636 45.938 5.1379 46.0368 4.96209 46.2126C4.78627 46.3884 4.6875 46.6268 4.6875 46.8755C4.6875 47.1241 4.78627 47.3626 4.96209 47.5384C5.1379 47.7142 5.37636 47.813 5.625 47.813H11.25C11.4986 47.813 11.7371 47.7142 11.9129 47.5384C12.0887 47.3626 12.1875 47.1241 12.1875 46.8755C12.1875 46.6268 12.0887 46.3884 11.9129 46.2126C11.7371 46.0368 11.4986 45.938 11.25 45.938Z" fill="#268BBF"/>
<path d="M15 45.938H14.0625C13.8139 45.938 13.5754 46.0368 13.3996 46.2126C13.2238 46.3884 13.125 46.6268 13.125 46.8755C13.125 47.1241 13.2238 47.3626 13.3996 47.5384C13.5754 47.7142 13.8139 47.813 14.0625 47.813H15C15.2486 47.813 15.4871 47.7142 15.6629 47.5384C15.8387 47.3626 15.9375 47.1241 15.9375 46.8755C15.9375 46.6268 15.8387 46.3884 15.6629 46.2126C15.4871 46.0368 15.2486 45.938 15 45.938Z" fill="#268BBF"/>
<path d="M40.3125 24.3755C40.4357 24.3757 40.5576 24.3515 40.6714 24.3044C40.7852 24.2572 40.8885 24.1881 40.9755 24.1009L44.4508 20.6255H52.5C52.7487 20.6255 52.9871 20.5267 53.1629 20.3509C53.3388 20.1751 53.4375 19.9366 53.4375 19.688C53.4375 19.4393 53.3388 19.2009 53.1629 19.0251C52.9871 18.8493 52.7487 18.7505 52.5 18.7505H44.0625C43.9394 18.7505 43.8175 18.7747 43.7038 18.8218C43.59 18.869 43.4867 18.938 43.3996 19.0251L39.6496 22.7751C39.5185 22.9062 39.4292 23.0732 39.393 23.2551C39.3568 23.4369 39.3754 23.6254 39.4464 23.7968C39.5173 23.9681 39.6375 24.1145 39.7917 24.2175C39.9458 24.3205 40.1271 24.3755 40.3125 24.3755Z" fill="#268BBF"/>
<path d="M52.4994 34.688C52.0067 34.6883 51.5228 34.8181 51.096 35.0643C50.6693 35.3105 50.3147 35.6644 50.0677 36.0907L40.2533 30.3649C40.1203 29.7261 39.7693 29.1533 39.2605 28.7448C38.7516 28.3363 38.1165 28.1174 37.464 28.1257C36.8114 28.134 36.1821 28.369 35.6838 28.7903C35.1855 29.2117 34.8492 29.7932 34.7326 30.4352L24.856 37.8427C24.5873 37.4289 24.2144 37.0932 23.7748 36.8692C23.3353 36.6453 22.8444 36.541 22.3518 36.5669C21.8591 36.5928 21.3819 36.7479 20.9682 37.0167C20.5545 37.2855 20.2189 37.6585 19.9951 38.0981L10.2334 34.0306C10.0793 33.3884 9.70432 32.8208 9.17397 32.4272C8.64362 32.0337 7.99174 31.8392 7.33245 31.8779C6.67317 31.9166 6.0485 32.186 5.56782 32.6388C5.08714 33.0917 4.78107 33.6993 4.70322 34.3551C4.62536 35.0109 4.78068 35.6732 5.14196 36.226C5.50325 36.7788 6.04749 37.187 6.67939 37.3789C7.31129 37.5709 7.99059 37.5345 8.59834 37.276C9.20609 37.0176 9.70357 36.5536 10.0037 35.9653L19.7654 40.0329C19.9161 40.6601 20.2779 41.2165 20.7901 41.6086C21.3023 42.0007 21.9337 42.2049 22.5785 42.1867C23.2233 42.1686 23.8423 41.9293 24.3317 41.509C24.821 41.0887 25.1509 40.5129 25.2662 39.8782L35.1427 32.4708C35.4044 32.8739 35.765 33.2031 36.1902 33.427C36.6154 33.6509 37.0909 33.7619 37.5713 33.7496C38.0517 33.7373 38.5209 33.6019 38.934 33.3565C39.3471 33.111 39.6904 32.7637 39.931 32.3477L49.7455 38.0735C49.8538 38.5941 50.1075 39.0732 50.477 39.4555C50.8466 39.8377 51.317 40.1074 51.8336 40.2331C52.3502 40.3589 52.8919 40.3357 53.3958 40.1662C53.8997 39.9966 54.3453 39.6877 54.6808 39.2752C55.0163 38.8628 55.228 38.3637 55.2914 37.8358C55.3548 37.3079 55.2672 36.7728 55.0389 36.2926C54.8106 35.8125 54.4508 35.4069 54.0013 35.1229C53.5518 34.8388 53.0311 34.6881 52.4994 34.688ZM8.43687 34.6927C8.43625 34.9417 8.3368 35.1804 8.16035 35.3561C7.98391 35.5319 7.74492 35.6305 7.49586 35.6302C7.2468 35.6299 7.00805 35.5307 6.83204 35.3545C6.65604 35.1783 6.55719 34.9394 6.55719 34.6903C6.55719 34.4413 6.65604 34.2024 6.83204 34.0262C7.00805 33.8499 7.2468 33.7508 7.49586 33.7505C7.74492 33.7502 7.98391 33.8487 8.16035 34.0245C8.3368 34.2003 8.43625 34.4389 8.43687 34.688V34.6927ZM22.4994 40.313C22.2508 40.3126 22.0126 40.2138 21.8368 40.038C21.6611 39.8623 21.5622 39.624 21.5619 39.3755V39.3708C21.5628 39.1856 21.6186 39.0048 21.7221 38.8512C21.8257 38.6977 21.9725 38.5782 22.1438 38.508C22.3152 38.4378 22.5036 38.4199 22.6851 38.4566C22.8667 38.4933 23.0333 38.5829 23.1639 38.7142C23.2946 38.8455 23.3834 39.0126 23.4192 39.1943C23.455 39.376 23.4361 39.5643 23.365 39.7353C23.294 39.9064 23.1738 40.0525 23.0197 40.1553C22.8657 40.2581 22.6846 40.313 22.4994 40.313ZM37.4994 31.8755C37.3139 31.8755 37.1327 31.8205 36.9785 31.7175C36.8244 31.6145 36.7042 31.4681 36.6332 31.2967C36.5623 31.1254 36.5437 30.9369 36.5799 30.7551C36.6161 30.5732 36.7053 30.4062 36.8365 30.2751C36.9676 30.144 37.1346 30.0547 37.3165 30.0185C37.4983 29.9823 37.6868 30.0009 37.8581 30.0718C38.0294 30.1428 38.1759 30.263 38.2789 30.4171C38.3819 30.5713 38.4369 30.7526 38.4369 30.938C38.4365 31.1865 38.3376 31.4248 38.1619 31.6005C37.9862 31.7763 37.7479 31.8751 37.4994 31.8755ZM52.4994 38.438C52.3139 38.438 52.1327 38.383 51.9785 38.28C51.8244 38.177 51.7042 38.0306 51.6332 37.8592C51.5623 37.6879 51.5437 37.4994 51.5799 37.3176C51.6161 37.1357 51.7053 36.9687 51.8365 36.8376C51.9676 36.7065 52.1346 36.6172 52.3165 36.581C52.4983 36.5448 52.6868 36.5634 52.8581 36.6343C53.0294 36.7053 53.1759 36.8255 53.2789 36.9796C53.3819 37.1338 53.4369 37.3151 53.4369 37.5005C53.4365 37.749 53.3376 37.9873 53.1619 38.163C52.9862 38.3388 52.7479 38.4376 52.4994 38.438Z" fill="#268BBF"/>
<path d="M45 40.313H38.4375C38.1889 40.313 37.9504 40.4118 37.7746 40.5876C37.5988 40.7634 37.5 41.0018 37.5 41.2505C37.5 41.4991 37.5988 41.7376 37.7746 41.9134C37.9504 42.0892 38.1889 42.188 38.4375 42.188H45C45.2486 42.188 45.4871 42.0892 45.6629 41.9134C45.8387 41.7376 45.9375 41.4991 45.9375 41.2505C45.9375 41.0018 45.8387 40.7634 45.6629 40.5876C45.4871 40.4118 45.2486 40.313 45 40.313Z" fill="#268BBF"/>
<path d="M45 37.5005H42.1875C41.9389 37.5005 41.7004 37.5993 41.5246 37.7751C41.3488 37.9509 41.25 38.1893 41.25 38.438C41.25 38.6866 41.3488 38.9251 41.5246 39.1009C41.7004 39.2767 41.9389 39.3755 42.1875 39.3755H45C45.2486 39.3755 45.4871 39.2767 45.6629 39.1009C45.8387 38.9251 45.9375 38.6866 45.9375 38.438C45.9375 38.1893 45.8387 37.9509 45.6629 37.7751C45.4871 37.5993 45.2486 37.5005 45 37.5005Z" fill="#268BBF"/>
<path d="M5.625 29.063H15.9375C16.1861 29.063 16.4246 28.9642 16.6004 28.7884C16.7762 28.6126 16.875 28.3741 16.875 28.1255C16.875 27.8768 16.7762 27.6384 16.6004 27.4626C16.4246 27.2868 16.1861 27.188 15.9375 27.188H5.625C5.37636 27.188 5.1379 27.2868 4.96209 27.4626C4.78627 27.6384 4.6875 27.8768 4.6875 28.1255C4.6875 28.3741 4.78627 28.6126 4.96209 28.7884C5.1379 28.9642 5.37636 29.063 5.625 29.063Z" fill="#268BBF"/>
<path d="M18.75 29.063H19.6875C19.9361 29.063 20.1746 28.9642 20.3504 28.7884C20.5262 28.6126 20.625 28.3741 20.625 28.1255C20.625 27.8768 20.5262 27.6384 20.3504 27.4626C20.1746 27.2868 19.9361 27.188 19.6875 27.188H18.75C18.5014 27.188 18.2629 27.2868 18.0871 27.4626C17.9113 27.6384 17.8125 27.8768 17.8125 28.1255C17.8125 28.3741 17.9113 28.6126 18.0871 28.7884C18.2629 28.9642 18.5014 29.063 18.75 29.063Z" fill="#268BBF"/>
</svg>
