<svg width="61" height="61" viewBox="0 0 61 61" fill="none" xmlns="http://www.w3.org/2000/svg">
<g clip-path="url(#clip0_674_4441)">
<path d="M23.558 5.36719C21.2161 5.36719 19.1245 6.71048 18.1129 8.7868C18.0367 8.78385 17.9624 8.77558 17.8856 8.77558C17.8673 8.77558 17.852 8.78503 17.8337 8.78562C14.4188 8.68056 11.5965 11.4775 11.5965 14.9195V14.9266C11.1125 14.8027 10.6132 14.7401 10.1056 14.7401C6.75509 14.7401 4.02956 17.4958 4.02956 20.8829C4.02956 21.6891 4.18714 22.4829 4.4905 23.223C2.10964 24.9222 0.666016 27.6973 0.666016 30.6814C0.666016 33.6654 2.10964 36.4405 4.4905 38.1397C4.18714 38.8804 4.02956 39.6736 4.02956 40.4799C4.02956 43.867 6.75509 46.6232 10.1056 46.6232C10.6132 46.6232 11.1125 46.5601 11.5965 46.4367V46.4432C11.5965 49.8847 14.4194 52.6781 17.8331 52.5766C17.8514 52.5777 17.8668 52.5872 17.8856 52.5872C17.9624 52.5872 18.0367 52.5783 18.1129 52.576C19.1251 54.6523 21.2161 55.995 23.558 55.995C26.9086 55.995 29.6347 53.2393 29.6347 49.8516V11.5112C29.6347 8.12341 26.9086 5.36719 23.558 5.36719ZM23.558 53.9328C22.1935 53.9328 20.9641 53.2317 20.2329 52.1197C22.4591 51.1955 24.029 49.0005 24.029 46.4438C24.029 45.8743 23.5675 45.4127 22.9973 45.4127C22.4278 45.4127 21.9663 45.8743 21.9663 46.4438C21.9663 48.3749 20.6147 49.9885 18.8105 50.4093C18.794 50.4088 18.7792 50.4017 18.7627 50.4017C18.6877 50.4017 18.6122 50.4099 18.5366 50.4265C15.9728 51.0007 13.6592 48.9817 13.6592 46.4438C13.6592 45.9793 13.7407 45.5142 13.9012 45.061C14.0511 44.6402 13.9118 44.171 13.5577 43.8983C13.203 43.625 12.7137 43.6114 12.3454 43.8652C11.6832 44.3203 10.9089 44.5605 10.1051 44.5605C7.8924 44.5605 6.09171 42.7297 6.09171 40.4799C6.09171 39.7161 6.30536 38.9672 6.70965 38.3144C6.85779 38.0748 6.90205 37.7856 6.83123 37.5129C6.76099 37.2408 6.58216 37.0083 6.33664 36.8714C4.11159 35.6272 2.72876 33.2558 2.72876 30.682C2.72876 28.1081 4.11159 25.7367 6.33664 24.492C6.58216 24.355 6.76099 24.1231 6.83123 23.8504C6.90205 23.5783 6.85779 23.2886 6.70965 23.0495C6.30595 22.3968 6.09171 21.6478 6.09171 20.8841C6.09171 18.6343 7.8924 16.8035 10.1051 16.8035C10.9083 16.8035 11.6832 17.0437 12.3454 17.4987C12.7143 17.7519 13.2036 17.7372 13.5577 17.4657C13.9118 17.193 14.0511 16.7238 13.9012 16.303C13.7407 15.8497 13.6592 15.384 13.6592 14.9201C13.6592 12.3823 15.9746 10.3603 18.5366 10.9375C18.6193 10.9558 18.6995 10.9469 18.781 10.9452C20.6006 11.3553 21.9663 12.9784 21.9663 14.9201C21.9663 15.4897 22.4278 15.9512 22.9973 15.9512C23.5675 15.9512 24.029 15.4897 24.029 14.9201C24.029 12.3634 22.4585 10.1685 20.2329 9.2442C20.9641 8.13227 22.1935 7.43111 23.558 7.43111C25.7713 7.43111 27.5714 9.26191 27.5714 11.5117V27.5209H26.0552C24.5779 27.5209 23.3757 26.4544 23.3757 25.1441C23.3757 24.5746 22.9135 24.1125 22.344 24.1125C21.7745 24.1125 21.3129 24.5746 21.3129 25.1441C21.3129 27.5923 23.44 29.5836 26.0552 29.5836H27.5714V36.8932H25.8138C24.981 36.8932 24.3035 36.3083 24.3035 35.5895C24.3035 32.5494 21.6523 30.077 18.3932 30.077H17.7068C17.1367 30.077 16.6751 30.5386 16.6751 31.1081C16.6751 31.6776 17.1367 32.1398 17.7068 32.1398H18.3932C20.515 32.1398 22.2407 33.6873 22.2407 35.5895C22.2407 37.4456 23.8437 38.956 25.8138 38.956H27.5714V49.8528C27.5714 52.102 25.7713 53.9328 23.558 53.9328Z" fill="#268BBF"/>
<path d="M14.658 25.5696C14.658 23.3564 12.8579 21.5557 10.6447 21.5557H10.2186C9.64903 21.5557 9.1875 22.0178 9.1875 22.5873C9.1875 23.1569 9.64903 23.619 10.2186 23.619H10.6447C11.7206 23.619 12.5953 24.4943 12.5953 25.5696C12.5953 26.6455 11.7206 27.5202 10.6447 27.5202C10.0752 27.5202 9.61362 27.9823 9.61362 28.5519C9.61362 29.1214 10.0752 29.583 10.6447 29.583C12.8579 29.583 14.658 27.7828 14.658 25.5696Z" fill="#268BBF"/>
<path d="M15.3308 33.27C12.4128 33.27 10.0391 35.6432 10.0391 38.5611V38.776C10.0391 39.3455 10.5012 39.8076 11.0707 39.8076C11.6403 39.8076 12.1024 39.3455 12.1024 38.776V38.5611C12.1024 36.7811 13.5507 35.3328 15.3308 35.3328C15.9003 35.3328 16.3624 34.8706 16.3624 34.3011C16.3624 33.7316 15.9003 33.27 15.3308 33.27Z" fill="#268BBF"/>
<path d="M17.8865 22.7673C19.8649 22.7673 21.4738 21.1579 21.4738 19.1795C21.4738 18.61 21.0122 18.1484 20.4427 18.1484C19.8732 18.1484 19.411 18.61 19.411 19.1795C19.411 20.0205 18.7276 20.704 17.8865 20.704C17.317 20.704 16.8555 21.1661 16.8555 21.7357C16.8555 22.3052 17.317 22.7673 17.8865 22.7673Z" fill="#268BBF"/>
<path d="M21.7211 42.0043C20.1753 42.0043 18.9182 40.7472 18.9182 39.2015C18.9182 38.6319 18.4561 38.1704 17.8865 38.1704C17.317 38.1704 16.8555 38.6319 16.8555 39.2015C16.8555 41.8845 19.038 44.0671 21.7211 44.0671C22.2906 44.0671 22.7521 43.6055 22.7521 43.036C22.7521 42.4665 22.2906 42.0043 21.7211 42.0043Z" fill="#268BBF"/>
<path d="M33.7602 14.6938C33.1906 14.6938 32.7285 15.156 32.7285 15.7255V26.0398C32.7285 26.3532 32.8713 26.6495 33.1163 26.8454L35.7645 28.9643C35.7179 29.1637 35.6878 29.3697 35.6878 29.5828C35.6878 31.0913 36.9154 32.3183 38.4233 32.3183C39.9319 32.3183 41.1583 31.0913 41.1583 29.5828C41.1583 28.0748 39.9319 26.8472 38.4233 26.8472C37.8839 26.8472 37.3846 27.0095 36.9602 27.2792L34.7918 25.5441V15.7255C34.7918 15.156 34.3297 14.6938 33.7602 14.6938ZM39.0956 29.5828C39.0956 29.954 38.794 30.255 38.4233 30.255C38.0521 30.255 37.7505 29.9534 37.7505 29.5828C37.7505 29.2121 38.0521 28.91 38.4233 28.91C38.794 28.91 39.0956 29.2121 39.0956 29.5828Z" fill="#268BBF"/>
<path d="M56.4536 34.3364H52.1286C52.0967 34.3364 52.0702 34.3518 52.0389 34.3547C51.6812 34.3305 51.3212 34.4763 51.1093 34.7962L50.8113 35.2436C50.6342 35.2076 50.4513 35.1881 50.2642 35.1881C48.7556 35.1881 47.5286 36.4157 47.5286 37.9237C47.5286 39.4322 48.7556 40.6592 50.2642 40.6592C51.7721 40.6592 52.9991 39.4322 52.9991 37.9237C52.9991 37.36 52.8274 36.8353 52.5335 36.3992H55.4219V41.5121H47.3421L43.4716 37.9437C43.5648 37.6681 43.6268 37.3783 43.6268 37.072C43.6268 35.5634 42.3998 34.337 40.8918 34.337C39.3833 34.337 38.1562 35.5634 38.1562 37.072C38.1562 38.58 39.3833 39.8076 40.8918 39.8076C41.3356 39.8076 41.7488 39.6913 42.1194 39.503L46.2402 43.3021C46.4308 43.4774 46.6805 43.5748 46.9396 43.5748H56.4536C57.0231 43.5748 57.4847 43.1133 57.4847 42.5437V35.3681C57.4847 34.7986 57.0231 34.3364 56.4536 34.3364ZM50.2636 38.5959C49.8929 38.5959 49.5913 38.2943 49.5913 37.9237C49.5913 37.553 49.8929 37.2514 50.2636 37.2514C50.6342 37.2514 50.9358 37.553 50.9358 37.9237C50.9364 38.2943 50.6348 38.5959 50.2636 38.5959ZM40.219 37.0714C40.219 36.7008 40.5206 36.3992 40.8918 36.3992C41.2625 36.3992 41.5641 36.7014 41.5641 37.0714C41.5641 37.4426 41.2619 37.7442 40.8918 37.7442C40.5206 37.7448 40.219 37.4432 40.219 37.0714Z" fill="#268BBF"/>
<path d="M57.9318 27.5203C57.8439 27.5203 57.7607 27.538 57.6745 27.5462L56.4067 24.9087V17.7885C56.4067 17.219 55.9452 16.7574 55.3757 16.7574H50.2374C50.2439 16.7114 50.2646 16.6707 50.2646 16.6229V11.5112C50.2646 10.9416 49.803 10.4795 49.2329 10.4795H44.0757V7.4742C44.0757 6.90465 43.6142 6.44253 43.0447 6.44253H36.34C36.3075 6.44253 36.2804 6.45787 36.2491 6.46082C35.7492 5.80098 34.9654 5.36719 34.0754 5.36719C32.5669 5.36719 31.3398 6.5948 31.3398 8.10335C31.3398 9.6113 32.5669 10.8383 34.0754 10.8383C35.4459 10.8383 36.5737 9.822 36.7697 8.50527H42.013V11.7484C41.2351 12.2312 40.7122 13.0864 40.7122 14.0667C40.7122 15.5753 41.9392 16.8023 43.4472 16.8023C44.9557 16.8023 46.1827 15.5753 46.1827 14.0667C46.1827 13.5025 46.011 12.9784 45.7171 12.5422H48.2018V16.6229C48.2018 16.6707 48.2225 16.7114 48.229 16.7574H46.8556C46.5947 16.7574 46.3433 16.856 46.1521 17.0336L42.5282 20.4096C42.0702 20.0643 41.5072 19.8518 40.891 19.8518C39.3825 19.8518 38.1555 21.0789 38.1555 22.5874C38.1555 24.0954 39.3831 25.323 40.891 25.323C42.3996 25.323 43.626 24.0954 43.626 22.5874C43.626 22.4682 43.6059 22.3543 43.5912 22.2392L47.2616 18.8202H54.344V23.9773H51.3594C51.0991 23.9773 50.8488 24.0753 50.6576 24.2524L48.7472 26.0235C48.4261 25.8913 48.0761 25.8158 47.7078 25.8158C46.1993 25.8158 44.9722 27.0434 44.9722 28.5514C44.9722 30.0599 46.1993 31.2863 47.7078 31.2863C49.2158 31.2863 50.4428 30.0599 50.4428 28.5514C50.4428 28.1683 50.3619 27.8036 50.2191 27.4719L51.7637 26.0395H54.6621L55.8472 28.5053C55.4471 28.981 55.1962 29.5866 55.1962 30.2553C55.1962 31.7638 56.4239 32.9908 57.9318 32.9908C59.4404 32.9908 60.6674 31.7632 60.6674 30.2553C60.6674 28.7467 59.4404 27.5203 57.9318 27.5203ZM34.0754 8.77558C33.7042 8.77558 33.4026 8.47399 33.4026 8.10335C33.4026 7.73211 33.7042 7.43052 34.0754 7.43052C34.4461 7.43052 34.7476 7.73211 34.7476 8.10335C34.7476 8.47399 34.4461 8.77558 34.0754 8.77558ZM43.4472 14.7401C43.0765 14.7401 42.7749 14.4385 42.7749 14.0673C42.7749 13.6967 43.0765 13.3951 43.4472 13.3951C43.8184 13.3951 44.12 13.6967 44.12 14.0673C44.12 14.4385 43.8184 14.7401 43.4472 14.7401ZM40.8916 23.2602C40.5204 23.2602 40.2188 22.9586 40.2188 22.5874C40.2188 22.2168 40.5204 21.9152 40.8916 21.9152C41.2623 21.9152 41.5638 22.2168 41.5638 22.5874C41.5638 22.9586 41.2623 23.2602 40.8916 23.2602ZM47.7078 29.2242C47.3366 29.2242 47.035 28.9226 47.035 28.5519C47.035 28.1807 47.3366 27.8791 47.7078 27.8791C48.0785 27.8791 48.38 28.1807 48.38 28.5519C48.38 28.9226 48.0785 29.2242 47.7078 29.2242ZM57.9318 30.9287C57.5606 30.9287 57.259 30.6265 57.259 30.2558C57.259 29.8846 57.5606 29.5836 57.9318 29.5836C58.3025 29.5836 58.6041 29.8852 58.6041 30.2558C58.6046 30.6265 58.3025 30.9287 57.9318 30.9287Z" fill="#268BBF"/>
<path d="M50.7119 44.0233C49.2034 44.0233 47.9764 45.2503 47.9764 46.7582C47.9764 47.5662 48.3352 48.2863 48.8935 48.7873L48.5347 49.6656L44.1235 49.7635C44.1064 49.7635 44.0928 49.773 44.0757 49.7742V48.2473C45.2809 47.9617 46.1833 46.8828 46.1833 45.592C46.1833 44.0835 44.9557 42.8564 43.4478 42.8564C41.9392 42.8564 40.7122 44.0835 40.7122 45.592C40.7122 46.5729 41.2357 47.4281 42.013 47.9109V51.8263H36.3943C35.9115 51.0484 35.0563 50.5249 34.0754 50.5249C32.5669 50.5249 31.3398 51.7519 31.3398 53.2599C31.3398 54.7684 32.5669 55.9954 34.0754 55.9954C35.3662 55.9954 36.4445 55.0936 36.7307 53.889H43.0447C43.6142 53.889 44.0757 53.4269 44.0757 52.8574V51.8121C44.0999 51.8139 44.1206 51.8257 44.1454 51.8257H44.169L49.2559 51.713C49.6667 51.7035 50.0326 51.4521 50.1884 51.072L50.8388 49.4814C52.2872 49.413 53.4469 48.2231 53.4469 46.7582C53.4469 45.2503 52.2205 44.0233 50.7119 44.0233ZM34.0754 53.9327C33.7042 53.9327 33.4026 53.6311 33.4026 53.2599C33.4026 52.8892 33.7042 52.5876 34.0754 52.5876C34.4461 52.5876 34.7476 52.8898 34.7476 53.2599C34.7476 53.6311 34.4461 53.9327 34.0754 53.9327ZM43.4472 44.9192C43.8184 44.9192 44.12 45.2208 44.12 45.5914C44.12 45.9627 43.8184 46.2643 43.4472 46.2643C43.0765 46.2643 42.7749 45.9627 42.7749 45.5914C42.7749 45.2208 43.0765 44.9192 43.4472 44.9192ZM50.7804 47.4175C50.7243 47.3803 50.6783 47.3331 50.6139 47.3065C50.4906 47.2564 50.3637 47.2369 50.238 47.2351C50.1152 47.1135 50.0391 46.9447 50.0391 46.7582C50.0391 46.3876 50.3407 46.086 50.7119 46.086C51.0826 46.086 51.3842 46.3876 51.3842 46.7582C51.3842 47.1053 51.1174 47.3815 50.7804 47.4175Z" fill="#268BBF"/>
<path d="M31.6973 35.9421V46.6695C31.6973 47.2391 32.1588 47.7006 32.7283 47.7006H34.3968C34.8684 48.5263 35.7472 49.0911 36.7641 49.0911C38.2727 49.0911 39.4991 47.8635 39.4991 46.3556C39.4991 44.847 38.2721 43.62 36.7641 43.62C35.5052 43.62 34.4535 44.4793 34.136 45.6385H33.76V36.2939L35.6091 33.89C35.9567 33.4385 35.8717 32.7904 35.4208 32.4434C34.9687 32.0958 34.3207 32.1796 33.9743 32.6317L31.9115 35.3135C31.7722 35.4935 31.6973 35.7149 31.6973 35.9421ZM36.7641 45.6827C37.1348 45.6827 37.4364 45.9843 37.4364 46.355C37.4364 46.7262 37.1348 47.0278 36.7641 47.0278C36.3929 47.0278 36.0913 46.7262 36.0913 46.355C36.0913 45.9843 36.3929 45.6827 36.7641 45.6827Z" fill="#268BBF"/>
</g>
<defs>
<clipPath id="clip0_674_4441">
<rect width="60" height="60" fill="white" transform="translate(0.667969 0.666992)"/>
</clipPath>
</defs>
</svg>
