<svg width="60" height="60" viewBox="0 0 60 60" fill="none" xmlns="http://www.w3.org/2000/svg">
<path d="M56.25 49.6874H55.3125V20.6249C55.311 19.3822 54.8167 18.1908 53.9379 17.312C53.0592 16.4333 51.8677 15.9389 50.625 15.9374H45.9375V9.37495C45.9376 9.20073 45.8891 9.02994 45.7975 8.88173C45.706 8.73352 45.5749 8.61376 45.4191 8.53589L30.4191 1.03589C30.2889 0.970863 30.1455 0.937012 30 0.937012C29.8545 0.937012 29.7111 0.970863 29.5809 1.03589L14.5809 8.53589C14.4251 8.61376 14.294 8.73352 14.2025 8.88173C14.1109 9.02994 14.0624 9.20073 14.0625 9.37495V15.9374H9.375C8.13225 15.9389 6.94084 16.4333 6.06208 17.312C5.18333 18.1908 4.68899 19.3822 4.6875 20.6249V49.6874H3.75C3.00408 49.6874 2.28871 49.9838 1.76126 50.5112C1.23382 51.0387 0.9375 51.754 0.9375 52.4999V53.4374C0.938989 54.9288 1.5321 56.3587 2.58667 57.4133C3.64124 58.4678 5.07111 59.061 6.5625 59.0624H53.4375C54.9289 59.061 56.3588 58.4678 57.4133 57.4133C58.4679 56.3587 59.061 54.9288 59.0625 53.4374V52.4999C59.0625 51.754 58.7662 51.0387 58.2387 50.5112C57.7113 49.9838 56.9959 49.6874 56.25 49.6874ZM50.625 17.8124C51.3709 17.8124 52.0863 18.1088 52.6137 18.6362C53.1412 19.1637 53.4375 19.879 53.4375 20.6249V49.6874H51.5625V20.6249C51.5625 20.3763 51.4637 20.1378 51.2879 19.962C51.1121 19.7862 50.8736 19.6874 50.625 19.6874H45.9375V17.8124H50.625ZM10.3125 49.6874V21.5624H14.0625V24.3749C14.0624 24.5492 14.1109 24.72 14.2025 24.8682C14.294 25.0164 14.4251 25.1361 14.5809 25.214L29.5809 32.714C29.7111 32.779 29.8545 32.8129 30 32.8129C30.1455 32.8129 30.2889 32.779 30.4191 32.714L45.4191 25.214C45.5749 25.1361 45.706 25.0164 45.7975 24.8682C45.8891 24.72 45.9376 24.5492 45.9375 24.3749V21.5624H49.6875V49.6874H10.3125ZM35.3616 51.5624L34.8928 53.4374H25.1072L24.6384 51.5624H35.3616ZM15.9375 10.8918L29.0625 17.4543V30.3581L15.9375 23.7956V10.8918ZM36.5625 14.6418L38.4375 13.7043V16.2956L36.5625 17.2331V14.6418ZM35.6531 13.0003L23.5594 6.14526L25.6388 5.10557L37.425 12.1162L35.6531 13.0003ZM35.1319 19.5478C35.2678 19.6318 35.423 19.6797 35.5826 19.6869C35.7423 19.6942 35.9011 19.6605 36.0441 19.589L39.7941 17.714C39.9499 17.6361 40.081 17.5164 40.1725 17.3682C40.2641 17.22 40.3126 17.0492 40.3125 16.8749V12.7668L44.0625 10.8918V23.7956L30.9375 30.3581V17.4543L34.6875 15.5793V18.7499C34.6874 18.9098 34.7282 19.067 34.806 19.2066C34.8838 19.3463 34.9959 19.4637 35.1319 19.5478ZM30 2.92307L42.9038 9.37495L39.4144 11.1196L27.6272 4.10901L30 2.92307ZM21.5344 7.15589L33.6281 14.0109L30 15.8268L17.0963 9.37495L21.5344 7.15589ZM6.5625 20.6249C6.5625 19.879 6.85882 19.1637 7.38626 18.6362C7.91371 18.1088 8.62908 17.8124 9.375 17.8124H14.0625V19.6874H9.375C9.12636 19.6874 8.8879 19.7862 8.71209 19.962C8.53627 20.1378 8.4375 20.3763 8.4375 20.6249V49.6874H6.5625V20.6249ZM57.1875 53.4374C57.1875 54.432 56.7924 55.3858 56.0891 56.0891C55.3859 56.7924 54.4321 57.1874 53.4375 57.1874H6.5625C5.56794 57.1874 4.61411 56.7924 3.91085 56.0891C3.20759 55.3858 2.8125 54.432 2.8125 53.4374V52.4999C2.8125 52.2513 2.91127 52.0129 3.08709 51.837C3.2629 51.6612 3.50136 51.5624 3.75 51.5624H22.7053L23.4656 54.6028C23.5164 54.8055 23.6335 54.9854 23.7982 55.114C23.963 55.2426 24.166 55.3124 24.375 55.3124H35.625C35.834 55.3124 36.037 55.2426 36.2018 55.114C36.3665 54.9854 36.4836 54.8055 36.5344 54.6028L37.2947 51.5624H56.25C56.4986 51.5624 56.7371 51.6612 56.9129 51.837C57.0887 52.0129 57.1875 52.2513 57.1875 52.4999V53.4374Z" fill="#268BBF"/>
</svg>
