<svg width="60" height="60" viewBox="0 0 60 60" fill="none" xmlns="http://www.w3.org/2000/svg">
<path d="M11.25 11.25C11.25 9.26088 12.0402 7.35322 13.4467 5.9467C14.8532 4.54018 16.7609 3.75 18.75 3.75H41.25C43.2391 3.75 45.1468 4.54018 46.5533 5.9467C47.9598 7.35322 48.75 9.26088 48.75 11.25V22.5H46.875C46.215 22.5025 45.59 22.6087 45 22.8188V11.25C45 10.2554 44.6049 9.30161 43.9016 8.59835C43.1984 7.89509 42.2446 7.5 41.25 7.5H18.75C17.7554 7.5 16.8016 7.89509 16.0984 8.59835C15.3951 9.30161 15 10.2554 15 11.25V22.8188C14.3976 22.6068 13.7636 22.4991 13.125 22.5H11.25V11.25ZM45 42.4125C46.2838 41.9182 47.5361 41.3459 48.75 40.6987V48.75C48.75 50.7391 47.9598 52.6468 46.5533 54.0533C45.1468 55.4598 43.2391 56.25 41.25 56.25H18.75C16.7609 56.25 14.8532 55.4598 13.4467 54.0533C12.0402 52.6468 11.25 50.7391 11.25 48.75V40.6987C12.3975 41.3137 13.6462 41.895 15 42.4125V48.75C15 49.7446 15.3951 50.6984 16.0984 51.4016C16.8016 52.1049 17.7554 52.5 18.75 52.5H41.25C42.2446 52.5 43.1984 52.1049 43.9016 51.4016C44.6049 50.6984 45 49.7446 45 48.75V42.4125ZM5.625 26.25C5.12772 26.25 4.65081 26.4475 4.29917 26.7992C3.94754 27.1508 3.75 27.6277 3.75 28.125V35.625C3.75 36.1223 3.94754 36.5992 4.29917 36.9508C4.65081 37.3025 5.12772 37.5 5.625 37.5C6.12228 37.5 6.59919 37.3025 6.95083 36.9508C7.30246 36.5992 7.5 36.1223 7.5 35.625V33.4312C8.18563 34.0757 8.90542 34.6828 9.65625 35.25C13.7325 38.3062 20.22 41.25 30 41.25C39.78 41.25 46.2713 38.3062 50.3438 35.25C51.1588 34.635 51.8775 34.0287 52.5 33.4312V35.625C52.5 36.1223 52.6975 36.5992 53.0492 36.9508C53.4008 37.3025 53.8777 37.5 54.375 37.5C54.8723 37.5 55.3492 37.3025 55.7008 36.9508C56.0525 36.5992 56.25 36.1223 56.25 35.625V28.125C56.25 27.6277 56.0525 27.1508 55.7008 26.7992C55.3492 26.4475 54.8723 26.25 54.375 26.25H46.875C46.3777 26.25 45.9008 26.4475 45.5492 26.7992C45.1975 27.1508 45 27.6277 45 28.125C45 28.6223 45.1975 29.0992 45.5492 29.4508C45.9008 29.8025 46.3777 30 46.875 30H50.6287C49.8481 30.8195 49.0001 31.5722 48.0938 32.25C44.67 34.8188 38.97 37.5 30 37.5C21.03 37.5 15.33 34.8188 11.9062 32.25C10.9999 31.5722 10.1519 30.8195 9.37125 30H13.125C13.6223 30 14.0992 29.8025 14.4508 29.4508C14.8025 29.0992 15 28.6223 15 28.125C15 27.6277 14.8025 27.1508 14.4508 26.7992C14.0992 26.4475 13.6223 26.25 13.125 26.25H5.625ZM20.625 16.875C20.625 16.3777 20.8225 15.9008 21.1742 15.5492C21.5258 15.1975 22.0027 15 22.5 15H37.5C37.9973 15 38.4742 15.1975 38.8258 15.5492C39.1775 15.9008 39.375 16.3777 39.375 16.875C39.375 17.3723 39.1775 17.8492 38.8258 18.2008C38.4742 18.5525 37.9973 18.75 37.5 18.75H22.5C22.0027 18.75 21.5258 18.5525 21.1742 18.2008C20.8225 17.8492 20.625 17.3723 20.625 16.875ZM22.5 24.375C22.0027 24.375 21.5258 24.5725 21.1742 24.9242C20.8225 25.2758 20.625 25.7527 20.625 26.25C20.625 26.7473 20.8225 27.2242 21.1742 27.5758C21.5258 27.9275 22.0027 28.125 22.5 28.125H31.875C32.3723 28.125 32.8492 27.9275 33.2008 27.5758C33.5525 27.2242 33.75 26.7473 33.75 26.25C33.75 25.7527 33.5525 25.2758 33.2008 24.9242C32.8492 24.5725 32.3723 24.375 31.875 24.375H22.5Z" fill="#268BBF"/>
</svg>
