<svg width="60" height="60" viewBox="0 0 60 60" fill="none" xmlns="http://www.w3.org/2000/svg">
<path d="M30.0006 11.25C30.0006 9.5924 29.3421 8.00269 28.17 6.83058C26.9979 5.65848 25.4082 5 23.7506 5C22.093 5 20.5033 5.65848 19.3312 6.83058C18.1591 8.00269 17.5006 9.5924 17.5006 11.25C16.1706 11.2496 14.8644 11.6029 13.7159 12.2737C12.5674 12.9445 11.618 13.9086 10.9649 15.0672C10.3118 16.2258 9.97858 17.5372 9.99935 18.8671C10.0201 20.1969 10.3941 21.4973 11.0831 22.635C9.37193 22.9656 7.82926 23.8817 6.71995 25.2258C5.61065 26.57 5.00391 28.2584 5.00391 30.0012C5.00391 31.744 5.61065 33.4325 6.71995 34.7767C7.82926 36.1208 9.37193 37.0369 11.0831 37.3675C10.3948 38.5051 10.0213 39.8052 10.0008 41.1347C9.98039 42.4642 10.3138 43.7752 10.9668 44.9334C11.6198 46.0917 12.569 47.0555 13.7171 47.7261C14.8652 48.3967 16.1709 48.7501 17.5006 48.75C17.5009 50.4076 18.1597 51.9972 19.332 53.1691C20.5044 54.3409 22.0942 54.9991 23.7518 54.9988C25.4094 54.9984 26.999 54.3396 28.1709 53.1673C29.3427 51.9949 30.0009 50.4051 30.0006 48.7475" stroke="#268BBF" stroke-width="3.75" stroke-linecap="round" stroke-linejoin="round"/>
<path d="M30 48.75C30 50.4076 30.6585 51.9973 31.8306 53.1694C33.0027 54.3415 34.5924 55 36.25 55C37.9076 55 39.4973 54.3415 40.6694 53.1694C41.8415 51.9973 42.5 50.4076 42.5 48.75C43.8296 48.7501 45.1354 48.3968 46.2835 47.7261C47.4316 47.0555 48.3808 46.0917 49.0338 44.9335C49.6868 43.7752 50.0202 42.4642 49.9997 41.1347C49.9793 39.8053 49.6058 38.5051 48.9175 37.3675C50.6286 37.0369 52.1713 36.1209 53.2806 34.7767C54.3899 33.4325 54.9967 31.7441 54.9967 30.0013C54.9967 28.2585 54.3899 26.57 53.2806 25.2259C52.1713 23.8817 50.6286 22.9657 48.9175 22.635C49.6064 21.4974 49.9805 20.197 50.0012 18.8671C50.022 17.5373 49.6888 16.2258 49.0357 15.0672C48.3826 13.9086 47.4331 12.9445 46.2847 12.2737C45.1362 11.603 43.83 11.2496 42.5 11.25C42.5002 10.4293 42.3387 9.61651 42.0247 8.85816C41.7108 8.09982 41.2505 7.41073 40.6703 6.83025C40.09 6.24976 39.4011 5.78925 38.6429 5.47501C37.8847 5.16077 37.072 4.99894 36.2512 4.99878C34.5936 4.99845 33.0038 5.65661 31.8315 6.82848C30.6591 8.00035 30.0003 9.58993 30 11.2475" stroke="#268BBF" stroke-width="3.75" stroke-linecap="round" stroke-linejoin="round"/>
<path d="M26.2175 17.5025V22.45M17.5 26.2525H22.63M37.5575 26.2525H42.6875M37.5575 33.6875H42.6875M17.5 33.6875H22.63M26.2175 37.55V42.5M33.78 37.55V42.5M33.7575 17.5V22.45M25.1325 37.4225H35.06C35.723 37.4225 36.3589 37.1591 36.8278 36.6903C37.2966 36.2214 37.56 35.5855 37.56 34.9225V24.95C37.56 24.287 37.2966 23.6511 36.8278 23.1822C36.3589 22.7134 35.723 22.45 35.06 22.45H25.1325C24.4695 22.45 23.8336 22.7134 23.3647 23.1822C22.8959 23.6511 22.6325 24.287 22.6325 24.95V34.9225C22.6325 35.5855 22.8959 36.2214 23.3647 36.6903C23.8336 37.1591 24.4695 37.4225 25.1325 37.4225Z" stroke="#268BBF" stroke-width="3.75" stroke-linecap="round" stroke-linejoin="round"/>
</svg>
