<svg width="60" height="60" viewBox="0 0 60 60" fill="none" xmlns="http://www.w3.org/2000/svg">
<g clip-path="url(#clip0_657_1158)">
<path d="M29.9997 49.2857V57.8571M40.714 45V53.5714M19.2854 45V53.5714M53.5711 2.14282H6.42829C5.29165 2.14282 4.20156 2.59435 3.39783 3.39808C2.59411 4.20181 2.14258 5.29189 2.14258 6.42854V32.1428C2.14258 33.2795 2.59411 34.3696 3.39783 35.1733C4.20156 35.977 5.29165 36.4285 6.42829 36.4285H53.5711C54.7078 36.4285 55.7979 35.977 56.6016 35.1733C57.4053 34.3696 57.8569 33.2795 57.8569 32.1428V6.42854C57.8569 5.29189 57.4053 4.20181 56.6016 3.39808C55.7979 2.59435 54.7078 2.14282 53.5711 2.14282Z" stroke="#268BBF" stroke-width="4.28571" stroke-linecap="round" stroke-linejoin="round"/>
<path d="M29.9989 26.7856C30.9838 26.7856 31.9591 26.5917 32.869 26.2147C33.779 25.8378 34.6057 25.2854 35.3022 24.5889C35.9986 23.8925 36.5511 23.0657 36.928 22.1558C37.3049 21.2458 37.4989 20.2706 37.4989 19.2856C37.4989 18.3007 37.3049 17.3255 36.928 16.4155C36.5511 15.5056 35.9986 14.6788 35.3022 13.9823C34.6057 13.2859 33.779 12.7335 32.869 12.3565C31.9591 11.9796 30.9838 11.7856 29.9989 11.7856C28.0098 11.7856 26.1021 12.5758 24.6956 13.9823C23.2891 15.3889 22.4989 17.2965 22.4989 19.2856C22.4989 21.2748 23.2891 23.1824 24.6956 24.5889C26.1021 25.9955 28.0098 26.7856 29.9989 26.7856ZM11.8917 20.3571C11.6076 20.3571 11.3351 20.2442 11.1341 20.0433C10.9332 19.8423 10.8203 19.5698 10.8203 19.2856C10.8203 19.0015 10.9332 18.729 11.1341 18.528C11.3351 18.3271 11.6076 18.2142 11.8917 18.2142M11.8917 20.3571C12.1759 20.3571 12.4484 20.2442 12.6494 20.0433C12.8503 19.8423 12.9632 19.5698 12.9632 19.2856C12.9632 19.0015 12.8503 18.729 12.6494 18.528C12.4484 18.3271 12.1759 18.2142 11.8917 18.2142M48.106 20.3571C47.8219 20.3571 47.5493 20.2442 47.3484 20.0433C47.1475 19.8423 47.0346 19.5698 47.0346 19.2856C47.0346 19.0015 47.1475 18.729 47.3484 18.528C47.5493 18.3271 47.8219 18.2142 48.106 18.2142M48.106 20.3571C48.3902 20.3571 48.6627 20.2442 48.8636 20.0433C49.0646 19.8423 49.1775 19.5698 49.1775 19.2856C49.1775 19.0015 49.0646 18.729 48.8636 18.528C48.6627 18.3271 48.3902 18.2142 48.106 18.2142" stroke="#268BBF" stroke-width="4.28571" stroke-linecap="round" stroke-linejoin="round"/>
</g>
<defs>
<clipPath id="clip0_657_1158">
<rect width="60" height="60" fill="white"/>
</clipPath>
</defs>
</svg>
