<svg width="14" height="14" viewBox="0 0 14 14" fill="none" xmlns="http://www.w3.org/2000/svg">
<g clip-path="url(#clip0_960_2984)">
<path d="M2.62695 5.83366C2.62695 3.63391 2.62695 2.53374 3.31062 1.85066C3.99429 1.16758 5.09387 1.16699 7.29362 1.16699H8.16862C10.3684 1.16699 11.4685 1.16699 12.1516 1.85066C12.8347 2.53433 12.8353 3.63391 12.8353 5.83366V8.16699C12.8353 10.3667 12.8353 11.4669 12.1516 12.15C11.468 12.8331 10.3684 12.8337 8.16862 12.8337H7.29362C5.09387 12.8337 3.9937 12.8337 3.31062 12.15C2.62754 11.4663 2.62695 10.3667 2.62695 8.16699V5.83366Z" stroke="black" stroke-opacity="0.6" stroke-width="0.875" stroke-linecap="round" stroke-linejoin="round"/>
<path d="M8.89714 5.83382V7.29215C8.89714 7.52422 8.98932 7.74678 9.15342 7.91087C9.31751 8.07497 9.54007 8.16715 9.77214 8.16715C10.0042 8.16715 10.2268 8.07497 10.3909 7.91087C10.5549 7.74678 10.6471 7.52422 10.6471 7.29215V7.00049C10.6471 6.34345 10.4253 5.70566 10.0175 5.19045C9.6098 4.67525 9.04004 4.3128 8.40058 4.16185C7.76112 4.01089 7.08942 4.08027 6.49432 4.35873C5.89921 4.6372 5.41556 5.10844 5.12172 5.69612C4.82789 6.28379 4.74108 6.95345 4.87537 7.59662C5.00966 8.23979 5.35718 8.81877 5.86162 9.23976C6.36606 9.66076 6.99787 9.8991 7.65469 9.91617C8.3115 9.93324 8.95484 9.72804 9.48047 9.33382M2.6263 3.50049H1.16797M2.6263 7.00049H1.16797M2.6263 10.5005H1.16797M8.89714 7.00049C8.89714 7.30991 8.77422 7.60665 8.55543 7.82545C8.33663 8.04424 8.03989 8.16715 7.73047 8.16715C7.42105 8.16715 7.1243 8.04424 6.90551 7.82545C6.68672 7.60665 6.5638 7.30991 6.5638 7.00049C6.5638 6.69107 6.68672 6.39432 6.90551 6.17553C7.1243 5.95674 7.42105 5.83382 7.73047 5.83382C8.03989 5.83382 8.33663 5.95674 8.55543 6.17553C8.77422 6.39432 8.89714 6.69107 8.89714 7.00049Z" stroke="black" stroke-opacity="0.6" stroke-width="0.875" stroke-linecap="round" stroke-linejoin="round"/>
</g>
<defs>
<clipPath id="clip0_960_2984">
<rect width="14" height="14" fill="white"/>
</clipPath>
</defs>
</svg>
