<svg width="28" height="28" viewBox="0 0 28 28" fill="none" xmlns="http://www.w3.org/2000/svg">
<path d="M26.4551 0H1.54491C0.691679 0 0 0.691679 0 1.54491V26.4551C0 27.3083 0.691679 28 1.54491 28H26.4551C27.3083 28 28 27.3083 28 26.4551V1.54491C28 0.691679 27.3083 0 26.4551 0Z" fill="#3D5A98"/>
<path d="M19.3194 25.6628V14.8201H22.9581L23.5023 10.5946H19.3194V7.89753C19.3194 6.67438 19.6601 5.83923 21.4132 5.83923H23.6513V2.05385C22.5675 1.9411 21.4784 1.8874 20.3888 1.89297C17.1665 1.89297 14.9473 3.85664 14.9473 7.47878V10.5946H11.3086V14.8201H14.9473V25.6628H19.3194Z" fill="white"/>
</svg>
