<svg width="26" height="26" viewBox="0 0 26 26" fill="none" xmlns="http://www.w3.org/2000/svg">
<g clip-path="url(#clip0_960_3074)">
<g clip-path="url(#clip1_960_3074)">
<path d="M24.818 12.9998C24.818 16.1342 23.5729 19.1402 21.3565 21.3565C19.1402 23.5729 16.1342 24.818 12.9998 24.818C9.86545 24.818 6.85944 23.5729 4.64311 21.3565C2.42677 19.1402 1.18164 16.1342 1.18164 12.9998M24.818 12.9998C24.818 9.86545 23.5729 6.85944 21.3565 4.64311C19.1402 2.42677 16.1342 1.18164 12.9998 1.18164C9.86545 1.18164 6.85944 2.42677 4.64311 4.64311C2.42677 6.85944 1.18164 9.86545 1.18164 12.9998M24.818 12.9998H1.18164" stroke="white" stroke-width="1.81818" stroke-linecap="round" stroke-linejoin="round"/>
<path d="M17.546 12.9998C17.3227 17.3216 15.7309 21.4605 13.0005 24.818C10.2702 21.4605 8.67835 17.3216 8.45508 12.9998C8.67835 8.67802 10.2702 4.53919 13.0005 1.18164C15.7309 4.53919 17.3227 8.67802 17.546 12.9998Z" stroke="white" stroke-width="1.81818" stroke-linecap="round" stroke-linejoin="round"/>
</g>
</g>
<defs>
<clipPath id="clip0_960_3074">
<rect width="25.4545" height="25.4545" fill="white" transform="matrix(-1 0 0 -1 25.7266 25.7271)"/>
</clipPath>
<clipPath id="clip1_960_3074">
<rect width="25.4545" height="25.4545" fill="white" transform="translate(0.273438 0.272949)"/>
</clipPath>
</defs>
</svg>
