<svg width="28" height="28" viewBox="0 0 28 28" fill="none" xmlns="http://www.w3.org/2000/svg">
<path d="M25.9342 0.000106032H2.06556C1.52399 -0.00540552 1.00236 0.204147 0.615121 0.582784C0.227879 0.96142 0.00665827 1.47821 0 2.01976V25.9848C0.0078624 26.5256 0.229612 27.0412 0.616723 27.4188C1.00383 27.7965 1.52478 28.0054 2.06556 27.9999H25.9342C26.4758 28.0042 26.9971 27.7939 27.3841 27.4151C27.7712 27.0362 27.9925 26.5195 27.9998 25.9779V2.01288C27.9901 1.47291 27.7677 0.958587 27.381 0.581689C26.9942 0.20479 26.4743 -0.00421366 25.9342 0.000106032Z" fill="#0076B2"/>
<path d="M4.1469 12.164H8.30326V25.5373H4.1469V12.164ZM6.22623 5.5083C6.70294 5.5083 7.16894 5.64969 7.56529 5.91459C7.96163 6.17948 8.2705 6.55598 8.45283 6.99645C8.63515 7.43692 8.68274 7.92157 8.58957 8.3891C8.4964 8.85662 8.26666 9.286 7.92941 9.62293C7.59216 9.95986 7.16256 10.1892 6.69495 10.2819C6.22734 10.3746 5.74273 10.3266 5.30244 10.1438C4.86214 9.96109 4.48594 9.65187 4.22142 9.25527C3.9569 8.85868 3.81595 8.39254 3.81641 7.91582C3.81702 7.2771 4.07117 6.66474 4.52304 6.21331C4.9749 5.76188 5.5875 5.5083 6.22623 5.5083ZM10.9105 12.164H14.8947V14H14.9498C15.5052 12.9489 16.8593 11.8404 18.8812 11.8404C23.0904 11.8312 23.8707 14.6013 23.8707 18.1931V25.5373H19.7143V19.0308C19.7143 17.4817 19.6868 15.4872 17.5547 15.4872C15.4226 15.4872 15.0599 17.1764 15.0599 18.9298V25.5373H10.9105V12.164Z" fill="white"/>
</svg>
