<svg width="14" height="14" viewBox="0 0 14 14" fill="none" xmlns="http://www.w3.org/2000/svg">
<path fill-rule="evenodd" clip-rule="evenodd" d="M4.22852 5.83382C4.22852 5.09895 4.52044 4.39418 5.04007 3.87455C5.55971 3.35491 6.26448 3.06299 6.99935 3.06299C7.73422 3.06299 8.43899 3.35491 8.95862 3.87455C9.47826 4.39418 9.77018 5.09895 9.77018 5.83382C9.77018 6.56869 9.47826 7.27346 8.95862 7.7931C8.43899 8.31273 7.73422 8.60465 6.99935 8.60465C6.26448 8.60465 5.55971 8.31273 5.04007 7.7931C4.52044 7.27346 4.22852 6.56869 4.22852 5.83382ZM6.99935 3.93799C6.49654 3.93799 6.01433 4.13773 5.65879 4.49326C5.30325 4.8488 5.10352 5.33102 5.10352 5.83382C5.10352 6.33663 5.30325 6.81884 5.65879 7.17438C6.01433 7.52992 6.49654 7.72965 6.99935 7.72965C7.50216 7.72965 7.98437 7.52992 8.33991 7.17438C8.69544 6.81884 8.89518 6.33663 8.89518 5.83382C8.89518 5.33102 8.69544 4.8488 8.33991 4.49326C7.98437 4.13773 7.50216 3.93799 6.99935 3.93799Z" fill="black" fill-opacity="0.6"/>
<path fill-rule="evenodd" clip-rule="evenodd" d="M2.0548 5.16691C2.15477 3.95764 2.70569 2.83015 3.59824 2.00816C4.49079 1.18617 5.65974 0.729758 6.87313 0.729492H7.12513C8.33852 0.729758 9.50747 1.18617 10.4 2.00816C11.2926 2.83015 11.8435 3.95764 11.9435 5.16691C12.0547 6.51402 11.6385 7.85168 10.7826 8.89791L7.98672 12.3168C7.86706 12.4631 7.71639 12.581 7.5456 12.662C7.3748 12.743 7.18815 12.785 6.99913 12.785C6.81012 12.785 6.62347 12.743 6.45267 12.662C6.28187 12.581 6.1312 12.4631 6.01155 12.3168L3.21563 8.89791C2.35979 7.85168 1.9436 6.51402 2.0548 5.16691ZM6.87313 1.60449C5.87949 1.60491 4.9223 1.97879 4.19144 2.65195C3.46057 3.32512 3.00942 4.2484 2.92747 5.23866C2.83488 6.35976 3.18122 7.47302 3.89347 8.34374L6.68938 11.7632C6.72697 11.8092 6.77431 11.8463 6.82798 11.8718C6.88165 11.8972 6.94031 11.9104 6.99972 11.9104C7.05912 11.9104 7.11778 11.8972 7.17145 11.8718C7.22512 11.8463 7.27246 11.8092 7.31005 11.7632L10.106 8.34374C10.8178 7.47285 11.1637 6.35961 11.0708 5.23866C10.9888 4.2483 10.5376 3.32494 9.80661 2.65176C9.07562 1.97857 8.11829 1.60477 7.12455 1.60449H6.87313Z" fill="black" fill-opacity="0.6"/>
</svg>
