<svg width="14" height="14" viewBox="0 0 14 14" fill="none" xmlns="http://www.w3.org/2000/svg">
<path d="M9.701 8.1031L9.967 7.83885L9.34925 7.21818L9.08442 7.48243L9.701 8.1031ZM10.8589 7.72802L11.9737 8.3341L12.3908 7.56527L11.2766 6.95977L10.8589 7.72802ZM12.1878 9.5381L11.3594 10.3624L11.976 10.9824L12.8043 10.1588L12.1878 9.5381ZM10.8543 10.6272C10.0084 10.7065 7.82092 10.6359 5.45142 8.28043L4.83425 8.90052C7.41959 11.4713 9.88067 11.5973 10.9359 11.4987L10.8543 10.6272ZM5.45142 8.28043C3.19334 6.0346 2.81884 4.14635 2.77217 3.32677L1.89834 3.37635C1.95667 4.40768 2.42042 6.50068 4.83425 8.90052L5.45142 8.28043ZM6.2535 4.67543L6.42092 4.5086L5.80492 3.88852L5.6375 4.05477L6.2535 4.67543ZM6.55392 2.38818L5.81892 1.40585L5.11834 1.93085L5.85334 2.9126L6.55392 2.38818ZM3.345 1.19177L2.42917 2.10177L3.04634 2.72243L3.96159 1.81243L3.345 1.19177ZM5.9455 4.3651C5.63634 4.05477 5.63634 4.05477 5.63634 4.05593H5.63517L5.63342 4.05827C5.6057 4.08622 5.58088 4.1169 5.55934 4.14985C5.52784 4.19652 5.49342 4.25777 5.46425 4.33535C5.39325 4.53562 5.37556 4.75092 5.41292 4.9601C5.49109 5.46468 5.83875 6.13143 6.72892 7.01693L7.34609 6.39627C6.5125 5.56793 6.31417 5.06393 6.27742 4.82593C6.25992 4.71277 6.278 4.65677 6.28325 4.64393C6.28675 4.63616 6.28675 4.63499 6.28325 4.64043C6.27805 4.64848 6.2722 4.65609 6.26575 4.66318L6.25992 4.66902L6.25409 4.67427L5.9455 4.3651ZM6.72892 7.01693C7.61967 7.90243 8.28992 8.24777 8.79509 8.32477C9.0535 8.36443 9.26175 8.33293 9.41984 8.27402C9.50839 8.24163 9.59112 8.19514 9.66483 8.13635L9.694 8.1101L9.69809 8.1066L9.69984 8.10485L9.70042 8.10368C9.70042 8.10368 9.701 8.1031 9.39242 7.79277C9.08325 7.48243 9.085 7.48185 9.085 7.48185L9.08617 7.48068L9.08734 7.47952L9.09084 7.4766L9.09667 7.47077L9.11883 7.45327C9.12428 7.44977 9.12292 7.45016 9.11475 7.45443C9.10017 7.45968 9.043 7.47777 8.92809 7.46027C8.68659 7.42293 8.17909 7.2246 7.34609 6.39627L6.72892 7.01693ZM5.81892 1.40527C5.22392 0.611934 4.05492 0.485934 3.345 1.19177L3.96159 1.81243C4.27192 1.50385 4.82259 1.53593 5.11834 1.93085L5.81892 1.40527ZM2.77275 3.32735C2.76109 3.12552 2.85384 2.91435 3.04634 2.72302L2.42859 2.10235C2.11534 2.41385 1.86859 2.85485 1.89834 3.37635L2.77275 3.32735ZM11.3594 10.3624C11.1996 10.5222 11.0269 10.612 10.8548 10.6278L10.9359 11.4987C11.3647 11.4584 11.7153 11.2426 11.9766 10.983L11.3594 10.3624ZM6.42092 4.5086C6.9955 3.93752 7.03809 3.0351 6.5545 2.38877L5.85392 2.91318C6.089 3.2276 6.054 3.64002 5.80434 3.8891L6.42092 4.5086ZM11.9743 8.33468C12.4508 8.59368 12.5249 9.20385 12.1883 9.53868L12.8055 10.1588C13.5872 9.38118 13.3463 8.08443 12.3913 7.56585L11.9743 8.33468ZM9.967 7.83943C10.191 7.6166 10.5515 7.56177 10.8595 7.7286L11.2772 6.96035C10.6448 6.61618 9.86084 6.71127 9.34984 7.21877L9.967 7.83943Z" fill="black" fill-opacity="0.6"/>
</svg>
