<svg width="14" height="14" viewBox="0 0 14 14" fill="none" xmlns="http://www.w3.org/2000/svg">
<g clip-path="url(#clip0_960_3068)">
<path d="M10.5007 2.33317H1.16732V1.1665H10.5007V2.33317ZM10.209 7.58317H9.33399V10.4998L11.4398 11.7598L11.8773 11.0482L10.209 10.0623V7.58317ZM14.0007 9.9165C14.0007 12.174 12.1748 13.9998 9.91732 13.9998C7.85815 13.9998 6.16648 12.4773 5.88065 10.4998H1.16732V6.99984H0.583984V5.83317L1.16732 2.9165H10.5007L11.084 5.83317V6.00234C12.7698 6.50984 14.0007 8.06734 14.0007 9.9165ZM1.77398 5.83317H9.89398L9.54399 4.08317H2.12398L1.77398 5.83317ZM2.33398 9.33317H5.83398V6.99984H2.33398V9.33317ZM12.834 9.9165C12.834 8.3065 11.5273 6.99984 9.91732 6.99984C8.30732 6.99984 7.00065 8.3065 7.00065 9.9165C7.00065 11.5265 8.30732 12.8332 9.91732 12.8332C11.5273 12.8332 12.834 11.5265 12.834 9.9165Z" fill="black" fill-opacity="0.6"/>
</g>
<defs>
<clipPath id="clip0_960_3068">
<rect width="14" height="14" fill="white"/>
</clipPath>
</defs>
</svg>
