<svg width="14" height="14" viewBox="0 0 14 14" fill="none" xmlns="http://www.w3.org/2000/svg">
<g clip-path="url(#clip0_960_3081)">
<path d="M6.42205 12.2502H5.60422C3.51297 12.2502 2.46764 12.2502 1.8178 11.5881C1.16797 10.926 1.16797 9.86025 1.16797 7.72933C1.16797 5.59841 1.16797 4.53266 1.8178 3.87058C2.46764 3.2085 3.51297 3.2085 5.60422 3.2085H7.82264C9.91389 3.2085 10.9598 3.2085 11.6096 3.87058C12.1096 4.37983 12.2245 5.12825 12.2513 6.41683" stroke="black" stroke-opacity="0.6" stroke-width="0.875" stroke-linecap="round" stroke-linejoin="round"/>
<path d="M9.33398 3.20866L9.27565 3.02783C8.9869 2.12949 8.84282 1.68033 8.49923 1.42366C8.15507 1.16699 7.6989 1.16699 6.78482 1.16699H6.6314C5.71848 1.16699 5.26173 1.16699 4.91815 1.42366C4.57398 1.68033 4.4299 2.12949 4.14115 3.02783L4.08398 3.20866M9.98207 7.73241C10.09 7.63324 10.1437 7.58366 10.209 7.58366C10.2743 7.58366 10.328 7.63324 10.4359 7.73241L10.8518 8.11566C10.902 8.16174 10.9271 8.18508 10.958 8.19616C10.9895 8.20783 11.0233 8.20666 11.0922 8.20374L11.6533 8.18158C11.798 8.17574 11.8703 8.17341 11.9199 8.21483C11.9695 8.25624 11.9794 8.32799 11.9987 8.47149L12.0757 9.04666C12.085 9.11316 12.0891 9.14583 12.1054 9.17499C12.1217 9.20299 12.148 9.22341 12.2005 9.26483L12.6532 9.62066C12.7652 9.70933 12.8212 9.75308 12.8322 9.81608C12.8433 9.87908 12.8054 9.93974 12.7307 10.0611L12.4239 10.5552C12.3889 10.6117 12.3714 10.6403 12.3656 10.6718C12.3597 10.7033 12.3667 10.7366 12.3807 10.8019L12.5027 11.3724C12.5318 11.5124 12.547 11.5824 12.5149 11.6384C12.4828 11.6944 12.4146 11.7166 12.2787 11.7609L11.7385 11.9365C11.6743 11.9575 11.6417 11.968 11.6166 11.989C11.5915 12.0106 11.5757 12.0409 11.5448 12.101L11.2812 12.6091C11.2141 12.7392 11.1802 12.8039 11.119 12.8261C11.0577 12.8482 10.9907 12.8202 10.8553 12.7642L10.3373 12.5496C10.2737 12.5233 10.2422 12.5099 10.209 12.5099C10.1757 12.5099 10.1442 12.5233 10.0807 12.5496L9.56265 12.7642C9.42732 12.8202 9.36023 12.8482 9.29898 12.8261C9.23773 12.8039 9.2039 12.7386 9.13682 12.6091L8.87315 12.101C8.84165 12.0409 8.82648 12.0106 8.8014 11.9896C8.77632 11.9686 8.74365 11.9575 8.67948 11.9371L8.13932 11.7609C8.0034 11.7166 7.93515 11.6944 7.90307 11.6384C7.87098 11.5824 7.88557 11.513 7.91532 11.3724L8.03782 10.8019C8.05123 10.7366 8.05823 10.7039 8.0524 10.6724C8.04044 10.6302 8.02065 10.5906 7.99407 10.5557L7.68782 10.0611C7.61198 9.93974 7.57465 9.87908 7.58573 9.81608C7.59682 9.75308 7.65282 9.70933 7.76482 9.62124L8.21748 9.26541C8.26998 9.22341 8.29623 9.20299 8.31257 9.17441C8.3289 9.14583 8.33298 9.11316 8.34173 9.04608L8.41932 8.47149C8.43857 8.32858 8.44848 8.25624 8.49807 8.21483C8.54765 8.17341 8.61998 8.17574 8.76465 8.18158L9.3264 8.20374C9.39465 8.20666 9.42848 8.20783 9.45998 8.19616C9.4909 8.18449 9.51598 8.16174 9.56615 8.11566L9.98207 7.73241Z" stroke="black" stroke-opacity="0.6" stroke-width="0.875" stroke-linecap="round" stroke-linejoin="round"/>
</g>
<defs>
<clipPath id="clip0_960_3081">
<rect width="14" height="14" fill="white"/>
</clipPath>
</defs>
</svg>
