<svg width="40" height="28" viewBox="0 0 40 28" fill="none" xmlns="http://www.w3.org/2000/svg">
<g clip-path="url(#clip0_960_3054)">
<path d="M38.9427 4.36722C38.7143 3.52311 38.2688 2.75356 37.6504 2.1352C37.0321 1.51684 36.2626 1.07125 35.4185 0.8428C32.3282 0 19.8909 0 19.8909 0C19.8909 0 7.45301 0.025511 4.36274 0.868311C3.51862 1.09678 2.74908 1.54239 2.13074 2.16078C1.51241 2.77916 1.06686 3.54875 0.838474 4.39289C-0.096259 9.88369 -0.458859 18.2504 0.864141 23.5216C1.09255 24.3657 1.53811 25.1352 2.15644 25.7536C2.77477 26.3719 3.5443 26.8175 4.38841 27.046C7.47867 27.8888 19.9163 27.8888 19.9163 27.8888C19.9163 27.8888 32.3537 27.8888 35.4438 27.046C36.288 26.8176 37.0575 26.372 37.6759 25.7536C38.2943 25.1353 38.7398 24.3657 38.9683 23.5216C39.9542 18.023 40.258 9.6614 38.9427 4.36722Z" fill="#FF0000"/>
<path d="M15.9316 19.9205L26.2493 13.9444L15.9316 7.96826V19.9205Z" fill="white"/>
</g>
<defs>
<clipPath id="clip0_960_3054">
<rect width="39.8222" height="28" fill="white"/>
</clipPath>
</defs>
</svg>
