<svg width="356" height="392" viewBox="0 0 356 392" fill="none" xmlns="http://www.w3.org/2000/svg">
<path d="M208.034 374.721C205.317 372.675 204.128 369.103 205.075 365.835L207.573 357.236C208.188 355.12 209.589 353.372 211.52 352.311C213.45 351.249 215.677 351.004 217.792 351.618L238.007 357.492C238.975 357.773 239.871 358.22 240.669 358.821C243.385 360.868 244.573 364.439 243.625 367.707L241.128 376.305C239.858 380.668 235.275 383.189 230.911 381.924L210.692 376.049C209.726 375.769 208.831 375.322 208.034 374.721ZM240.068 359.621C239.367 359.092 238.58 358.699 237.73 358.452L217.513 352.579C215.655 352.039 213.697 352.254 212.001 353.187C210.305 354.12 209.074 355.656 208.533 357.515L206.035 366.114C205.203 368.986 206.248 372.125 208.635 373.924C209.335 374.451 210.121 374.844 210.971 375.091L231.189 380.966C235.024 382.077 239.052 379.862 240.168 376.028L242.665 367.431C243.498 364.558 242.455 361.419 240.068 359.621Z" fill="#0F3775"/>
<path d="M221.689 370.136C221.173 369.747 220.754 369.262 220.44 368.693L211.449 352.342L211.924 352.113C213.758 351.23 215.843 351.054 217.792 351.618L238.008 357.492C239.95 358.055 241.619 359.324 242.697 361.051L242.976 361.5L226.623 370.492C225.055 371.352 223.119 371.213 221.689 370.136ZM212.844 352.802L221.318 368.211C221.563 368.656 221.89 369.035 222.292 369.338C223.408 370.179 224.92 370.287 226.143 369.616L241.554 361.142C240.614 359.85 239.271 358.898 237.732 358.453L217.515 352.58C215.972 352.133 214.332 352.213 212.844 352.802Z" fill="#0F3775"/>
<path d="M47.3358 140.575C47.96 141.77 47.4968 143.241 46.3048 143.863C45.1107 144.487 43.6393 144.023 43.0175 142.831C42.393 141.638 42.8562 140.166 44.0491 139.544C45.2423 138.92 46.7132 139.384 47.3358 140.575Z" fill="#2889DB"/>
<path d="M55.0105 136.571C55.6328 137.764 55.1687 139.236 53.9764 139.859C52.7821 140.481 51.3114 140.02 50.69 138.826C50.0663 137.633 50.5295 136.161 51.7227 135.538C52.9151 134.915 54.3868 135.378 55.0105 136.571Z" fill="#2889DB"/>
<path d="M65.7966 145.901C66.4802 147.214 68.0953 147.721 69.4082 147.039C70.7187 146.354 71.2253 144.737 70.5428 143.426C69.8589 142.115 68.2415 141.608 66.9294 142.29C65.6208 142.976 65.1123 144.592 65.7966 145.901Z" fill="#289DF2"/>
<path d="M72.9391 149.746C73.459 150.741 74.6899 151.13 75.6853 150.61C76.6836 150.087 77.0704 148.857 76.5505 147.862C76.029 146.864 74.7995 146.476 73.8015 146.997C72.8039 147.517 72.4167 148.749 72.9391 149.746Z" fill="#289DF2"/>
<path d="M44.0529 165.283C43.9115 165.368 43.7666 165.449 43.6192 165.526L25.131 175.173C23.1967 176.183 20.9843 176.378 18.9021 175.724C16.8198 175.07 15.1182 173.644 14.1096 171.709L10.0056 163.848C7.93292 159.876 9.43914 154.913 13.4699 152.826L31.9558 143.179C33.8911 142.169 36.1038 141.973 38.1852 142.627C40.2674 143.281 41.9699 144.707 42.9795 146.644L47.0835 154.505C49.0779 158.329 47.7464 163.064 44.0529 165.283ZM13.5481 153.927C10.308 155.874 9.14106 160.028 10.892 163.385L14.9959 171.246C15.8807 172.944 17.3746 174.195 19.2021 174.769C21.0296 175.343 22.9707 175.172 24.6688 174.285L43.1561 164.639C46.6746 162.806 48.0148 158.451 46.197 154.965L42.093 147.104C41.2072 145.404 39.7125 144.154 37.8858 143.579C36.0592 143.005 34.1169 143.178 32.4188 144.064L13.9328 153.711C13.801 153.781 13.6733 153.852 13.5481 153.927Z" fill="#0F3775"/>
<path d="M27.391 179.332C28.0757 180.642 27.5665 182.261 26.2581 182.943C24.9462 183.627 23.3293 183.121 22.6458 181.808C21.961 180.498 22.4695 178.882 23.7809 178.197C25.0888 177.514 26.7081 178.022 27.391 179.332Z" fill="#289DF2"/>
<path d="M23.0294 162.052C23.6544 163.246 23.1899 164.717 21.9961 165.34C20.8043 165.964 19.3325 165.501 18.7089 164.307C18.087 163.113 18.5487 161.641 19.7422 161.02C20.9342 160.398 22.4076 160.86 23.0294 162.052Z" fill="#2889DB"/>
<path d="M30.7037 158.049C31.3273 159.242 30.8637 160.713 29.6708 161.335C28.4767 161.959 27.0058 161.495 26.3822 160.302C25.7585 159.109 26.223 157.638 27.4159 157.015C28.6102 156.393 30.0809 156.855 30.7037 158.049Z" fill="#2889DB"/>
<path d="M38.3782 154.045C38.9996 155.238 38.5373 156.71 37.3439 157.331C36.1507 157.955 34.6791 157.494 34.0555 156.301C33.4335 155.106 33.8967 153.634 35.0886 153.011C36.2837 152.388 37.7541 152.851 38.3782 154.045Z" fill="#2889DB"/>
<path d="M26.4586 187.39C26.9813 188.386 26.5933 189.618 25.5951 190.137C24.5958 190.658 23.3673 190.272 22.8463 189.275C22.3257 188.276 22.7125 187.046 23.7115 186.527C24.7072 186.005 25.9392 186.39 26.4586 187.39Z" fill="#289DF2"/>
<path d="M60.691 147.808C60.5479 147.894 60.4013 147.976 60.2513 148.055L46.627 155.164L46.1644 154.278L59.7896 147.168C61.476 146.287 62.7387 144.789 63.3124 142.962C63.8861 141.134 63.7136 139.193 62.8265 137.495L58.7256 129.633C56.8956 126.129 52.5563 124.765 49.0509 126.593L30.565 136.24C27.0446 138.071 25.6966 142.408 27.5254 145.914L26.6386 146.376C24.5556 142.381 26.1244 137.427 30.1024 135.353L48.5883 125.706C52.5822 123.624 57.5278 125.178 59.612 129.171L63.7129 137.032C64.7232 138.966 64.9191 141.18 64.266 143.261C63.6618 145.182 62.4019 146.78 60.691 147.808Z" fill="#0F3775"/>
<path d="M77.3513 19.7296C76.7268 19.9205 76.0808 20.0752 75.4323 20.1877C66.8616 21.6849 58.6712 15.9301 57.1742 7.36033C55.806 -0.466657 60.4956 -8.11911 68.0829 -10.4388C68.7083 -10.63 69.3534 -10.7843 70.0018 -10.8968C74.1541 -11.6226 78.3391 -10.6883 81.789 -8.26614C85.238 -5.84367 87.5368 -2.22361 88.2625 1.92865C89.6294 9.75813 84.9395 17.4096 77.3513 19.7296ZM68.3756 -9.48153C61.2702 -7.30921 56.8776 -0.142785 58.1591 7.18888C59.5612 15.2157 67.2334 20.6061 75.2602 19.204C75.8677 19.0977 76.473 18.9535 77.0592 18.7743C84.1655 16.6016 88.5588 9.43397 87.277 2.10135C86.5972 -1.78784 84.4438 -5.1784 81.2133 -7.44704C77.9826 -9.71663 74.0615 -10.5914 70.1733 -9.91194C69.5667 -9.80598 68.9618 -9.66075 68.3756 -9.48153Z" fill="#0F3775"/>
<mask id="mask0_516_1383" style="mask-type:luminance" maskUnits="userSpaceOnUse" x="57" y="-11" width="31" height="31">
<path d="M87.7704 2.01439C89.2226 10.3281 83.661 18.244 75.347 19.6952C67.0352 21.1468 59.1198 15.5871 57.6677 7.27337C56.2152 -1.03812 61.7777 -8.95436 70.0889 -10.4047C78.4004 -11.8572 86.3179 -6.29711 87.7704 2.01439Z" fill="white"/>
</mask>
<g mask="url(#mask0_516_1383)">
<path d="M75.9913 20.0545C75.8096 20.1101 75.6225 20.1547 75.4338 20.1873C73.17 20.5846 70.7784 19.2913 68.6973 16.5479C66.6889 13.8983 65.188 10.1828 64.4717 6.08516C62.9612 -2.5631 65.371 -10.0895 70.002 -10.8978C72.2661 -11.2941 74.6586 -10.0011 76.7387 -7.25738C78.7469 -4.60877 80.2477 -0.893241 80.9641 3.20437C82.4132 11.5012 80.2755 18.7447 75.9913 20.0545ZM69.7374 -9.80679C65.9964 -8.66304 64.1171 -1.75788 65.4578 5.91436C66.147 9.85819 67.5812 13.4205 69.495 15.9453C71.3378 18.3747 73.3858 19.5325 75.2626 19.2034C79.3135 18.4846 81.3723 11.3426 79.9817 3.37715C79.2915 -0.56639 77.8576 -4.12777 75.9438 -6.65254C74.1017 -9.08316 72.053 -10.2397 70.176 -9.91159C70.027 -9.8859 69.8799 -9.85036 69.7374 -9.80679Z" fill="#0F3775"/>
<path d="M68.9016 -14.186L75.4746 23.3414L76.4596 23.1689L69.8866 -14.3585L68.9016 -14.186Z" fill="#0F3775"/>
<path d="M53.822 7.25841L53.9941 8.24353L91.528 1.68476L91.3559 0.699647L53.822 7.25841Z" fill="#0F3775"/>
<path d="M75.186 -1.97406C74.0662 -1.6317 72.8964 -1.35353 71.7082 -1.14605C67.7526 -0.45432 63.8874 -0.592265 60.8249 -1.53508C57.6482 -2.51303 55.6902 -4.24842 55.3106 -6.42033C54.6677 -10.1033 58.8463 -14.0913 65.4745 -16.1177C66.5934 -16.4598 67.7622 -16.7376 68.9483 -16.9455C72.9054 -17.6356 76.7706 -17.4976 79.8318 -16.5555C83.0086 -15.5776 84.9665 -13.8422 85.3464 -11.6693C85.9893 -7.98633 81.8113 -3.99961 75.186 -1.97406ZM65.7659 -15.1611C59.7326 -13.3165 55.7502 -9.71272 56.2943 -6.59245C56.6055 -4.80848 58.3189 -3.35284 61.1183 -2.49063C64.033 -1.59359 67.7317 -1.46646 71.5339 -2.13009C72.6824 -2.33065 73.8121 -2.59969 74.8917 -2.92978C80.9232 -4.77377 84.9039 -8.37603 84.3599 -11.4963C84.0487 -13.2803 82.3359 -14.7372 79.5365 -15.5994C76.6231 -16.4958 72.9237 -16.6248 69.1197 -15.9606C67.9734 -15.7596 66.8456 -15.4912 65.7659 -15.1611Z" fill="#0F3775"/>
<path d="M79.9165 25.0946C79.9155 25.0949 79.9155 25.0949 79.9165 25.0946C78.7954 25.4363 77.6249 25.7157 76.4376 25.9229C72.4817 26.6136 68.6156 26.476 65.5541 25.5329C62.3764 24.5552 60.4184 22.8198 60.0388 20.6479C59.395 16.9653 63.572 12.9788 70.1992 10.9527C71.319 10.6103 72.4888 10.3322 73.6771 10.1247C82.0969 8.65369 89.3001 10.9709 90.0771 15.4003C90.7197 19.0823 86.5417 23.069 79.9165 25.0946ZM70.4916 11.909C64.4592 13.7533 60.4785 17.3555 61.0235 20.4755C61.3346 22.2595 63.0484 23.7161 65.8475 24.5773C68.7621 25.4744 72.4612 25.6025 76.2649 24.9373C77.4122 24.7361 78.5419 24.467 79.6229 24.1376C85.6543 22.2936 89.6369 18.6908 89.0922 15.5717C88.4244 11.7594 81.5862 9.75721 73.8492 11.1083C72.7009 11.3099 71.5712 11.5789 70.4916 11.909Z" fill="#0F3775"/>
</g>
<path d="M89.4538 304.794C89.4538 311.117 85.1568 316.578 79.0038 318.073C75.4538 318.936 71.7798 318.365 68.6588 316.466C65.5378 314.566 63.3448 311.565 62.4818 308.014C62.2228 306.949 62.0918 305.858 62.0918 304.772C62.0918 298.448 66.3888 292.987 72.5408 291.491C76.0918 290.627 79.7658 291.198 82.8868 293.098C86.0078 294.998 88.2008 298 89.0638 301.552C89.3228 302.617 89.4538 303.708 89.4538 304.794ZM63.0918 304.772C63.0918 305.779 63.2138 306.79 63.4538 307.778C64.2538 311.068 66.2868 313.851 69.1798 315.612C72.0728 317.373 75.4778 317.902 78.7678 317.102C84.4718 315.716 88.4548 310.655 88.4548 304.794C88.4548 303.788 88.3328 302.776 88.0928 301.789C87.2928 298.498 85.2598 295.714 82.3668 293.953C79.4738 292.192 76.0688 291.662 72.7778 292.463C67.0748 293.849 63.0918 298.911 63.0918 304.772Z" fill="#0F3775"/>
<mask id="mask1_516_1383" style="mask-type:luminance" maskUnits="userSpaceOnUse" x="62" y="291" width="27" height="27">
<path d="M88.9254 303.939C89.392 311.203 83.8804 317.468 76.6153 317.932C69.3531 318.398 63.088 312.887 62.6232 305.624C62.1573 298.361 67.668 292.095 74.9311 291.63C82.1943 291.165 88.4604 296.676 88.9254 303.939Z" fill="white"/>
</mask>
<g mask="url(#mask1_516_1383)">
<path d="M75.6691 318.378C71.9593 317.724 68.9445 312.201 68.4991 305.248C68.0098 297.594 70.8203 291.393 74.8985 291.132C75.2221 291.111 75.5509 291.13 75.8749 291.187C79.5857 291.841 82.6017 297.363 83.0469 304.316C83.5362 311.971 80.7249 318.171 76.6465 318.433C76.3221 318.452 75.9931 318.435 75.6691 318.378ZM75.7003 292.171C75.4551 292.128 75.2068 292.114 74.9623 292.129C71.5609 292.347 69.0587 298.325 69.4965 305.184C69.9063 311.578 72.6344 316.826 75.8429 317.392C76.0891 317.436 76.3376 317.449 76.582 317.433C79.9846 317.215 82.4878 311.237 82.0489 304.379C81.639 297.985 78.9098 292.737 75.7003 292.171Z" fill="#0F3775"/>
<path d="M75.2167 288.214L74.2188 288.278L76.3211 321.072L77.319 321.008L75.2167 288.214Z" fill="#0F3775"/>
<path d="M92.1332 303.097L59.3359 305.199L59.3999 306.197L92.1972 304.095L92.1332 303.097Z" fill="#0F3775"/>
<path d="M69.8394 299.507C65.0671 298.665 61.9931 296.427 61.815 293.665C61.5638 289.757 67.1622 286.323 74.5603 285.846C76.5086 285.722 78.3967 285.817 80.1733 286.13C84.9476 286.972 88.0226 289.211 88.1995 291.974C88.4494 295.883 82.8512 299.317 75.4536 299.79C73.5042 299.916 71.616 299.82 69.8394 299.507ZM79.9987 287.115C78.3008 286.815 76.4921 286.725 74.624 286.844C68.0138 287.269 62.6052 290.364 62.8132 293.601C62.9577 295.845 65.7832 297.777 70.0129 298.523C71.7107 298.822 73.5195 298.913 75.3888 298.793C81.9986 298.37 87.408 295.276 87.2001 292.038C87.0568 289.793 84.2304 287.861 79.9987 287.115Z" fill="#0F3775"/>
<path d="M71.3532 323.159C66.5799 322.318 63.5049 320.079 63.3288 317.317C63.0789 313.407 68.6781 309.974 76.0757 309.501C78.0251 309.375 79.9141 309.472 81.6907 309.785C86.462 310.626 89.537 312.865 89.7149 315.628C89.9649 319.537 84.3658 322.97 76.9681 323.444C75.0189 323.568 73.1298 323.472 71.3532 323.159ZM81.517 310.77C79.8192 310.471 78.0104 310.38 76.1403 310.499C69.5295 310.922 64.1202 314.015 64.328 317.254C64.4715 319.498 67.2971 321.429 71.5269 322.174C73.2247 322.474 75.0343 322.565 76.9045 322.445C83.5145 322.022 88.9235 318.93 88.7167 315.692C88.5722 313.448 85.7458 311.516 81.517 310.77Z" fill="#0F3775"/>
</g>
<path d="M37.439 257.715C37.885 259.067 39.1224 260.075 40.6305 260.157L56.5808 261.01C58.0749 261.09 59.4009 260.238 59.9968 258.963C57.8001 255.394 51.6941 253.832 51.6528 250.174C57.8649 243.222 54.9443 236.945 49.9882 236.66C45.0337 236.376 41.4098 242.271 46.7784 249.892C46.3149 253.542 40.0046 254.378 37.439 257.715Z" fill="#289DF2"/>
<path d="M36.5101 267.283C34.2733 266.6 32.7973 264.488 32.9212 262.147L34.7833 227.418C34.8562 226.061 35.4519 224.813 36.4626 223.905C37.4733 222.997 38.7768 222.537 40.1337 222.61L61.0824 223.731C61.4971 223.753 61.9057 223.826 62.2997 223.946C64.5393 224.631 66.0154 226.743 65.8886 229.083L64.0313 263.813C63.8797 266.614 61.4777 268.769 58.6763 268.619L37.7286 267.498C37.314 267.476 36.9041 267.404 36.5101 267.283ZM62.007 224.903C61.6905 224.806 61.3619 224.749 61.0287 224.731L40.08 223.61C38.9897 223.551 37.9431 223.92 37.131 224.65C36.3193 225.38 35.8404 226.381 35.782 227.472L33.9199 262.201C33.8196 264.082 35.0044 265.778 36.8022 266.328C37.1178 266.425 37.4482 266.483 37.7815 266.501L58.7292 267.621C60.98 267.743 62.9096 266.011 63.0316 263.762L64.889 229.031C64.9915 227.15 63.8058 225.453 62.007 224.903Z" fill="#0F3775"/>
<path d="M39.6285 260.484C37.8393 259.937 36.6601 258.25 36.7603 256.379L38.1654 230.161C38.2224 229.078 38.6985 228.082 39.5059 227.356C40.3137 226.629 41.3556 226.262 42.4399 226.321L58.3905 227.173C58.7228 227.191 59.0504 227.249 59.3659 227.345C61.1533 227.892 62.3324 229.579 62.2325 231.448L60.8271 257.668C60.7689 258.752 60.2925 259.749 59.4853 260.474C58.6779 261.199 57.6359 261.567 56.5517 261.508L40.6023 260.655C40.2707 260.638 39.9431 260.581 39.6285 260.484ZM59.0733 228.302C58.8352 228.23 58.588 228.186 58.3371 228.172L42.3855 227.319C41.5686 227.276 40.7834 227.552 40.1737 228.1C39.5652 228.647 39.2063 229.397 39.1638 230.213L37.7587 256.432C37.6693 258.089 38.9779 259.565 40.6554 259.657L56.6058 260.51C57.4227 260.554 58.2088 260.278 58.8176 259.73C59.4261 259.183 59.7853 258.432 59.8291 257.615L61.2344 231.395C61.3086 229.986 60.4198 228.714 59.0733 228.302Z" fill="#0F3775"/>
<path d="M50.164 264.006C50.1134 264.965 49.2936 265.704 48.3332 265.651C47.3734 265.599 46.6367 264.78 46.6895 263.82C46.7405 262.86 47.5599 262.123 48.5206 262.175C49.4782 262.227 50.2149 263.046 50.164 264.006Z" fill="#289DF2"/>
<path d="M119.758 335.325C118.761 334.677 118.366 333.794 118.648 332.838L118.715 332.609C118.807 332.291 118.899 331.972 119.017 331.655C121.158 325.908 127.235 322.848 132.564 324.834C133.713 325.262 134.774 325.909 135.688 326.742C139.792 322.084 146.107 320.32 151.568 322.356C152.494 322.7 153.38 323.146 154.204 323.681C158.869 326.711 161.34 332.417 160.575 338.312C160.59 338.318 160.605 338.323 160.62 338.329C161.155 338.528 161.665 338.785 162.139 339.093C165.403 341.213 166.73 345.651 165.294 349.644C164.909 350.717 163.811 351.672 162.642 351.411C161.769 351.217 124.865 337.35 120.659 335.769C120.659 335.769 120.222 335.626 119.758 335.325ZM133.893 326.615C133.368 326.274 132.803 325.989 132.214 325.771C127.402 323.978 121.902 326.774 119.953 332.003C119.845 332.295 119.76 332.592 119.675 332.885L119.606 333.12C119.551 333.31 119.381 333.888 120.302 334.486C120.651 334.713 120.986 334.825 120.99 334.826C135.09 340.125 161.96 350.197 162.865 350.436C163.451 350.568 164.12 349.946 164.351 349.305C165.631 345.743 164.471 341.801 161.592 339.931C161.179 339.663 160.734 339.44 160.269 339.266C160.183 339.235 160.095 339.209 160.007 339.183L159.455 339.015L159.522 338.587C160.407 332.93 158.104 327.407 153.656 324.519C152.894 324.024 152.073 323.611 151.216 323.292C145.997 321.347 139.925 323.154 136.107 327.788L135.754 328.217L135.364 327.821C134.918 327.364 134.422 326.959 133.893 326.615Z" fill="#0F3775"/>
<path d="M147.944 350.267C147.429 350.075 147.165 349.496 147.357 348.98L150.144 341.503C150.336 340.987 150.072 340.408 149.556 340.216L138.05 335.927C137.534 335.735 136.955 335.999 136.764 336.514L133.976 343.993C133.784 344.508 133.204 344.773 132.69 344.58L129.246 343.296C128.73 343.105 128.465 343.369 128.655 343.885L131.366 351.218C131.557 351.734 131.869 352.577 132.061 353.094L134.772 360.431C134.963 360.947 135.513 361.152 135.994 360.887L142.846 357.115C143.327 356.849 144.116 356.416 144.598 356.149L151.448 352.379C151.93 352.114 151.903 351.739 151.387 351.547L147.944 350.267Z" fill="#289DF2"/>
<path d="M45.6512 66.5739L47.5703 69.262L48.3833 68.6815L46.4642 65.9935L45.6512 66.5739Z" fill="#0F3775"/>
<path d="M49.788 63.7L51.6738 66.3333L52.4876 65.7504L50.6018 63.1172L49.788 63.7Z" fill="#0F3775"/>
<path d="M65.0922 81.6567C64.9499 81.8323 64.7842 81.9876 64.5984 82.1202L59.1621 86.0035C58.0349 86.8059 56.4652 86.5436 55.6622 85.4186L46.4474 72.5162C45.6629 71.4176 45.9202 69.8065 47.03 69.0144L52.4663 65.1312C53.5933 64.3273 55.1638 64.5903 55.9669 65.7167L65.1831 78.619C65.8354 79.5344 65.7995 80.7832 65.0922 81.6567ZM47.3154 70.1064C46.8893 70.6325 46.8674 71.3842 47.2603 71.9366L56.4751 84.839C56.9585 85.5148 57.9037 85.6729 58.5803 85.1901L64.0166 81.3069C64.6887 80.8281 64.8403 79.8623 64.3678 79.2031L55.1521 66.2986C54.6686 65.6214 53.7234 65.4633 53.0461 65.9469L47.6099 69.8301C47.4999 69.9071 47.4004 70.0014 47.3154 70.1064Z" fill="#0F3775"/>
<path d="M51.2459 62.9503C50.5077 63.8619 49.6452 64.6728 48.6836 65.3597C42.8245 69.5427 34.6549 68.1808 30.4729 62.3238C27.0731 57.5633 27.2662 51.0672 30.944 46.5256C31.6822 45.614 32.5447 44.8031 33.5077 44.116C39.3653 39.9318 47.5349 41.2936 51.7185 47.152C55.1181 51.911 54.9237 58.4087 51.2459 62.9503ZM31.721 47.1535C28.3252 51.347 28.1465 57.3453 31.2863 61.742C35.1493 67.1491 42.6924 68.4076 48.1025 64.5456C48.9921 63.911 49.7885 63.1611 50.4694 62.3202C53.8652 58.1267 54.0445 52.1277 50.9055 47.7316C47.0415 42.3224 39.4979 41.0647 34.09 44.9272C33.1991 45.5633 32.4025 46.3118 31.721 47.1535Z" fill="#0F3775"/>
<path d="M47.7152 50.0078C50.3249 53.6639 49.4782 58.7456 45.8223 61.3567C42.1664 63.9692 37.0861 63.121 34.4735 59.4652C31.863 55.8084 32.7114 50.7295 36.3679 48.1162C40.0234 45.5072 45.1035 46.3526 47.7152 50.0078Z" fill="#289DF2"/>
<path d="M273.019 371.08C274.015 371.08 274.824 371.888 274.824 372.885C274.824 373.881 274.015 374.689 273.019 374.689C272.023 374.689 271.215 373.881 271.215 372.885C271.215 371.887 272.023 371.08 273.019 371.08Z" fill="#0F3775"/>
<path d="M86.2268 265.282C87.4768 265.282 88.4898 266.295 88.4898 267.545C88.4898 268.793 87.4768 269.807 86.2268 269.807C84.9778 269.807 83.9648 268.793 83.9648 267.545C83.9658 266.295 84.9778 265.282 86.2268 265.282Z" fill="#0F3775"/>
<path d="M97.2752 350.331C97.8922 350.331 98.3912 350.831 98.3912 351.447C98.3912 352.063 97.8922 352.562 97.2752 352.562C96.6602 352.562 96.1602 352.063 96.1602 351.447C96.1602 350.831 96.6592 350.331 97.2752 350.331Z" fill="#0F3775"/>
<path d="M388.717 30.7352C322.589 -35.3928 215.374 -35.3925 149.246 30.7359C83.1174 96.8643 83.1171 204.079 149.245 270.207C215.373 336.335 322.588 336.335 388.717 270.207C454.845 204.078 454.845 96.8632 388.717 30.7352Z" fill="#289DF2"/>
<path d="M265.506 11.8843L288.256 2.63431L253.006 -4.36569L217.756 -8.86569L191.256 6.13431L184.638 3.60129C164.999 14.9053 147.849 30.0403 134.189 47.9773L129.756 86.6343L138.756 105.634L142.006 144.384L160.006 160.134L170.006 182.634L184.506 183.134L189.256 200.384L205.506 195.884L233.756 226.634L265.506 226.634L279.256 182.384L329.506 169.134L356.506 170.884L376.506 160.384L367.006 139.384L336.006 117.384L304.756 116.134L276.256 102.134L233.756 78.3843L263.756 46.6343L238.506 29.8843L265.506 11.8843Z" fill="#284D89"/>
<path d="M300.742 -15.8786L303.531 3.55435L332.021 31.5074L361.751 37.2294L363.808 10.1604C345.114 -2.50063 323.75 -11.5116 300.742 -15.8786Z" fill="#284D89"/>
<path d="M235.748 316.531L247.293 306.37L217.852 301.973L186.781 288.732L167.302 240.668L140.901 232.735L147.501 186.386L129.309 173.02L120.434 200.612L127.02 242.791C151.45 280.278 190.321 307.49 235.748 316.531Z" fill="#284D89"/>
<path d="M365.356 289.703L392.045 266.368L357.024 280.833L332.331 272.776L301.943 262.236L272.819 283.233L247.293 306.37L273.725 319.731C307.723 318.796 339.212 307.834 365.356 289.703Z" fill="#284D89"/>
<path d="M99.6484 150.468C99.6484 167.056 102.045 183.082 106.49 198.232L120.432 200.612L112.699 179.883L123.981 144.7L113.369 110.489L116.465 76.8176C105.691 99.0866 99.6484 124.071 99.6484 150.468Z" fill="#284D89"/>
<path d="M373.298 160.608L352.756 171.392L352.615 171.383L325.696 169.638L275.793 182.797L262.016 227.134L229.678 227.134L201.487 196.448L185.049 201L180.264 183.621L165.818 183.123L155.736 160.438L137.667 144.627L137.65 144.426L134.407 105.766L125.385 86.7193L125.402 86.5773L131.673 31.8983L131.802 31.7733L167.031 -2.19769L187.358 5.5823L213.798 -9.3837L213.963 -9.3627L249.213 -4.8627L286.134 2.46829L261.885 12.3273L235.553 29.8823L260.672 46.5453L230.705 78.2603L272.645 101.696L301.027 115.637L332.319 116.888L363.55 139.053L373.298 160.608ZM352.539 170.377L371.997 160.161L362.748 139.714L331.98 117.879L300.772 116.63L300.677 116.584L272.177 102.584L229.094 78.5083L259.127 46.7233L233.746 29.8863L261.46 11.4223L282.664 2.80029L249.051 -3.8747L214 -8.3487L187.44 6.6853L167.267 -1.0347L132.625 32.3693L126.412 86.5493L135.397 105.592L138.63 144.141L156.561 159.83L166.479 182.145L181.033 182.647L185.748 199.768L201.81 195.32L230.119 226.134L261.281 226.134L275.004 181.971L325.601 168.63L352.539 170.377Z" fill="#0F3775"/>
<path d="M262.104 226.428L261.194 226.841L249.194 200.341L225.132 165.244L201.778 196.548L180.13 183.405L182.672 145.028L156.244 160.741L155.653 112.259L134.28 105.973L146.553 63.7403L131.463 31.8543L154.041 23.5463L166.701 -1.83869L167.596 -1.39166L154.759 24.3463L154.573 24.4163L132.835 32.4153L147.619 63.6543L135.518 105.296L156.644 111.509L157.222 158.996L183.795 143.196L181.168 182.865L201.52 195.221L225.166 163.525L250.061 199.852L262.104 226.428Z" fill="#0F3775"/>
<path d="M364.154 137.948L353.123 171.043L352.174 170.727L362.143 140.822L325.556 169.847L309.571 148.415L309.361 148.696L309.232 148.228L281.541 157.996L275.845 182.677L250.549 201.294L229.498 227.949L224.657 164.497L208.943 124.491L246.983 131.107L276.051 122.731L301.246 115.514L309.782 146.462L331.748 117.084L332.549 117.684L310.196 147.579L325.742 168.423L364.154 137.948ZM274.952 182.092L280.687 157.236L308.964 147.263L300.549 116.755L276.325 123.693L247.035 132.133L246.922 132.112L210.521 125.781L225.645 164.346L230.298 225.32L249.9 200.529L274.952 182.092Z" fill="#0F3775"/>
<path d="M281.781 158.754L247.129 132.341L225.564 164.662L224.732 164.107L246.889 130.899L247.312 131.222L280.446 156.478L275.704 123.354L264.064 97.9394L264.972 97.5233L276.684 123.14L281.781 158.754Z" fill="#0F3775"/>
<path d="M247.485 131.467L246.534 131.774L229.836 79.8274L210.002 127.182L202.145 195.942L201.152 195.829L209.108 126.199L182.414 145.315L199.119 79.2184L209.981 124.343L210.16 124.214L229.96 76.9434L247.485 131.467ZM184.052 142.91L209.103 124.97L199.095 83.3914L184.052 142.91Z" fill="#0F3775"/>
<path d="M262.044 11.5804L261.251 12.1894L249.01 -3.72362L232.357 5.23536L214.096 -8.10164L202.279 17.5094L187.36 6.72437L155.369 24.1024L147.594 63.6994L156.615 111.663L183.615 143.791L182.85 144.433L155.68 112.106L155.656 111.977L146.576 63.6953L154.479 23.4484L187.436 5.54536L201.88 15.9874L213.7 -9.62862L232.438 4.05537L249.285 -5.00664L262.044 11.5804Z" fill="#0F3775"/>
<path d="M235.159 29.9953L228.222 42.2913L230.426 78.8483L199.078 81.0693L156.443 112.288L155.852 111.481L198.719 80.0933L198.864 80.0823L229.369 77.9213L227.206 42.0563L234.136 29.7743L231.9 4.68934L232.896 4.60132L235.159 29.9953Z" fill="#0F3775"/>
<path d="M228.371 42.1223L199.054 82.2244L182.743 53.5493L147.228 64.1774L146.941 63.2184L182.053 52.7124L154.563 24.1223L155.284 23.4294L182.862 52.1114L201.951 15.9193L228.371 42.1223ZM199.159 80.3864L227.056 42.2264L202.206 17.5793L183.551 52.9484L199.159 80.3864Z" fill="#0F3775"/>
<path d="M182.218 52.2768L183.213 52.3782L187.922 6.18265L186.927 6.08125L182.218 52.2768Z" fill="#0F3775"/>
<path d="M366.862 1.60846L364.437 33.5074L334.009 27.6524L305.29 -0.525541L305.266 -0.692564L302.062 -23.0156L337.555 -15.6335L366.862 1.60846ZM363.526 32.3145L365.816 2.15344L337.118 -14.7306L303.255 -21.7486L306.232 -1.00256L334.493 26.7255L363.526 32.3145Z" fill="#0F3775"/>
<path d="M336.45 -1.82565L334.75 27.2194L333.752 27.1604L335.39 -0.806639L305.77 -0.26364L305.752 -1.26364L336.45 -1.82565Z" fill="#0F3775"/>
<path d="M364.367 32.5944L363.594 33.2284L335.402 -1.1586L336.803 -15.2526L337.797 -15.1536L336.437 -1.4736L364.367 32.5944Z" fill="#0F3775"/>
<path d="M335.867 -0.81897L366.283 2.40796L366.389 1.41356L335.973 -1.81337L335.867 -0.81897Z" fill="#0F3775"/>
<path d="M400.518 266.789L354.918 306.608L316.604 319.611L282.326 327.71L248.123 310.42L231.876 324.72L196.365 317.296L145.834 282.496L145.785 282.43L124.58 253.968L116.273 200.764L101.002 198.157L94.1309 162.604L94.3899 120.707L114.291 59.2685L109.905 106.978L120.909 142.452L120.861 142.601L109.235 178.86L116.676 198.808L125.636 170.953L145.271 185.38L138.457 233.233L165.608 241.391L185.786 291.183L217.704 304.785L247.886 309.293L274.137 285.499L304.542 263.575L336.248 274.572L361.628 282.853L400.518 266.789ZM354.502 305.693L395.293 270.029L361.669 283.917L335.929 275.518L304.706 264.689L274.765 286.274L248.921 309.703L282.45 326.652L316.327 318.649L354.502 305.693ZM231.591 323.639L246.908 310.158L217.37 305.73L185.013 291.941L184.935 291.75L164.859 242.211L137.344 233.943L144.196 185.831L126.162 172.58L117.223 200.372L125.53 253.57L146.537 281.767L196.849 316.415L231.591 323.639ZM108.177 178.884L119.861 142.445L108.892 107.083L108.901 106.984L112.473 68.1275L95.3649 120.941L95.1209 162.512L101.852 197.287L115.939 199.692L108.177 178.884Z" fill="#0F3775"/>
<path d="M362.127 283.53L355.078 306.798L318.628 292.488L288.045 313.727L287.867 313.712L248.004 310.32L248.088 309.324L287.772 312.7L318.497 291.362L354.436 305.471L361.17 283.24L362.127 283.53Z" fill="#0F3775"/>
<path d="M288.453 313.192L282.852 327.365L281.922 326.998L287.362 313.236L274.023 286.09L274.921 285.648L288.453 313.192Z" fill="#0F3775"/>
<path d="M319.581 291.46L319.568 291.609L316.941 319.185L315.945 319.09L318.558 291.662L304.182 264.365L305.067 263.899L319.581 291.46Z" fill="#0F3775"/>
<path d="M318.712 291.198L319.436 291.888L335.312 275.245L334.589 274.555L318.712 291.198Z" fill="#0F3775"/>
<path d="M232.134 323.88L231.333 324.479L217.428 305.918L196.414 317.587L185.043 291.99L145.471 282.474L164.782 241.587L165.686 242.015L146.901 281.789L185.757 291.133L196.884 316.182L217.705 304.62L232.134 323.88Z" fill="#0F3775"/>
<path d="M146.678 282.048L145.692 282.216L137.623 234.939L125.695 253.439L124.854 252.897L138.176 232.236L146.678 282.048Z" fill="#0F3775"/>
<path d="M116.291 200.592L137.467 233.857L138.31 233.32L117.135 200.055L116.291 200.592Z" fill="#0F3775"/>
<path d="M121.186 142.472L95.3282 161.782L108.706 178.879L107.919 179.495L93.9102 161.593L119.58 142.424L94.1152 120.883L109.052 106.668L109.741 107.392L95.6122 120.84L121.186 142.472Z" fill="#0F3775"/>
<path d="M247.086 129.177C248.316 129.177 249.315 130.175 249.315 131.407C249.315 132.637 248.317 133.635 247.086 133.635C245.855 133.635 244.857 132.637 244.857 131.407C244.857 130.176 245.855 129.177 247.086 129.177Z" fill="#289DF2"/>
<path d="M225.148 162.155C226.378 162.155 227.377 163.153 227.377 164.385C227.377 165.615 226.379 166.615 225.148 166.615C223.917 166.615 222.918 165.616 222.918 164.385C222.918 163.153 223.916 162.155 225.148 162.155Z" fill="#289DF2"/>
<path d="M201.482 193.21C202.712 193.21 203.711 194.208 203.711 195.439C203.711 196.669 202.713 197.668 201.482 197.668C200.251 197.668 199.252 196.67 199.252 195.439C199.252 194.208 200.25 193.21 201.482 193.21Z" fill="#289DF2"/>
<path d="M229.945 224.405C231.175 224.405 232.174 225.403 232.174 226.635C232.174 227.865 231.176 228.865 229.945 228.865C228.714 228.865 227.715 227.866 227.715 226.635C227.715 225.403 228.713 224.405 229.945 224.405Z" fill="#289DF2"/>
<path d="M249.985 198.738C251.215 198.738 252.213 199.736 252.213 200.968C252.213 202.198 251.215 203.196 249.985 203.196C248.753 203.196 247.756 202.198 247.756 200.968C247.755 199.736 248.753 198.738 249.985 198.738Z" fill="#289DF2"/>
<path d="M261.649 224.072C262.879 224.072 263.878 225.07 263.878 226.302C263.878 227.532 262.88 228.53 261.649 228.53C260.418 228.53 259.42 227.532 259.42 226.302C259.419 225.07 260.417 224.072 261.649 224.072Z" fill="#289DF2"/>
<path d="M275.399 180.238C276.629 180.238 277.628 181.236 277.628 182.468C277.628 183.698 276.63 184.696 275.399 184.696C274.168 184.696 273.17 183.698 273.17 182.468C273.169 181.236 274.167 180.238 275.399 180.238Z" fill="#289DF2"/>
<path d="M325.564 166.927C326.794 166.927 327.792 167.925 327.792 169.156C327.792 170.386 326.794 171.385 325.564 171.385C324.332 171.385 323.334 170.387 323.334 169.156C323.334 167.925 324.332 166.927 325.564 166.927Z" fill="#289DF2"/>
<path d="M309.618 145.094C310.848 145.094 311.847 146.092 311.847 147.323C311.847 148.553 310.849 149.552 309.618 149.552C308.386 149.552 307.389 148.554 307.389 147.323C307.389 146.092 308.387 145.094 309.618 145.094Z" fill="#289DF2"/>
<path d="M352.961 168.234C354.191 168.234 355.19 169.232 355.19 170.463C355.19 171.693 354.192 172.692 352.961 172.692C351.73 172.692 350.732 171.694 350.732 170.463C350.732 169.232 351.73 168.234 352.961 168.234Z" fill="#289DF2"/>
<path d="M332.271 115.344C333.501 115.344 334.499 116.342 334.499 117.573C334.499 118.803 333.501 119.802 332.271 119.802C331.039 119.802 330.041 118.804 330.041 117.573C330.041 116.342 331.039 115.344 332.271 115.344Z" fill="#289DF2"/>
<path d="M334.499 24.9615C335.729 24.9615 336.728 25.9595 336.728 27.1905C336.728 28.4205 335.73 29.4194 334.499 29.4194C333.268 29.4194 332.27 28.4215 332.27 27.1905C332.27 25.9595 333.268 24.9615 334.499 24.9615Z" fill="#289DF2"/>
<path d="M335.92 -3.54456C337.15 -3.54456 338.149 -2.54655 338.149 -1.31555C338.149 -0.0855517 337.151 0.913452 335.92 0.913452C334.689 0.913452 333.691 -0.0845518 333.691 -1.31555C333.691 -2.54655 334.689 -3.54456 335.92 -3.54456Z" fill="#289DF2"/>
<path d="M306.42 -2.57565C307.65 -2.57565 308.649 -1.57765 308.649 -0.346649C308.649 0.883351 307.651 1.88135 306.42 1.88135C305.189 1.88135 304.191 0.883351 304.191 -0.346649C304.191 -1.57765 305.189 -2.57565 306.42 -2.57565Z" fill="#289DF2"/>
<path d="M300.43 113.905C301.66 113.905 302.659 114.903 302.659 116.134C302.659 117.364 301.661 118.362 300.43 118.362C299.198 118.362 298.201 117.364 298.201 116.134C298.2 114.903 299.198 113.905 300.43 113.905Z" fill="#289DF2"/>
<path d="M276.012 120.905C277.242 120.905 278.241 121.903 278.241 123.134C278.241 124.364 277.243 125.362 276.012 125.362C274.78 125.362 273.783 124.364 273.783 123.134C273.783 121.903 274.78 120.905 276.012 120.905Z" fill="#289DF2"/>
<path d="M264.679 95.5025C265.909 95.5025 266.907 96.5005 266.907 97.7315C266.907 98.9615 265.909 99.9595 264.679 99.9595C263.447 99.9595 262.449 98.9615 262.449 97.7315C262.449 96.5005 263.448 95.5025 264.679 95.5025Z" fill="#289DF2"/>
<path d="M229.945 76.1563C231.175 76.1563 232.174 77.1543 232.174 78.3853C232.174 79.6153 231.176 80.6133 229.945 80.6133C228.714 80.6133 227.715 79.6153 227.715 78.3853C227.715 77.1543 228.713 76.1563 229.945 76.1563Z" fill="#289DF2"/>
<path d="M209.733 123.134C210.963 123.134 211.962 124.132 211.962 125.363C211.962 126.594 210.964 127.592 209.733 127.592C208.502 127.592 207.504 126.594 207.504 125.363C207.503 124.133 208.501 123.134 209.733 123.134Z" fill="#289DF2"/>
<path d="M183.233 141.883C184.463 141.883 185.462 142.881 185.462 144.112C185.462 145.343 184.464 146.341 183.233 146.341C182.002 146.341 181.004 145.343 181.004 144.112C181.003 142.882 182.001 141.883 183.233 141.883Z" fill="#289DF2"/>
<path d="M181.004 180.738C182.234 180.738 183.233 181.736 183.233 182.968C183.233 184.198 182.235 185.196 181.004 185.196C179.773 185.196 178.775 184.198 178.775 182.968C178.775 181.736 179.773 180.738 181.004 180.738Z" fill="#289DF2"/>
<path d="M185.461 198.104C186.691 198.104 187.69 199.101 187.69 200.333C187.69 201.563 186.692 202.562 185.461 202.562C184.23 202.562 183.232 201.564 183.232 200.333C183.232 199.101 184.23 198.104 185.461 198.104Z" fill="#289DF2"/>
<path d="M166.316 180.738C167.546 180.738 168.545 181.736 168.545 182.968C168.545 184.198 167.547 185.196 166.316 185.196C165.085 185.196 164.086 184.198 164.086 182.968C164.086 181.736 165.084 180.738 166.316 180.738Z" fill="#289DF2"/>
<path d="M156.565 157.697C157.795 157.697 158.794 158.695 158.794 159.927C158.794 161.157 157.796 162.155 156.565 162.155C155.334 162.155 154.336 161.157 154.336 159.927C154.335 158.695 155.333 157.697 156.565 157.697Z" fill="#289DF2"/>
<path d="M137.9 141.883C139.13 141.883 140.129 142.881 140.129 144.112C140.129 145.343 139.131 146.341 137.9 146.341C136.668 146.341 135.67 145.343 135.67 144.112C135.67 142.882 136.668 141.883 137.9 141.883Z" fill="#289DF2"/>
<path d="M156.149 109.655C157.379 109.655 158.378 110.653 158.378 111.884C158.378 113.114 157.38 114.112 156.149 114.112C154.918 114.112 153.92 113.114 153.92 111.884C153.919 110.653 154.917 109.655 156.149 109.655Z" fill="#289DF2"/>
<path d="M134.982 103.155C136.212 103.155 137.211 104.153 137.211 105.384C137.211 106.614 136.213 107.612 134.982 107.612C133.751 107.612 132.752 106.614 132.752 105.384C132.752 104.153 133.75 103.155 134.982 103.155Z" fill="#289DF2"/>
<path d="M125.899 84.3225C127.129 84.3225 128.128 85.3205 128.128 86.5525C128.128 87.7825 127.13 88.7805 125.899 88.7805C124.668 88.7805 123.67 87.7825 123.67 86.5525C123.669 85.3205 124.667 84.3225 125.899 84.3225Z" fill="#289DF2"/>
<path d="M147.086 61.4695C148.316 61.4695 149.315 62.4675 149.315 63.6985C149.315 64.9285 148.317 65.9275 147.086 65.9275C145.855 65.9275 144.857 64.9295 144.857 63.6985C144.857 62.4675 145.855 61.4695 147.086 61.4695Z" fill="#289DF2"/>
<path d="M182.691 50.8025C183.921 50.8025 184.92 51.8005 184.92 53.0315C184.92 54.2615 183.922 55.2595 182.691 55.2595C181.46 55.2595 180.461 54.2615 180.461 53.0315C180.461 51.8005 181.459 50.8025 182.691 50.8025Z" fill="#289DF2"/>
<path d="M199.127 78.3843C200.357 78.3843 201.356 79.3823 201.356 80.6133C201.356 81.8443 200.358 82.8423 199.127 82.8423C197.896 82.8423 196.898 81.8443 196.898 80.6133C196.898 79.3833 197.896 78.3843 199.127 78.3843Z" fill="#289DF2"/>
<path d="M260.221 44.5684C261.451 44.5684 262.449 45.5664 262.449 46.7984C262.449 48.0284 261.451 49.0264 260.221 49.0264C258.989 49.0264 257.992 48.0284 257.992 46.7984C257.992 45.5664 258.99 44.5684 260.221 44.5684Z" fill="#289DF2"/>
<path d="M234.649 27.0054C235.879 27.0054 236.878 28.0034 236.878 29.2344C236.878 30.4644 235.88 31.4624 234.649 31.4624C233.418 31.4624 232.42 30.4644 232.42 29.2344C232.419 28.0034 233.417 27.0054 234.649 27.0054Z" fill="#289DF2"/>
<path d="M227.377 40.1104C228.607 40.1104 229.606 41.1084 229.606 42.3394C229.606 43.5694 228.608 44.5674 227.377 44.5674C226.146 44.5674 225.148 43.5694 225.148 42.3394C225.148 41.1084 226.146 40.1104 227.377 40.1104Z" fill="#289DF2"/>
<path d="M202.137 14.5185C203.367 14.5185 204.366 15.5164 204.366 16.7474C204.366 17.9774 203.368 18.9755 202.137 18.9755C200.905 18.9755 199.908 17.9774 199.908 16.7474C199.908 15.5164 200.905 14.5185 202.137 14.5185Z" fill="#289DF2"/>
<path d="M232.42 2.41638C233.65 2.41638 234.649 3.41439 234.649 4.64539C234.649 5.87539 233.651 6.87439 232.42 6.87439C231.189 6.87439 230.191 5.87639 230.191 4.64539C230.191 3.41439 231.189 2.41638 232.42 2.41638Z" fill="#289DF2"/>
<path d="M261.65 9.58243C262.88 9.58243 263.878 10.5804 263.878 11.8124C263.878 13.0424 262.88 14.0404 261.65 14.0404C260.419 14.0404 259.42 13.0424 259.42 11.8124C259.42 10.5804 260.418 9.58243 261.65 9.58243Z" fill="#289DF2"/>
<path d="M284.21 0.186432C285.44 0.186432 286.438 1.18441 286.438 2.41541C286.438 3.64541 285.44 4.64441 284.21 4.64441C282.979 4.64441 281.98 3.64641 281.98 2.41541C281.981 1.18441 282.979 0.186432 284.21 0.186432Z" fill="#289DF2"/>
<path d="M113.483 59.2395C114.713 59.2395 115.712 60.2375 115.712 61.4695C115.712 62.6995 114.714 63.6975 113.483 63.6975C112.252 63.6975 111.254 62.6995 111.254 61.4695C111.253 60.2375 112.251 59.2395 113.483 59.2395Z" fill="#289DF2"/>
<path d="M109.733 104.803C110.963 104.803 111.961 105.801 111.961 107.032C111.961 108.262 110.963 109.26 109.733 109.26C108.502 109.26 107.504 108.262 107.504 107.032C107.503 105.801 108.501 104.803 109.733 104.803Z" fill="#289DF2"/>
<path d="M120.383 139.969C121.613 139.969 122.612 140.967 122.612 142.198C122.612 143.428 121.614 144.427 120.383 144.427C119.152 144.427 118.154 143.429 118.154 142.198C118.154 140.967 119.152 139.969 120.383 139.969Z" fill="#289DF2"/>
<path d="M94.6196 159.094C95.8496 159.094 96.8486 160.092 96.8486 161.323C96.8486 162.553 95.8506 163.552 94.6196 163.552C93.3886 163.552 92.3906 162.554 92.3906 161.323C92.3906 160.092 93.3886 159.094 94.6196 159.094Z" fill="#289DF2"/>
<path d="M109.026 176.28C110.256 176.28 111.255 177.278 111.255 178.51C111.255 179.74 110.257 180.74 109.026 180.74C107.794 180.74 106.797 179.741 106.797 178.51C106.796 177.278 107.794 176.28 109.026 176.28Z" fill="#289DF2"/>
<path d="M101.276 195.439C102.506 195.439 103.505 196.437 103.505 197.669C103.505 198.899 102.507 199.898 101.276 199.898C100.044 199.898 99.0469 198.9 99.0469 197.669C99.0459 196.437 100.044 195.439 101.276 195.439Z" fill="#289DF2"/>
<path d="M116.71 198.104C117.94 198.104 118.939 199.101 118.939 200.333C118.939 201.563 117.941 202.562 116.71 202.562C115.479 202.562 114.48 201.564 114.48 200.333C114.481 199.101 115.479 198.104 116.71 198.104Z" fill="#289DF2"/>
<path d="M125.899 169.531C127.129 169.531 128.128 170.529 128.128 171.761C128.128 172.991 127.13 173.99 125.899 173.99C124.668 173.99 123.67 172.992 123.67 171.761C123.669 170.529 124.667 169.531 125.899 169.531Z" fill="#289DF2"/>
<path d="M144.858 183.656C146.088 183.656 147.087 184.654 147.087 185.886C147.087 187.116 146.089 188.115 144.858 188.115C143.627 188.115 142.629 187.117 142.629 185.886C142.628 184.654 143.626 183.656 144.858 183.656Z" fill="#289DF2"/>
<path d="M137.901 231.359C139.131 231.359 140.13 232.357 140.13 233.588C140.13 234.818 139.132 235.817 137.901 235.817C136.67 235.817 135.672 234.819 135.672 233.588C135.671 232.357 136.669 231.359 137.901 231.359Z" fill="#289DF2"/>
<path d="M146.185 279.902C147.415 279.902 148.414 280.9 148.414 282.131C148.414 283.361 147.416 284.36 146.185 284.36C144.954 284.36 143.955 283.362 143.955 282.131C143.955 280.9 144.953 279.902 146.185 279.902Z" fill="#289DF2"/>
<path d="M125.276 251.072C126.506 251.072 127.505 252.07 127.505 253.302C127.505 254.532 126.507 255.53 125.276 255.53C124.045 255.53 123.047 254.532 123.047 253.302C123.046 252.07 124.044 251.072 125.276 251.072Z" fill="#289DF2"/>
<path d="M165.06 239.572C166.29 239.572 167.289 240.57 167.289 241.802C167.289 243.032 166.291 244.03 165.06 244.03C163.829 244.03 162.83 243.032 162.83 241.802C162.83 240.57 163.828 239.572 165.06 239.572Z" fill="#289DF2"/>
<path d="M185.461 289.323C186.691 289.323 187.69 290.321 187.69 291.552C187.69 292.782 186.692 293.781 185.461 293.781C184.23 293.781 183.232 292.783 183.232 291.552C183.232 290.321 184.23 289.323 185.461 289.323Z" fill="#289DF2"/>
<path d="M196.899 314.573C198.129 314.573 199.128 315.571 199.128 316.802C199.128 318.032 198.13 319.031 196.899 319.031C195.668 319.031 194.67 318.033 194.67 316.802C194.669 315.571 195.667 314.573 196.899 314.573Z" fill="#289DF2"/>
<path d="M217.35 303.198C218.58 303.198 219.579 304.196 219.579 305.427C219.579 306.657 218.581 307.656 217.35 307.656C216.119 307.656 215.121 306.658 215.121 305.427C215.12 304.196 216.118 303.198 217.35 303.198Z" fill="#289DF2"/>
<path d="M231.733 321.951C232.963 321.951 233.962 322.949 233.962 324.18C233.962 325.41 232.964 326.409 231.733 326.409C230.502 326.409 229.504 325.411 229.504 324.18C229.503 322.949 230.501 321.951 231.733 321.951Z" fill="#289DF2"/>
<path d="M248.045 307.655C249.275 307.655 250.274 308.653 250.274 309.884C250.274 311.114 249.276 312.113 248.045 312.113C246.814 312.113 245.816 311.115 245.816 309.884C245.816 308.653 246.814 307.655 248.045 307.655Z" fill="#289DF2"/>
<path d="M282.67 324.952C283.9 324.952 284.899 325.95 284.899 327.181C284.899 328.411 283.901 329.41 282.67 329.41C281.439 329.41 280.441 328.412 280.441 327.181C280.441 325.95 281.439 324.952 282.67 324.952Z" fill="#289DF2"/>
<path d="M287.909 310.985C289.139 310.985 290.137 311.983 290.137 313.214C290.137 314.444 289.139 315.443 287.909 315.443C286.677 315.443 285.68 314.445 285.68 313.214C285.679 311.983 286.677 310.985 287.909 310.985Z" fill="#289DF2"/>
<path d="M274.473 283.639C275.703 283.639 276.702 284.637 276.702 285.868C276.702 287.098 275.704 288.097 274.473 288.097C273.242 288.097 272.244 287.099 272.244 285.868C272.243 284.637 273.242 283.639 274.473 283.639Z" fill="#289DF2"/>
<path d="M304.847 261.903C306.077 261.903 307.075 262.901 307.075 264.132C307.075 265.362 306.077 266.361 304.847 266.361C303.615 266.361 302.617 265.363 302.617 264.132C302.617 262.901 303.616 261.903 304.847 261.903Z" fill="#289DF2"/>
<path d="M319.07 289.405C320.3 289.405 321.298 290.403 321.298 291.634C321.298 292.864 320.3 293.863 319.07 293.863C317.839 293.863 316.84 292.865 316.84 291.634C316.84 290.403 317.838 289.405 319.07 289.405Z" fill="#289DF2"/>
<path d="M316.32 316.909C317.55 316.909 318.548 317.907 318.548 319.138C318.548 320.368 317.55 321.367 316.32 321.367C315.089 321.367 314.09 320.369 314.09 319.138C314.09 317.907 315.088 316.909 316.32 316.909Z" fill="#289DF2"/>
<path d="M354.695 303.534C355.925 303.534 356.923 304.532 356.923 305.763C356.923 306.993 355.925 307.992 354.695 307.992C353.464 307.992 352.465 306.994 352.465 305.763C352.465 304.532 353.463 303.534 354.695 303.534Z" fill="#289DF2"/>
<path d="M334.945 272.69C336.175 272.69 337.173 273.688 337.173 274.919C337.173 276.149 336.175 277.148 334.945 277.148C333.714 277.148 332.715 276.15 332.715 274.919C332.715 273.688 333.713 272.69 334.945 272.69Z" fill="#289DF2"/>
<path d="M94.6196 118.53C95.8496 118.53 96.8486 119.528 96.8486 120.759C96.8486 121.989 95.8506 122.987 94.6196 122.987C93.3886 122.987 92.3906 121.989 92.3906 120.759C92.3906 119.528 93.3886 118.53 94.6196 118.53Z" fill="#289DF2"/>
<path d="M154.731 21.4064C155.961 21.4064 156.96 22.4044 156.96 23.6354C156.96 24.8654 155.962 25.8634 154.731 25.8634C153.5 25.8634 152.502 24.8654 152.502 23.6354C152.501 22.4044 153.499 21.4064 154.731 21.4064Z" fill="#289DF2"/>
<path d="M167.149 -3.84357C168.379 -3.84357 169.378 -2.84559 169.378 -1.61459C169.378 -0.384593 168.38 0.613403 167.149 0.613403C165.918 0.613403 164.92 -0.384593 164.92 -1.61459C164.919 -2.84559 165.917 -3.84357 167.149 -3.84357Z" fill="#289DF2"/>
<path d="M132.752 29.9694C133.982 29.9694 134.981 30.9674 134.981 32.1984C134.981 33.4284 133.983 34.4274 132.752 34.4274C131.521 34.4274 130.523 33.4294 130.523 32.1984C130.523 30.9674 131.521 29.9694 132.752 29.9694Z" fill="#289DF2"/>
<path d="M281.116 155.155C282.346 155.155 283.344 156.153 283.344 157.385C283.344 158.615 282.346 159.615 281.116 159.615C279.885 159.615 278.887 158.616 278.887 157.385C278.886 156.153 279.884 155.155 281.116 155.155Z" fill="#289DF2"/>
</svg>
