<svg width="401" height="338" viewBox="0 0 401 338" fill="none" xmlns="http://www.w3.org/2000/svg">
<path d="M314.295 171.64C361.692 171.64 400.115 133.217 400.115 85.82C400.115 38.4229 361.692 0 314.295 0C266.898 0 228.475 38.4229 228.475 85.82C228.475 133.217 266.898 171.64 314.295 171.64Z" fill="#E5F1FF"/>
<path d="M128.637 302.204C148.225 282.615 148.225 250.856 128.637 231.268C109.048 211.679 77.2891 211.679 57.7006 231.268C38.112 250.856 38.112 282.615 57.7006 302.204C77.2891 321.792 109.048 321.792 128.637 302.204Z" fill="#E5F1FF"/>
<path d="M92.5025 28.6099C67.1765 28.6099 46.6465 49.1409 46.6465 74.4669C46.6465 99.7929 67.1775 120.324 92.5025 120.324C117.828 120.324 138.359 99.7929 138.359 74.4669C138.358 49.1409 117.827 28.6099 92.5025 28.6099ZM92.5025 103.785C76.3105 103.785 63.1845 90.6589 63.1845 74.4669C63.1845 58.2749 76.3105 45.1489 92.5025 45.1489C108.694 45.1489 121.82 58.2749 121.82 74.4669C121.82 90.6589 108.693 103.785 92.5025 103.785Z" fill="#A9CCEA"/>
<path d="M265.751 321.791C265.751 324.697 263.395 327.053 260.489 327.053H127.43C124.524 327.053 122.168 324.697 122.168 321.791C122.168 318.885 124.524 316.529 127.43 316.529H174.665L181.18 304.501H192.456H195.463H206.739L213.254 316.529H260.489C263.395 316.529 265.751 318.885 265.751 321.791Z" fill="#0F3157"/>
<path d="M203.762 293.601H181.961V299.991H203.762V293.601Z" fill="#FF4D6B"/>
<path d="M203.762 283.076H181.961V289.466H203.762V283.076Z" fill="#FF4D6B"/>
<path d="M366.437 261.452C362.645 262.908 358.527 263.705 354.223 263.705C335.395 263.705 320.131 248.442 320.131 229.613C320.131 210.784 335.394 195.521 354.223 195.521C373.051 195.521 388.314 210.784 388.314 229.613C388.314 234.658 387.218 239.447 385.252 243.755" stroke="#FF4D6B" stroke-width="1.1276" stroke-miterlimit="10" stroke-linecap="round" stroke-linejoin="round"/>
<path d="M270.177 69.562H264.734C263.604 64.726 261.702 60.189 259.155 56.09L263.003 52.242C264.662 50.583 264.662 47.893 263.003 46.234L254.453 37.684C252.794 36.025 250.104 36.025 248.445 37.684L244.597 41.531C240.499 38.984 235.962 37.082 231.126 35.953V30.51C231.126 28.164 229.224 26.262 226.878 26.262H214.787C212.441 26.262 210.539 28.164 210.539 30.51V35.953C205.703 37.082 201.166 38.985 197.067 41.531L193.219 37.684C191.56 36.025 188.87 36.025 187.211 37.684L178.662 46.234C177.003 47.893 177.003 50.583 178.662 52.242L182.51 56.09C179.963 60.188 178.061 64.725 176.931 69.562H171.488C169.142 69.562 167.24 71.464 167.24 73.81V85.901C167.24 88.247 169.142 90.149 171.488 90.149H176.931C178.06 94.985 179.963 99.522 182.509 103.621L178.662 107.469C177.003 109.128 177.003 111.818 178.662 113.477L187.211 122.027C188.87 123.686 191.56 123.686 193.219 122.027L197.067 118.18C201.165 120.727 205.702 122.629 210.539 123.759V129.202C210.539 131.548 212.441 133.45 214.787 133.45H226.878C229.224 133.45 231.126 131.548 231.126 129.202V123.759C235.962 122.629 240.499 120.727 244.598 118.18L248.446 122.027C250.105 123.686 252.795 123.686 254.454 122.027L263.004 113.477C264.663 111.818 264.663 109.128 263.004 107.469L259.156 103.621C261.703 99.523 263.605 94.986 264.735 90.149H270.178C272.524 90.149 274.426 88.247 274.426 85.901V73.81C274.425 71.463 272.523 69.562 270.177 69.562ZM220.833 101.423C208.922 101.423 199.266 91.767 199.266 79.855C199.266 67.944 208.922 58.288 220.833 58.288C232.744 58.288 242.401 67.944 242.401 79.855C242.401 91.767 232.745 101.423 220.833 101.423Z" fill="#289DF2"/>
<path d="M44.1838 280.204C37.8508 280.204 32.7168 275.07 32.7168 268.736V89.2729C32.7168 82.9389 37.8508 77.8049 44.1848 77.8049H343.733C350.066 77.8049 355.201 82.9389 355.201 89.2719V268.735C355.201 275.068 350.067 280.203 343.733 280.203H44.1838V280.204Z" fill="#0F3775"/>
<path d="M89.4955 102.845H56.2305V110.175H89.4955V102.845Z" fill="#284D89"/>
<path d="M129.527 102.845H96.2617V110.175H129.527V102.845Z" fill="#284D89"/>
<path d="M231.011 102.845H197.746V110.175H231.011V102.845Z" fill="#284D89"/>
<path d="M332.497 102.845H299.232V110.175H332.497V102.845Z" fill="#284D89"/>
<path d="M193.517 102.845H134.035V110.175H193.517V102.845Z" fill="#FF4D6B"/>
<path d="M294.439 102.845H234.957V110.175H294.439V102.845Z" fill="#2889DB"/>
<path d="M62.2459 97.019H56.4199V100.59H62.2459V97.019Z" fill="#2889DB"/>
<path d="M117.217 116.189H56.4199V119.76H117.217V116.189Z" fill="white"/>
<path d="M74.4619 122.485H56.4199V126.056H74.4619V122.485Z" fill="white"/>
<path d="M120.787 254.51H64.4059C60.2019 254.51 56.7949 251.102 56.7949 246.899V144.849C56.7949 140.645 60.2029 137.238 64.4059 137.238H120.787C124.991 137.238 128.398 140.646 128.398 144.849V246.899C128.398 251.102 124.991 254.51 120.787 254.51Z" fill="#284D89"/>
<path d="M89.7784 154.434H65.8164V158.099H89.7784V154.434Z" fill="white"/>
<path d="M89.7784 162.609H65.8164V166.274H89.7784V162.609Z" fill="white"/>
<path d="M89.7784 170.784H65.8164V174.449H89.7784V170.784Z" fill="white"/>
<path d="M80.4754 204.895H65.8164V208.56H80.4754V204.895Z" fill="white"/>
<path d="M80.4754 213.07H65.8164V216.735H80.4754V213.07Z" fill="white"/>
<path d="M105.657 213.07H90.998V216.735H105.657V213.07Z" fill="white"/>
<path d="M75.0254 195.592H65.8164V199.257H75.0254V195.592Z" fill="white"/>
<path d="M110.167 195.592H105.281V199.257H110.167V195.592Z" fill="white"/>
<path d="M103.403 195.592H78.2188V199.257H103.403V195.592Z" fill="#FF4D6B"/>
<path d="M69.3404 181.779H65.8164V185.444H69.3404V181.779Z" fill="#2889DB"/>
<path d="M69.3404 188.262H65.8164V191.927H69.3404V188.262Z" fill="#FF4D6B"/>
<path d="M85.3609 217.487H84.0449L87.1929 212.788H88.5089L85.3609 217.487Z" fill="white"/>
<path d="M120.224 223.782H65.8164V226.883H120.224V223.782Z" fill="#282E5C"/>
<path d="M120.224 230.83H65.8164V233.931H120.224V230.83Z" fill="#282E5C"/>
<path d="M381.925 185.725H232.327C228.59 185.725 225.561 182.696 225.561 178.959V138.365C225.561 134.628 228.59 131.599 232.327 131.599H381.925C385.662 131.599 388.691 134.628 388.691 138.365V178.959C388.69 182.696 385.661 185.725 381.925 185.725Z" fill="#289DF2"/>
<path d="M274.049 166.556C274.049 166.556 282.318 146.259 305.998 151.145C329.678 156.031 341.706 182.718 372.152 160.918" stroke="white" stroke-width="1.1276" stroke-miterlimit="10"/>
<path d="M350.727 167.683H347.344V171.066H350.727V167.683Z" fill="#289DF2" stroke="white" stroke-width="1.1276" stroke-miterlimit="10"/>
<path d="M278.184 150.205H321.033" stroke="white" stroke-width="0.5638" stroke-miterlimit="10"/>
<path d="M327.611 170.315H370.461" stroke="white" stroke-width="0.5638" stroke-miterlimit="10"/>
<path d="M299.61 148.514H296.227V151.897H299.61V148.514Z" fill="#289DF2" stroke="white" stroke-width="1.1276" stroke-miterlimit="10"/>
<path d="M254.129 199.633H221.804C219.105 199.633 216.918 197.445 216.918 194.747V146.259C216.918 143.56 219.106 141.373 221.804 141.373H254.129C256.828 141.373 259.015 143.561 259.015 146.259V194.747C259.015 197.445 256.828 199.633 254.129 199.633Z" fill="#284D89"/>
<path d="M247.456 149.642H223.494V152.946H247.456V149.642Z" fill="white"/>
<path d="M247.456 157.011H223.494V160.315H247.456V157.011Z" fill="white"/>
<path d="M232.515 164.381H223.494V167.685H232.515V164.381Z" fill="white"/>
<path d="M239.093 172.005H223.494V175.309H239.093V172.005Z" fill="#289DF2"/>
<path d="M234.018 179.375H223.494V182.679H234.018V179.375Z" fill="#289DF2"/>
<path d="M234.018 186.744H223.494V190.048H234.018V186.744Z" fill="white"/>
<path d="M362.379 124.27H379.294" stroke="#284D89" stroke-width="2.2552" stroke-miterlimit="10" stroke-linecap="round" stroke-linejoin="round"/>
<path d="M324.375 219.709L318.537 224.278L310.161 225.801C310.161 225.801 302.293 225.293 301.531 225.293C300.77 225.293 295.44 220.978 295.44 220.978L285.541 217.425L278.688 219.963L270.566 218.186L258.383 217.424L246.708 221.993L237.063 223.516L228.433 226.308L218.788 227.07L208.382 218.948L198.737 217.171L188.838 222.755L180.97 225.293L172.037 225.039L160.779 231.892H154.066L142.729 235.868" stroke="#FF5C66" stroke-width="1.0152" stroke-miterlimit="10"/>
<path d="M142.898 236.038H324.627" stroke="#F7F7F7" stroke-width="0.2538" stroke-miterlimit="10"/>
<path d="M142.984 233.753H141.123V238.322H142.984V233.753Z" fill="#F7F7F7"/>
<path d="M325.39 233.753H323.529V238.322H325.39V233.753Z" fill="#F7F7F7"/>
<path d="M324.459 236.038V220.724" stroke="#F7F7F7" stroke-width="0.2538" stroke-miterlimit="10"/>
<path d="M325.474 219.963C325.474 220.757 324.83 221.401 324.036 221.401C323.242 221.401 322.598 220.757 322.598 219.963C322.598 219.169 323.242 218.525 324.036 218.525C324.83 218.525 325.474 219.169 325.474 219.963Z" fill="#F7F7F7"/>
<path d="M143.868 246.633V240.726H144.548V242.907H144.606C144.656 242.83 144.725 242.732 144.814 242.612C144.904 242.491 145.033 242.384 145.2 242.289C145.369 242.193 145.598 242.145 145.887 242.145C146.26 242.145 146.588 242.238 146.873 242.425C147.158 242.611 147.38 242.876 147.539 243.218C147.699 243.56 147.779 243.964 147.779 244.43C147.779 244.899 147.699 245.305 147.539 245.65C147.38 245.992 147.159 246.257 146.876 246.446C146.593 246.632 146.267 246.725 145.898 246.725C145.614 246.725 145.386 246.678 145.215 246.584C145.043 246.488 144.912 246.379 144.819 246.258C144.727 246.135 144.656 246.033 144.606 245.952H144.525V246.633H143.868ZM144.537 244.418C144.537 244.753 144.586 245.048 144.684 245.303C144.782 245.557 144.925 245.756 145.114 245.9C145.302 246.043 145.533 246.114 145.806 246.114C146.09 246.114 146.328 246.039 146.518 245.889C146.711 245.737 146.855 245.533 146.951 245.277C147.049 245.02 147.098 244.733 147.098 244.418C147.098 244.106 147.05 243.826 146.954 243.576C146.86 243.324 146.716 243.125 146.524 242.979C146.334 242.831 146.094 242.757 145.806 242.757C145.529 242.757 145.296 242.827 145.108 242.967C144.919 243.106 144.777 243.3 144.681 243.55C144.585 243.798 144.537 244.087 144.537 244.418ZM150.677 246.725C150.25 246.725 149.882 246.631 149.573 246.443C149.265 246.252 149.028 245.987 148.86 245.647C148.695 245.304 148.612 244.906 148.612 244.453C148.612 243.999 148.695 243.599 148.86 243.253C149.028 242.905 149.26 242.634 149.558 242.439C149.858 242.243 150.208 242.145 150.608 242.145C150.839 242.145 151.067 242.184 151.292 242.261C151.517 242.337 151.721 242.462 151.906 242.636C152.091 242.807 152.238 243.034 152.347 243.316C152.457 243.599 152.512 243.947 152.512 244.36V244.649H149.097V244.06H151.819C151.819 243.81 151.769 243.587 151.669 243.391C151.571 243.195 151.431 243.04 151.248 242.927C151.068 242.813 150.854 242.757 150.608 242.757C150.337 242.757 150.102 242.824 149.904 242.959C149.708 243.091 149.557 243.264 149.452 243.478C149.346 243.691 149.293 243.92 149.293 244.164V244.556C149.293 244.891 149.351 245.175 149.466 245.407C149.583 245.638 149.746 245.814 149.953 245.935C150.161 246.054 150.402 246.114 150.677 246.114C150.856 246.114 151.018 246.089 151.162 246.039C151.308 245.987 151.434 245.91 151.54 245.808C151.645 245.704 151.727 245.576 151.785 245.422L152.442 245.606C152.373 245.829 152.257 246.025 152.093 246.195C151.93 246.362 151.728 246.493 151.488 246.587C151.247 246.679 150.977 246.725 150.677 246.725ZM155.474 242.203V242.78H153.178V242.203H155.474ZM153.847 241.141H154.528V245.364C154.528 245.556 154.556 245.7 154.611 245.797C154.669 245.891 154.742 245.954 154.831 245.987C154.921 246.018 155.016 246.033 155.116 246.033C155.191 246.033 155.253 246.029 155.301 246.022C155.349 246.012 155.387 246.004 155.416 245.999L155.555 246.61C155.508 246.627 155.444 246.645 155.361 246.662C155.279 246.681 155.174 246.691 155.047 246.691C154.855 246.691 154.666 246.649 154.482 246.567C154.299 246.484 154.147 246.358 154.026 246.189C153.907 246.02 153.847 245.806 153.847 245.549V241.141ZM157.801 246.737C157.521 246.737 157.266 246.684 157.037 246.578C156.808 246.471 156.627 246.316 156.492 246.114C156.357 245.91 156.29 245.664 156.29 245.376C156.29 245.122 156.34 244.916 156.44 244.758C156.54 244.599 156.674 244.474 156.841 244.383C157.008 244.293 157.193 244.226 157.395 244.181C157.599 244.135 157.803 244.099 158.009 244.072C158.278 244.037 158.496 244.011 158.664 243.994C158.833 243.975 158.956 243.943 159.033 243.899C159.112 243.855 159.151 243.778 159.151 243.668V243.645C159.151 243.36 159.073 243.139 158.918 242.982C158.764 242.824 158.53 242.745 158.217 242.745C157.892 242.745 157.637 242.816 157.452 242.959C157.268 243.101 157.138 243.253 157.063 243.414L156.417 243.184C156.532 242.914 156.686 242.705 156.878 242.555C157.073 242.403 157.284 242.297 157.513 242.237C157.744 242.176 157.971 242.145 158.194 242.145C158.336 242.145 158.499 242.162 158.684 242.197C158.87 242.23 159.05 242.298 159.223 242.402C159.398 242.506 159.543 242.662 159.659 242.872C159.774 243.082 159.832 243.362 159.832 243.714V246.633H159.151V246.033H159.117C159.07 246.129 158.994 246.232 158.886 246.342C158.778 246.451 158.635 246.545 158.456 246.622C158.277 246.698 158.059 246.737 157.801 246.737ZM157.905 246.125C158.174 246.125 158.401 246.073 158.586 245.967C158.772 245.861 158.913 245.725 159.007 245.557C159.103 245.39 159.151 245.214 159.151 245.029V244.406C159.122 244.441 159.059 244.473 158.961 244.502C158.865 244.529 158.753 244.553 158.626 244.574C158.501 244.593 158.379 244.61 158.26 244.626C158.143 244.639 158.047 244.651 157.974 244.66C157.798 244.683 157.632 244.721 157.478 244.773C157.326 244.823 157.203 244.899 157.109 245.001C157.017 245.101 156.971 245.237 156.971 245.41C156.971 245.647 157.058 245.825 157.233 245.947C157.41 246.066 157.634 246.125 157.905 246.125ZM165.285 242.203V242.78H162.989V242.203H165.285ZM163.659 241.141H164.339V245.364C164.339 245.556 164.367 245.7 164.423 245.797C164.481 245.891 164.554 245.954 164.642 245.987C164.732 246.018 164.828 246.033 164.928 246.033C165.003 246.033 165.064 246.029 165.112 246.022C165.16 246.012 165.199 246.004 165.228 245.999L165.366 246.61C165.32 246.627 165.255 246.645 165.173 246.662C165.09 246.681 164.985 246.691 164.858 246.691C164.666 246.691 164.478 246.649 164.293 246.567C164.11 246.484 163.958 246.358 163.837 246.189C163.718 246.02 163.659 245.806 163.659 245.549V241.141ZM168.119 246.725C167.692 246.725 167.324 246.631 167.014 246.443C166.707 246.252 166.469 245.987 166.302 245.647C166.137 245.304 166.054 244.906 166.054 244.453C166.054 243.999 166.137 243.599 166.302 243.253C166.469 242.905 166.702 242.634 167 242.439C167.3 242.243 167.65 242.145 168.05 242.145C168.281 242.145 168.508 242.184 168.733 242.261C168.958 242.337 169.163 242.462 169.348 242.636C169.532 242.807 169.679 243.034 169.789 243.316C169.899 243.599 169.953 243.947 169.953 244.36V244.649H166.538V244.06H169.261C169.261 243.81 169.211 243.587 169.111 243.391C169.013 243.195 168.873 243.04 168.69 242.927C168.509 242.813 168.296 242.757 168.05 242.757C167.779 242.757 167.544 242.824 167.346 242.959C167.15 243.091 166.999 243.264 166.893 243.478C166.787 243.691 166.735 243.92 166.735 244.164V244.556C166.735 244.891 166.792 245.175 166.908 245.407C167.025 245.638 167.187 245.814 167.395 245.935C167.603 246.054 167.844 246.114 168.119 246.114C168.298 246.114 168.459 246.089 168.604 246.039C168.75 245.987 168.876 245.91 168.981 245.808C169.087 245.704 169.169 245.576 169.227 245.422L169.884 245.606C169.815 245.829 169.699 246.025 169.535 246.195C169.372 246.362 169.17 246.493 168.929 246.587C168.689 246.679 168.419 246.725 168.119 246.725ZM174.127 243.195L173.515 243.368C173.477 243.266 173.42 243.167 173.345 243.071C173.272 242.973 173.172 242.892 173.045 242.829C172.918 242.765 172.756 242.734 172.558 242.734C172.287 242.734 172.061 242.796 171.88 242.921C171.701 243.044 171.612 243.201 171.612 243.391C171.612 243.56 171.673 243.694 171.796 243.792C171.919 243.89 172.112 243.972 172.373 244.037L173.031 244.199C173.427 244.295 173.722 244.442 173.916 244.64C174.11 244.836 174.208 245.089 174.208 245.399C174.208 245.652 174.135 245.879 173.988 246.079C173.844 246.279 173.642 246.437 173.383 246.552C173.123 246.668 172.821 246.725 172.477 246.725C172.025 246.725 171.651 246.627 171.355 246.431C171.059 246.235 170.872 245.949 170.793 245.572L171.439 245.41C171.5 245.649 171.617 245.827 171.788 245.947C171.961 246.066 172.187 246.125 172.466 246.125C172.783 246.125 173.035 246.058 173.221 245.924C173.41 245.787 173.504 245.624 173.504 245.433C173.504 245.279 173.45 245.151 173.342 245.047C173.235 244.941 173.069 244.862 172.846 244.81L172.108 244.637C171.702 244.541 171.404 244.392 171.214 244.19C171.025 243.986 170.931 243.732 170.931 243.426C170.931 243.176 171.001 242.955 171.142 242.762C171.284 242.57 171.477 242.419 171.721 242.31C171.968 242.2 172.246 242.145 172.558 242.145C172.996 242.145 173.34 242.241 173.59 242.434C173.842 242.626 174.021 242.88 174.127 243.195ZM177.159 242.203V242.78H174.863V242.203H177.159ZM175.532 241.141H176.213V245.364C176.213 245.556 176.241 245.7 176.297 245.797C176.354 245.891 176.427 245.954 176.516 245.987C176.606 246.018 176.701 246.033 176.801 246.033C176.876 246.033 176.938 246.029 176.986 246.022C177.034 246.012 177.072 246.004 177.101 245.999L177.24 246.61C177.194 246.627 177.129 246.645 177.046 246.662C176.964 246.681 176.859 246.691 176.732 246.691C176.54 246.691 176.351 246.649 176.167 246.567C175.984 246.484 175.832 246.358 175.711 246.189C175.592 246.02 175.532 245.806 175.532 245.549V241.141Z" fill="#F7F7F7"/>
<path d="M297.894 242.637H184.863V244.667H297.894V242.637Z" fill="#28385E"/>
<path d="M254.238 242.637H184.863V244.667H254.238V242.637Z" fill="#FF4D6B"/>
<path d="M240.448 246.528H184.863V248.558H240.448V246.528Z" fill="#28385E"/>
<path d="M149.624 252.578H156.477L157.366 250.674H143.533V253.847H148.355L149.624 252.578Z" fill="#FF4D6B"/>
<path d="M163.828 250.653H163.066V251.414H163.828V250.653Z" fill="#F7F7F7"/>
<path d="M168.554 250.653H167.793V251.414H168.554V250.653Z" fill="#F7F7F7"/>
<path d="M173.282 250.653H172.52V251.414H173.282V250.653Z" fill="#F7F7F7"/>
<path d="M318.032 214.847C317.693 214.847 317.388 214.779 317.117 214.645C316.846 214.51 316.629 214.326 316.465 214.091C316.302 213.856 316.213 213.589 316.197 213.289H316.889C316.916 213.556 317.037 213.778 317.253 213.953C317.47 214.126 317.73 214.212 318.032 214.212C318.274 214.212 318.489 214.155 318.678 214.042C318.868 213.928 319.017 213.773 319.125 213.575C319.234 213.375 319.289 213.149 319.289 212.897C319.289 212.639 319.232 212.409 319.119 212.208C319.007 212.004 318.854 211.843 318.657 211.726C318.461 211.609 318.237 211.549 317.985 211.547C317.805 211.545 317.619 211.573 317.429 211.631C317.238 211.686 317.082 211.759 316.959 211.847L316.29 211.766L316.647 208.859H319.716V209.493H317.247L317.039 211.236H317.074C317.195 211.139 317.347 211.06 317.53 210.996C317.712 210.933 317.903 210.901 318.101 210.901C318.462 210.901 318.784 210.988 319.067 211.161C319.352 211.332 319.575 211.566 319.736 211.864C319.9 212.162 319.981 212.503 319.981 212.885C319.981 213.262 319.897 213.599 319.728 213.895C319.56 214.189 319.329 214.422 319.035 214.593C318.741 214.762 318.407 214.847 318.032 214.847ZM323.054 214.847C322.619 214.847 322.249 214.728 321.943 214.492C321.638 214.253 321.404 213.908 321.242 213.456C321.081 213.003 321 212.455 321 211.812C321 211.174 321.081 210.629 321.242 210.177C321.406 209.723 321.64 209.377 321.946 209.139C322.254 208.898 322.623 208.778 323.054 208.778C323.484 208.778 323.853 208.898 324.158 209.139C324.466 209.377 324.701 209.723 324.862 210.177C325.026 210.629 325.107 211.174 325.107 211.812C325.107 212.455 325.027 213.003 324.865 213.456C324.704 213.908 324.47 214.253 324.164 214.492C323.858 214.728 323.488 214.847 323.054 214.847ZM323.054 214.212C323.484 214.212 323.819 214.004 324.057 213.589C324.296 213.174 324.415 212.582 324.415 211.812C324.415 211.301 324.36 210.865 324.251 210.506C324.143 210.146 323.987 209.872 323.783 209.684C323.582 209.495 323.338 209.401 323.054 209.401C322.627 209.401 322.293 209.612 322.053 210.033C321.813 210.452 321.692 211.045 321.692 211.812C321.692 212.324 321.746 212.758 321.854 213.116C321.962 213.474 322.116 213.746 322.318 213.932C322.522 214.119 322.767 214.212 323.054 214.212ZM328.13 214.847C327.695 214.847 327.325 214.728 327.02 214.492C326.714 214.253 326.48 213.908 326.319 213.456C326.157 213.003 326.076 212.455 326.076 211.812C326.076 211.174 326.157 210.629 326.319 210.177C326.482 209.723 326.717 209.377 327.022 209.139C327.33 208.898 327.699 208.778 328.13 208.778C328.561 208.778 328.929 208.898 329.235 209.139C329.542 209.377 329.777 209.723 329.938 210.177C330.102 210.629 330.184 211.174 330.184 211.812C330.184 212.455 330.103 213.003 329.941 213.456C329.78 213.908 329.546 214.253 329.24 214.492C328.935 214.728 328.565 214.847 328.13 214.847ZM328.13 214.212C328.561 214.212 328.895 214.004 329.134 213.589C329.372 213.174 329.491 212.582 329.491 211.812C329.491 211.301 329.437 210.865 329.327 210.506C329.219 210.146 329.064 209.872 328.86 209.684C328.658 209.495 328.415 209.401 328.13 209.401C327.703 209.401 327.37 209.612 327.129 210.033C326.889 210.452 326.769 211.045 326.769 211.812C326.769 212.324 326.822 212.758 326.93 213.116C327.038 213.474 327.193 213.746 327.395 213.932C327.598 214.119 327.844 214.212 328.13 214.212Z" fill="#F7F7F7"/>
<path d="M306.015 248.728H304.322L301.615 242.637H303.307L306.015 248.728Z" fill="#28385E"/>
<path d="M310.415 248.728H308.723L306.016 242.637H307.708L310.415 248.728Z" fill="#28385E"/>
<path d="M314.813 248.728H313.121L310.414 242.637H312.106L314.813 248.728Z" fill="#28385E"/>
<path d="M319.212 248.728H317.521L314.812 242.637H316.505L319.212 248.728Z" fill="#28385E"/>
<path d="M323.529 248.728H321.836L319.129 242.637H320.821L323.529 248.728Z" fill="#28385E"/>
<path d="M316.183 39.0029H288.67V43.9309H316.183V39.0029Z" fill="#A9CCEA"/>
<path d="M330.154 47.821H288.67V52.748H330.154V47.821Z" fill="#A9CCEA"/>
<path d="M339.827 56.6389H288.67V61.5669H339.827V56.6389Z" fill="#A9CCEA"/>
<path d="M308.23 65.457H288.67V70.385H308.23V65.457Z" fill="#A9CCEA"/>
<path d="M27.513 98.3909H0V103.319H27.513V98.3909Z" fill="#2889DB"/>
<path d="M41.484 107.209H0V112.136H41.484V107.209Z" fill="#A9CCEA"/>
<path d="M51.157 116.026H0V120.954H51.157V116.026Z" fill="#A9CCEA"/>
<path d="M19.56 124.845H0V129.773H19.56V124.845Z" fill="#A9CCEA"/>
<path d="M185.907 271.424H68.6348V286.647H185.907V271.424Z" stroke="#289DF2" stroke-width="1.1276" stroke-miterlimit="10"/>
<path d="M130.841 151.521H125.203V186.101H130.841V151.521Z" stroke="#289DF2" stroke-width="1.1276" stroke-miterlimit="10"/>
<path d="M357.293 248.793C367.887 247.084 375.091 237.11 373.382 226.515C371.674 215.92 361.7 208.716 351.105 210.424C340.51 212.133 333.307 222.107 335.016 232.702C336.724 243.297 346.698 250.501 357.293 248.793Z" fill="#FF4D6B"/>
<path d="M352.814 227.791L345.096 230.619L352.814 233.424V236.322L341.781 232.126V229.113L352.814 224.918V227.791Z" fill="#F9FBFC"/>
<path d="M355.336 224.917L366.369 229.112V232.125L355.336 236.321V233.423L363.054 230.618L355.336 227.79V224.917Z" fill="#F9FBFC"/>
<path d="M386.623 245.489C386.623 246.89 385.487 248.026 384.086 248.026C382.685 248.026 381.549 246.89 381.549 245.489C381.549 244.088 382.685 242.952 384.086 242.952C385.487 242.952 386.623 244.088 386.623 245.489Z" stroke="#FF4D6B" stroke-width="1.1276" stroke-miterlimit="10"/>
<path d="M154.335 61.687H62.4336V71.272H154.335V61.687Z" stroke="#289DF2" stroke-width="1.1276" stroke-miterlimit="10"/>
<path d="M123.324 64.7881H66.3789V67.6071H123.324V64.7881Z" fill="#289DF2"/>
<path d="M207.894 136.486H140.613V139.869H207.894V136.486Z" fill="#284D89"/>
<path d="M171.106 136.486H140.613V139.869H171.106V136.486Z" fill="#2889DB"/>
<path d="M207.894 145.225H140.613V148.608H207.894V145.225Z" fill="#284D89"/>
<path d="M187.456 145.225H140.613V148.608H187.456V145.225Z" fill="#FF4D6B"/>
<path d="M207.894 153.964H140.613V157.347H207.894V153.964Z" fill="#284D89"/>
<path d="M154.332 153.964H140.613V157.347H154.332V153.964Z" fill="#1AE5FF"/>
<path d="M142.212 130.566H140.896V131.882H142.212V130.566Z" fill="#284D89"/>
<path d="M146.724 130.566H145.408V131.882H146.724V130.566Z" fill="#284D89"/>
<path d="M151.234 130.566H149.918V131.882H151.234V130.566Z" fill="#284D89"/>
<path d="M268.286 176.642H266.094V178.835H268.286V176.642Z" fill="white"/>
<path d="M275.804 176.642H273.611V178.835H275.804V176.642Z" fill="white"/>
<path d="M283.322 176.642H281.129V178.835H283.322V176.642Z" fill="white"/>
<path d="M301.851 89.5139H297.74V93.6249H301.851V89.5139Z" fill="white"/>
<path d="M315.947 89.5139H311.836V93.6249H315.947V89.5139Z" fill="white"/>
<path d="M330.041 89.5139H325.93V93.6249H330.041V89.5139Z" fill="white"/>
<path d="M243.591 259.408H239.48V263.519H243.591V259.408Z" fill="white"/>
<path d="M257.687 259.408H253.576V263.519H257.687V259.408Z" fill="white"/>
<path d="M271.781 259.408H267.67V263.519H271.781V259.408Z" fill="white"/>
<path d="M69.1979 145.569H67.0059V147.762H69.1979V145.569Z" fill="white"/>
<path d="M76.7164 145.569H74.5234V147.762H76.7164V145.569Z" fill="white"/>
<path d="M84.234 145.569H82.041V147.762H84.234V145.569Z" fill="white"/>
<path d="M374.407 142.876H337.947V146.447H374.407V142.876Z" fill="white"/>
<path d="M348.767 149.172H337.947V152.743H348.767V149.172Z" fill="#287DD1"/>
<path d="M43.8269 150.205H35.9339V142.312H28.6039V150.205H20.7109V157.535H28.6039V165.428H35.9339V157.535H43.8269V150.205Z" fill="#1AE5FF"/>
<path d="M22.7054 172.194H17.8924V167.381H13.4234V172.194H8.60938V176.663H13.4234V181.476H17.8924V176.663H22.7054V172.194Z" fill="#2889DB"/>
<path d="M154.44 167.991C147.623 167.991 142.096 173.518 142.096 180.335C142.096 187.153 147.623 192.679 154.44 192.679C161.258 192.679 166.784 187.152 166.784 180.335C166.784 173.518 161.257 167.991 154.44 167.991ZM154.44 186.768C150.887 186.768 148.008 183.888 148.008 180.335C148.008 176.782 150.888 173.902 154.44 173.902C157.993 173.902 160.873 176.782 160.873 180.335C160.873 183.888 157.992 186.768 154.44 186.768Z" fill="#284D89"/>
<path d="M146.036 179.118C147.183 179.118 148.188 178.436 148.71 177.414C149.773 175.33 151.939 173.902 154.439 173.902C156.94 173.902 159.105 175.33 160.169 177.414C160.69 178.436 161.696 179.118 162.843 179.118C165.003 179.118 166.481 176.855 165.531 174.914C163.524 170.814 159.312 167.991 154.44 167.991C149.568 167.991 145.356 170.814 143.349 174.915C142.398 176.855 143.875 179.118 146.036 179.118Z" fill="#289DF2"/>
<path d="M175.172 180.335C175.172 187.152 180.699 192.679 187.516 192.679C194.334 192.679 199.86 187.152 199.86 180.335C199.86 173.517 194.333 167.991 187.516 167.991C180.699 167.991 175.172 173.518 175.172 180.335ZM193.949 180.335C193.949 183.887 191.069 186.767 187.516 186.767C183.963 186.767 181.083 183.887 181.083 180.335C181.083 176.782 183.963 173.902 187.516 173.902C191.069 173.902 193.949 176.782 193.949 180.335Z" fill="#284D89"/>
<path d="M186.3 188.738C186.3 187.591 185.618 186.586 184.596 186.064C182.512 185.001 181.084 182.835 181.084 180.335C181.084 177.834 182.512 175.669 184.596 174.605C185.618 174.084 186.3 173.078 186.3 171.931C186.3 169.771 184.037 168.293 182.096 169.243C177.996 171.25 175.172 175.462 175.172 180.335C175.172 185.207 177.996 189.419 182.096 191.426C184.036 192.376 186.3 190.899 186.3 188.738Z" fill="#FF4D6B"/>
<path d="M119.189 131.6H96.6367V185.726H119.189V131.6Z" stroke="#289DF2" stroke-width="1.1276" stroke-miterlimit="10"/>
<path d="M106.41 142.03H99.832V143.974H106.41V142.03Z" fill="#1AE5FF"/>
<path d="M106.41 146.367H99.832V148.311H106.41V146.367Z" fill="#1AE5FF"/>
<path d="M106.41 150.704H99.832V152.648H106.41V150.704Z" fill="#1AE5FF"/>
<path d="M106.41 173.257H99.832V175.201H106.41V173.257Z" fill="#1AE5FF"/>
<path d="M109.417 157.065H99.832V159.009H109.417V157.065Z" fill="#1AE5FF"/>
<path d="M109.417 161.402H99.832V163.346H109.417V161.402Z" fill="white"/>
<path d="M109.417 165.739H99.832V167.683H109.417V165.739Z" fill="white"/>
<path d="M44.3902 199.257H15.8242V227.823H44.3902V199.257Z" fill="#289DF2"/>
<path d="M29.3551 206.022H0.789062V234.588H29.3551V206.022Z" stroke="#289DF2" stroke-width="1.1276" stroke-miterlimit="10"/>
<path d="M367.641 281.949H355.613V293.977H367.641V281.949Z" stroke="#289DF2" stroke-width="1.1276" stroke-miterlimit="10"/>
<path d="M211.277 262.967H221.426L227.064 268.605H285.7L294.721 259.584H326.295" stroke="white" stroke-width="1.1276" stroke-miterlimit="10"/>
<path d="M208.317 266.068C209.952 266.068 211.277 264.743 211.277 263.108C211.277 261.473 209.952 260.148 208.317 260.148C206.683 260.148 205.357 261.473 205.357 263.108C205.357 264.743 206.683 266.068 208.317 266.068Z" stroke="white" stroke-width="1.1276" stroke-miterlimit="10"/>
<path d="M329.349 262.403C330.983 262.403 332.309 261.078 332.309 259.443C332.309 257.808 330.983 256.483 329.349 256.483C327.714 256.483 326.389 257.808 326.389 259.443C326.389 261.078 327.714 262.403 329.349 262.403Z" stroke="white" stroke-width="1.1276" stroke-miterlimit="10"/>
<path d="M369.145 103.785C369.145 105.861 367.462 107.544 365.386 107.544C363.31 107.544 361.627 105.861 361.627 103.785C361.627 101.709 363.31 100.026 365.386 100.026C367.462 100.026 369.145 101.709 369.145 103.785Z" fill="#289DF2"/>
<path d="M21.8383 250.376C21.8383 252.452 20.1553 254.135 18.0793 254.135C16.0033 254.135 14.3203 252.452 14.3203 250.376C14.3203 248.3 16.0033 246.617 18.0793 246.617C20.1563 246.617 21.8383 248.3 21.8383 250.376Z" fill="#FF4D6B"/>
<path d="M39.1287 264.283C39.1287 267.916 36.1837 270.861 32.5507 270.861C28.9177 270.861 25.9727 267.916 25.9727 264.283C25.9727 260.65 28.9177 257.705 32.5507 257.705C36.1837 257.705 39.1287 260.65 39.1287 264.283Z" fill="#FF4D6B"/>
<path d="M263.149 286.459H236.838V292.473H263.149V286.459Z" stroke="#289DF2" stroke-width="1.1276" stroke-miterlimit="10"/>
<path d="M294.534 297.735H236.838V303.749H294.534V297.735Z" stroke="#289DF2" stroke-width="1.1276" stroke-miterlimit="10"/>
<path d="M75.6544 292.219L69.2773 298.596" stroke="#289DF2" stroke-width="1.1276" stroke-miterlimit="10" stroke-linecap="round" stroke-linejoin="round"/>
<path d="M81.7852 292.219L75.4082 298.596" stroke="#289DF2" stroke-width="1.1276" stroke-miterlimit="10" stroke-linecap="round" stroke-linejoin="round"/>
<path d="M87.918 292.219L81.541 298.596" stroke="#289DF2" stroke-width="1.1276" stroke-miterlimit="10" stroke-linecap="round" stroke-linejoin="round"/>
<path d="M94.0489 292.219L87.6719 298.596" stroke="#289DF2" stroke-width="1.1276" stroke-miterlimit="10" stroke-linecap="round" stroke-linejoin="round"/>
<path d="M100.18 292.219L93.8027 298.596" stroke="#289DF2" stroke-width="1.1276" stroke-miterlimit="10" stroke-linecap="round" stroke-linejoin="round"/>
</svg>
