<svg width="490" height="479" viewBox="0 0 490 479" fill="none" xmlns="http://www.w3.org/2000/svg">
<path d="M130.428 41.7806C130.428 42.7026 130.288 43.6196 130.011 44.5076L123 66.9686C122.273 69.3016 120.68 71.2116 118.513 72.3476C116.348 73.4836 113.869 73.7076 111.535 72.9806L101.984 70.0006C98.1377 68.7996 95.5547 65.2886 95.5547 61.2646C95.5547 60.3416 95.6957 59.4236 95.9727 58.5346L102.979 36.0756C103.708 33.7406 105.301 31.8306 107.467 30.6946C109.632 29.5586 112.11 29.3346 114.444 30.0626L123.997 33.0426C127.844 34.2436 130.428 37.7556 130.428 41.7806ZM96.5557 61.2626C96.5557 64.8476 98.8567 67.9746 102.283 69.0436L111.834 72.0236C113.913 72.6716 116.121 72.4716 118.05 71.4606C119.98 70.4486 121.399 68.7476 122.046 66.6696L129.057 44.2086C129.303 43.4176 129.428 42.6006 129.428 41.7796C129.428 38.1936 127.126 35.0656 123.701 33.9956L114.148 31.0156C112.069 30.3656 109.862 30.5666 107.933 31.5786C106.004 32.5906 104.584 34.2916 103.936 36.3716L96.9287 58.8306C96.6807 59.6236 96.5557 60.4416 96.5557 61.2626Z" fill="#0F3775"/>
<path d="M117.721 51.4226C117.72 53.2996 116.689 55.0086 115.027 55.8806L96.612 65.5346L96.392 65.0556C95.454 63.0036 95.303 60.6846 95.973 58.5336L102.98 36.0736C103.648 33.9286 105.088 32.1076 107.034 30.9456L107.488 30.6756L117.145 49.0906C117.522 49.8086 117.721 50.6156 117.721 51.4226ZM97.098 64.1516L114.563 54.9956C115.894 54.2966 116.721 52.9276 116.721 51.4226V51.4216C116.721 50.7676 116.565 50.1396 116.259 49.5556L107.101 32.0906C105.592 33.1266 104.477 34.6296 103.935 36.3706L96.928 58.8306C96.384 60.5796 96.449 62.4566 97.098 64.1516Z" fill="#0F3775"/>
<path d="M221.513 464.013C221.513 467.414 219.376 470.513 216.196 471.724L207.826 474.904C205.766 475.686 203.526 475.619 201.517 474.716C199.507 473.813 197.971 472.182 197.189 470.123L189.714 450.444C189.356 449.502 189.174 448.517 189.174 447.518C189.174 444.117 191.311 441.019 194.492 439.81L202.861 436.63C207.109 435.018 211.881 437.161 213.497 441.408L220.973 461.091C221.331 462.031 221.513 463.015 221.513 464.013ZM190.174 447.517C190.174 448.395 190.334 449.26 190.648 450.088L198.124 469.768C198.811 471.577 200.161 473.011 201.927 473.804C203.693 474.597 205.661 474.656 207.471 473.969L215.841 470.789C218.636 469.725 220.514 467.002 220.514 464.013C220.514 463.136 220.355 462.272 220.04 461.445L212.565 441.762C211.144 438.031 206.951 436.147 203.218 437.563L194.849 440.743C192.053 441.806 190.174 444.528 190.174 447.517Z" fill="#0F3775"/>
<path d="M209.632 455.867C209.632 456.513 209.497 457.14 209.231 457.733L201.584 474.754L201.115 474.512C199.306 473.579 197.911 472.02 197.188 470.124L189.713 450.444C188.994 448.554 189.003 446.457 189.734 444.557L189.924 444.064L206.947 451.713C208.578 452.447 209.632 454.077 209.632 455.867ZM201.112 473.363L208.318 457.322C208.526 456.859 208.632 456.369 208.632 455.866C208.632 454.469 207.809 453.196 206.536 452.623L190.494 445.415C190.028 446.943 190.076 448.589 190.647 450.086L198.123 469.766C198.695 471.268 199.746 472.529 201.112 473.363Z" fill="#0F3775"/>
<path d="M13.3667 231.248C14.7117 231.328 15.7347 232.483 15.6537 233.825C15.5737 235.17 14.4177 236.192 13.0757 236.111C11.7317 236.032 10.7087 234.877 10.7897 233.534C10.8697 232.19 12.0247 231.168 13.3667 231.248Z" fill="#2889DB"/>
<path d="M13.8881 222.606C15.2311 222.687 16.2541 223.843 16.1741 225.186C16.0921 226.53 14.9391 227.553 13.5961 227.471C12.2521 227.391 11.2291 226.236 11.3091 224.892C11.3891 223.549 12.5441 222.526 13.8881 222.606Z" fill="#2889DB"/>
<path d="M27.4405 218.166C28.9175 218.256 30.1845 217.133 30.2755 215.656C30.3635 214.18 29.2385 212.913 27.7635 212.823C26.2875 212.734 25.0195 213.859 24.9285 215.335C24.8425 216.81 25.9655 218.078 27.4405 218.166Z" fill="#289DF2"/>
<path d="M34.4158 214.024C35.5368 214.091 36.5038 213.236 36.5708 212.115C36.6368 210.99 35.7818 210.025 34.6608 209.958C33.5368 209.891 32.5708 210.745 32.5038 211.869C32.4358 212.992 33.2918 213.958 34.4158 214.024Z" fill="#289DF2"/>
<path d="M32.8557 246.787C32.8557 246.952 32.8507 247.118 32.8407 247.284L31.5877 268.1C31.4567 270.278 30.4847 272.275 28.8517 273.723C27.2187 275.171 25.1197 275.895 22.9417 275.763L14.0897 275.232C9.61772 274.963 6.13972 271.116 6.42672 266.586L7.67872 245.772C7.80972 243.593 8.78072 241.595 10.4137 240.148C12.0467 238.7 14.1457 237.975 16.3257 238.107L25.1777 238.638C29.4827 238.898 32.8557 242.478 32.8557 246.787ZM7.41072 267.086C7.41072 270.866 10.3707 274.006 14.1497 274.234L23.0017 274.765C24.9127 274.881 26.7547 274.245 28.1877 272.974C29.6207 271.703 30.4737 269.951 30.5887 268.039L31.8417 247.224C32.0827 243.264 29.0397 239.872 25.1157 239.635L16.2637 239.104C14.3507 238.988 12.5087 239.625 11.0757 240.895C9.64272 242.165 8.79072 243.919 8.67572 245.831L7.42372 266.645C7.41572 266.794 7.41072 266.94 7.41072 267.086Z" fill="#0F3775"/>
<path d="M36.3154 268.304C37.7914 268.392 38.9164 269.662 38.8274 271.135C38.7384 272.612 37.4714 273.737 35.9944 273.647C34.5184 273.559 33.3954 272.291 33.4834 270.814C33.5714 269.341 34.8414 268.215 36.3154 268.304Z" fill="#289DF2"/>
<path d="M19.2584 263.143C20.6034 263.222 21.6254 264.378 21.5444 265.722C21.4654 267.065 20.3104 268.088 18.9664 268.008C17.6224 267.926 16.5984 266.772 16.6804 265.429C16.7614 264.087 17.9164 263.062 19.2584 263.143Z" fill="#2889DB"/>
<path d="M19.7788 254.503C21.1228 254.583 22.1448 255.738 22.0638 257.081C21.9838 258.426 20.8288 259.448 19.4848 259.368C18.1408 259.288 17.1188 258.132 17.1998 256.789C17.2818 255.445 18.4348 254.422 19.7788 254.503Z" fill="#2889DB"/>
<path d="M20.3001 245.862C21.6431 245.944 22.6661 247.098 22.5841 248.441C22.5041 249.785 21.3511 250.809 20.0071 250.729C18.6631 250.647 17.6401 249.492 17.7191 248.149C17.8011 246.804 18.9551 245.782 20.3001 245.862Z" fill="#2889DB"/>
<path d="M42.7429 273.254C43.8659 273.319 44.7219 274.286 44.6529 275.409C44.5849 276.534 43.6209 277.388 42.4979 277.321C41.3739 277.253 40.5189 276.288 40.5879 275.164C40.6539 274.042 41.6179 273.184 42.7429 273.254Z" fill="#289DF2"/>
<path d="M26.445 223.525C26.445 223.692 26.44 223.86 26.43 224.029L25.507 239.369L24.509 239.309L25.432 223.968C25.546 222.069 24.912 220.215 23.641 218.782C22.37 217.349 20.617 216.497 18.705 216.383L9.85398 215.849C5.90798 215.613 2.50398 218.63 2.26498 222.576L1.01298 243.39C0.769981 247.351 3.79298 250.74 7.73998 250.978L7.67898 251.976C3.18198 251.704 -0.256018 247.808 0.0149824 243.33L1.26698 222.516C1.53898 218.02 5.41798 214.581 9.91398 214.851L18.765 215.385C20.943 215.515 22.941 216.487 24.389 218.119C25.724 219.626 26.445 221.529 26.445 223.525Z" fill="#0F3775"/>
<path d="M69.4955 93.6256C69.4955 94.2786 69.4545 94.9416 69.3725 95.5946C68.2985 104.229 60.4005 110.379 51.7675 109.305C43.8825 108.325 37.9355 101.603 37.9355 93.6686C37.9355 93.0146 37.9765 92.3526 38.0585 91.6996C38.5785 87.5166 40.6955 83.7876 44.0205 81.1966C47.3455 78.6066 51.4795 77.4666 55.6625 77.9866C63.5495 78.9686 69.4955 85.6906 69.4955 93.6256ZM38.9365 93.6686C38.9365 101.099 44.5055 107.395 51.8915 108.313C59.9775 109.319 67.3755 103.558 68.3815 95.4715C68.4575 94.8595 68.4965 94.2386 68.4965 93.6256C68.4965 86.1946 62.9265 79.8976 55.5395 78.9796C51.6215 78.4926 47.7495 79.5606 44.6355 81.9866C41.5205 84.4126 39.5375 87.9066 39.0505 91.8236C38.9745 92.4346 38.9365 93.0556 38.9365 93.6686Z" fill="#0F3775"/>
<mask id="mask0_516_964" style="mask-type:luminance" maskUnits="userSpaceOnUse" x="38" y="78" width="31" height="31">
<path d="M55.6003 78.4826C63.9753 79.5246 69.9193 87.1576 68.8763 95.5326C67.8343 103.906 60.2033 109.85 51.8283 108.808C43.4553 107.767 37.5113 100.133 38.5543 91.7606C39.5953 83.3876 47.2273 77.4416 55.6003 78.4826Z" fill="white"/>
</mask>
<g mask="url(#mask0_516_964)">
<path d="M69.4086 95.0215C69.4086 95.2115 69.3966 95.4035 69.3726 95.5935C69.0906 97.8745 67.1546 99.7835 63.9226 100.972C60.8016 102.118 56.8096 102.467 52.6816 101.954C43.9696 100.87 37.4766 96.3646 38.0576 91.6996C38.3406 89.4186 40.2766 87.5085 43.5086 86.3215C46.6286 85.1755 50.6206 84.8265 54.7486 85.3395C63.1066 86.3795 69.4086 90.5415 69.4086 95.0215ZM39.0236 92.2715C39.0236 96.1835 45.0776 99.9995 52.8066 100.961C56.7796 101.455 60.6056 101.125 63.5796 100.033C66.4416 98.9805 68.1476 97.3605 68.3816 95.4695C68.8786 91.3855 62.6506 87.3285 54.6266 86.3295C50.6536 85.8365 46.8286 86.1665 43.8546 87.2585C40.9916 88.3095 39.2866 89.9305 39.0516 91.8215C39.0326 91.9715 39.0236 92.1225 39.0236 92.2715Z" fill="#0F3775"/>
<path d="M34.5909 91.7905L72.4004 96.4767L72.5234 95.4843L34.7139 90.7981L34.5909 91.7905Z" fill="#0F3775"/>
<path d="M50.6892 112.482L51.6816 112.605L56.3833 74.7935L55.3909 74.6701L50.6892 112.482Z" fill="#0F3775"/>
<path d="M48.1072 89.3525C48.1072 90.5235 48.0312 91.7235 47.8822 92.9205C47.3872 96.9055 46.1252 100.562 44.3282 103.215C42.4642 105.967 40.2322 107.332 38.0442 107.06C34.3342 106.598 31.7422 101.436 31.7422 94.5045C31.7422 93.3345 31.8182 92.1355 31.9662 90.9405C32.4632 86.9545 33.7252 83.2985 35.5212 80.6465C37.3852 77.8945 39.6172 76.5295 41.8062 76.8015C45.5162 77.2635 48.1072 82.4245 48.1072 89.3525ZM32.7422 94.5055C32.7422 100.815 35.0242 105.677 38.1672 106.069C39.9642 106.293 41.8572 105.08 43.5002 102.655C45.2102 100.13 46.4132 96.6295 46.8902 92.7995C47.0342 91.6425 47.1072 90.4835 47.1072 89.3545C47.1072 83.0475 44.8262 78.1875 41.6832 77.7955C39.8862 77.5715 37.9922 78.7835 36.3492 81.2085C34.6402 83.7325 33.4352 87.2325 32.9582 91.0645C32.8152 92.2195 32.7422 93.3765 32.7422 94.5055Z" fill="#0F3775"/>
<path d="M75.3767 92.7426C75.3767 92.7436 75.3767 92.7436 75.3767 92.7426C75.3757 93.9146 75.3007 95.1156 75.1517 96.3116C74.6557 100.297 73.3937 103.954 71.5967 106.606C69.7327 109.359 67.5007 110.724 65.3127 110.452C61.6027 109.991 59.0117 104.831 59.0117 97.9006C59.0117 96.7296 59.0877 95.5296 59.2367 94.3326C60.2917 85.8506 64.6137 79.6395 69.0767 80.1915C72.7857 80.6535 75.3767 85.8146 75.3767 92.7426ZM60.0117 97.9006C60.0117 104.209 62.2927 109.069 65.4357 109.46C67.2327 109.684 69.1267 108.471 70.7687 106.046C72.4787 103.521 73.6827 100.021 74.1587 96.1886C74.3017 95.0326 74.3747 93.8735 74.3757 92.7435C74.3757 86.4365 72.0947 81.5746 68.9527 81.1836C65.1117 80.7076 61.1977 86.6616 60.2277 94.4556C60.0847 95.6126 60.0117 96.7716 60.0117 97.9006Z" fill="#0F3775"/>
</g>
<path d="M70.4538 393.794C70.4538 400.117 66.1568 405.578 60.0038 407.073C56.4538 407.936 52.7798 407.365 49.6588 405.466C46.5378 403.566 44.3448 400.565 43.4818 397.014C43.2228 395.949 43.0918 394.858 43.0918 393.772C43.0918 387.448 47.3888 381.987 53.5408 380.491C57.0918 379.627 60.7658 380.198 63.8868 382.098C67.0078 383.998 69.2008 387 70.0638 390.552C70.3228 391.617 70.4538 392.708 70.4538 393.794ZM44.0918 393.772C44.0918 394.779 44.2138 395.79 44.4538 396.778C45.2538 400.068 47.2868 402.851 50.1798 404.612C53.0728 406.373 56.4778 406.902 59.7678 406.102C65.4718 404.716 69.4548 399.655 69.4548 393.794C69.4548 392.788 69.3328 391.776 69.0928 390.789C68.2928 387.498 66.2598 384.714 63.3668 382.953C60.4738 381.192 57.0688 380.662 53.7778 381.463C48.0748 382.849 44.0918 387.911 44.0918 393.772Z" fill="#0F3775"/>
<mask id="mask1_516_964" style="mask-type:luminance" maskUnits="userSpaceOnUse" x="43" y="380" width="27" height="27">
<path d="M53.6591 380.977C60.7321 379.256 67.8591 383.596 69.5781 390.67C71.2981 397.741 66.9581 404.868 59.8861 406.587C52.8141 408.307 45.6871 403.968 43.9681 396.896C42.2481 389.824 46.5881 382.696 53.6591 380.977Z" fill="white"/>
</mask>
<g mask="url(#mask1_516_964)">
<path d="M70.1812 391.524C70.1812 395.291 65.2662 399.219 58.4962 400.865C51.0432 402.676 44.4482 400.985 43.4832 397.014C43.4062 396.699 43.3672 396.372 43.3672 396.043C43.3672 392.275 48.2812 388.346 55.0522 386.7C62.5052 384.889 69.0992 386.581 70.0652 390.552C70.1412 390.868 70.1812 391.195 70.1812 391.524ZM44.3672 396.044C44.3672 396.293 44.3962 396.54 44.4542 396.778C45.2592 400.09 51.5812 401.516 58.2592 399.894C64.4852 398.38 69.1802 394.782 69.1802 391.524C69.1802 391.274 69.1502 391.027 69.0922 390.789C68.2862 387.476 61.9642 386.049 55.2872 387.672C49.0612 389.186 44.3672 392.785 44.3672 396.044Z" fill="#0F3775"/>
<path d="M40.5528 397.208L40.7891 398.179L72.7201 390.414L72.4838 389.443L40.5528 397.208Z" fill="#0F3775"/>
<path d="M52.2733 377.965L60.0391 409.899L61.0108 409.662L53.245 377.728L52.2733 377.965Z" fill="#0F3775"/>
<path d="M52.6086 400.542C52.6086 405.388 50.9376 408.804 48.2486 409.459C44.4436 410.385 40.0896 405.468 38.3356 398.265C37.8746 396.368 37.6406 394.492 37.6406 392.688C37.6406 387.84 39.3116 384.423 42.0016 383.769C45.8086 382.844 50.1616 387.761 51.9126 394.964C52.3746 396.862 52.6086 398.738 52.6086 400.542ZM38.6406 392.689C38.6406 394.413 38.8656 396.21 39.3076 398.029C40.8736 404.465 44.8606 409.254 48.0126 408.487C50.1976 407.955 51.6096 404.837 51.6096 400.542C51.6096 398.818 51.3846 397.021 50.9416 395.201C49.3776 388.765 45.3916 383.975 42.2386 384.742C40.0526 385.273 38.6406 388.392 38.6406 392.689Z" fill="#0F3775"/>
<path d="M75.6379 394.944C75.6379 399.791 73.9669 403.208 71.2779 403.861C67.4709 404.786 63.1179 399.868 61.3669 392.665C60.9049 390.767 60.6719 388.89 60.6719 387.086C60.6719 382.241 62.3429 378.824 65.0329 378.169C68.8389 377.244 73.1919 382.162 74.9429 389.365C75.4039 391.263 75.6379 393.14 75.6379 394.944ZM61.6719 387.086C61.6719 388.81 61.8969 390.607 62.3389 392.428C63.9029 398.865 67.8889 403.655 71.0419 402.888C73.2269 402.357 74.6379 399.239 74.6379 394.944C74.6379 393.22 74.4139 391.422 73.9709 389.601C72.4059 383.165 68.4219 378.375 65.2689 379.141C63.0839 379.673 61.6719 382.792 61.6719 387.086Z" fill="#0F3775"/>
</g>
<path d="M45.4783 342.523C46.6413 341.701 47.2433 340.223 46.8803 338.757L43.0333 323.254C42.6723 321.802 41.4703 320.783 40.0763 320.586C37.3063 323.73 37.5973 330.026 34.1113 331.135C25.6463 327.227 20.4983 331.855 21.6743 336.678C22.8513 341.499 29.5483 343.241 35.2663 335.879C38.8923 335.255 41.5373 341.045 45.4783 342.523Z" fill="#289DF2"/>
<path d="M54.9 340.613C54.9 342.952 53.312 344.981 51.037 345.547L17.281 353.92C15.962 354.247 14.595 354.042 13.431 353.341C12.267 352.64 11.446 351.528 11.119 350.209L6.06602 329.848C5.96602 329.445 5.91602 329.033 5.91602 328.621C5.91602 326.279 7.50402 324.25 9.77902 323.687L43.535 315.309C46.258 314.635 49.021 316.302 49.696 319.025L54.749 339.385C54.849 339.788 54.9 340.201 54.9 340.613ZM6.91702 328.621C6.91702 328.952 6.95802 329.283 7.03802 329.607L12.091 349.968C12.353 351.028 13.012 351.921 13.948 352.484C14.883 353.047 15.981 353.212 17.041 352.949L50.797 344.576C52.625 344.122 53.901 342.493 53.901 340.613C53.901 340.283 53.86 339.95 53.78 339.626L48.727 319.266C48.185 317.078 45.965 315.739 43.778 316.28L10.022 324.658C8.19302 325.11 6.91702 326.74 6.91702 328.621Z" fill="#0F3775"/>
<path d="M47.4854 339.618C47.4854 341.489 46.2164 343.11 44.3984 343.561L18.9144 349.883C17.8624 350.145 16.7704 349.981 15.8404 349.421C14.9094 348.861 14.2534 347.972 13.9924 346.918L10.1444 331.415C10.0644 331.092 10.0234 330.762 10.0234 330.432C10.0234 328.563 11.2924 326.942 13.1094 326.491L38.5944 320.169C39.6474 319.908 40.7404 320.072 41.6694 320.632C42.5994 321.192 43.2554 322.081 43.5164 323.135L47.3634 338.637C47.4444 338.959 47.4854 339.289 47.4854 339.618ZM11.0244 330.432C11.0244 330.681 11.0554 330.93 11.1154 331.174L14.9634 346.678C15.1604 347.472 15.6544 348.142 16.3564 348.565C17.0574 348.987 17.8794 349.111 18.6724 348.913L44.1564 342.591C45.7674 342.192 46.7964 340.509 46.3934 338.878L42.5464 323.375C42.3494 322.581 41.8554 321.91 41.1534 321.488C40.4524 321.066 39.6294 320.942 38.8354 321.139L13.3504 327.461C11.9814 327.802 11.0244 329.024 11.0244 330.432Z" fill="#0F3775"/>
<path d="M47.7733 328.514C48.7053 328.282 49.6513 328.85 49.8813 329.784C50.1123 330.717 49.5443 331.661 48.6113 331.891C47.6783 332.123 46.7333 331.555 46.5023 330.621C46.2723 329.69 46.8403 328.746 47.7733 328.514Z" fill="#289DF2"/>
<path d="M130.803 451.172C130.803 452.361 130.277 453.173 129.322 453.457L129.093 453.526C128.777 453.622 128.459 453.718 128.129 453.792C122.143 455.126 116.267 451.696 115.03 446.146C114.763 444.949 114.728 443.707 114.929 442.486C108.787 441.581 103.868 437.246 102.601 431.557C102.386 430.593 102.277 429.607 102.277 428.625C102.277 423.062 105.717 417.882 111.078 415.313C111.075 415.297 111.071 415.282 111.067 415.266C110.943 414.709 110.881 414.141 110.881 413.576C110.881 409.684 113.88 406.154 118.011 405.183C119.121 404.922 120.52 405.323 120.938 406.445C121.25 407.283 129.72 445.786 130.685 450.174C130.685 450.174 130.803 450.619 130.803 451.172ZM115.8 444.061C115.8 444.687 115.869 445.316 116.006 445.929C117.123 450.941 122.464 454.031 127.911 452.817C128.215 452.749 128.51 452.659 128.802 452.57L129.036 452.5C129.226 452.443 129.803 452.271 129.803 451.173C129.803 450.756 129.715 450.414 129.714 450.41C126.478 435.699 120.291 407.678 119.999 406.789C119.79 406.226 118.904 406.003 118.241 406.159C114.556 407.025 111.882 410.145 111.882 413.578C111.882 414.07 111.937 414.565 112.045 415.05C112.065 415.139 112.092 415.227 112.118 415.315L112.277 415.869L111.882 416.046C106.655 418.385 103.278 423.324 103.278 428.628C103.278 429.537 103.379 430.45 103.578 431.342C104.789 436.779 109.612 440.887 115.578 441.565L116.13 441.628L116.01 442.17C115.87 442.793 115.8 443.43 115.8 444.061Z" fill="#0F3775"/>
<path d="M127.983 419.395C128.103 419.931 127.761 420.468 127.224 420.588L119.435 422.323C118.898 422.443 118.556 422.98 118.676 423.517L121.345 435.503C121.465 436.04 122.002 436.382 122.538 436.262L130.329 434.527C130.866 434.407 131.403 434.749 131.522 435.285L132.321 438.873C132.441 439.41 132.807 439.488 133.136 439.048L137.81 432.78C138.139 432.339 138.676 431.618 139.005 431.176L143.682 424.906C144.01 424.465 143.883 423.892 143.398 423.633L136.503 419.941C136.018 419.682 135.225 419.256 134.739 418.997L127.846 415.306C127.361 415.046 127.062 415.273 127.182 415.81L127.983 419.395Z" fill="#289DF2"/>
<path d="M208.825 11.8496L208.819 11.9846C208.754 12.7336 201.352 44.8466 200.508 48.5066C200.361 49.3026 199.684 50.7866 198.209 50.5586L198.034 50.5326C197.753 50.4906 197.468 50.4486 197.184 50.3856C192.885 49.4056 189.766 45.7236 189.766 41.6276C189.766 41.0216 189.835 40.4126 189.97 39.8186C190.196 38.8266 190.599 37.9006 191.172 37.0586C187.678 34.6896 185.529 30.8296 185.529 26.8656C185.529 26.0226 185.624 25.1776 185.813 24.3496C187.04 18.9626 192.147 15.1116 198.049 15.0586C198.915 11.3316 202.922 9.01757 206.997 9.89556C207.883 10.0876 208.825 10.8376 208.825 11.8496ZM190.766 41.6265C190.766 45.2595 193.558 48.5326 197.404 49.4086C197.662 49.4666 197.923 49.5046 198.181 49.5426L198.361 49.5696C199.25 49.7076 199.519 48.3586 199.53 48.3006C202.354 36.0516 207.715 12.7076 207.824 11.8876L207.825 11.8496C207.825 11.4416 207.349 10.9946 206.786 10.8716C203.235 10.1066 199.75 12.0946 199.018 15.3036C199.002 15.3736 198.992 15.4476 198.98 15.5206L198.89 16.0706L198.457 16.0606C192.847 15.9356 187.939 19.5146 186.788 24.5716C186.617 25.3246 186.53 26.0966 186.53 26.8646C186.53 30.6536 188.684 34.3465 192.151 36.5015L192.623 36.7956L192.281 37.2336C191.628 38.0716 191.178 39.0156 190.945 40.0406C190.826 40.5606 190.766 41.0955 190.766 41.6265Z" fill="#0F3775"/>
<path d="M209.415 24.2786C209.314 24.7256 208.863 25.0086 208.414 24.9076L201.911 23.4276C201.463 23.3256 201.013 23.6086 200.91 24.0576L198.632 34.0626C198.529 34.5106 198.813 34.9616 199.261 35.0636L205.766 36.5456C206.214 36.6476 206.496 37.0976 206.396 37.5456L205.713 40.5406C205.611 40.9886 205.859 41.1796 206.266 40.9646L212.041 37.9056C212.447 37.6906 213.111 37.3386 213.518 37.1236L219.296 34.0656C219.701 33.8496 219.811 33.3726 219.537 33.0016L215.654 27.7426C215.381 27.3736 214.934 26.7676 214.662 26.3976L210.78 21.1406C210.507 20.7706 210.199 20.8336 210.097 21.2826L209.415 24.2786Z" fill="#289DF2"/>
<path d="M30.0337 156.969L33.2168 157.85L33.4833 156.887L30.3002 156.006L30.0337 156.969Z" fill="#0F3775"/>
<path d="M31.4398 152.132L34.5625 152.992L34.8282 152.027L31.7055 151.167L31.4398 152.132Z" fill="#0F3775"/>
<path d="M54.6328 156.456C54.6328 156.682 54.6018 156.907 54.5408 157.127L52.7598 163.566C52.3888 164.899 51.0038 165.683 49.6718 165.314L34.3908 161.086C33.0898 160.726 32.2758 159.312 32.6398 157.998L34.4208 151.559C34.7908 150.225 36.1768 149.441 37.5098 149.811L52.7918 154.038C53.8748 154.339 54.6328 155.332 54.6328 156.456ZM33.5488 158.667C33.5488 159.344 34.0048 159.942 34.6578 160.124L49.9388 164.352C50.7398 164.573 51.5738 164.101 51.7958 163.3L53.5768 156.861C53.7978 156.066 53.3078 155.22 52.5258 155.005L37.2428 150.776C36.4408 150.554 35.6068 151.026 35.3848 151.828L33.6038 158.267C33.5668 158.396 33.5488 158.532 33.5488 158.667Z" fill="#0F3775"/>
<path d="M32.1003 150.632C32.1003 151.805 31.9403 152.978 31.6253 154.117C29.7043 161.055 22.4983 165.138 15.5623 163.218C9.92433 161.658 5.98633 156.488 5.98633 150.644C5.98633 149.471 6.14633 148.298 6.46233 147.158C8.38133 140.22 15.5873 136.137 22.5253 138.057C28.1623 139.616 32.1003 144.788 32.1003 150.632ZM6.98533 150.643C6.98533 156.039 10.6213 160.813 15.8283 162.254C22.2333 164.025 28.8873 160.256 30.6613 153.85C30.9533 152.797 31.1003 151.713 31.1003 150.631C31.1003 145.235 27.4643 140.46 22.2583 139.019C15.8513 137.247 9.19733 141.017 7.42533 147.422C7.13333 148.477 6.98533 149.56 6.98533 150.643Z" fill="#0F3775"/>
<path d="M21.2116 142.796C25.5406 143.995 28.0806 148.477 26.8826 152.807C25.6856 157.138 21.2036 159.676 16.8726 158.479C12.5426 157.28 10.0056 152.799 11.2026 148.467C12.4016 144.139 16.8816 141.599 21.2116 142.796Z" fill="#289DF2"/>
<path d="M406.195 73.7096C407.191 73.7096 408 74.5176 408 75.5146C408 76.5106 407.191 77.3186 406.195 77.3186C405.199 77.3186 404.391 76.5106 404.391 75.5146C404.391 74.5166 405.198 73.7096 406.195 73.7096Z" fill="#0F3775"/>
<path d="M416.833 372.882C417.829 372.882 418.638 373.69 418.638 374.687C418.638 375.683 417.829 376.491 416.833 376.491C415.837 376.491 415.029 375.683 415.029 374.687C415.03 373.689 415.837 372.882 416.833 372.882Z" fill="#0F3775"/>
<path d="M308.046 10.4136C309.042 10.4136 309.851 11.2216 309.851 12.2186C309.851 13.2146 309.042 14.0226 308.046 14.0226C307.05 14.0226 306.242 13.2146 306.242 12.2186C306.242 11.2206 307.05 10.4136 308.046 10.4136Z" fill="#0F3775"/>
<path d="M52.929 54.8586C53.925 54.8586 54.734 55.6666 54.734 56.6636C54.734 57.6596 53.925 58.4676 52.929 58.4676C51.933 58.4676 51.125 57.6596 51.125 56.6636C51.125 55.6666 51.932 54.8586 52.929 54.8586Z" fill="#0F3775"/>
<path d="M254.017 460.081C255.013 460.081 255.822 460.889 255.822 461.886C255.822 462.882 255.013 463.69 254.017 463.69C253.021 463.69 252.213 462.882 252.213 461.886C252.213 460.888 253.021 460.081 254.017 460.081Z" fill="#0F3775"/>
<path d="M161.339 25.9116C162.335 25.9116 163.144 26.7196 163.144 27.7166C163.144 28.7126 162.335 29.5206 161.339 29.5206C160.343 29.5206 159.535 28.7126 159.535 27.7166C159.535 26.7196 160.343 25.9116 161.339 25.9116Z" fill="#0F3775"/>
<path d="M439.701 48.6146C440.492 48.6146 441.132 49.2556 441.132 50.0456C441.132 50.8346 440.492 51.4756 439.701 51.4756C438.912 51.4756 438.271 50.8346 438.271 50.0456C438.272 49.2556 438.912 48.6146 439.701 48.6146Z" fill="#0F3775"/>
<path d="M361.391 430.482C362.641 430.482 363.654 431.495 363.654 432.745C363.654 433.993 362.641 435.007 361.391 435.007C360.142 435.007 359.129 433.993 359.129 432.745C359.129 431.495 360.142 430.482 361.391 430.482Z" fill="#0F3775"/>
<path d="M67.2249 354.283C68.4749 354.283 69.4879 355.296 69.4879 356.546C69.4879 357.794 68.4749 358.808 67.2249 358.808C65.9759 358.808 64.9629 357.794 64.9629 356.546C64.9639 355.296 65.9759 354.283 67.2249 354.283Z" fill="#0F3775"/>
<path d="M339.752 460.67C340.369 460.67 340.868 461.17 340.868 461.786C340.868 462.402 340.369 462.901 339.752 462.901C339.137 462.901 338.637 462.402 338.637 461.786C338.637 461.17 339.137 460.67 339.752 460.67Z" fill="#0F3775"/>
<path d="M78.2732 439.332C78.8902 439.332 79.3892 439.832 79.3892 440.448C79.3892 441.064 78.8902 441.563 78.2732 441.563C77.6582 441.563 77.1582 441.064 77.1582 440.448C77.1582 439.832 77.6572 439.332 78.2732 439.332Z" fill="#0F3775"/>
<path d="M417.582 355.433C417.582 355.018 417.246 354.683 416.832 354.683C416.418 354.683 416.082 355.018 416.082 355.433C416.082 355.847 416.418 356.183 416.832 356.183C417.246 356.183 417.582 355.847 417.582 355.433Z" fill="#0F3775"/>
<path d="M429.477 366.221C429.477 365.806 429.141 365.471 428.727 365.471C428.312 365.471 427.977 365.806 427.977 366.221C427.977 366.635 428.312 366.971 428.727 366.971C429.141 366.971 429.477 366.635 429.477 366.221Z" fill="#0F3775"/>
<path d="M404.39 41.9946C404.959 41.9946 405.421 42.4566 405.421 43.0256C405.421 43.5946 404.959 44.0566 404.39 44.0566C403.821 44.0566 403.359 43.5946 403.359 43.0256C403.359 42.4566 403.821 41.9946 404.39 41.9946Z" fill="#0F3775"/>
<path d="M427.976 156.196C428.545 156.196 429.007 156.658 429.007 157.227C429.007 157.796 428.545 158.258 427.976 158.258C427.407 158.258 426.945 157.796 426.945 157.227C426.945 156.658 427.406 156.196 427.976 156.196Z" fill="#0F3775"/>
<path d="M242.683 29.5196C243.252 29.5196 243.714 29.9816 243.714 30.5506C243.714 31.1196 243.252 31.5816 242.683 31.5816C242.114 31.5816 241.652 31.1196 241.652 30.5506C241.652 29.9816 242.114 29.5196 242.683 29.5196Z" fill="#0F3775"/>
<path d="M24.9138 40.9636C25.4828 40.9636 25.9448 41.4256 25.9448 41.9946C25.9448 42.5636 25.4828 43.0256 24.9138 43.0256C24.3448 43.0256 23.8828 42.5636 23.8828 41.9946C23.8828 41.4256 24.3448 40.9636 24.9138 40.9636Z" fill="#0F3775"/>
<path d="M369.717 119.735C303.589 53.6073 196.374 53.6077 130.246 119.736C64.1174 185.864 64.1171 293.079 130.245 359.207C196.373 425.335 303.588 425.335 369.717 359.207C435.845 293.078 435.845 185.863 369.717 119.735Z" fill="#289DF2"/>
<path d="M246.506 100.885L269.256 91.6346L234.006 84.6346L198.756 80.1346L172.256 95.1346L165.638 92.6016C145.999 103.906 128.849 119.041 115.189 136.978L110.756 175.635L119.756 194.635L123.006 233.385L141.006 249.135L151.006 271.635L165.506 272.135L170.256 289.385L186.506 284.885L214.756 315.635H246.506L260.256 271.385L310.506 258.135L337.506 259.885L357.506 249.385L348.006 228.385L317.006 206.385L285.756 205.135L257.256 191.135L214.756 167.385L244.756 135.635L219.506 118.885L246.506 100.885Z" fill="#284D89"/>
<path d="M281.742 73.1216L284.531 92.5546L313.021 120.508L342.751 126.23L344.808 99.1606C326.114 86.4996 304.75 77.4886 281.742 73.1216Z" fill="#284D89"/>
<path d="M216.748 405.532L228.293 395.371L198.852 390.974L167.781 377.733L148.302 329.668L121.901 321.735L128.501 275.387L110.309 262.02L101.434 289.612L108.02 331.791C132.45 369.279 171.321 396.491 216.748 405.532Z" fill="#284D89"/>
<path d="M346.356 378.704L373.045 355.369L338.024 369.834L313.331 361.777L282.943 351.237L253.819 372.234L228.293 395.371L254.725 408.732C288.723 407.797 320.212 396.835 346.356 378.704Z" fill="#284D89"/>
<path d="M80.6484 239.468C80.6484 256.056 83.0454 272.082 87.4904 287.232L101.432 289.612L93.6994 268.883L104.981 233.7L94.3694 199.489L97.4654 165.818C86.6914 188.087 80.6484 213.071 80.6484 239.468Z" fill="#284D89"/>
<path d="M354.298 249.609L333.756 260.393L333.615 260.384L306.696 258.639L256.793 271.798L243.016 316.135H210.678L182.487 285.449L166.049 290.001L161.264 272.622L146.818 272.124L136.736 249.439L118.667 233.628L118.65 233.427L115.407 194.767L106.385 175.72L106.402 175.578L112.673 120.899L112.802 120.774L148.031 86.8026L168.358 94.5826L194.798 79.6166L194.963 79.6376L230.213 84.1376L267.134 91.4686L242.885 101.328L216.553 118.883L241.672 135.546L211.705 167.261L253.645 190.697L282.027 204.638L313.319 205.889L344.55 228.054L354.298 249.609ZM333.539 259.378L352.997 249.162L343.748 228.715L312.98 206.88L281.772 205.631L281.677 205.585L253.177 191.585L210.094 167.509L240.127 135.724L214.746 118.887L242.46 100.423L263.664 91.8006L230.051 85.1256L195 80.6516L168.44 95.6856L148.267 87.9656L113.625 121.37L107.412 175.55L116.397 194.593L119.63 233.142L137.561 248.831L147.479 271.146L162.033 271.648L166.748 288.769L182.81 284.321L211.119 315.135H242.281L256.004 270.972L306.601 257.631L333.539 259.378Z" fill="#0F3775"/>
<path d="M243.104 315.429L242.194 315.842L230.194 289.342L206.132 254.245L182.778 285.549L161.13 272.406L163.672 234.029L137.244 249.742L136.653 201.26L115.28 194.974L127.553 152.741L112.463 120.855L135.041 112.547L147.701 87.1616L148.596 87.6086L135.759 113.347L135.573 113.417L113.835 121.416L128.619 152.655L116.518 194.297L137.644 200.51L138.222 247.997L164.795 232.197L162.168 271.866L182.52 284.222L206.166 252.526L231.061 288.853L243.104 315.429Z" fill="#0F3775"/>
<path d="M345.154 226.949L334.123 260.044L333.174 259.728L343.143 229.823L306.556 258.848L290.571 237.416L290.361 237.697L290.232 237.229L262.541 246.997L256.845 271.678L231.549 290.295L210.498 316.95L205.657 253.498L189.943 213.492L227.983 220.108L257.051 211.732L282.246 204.515L290.782 235.463L312.748 206.085L313.549 206.685L291.196 236.58L306.742 257.424L345.154 226.949ZM255.952 271.093L261.687 246.237L289.964 236.264L281.549 205.756L257.325 212.694L228.035 221.134L227.922 221.113L191.521 214.782L206.645 253.347L211.298 314.321L230.9 289.53L255.952 271.093Z" fill="#0F3775"/>
<path d="M262.781 247.755L228.129 221.342L206.564 253.663L205.732 253.108L227.889 219.9L228.312 220.223L261.446 245.479L256.704 212.355L245.064 186.94L245.972 186.524L257.684 212.141L262.781 247.755Z" fill="#0F3775"/>
<path d="M228.485 220.468L227.534 220.775L210.836 168.828L191.002 216.183L183.145 284.943L182.152 284.83L190.108 215.2L163.414 234.316L180.119 168.219L190.981 213.344L191.16 213.215L210.96 165.944L228.485 220.468ZM165.052 231.911L190.103 213.971L180.095 172.392L165.052 231.911Z" fill="#0F3775"/>
<path d="M243.044 100.581L242.251 101.19L230.01 85.2766L213.357 94.2356L195.096 80.8986L183.279 106.51L168.36 95.7246L136.369 113.103L128.594 152.7L137.615 200.664L164.615 232.792L163.85 233.434L136.68 201.107L136.656 200.978L127.576 152.696L135.479 112.449L168.436 94.5456L182.88 104.988L194.7 79.3716L213.438 93.0556L230.285 83.9936L243.044 100.581Z" fill="#0F3775"/>
<path d="M216.159 118.996L209.222 131.292L211.426 167.849L180.078 170.07L137.443 201.289L136.852 200.482L179.719 169.094L179.864 169.083L210.369 166.922L208.206 131.057L215.136 118.775L212.9 93.6896L213.896 93.6016L216.159 118.996Z" fill="#0F3775"/>
<path d="M209.371 131.123L180.054 171.225L163.743 142.55L128.228 153.178L127.941 152.219L163.053 141.713L135.563 113.123L136.284 112.43L163.862 141.112L182.951 104.92L209.371 131.123ZM180.159 169.387L208.056 131.227L183.206 106.58L164.551 141.949L180.159 169.387Z" fill="#0F3775"/>
<path d="M163.218 141.277L164.213 141.378L168.922 95.1827L167.927 95.0813L163.218 141.277Z" fill="#0F3775"/>
<path d="M347.862 90.6086L345.437 122.508L315.009 116.653L286.29 88.4746L286.266 88.3076L283.062 65.9846L318.555 73.3666L347.862 90.6086ZM344.526 121.315L346.816 91.1536L318.118 74.2696L284.255 67.2516L287.232 87.9976L315.493 115.726L344.526 121.315Z" fill="#0F3775"/>
<path d="M317.45 87.1746L315.75 116.22L314.752 116.161L316.39 88.1936L286.77 88.7366L286.752 87.7366L317.45 87.1746Z" fill="#0F3775"/>
<path d="M345.367 121.595L344.594 122.229L316.402 87.8416L317.803 73.7476L318.797 73.8466L317.437 87.5266L345.367 121.595Z" fill="#0F3775"/>
<path d="M316.867 88.1812L347.283 91.4081L347.389 90.4137L316.973 87.1868L316.867 88.1812Z" fill="#0F3775"/>
<path d="M381.518 355.79L335.918 395.609L297.604 408.612L263.326 416.711L229.123 399.421L212.876 413.721L177.365 406.297L126.834 371.497L126.785 371.431L105.58 342.969L97.2729 289.765L82.0019 287.158L75.1309 251.605L75.3899 209.708L95.2909 148.269L90.9049 195.979L101.909 231.453L101.861 231.602L90.2349 267.861L97.6759 287.809L106.636 259.954L126.271 274.381L119.457 322.234L146.608 330.392L166.786 380.184L198.704 393.786L228.886 398.294L255.137 374.5L285.542 352.576L317.248 363.573L342.628 371.854L381.518 355.79ZM335.502 394.694L376.293 359.03L342.669 372.918L316.929 364.519L285.706 353.69L255.765 375.275L229.921 398.704L263.45 415.653L297.327 407.65L335.502 394.694ZM212.591 412.64L227.908 399.159L198.37 394.731L166.013 380.942L165.935 380.751L145.859 331.212L118.344 322.944L125.196 274.832L107.162 261.581L98.2229 289.373L106.53 342.571L127.537 370.768L177.849 405.416L212.591 412.64ZM89.1769 267.885L100.861 231.446L89.8919 196.084L89.9009 195.985L93.4729 157.128L76.3649 209.942L76.1209 251.513L82.8519 286.288L96.9389 288.693L89.1769 267.885Z" fill="#0F3775"/>
<path d="M343.127 372.531L336.078 395.799L299.628 381.489L269.045 402.728L268.867 402.713L229.004 399.321L229.088 398.325L268.772 401.701L299.497 380.363L335.436 394.472L342.17 372.241L343.127 372.531Z" fill="#0F3775"/>
<path d="M269.453 402.193L263.852 416.366L262.922 415.999L268.362 402.237L255.023 375.091L255.921 374.649L269.453 402.193Z" fill="#0F3775"/>
<path d="M300.581 380.461L300.568 380.61L297.941 408.186L296.945 408.091L299.558 380.663L285.182 353.366L286.067 352.9L300.581 380.461Z" fill="#0F3775"/>
<path d="M299.712 380.198L300.436 380.888L316.312 364.245L315.589 363.555L299.712 380.198Z" fill="#0F3775"/>
<path d="M213.134 412.881L212.333 413.48L198.428 394.919L177.414 406.588L166.043 380.991L126.471 371.475L145.782 330.588L146.686 331.015L127.901 370.79L166.757 380.134L177.884 405.183L198.705 393.621L213.134 412.881Z" fill="#0F3775"/>
<path d="M127.678 371.049L126.692 371.217L118.623 323.94L106.695 342.44L105.854 341.898L119.176 321.237L127.678 371.049Z" fill="#0F3775"/>
<path d="M97.2913 289.592L118.467 322.858L119.31 322.321L98.1349 289.055L97.2913 289.592Z" fill="#0F3775"/>
<path d="M102.186 231.473L76.3282 250.783L89.7062 267.88L88.9192 268.496L74.9102 250.594L100.58 231.425L75.1152 209.884L90.0522 195.669L90.7412 196.393L76.6122 209.841L102.186 231.473Z" fill="#0F3775"/>
<path d="M228.086 218.177C229.316 218.177 230.315 219.175 230.315 220.407C230.315 221.637 229.317 222.635 228.086 222.635C226.855 222.635 225.857 221.637 225.857 220.407C225.857 219.176 226.855 218.177 228.086 218.177Z" fill="#289DF2"/>
<path d="M206.148 251.156C207.378 251.156 208.377 252.154 208.377 253.386C208.377 254.616 207.379 255.615 206.148 255.615C204.917 255.615 203.918 254.617 203.918 253.386C203.918 252.154 204.916 251.156 206.148 251.156Z" fill="#289DF2"/>
<path d="M182.482 282.211C183.712 282.211 184.711 283.209 184.711 284.44C184.711 285.67 183.713 286.669 182.482 286.669C181.251 286.669 180.252 285.671 180.252 284.44C180.252 283.209 181.25 282.211 182.482 282.211Z" fill="#289DF2"/>
<path d="M210.945 313.406C212.175 313.406 213.174 314.404 213.174 315.636C213.174 316.866 212.176 317.865 210.945 317.865C209.714 317.865 208.715 316.867 208.715 315.636C208.715 314.404 209.713 313.406 210.945 313.406Z" fill="#289DF2"/>
<path d="M230.985 287.739C232.215 287.739 233.213 288.737 233.213 289.969C233.213 291.199 232.215 292.197 230.985 292.197C229.753 292.197 228.756 291.199 228.756 289.969C228.755 288.737 229.753 287.739 230.985 287.739Z" fill="#289DF2"/>
<path d="M242.649 313.073C243.879 313.073 244.878 314.071 244.878 315.303C244.878 316.533 243.88 317.531 242.649 317.531C241.418 317.531 240.42 316.533 240.42 315.303C240.419 314.071 241.417 313.073 242.649 313.073Z" fill="#289DF2"/>
<path d="M256.399 269.239C257.629 269.239 258.628 270.237 258.628 271.469C258.628 272.699 257.63 273.697 256.399 273.697C255.168 273.697 254.17 272.699 254.17 271.469C254.169 270.237 255.167 269.239 256.399 269.239Z" fill="#289DF2"/>
<path d="M306.564 255.928C307.794 255.928 308.792 256.926 308.792 258.157C308.792 259.387 307.794 260.386 306.564 260.386C305.332 260.386 304.334 259.388 304.334 258.157C304.334 256.926 305.332 255.928 306.564 255.928Z" fill="#289DF2"/>
<path d="M290.618 234.094C291.848 234.094 292.847 235.092 292.847 236.323C292.847 237.553 291.849 238.552 290.618 238.552C289.386 238.552 288.389 237.554 288.389 236.323C288.389 235.092 289.387 234.094 290.618 234.094Z" fill="#289DF2"/>
<path d="M344.149 225.638C345.379 225.638 346.378 226.636 346.378 227.867C346.378 229.097 345.38 230.096 344.149 230.096C342.918 230.096 341.92 229.098 341.92 227.867C341.919 226.635 342.917 225.638 344.149 225.638Z" fill="#289DF2"/>
<path d="M333.961 257.235C335.191 257.235 336.19 258.233 336.19 259.464C336.19 260.694 335.192 261.693 333.961 261.693C332.73 261.693 331.732 260.695 331.732 259.464C331.732 258.233 332.73 257.235 333.961 257.235Z" fill="#289DF2"/>
<path d="M353.65 247.235C354.88 247.235 355.878 248.233 355.878 249.464C355.878 250.694 354.88 251.693 353.65 251.693C352.419 251.693 351.42 250.695 351.42 249.464C351.42 248.233 352.418 247.235 353.65 247.235Z" fill="#289DF2"/>
<path d="M313.271 204.344C314.501 204.344 315.499 205.342 315.499 206.573C315.499 207.803 314.501 208.802 313.271 208.802C312.039 208.802 311.041 207.804 311.041 206.573C311.041 205.342 312.039 204.344 313.271 204.344Z" fill="#289DF2"/>
<path d="M315.499 113.962C316.729 113.962 317.728 114.96 317.728 116.191C317.728 117.421 316.73 118.42 315.499 118.42C314.268 118.42 313.27 117.422 313.27 116.191C313.27 114.96 314.268 113.962 315.499 113.962Z" fill="#289DF2"/>
<path d="M344.983 119.682C346.213 119.682 347.212 120.68 347.212 121.911C347.212 123.141 346.214 124.14 344.983 124.14C343.752 124.14 342.754 123.142 342.754 121.911C342.753 120.68 343.751 119.682 344.983 119.682Z" fill="#289DF2"/>
<path d="M347.339 88.6526C348.569 88.6526 349.568 89.6506 349.568 90.8816C349.568 92.1116 348.57 93.1106 347.339 93.1106C346.108 93.1106 345.109 92.1126 345.109 90.8816C345.11 89.6506 346.108 88.6526 347.339 88.6526Z" fill="#289DF2"/>
<path d="M316.92 85.4556C318.15 85.4556 319.149 86.4536 319.149 87.6846C319.149 88.9146 318.151 89.9136 316.92 89.9136C315.689 89.9136 314.691 88.9156 314.691 87.6846C314.691 86.4536 315.689 85.4556 316.92 85.4556Z" fill="#289DF2"/>
<path d="M287.42 86.4246C288.65 86.4246 289.649 87.4226 289.649 88.6536C289.649 89.8836 288.651 90.8816 287.42 90.8816C286.189 90.8816 285.191 89.8836 285.191 88.6536C285.191 87.4226 286.189 86.4246 287.42 86.4246Z" fill="#289DF2"/>
<path d="M281.43 202.906C282.66 202.906 283.659 203.904 283.659 205.135C283.659 206.365 282.661 207.363 281.43 207.363C280.198 207.363 279.201 206.365 279.201 205.135C279.2 203.904 280.198 202.906 281.43 202.906Z" fill="#289DF2"/>
<path d="M257.012 209.906C258.242 209.906 259.241 210.904 259.241 212.135C259.241 213.365 258.243 214.363 257.012 214.363C255.78 214.363 254.783 213.365 254.783 212.135C254.783 210.904 255.78 209.906 257.012 209.906Z" fill="#289DF2"/>
<path d="M245.679 184.503C246.909 184.503 247.907 185.501 247.907 186.732C247.907 187.962 246.909 188.96 245.679 188.96C244.447 188.96 243.449 187.962 243.449 186.732C243.449 185.501 244.448 184.503 245.679 184.503Z" fill="#289DF2"/>
<path d="M210.945 165.157C212.175 165.157 213.174 166.155 213.174 167.386C213.174 168.616 212.176 169.614 210.945 169.614C209.714 169.614 208.715 168.616 208.715 167.386C208.715 166.155 209.713 165.157 210.945 165.157Z" fill="#289DF2"/>
<path d="M190.733 212.135C191.963 212.135 192.962 213.133 192.962 214.364C192.962 215.595 191.964 216.593 190.733 216.593C189.502 216.593 188.504 215.595 188.504 214.364C188.503 213.134 189.501 212.135 190.733 212.135Z" fill="#289DF2"/>
<path d="M164.233 230.884C165.463 230.884 166.462 231.882 166.462 233.113C166.462 234.344 165.464 235.342 164.233 235.342C163.002 235.342 162.004 234.344 162.004 233.113C162.003 231.883 163.001 230.884 164.233 230.884Z" fill="#289DF2"/>
<path d="M162.004 269.739C163.234 269.739 164.233 270.737 164.233 271.969C164.233 273.199 163.235 274.197 162.004 274.197C160.773 274.197 159.775 273.199 159.775 271.969C159.775 270.737 160.773 269.739 162.004 269.739Z" fill="#289DF2"/>
<path d="M166.461 287.104C167.691 287.104 168.69 288.102 168.69 289.334C168.69 290.564 167.692 291.563 166.461 291.563C165.23 291.563 164.232 290.565 164.232 289.334C164.232 288.102 165.23 287.104 166.461 287.104Z" fill="#289DF2"/>
<path d="M147.316 269.739C148.546 269.739 149.545 270.737 149.545 271.969C149.545 273.199 148.547 274.197 147.316 274.197C146.085 274.197 145.086 273.199 145.086 271.969C145.086 270.737 146.084 269.739 147.316 269.739Z" fill="#289DF2"/>
<path d="M137.565 246.698C138.795 246.698 139.794 247.696 139.794 248.928C139.794 250.158 138.796 251.156 137.565 251.156C136.334 251.156 135.336 250.158 135.336 248.928C135.335 247.696 136.333 246.698 137.565 246.698Z" fill="#289DF2"/>
<path d="M118.9 230.884C120.13 230.884 121.129 231.882 121.129 233.113C121.129 234.344 120.131 235.342 118.9 235.342C117.668 235.342 116.67 234.344 116.67 233.113C116.67 231.883 117.668 230.884 118.9 230.884Z" fill="#289DF2"/>
<path d="M137.149 198.656C138.379 198.656 139.378 199.654 139.378 200.885C139.378 202.115 138.38 203.113 137.149 203.113C135.918 203.113 134.92 202.115 134.92 200.885C134.919 199.654 135.917 198.656 137.149 198.656Z" fill="#289DF2"/>
<path d="M115.982 192.156C117.212 192.156 118.211 193.154 118.211 194.385C118.211 195.615 117.213 196.613 115.982 196.613C114.751 196.613 113.752 195.615 113.752 194.385C113.752 193.154 114.75 192.156 115.982 192.156Z" fill="#289DF2"/>
<path d="M106.899 173.323C108.129 173.323 109.128 174.321 109.128 175.553C109.128 176.783 108.13 177.781 106.899 177.781C105.668 177.781 104.67 176.783 104.67 175.553C104.669 174.321 105.667 173.323 106.899 173.323Z" fill="#289DF2"/>
<path d="M128.086 150.47C129.316 150.47 130.315 151.468 130.315 152.699C130.315 153.929 129.317 154.928 128.086 154.928C126.855 154.928 125.857 153.93 125.857 152.699C125.857 151.468 126.855 150.47 128.086 150.47Z" fill="#289DF2"/>
<path d="M163.691 139.803C164.921 139.803 165.92 140.801 165.92 142.032C165.92 143.262 164.922 144.26 163.691 144.26C162.46 144.26 161.461 143.262 161.461 142.032C161.461 140.801 162.459 139.803 163.691 139.803Z" fill="#289DF2"/>
<path d="M180.127 167.385C181.357 167.385 182.356 168.383 182.356 169.614C182.356 170.845 181.358 171.843 180.127 171.843C178.896 171.843 177.898 170.845 177.898 169.614C177.898 168.384 178.896 167.385 180.127 167.385Z" fill="#289DF2"/>
<path d="M241.221 133.569C242.451 133.569 243.449 134.567 243.449 135.799C243.449 137.029 242.451 138.027 241.221 138.027C239.989 138.027 238.992 137.029 238.992 135.799C238.992 134.567 239.99 133.569 241.221 133.569Z" fill="#289DF2"/>
<path d="M215.649 116.006C216.879 116.006 217.878 117.004 217.878 118.235C217.878 119.465 216.88 120.463 215.649 120.463C214.418 120.463 213.42 119.465 213.42 118.235C213.419 117.004 214.417 116.006 215.649 116.006Z" fill="#289DF2"/>
<path d="M208.377 129.111C209.607 129.111 210.606 130.109 210.606 131.34C210.606 132.57 209.608 133.568 208.377 133.568C207.146 133.568 206.148 132.57 206.148 131.34C206.148 130.109 207.146 129.111 208.377 129.111Z" fill="#289DF2"/>
<path d="M183.137 103.519C184.367 103.519 185.366 104.517 185.366 105.748C185.366 106.978 184.368 107.976 183.137 107.976C181.905 107.976 180.908 106.978 180.908 105.748C180.908 104.517 181.905 103.519 183.137 103.519Z" fill="#289DF2"/>
<path d="M213.42 91.4166C214.65 91.4166 215.649 92.4146 215.649 93.6456C215.649 94.8756 214.651 95.8746 213.42 95.8746C212.189 95.8746 211.191 94.8766 211.191 93.6456C211.191 92.4146 212.189 91.4166 213.42 91.4166Z" fill="#289DF2"/>
<path d="M242.65 98.5826C243.88 98.5826 244.878 99.5806 244.878 100.813C244.878 102.043 243.88 103.041 242.65 103.041C241.419 103.041 240.42 102.043 240.42 100.813C240.42 99.5806 241.418 98.5826 242.65 98.5826Z" fill="#289DF2"/>
<path d="M230.275 82.0736C231.505 82.0736 232.503 83.0716 232.503 84.3026C232.503 85.5326 231.505 86.5316 230.275 86.5316C229.044 86.5316 228.045 85.5336 228.045 84.3026C228.045 83.0716 229.043 82.0736 230.275 82.0736Z" fill="#289DF2"/>
<path d="M265.21 89.1866C266.44 89.1866 267.438 90.1846 267.438 91.4156C267.438 92.6456 266.44 93.6446 265.21 93.6446C263.979 93.6446 262.98 92.6466 262.98 91.4156C262.981 90.1846 263.979 89.1866 265.21 89.1866Z" fill="#289DF2"/>
<path d="M195.191 77.9066C196.421 77.9066 197.42 78.9046 197.42 80.1356C197.42 81.3656 196.422 82.3636 195.191 82.3636C193.96 82.3636 192.961 81.3656 192.961 80.1356C192.961 78.9046 193.959 77.9066 195.191 77.9066Z" fill="#289DF2"/>
<path d="M94.4829 148.24C95.7129 148.24 96.7119 149.238 96.7119 150.47C96.7119 151.7 95.7139 152.698 94.4829 152.698C93.2519 152.698 92.2539 151.7 92.2539 150.47C92.2529 149.238 93.2509 148.24 94.4829 148.24Z" fill="#289DF2"/>
<path d="M90.7329 193.803C91.9629 193.803 92.9609 194.801 92.9609 196.032C92.9609 197.262 91.9629 198.26 90.7329 198.26C89.5019 198.26 88.5039 197.262 88.5039 196.032C88.5029 194.801 89.5009 193.803 90.7329 193.803Z" fill="#289DF2"/>
<path d="M101.383 228.969C102.613 228.969 103.612 229.967 103.612 231.198C103.612 232.428 102.614 233.427 101.383 233.427C100.152 233.427 99.1543 232.429 99.1543 231.198C99.1543 229.967 100.152 228.969 101.383 228.969Z" fill="#289DF2"/>
<path d="M75.6196 248.094C76.8496 248.094 77.8486 249.092 77.8486 250.323C77.8486 251.553 76.8506 252.552 75.6196 252.552C74.3886 252.552 73.3906 251.554 73.3906 250.323C73.3906 249.092 74.3886 248.094 75.6196 248.094Z" fill="#289DF2"/>
<path d="M90.0259 265.281C91.2559 265.281 92.2549 266.279 92.2549 267.511C92.2549 268.741 91.2569 269.74 90.0259 269.74C88.7939 269.74 87.7969 268.742 87.7969 267.511C87.7959 266.279 88.7939 265.281 90.0259 265.281Z" fill="#289DF2"/>
<path d="M82.2759 284.44C83.5059 284.44 84.5049 285.438 84.5049 286.67C84.5049 287.9 83.5069 288.899 82.2759 288.899C81.0439 288.899 80.0469 287.901 80.0469 286.67C80.0459 285.438 81.0439 284.44 82.2759 284.44Z" fill="#289DF2"/>
<path d="M97.7105 287.104C98.9405 287.104 99.9395 288.102 99.9395 289.334C99.9395 290.564 98.9415 291.563 97.7105 291.563C96.4795 291.563 95.4805 290.565 95.4805 289.334C95.4815 288.102 96.4795 287.104 97.7105 287.104Z" fill="#289DF2"/>
<path d="M106.899 258.532C108.129 258.532 109.128 259.53 109.128 260.762C109.128 261.992 108.13 262.991 106.899 262.991C105.668 262.991 104.67 261.993 104.67 260.762C104.669 259.53 105.667 258.532 106.899 258.532Z" fill="#289DF2"/>
<path d="M125.858 272.657C127.088 272.657 128.087 273.655 128.087 274.887C128.087 276.117 127.089 277.116 125.858 277.116C124.627 277.116 123.629 276.118 123.629 274.887C123.628 273.655 124.626 272.657 125.858 272.657Z" fill="#289DF2"/>
<path d="M118.901 320.36C120.131 320.36 121.13 321.358 121.13 322.589C121.13 323.819 120.132 324.818 118.901 324.818C117.67 324.818 116.672 323.82 116.672 322.589C116.671 321.358 117.669 320.36 118.901 320.36Z" fill="#289DF2"/>
<path d="M127.185 368.903C128.415 368.903 129.414 369.901 129.414 371.132C129.414 372.362 128.416 373.361 127.185 373.361C125.954 373.361 124.955 372.363 124.955 371.132C124.955 369.901 125.953 368.903 127.185 368.903Z" fill="#289DF2"/>
<path d="M106.276 340.073C107.506 340.073 108.505 341.071 108.505 342.303C108.505 343.533 107.507 344.531 106.276 344.531C105.045 344.531 104.047 343.533 104.047 342.303C104.046 341.071 105.044 340.073 106.276 340.073Z" fill="#289DF2"/>
<path d="M146.06 328.573C147.29 328.573 148.289 329.571 148.289 330.803C148.289 332.033 147.291 333.031 146.06 333.031C144.829 333.031 143.83 332.033 143.83 330.803C143.83 329.571 144.828 328.573 146.06 328.573Z" fill="#289DF2"/>
<path d="M166.461 378.323C167.691 378.323 168.69 379.321 168.69 380.552C168.69 381.782 167.692 382.781 166.461 382.781C165.23 382.781 164.232 381.783 164.232 380.552C164.232 379.321 165.23 378.323 166.461 378.323Z" fill="#289DF2"/>
<path d="M177.899 403.573C179.129 403.573 180.128 404.571 180.128 405.802C180.128 407.032 179.13 408.031 177.899 408.031C176.668 408.031 175.67 407.033 175.67 405.802C175.669 404.571 176.667 403.573 177.899 403.573Z" fill="#289DF2"/>
<path d="M198.35 392.198C199.58 392.198 200.579 393.196 200.579 394.427C200.579 395.657 199.581 396.656 198.35 396.656C197.119 396.656 196.121 395.658 196.121 394.427C196.12 393.196 197.118 392.198 198.35 392.198Z" fill="#289DF2"/>
<path d="M212.733 410.952C213.963 410.952 214.962 411.95 214.962 413.181C214.962 414.411 213.964 415.41 212.733 415.41C211.502 415.41 210.504 414.412 210.504 413.181C210.503 411.95 211.501 410.952 212.733 410.952Z" fill="#289DF2"/>
<path d="M229.045 396.656C230.275 396.656 231.274 397.654 231.274 398.885C231.274 400.115 230.276 401.114 229.045 401.114C227.814 401.114 226.816 400.116 226.816 398.885C226.816 397.654 227.814 396.656 229.045 396.656Z" fill="#289DF2"/>
<path d="M263.67 413.953C264.9 413.953 265.899 414.951 265.899 416.182C265.899 417.412 264.901 418.411 263.67 418.411C262.439 418.411 261.441 417.413 261.441 416.182C261.441 414.951 262.439 413.953 263.67 413.953Z" fill="#289DF2"/>
<path d="M268.909 399.986C270.139 399.986 271.137 400.984 271.137 402.215C271.137 403.445 270.139 404.444 268.909 404.444C267.677 404.444 266.68 403.446 266.68 402.215C266.679 400.984 267.677 399.986 268.909 399.986Z" fill="#289DF2"/>
<path d="M255.473 372.64C256.703 372.64 257.702 373.638 257.702 374.869C257.702 376.099 256.704 377.098 255.473 377.098C254.242 377.098 253.244 376.1 253.244 374.869C253.243 373.638 254.242 372.64 255.473 372.64Z" fill="#289DF2"/>
<path d="M285.847 350.904C287.077 350.904 288.075 351.902 288.075 353.133C288.075 354.363 287.077 355.362 285.847 355.362C284.615 355.362 283.617 354.364 283.617 353.133C283.617 351.902 284.616 350.904 285.847 350.904Z" fill="#289DF2"/>
<path d="M300.07 378.406C301.3 378.406 302.298 379.404 302.298 380.635C302.298 381.865 301.3 382.864 300.07 382.864C298.839 382.864 297.84 381.866 297.84 380.635C297.84 379.404 298.838 378.406 300.07 378.406Z" fill="#289DF2"/>
<path d="M297.32 405.91C298.55 405.91 299.548 406.908 299.548 408.139C299.548 409.369 298.55 410.368 297.32 410.368C296.089 410.368 295.09 409.37 295.09 408.139C295.09 406.908 296.088 405.91 297.32 405.91Z" fill="#289DF2"/>
<path d="M335.695 392.535C336.925 392.535 337.923 393.533 337.923 394.764C337.923 395.994 336.925 396.993 335.695 396.993C334.464 396.993 333.465 395.995 333.465 394.764C333.465 393.533 334.463 392.535 335.695 392.535Z" fill="#289DF2"/>
<path d="M342.649 370.156C343.879 370.156 344.878 371.154 344.878 372.385C344.878 373.615 343.88 374.614 342.649 374.614C341.418 374.614 340.42 373.616 340.42 372.385C340.419 371.154 341.417 370.156 342.649 370.156Z" fill="#289DF2"/>
<path d="M315.945 361.691C317.175 361.691 318.173 362.689 318.173 363.92C318.173 365.15 317.175 366.149 315.945 366.149C314.714 366.149 313.715 365.151 313.715 363.92C313.715 362.689 314.713 361.691 315.945 361.691Z" fill="#289DF2"/>
<path d="M380.195 354.316C381.425 354.316 382.423 355.314 382.423 356.545C382.423 357.775 381.425 358.774 380.195 358.774C378.964 358.774 377.965 357.776 377.965 356.545C377.965 355.314 378.963 354.316 380.195 354.316Z" fill="#289DF2"/>
<path d="M75.6196 207.531C76.8496 207.531 77.8486 208.529 77.8486 209.76C77.8486 210.99 76.8506 211.988 75.6196 211.988C74.3886 211.988 73.3906 210.99 73.3906 209.76C73.3906 208.529 74.3886 207.531 75.6196 207.531Z" fill="#289DF2"/>
<path d="M135.731 110.407C136.961 110.407 137.96 111.405 137.96 112.636C137.96 113.866 136.962 114.864 135.731 114.864C134.5 114.864 133.502 113.866 133.502 112.636C133.501 111.405 134.499 110.407 135.731 110.407Z" fill="#289DF2"/>
<path d="M148.149 85.1566C149.379 85.1566 150.378 86.1546 150.378 87.3856C150.378 88.6156 149.38 89.6136 148.149 89.6136C146.918 89.6136 145.92 88.6156 145.92 87.3856C145.919 86.1546 146.917 85.1566 148.149 85.1566Z" fill="#289DF2"/>
<path d="M113.752 118.97C114.982 118.97 115.981 119.968 115.981 121.199C115.981 122.429 114.983 123.428 113.752 123.428C112.521 123.428 111.523 122.43 111.523 121.199C111.523 119.968 112.521 118.97 113.752 118.97Z" fill="#289DF2"/>
<path d="M262.116 244.156C263.346 244.156 264.344 245.154 264.344 246.386C264.344 247.616 263.346 248.615 262.116 248.615C260.885 248.615 259.887 247.617 259.887 246.386C259.886 245.154 260.884 244.156 262.116 244.156Z" fill="#289DF2"/>
<path d="M283.973 64.3146C285.203 64.3146 286.202 65.3126 286.202 66.5436C286.202 67.7736 285.204 68.7726 283.973 68.7726C282.742 68.7726 281.744 67.7746 281.744 66.5436C281.743 65.3126 282.742 64.3146 283.973 64.3146Z" fill="#289DF2"/>
<path d="M318.805 71.4946C320.035 71.4946 321.034 72.4926 321.034 73.7236C321.034 74.9536 320.036 75.9526 318.805 75.9526C317.574 75.9526 316.576 74.9546 316.576 73.7236C316.575 72.4926 317.573 71.4946 318.805 71.4946Z" fill="#289DF2"/>
</svg>
