<svg width="141" height="122" viewBox="0 0 141 122" fill="none" xmlns="http://www.w3.org/2000/svg">
<path d="M69.1451 118.554C39.0149 118.554 14.502 94.0407 14.502 63.9106C14.502 33.7803 39.0149 9.2674 69.1451 9.2674C99.2754 9.2674 123.788 33.7803 123.788 63.9106C123.788 94.0407 99.2754 118.554 69.1451 118.554ZM69.1451 9.66587C39.2344 9.66587 14.9004 33.9998 14.9004 63.9106C14.9004 93.8211 39.2344 118.155 69.1451 118.155C99.0558 118.155 123.39 93.8209 123.39 63.9106C123.39 33.9998 99.0558 9.66587 69.1451 9.66587Z" fill="#2292B8"/>
<path d="M69.145 121.464C68.8437 121.464 68.5427 121.461 68.2422 121.457L68.2484 121.058C68.8647 121.068 69.4848 121.068 70.0997 121.058L70.1064 121.456C69.7867 121.461 69.4664 121.464 69.145 121.464ZM66.3799 121.398C65.7631 121.369 65.1373 121.33 64.5204 121.281L64.5517 120.883C65.1647 120.932 65.7862 120.971 66.3988 121L66.3799 121.398ZM71.9691 121.396L71.9499 120.998C72.5602 120.968 73.1815 120.928 73.7966 120.878L73.8288 121.276C73.2092 121.326 72.5836 121.366 71.9691 121.396ZM62.6653 121.103C62.0517 121.034 61.4298 120.954 60.817 120.866L60.874 120.472C61.4827 120.56 62.1003 120.639 62.7097 120.707L62.6653 121.103ZM75.6832 121.096L75.6385 120.701C76.2459 120.632 76.8632 120.552 77.4736 120.463L77.5312 120.857C76.9164 120.947 76.2946 121.027 75.6832 121.096ZM58.9773 120.569C58.3668 120.46 57.7513 120.34 57.1481 120.212L57.2308 119.822C57.8297 119.949 58.4409 120.068 59.0473 120.176L58.9773 120.569ZM79.3704 120.558L79.3004 120.166C79.9017 120.058 80.5126 119.938 81.1162 119.809L81.1993 120.199C80.5914 120.329 79.9762 120.45 79.3704 120.558ZM55.3319 119.796C54.7352 119.649 54.1289 119.489 53.5299 119.32L53.6376 118.937C54.2327 119.104 54.8347 119.263 55.427 119.408L55.3319 119.796ZM83.0153 119.781L82.9198 119.394C83.5151 119.247 84.1169 119.088 84.7084 118.921L84.8169 119.304C84.221 119.472 83.615 119.633 83.0153 119.781ZM51.7442 118.786C51.1557 118.6 50.5592 118.401 49.9713 118.193L50.1041 117.817C50.6878 118.023 51.2802 118.221 51.8646 118.407L51.7442 118.786ZM86.6021 118.769L86.4813 118.389C87.0675 118.203 87.6577 118.005 88.2354 117.8L88.3688 118.175C87.7866 118.382 87.1923 118.581 86.6021 118.769ZM48.2194 117.541C47.6429 117.316 47.0612 117.078 46.4902 116.833L46.6471 116.467C47.214 116.71 47.792 116.946 48.3644 117.17L48.2194 117.541ZM90.115 117.524L89.9698 117.153C90.5415 116.929 91.1155 116.694 91.6763 116.453L91.8335 116.819C91.2688 117.061 90.6906 117.299 90.115 117.524ZM44.7855 116.07C44.2253 115.808 43.6606 115.532 43.107 115.251L43.2875 114.895C43.8371 115.175 44.3981 115.448 44.9543 115.709L44.7855 116.07ZM93.529 116.058L93.3598 115.697C93.9108 115.439 94.4691 115.167 95.0187 114.887L95.1992 115.243C94.6458 115.524 94.0839 115.798 93.529 116.058ZM41.4568 114.378C40.9183 114.082 40.373 113.771 39.8359 113.453L40.039 113.11C40.5723 113.426 41.114 113.735 41.6487 114.029L41.4568 114.378ZM96.8429 114.373L96.6509 114.024C97.1863 113.73 97.7259 113.421 98.2546 113.108L98.4579 113.45C97.9257 113.766 97.3823 114.077 96.8429 114.373ZM100.043 112.475L99.8285 112.139C100.344 111.811 100.863 111.468 101.37 111.121L101.596 111.45C101.085 111.799 100.562 112.144 100.043 112.475ZM38.2464 112.475C37.7267 112.144 37.2027 111.798 36.6895 111.447L36.9144 111.118C37.4241 111.467 37.9443 111.81 38.4606 112.139L38.2464 112.475ZM103.115 110.374L102.879 110.053C103.374 109.691 103.87 109.315 104.353 108.937L104.599 109.25C104.112 109.632 103.613 110.01 103.115 110.374ZM35.1673 110.368C34.6685 110.003 34.1685 109.624 33.6808 109.242L33.9264 108.928C34.4107 109.308 34.9074 109.684 35.4028 110.047L35.1673 110.368ZM106.047 108.078L105.791 107.773C106.26 107.381 106.731 106.974 107.191 106.563L107.456 106.861C106.993 107.274 106.519 107.684 106.047 108.078ZM32.232 108.069C31.7621 107.676 31.2874 107.266 30.8216 106.85L31.087 106.553C31.5496 106.966 32.021 107.373 32.4876 107.763L32.232 108.069ZM108.826 105.598L108.551 105.31C108.998 104.884 109.442 104.447 109.87 104.012L110.154 104.292C109.723 104.73 109.276 105.169 108.826 105.598ZM29.4516 105.586C29.0031 105.158 28.5562 104.719 28.1232 104.279L28.4073 103.999C28.8373 104.436 29.2811 104.873 29.7263 105.297L29.4516 105.586ZM111.44 102.943L111.148 102.672C111.563 102.222 111.979 101.758 112.381 101.292L112.683 101.554C112.277 102.022 111.859 102.49 111.44 102.943ZM26.8382 102.93C26.4185 102.475 26.0008 102.008 25.597 101.541L25.8985 101.281C26.2995 101.744 26.7142 102.209 27.1311 102.66L26.8382 102.93ZM113.88 100.124L113.57 99.8732C113.96 99.3925 114.344 98.902 114.713 98.4158L115.03 98.6565C114.659 99.1463 114.272 99.6401 113.88 100.124ZM24.4015 100.113C24.0137 99.6345 23.6272 99.1414 23.2527 98.6474L23.5703 98.4067C23.9421 98.8973 24.3261 99.3867 24.711 99.8622L24.4015 100.113ZM116.134 97.1524L115.808 96.922C116.166 96.4172 116.518 95.9028 116.855 95.3936L117.187 95.613C116.848 96.1261 116.494 96.6439 116.134 97.1524ZM22.1523 97.146C21.7957 96.6428 21.442 96.126 21.1009 95.6104L21.4332 95.3904C21.772 95.9028 22.1232 96.4159 22.4774 96.9157L22.1523 97.146ZM20.0998 94.0418C19.7779 93.5188 19.4585 92.9805 19.1503 92.4421L19.4961 92.2444C19.8022 92.779 20.1193 93.3138 20.4391 93.8328L20.0998 94.0418ZM118.191 94.0405L117.852 93.8313C118.176 93.3051 118.494 92.7689 118.798 92.2376L119.144 92.4352C118.838 92.9702 118.518 93.5102 118.191 94.0405ZM18.2533 90.8127C17.9654 90.2693 17.6814 89.7118 17.4096 89.1563L17.7676 88.9814C18.0375 89.5331 18.3195 90.0864 18.6054 90.6263L18.2533 90.8127ZM120.044 90.8L119.691 90.6138C119.978 90.0726 120.261 89.5165 120.532 88.9611L120.89 89.136C120.617 89.6955 120.332 90.2552 120.044 90.8ZM16.6207 87.4731C16.3678 86.9102 16.1209 86.336 15.8867 85.7661L16.2553 85.6145C16.4879 86.1805 16.733 86.751 16.9841 87.3098L16.6207 87.4731ZM121.683 87.444L121.319 87.2812C121.572 86.7177 121.818 86.1442 122.051 85.5763L122.419 85.7273C122.185 86.2993 121.937 86.877 121.683 87.444ZM15.2068 84.0313C14.9906 83.4518 14.7809 82.8609 14.5837 82.2748L14.9613 82.1476C15.157 82.7295 15.3652 83.3163 15.58 83.8916L15.2068 84.0313ZM123.1 83.9873L122.726 83.8483C122.94 83.2749 123.148 82.6864 123.345 82.0984L123.723 82.225C123.524 82.817 123.314 83.41 123.1 83.9873ZM14.0184 80.4988C13.8411 79.9091 13.6705 79.3057 13.511 78.7055L13.8962 78.6033C14.0545 79.1994 14.2238 79.7986 14.3998 80.384L14.0184 80.4988ZM124.287 80.4484L123.905 80.3338C124.08 79.7502 124.249 79.1509 124.407 78.5531L124.792 78.6548C124.633 79.257 124.463 79.8604 124.287 80.4484ZM13.0628 76.8967C12.924 76.2946 12.7931 75.6816 12.6736 75.0742L13.0646 74.9974C13.1833 75.6005 13.3132 76.2093 13.4511 76.807L13.0628 76.8967ZM125.239 76.8453L124.851 76.7561C124.988 76.1592 125.117 75.5504 125.235 74.9462L125.627 75.0225C125.507 75.6311 125.377 76.2442 125.239 76.8453ZM12.3439 73.2401C12.2443 72.6287 12.1534 72.0084 12.0741 71.3962L12.4691 71.3448C12.5482 71.9528 12.6383 72.569 12.7373 73.1756L12.3439 73.2401ZM125.955 73.1879L125.561 73.1241C125.66 72.5153 125.749 71.8992 125.828 71.2929L126.223 71.3438C126.144 71.9543 126.054 72.5748 125.955 73.1879ZM11.864 69.5446C11.8045 68.9316 11.7539 68.3067 11.7137 67.6875L12.1114 67.6616C12.1513 68.2767 12.2015 68.8972 12.2607 69.5062L11.864 69.5446ZM126.431 69.492L126.035 69.4542C126.094 68.8399 126.143 68.2193 126.182 67.6095L126.58 67.6349C126.541 68.2489 126.491 68.8737 126.431 69.492ZM11.623 65.826C11.603 65.2102 11.5925 64.5834 11.5918 63.9629L11.9903 63.9624C11.9909 64.5787 12.0013 65.2013 12.0212 65.8129L11.623 65.826ZM126.669 65.7734L126.271 65.7609C126.29 65.1466 126.3 64.5244 126.3 63.9106V63.8069H126.698V63.9106C126.698 64.5284 126.688 65.1552 126.669 65.7734ZM12.0179 62.1119L11.6197 62.0995C11.6388 61.4806 11.6682 60.8544 11.7071 60.2385L12.1048 60.2634C12.0662 60.8752 12.0369 61.4971 12.0179 62.1119ZM126.267 61.9567C126.247 61.338 126.216 60.7159 126.176 60.1079L126.573 60.082C126.613 60.6942 126.644 61.3204 126.666 61.9432L126.267 61.9567ZM12.2507 58.4184L11.854 58.3806C11.9127 57.7647 11.9822 57.1415 12.0608 56.5285L12.4561 56.5791C12.3779 57.1879 12.3089 57.8068 12.2507 58.4184ZM126.024 58.2637C125.964 57.6505 125.894 57.032 125.814 56.4249L126.209 56.3732C126.289 56.9844 126.361 57.6075 126.421 58.2248L126.024 58.2637ZM12.7207 54.7476L12.3275 54.6844C12.426 54.0723 12.5358 53.4551 12.6537 52.8495L13.045 52.9258C12.9277 53.5269 12.8186 54.1399 12.7207 54.7476ZM125.545 54.5944C125.444 53.9838 125.334 53.371 125.216 52.7733L125.606 52.696C125.725 53.2979 125.837 53.9148 125.938 54.5297L125.545 54.5944ZM13.4278 51.1151L13.0394 51.0264C13.1771 50.4236 13.327 49.8147 13.4844 49.2166L13.8696 49.318C13.7134 49.9119 13.5648 50.5166 13.4278 51.1151ZM124.828 50.964C124.689 50.3642 124.539 49.7599 124.381 49.1681L124.766 49.0656C124.925 49.6614 125.076 50.2699 125.216 50.8741L124.828 50.964ZM14.3702 47.5364L13.9883 47.4225C14.1654 46.8297 14.3545 46.2318 14.5504 45.6456L14.9284 45.7719C14.7337 46.3541 14.546 46.9477 14.3702 47.5364ZM123.876 47.3877C123.698 46.7983 123.508 46.2052 123.312 45.6248L123.69 45.4973C123.887 46.0817 124.078 46.6791 124.257 47.2727L123.876 47.3877ZM15.5457 44.0212L15.1721 43.8828C15.3881 43.3008 15.6165 42.7151 15.8512 42.1415L16.22 42.2924C15.987 42.8619 15.7601 43.4437 15.5457 44.0212ZM122.692 43.8812C122.477 43.3065 122.25 42.7271 122.015 42.1587L122.384 42.0069C122.619 42.5793 122.849 43.1628 123.065 43.7415L122.692 43.8812ZM16.9501 40.5866L16.5864 40.424C16.84 39.8572 17.1061 39.2876 17.3771 38.7318L17.7353 38.9064C17.4663 39.4584 17.2019 40.0237 16.9501 40.5866ZM121.285 40.4644C121.035 39.9096 120.771 39.3476 120.5 38.794L120.858 38.6186C121.131 39.176 121.397 39.7421 121.648 40.3008L121.285 40.4644ZM18.5743 37.253L18.2221 37.067C18.5113 36.5191 18.8138 35.9686 19.1208 35.4307L19.4668 35.6281C19.1619 36.1623 18.8617 36.7089 18.5743 37.253ZM119.661 37.1494C119.375 36.6105 119.075 36.0665 118.769 35.5324L119.114 35.3343C119.422 35.8721 119.725 36.42 120.012 36.9627L119.661 37.1494ZM20.4113 34.0334L20.0718 33.8248C20.3953 33.2983 20.7326 32.7687 21.0743 32.251L21.4069 32.4704C21.0676 32.9847 20.7325 33.5104 20.4113 34.0334ZM117.824 33.9446C117.504 33.4261 117.169 32.9023 116.829 32.3877L117.161 32.1678C117.504 32.6858 117.841 33.2133 118.163 33.7355L117.824 33.9446ZM22.4521 30.9409L22.1267 30.7108C22.4836 30.2064 22.8541 29.7 23.2283 29.2057L23.5462 29.4462C23.1746 29.9372 22.8064 30.44 22.4521 30.9409ZM115.783 30.8635C115.428 30.3631 115.06 29.8616 114.689 29.3733L115.006 29.1323C115.38 29.6238 115.75 30.1288 116.108 30.6328L115.783 30.8635ZM24.6874 27.988L24.3778 27.7374C24.7681 27.255 25.1704 26.7738 25.5737 26.307L25.8752 26.5674C25.4746 27.031 25.075 27.5091 24.6874 27.988ZM113.547 27.9191C113.163 27.4454 112.763 26.9685 112.359 26.5019L112.66 26.241C113.067 26.7111 113.469 27.1912 113.856 27.6681L113.547 27.9191ZM27.1075 25.1862L26.8146 24.9162C27.2348 24.4601 27.6673 24.0059 28.0996 23.5662L28.3837 23.8456C27.9543 24.2821 27.525 24.7333 27.1075 25.1862ZM111.125 25.1234C110.71 24.6745 110.28 24.2243 109.847 23.785L110.131 23.5053C110.567 23.9477 111 24.4011 111.417 24.8531L111.125 25.1234ZM29.702 22.5468L29.427 22.2587C29.8743 21.8318 30.3347 21.4066 30.7955 20.9946L31.0612 21.2916C30.6035 21.7007 30.1462 22.1231 29.702 22.5468ZM108.526 22.4883C108.083 22.0661 107.625 21.6442 107.165 21.2344L107.43 20.9369C107.893 21.3497 108.354 21.7747 108.801 22.1996L108.526 22.4883ZM32.4597 20.0808L32.2039 19.7754C32.6767 19.3792 33.1633 18.9847 33.6503 18.6025L33.8962 18.9159C33.4126 19.2955 32.9293 19.6874 32.4597 20.0808ZM105.763 20.0247C105.292 19.631 104.807 19.2393 104.323 18.8607L104.568 18.5468C105.056 18.928 105.544 19.3224 106.019 19.7189L105.763 20.0247ZM35.3692 17.7985L35.1333 17.4774C35.6311 17.1121 36.142 16.7499 36.6518 16.4004L36.877 16.729C36.3707 17.076 35.8633 17.4357 35.3692 17.7985ZM102.846 17.7434C102.349 17.3804 101.84 17.0205 101.333 16.6742L101.558 16.3451C102.069 16.694 102.581 17.0561 103.081 17.4217L102.846 17.7434ZM38.4182 15.7091L38.2037 15.3732C38.7223 15.042 39.2553 14.7136 39.7874 14.3972L39.991 14.7397C39.4626 15.054 38.9333 15.3801 38.4182 15.7091ZM99.7862 15.6546C99.2698 15.3259 98.7385 14.9997 98.2066 14.685L98.4094 14.3421C98.9448 14.659 99.4799 14.9875 99.9999 15.3184L99.7862 15.6546ZM41.594 13.8222L41.4017 13.4732C41.9436 13.1745 42.4964 12.8815 43.0445 12.6021L43.2253 12.9572C42.681 13.2345 42.1322 13.5256 41.594 13.8222ZM96.596 13.7672C96.0588 13.4723 95.507 13.1811 94.9565 12.902L95.1365 12.5466C95.6911 12.8277 96.2465 13.1209 96.7879 13.418L96.596 13.7672ZM44.8837 12.1454L44.7142 11.7849C45.2724 11.5229 45.8426 11.2663 46.4092 11.0223L46.5666 11.3884C46.004 11.6304 45.4379 11.8853 44.8837 12.1454ZM93.2888 12.0904C92.7306 11.8299 92.161 11.5751 91.5954 11.3334L91.7521 10.9671C92.3215 11.2106 92.8954 11.467 93.4575 11.7294L93.2888 12.0904ZM48.2727 10.6866L48.1272 10.3156C48.702 10.09 49.2891 9.87063 49.873 9.66322L50.0064 10.0386C49.4266 10.2446 48.8434 10.4625 48.2727 10.6866ZM89.8777 10.6319C89.3036 10.4084 88.7181 10.1914 88.1376 9.98685L88.2699 9.61091C88.8546 9.81687 89.4443 10.0355 90.0225 10.2605L89.8777 10.6319ZM51.76 9.44765L51.6389 9.06815C52.2263 8.88077 52.8267 8.69998 53.4235 8.53079L53.5322 8.91424C52.9393 9.08212 52.3432 9.26172 51.76 9.44765ZM86.3764 9.39889C85.7928 9.21441 85.1961 9.03665 84.6032 8.87036L84.7105 8.48664C85.308 8.65412 85.9087 8.8332 86.4963 9.01886L86.3764 9.39889ZM55.3204 8.43881L55.2245 8.05206C55.8233 7.90343 56.4341 7.76217 57.04 7.63237L57.1236 8.02202C56.5218 8.15089 55.9151 8.2911 55.3204 8.43881ZM82.8129 8.40007C82.2178 8.25407 81.6108 8.11545 81.0087 7.98842L81.0912 7.59851C81.6975 7.72646 82.3086 7.866 82.9078 8.01306L82.8129 8.40007ZM58.9391 7.66413L58.8685 7.27185C59.4779 7.16208 60.0967 7.06088 60.7075 6.97102L60.7653 7.36527C60.159 7.45448 59.5445 7.55502 58.9391 7.66413ZM79.1923 7.63567C78.5891 7.52867 77.9743 7.42997 77.3653 7.34208L77.4218 6.94783C78.0356 7.03611 78.6545 7.1356 79.2617 7.24339L79.1923 7.63567ZM62.6005 7.12624L62.5553 6.7304C63.1678 6.66057 63.7917 6.59969 64.41 6.54922L64.4424 6.94638C63.8285 6.99645 63.2089 7.0568 62.6005 7.12624ZM75.5286 7.10819C74.9196 7.04033 74.2999 6.98156 73.6866 6.93333L73.7177 6.53617C74.3351 6.58467 74.9593 6.64383 75.5728 6.71209L75.5286 7.10819ZM66.2891 6.82567L66.2694 6.42773C66.8875 6.39729 67.5142 6.37647 68.1322 6.3658L68.1389 6.76427C67.5253 6.77481 66.9031 6.7955 66.2891 6.82567ZM71.8396 6.81777C71.2245 6.78931 70.6023 6.77046 69.9901 6.76163L69.9957 6.36316C70.612 6.37212 71.2388 6.39123 71.8583 6.41982L71.8396 6.81777Z" fill="#2292B8"/>
<path d="M13.5509 57.684H56.3843C57.7294 57.684 58.8199 56.5936 58.8199 55.2483C58.8199 53.9032 57.7294 52.8127 56.3843 52.8127H13.5509C12.2058 52.8127 11.1152 53.9032 11.1152 55.2483C11.1152 56.5934 12.2058 57.684 13.5509 57.684Z" fill="#2292B8"/>
<path d="M76.1173 23.4229H118.951C120.296 23.4229 121.386 22.3325 121.386 20.9872C121.386 19.6421 120.296 18.5516 118.951 18.5516H76.1173C74.7722 18.5516 73.6816 19.6421 73.6816 20.9872C73.6816 22.3323 74.7722 23.4229 76.1173 23.4229Z" fill="#2292B8"/>
<path d="M27.0294 13.6803H69.8628C71.2079 13.6803 72.2984 12.5897 72.2984 11.2446C72.2984 9.89949 71.2079 8.80896 69.8628 8.80896H27.0294C25.6843 8.80896 24.5938 9.89949 24.5938 11.2446C24.5938 12.5899 25.6842 13.6803 27.0294 13.6803Z" fill="#2292B8"/>
<path d="M69.1441 114.719C97.2046 114.719 119.952 91.971 119.952 63.9104C119.952 35.8499 97.2046 13.1023 69.1441 13.1023C41.0835 13.1023 18.3359 35.8499 18.3359 63.9104C18.3359 91.971 41.0835 114.719 69.1441 114.719Z" fill="#2292B8"/>
<path d="M7.8751 62.5553H50.7085C52.0536 62.5553 53.1441 61.4648 53.1441 60.1197C53.1441 58.7746 52.0537 57.684 50.7085 57.684H7.8751C6.52999 57.684 5.43945 58.7746 5.43945 60.1197C5.43958 61.4648 6.52999 62.5553 7.8751 62.5553Z" fill="white"/>
<path d="M2.66026 67.4266H45.4936C46.8387 67.4266 47.9293 66.3361 47.9293 64.9909C47.9293 63.6458 46.8389 62.5553 45.4936 62.5553H2.66026C1.31514 62.5553 0.224609 63.6458 0.224609 64.9909C0.224609 66.3361 1.31514 67.4266 2.66026 67.4266Z" fill="#2292B8"/>
<path d="M140.224 74.0292C140.224 72.6841 139.134 71.5936 137.789 71.5936H104.762C103.417 71.5936 102.326 72.684 102.326 74.0292C102.326 75.3743 103.417 76.4649 104.762 76.4649H137.789C139.134 76.4649 140.224 75.3745 140.224 74.0292Z" fill="white"/>
<path d="M87.2989 81.4707H130.132C131.477 81.4707 132.568 80.3802 132.568 79.0351C132.568 77.69 131.477 76.5994 130.132 76.5994H87.2989C85.9538 76.5994 84.8633 77.69 84.8633 79.0351C84.8633 80.3803 85.9537 81.4707 87.2989 81.4707Z" fill="#2292B8"/>
<path d="M80.9103 86.342H123.744C125.089 86.342 126.179 85.2515 126.179 83.9064C126.179 82.5612 125.089 81.4707 123.744 81.4707H80.9103C79.5651 81.4707 78.4746 82.5612 78.4746 83.9064C78.4746 85.2516 79.565 86.342 80.9103 86.342Z" fill="white"/>
<path d="M16.2052 91.2133H59.0386C60.3837 91.2133 61.4742 90.1228 61.4742 88.7777C61.4742 87.4326 60.3838 86.342 59.0386 86.342H16.2052C14.8601 86.342 13.7695 87.4324 13.7695 88.7777C13.7695 90.1228 14.8601 91.2133 16.2052 91.2133Z" fill="#2292B8"/>
<path d="M12.6407 96.0846H55.4741C56.8192 96.0846 57.9098 94.9941 57.9098 93.649C57.9098 92.3039 56.8192 91.2133 55.4741 91.2133H12.6407C11.2956 91.2133 10.2051 92.3037 10.2051 93.649C10.2052 94.9941 11.2956 96.0846 12.6407 96.0846Z" fill="white"/>
<path d="M81.5743 101.168H124.408C125.753 101.168 126.843 100.078 126.843 98.7328C126.843 97.3877 125.753 96.2972 124.408 96.2972H81.5743C80.2292 96.2972 79.1387 97.3877 79.1387 98.7328C79.1387 100.078 80.2292 101.168 81.5743 101.168Z" fill="white"/>
<path d="M8.8087 106.078H51.6421C52.9872 106.078 54.0777 104.988 54.0777 103.643C54.0777 102.297 52.9872 101.207 51.6421 101.207H8.8087C7.46358 101.207 6.37305 102.297 6.37305 103.643C6.37305 104.988 7.46358 106.078 8.8087 106.078Z" fill="#2292B8"/>
<path d="M29.6993 110.949H72.5327C73.8778 110.949 74.9683 109.859 74.9683 108.514C74.9683 107.169 73.8778 106.078 72.5327 106.078H29.6993C28.3542 106.078 27.2637 107.169 27.2637 108.514C27.2637 109.859 28.3541 110.949 29.6993 110.949Z" fill="white"/>
<path d="M78.7325 19.6135C84.1487 19.6135 88.5393 15.2228 88.5393 9.80671C88.5393 4.39058 84.1487 -6.10352e-05 78.7325 -6.10352e-05C73.3164 -6.10352e-05 68.9258 4.39058 68.9258 9.80671C68.9258 15.2228 73.3164 19.6135 78.7325 19.6135Z" fill="#B1E1F1"/>
<path d="M84.4717 4.52612H72.9922V15.0871H84.4717V4.52612Z" fill="#EC1C24"/>
<path d="M84.4717 6.93687H79.5928V4.52612H77.871V6.93687H72.9922V8.65872H77.871V15.0871H79.5928V8.65872H84.4717V6.93687Z" fill="white"/>
<path d="M63.194 28.2532C63.131 28.2532 63.0689 28.2574 63.0077 28.2641C63.0384 28.1111 63.055 27.9529 63.055 27.7908C63.055 26.4687 61.9833 25.3969 60.6611 25.3969C59.6463 25.3969 58.7811 26.0294 58.4327 26.9208C58.3783 26.9153 58.3231 26.9125 58.2672 26.9125C57.4006 26.9125 56.6951 27.5942 56.6525 28.4503C55.8986 28.5722 55.3223 29.2242 55.3223 30.0124C55.3223 30.8875 56.0316 31.5969 56.9067 31.5969H63.1938C64.1172 31.5969 64.8658 30.8484 64.8658 29.9251C64.8659 29.0016 64.1173 28.2532 63.194 28.2532Z" fill="white"/>
<path d="M114.436 58.0176C114.373 58.0176 114.311 58.0219 114.25 58.0286C114.281 57.8756 114.297 57.7173 114.297 57.5553C114.297 56.2332 113.225 55.1614 111.903 55.1614C110.889 55.1614 110.023 55.7939 109.675 56.6853C109.62 56.6798 109.565 56.677 109.509 56.677C108.643 56.677 107.937 57.3587 107.895 58.2148C107.141 58.3367 106.564 58.9887 106.564 59.7769C106.564 60.652 107.274 61.3613 108.149 61.3613H114.436C115.359 61.3613 116.108 60.6129 116.108 59.6895C116.108 58.7661 115.36 58.0176 114.436 58.0176Z" fill="white"/>
<path d="M32.4575 76.7407C32.3944 76.7407 32.3325 76.7449 32.2712 76.7516C32.3019 76.5986 32.3185 76.4404 32.3185 76.2783C32.3185 74.9562 31.2468 73.8844 29.9248 73.8844C28.91 73.8844 28.0448 74.5169 27.6964 75.4083C27.642 75.4028 27.5868 75.4 27.5309 75.4C26.6642 75.4 25.9587 76.0817 25.9162 76.9378C25.1623 77.0597 24.5859 77.7117 24.5859 78.4999C24.5859 79.375 25.2953 80.0843 26.1703 80.0843H32.4575C33.3808 80.0843 34.1294 79.3359 34.1294 78.4126C34.1293 77.4891 33.3808 76.7407 32.4575 76.7407Z" fill="white"/>
<path d="M124.084 84.0035C127.837 80.2503 127.837 74.1653 124.084 70.4122C120.331 66.6591 114.246 66.6591 110.493 70.4122C106.74 74.1653 106.74 80.2503 110.493 84.0035C114.246 87.7566 120.331 87.7566 124.084 84.0035Z" fill="#EC1C24"/>
<path d="M124.28 74.8654H123.61C123.451 74.8654 123.305 74.7778 123.232 74.6367C123.094 74.3696 122.926 74.1216 122.732 73.8976C122.684 73.8416 122.633 73.7872 122.582 73.7343C122.118 73.2584 121.53 72.9104 120.872 72.7463C120.726 72.7098 120.576 72.6824 120.424 72.6647L120.424 72.6646C119.938 72.1312 119.4 71.74 119.204 71.6049C119.173 71.5836 119.133 71.5849 119.104 71.6052C119.095 71.6119 119.086 71.6208 119.08 71.6317C119.05 71.6826 119.022 71.736 118.994 71.7902C118.975 71.8264 118.957 71.863 118.939 71.9001C118.92 71.94 118.902 71.9799 118.884 72.0202C118.673 72.4888 118.537 72.9617 118.537 72.9617C117.805 72.5795 116.947 72.3593 116.029 72.3593C115.415 72.3593 114.828 72.4588 114.288 72.6384C114.194 72.6695 114.102 72.7029 114.011 72.7388C113.801 72.8218 113.6 72.9175 113.407 73.0245C113.291 73.0889 113.179 73.1572 113.07 73.2296C112.037 73.9175 111.336 74.9569 111.206 76.1399C111 76.0794 110.338 75.9162 109.981 76.1843C109.825 76.3009 109.749 76.4634 109.771 76.6301C109.793 76.7898 109.906 76.932 110.06 76.9923C110.111 77.0125 110.164 77.0224 110.216 77.0224C110.311 77.0224 110.403 76.9901 110.479 76.9276C110.569 76.8537 110.585 76.7205 110.511 76.6306C110.437 76.5406 110.307 76.5271 110.218 76.6011C110.209 76.6002 110.193 76.5873 110.189 76.5749C110.187 76.5678 110.2 76.5466 110.233 76.5214C110.39 76.4037 110.855 76.4715 111.119 76.5539C111.141 76.5605 111.162 76.5626 111.183 76.5625C111.184 76.6313 111.186 76.6997 111.191 76.7675C111.232 77.4232 111.448 78.0386 111.8 78.5798V80.9762C111.8 81.5606 112.274 82.0343 112.858 82.0343C113.443 82.0343 113.916 81.5606 113.916 80.9762V80.3007C114.555 80.5678 115.272 80.7179 116.029 80.7179C116.687 80.7179 117.313 80.604 117.884 80.3993V80.9762C117.884 81.5606 118.358 82.0343 118.942 82.0343C119.527 82.0343 120.001 81.5606 120.001 80.9762V80.1555C120.005 80.1555 120.008 80.156 120.012 80.156C121.149 80.156 122.163 79.6193 122.832 78.7786C122.912 78.6784 123.034 78.622 123.162 78.622H124.28C124.576 78.622 124.815 78.3827 124.815 78.0875V76.2579V75.4C124.815 75.1047 124.575 74.8654 124.28 74.8654ZM115.161 72.9573C115.161 72.8613 115.239 72.7836 115.335 72.7836H115.63H116.272H116.567C116.663 72.7836 116.741 72.8613 116.741 72.9573C116.741 73.0532 116.663 73.1308 116.567 73.1308H116.272H115.63H115.335C115.239 73.1308 115.161 73.0532 115.161 72.9573ZM116.328 77.801V78.2293H115.987V77.8259C115.725 77.8176 115.463 77.7429 115.313 77.643L115.426 77.2522C115.588 77.3477 115.821 77.4351 116.074 77.4351C116.336 77.4351 116.515 77.3061 116.515 77.1066C116.515 76.9195 116.369 76.7989 116.062 76.6866C115.625 76.5285 115.342 76.329 115.342 75.9424C115.342 75.5848 115.592 75.3103 116.012 75.2355V74.8279H116.353V75.2146C116.615 75.2229 116.794 75.2853 116.927 75.3518L116.814 75.7343C116.715 75.6886 116.532 75.5929 116.249 75.5929C115.958 75.5929 115.854 75.7426 115.854 75.884C115.854 76.0545 116.004 76.1502 116.357 76.2915C116.823 76.4661 117.031 76.6906 117.031 77.0607C117.031 77.4144 116.785 77.7262 116.328 77.801ZM121.429 74.8125C121.239 74.8125 121.085 74.6586 121.085 74.4685C121.085 74.2787 121.239 74.1246 121.429 74.1246C121.619 74.1246 121.773 74.2785 121.773 74.4685C121.772 74.6586 121.619 74.8125 121.429 74.8125Z" fill="white"/>
<path d="M24.5384 63.5926C28.2987 62.095 30.1329 57.8327 28.6353 54.0725C27.1376 50.3122 22.8753 48.478 19.1151 49.9757C15.3549 51.4733 13.5207 55.7356 15.0183 59.4958C16.5159 63.256 20.7782 65.0902 24.5384 63.5926Z" fill="#B1E1F1"/>
<path d="M23.8423 55.3544V54.2851H23.2466C23.1867 54.0251 23.0844 53.7815 22.9469 53.5618L23.3682 53.1406L22.6121 52.3844L22.1908 52.8057C21.9712 52.6683 21.7275 52.5659 21.4675 52.5061V51.9103H20.3982V52.5061C20.1382 52.5659 19.8946 52.6683 19.6749 52.8057L19.2536 52.3844L18.4975 53.1406L18.9188 53.5618C18.7814 53.7815 18.679 54.0251 18.6192 54.2851H18.0234V55.3544H18.6192C18.679 55.6144 18.7814 55.8581 18.9188 56.0777L18.4975 56.499L19.2536 57.2551L19.6749 56.8338C19.8946 56.9713 20.1382 57.0736 20.3982 57.1335V57.7293H21.4675V57.1335C21.7275 57.0736 21.9712 56.9713 22.1908 56.8338L22.6121 57.2551L23.3682 56.499L22.9469 56.0777C23.0844 55.8581 23.1867 55.6144 23.2466 55.3544H23.8423ZM20.9328 55.7911C20.3964 55.7911 19.9614 55.3561 19.9614 54.8197C19.9614 54.2833 20.3962 53.8483 20.9328 53.8483C21.4694 53.8483 21.9042 54.2831 21.9042 54.8197C21.9042 55.3563 21.4694 55.7911 20.9328 55.7911Z" fill="#EC1C24"/>
<path d="M25.4853 60.1949L25.6346 59.3861L25.1839 59.3029C25.1749 59.0979 25.1316 58.8993 25.0582 58.714L25.4357 58.4542L24.9694 57.7767L24.5919 58.0366C24.4449 57.9019 24.2749 57.7906 24.0866 57.709L24.1698 57.2584L23.361 57.1091L23.2778 57.5597C23.0728 57.5687 22.8742 57.612 22.689 57.6854L22.4291 57.3079L21.7517 57.7742L22.0115 58.1518C21.8768 58.2987 21.7655 58.4687 21.6839 58.657L21.2333 58.5738L21.084 59.3826L21.5346 59.4658C21.5436 59.6708 21.587 59.8694 21.6603 60.0547L21.2828 60.3145L21.7492 60.992L22.1267 60.7321C22.2736 60.8668 22.4436 60.9781 22.6319 61.0597L22.5487 61.5103L23.3576 61.6596L23.4407 61.209C23.6457 61.2 23.8443 61.1567 24.0296 61.0833L24.2894 61.4608L24.9669 60.9945L24.707 60.6169C24.8417 60.47 24.953 60.3 25.0346 60.1117L25.4853 60.1949ZM23.2235 60.1191C22.8178 60.0443 22.5495 59.6545 22.6244 59.2488C22.6992 58.843 23.0889 58.5748 23.4947 58.6496C23.9006 58.7244 24.1687 59.1142 24.0939 59.5199C24.019 59.9257 23.6294 60.1939 23.2235 60.1191Z" fill="#EC1C24"/>
<path d="M43.0673 99.0405C47.0338 95.074 47.0338 88.6431 43.0673 84.6766C39.1008 80.7101 32.6699 80.7101 28.7034 84.6766C24.7369 88.6431 24.7369 95.074 28.7034 99.0405C32.6699 103.007 39.1008 103.007 43.0673 99.0405Z" fill="#EC1C24"/>
<path d="M34.6809 98.4552L30.2025 95.8594C30.0385 95.7642 29.9825 95.554 30.0776 95.39L32.6735 90.9116C32.7686 90.7476 32.9788 90.6916 33.1429 90.7867L37.6212 93.3826C37.7853 93.4777 37.8413 93.6879 37.7461 93.852L35.1503 98.3303C35.0551 98.4944 34.8449 98.5504 34.6809 98.4552Z" fill="white"/>
<path d="M33.1052 91.5674L30.8652 95.4318L34.7296 97.6718L36.9696 93.8074L33.1052 91.5674Z" fill="#B1E1F1"/>
<path d="M32.0803 91.3277L31.8574 91.7122L32.1232 91.8663L32.3461 91.4817L32.0803 91.3277Z" fill="#B1E1F1"/>
<path d="M31.7112 91.9644L31.4883 92.3489L31.754 92.503L31.9769 92.1184L31.7112 91.9644Z" fill="#B1E1F1"/>
<path d="M37.0222 95.8074L36.7051 96.3545L37.0812 96.5725L37.3983 96.0254L37.0222 95.8074Z" fill="#B1E1F1"/>
<path d="M36.6556 95.7373L36.4629 96.0697L36.8648 96.3026L37.0575 95.9702L36.6556 95.7373Z" fill="#B1E1F1"/>
<path d="M34.3562 98.2672L30.5266 96.0474C30.5208 96.0439 30.5156 96.04 30.5098 96.0364L30.2996 96.3991C30.1818 96.6023 30.2511 96.8624 30.4543 96.9802L33.5828 98.7936C33.786 98.9114 34.0461 98.8421 34.1639 98.6389L34.3741 98.2763C34.368 98.2731 34.362 98.2705 34.3562 98.2672Z" fill="#B1E1F1"/>
<path d="M40.8765 86.1432L39.3414 85.2534L37.8061 84.3634L33.4668 90.9747L35.3816 92.0846L37.2963 93.1945L40.8765 86.1432Z" fill="#B1E1F1"/>
<path d="M33.8016 92.4431C34.0134 92.5658 33.9868 92.8024 33.8612 93.0191C33.7195 93.2637 33.5235 93.3745 33.3215 93.2574C33.1171 93.1389 33.1335 92.9029 33.2621 92.6783C33.3947 92.4495 33.5972 92.3246 33.8016 92.4431ZM33.7181 92.5816C33.6499 92.5421 33.5536 92.6017 33.4483 92.7862C33.342 92.9668 33.3357 93.0786 33.4075 93.1203C33.4793 93.1619 33.5704 93.0944 33.6748 92.9143C33.7764 92.739 33.7923 92.6247 33.7181 92.5816ZM34.4767 92.8344C34.6884 92.9571 34.6619 93.1937 34.5363 93.4104C34.3945 93.655 34.1986 93.7658 33.9966 93.6487C33.7921 93.5302 33.8086 93.2942 33.9371 93.0696C34.0698 92.8408 34.2722 92.7159 34.4767 92.8344ZM34.3931 92.9729C34.325 92.9334 34.2286 92.993 34.1233 93.1775C34.017 93.3581 34.0108 93.4699 34.0826 93.5115C34.1544 93.5532 34.2455 93.4857 34.3499 93.3056C34.4515 93.1303 34.4674 93.016 34.3931 92.9729ZM34.5061 93.944L34.5049 93.9433C34.4428 93.9073 34.4253 93.8338 34.4627 93.7693C34.5008 93.7036 34.5733 93.6822 34.6378 93.7196C34.7023 93.757 34.7193 93.8286 34.6805 93.8955C34.6431 93.96 34.5718 93.9821 34.5061 93.944ZM35.4679 93.4089C35.6796 93.5316 35.6531 93.7683 35.5275 93.9849C35.3857 94.2295 35.1898 94.3403 34.9878 94.2232C34.7833 94.1047 34.7998 93.8687 34.9283 93.6441C35.061 93.4153 35.2634 93.2904 35.4679 93.4089ZM35.3843 93.5475C35.3162 93.5079 35.2198 93.5675 35.1145 93.752C35.0082 93.9326 35.0019 94.0445 35.0737 94.0861C35.1455 94.1277 35.2367 94.0602 35.3411 93.8801C35.4427 93.7048 35.4586 93.5905 35.3843 93.5475ZM36.1429 93.8002C36.3547 93.9229 36.3281 94.1595 36.2025 94.3762C36.0608 94.6208 35.8648 94.7316 35.6628 94.6145C35.4584 94.496 35.4748 94.26 35.6034 94.0354C35.736 93.8066 35.9385 93.6817 36.1429 93.8002ZM36.0594 93.9387C35.9912 93.8992 35.8949 93.9588 35.7896 94.1433C35.6833 94.3239 35.677 94.4357 35.7488 94.4774C35.8206 94.519 35.9117 94.4515 36.0162 94.2714C36.1177 94.0961 36.1336 93.9818 36.0594 93.9387Z" fill="white"/>
<path d="M82.5445 119.434C88.8578 119.434 93.9758 114.317 93.9758 108.003C93.9758 101.69 88.8578 96.572 82.5445 96.572C76.2312 96.572 71.1133 101.69 71.1133 108.003C71.1133 114.317 76.2312 119.434 82.5445 119.434Z" fill="#B1E1F1"/>
<path d="M88.9879 102.984L87.8992 102.893L80.1252 102.243L79.0365 102.151C78.3569 102.095 77.7598 102.599 77.7029 103.279L76.9614 112.142C76.9045 112.821 77.4094 113.419 78.0891 113.475L79.1778 113.567L86.9517 114.217L88.0404 114.308C88.7201 114.365 89.3171 113.86 89.3741 113.18L90.1155 104.318C90.1725 103.638 89.6675 103.041 88.9879 102.984Z" fill="#B12024"/>
<path d="M87.7398 102.879L86.6511 102.788L78.8772 102.138L77.7885 102.047C77.1088 101.99 76.5118 102.495 76.4548 103.175L75.7134 112.037C75.6564 112.717 76.1614 113.314 76.8411 113.371L77.9297 113.462L85.7037 114.112L86.7924 114.203C87.472 114.26 88.0691 113.755 88.126 113.076L88.8675 104.213C88.9244 103.533 88.4195 102.936 87.7398 102.879Z" fill="#EC1C24"/>
<path d="M86.3238 113.637L86.2005 113.627C86.1672 113.624 86.1423 113.595 86.1452 113.561C86.148 113.528 86.1774 113.503 86.2107 113.506L86.3339 113.516C86.391 113.521 86.4484 113.521 86.5048 113.517C86.5387 113.514 86.5675 113.539 86.57 113.572C86.5727 113.606 86.5478 113.635 86.5143 113.638C86.4513 113.643 86.3873 113.643 86.3238 113.637ZM85.8969 113.602L85.5934 113.576C85.56 113.573 85.5351 113.544 85.5379 113.511C85.5406 113.477 85.57 113.452 85.6034 113.455L85.907 113.481C85.9403 113.483 85.9652 113.513 85.9624 113.546C85.9597 113.58 85.9303 113.604 85.8969 113.602ZM85.2898 113.551L84.9862 113.525C84.9527 113.523 84.9279 113.493 84.9307 113.46C84.9334 113.426 84.9628 113.402 84.9962 113.405L85.2998 113.43C85.3331 113.433 85.358 113.462 85.3552 113.495C85.3525 113.529 85.3231 113.554 85.2898 113.551ZM84.6825 113.5L84.379 113.474C84.3455 113.472 84.3207 113.442 84.3235 113.409C84.3262 113.376 84.3556 113.351 84.389 113.354L84.6926 113.379C84.7259 113.382 84.7508 113.411 84.748 113.444C84.7453 113.478 84.7159 113.503 84.6825 113.5ZM84.0754 113.449L83.7718 113.424C83.7384 113.421 83.7135 113.392 83.7164 113.358C83.7192 113.325 83.7486 113.3 83.7819 113.303L84.0855 113.328C84.1188 113.331 84.1437 113.36 84.141 113.394C84.1382 113.427 84.1087 113.452 84.0754 113.449ZM83.4682 113.398L83.1646 113.373C83.1312 113.37 83.1063 113.341 83.1091 113.307C83.1118 113.274 83.1412 113.249 83.1746 113.252L83.4782 113.277C83.5115 113.28 83.5364 113.31 83.5335 113.343C83.5309 113.376 83.5015 113.401 83.4682 113.398ZM82.861 113.348L82.5574 113.322C82.5239 113.319 82.4991 113.29 82.5019 113.257C82.5046 113.223 82.534 113.198 82.5674 113.201L82.871 113.227C82.9044 113.23 82.9292 113.259 82.9264 113.292C82.9237 113.326 82.8943 113.35 82.861 113.348ZM82.2538 113.297L81.9502 113.271C81.9168 113.269 81.8919 113.239 81.8947 113.206C81.8974 113.172 81.9268 113.148 81.9602 113.15L82.2638 113.176C82.2971 113.179 82.322 113.208 82.3192 113.241C82.3165 113.275 82.2872 113.299 82.2538 113.297ZM81.6466 113.246L81.343 113.221C81.3096 113.218 81.2847 113.188 81.2875 113.155C81.2903 113.122 81.3196 113.097 81.353 113.1L81.6566 113.125C81.6899 113.128 81.7148 113.157 81.712 113.191C81.7093 113.224 81.68 113.249 81.6466 113.246ZM81.0394 113.195L80.7358 113.17C80.7024 113.167 80.6775 113.138 80.6803 113.104C80.683 113.071 80.7124 113.046 80.7458 113.049L81.0494 113.074C81.0827 113.077 81.1076 113.106 81.1049 113.14C81.1021 113.173 81.0728 113.198 81.0394 113.195ZM80.4322 113.144L80.1286 113.119C80.0952 113.116 80.0703 113.087 80.0731 113.053C80.0759 113.02 80.1052 112.995 80.1386 112.998L80.4422 113.023C80.4755 113.026 80.5004 113.056 80.4976 113.089C80.4949 113.122 80.4656 113.147 80.4322 113.144ZM79.825 113.094L79.5214 113.068C79.4879 113.065 79.4631 113.036 79.4659 113.003C79.4686 112.969 79.498 112.944 79.5314 112.947L79.835 112.973C79.8683 112.975 79.8932 113.005 79.8905 113.038C79.8877 113.072 79.8584 113.096 79.825 113.094ZM79.2178 113.043L78.9142 113.017C78.8808 113.014 78.8559 112.985 78.8588 112.952C78.8616 112.918 78.891 112.894 78.9243 112.896L79.2279 112.922C79.2612 112.924 79.2861 112.954 79.2834 112.987C79.2806 113.021 79.2512 113.046 79.2178 113.043ZM78.6107 112.992L78.3071 112.967C78.2738 112.964 78.2489 112.934 78.2516 112.901C78.2544 112.868 78.2838 112.843 78.3171 112.846L78.6207 112.871C78.654 112.874 78.6789 112.903 78.6762 112.936C78.6734 112.97 78.644 112.995 78.6107 112.992ZM78.0034 112.941L77.6998 112.916C77.6664 112.913 77.6415 112.883 77.6443 112.85C77.6471 112.817 77.6764 112.792 77.7098 112.795L78.0134 112.82C78.0468 112.823 78.0716 112.852 78.0688 112.886C78.0661 112.919 78.0368 112.944 78.0034 112.941ZM77.3963 112.89C77.2889 112.881 77.1837 112.857 77.0839 112.82C77.0525 112.808 77.0366 112.773 77.0484 112.742C77.0601 112.71 77.0953 112.694 77.1266 112.706C77.2162 112.74 77.3102 112.761 77.4066 112.769C77.44 112.772 77.4647 112.802 77.4619 112.835C77.4589 112.868 77.4296 112.893 77.3963 112.89ZM86.801 113.572C86.7784 113.571 86.7577 113.556 86.7491 113.533C86.7374 113.502 86.7535 113.467 86.785 113.455C86.875 113.422 86.9599 113.376 87.0377 113.319C87.0648 113.299 87.1028 113.305 87.1226 113.332C87.1423 113.359 87.1364 113.397 87.1092 113.417C87.0225 113.481 86.9275 113.532 86.8271 113.569C86.8186 113.572 86.8097 113.573 86.801 113.572ZM76.8334 112.678C76.8226 112.677 76.8118 112.674 76.8024 112.667C76.7162 112.603 76.6391 112.528 76.5733 112.443C76.5527 112.417 76.5574 112.379 76.5839 112.358C76.6104 112.337 76.6485 112.342 76.6691 112.369C76.7282 112.445 76.7973 112.512 76.8745 112.569C76.9014 112.589 76.9072 112.627 76.8873 112.654C76.8744 112.671 76.8537 112.68 76.8334 112.678ZM87.287 113.218C87.2755 113.217 87.2642 113.213 87.2546 113.205C87.2282 113.184 87.2237 113.146 87.2444 113.12C87.304 113.044 87.3528 112.961 87.3893 112.872C87.402 112.841 87.4376 112.826 87.4684 112.839C87.4994 112.852 87.5142 112.887 87.5014 112.918C87.4605 113.017 87.4063 113.11 87.3397 113.195C87.3267 113.212 87.3066 113.22 87.287 113.218ZM76.4643 112.203C76.4423 112.202 76.422 112.188 76.413 112.166C76.3726 112.066 76.3461 111.962 76.3344 111.855C76.3307 111.822 76.3548 111.792 76.388 111.788C76.4213 111.785 76.4512 111.809 76.4549 111.842C76.4655 111.938 76.4891 112.031 76.5253 112.12C76.5379 112.151 76.5231 112.187 76.492 112.199C76.483 112.203 76.4735 112.204 76.4643 112.203ZM87.5163 112.662C87.5156 112.662 87.515 112.662 87.5143 112.662C87.481 112.658 87.4571 112.628 87.4611 112.594C87.4624 112.583 87.4636 112.572 87.4645 112.561L87.4869 112.293C87.4897 112.259 87.5191 112.235 87.5524 112.237C87.5857 112.24 87.6106 112.27 87.6079 112.303L87.5855 112.57C87.5844 112.583 87.5832 112.596 87.5816 112.608C87.5778 112.641 87.5488 112.665 87.5163 112.662ZM76.3944 111.605C76.361 111.602 76.3362 111.573 76.339 111.54L76.3644 111.236C76.3672 111.202 76.3965 111.178 76.4299 111.18C76.4632 111.183 76.4881 111.213 76.4852 111.246L76.4598 111.55C76.4572 111.583 76.4278 111.608 76.3944 111.605ZM87.5677 112.055C87.5343 112.052 87.5094 112.023 87.5122 111.989L87.5376 111.686C87.5404 111.652 87.5698 111.627 87.6031 111.63C87.6366 111.633 87.6614 111.662 87.6586 111.696L87.6332 111.999C87.6304 112.033 87.601 112.057 87.5677 112.055ZM76.4452 110.998C76.4118 110.995 76.3869 110.966 76.3897 110.932L76.4151 110.629C76.4179 110.595 76.4473 110.571 76.4806 110.573C76.514 110.576 76.5389 110.605 76.536 110.639L76.5105 110.942C76.508 110.976 76.4786 111.001 76.4452 110.998ZM87.6184 111.447C87.5851 111.445 87.5602 111.415 87.5629 111.382L87.5884 111.078C87.5911 111.045 87.6205 111.02 87.6538 111.023C87.6873 111.026 87.7121 111.055 87.7093 111.089L87.6839 111.392C87.6811 111.425 87.6519 111.45 87.6184 111.447ZM76.496 110.391C76.4627 110.388 76.4378 110.359 76.4406 110.325L76.466 110.022C76.4688 109.988 76.4981 109.963 76.5315 109.966C76.5648 109.969 76.5897 109.998 76.587 110.032L76.5615 110.335C76.5588 110.369 76.5294 110.394 76.496 110.391ZM87.6693 110.84C87.6359 110.837 87.611 110.808 87.6138 110.775L87.6392 110.471C87.642 110.438 87.6714 110.413 87.7047 110.416C87.7381 110.418 87.763 110.448 87.7602 110.481L87.7348 110.785C87.732 110.818 87.7026 110.843 87.6693 110.84ZM76.5469 109.783C76.5136 109.781 76.4887 109.751 76.4914 109.718L76.5169 109.414C76.5196 109.381 76.549 109.356 76.5823 109.359C76.6157 109.362 76.6406 109.391 76.6378 109.424L76.6124 109.728C76.6096 109.762 76.5802 109.786 76.5469 109.783ZM87.72 110.233C87.6867 110.23 87.6618 110.201 87.6645 110.168L87.69 109.864C87.6927 109.831 87.7221 109.806 87.7554 109.808C87.7888 109.811 87.8137 109.841 87.8109 109.874L87.7855 110.178C87.7827 110.211 87.7535 110.236 87.72 110.233ZM76.5976 109.176C76.5643 109.174 76.5394 109.144 76.5422 109.111L76.5676 108.807C76.5704 108.774 76.5997 108.749 76.6331 108.752C76.6664 108.755 76.6913 108.784 76.6886 108.817L76.6631 109.121C76.6604 109.154 76.631 109.179 76.5976 109.176ZM87.7709 109.626C87.7374 109.623 87.7126 109.594 87.7154 109.56L87.7408 109.257C87.7436 109.223 87.773 109.199 87.8063 109.201C87.8398 109.204 87.8645 109.233 87.8618 109.267L87.8364 109.57C87.8336 109.604 87.8042 109.629 87.7709 109.626ZM76.6485 108.569C76.6152 108.566 76.5902 108.537 76.593 108.504L76.6184 108.2C76.6212 108.167 76.6506 108.142 76.6839 108.145C76.7173 108.147 76.7422 108.177 76.7394 108.21L76.714 108.514C76.7112 108.547 76.6818 108.572 76.6485 108.569ZM87.8216 109.019C87.7881 109.016 87.7633 108.987 87.7661 108.953L87.7916 108.65C87.7943 108.616 87.8237 108.591 87.857 108.594C87.8904 108.597 87.9153 108.626 87.9124 108.66L87.887 108.963C87.8843 108.997 87.8551 109.022 87.8216 109.019ZM76.6992 107.962C76.6659 107.959 76.641 107.93 76.6437 107.896L76.6692 107.593C76.6719 107.559 76.7013 107.535 76.7347 107.537C76.7681 107.54 76.7929 107.569 76.7901 107.603L76.7647 107.906C76.762 107.94 76.7327 107.965 76.6992 107.962ZM87.8725 108.412C87.839 108.409 87.8142 108.379 87.817 108.346L87.8424 108.043C87.8452 108.009 87.8746 107.984 87.9079 107.987C87.9412 107.99 87.9661 108.019 87.9632 108.053L87.9378 108.356C87.9352 108.39 87.9058 108.414 87.8725 108.412ZM76.7501 107.355C76.7168 107.352 76.6918 107.323 76.6946 107.289L76.7201 106.986C76.7228 106.952 76.7522 106.927 76.7855 106.93C76.819 106.933 76.8438 106.962 76.841 106.996L76.8156 107.299C76.8128 107.333 76.7834 107.358 76.7501 107.355ZM87.9232 107.804C87.8897 107.802 87.865 107.772 87.8677 107.739L87.8931 107.435C87.8959 107.402 87.9253 107.377 87.9586 107.38C87.992 107.383 88.0169 107.412 88.0141 107.445L87.9887 107.749C87.9859 107.782 87.9567 107.807 87.9232 107.804ZM76.8008 106.748C76.7675 106.745 76.7426 106.715 76.7453 106.682L76.7708 106.378C76.7735 106.345 76.8029 106.32 76.8363 106.323C76.8696 106.326 76.8945 106.355 76.8917 106.389L76.8663 106.692C76.8635 106.726 76.8343 106.75 76.8008 106.748ZM87.974 107.197C87.9407 107.194 87.9158 107.165 87.9186 107.132L87.944 106.828C87.9468 106.795 87.9762 106.77 88.0095 106.773C88.0428 106.775 88.0677 106.805 88.065 106.838L88.0395 107.142C88.0368 107.175 88.0074 107.2 87.974 107.197ZM76.8517 106.14C76.8183 106.138 76.7934 106.108 76.7962 106.075L76.8216 105.771C76.8244 105.738 76.8538 105.713 76.8871 105.716C76.9205 105.719 76.9454 105.748 76.9426 105.781L76.9172 106.085C76.9144 106.118 76.885 106.143 76.8517 106.14ZM88.0248 106.59C87.9913 106.587 87.9665 106.558 87.9693 106.525L87.9947 106.221C87.9975 106.187 88.0269 106.163 88.0602 106.165C88.0936 106.168 88.1185 106.198 88.1156 106.231L88.0901 106.535C88.0876 106.568 88.0583 106.593 88.0248 106.59ZM76.9024 105.533C76.8689 105.53 76.8442 105.501 76.8469 105.468L76.8724 105.164C76.8751 105.131 76.9045 105.106 76.9379 105.109C76.9712 105.112 76.9961 105.141 76.9933 105.174L76.9679 105.478C76.9651 105.511 76.9359 105.536 76.9024 105.533ZM88.0756 105.983C88.0422 105.98 88.0174 105.951 88.0202 105.917L88.0456 105.614C88.0484 105.58 88.0778 105.555 88.1111 105.558C88.1444 105.561 88.1693 105.59 88.1664 105.624L88.141 105.927C88.1384 105.961 88.109 105.986 88.0756 105.983ZM76.9533 104.926C76.9198 104.923 76.895 104.894 76.8978 104.861L76.9232 104.557C76.926 104.523 76.9554 104.499 76.9887 104.501C77.0221 104.504 77.047 104.534 77.0441 104.567L77.0186 104.871C77.016 104.904 76.9866 104.929 76.9533 104.926ZM88.1264 105.376C88.093 105.373 88.0681 105.343 88.0709 105.31L88.0963 105.007C88.0991 104.973 88.1285 104.948 88.1618 104.951C88.1952 104.954 88.2201 104.983 88.2173 105.017L88.1919 105.32C88.1892 105.354 88.1598 105.378 88.1264 105.376ZM77.004 104.319C76.9705 104.316 76.9458 104.287 76.9485 104.253L76.974 103.95C76.9767 103.916 77.0061 103.891 77.0395 103.894C77.0728 103.897 77.0977 103.926 77.0948 103.96L77.0694 104.263C77.0667 104.297 77.0375 104.322 77.004 104.319ZM88.1772 104.768C88.1438 104.766 88.119 104.736 88.1218 104.703L88.1294 104.611C88.1351 104.544 88.1342 104.477 88.127 104.411C88.1235 104.377 88.1475 104.347 88.1809 104.344C88.2141 104.34 88.2442 104.364 88.2479 104.398C88.2558 104.472 88.2567 104.547 88.2505 104.622L88.2429 104.713C88.24 104.746 88.2106 104.771 88.1772 104.768ZM77.0554 103.712C77.0547 103.712 77.0541 103.712 77.0536 103.712C77.0202 103.708 76.9964 103.678 77.0002 103.644C77.0124 103.538 77.0392 103.433 77.0796 103.334C77.0923 103.303 77.1279 103.288 77.1588 103.301C77.1898 103.314 77.2047 103.349 77.1919 103.38C77.1557 103.469 77.1317 103.562 77.1208 103.658C77.1169 103.691 77.088 103.714 77.0554 103.712ZM88.1086 104.17C88.0864 104.168 88.0662 104.154 88.0573 104.132C88.0214 104.043 87.9731 103.96 87.9142 103.883C87.8937 103.857 87.8986 103.819 87.925 103.798C87.9515 103.778 87.9896 103.783 88.0102 103.809C88.0759 103.894 88.1297 103.988 88.1699 104.087C88.1824 104.118 88.1675 104.153 88.1364 104.166C88.1272 104.169 88.1177 104.171 88.1086 104.17ZM77.2834 103.155C77.2719 103.154 77.2607 103.15 77.2511 103.142C77.2247 103.122 77.2201 103.084 77.2408 103.057C77.307 102.973 77.3844 102.898 77.4709 102.835C77.498 102.815 77.536 102.821 77.5557 102.848C77.5755 102.875 77.5697 102.913 77.5427 102.933C77.4651 102.989 77.3956 103.057 77.3363 103.132C77.3232 103.149 77.303 103.157 77.2834 103.155ZM87.7402 103.694C87.7292 103.693 87.7185 103.689 87.7091 103.682C87.6317 103.625 87.547 103.579 87.4574 103.545C87.426 103.533 87.4102 103.498 87.4221 103.467C87.4339 103.435 87.469 103.419 87.5003 103.431C87.6005 103.469 87.6951 103.521 87.7814 103.585C87.8083 103.605 87.814 103.643 87.7941 103.67C87.781 103.687 87.7605 103.696 87.7402 103.694ZM77.7688 102.8C77.7461 102.798 77.7255 102.783 77.717 102.76C77.7053 102.729 77.7212 102.694 77.7526 102.682C77.8531 102.645 77.9584 102.621 78.0653 102.613C78.099 102.61 78.128 102.635 78.1306 102.668C78.1333 102.702 78.1084 102.731 78.075 102.734C77.9792 102.741 77.885 102.762 77.7949 102.796C77.7863 102.799 77.7775 102.8 77.7688 102.8ZM86.8698 103.455C86.8365 103.453 86.8116 103.423 86.8145 103.39C86.8172 103.356 86.8466 103.332 86.88 103.334L87.1836 103.36C87.2169 103.363 87.2439 103.392 87.2411 103.426C87.2384 103.459 87.2112 103.484 87.1778 103.481L87.1828 103.421L87.1758 103.481L86.8698 103.455ZM86.5662 103.43L86.2626 103.405C86.2293 103.402 86.2044 103.372 86.2071 103.339C86.2099 103.306 86.2393 103.281 86.2726 103.284L86.5762 103.309C86.6097 103.312 86.6345 103.341 86.6317 103.375C86.6289 103.408 86.5997 103.433 86.5662 103.43ZM85.959 103.379L85.6554 103.354C85.6219 103.351 85.5972 103.322 85.5999 103.288C85.6027 103.255 85.6321 103.23 85.6654 103.233L85.969 103.258C86.0024 103.261 86.0273 103.29 86.0245 103.324C86.0219 103.357 85.9925 103.382 85.959 103.379ZM85.3518 103.328L85.0482 103.303C85.0149 103.3 84.99 103.271 84.9927 103.237C84.9955 103.204 85.0249 103.179 85.0582 103.182L85.3618 103.207C85.3952 103.21 85.4201 103.24 85.4173 103.273C85.4147 103.306 85.3853 103.331 85.3518 103.328ZM84.7448 103.278L84.4411 103.252C84.4078 103.249 84.3829 103.22 84.3857 103.187C84.3884 103.153 84.4178 103.128 84.4512 103.131L84.7548 103.157C84.7882 103.159 84.813 103.189 84.8102 103.222C84.8075 103.256 84.7781 103.28 84.7448 103.278ZM84.1374 103.227L83.8338 103.201C83.8005 103.199 83.7756 103.169 83.7783 103.136C83.7811 103.102 83.8105 103.078 83.8438 103.08L84.1474 103.106C84.1808 103.109 84.2057 103.138 84.2029 103.171C84.2003 103.205 84.1709 103.23 84.1374 103.227ZM83.5304 103.176L83.2267 103.151C83.1934 103.148 83.1685 103.118 83.1713 103.085C83.174 103.052 83.2034 103.027 83.2368 103.03L83.5404 103.055C83.5737 103.058 83.5986 103.087 83.5958 103.121C83.5931 103.154 83.5637 103.179 83.5304 103.176ZM82.9231 103.125L82.6196 103.1C82.5862 103.097 82.5613 103.068 82.5641 103.034C82.5668 103.001 82.5962 102.976 82.6296 102.979L82.9332 103.004C82.9665 103.007 82.9914 103.036 82.9886 103.07C82.9859 103.103 82.9565 103.128 82.9231 103.125ZM82.316 103.074L82.0124 103.049C81.979 103.046 81.9541 103.017 81.9569 102.983C81.9596 102.95 81.989 102.925 82.0224 102.928L82.326 102.953C82.3594 102.956 82.3842 102.986 82.3814 103.019C82.3787 103.052 82.3493 103.077 82.316 103.074ZM81.7087 103.024L81.4052 102.998C81.3718 102.995 81.3469 102.966 81.3497 102.933C81.3524 102.899 81.3818 102.874 81.4152 102.877L81.7188 102.903C81.7521 102.906 81.777 102.935 81.7742 102.968C81.7715 103.002 81.7421 103.026 81.7087 103.024ZM81.1016 102.973L80.798 102.947C80.7645 102.945 80.7397 102.915 80.7425 102.882C80.7452 102.848 80.7746 102.824 80.808 102.826L81.1116 102.852C81.1449 102.855 81.1698 102.884 81.167 102.917C81.1643 102.951 81.1349 102.976 81.1016 102.973ZM80.4944 102.922L80.1908 102.897C80.1573 102.894 80.1325 102.864 80.1353 102.831C80.138 102.798 80.1674 102.773 80.2008 102.776L80.5044 102.801C80.5377 102.804 80.5626 102.833 80.5598 102.867C80.5571 102.9 80.5277 102.925 80.4944 102.922ZM79.8872 102.871L79.5836 102.846C79.5502 102.843 79.5253 102.814 79.5282 102.78C79.531 102.747 79.5604 102.722 79.5937 102.725L79.8973 102.75C79.9306 102.753 79.9555 102.782 79.9528 102.816C79.9499 102.849 79.9205 102.874 79.8872 102.871ZM79.28 102.82L78.9764 102.795C78.943 102.792 78.9181 102.763 78.9209 102.73C78.9236 102.696 78.953 102.671 78.9864 102.674L79.29 102.699C79.3233 102.702 79.3482 102.732 79.3454 102.765C79.3427 102.798 79.3134 102.823 79.28 102.82ZM78.6728 102.77L78.3692 102.744C78.3357 102.741 78.3109 102.712 78.3137 102.679C78.3165 102.645 78.3458 102.62 78.3792 102.623L78.6828 102.649C78.7161 102.651 78.741 102.681 78.7382 102.714C78.7355 102.748 78.7062 102.772 78.6728 102.77Z" fill="white"/>
<path d="M89.6491 109.894L84.6022 109.472C84.0905 109.429 83.7105 108.979 83.7533 108.468L83.7898 108.031C83.8326 107.519 84.2821 107.139 84.7938 107.182L89.8407 107.604L89.6491 109.894Z" fill="#B12024"/>
<path d="M85.7232 108.412C85.695 108.749 85.3987 109 85.0615 108.972C84.7243 108.943 84.474 108.647 84.5022 108.31C84.5304 107.973 84.8266 107.722 85.1638 107.751C85.5009 107.779 85.7514 108.075 85.7232 108.412Z" fill="white"/>
<path d="M19.2618 18.5515H62.0952C63.4403 18.5515 64.5308 17.461 64.5308 16.1159C64.5308 14.7708 63.4404 13.6802 62.0952 13.6802H19.2618C17.9167 13.6802 16.8262 14.7706 16.8262 16.1159C16.8262 17.4611 17.9167 18.5515 19.2618 18.5515Z" fill="white"/>
<path d="M75.2286 28.2941H118.062C119.407 28.2941 120.498 27.2037 120.498 25.8585C120.498 24.5134 119.407 23.4229 118.062 23.4229H75.2286C73.8835 23.4229 72.793 24.5134 72.793 25.8585C72.793 27.2036 73.8834 28.2941 75.2286 28.2941Z" fill="white"/>
<path d="M84.4884 33.1654H127.322C128.667 33.1654 129.757 32.0749 129.757 30.7298C129.757 29.3847 128.667 28.2941 127.322 28.2941H84.4884C83.1433 28.2941 82.0527 29.3847 82.0527 30.7298C82.0527 32.0749 83.1431 33.1654 84.4884 33.1654Z" fill="#2292B8"/>
<path d="M3.17588 38.0368H46.0093C47.3544 38.0368 48.4449 36.9462 48.4449 35.6011C48.4449 34.256 47.3544 33.1655 46.0093 33.1655H3.17588C1.83077 33.1655 0.740234 34.2559 0.740234 35.6011C0.740234 36.9462 1.83064 38.0368 3.17588 38.0368Z" fill="white"/>
<path d="M10.8009 42.9079H53.6343C54.9794 42.9079 56.0699 41.8174 56.0699 40.4723C56.0699 39.1272 54.9794 38.0366 53.6343 38.0366H10.8009C9.45577 38.0366 8.36523 39.127 8.36523 40.4723C8.36523 41.8175 9.45564 42.9079 10.8009 42.9079Z" fill="#2292B8"/>
<path d="M82.9064 47.9414H125.74C127.085 47.9414 128.175 46.8509 128.175 45.5058C128.175 44.1607 127.085 43.0701 125.74 43.0701H82.9064C81.5612 43.0701 80.4707 44.1607 80.4707 45.5058C80.4707 46.851 81.5612 47.9414 82.9064 47.9414Z" fill="white"/>
<path d="M89.92 52.8127H132.753C134.099 52.8127 135.189 51.7222 135.189 50.3771C135.189 49.0319 134.099 47.9414 132.753 47.9414H89.92C88.5749 47.9414 87.4844 49.0318 87.4844 50.3771C87.4845 51.7223 88.5749 52.8127 89.92 52.8127Z" fill="#2292B8"/>
<path d="M101.904 22.8997H116.564L115.559 30.4261H103.092L101.904 22.8997Z" fill="#EB2027"/>
<path d="M116.096 32.3615H102.278L100.66 23.1148H97.0322C96.4978 23.1148 96.0645 22.6815 96.0645 22.147C96.0645 21.6127 96.4977 21.1793 97.0322 21.1793H102.287L103.904 30.4262H116.096C116.63 30.4262 117.064 30.8595 117.064 31.3939C117.064 31.9281 116.63 32.3615 116.096 32.3615Z" fill="#CA2127"/>
<path d="M105.882 35.1571C106.714 35.1571 107.388 34.4831 107.388 33.6517C107.388 32.8203 106.714 32.1464 105.882 32.1464C105.051 32.1464 104.377 32.8203 104.377 33.6517C104.377 34.4831 105.051 35.1571 105.882 35.1571Z" fill="#CA2127"/>
<path d="M113.3 35.1569C114.131 35.1569 114.805 34.483 114.805 33.6517C114.805 32.8204 114.131 32.1465 113.3 32.1465C112.469 32.1465 111.795 32.8204 111.795 33.6517C111.795 34.483 112.469 35.1569 113.3 35.1569Z" fill="#CA2127"/>
<path d="M113.58 25.0501H104.993C104.911 25.0501 104.844 24.9832 104.844 24.9004V24.5547C104.844 24.472 104.911 24.405 104.993 24.405H113.58C113.663 24.405 113.73 24.4719 113.73 24.5547V24.9004C113.73 24.983 113.663 25.0501 113.58 25.0501Z" fill="white"/>
<path d="M113.58 26.9854H104.993C104.911 26.9854 104.844 26.9185 104.844 26.8357V26.49C104.844 26.4073 104.911 26.3403 104.993 26.3403H113.58C113.663 26.3403 113.73 26.4072 113.73 26.49V26.8357C113.73 26.9185 113.663 26.9854 113.58 26.9854Z" fill="white"/>
<path d="M113.58 29.0284H104.993C104.911 29.0284 104.844 28.9615 104.844 28.8787V28.5329C104.844 28.4503 104.911 28.3832 104.993 28.3832H113.58C113.663 28.3832 113.73 28.4502 113.73 28.5329V28.8787C113.73 28.9613 113.663 29.0284 113.58 29.0284Z" fill="white"/>
<path d="M80.9512 81.6079C79.8844 81.6079 78.9467 80.9007 78.6537 79.8748L76.9835 74.0292H69.1077H61.2319L59.5617 79.8748C59.2686 80.9007 58.331 81.6079 57.2641 81.6079C56.4659 81.6079 55.753 82.1915 55.6771 82.9862C55.5901 83.8978 56.3047 84.6648 57.1984 84.6648H81.0167C81.9104 84.6648 82.625 83.8978 82.538 82.9862C82.4624 82.1915 81.7495 81.6079 80.9512 81.6079Z" fill="#D0D2D3"/>
<path d="M98.3665 77.15H39.8481C38.2806 77.15 37.0098 75.8792 37.0098 74.3116V39.9938C37.0098 38.4263 38.2806 37.1555 39.8481 37.1555H98.3665C99.9341 37.1555 101.205 38.4263 101.205 39.9938V74.3116C101.205 75.8792 99.9341 77.15 98.3665 77.15Z" fill="#231F20"/>
<path d="M98.0847 40.2123H40.1309V67.5971H98.0847V40.2123Z" fill="#D0D2D3"/>
<path d="M37.0098 70.9088V74.4863C37.0098 75.9574 38.2024 77.1499 39.6734 77.1499H98.5411C100.012 77.1499 101.205 75.9574 101.205 74.4863V70.9088H37.0098Z" fill="#E6E7E8"/>
<path d="M40.1309 67.5971L98.0848 40.2123V67.5971H40.1309Z" fill="#B6B6B7"/>
<path d="M39.0673 50.7993C40.4601 50.7993 41.6409 49.9026 42.0712 48.656V44.4299L45.4707 40.2124H40.13L35.8867 44.4386V47.619C35.8869 49.3753 37.3108 50.7993 39.0673 50.7993Z" fill="#EC1C24"/>
<path d="M51.1174 40.2123H45.4717L42.0723 44.4297V48.6559C42.5028 49.9024 43.6834 50.7991 45.0762 50.7991C46.4691 50.7991 47.6499 49.9024 48.0802 48.6559L48.0628 44.4297L51.1174 40.2123Z" fill="#F4FAFD"/>
<path d="M48.0791 48.656C48.0791 48.656 47.9635 48.897 47.7812 49.2823C47.9018 49.0862 48.0028 48.877 48.0791 48.656Z" fill="#EC1C24"/>
<path d="M56.4789 40.2123H51.1173L48.0801 44.4297V48.6559C48.5106 49.9024 49.6912 50.7991 51.0841 50.7991C52.4769 50.7991 53.6577 49.9024 54.088 48.6559L54.0808 44.4297L56.4789 40.2123Z" fill="#EC1C24"/>
<path d="M54.0792 48.656L54.0781 48.6774C54.0806 48.6701 54.0839 48.6633 54.0864 48.656C54.5168 49.9026 55.6976 50.7993 57.0904 50.7993C58.4832 50.7993 59.664 49.9026 60.0944 48.656V44.1691L62.0418 40.2123H56.4773L54.0792 44.4297V48.656Z" fill="#F4FAFD"/>
<path d="M66.1035 48.656C66.1322 48.7392 66.1648 48.8205 66.2 48.9003L66.1035 48.656Z" fill="#EC1C24"/>
<path d="M60.0957 48.656C60.5262 49.9026 61.7069 50.7993 63.0997 50.7993C64.4925 50.7993 65.6733 49.9026 66.1037 48.656V44.1691L67.2423 40.2123H62.0433L60.0958 44.1691L60.0957 48.656Z" fill="#EC1C24"/>
<path d="M99.1477 50.7993C97.7549 50.7993 96.5741 49.9026 96.1437 48.656V44.4299L92.7441 40.2124H98.0848L102.328 44.4386V47.619C102.328 49.3753 100.904 50.7993 99.1477 50.7993Z" fill="#EC1C24"/>
<path d="M87.0977 40.2123H92.7434L96.1429 44.4297V48.6559C95.7124 49.9024 94.5318 50.7991 93.1389 50.7991C91.7461 50.7991 90.5653 49.9024 90.135 48.6559L90.1525 44.4297L87.0977 40.2123Z" fill="#F4FAFD"/>
<path d="M90.1348 48.656C90.1348 48.656 90.2503 48.897 90.4326 49.2823C90.312 49.0862 90.2111 48.877 90.1348 48.656Z" fill="#EC1C24"/>
<path d="M81.7363 40.2123H87.0979L90.1351 44.4297V48.6559C89.7046 49.9024 88.524 50.7991 87.1311 50.7991C85.7383 50.7991 84.5575 49.9024 84.1272 48.6559L84.1344 44.4297L81.7363 40.2123Z" fill="#EC1C24"/>
<path d="M84.1345 48.656L84.1356 48.6774C84.1331 48.6701 84.1298 48.6633 84.1273 48.656C83.6968 49.9026 82.5161 50.7993 81.1233 50.7993C79.7305 50.7993 78.5497 49.9026 78.1193 48.656V44.1691L76.1719 40.2123H81.7364L84.1345 44.4297V48.656Z" fill="#F4FAFD"/>
<path d="M72.1121 48.656C72.0834 48.7392 72.0508 48.8205 72.0156 48.9003L72.1121 48.656Z" fill="#EC1C24"/>
<path d="M78.1192 48.656C77.6889 49.9026 76.5081 50.7993 75.1153 50.7993C73.7224 50.7993 72.5416 49.9026 72.1113 48.656V44.1691L70.9727 40.2123H76.1717L78.1191 44.1691V48.656H78.1192Z" fill="#EC1C24"/>
<path d="M70.9731 40.2123H70.6406H69.1076H67.5746H67.2421L66.1035 44.1691V48.656C66.534 49.9026 67.7147 50.7993 69.1075 50.7993C70.5003 50.7993 71.681 49.9026 72.1115 48.656V44.1691L70.9731 40.2123Z" fill="#F4FAFD"/>
<path d="M53.3203 54.9002V62.7145L85.701 60.7227V53.7605L53.3203 52.8304V54.9002Z" fill="#ED8C22"/>
<path d="M97.3798 41.1977C99.994 41.1977 102.113 39.0785 102.113 36.4644C102.113 33.8502 99.994 31.731 97.3798 31.731C94.7657 31.731 92.6465 33.8502 92.6465 36.4644C92.6465 39.0785 94.7657 41.1977 97.3798 41.1977Z" fill="#FAAF41"/>
<path d="M97.38 40.1998C99.443 40.1998 101.115 38.5274 101.115 36.4644C101.115 34.4014 99.443 32.7289 97.38 32.7289C95.3169 32.7289 93.6445 34.4014 93.6445 36.4644C93.6445 38.5274 95.3169 40.1998 97.38 40.1998Z" fill="#E2B339"/>
<path d="M100.899 36.9758C101.178 35.0339 99.83 33.2334 97.8882 32.9543C95.9464 32.6751 94.146 34.023 93.8668 35.9649C93.5876 37.9067 94.9355 39.7072 96.8772 39.9864C98.819 40.2655 100.619 38.9176 100.899 36.9758Z" fill="#F8C340"/>
<path d="M97.1295 38.754V38.2111C96.7767 38.1999 96.4241 38.0993 96.2227 37.9647L96.3738 37.4384C96.5921 37.5672 96.9055 37.6848 97.2472 37.6848C97.5998 37.6848 97.8404 37.5114 97.8404 37.2425C97.8404 36.9907 97.6446 36.8283 97.2303 36.6773C96.6425 36.4644 96.2619 36.1957 96.2619 35.6752C96.2619 35.1939 96.5977 34.8244 97.1631 34.7234V34.1749H97.6221V34.6956C97.9748 34.7068 98.2156 34.7906 98.3946 34.8802L98.2435 35.3953C98.1091 35.3338 97.8629 35.2051 97.482 35.2051C97.0902 35.2051 96.9503 35.4065 96.9503 35.5968C96.9503 35.8263 97.1518 35.9551 97.6276 36.1454C98.2546 36.3806 98.5344 36.6827 98.5344 37.181C98.5344 37.6568 98.2042 38.0766 97.5883 38.1774V38.754H97.1295Z" fill="white"/>
<path d="M102.249 45.8565C104.863 45.8565 106.982 43.7373 106.982 41.1232C106.982 38.509 104.863 36.3898 102.249 36.3898C99.6348 36.3898 97.5156 38.509 97.5156 41.1232C97.5156 43.7373 99.6348 45.8565 102.249 45.8565Z" fill="#FAAF41"/>
<path d="M102.249 44.8586C104.312 44.8586 105.985 43.1862 105.985 41.1232C105.985 39.0602 104.312 37.3878 102.249 37.3878C100.186 37.3878 98.5137 39.0602 98.5137 41.1232C98.5137 43.1862 100.186 44.8586 102.249 44.8586Z" fill="#E2B339"/>
<path d="M102.25 44.6755C104.211 44.6755 105.802 43.0851 105.802 41.1232C105.802 39.1613 104.211 37.5709 102.25 37.5709C100.288 37.5709 98.6973 39.1613 98.6973 41.1232C98.6973 43.0851 100.288 44.6755 102.25 44.6755Z" fill="#F8C340"/>
<path d="M101.999 43.4127V42.8698C101.646 42.8586 101.293 42.7579 101.092 42.6234L101.243 42.0971C101.461 42.2259 101.775 42.3435 102.116 42.3435C102.469 42.3435 102.71 42.1701 102.71 41.9012C102.71 41.6494 102.514 41.487 102.099 41.336C101.512 41.1231 101.131 40.8544 101.131 40.3339C101.131 39.8525 101.467 39.4831 102.032 39.3821V38.8336H102.491V39.3543C102.844 39.3655 103.085 39.4493 103.264 39.5389L103.113 40.054C102.978 39.9925 102.732 39.8637 102.351 39.8637C101.959 39.8637 101.819 40.0652 101.819 40.2555C101.819 40.485 102.021 40.6138 102.497 40.8041C103.124 41.0393 103.404 41.3414 103.404 41.8396C103.404 42.3155 103.073 42.7353 102.457 42.8361V43.4127H101.999Z" fill="white"/>
<path d="M34.6704 34.2633C39.3122 34.2633 43.0751 30.5003 43.0751 25.8585C43.0751 21.2167 39.3122 17.4538 34.6704 17.4538C30.0285 17.4538 26.2656 21.2167 26.2656 25.8585C26.2656 30.5003 30.0285 34.2633 34.6704 34.2633Z" fill="#EC1C24"/>
<path d="M38.2825 22.0836L38.1505 21.3404H31.1882L31.0563 22.0836L30.7663 23.7177L29.7869 29.2353L29.6699 29.8952L33.3732 30.3766L34.6694 26.3771L35.9655 30.3766L39.6689 29.8952L38.2825 22.0836Z" fill="white"/>
<path d="M56.8694 58.6705V55.1654C57.1171 55.1232 57.465 55.0916 57.9551 55.0916C58.4506 55.0916 58.8038 55.1865 59.0409 55.3762C59.2676 55.5554 59.4204 55.8506 59.4204 56.1985C59.4204 56.5463 59.3045 56.8415 59.0936 57.0418C58.8196 57.3001 58.4137 57.416 57.9393 57.416C57.8339 57.416 57.739 57.4107 57.6653 57.4002V58.6705H56.8694ZM57.6653 55.7293V56.7782C57.7338 56.7941 57.8181 56.7993 57.9341 56.7993C58.361 56.7993 58.6245 56.5832 58.6245 56.2195C58.6245 55.8927 58.3979 55.6977 57.9973 55.6977C57.8339 55.6977 57.7232 55.7135 57.6653 55.7293ZM59.932 58.6705V55.1654C60.1903 55.1232 60.575 55.0916 61.002 55.0916C61.5291 55.0916 61.898 55.1706 62.151 55.3709C62.3618 55.5396 62.4778 55.7873 62.4778 56.1141C62.4778 56.5674 62.1563 56.8784 61.8506 56.9891V57.0049C62.0983 57.105 62.2353 57.3422 62.325 57.669C62.4356 58.0696 62.5463 58.5334 62.6148 58.6705H61.7926C61.7346 58.5651 61.6503 58.2804 61.5449 57.843C61.45 57.4002 61.2971 57.279 60.9704 57.2737H60.7279V58.6705H59.932ZM60.7279 55.7135V56.6939H61.0441C61.4447 56.6939 61.6819 56.4936 61.6819 56.1826C61.6819 55.8558 61.4605 55.6925 61.0916 55.6872C60.8966 55.6872 60.7859 55.703 60.7279 55.7135ZM64.6012 55.06C65.6923 55.06 66.2879 55.8769 66.2879 56.8573C66.2879 58.0222 65.5816 58.7285 64.5433 58.7285C63.4891 58.7285 62.8724 57.9326 62.8724 56.9206C62.8724 55.8558 63.5524 55.06 64.6012 55.06ZM64.5802 55.6977C64.0373 55.6977 63.721 56.2143 63.721 56.9047C63.721 57.6005 64.0478 58.0907 64.5854 58.0907C65.1283 58.0907 65.4393 57.5741 65.4393 56.8837C65.4393 56.2459 65.1336 55.6977 64.5802 55.6977ZM66.8139 58.6547V55.1654C67.1091 55.1179 67.4939 55.0916 67.8997 55.0916C68.5744 55.0916 69.0119 55.2128 69.3545 55.4711C69.7234 55.7452 69.9553 56.1826 69.9553 56.8099C69.9553 57.4898 69.7076 57.9589 69.365 58.2488C68.9908 58.5598 68.4215 58.7074 67.7258 58.7074C67.3094 58.7074 67.0142 58.681 66.8139 58.6547ZM67.6204 55.7399V58.0643C67.6889 58.0801 67.7996 58.0801 67.8997 58.0801C68.6271 58.0854 69.1015 57.6848 69.1015 56.8362C69.1067 56.0983 68.6745 55.7083 67.9841 55.7083C67.8048 55.7083 67.6889 55.7241 67.6204 55.7399ZM70.4787 55.1179H71.2851V57.163C71.2851 57.7744 71.517 58.0854 71.9282 58.0854C72.3498 58.0854 72.5817 57.7902 72.5817 57.163V55.1179H73.3829V57.1103C73.3829 58.2066 72.8295 58.7285 71.9018 58.7285C71.0058 58.7285 70.4787 58.233 70.4787 57.0998V55.1179ZM74.762 58.6705V55.7926H73.8079V55.1179H76.5382V55.7926H75.5684V58.6705H74.762ZM79.2978 57.9431L79.419 58.5703C79.2714 58.6441 78.9394 58.7285 78.5072 58.7285C77.2791 58.7285 76.6466 57.9589 76.6466 56.9469C76.6466 55.7346 77.511 55.06 78.5862 55.06C79.0026 55.06 79.3189 55.1443 79.4612 55.2181L79.2978 55.8558C79.1344 55.7873 78.9078 55.7241 78.6231 55.7241C77.9854 55.7241 77.4899 56.1088 77.4899 56.8995C77.4899 57.611 77.9116 58.0591 78.6284 58.0591C78.8709 58.0591 79.1397 58.0063 79.2978 57.9431ZM79.8076 58.5071L79.971 57.843C80.1871 57.9536 80.5192 58.0643 80.8618 58.0643C81.2308 58.0643 81.4258 57.9115 81.4258 57.6796C81.4258 57.4582 81.2571 57.3317 80.8302 57.1788C80.2398 56.9733 79.8551 56.6465 79.8551 56.1299C79.8551 55.5238 80.3611 55.06 81.1991 55.06C81.5997 55.06 81.8949 55.1443 82.1057 55.2392L81.9265 55.8875C81.7842 55.819 81.5312 55.7188 81.1833 55.7188C80.8354 55.7188 80.6668 55.8769 80.6668 56.0614C80.6668 56.2881 80.8671 56.3882 81.3256 56.5621C81.9529 56.7941 82.248 57.1208 82.248 57.6216C82.248 58.2172 81.7895 58.7285 80.8144 58.7285C80.4085 58.7285 80.0079 58.6178 79.8076 58.5071Z" fill="white"/>
<path d="M81.6215 58.1418L81.2383 62.4517L82.6124 61.7022L84.2362 64.6795L84.9691 64.2797L85.702 63.8801L84.0782 60.9027L85.4523 60.1533L81.6215 58.1418Z" fill="#6D6E70"/>
</svg>
