<svg width="664" height="416" viewBox="0 0 664 416" fill="none" xmlns="http://www.w3.org/2000/svg">
<path d="M110.544 407.35C110.544 407.35 -65.7697 -28.0399 257.785 1.4314C396.366 14.054 370.496 90.6334 431.7 162.285C471.373 208.729 547.674 170.735 576.268 211.319C604.861 251.903 571.26 367.624 559.472 407.35H110.544Z" fill="#E5F0F8"/>
<path d="M559.836 405.563C559.836 405.563 572.732 354.119 604.88 338.243C637.028 322.366 671.339 344.102 662.627 366.958C655.114 386.667 624.222 362.433 600.186 371.963C576.15 381.493 572.361 405.563 572.361 405.563H559.836Z" fill="#40A87B"/>
<path d="M656.413 353.252C656.413 353.252 621.91 333.589 596.312 351.768C570.713 369.947 562.611 405.563 562.611 405.563" stroke="#6ADB6A" stroke-width="1.44859" stroke-miterlimit="10"/>
<path d="M650.848 344.056L642.82 347.555" stroke="#6ADB6A" stroke-width="1.44859" stroke-miterlimit="10"/>
<path d="M639.253 336.557L623.264 344.056" stroke="#6ADB6A" stroke-width="1.44859" stroke-miterlimit="10"/>
<path d="M615.23 336.557L606.912 346.383" stroke="#6ADB6A" stroke-width="1.44859" stroke-miterlimit="10"/>
<path d="M599.466 343.142L595.727 352.191" stroke="#6ADB6A" stroke-width="1.44859" stroke-miterlimit="10"/>
<path d="M646.835 365.773L634.512 345.386" stroke="#6ADB6A" stroke-width="1.44859" stroke-miterlimit="10"/>
<path d="M625.064 362.851L613.762 344.7" stroke="#6ADB6A" stroke-width="1.44859" stroke-miterlimit="10"/>
<path d="M605.865 360.069L588.873 357.958" stroke="#6ADB6A" stroke-width="1.44859" stroke-miterlimit="10"/>
<path d="M586.082 370.364L576.342 373.562" stroke="#6ADB6A" stroke-width="1.44859" stroke-miterlimit="10"/>
<path d="M548.755 405.563C548.755 405.563 539.655 233.126 622.016 255.347C704.378 277.568 557.77 370.503 557.895 405.563H548.755Z" fill="#6ADB6A"/>
<path d="M552.084 405.563C552.084 405.563 554.96 315.47 613.67 270.923" stroke="#40A87B" stroke-width="1.44859" stroke-miterlimit="10"/>
<path d="M587.92 297.046L589.387 265.979" stroke="#40A87B" stroke-width="1.44859" stroke-miterlimit="10"/>
<path d="M633.982 284.173L594.299 289.345" stroke="#40A87B" stroke-width="1.44859" stroke-miterlimit="10"/>
<path d="M618.547 310.688L576.59 315.576" stroke="#40A87B" stroke-width="1.44859" stroke-miterlimit="10"/>
<path d="M597.569 336.963L565.162 341.543" stroke="#40A87B" stroke-width="1.44859" stroke-miterlimit="10"/>
<path d="M562.055 312.412L569.483 330.458" stroke="#40A87B" stroke-width="1.44859" stroke-miterlimit="10"/>
<path d="M574.26 283.123L580.592 308.53" stroke="#40A87B" stroke-width="1.44859" stroke-miterlimit="10"/>
<path d="M555.119 342.539L561.037 354.334" stroke="#40A87B" stroke-width="1.44859" stroke-miterlimit="10"/>
<path d="M580.591 361.321L557.369 368.643" stroke="#40A87B" stroke-width="1.44859" stroke-miterlimit="10"/>
<path d="M104.165 404.985C104.165 404.985 91.2687 353.541 59.121 337.664C26.9732 321.788 -7.33812 343.524 1.37432 366.38C8.8869 386.088 39.7794 361.855 63.8153 371.385C87.8513 380.915 91.6401 404.985 91.6401 404.985H104.165Z" fill="#40A87B"/>
<path d="M7.58984 352.674C7.58984 352.674 42.0927 333.011 67.6916 351.19C93.2906 369.369 101.392 404.984 101.392 404.984" stroke="#6ADB6A" stroke-width="1.44859" stroke-miterlimit="10"/>
<path d="M13.1543 343.478L21.1817 346.978" stroke="#6ADB6A" stroke-width="1.44859" stroke-miterlimit="10"/>
<path d="M24.748 335.979L40.737 343.478" stroke="#6ADB6A" stroke-width="1.44859" stroke-miterlimit="10"/>
<path d="M48.7695 335.979L57.0879 345.805" stroke="#6ADB6A" stroke-width="1.44859" stroke-miterlimit="10"/>
<path d="M64.5371 342.564L68.2762 351.613" stroke="#6ADB6A" stroke-width="1.44859" stroke-miterlimit="10"/>
<path d="M17.168 365.195L29.4911 344.808" stroke="#6ADB6A" stroke-width="1.44859" stroke-miterlimit="10"/>
<path d="M38.9375 362.274L50.2398 344.122" stroke="#6ADB6A" stroke-width="1.44859" stroke-miterlimit="10"/>
<path d="M58.1387 359.491L75.1306 357.38" stroke="#6ADB6A" stroke-width="1.44859" stroke-miterlimit="10"/>
<path d="M77.9199 369.786L87.6595 372.984" stroke="#6ADB6A" stroke-width="1.44859" stroke-miterlimit="10"/>
<path d="M115.248 404.984C115.248 404.984 124.348 232.548 41.986 254.769C-40.3757 276.99 106.233 369.925 106.108 404.984H115.248Z" fill="#6ADB6A"/>
<path d="M111.918 404.984C111.918 404.984 109.042 314.892 50.332 270.345" stroke="#40A87B" stroke-width="1.44859" stroke-miterlimit="10"/>
<path d="M76.0838 296.468L74.6172 265.401" stroke="#40A87B" stroke-width="1.44859" stroke-miterlimit="10"/>
<path d="M30.0215 283.595L69.7043 288.767" stroke="#40A87B" stroke-width="1.44859" stroke-miterlimit="10"/>
<path d="M45.4531 310.11L87.4106 314.998" stroke="#40A87B" stroke-width="1.44859" stroke-miterlimit="10"/>
<path d="M66.4316 336.385L98.8391 340.965" stroke="#40A87B" stroke-width="1.44859" stroke-miterlimit="10"/>
<path d="M101.947 311.834L94.5195 329.881" stroke="#40A87B" stroke-width="1.44859" stroke-miterlimit="10"/>
<path d="M89.7428 282.545L83.4102 307.952" stroke="#40A87B" stroke-width="1.44859" stroke-miterlimit="10"/>
<path d="M108.883 341.961L102.965 353.756" stroke="#40A87B" stroke-width="1.44859" stroke-miterlimit="10"/>
<path d="M83.4102 360.743L106.633 368.065" stroke="#40A87B" stroke-width="1.44859" stroke-miterlimit="10"/>
<path d="M582.259 415.119H87.3499C84.4524 415.119 82.1035 412.77 82.1035 409.872V409.635C82.1035 406.737 84.4524 404.388 87.3499 404.388H582.259C585.156 404.388 587.505 406.737 587.505 409.635V409.872C587.505 412.77 585.156 415.119 582.259 415.119Z" fill="#268BBF"/>
<path d="M540.619 0.000244141H505.066C502.948 0.000244141 501.23 1.7175 501.23 3.83623V24.3038C501.23 26.4223 502.948 28.1398 505.066 28.1398H519.359V32.7574H509.953C509.769 32.7574 509.62 32.9066 509.62 33.0907V34.2721C509.62 34.4562 509.769 34.6054 509.953 34.6054H535.733C535.917 34.6054 536.066 34.4562 536.066 34.2721V33.0907C536.066 32.9066 535.917 32.7574 535.733 32.7574H526.327V28.1398H540.619C542.737 28.1398 544.455 26.4226 544.455 24.3038V3.83623C544.455 1.7175 542.737 0.000244141 540.619 0.000244141Z" fill="#E5F0F8"/>
<path d="M49.725 27.8245H116.556C117.538 27.8245 118.356 27.0619 118.41 26.082C118.612 22.3886 118.198 14.1089 110.415 14.1044C101.794 14.0992 98.9959 17.7824 98.9959 17.7824C98.9959 17.7824 99.7499 2.79016 84.9916 2.81204C71.4044 2.83221 66.4628 16.7436 66.4628 16.7436C66.4628 16.7436 53.4558 10.6198 47.9892 25.3029C47.5352 26.5221 48.4239 27.8245 49.725 27.8245Z" fill="#E5F0F8"/>
<path d="M83.1569 8.29688L78.0938 15.2651H80.5406V22.3398H85.7731V15.2651H88.22L83.1569 8.29688Z" fill="white"/>
<path d="M210.635 39.1387H204.297V30.3811C204.297 25.7189 200.504 21.9258 195.841 21.9258C191.179 21.9258 187.386 25.7189 187.386 30.3811V39.1387H181.048C180.627 39.1387 180.287 39.4791 180.287 39.8971V63.1462C180.287 63.567 180.627 63.9046 181.048 63.9046H195.843H210.635C211.055 63.9046 211.396 63.567 211.396 63.1462V39.8971C211.396 39.4791 211.055 39.1387 210.635 39.1387ZM190.066 30.3811C190.066 27.1966 192.657 24.6057 195.842 24.6057C199.026 24.6057 201.617 27.1966 201.617 30.3811V39.1387H195.843H190.066L190.066 30.3811Z" fill="white"/>
<path d="M526.446 259.102L533.977 257.106L533.567 255.559L531.362 256.143L530.991 254.742L533.196 254.157L532.607 251.936L529.646 252.721L529.275 251.319L532.236 250.534L531.687 248.462L527.548 249.559L526.625 249.804L523.371 250.666L522.964 250.774L516.449 226.194L516.452 226.193L521.318 224.901C524.328 224.1 526.134 220.985 525.338 217.99L523.855 212.38C523.053 209.382 519.943 207.566 516.941 208.365L516.872 208.383L515.62 208.715L515.58 208.728L505.544 211.393L504.873 211.569L502.789 212.12C501.515 212.455 500.462 213.207 499.73 214.196C499.722 214.199 499.722 214.199 499.722 214.199C499.687 214.253 499.647 214.305 499.613 214.36C498.984 215.264 498.615 216.34 498.587 217.46C498.578 217.977 498.635 218.508 498.774 219.034L498.814 219.187L498.819 219.189L499.449 221.571L499.552 221.96L500.257 224.631C500.423 225.271 500.703 225.857 501.056 226.375C501.268 226.681 501.506 226.962 501.766 227.214C502.711 228.135 503.959 228.71 505.291 228.814C505.909 228.868 506.542 228.818 507.176 228.649L511.239 227.571L511.753 227.432L511.921 227.387L511.923 227.386L520.967 261.506C521.101 262.012 521.62 262.311 522.126 262.177L523.471 261.82L524.818 261.463C525.321 261.33 525.624 260.813 525.49 260.307L525.255 259.418L526.125 259.187L526.446 259.102ZM502.706 219.366L502.363 218.082C502.362 218.078 502.362 218.073 502.361 218.068C502.331 217.954 502.314 217.839 502.306 217.724C502.304 217.692 502.306 217.659 502.305 217.627C502.304 217.537 502.307 217.449 502.318 217.361C502.321 217.33 502.327 217.299 502.332 217.268C502.348 217.176 502.37 217.084 502.4 216.996C502.407 216.974 502.413 216.952 502.421 216.931C502.545 216.594 502.758 216.291 503.039 216.064C503.058 216.049 503.079 216.035 503.098 216.021C503.175 215.963 503.256 215.91 503.342 215.865C503.364 215.853 503.385 215.842 503.407 215.831C503.512 215.78 503.622 215.735 503.739 215.704L509.221 214.251L509.28 214.236L511.17 213.735L514.917 212.742L515.647 212.548L516.428 212.342L517.893 211.954C518.091 211.901 518.291 211.892 518.488 211.905C519.3 211.958 520.05 212.519 520.265 213.334L521.752 218.933C521.838 219.26 521.824 219.59 521.742 219.901C521.568 220.564 521.061 221.13 520.366 221.312L512.593 223.372L512.043 223.518L507.377 224.755L506.224 225.059C505.798 225.173 505.363 225.122 504.978 224.959C504.439 224.73 504 224.275 503.841 223.682L503.04 220.643L502.905 220.134L502.706 219.366Z" fill="white"/>
<path d="M550.137 292.83C550.137 292.83 550.512 291.191 551.099 288.179" stroke="#BBDBF3" stroke-width="1.69373" stroke-linecap="round" stroke-linejoin="round"/>
<path d="M552.783 278.732C559.521 237.507 571.922 116.878 497.828 65.859C415.172 8.94456 294.76 22.6957 259.307 83.2595" stroke="#BBDBF3" stroke-width="1.69373" stroke-linecap="round" stroke-linejoin="round" stroke-dasharray="9.6 9.6"/>
<path d="M257.014 87.4773C256.303 88.8905 255.638 90.3274 255.018 91.7875" stroke="#BBDBF3" stroke-width="1.69373" stroke-linecap="round" stroke-linejoin="round"/>
<path d="M71.3929 57.3521L84.534 84.5245C77.6522 87.8527 72.772 93.6515 70.4479 100.346L41.9375 90.4226C46.8054 76.4363 57.0033 64.3112 71.3929 57.3521Z" fill="#E5F0F8"/>
<path d="M115.586 54.7952L105.663 83.3056C98.9753 80.978 91.4068 81.1996 84.5317 84.5245L71.3906 57.352C85.7663 50.4 101.61 49.931 115.586 54.7952Z" fill="#F74242"/>
<path d="M425.063 329.478L435.93 324.649L416.543 325.263L416.772 330.253L425.063 329.478Z" fill="#BBDBF3"/>
<path d="M81.9693 83.3271L71.5586 89.7268L75.1215 117.219L81.9693 83.3271Z" fill="#BBDBF3"/>
<path d="M421.777 330.253H103.931C99.683 330.253 95.8436 326.851 95.3496 322.66L71.5921 121.519L71.554 121.215L69.4918 103.806L69.0261 99.8526L68.817 98.0566C68.3229 93.8848 70.0333 88.8768 74.2623 88.8768L391.7 82.3862C395.938 82.3862 399.778 85.7693 400.281 89.9412L428.534 322.66C429.047 326.851 426.015 330.253 421.777 330.253Z" fill="#BBDBF3"/>
<path d="M115.114 325.264H432.949C437.191 325.264 440.215 321.932 439.703 317.824L411.259 89.7936C410.748 85.7036 406.904 82.3882 402.671 82.3882H85.5949C81.3623 82.3882 78.3338 85.7036 78.8307 89.7936L106.528 317.824C107.027 321.932 110.871 325.264 115.114 325.264Z" fill="white"/>
<path d="M88.7949 91.7878L89.4163 96.8657L116.037 315.82H429.707L401.784 91.7878H88.7949Z" fill="#BBDBF3"/>
<path d="M89.4141 96.8657L116.035 315.82H425.404L398.113 96.8657H89.4141Z" fill="#E5F0F8"/>
<path d="M366.335 113.245H392.74L392.226 109.138H365.822L366.335 113.245Z" fill="#BBDBF3"/>
<path d="M297.356 119.567H333.361H400.943L402.694 133.548H93.866L92.1777 119.567H297.356Z" fill="#BBDBF3"/>
<path d="M333.852 113.245H360.258L359.746 109.138H333.342L333.852 113.245Z" fill="#BBDBF3"/>
<path d="M301.372 113.245H327.777L327.267 109.138H300.863L301.372 113.245Z" fill="#BBDBF3"/>
<path d="M268.889 113.245H295.295L294.787 109.138H268.383L268.889 113.245Z" fill="#BBDBF3"/>
<path d="M361.088 127.891H394.574L394.226 125.116H360.742L361.088 127.891Z" fill="white"/>
<path d="M319.897 127.891H353.383L353.037 125.116H319.553L319.897 127.891Z" fill="white"/>
<path d="M278.706 127.891H312.192L311.848 125.116H278.363L278.706 127.891Z" fill="white"/>
<path d="M237.513 127.891H270.999L270.656 125.116H237.172L237.513 127.891Z" fill="white"/>
<path d="M236.407 113.245H262.813L262.306 109.138H235.902L236.407 113.245Z" fill="#BBDBF3"/>
<path d="M203.924 113.245H230.33L229.826 109.138H203.422L203.924 113.245Z" fill="#BBDBF3"/>
<path d="M144.912 116.929H183.293L181.759 104.365H143.385L144.912 116.929Z" stroke="#BBDBF3" stroke-width="1.24351" stroke-miterlimit="10"/>
<path d="M101.203 116.929H139.584L138.058 104.365H99.6836L101.203 116.929Z" fill="#BBDBF3"/>
<path d="M256.957 179.76H401.516L402.914 190.936H258.332L256.957 179.76Z" fill="#BBDBF3"/>
<path d="M402.914 190.936L407.909 230.848H263.243L258.332 190.936H402.914Z" fill="white"/>
<path d="M350.304 186.572H397.209L396.897 184.084H349.994L350.304 186.572Z" fill="white"/>
<path d="M315.683 186.572H347.445L347.136 184.084H315.375L315.683 186.572Z" fill="white"/>
<path d="M267.938 226.867H402.223L398.227 194.913H264.004L267.938 226.867Z" stroke="#BBDBF3" stroke-width="0.652865" stroke-miterlimit="10"/>
<path d="M390.573 226.867H402.224L398.228 194.913H386.582L390.573 226.867Z" stroke="#BBDBF3" stroke-width="0.652865" stroke-miterlimit="10"/>
<path d="M323.219 226.867H390.571L386.58 194.913H319.26L323.219 226.867Z" stroke="#BBDBF3" stroke-width="0.652865" stroke-miterlimit="10"/>
<path d="M267.938 226.867H278.566L274.627 194.913H264.004L267.938 226.867Z" stroke="#BBDBF3" stroke-width="0.652865" stroke-miterlimit="10"/>
<path d="M278.567 226.867H289.196L285.252 194.913H274.629L278.567 226.867Z" stroke="#BBDBF3" stroke-width="0.652865" stroke-miterlimit="10"/>
<path d="M289.195 226.867H302.475L298.525 194.913H285.252L289.195 226.867Z" stroke="#BBDBF3" stroke-width="0.652865" stroke-miterlimit="10"/>
<path d="M302.475 226.867H323.22L319.261 194.913H298.525L302.475 226.867Z" stroke="#BBDBF3" stroke-width="0.652865" stroke-miterlimit="10"/>
<path d="M266.1 211.914H400.356L399.421 204.44H265.18L266.1 211.914Z" stroke="#BBDBF3" stroke-width="0.652865" stroke-miterlimit="10"/>
<path d="M267.018 219.389H401.289L400.354 211.914H266.098L267.018 219.389Z" stroke="#BBDBF3" stroke-width="0.652865" stroke-miterlimit="10"/>
<path d="M267.94 226.867H402.225L401.29 219.39H267.02L267.94 226.867Z" stroke="#BBDBF3" stroke-width="0.652865" stroke-miterlimit="10"/>
<path d="M106.803 179.76H251.362L252.736 190.935H108.153L106.803 179.76Z" fill="#BBDBF3"/>
<path d="M252.735 190.935L257.642 230.847H112.976L108.152 190.935H252.735Z" fill="white"/>
<path d="M200.134 186.571H247.039L246.733 184.083H199.83L200.134 186.571Z" fill="white"/>
<path d="M165.514 186.571H197.276L196.972 184.083H165.211L165.514 186.571Z" fill="white"/>
<path d="M117.681 226.866H251.966L248.04 194.912H113.816L117.681 226.866Z" stroke="#BBDBF3" stroke-width="0.652865" stroke-miterlimit="10"/>
<path d="M240.315 226.866H251.967L248.041 194.912H236.395L240.315 226.866Z" stroke="#BBDBF3" stroke-width="0.652865" stroke-miterlimit="10"/>
<path d="M172.964 226.866H240.316L236.395 194.912H169.074L172.964 226.866Z" stroke="#BBDBF3" stroke-width="0.652865" stroke-miterlimit="10"/>
<path d="M117.681 226.866H128.309L124.44 194.912H113.816L117.681 226.866Z" stroke="#BBDBF3" stroke-width="0.652865" stroke-miterlimit="10"/>
<path d="M128.309 226.866H138.937L135.063 194.912H124.439L128.309 226.866Z" stroke="#BBDBF3" stroke-width="0.652865" stroke-miterlimit="10"/>
<path d="M138.94 226.866H152.22L148.34 194.912H135.066L138.94 226.866Z" stroke="#BBDBF3" stroke-width="0.652865" stroke-miterlimit="10"/>
<path d="M152.218 226.866H172.963L169.073 194.912H148.338L152.218 226.866Z" stroke="#BBDBF3" stroke-width="0.652865" stroke-miterlimit="10"/>
<path d="M115.875 211.914H250.131L249.212 204.44H114.971L115.875 211.914Z" stroke="#BBDBF3" stroke-width="0.652865" stroke-miterlimit="10"/>
<path d="M116.777 219.389H251.048L250.129 211.914H115.873L116.777 219.389Z" stroke="#BBDBF3" stroke-width="0.652865" stroke-miterlimit="10"/>
<path d="M117.681 226.866H251.967L251.048 219.389H116.777L117.681 226.866Z" stroke="#BBDBF3" stroke-width="0.652865" stroke-miterlimit="10"/>
<path d="M251.18 137.339H395.668L396.836 145.886H252.334L251.18 137.339Z" fill="#BBDBF3"/>
<path d="M396.835 145.886L401.004 176.4H256.457L252.334 145.886H396.835Z" fill="white"/>
<path d="M344.345 142.549H391.225L390.965 140.646H344.086L344.345 142.549Z" fill="white"/>
<path d="M309.739 142.549H341.484L341.225 140.646H309.48L309.739 142.549Z" fill="white"/>
<path d="M261.228 173.357H395.406L392.07 148.927H257.926L261.228 173.357Z" stroke="#BBDBF3" stroke-width="0.56973" stroke-miterlimit="10"/>
<path d="M383.764 173.357H395.407L392.071 148.927H380.432L383.764 173.357Z" stroke="#BBDBF3" stroke-width="0.56973" stroke-miterlimit="10"/>
<path d="M316.466 173.357H383.765L380.432 148.927H313.15L316.466 173.357Z" stroke="#BBDBF3" stroke-width="0.56973" stroke-miterlimit="10"/>
<path d="M261.228 173.357H271.848L268.543 148.927H257.926L261.228 173.357Z" stroke="#BBDBF3" stroke-width="0.56973" stroke-miterlimit="10"/>
<path d="M271.848 173.357H282.467L279.16 148.927H268.543L271.848 173.357Z" stroke="#BBDBF3" stroke-width="0.56973" stroke-miterlimit="10"/>
<path d="M282.467 173.357H295.737L292.426 148.927H279.16L282.467 173.357Z" stroke="#BBDBF3" stroke-width="0.56973" stroke-miterlimit="10"/>
<path d="M295.738 173.357H316.467L313.151 148.927H292.428L295.738 173.357Z" stroke="#BBDBF3" stroke-width="0.56973" stroke-miterlimit="10"/>
<path d="M259.682 161.927H393.845L393.065 156.212H258.91L259.682 161.927Z" stroke="#BBDBF3" stroke-width="0.56973" stroke-miterlimit="10"/>
<path d="M260.456 167.642H394.626L393.846 161.927H259.684L260.456 167.642Z" stroke="#BBDBF3" stroke-width="0.56973" stroke-miterlimit="10"/>
<path d="M261.228 173.357H395.406L394.625 167.642H260.455L261.228 173.357Z" stroke="#BBDBF3" stroke-width="0.56973" stroke-miterlimit="10"/>
<path d="M101.1 137.339H245.588L246.742 145.886H102.241L101.1 137.339Z" fill="#BBDBF3"/>
<path d="M246.744 145.886L250.865 176.4H106.317L102.242 145.886H246.744Z" fill="white"/>
<path d="M194.254 142.548H241.134L240.877 140.646H193.998L194.254 142.548Z" fill="white"/>
<path d="M159.652 142.548H191.397L191.141 140.646H159.396L159.652 142.548Z" fill="white"/>
<path d="M111.092 173.357H245.27L241.972 148.927H107.828L111.092 173.357Z" stroke="#BBDBF3" stroke-width="0.56973" stroke-miterlimit="10"/>
<path d="M233.629 173.357H245.271L241.974 148.927H230.334L233.629 173.357Z" stroke="#BBDBF3" stroke-width="0.56973" stroke-miterlimit="10"/>
<path d="M166.33 173.357H233.629L230.334 148.927H163.053L166.33 173.357Z" stroke="#BBDBF3" stroke-width="0.56973" stroke-miterlimit="10"/>
<path d="M111.092 173.357H121.712L118.445 148.927H107.828L111.092 173.357Z" stroke="#BBDBF3" stroke-width="0.56973" stroke-miterlimit="10"/>
<path d="M121.71 173.357H132.33L129.06 148.927H118.443L121.71 173.357Z" stroke="#BBDBF3" stroke-width="0.56973" stroke-miterlimit="10"/>
<path d="M132.332 173.357H145.601L142.328 148.927H129.062L132.332 173.357Z" stroke="#BBDBF3" stroke-width="0.56973" stroke-miterlimit="10"/>
<path d="M145.599 173.357H166.327L163.05 148.927H142.326L145.599 173.357Z" stroke="#BBDBF3" stroke-width="0.56973" stroke-miterlimit="10"/>
<path d="M109.564 161.927H243.727L242.956 156.212H108.801L109.564 161.927Z" stroke="#BBDBF3" stroke-width="0.56973" stroke-miterlimit="10"/>
<path d="M110.328 167.641H244.499L243.727 161.927H109.564L110.328 167.641Z" stroke="#BBDBF3" stroke-width="0.56973" stroke-miterlimit="10"/>
<path d="M111.092 173.357H245.27L244.498 167.641H110.328L111.092 173.357Z" stroke="#BBDBF3" stroke-width="0.56973" stroke-miterlimit="10"/>
<path d="M199.124 275.23C201.235 292.527 216.945 306.54 234.197 306.54C251.448 306.54 263.726 292.527 261.599 275.23H255.472C257.177 289.106 247.297 300.397 233.444 300.397C219.592 300.397 206.946 289.106 205.252 275.23C203.56 261.376 213.441 250.098 227.284 250.098L226.533 243.964C209.296 243.964 197.016 257.958 199.124 275.23Z" fill="#BBDBF3"/>
<path d="M226.531 243.964L227.282 250.098C241.125 250.098 253.769 261.376 255.471 275.23H261.598C259.475 257.958 243.767 243.964 226.531 243.964Z" fill="#F9E181"/>
<path d="M227.283 250.098L228.122 256.949C238.18 256.949 247.376 265.152 248.613 275.23H255.472C253.77 261.376 241.126 250.098 227.283 250.098Z" fill="#F9ECB8"/>
<path d="M205.251 275.23C206.946 289.106 219.591 300.397 233.444 300.397C247.296 300.397 257.176 289.106 255.472 275.23H248.613C249.851 285.311 242.665 293.521 232.602 293.521C222.539 293.521 213.342 285.311 212.11 275.23C210.878 265.152 218.065 256.949 228.123 256.949L227.284 250.098C213.441 250.098 203.559 261.376 205.251 275.23Z" fill="white"/>
<path d="M122.823 275.23C124.915 292.527 140.609 306.541 157.861 306.541C175.113 306.541 187.406 292.527 185.298 275.23C184.037 264.875 177.898 255.696 169.457 250.017L166.435 254.964C173.216 259.553 178.16 266.927 179.171 275.23C180.86 289.106 170.968 300.397 157.116 300.397C143.263 300.397 130.63 289.107 128.95 275.23C127.274 261.376 137.168 250.098 151.011 250.098L150.266 243.965C133.03 243.964 120.734 257.958 122.823 275.23Z" fill="#BBDBF3"/>
<path d="M128.951 275.23C130.63 289.106 143.264 300.397 157.116 300.397C170.968 300.397 180.861 289.106 179.172 275.23C178.161 266.927 173.217 259.553 166.436 254.964L163.06 260.481C167.983 263.817 171.578 269.189 172.313 275.23C173.539 285.311 166.345 293.521 156.281 293.521C146.218 293.521 137.03 285.311 135.809 275.23C134.589 265.152 141.784 256.949 151.842 256.949L151.011 250.098C137.169 250.098 127.274 261.376 128.951 275.23Z" fill="white"/>
<path d="M150.268 243.964L151.012 250.098C156.552 250.098 161.906 251.904 166.437 254.963L169.458 250.017C163.829 246.209 157.172 243.964 150.268 243.964Z" fill="#F9E181"/>
<path d="M151.012 250.098L151.843 256.949C155.873 256.949 159.77 258.267 163.062 260.481L166.437 254.964C161.905 251.904 156.552 250.098 151.012 250.098Z" fill="#F9ECB8"/>
<path d="M205.095 238.937H246.736L246.439 236.511H204.799L205.095 238.937Z" fill="white"/>
<path d="M128.833 238.937H170.474L170.179 236.511H128.539L128.833 238.937Z" fill="white"/>
<path d="M346.515 275.23C348.663 292.527 364.402 306.54 381.654 306.54C398.906 306.54 411.153 292.527 408.99 275.23H402.863C404.597 289.106 394.741 300.397 380.889 300.397C367.036 300.397 354.366 289.106 352.642 275.23C350.921 261.376 360.779 250.098 374.621 250.098L373.857 243.964C356.62 243.964 344.371 257.958 346.515 275.23Z" fill="#BBDBF3"/>
<path d="M373.857 243.964L374.622 250.098C388.464 250.098 401.132 261.376 402.864 275.23H408.991C406.831 257.958 391.094 243.964 373.857 243.964Z" fill="#F9E181"/>
<path d="M374.621 250.098L375.475 256.949C385.533 256.949 394.746 265.152 396.005 275.23H402.863C401.131 261.376 388.463 250.098 374.621 250.098Z" fill="#F9ECB8"/>
<path d="M352.642 275.23C354.366 289.106 367.036 300.397 380.889 300.397C394.741 300.397 404.597 289.106 402.863 275.23H396.005C397.263 285.311 390.095 293.521 380.032 293.521C369.969 293.521 360.755 285.311 359.501 275.23C358.248 265.152 365.417 256.949 375.475 256.949L374.621 250.098C360.779 250.098 350.921 261.376 352.642 275.23Z" fill="white"/>
<path d="M270.212 275.23C272.34 292.527 288.065 306.541 305.317 306.541C322.569 306.541 334.832 292.527 332.688 275.23C331.404 264.876 325.246 255.696 316.792 250.017L313.781 254.964C320.573 259.553 325.532 266.927 326.56 275.231C328.279 289.107 318.41 300.397 304.558 300.397C290.706 300.397 278.048 289.107 276.339 275.231C274.633 261.376 284.504 250.099 298.346 250.099L297.588 243.965C280.352 243.965 268.087 257.958 270.212 275.23Z" fill="#BBDBF3"/>
<path d="M276.34 275.231C278.049 289.106 290.706 300.397 304.559 300.397C318.411 300.397 328.28 289.107 326.561 275.231C325.533 266.927 320.573 259.553 313.782 254.964L310.419 260.481C315.349 263.818 318.955 269.19 319.703 275.23C320.95 285.311 313.773 293.521 303.71 293.521C293.647 293.521 284.441 285.311 283.199 275.23C281.957 265.152 289.135 256.949 299.193 256.949L298.347 250.098C284.504 250.098 274.634 261.376 276.34 275.231Z" fill="white"/>
<path d="M297.59 243.965L298.347 250.098C303.887 250.098 309.245 251.905 313.783 254.964L316.794 250.017C311.156 246.209 304.494 243.965 297.59 243.965Z" fill="#F9E181"/>
<path d="M298.346 250.098L299.192 256.949C303.221 256.949 307.122 258.268 310.418 260.481L313.781 254.964C309.243 251.905 303.886 250.098 298.346 250.098Z" fill="#F9ECB8"/>
<path d="M352.407 238.937H394.048L393.745 236.511H352.105L352.407 238.937Z" fill="white"/>
<path d="M276.145 238.937H317.786L317.485 236.511H275.846L276.145 238.937Z" fill="white"/>
<path d="M383.873 140.986L383.004 134.428C382.797 132.864 381.362 131.597 379.799 131.597H247.778C246.215 131.597 245.103 132.864 245.293 134.428L246.09 140.986L253.222 199.639H391.638L383.873 140.986Z" fill="#93ACBF"/>
<path d="M384.053 126.494H252.032C250.469 126.494 249.356 127.762 249.547 129.325L250.344 135.884L257.476 194.536H395.892L388.127 135.884L387.258 129.325C387.051 127.762 385.616 126.494 384.053 126.494Z" fill="#268BBF"/>
<path d="M251.689 134.301L258.818 192.865H394.124L386.377 134.301H251.689Z" fill="white"/>
<path d="M381.007 178.661H268.326L264.617 148.406H377.031L381.007 178.661Z" fill="#E5F0F8"/>
<path d="M373.417 161.074L375.027 173.366H272.955L271.443 161.074H373.417Z" fill="#6ADB6A"/>
<path d="M281.181 161.074L277.786 173.366H272.954L272.949 173.324L276.312 161.074H281.181Z" fill="#98EB98"/>
<path d="M289.665 161.074L286.278 173.366H281.447L284.818 161.074H289.665Z" fill="#98EB98"/>
<path d="M298.169 161.074L294.79 173.366H289.938L293.3 161.074H298.169Z" fill="#98EB98"/>
<path d="M306.653 161.074L303.282 173.366H298.43L301.784 161.074H306.653Z" fill="#98EB98"/>
<path d="M315.139 161.074L311.798 173.366H306.945L310.291 161.074H315.139Z" fill="#98EB98"/>
<path d="M323.64 161.074L320.286 173.366H315.434L318.771 161.074H323.64Z" fill="#98EB98"/>
<path d="M332.126 161.074L328.802 173.366H323.949L327.279 161.074H332.126Z" fill="#98EB98"/>
<path d="M331.904 173.361H375.032L373.422 161.07H330.336L331.904 173.361Z" fill="white"/>
<path d="M342.666 156.08H300.925L300.58 153.326H342.311L342.666 156.08Z" fill="white"/>
<path d="M283.276 223.531L282.525 217.534C282.346 216.104 281.151 214.944 279.856 214.944H170.475C169.18 214.944 168.268 216.104 168.438 217.534L169.152 223.531L175.525 277.064H289.982L283.276 223.531Z" fill="#93ACBF"/>
<path d="M284.283 209.366H174.903C173.607 209.366 172.696 210.526 172.866 211.956L173.58 217.953L179.953 271.486H294.411L287.704 217.953L286.953 211.956C286.773 210.526 285.578 209.366 284.283 209.366Z" fill="#268BBF"/>
<path d="M174.682 216.506L181.049 269.963H292.94L286.247 216.506H174.682Z" fill="white"/>
<path d="M205.237 232.602L204.199 235.344H183.994L186.481 256.156H218.135L215.612 235.344H213.443L213.111 232.602H205.237Z" fill="#BBDBF3"/>
<path d="M271.639 232.602L270.611 235.344H250.406L252.969 256.156H284.623L282.024 235.344H279.855L279.513 232.602H271.639Z" fill="#BBDBF3"/>
<path d="M234.235 261.454H187.116L186.846 259.19H233.958L234.235 261.454Z" fill="#E5F0F8"/>
<path d="M258.209 265.375H187.583L187.312 263.11H257.93L258.209 265.375Z" fill="#E5F0F8"/>
<path d="M198.322 233.454C198.322 233.454 198.732 233.051 199.509 232.39" stroke="#BBDBF3" stroke-width="0.797855" stroke-linecap="round" stroke-linejoin="round"/>
<path d="M202.104 230.351C210.495 224.217 231.811 212.677 255.429 231.371" stroke="#BBDBF3" stroke-width="0.797855" stroke-linecap="round" stroke-linejoin="round" stroke-dasharray="3.3 3.3"/>
<path d="M256.713 232.416C257.116 232.753 257.52 233.099 257.925 233.454" stroke="#BBDBF3" stroke-width="0.797855" stroke-linecap="round" stroke-linejoin="round"/>
<path d="M87.4817 135.549L77.5586 164.059C63.5796 159.188 51.4576 148.997 44.502 134.614L71.6744 121.473C74.9992 128.348 80.7948 133.221 87.4817 135.549Z" fill="#E5F0F8"/>
<path d="M44.4986 134.615V134.605C37.5423 120.227 37.0863 104.405 41.9329 90.426L69.026 99.8531L69.4917 103.806C68.3038 109.48 68.8931 115.59 71.5539 121.216L71.592 121.52L44.4986 134.615Z" fill="#F74242"/>
<path d="M71.6763 121.472L71.5908 121.52L71.5527 121.216C71.5908 121.301 71.6289 121.377 71.6669 121.462L71.6763 121.472Z" fill="#F74242"/>
<path d="M148.644 84.2402L148.647 84.2473L121.475 97.3885L121.471 97.3813C118.147 90.5063 112.348 85.6265 105.664 83.306L115.587 54.7957C129.566 59.6667 141.688 69.8578 148.644 84.2402Z" fill="white"/>
<path d="M148.647 84.2471C155.602 98.6295 156.068 114.466 151.2 128.453L122.69 118.529C125.017 111.842 124.803 104.27 121.475 97.3879L148.647 84.2471Z" fill="#F74242"/>
<path d="M108.62 134.326L121.761 161.499C107.378 168.454 91.5416 168.92 77.5586 164.059L87.4817 135.548C94.1692 137.876 101.738 137.654 108.62 134.326Z" fill="#F74242"/>
<path d="M151.201 128.453C146.334 142.421 136.129 154.55 121.76 161.499L108.619 134.326C115.487 131.005 120.36 125.209 122.691 118.529L151.201 128.453Z" fill="white"/>
<path d="M247.808 388.837H304.75L297.581 330.236H240.639L247.808 388.837Z" fill="#BBDBF3"/>
<path d="M254.976 388.837H311.918L304.749 330.236H247.807L254.976 388.837Z" fill="white"/>
<path d="M185.344 404.357H336.68V388.837H190.028C187.441 388.837 185.344 390.934 185.344 393.521V404.357H185.344Z" fill="#BBDBF3"/>
<path d="M225.137 404.357H353.39V392.778C353.39 390.602 351.625 388.837 349.449 388.837H229.078C226.901 388.837 225.137 390.601 225.137 392.778V404.357Z" fill="white"/>
<path d="M237.079 263.155H219.85C219.569 263.155 219.343 263.381 219.343 263.662V266.264C219.343 266.545 219.117 266.771 218.836 266.771H198.326C198.046 266.771 197.82 266.545 197.82 266.264V264.906C197.82 264.626 197.593 264.4 197.313 264.4H124.488C124.207 264.4 123.981 264.173 123.981 263.893V263.662C123.981 263.381 123.755 263.155 123.474 263.155H113.276C111.952 263.155 110.875 264.232 110.875 265.556V401.988C110.875 403.312 111.952 404.389 113.276 404.389H123.403C123.684 404.389 123.91 404.163 123.91 403.882V403.765C123.91 403.484 124.136 403.258 124.417 403.258H232.466C232.747 403.258 232.973 403.484 232.973 403.765V403.882C232.973 404.163 233.199 404.389 233.48 404.389H243.607C244.931 404.389 246.008 403.312 246.008 401.988V272.084L237.079 263.155ZM243.209 392.765C243.209 393.164 242.886 393.486 242.488 393.486H236.811C236.412 393.486 236.094 393.163 236.094 392.765V387.934C236.094 387.536 236.412 387.214 236.811 387.214H242.488C242.886 387.214 243.209 387.536 243.209 387.934V392.765Z" fill="#93ACBF"/>
<path d="M213.678 266.771V309.478H128.247C126.236 309.478 124.605 307.849 124.605 305.837V266.318H127.71V264.399H197.313C197.594 264.399 197.82 264.625 197.82 264.906V266.264C197.82 266.544 198.046 266.771 198.327 266.771L213.678 266.771Z" fill="#586773"/>
<path d="M128.247 308.668C126.686 308.668 125.416 307.398 125.416 305.838V267.128H128.521V264.399L196.148 264.347L197.01 266.264C197.01 266.991 197.601 267.582 198.327 267.582H212.868V308.669L128.247 308.668Z" fill="#93ACBF"/>
<path d="M211.931 309.48H148.454C146.046 309.48 144.094 307.528 144.094 305.12V263.241C144.094 262.82 144.435 262.478 144.856 262.478H215.529C215.95 262.478 216.292 262.82 216.292 263.241V305.12C216.292 307.528 214.34 309.48 211.931 309.48Z" fill="#BBDBF3"/>
<path d="M202.619 307.814H189.061C187.844 307.814 186.857 306.828 186.857 305.611V273.156C186.857 271.939 187.844 270.953 189.061 270.953H202.619C203.836 270.953 204.822 271.939 204.822 273.156V305.611C204.822 306.828 203.836 307.814 202.619 307.814Z" fill="#93ACBF"/>
<path d="M227.966 321.797C230.732 321.797 232.973 324.039 232.973 326.804V403.764C232.973 403.483 232.747 403.257 232.467 403.257H124.417C124.136 403.257 123.91 403.483 123.91 403.764V326.804C123.91 324.039 126.152 321.797 128.917 321.797H227.966Z" fill="#586773"/>
<path d="M230.866 329.142V394.333C230.866 397.018 228.691 399.193 226.01 399.193H130.987C128.305 399.193 126.131 397.018 126.131 394.333V329.142C126.131 326.456 128.306 324.282 130.987 324.282H226.01C228.691 324.282 230.866 326.456 230.866 329.142Z" fill="white"/>
<path d="M230.866 382.132V394.333C230.866 397.018 228.691 399.193 226.01 399.193H130.987C128.305 399.193 126.131 397.018 126.131 394.333V382.132H230.866Z" fill="#F74242"/>
<path d="M227.817 335.693H129.18V336.823H227.817V335.693Z" fill="#F74242"/>
<path d="M227.817 344.619H129.18V345.749H227.817V344.619Z" fill="#F74242"/>
<path d="M227.817 353.545H129.18V354.675H227.817V353.545Z" fill="#F74242"/>
<path d="M227.817 362.471H129.18V363.601H227.817V362.471Z" fill="#F74242"/>
<path d="M227.817 371.397H129.18V372.527H227.817V371.397Z" fill="#F74242"/>
<path d="M121.141 387.933V392.764C121.141 392.86 121.122 392.955 121.084 393.05V393.06C120.97 393.308 120.713 393.489 120.427 393.489H114.748C114.347 393.489 114.023 393.165 114.023 392.764V387.933C114.023 387.676 114.166 387.447 114.366 387.333V387.324C114.481 387.257 114.604 387.219 114.748 387.219H120.427C120.817 387.219 121.141 387.533 121.141 387.933Z" fill="#586773"/>
<path d="M121.141 387.933V392.764C121.141 392.86 121.122 392.955 121.084 393.05V393.06C120.979 393.127 120.855 393.165 120.712 393.165H115.033C114.633 393.165 114.309 392.841 114.309 392.44V387.609C114.309 387.514 114.328 387.419 114.366 387.333V387.324C114.48 387.257 114.604 387.219 114.747 387.219H120.426C120.817 387.219 121.141 387.533 121.141 387.933Z" fill="#93ACBF"/>
<path d="M393.57 393.229V282.256C393.57 280.691 394.839 279.422 396.404 279.422H562.286C563.851 279.422 565.119 280.691 565.119 282.256V393.229C565.119 394.794 563.851 396.063 562.286 396.063H396.404C394.839 396.063 393.57 394.794 393.57 393.229Z" fill="white"/>
<path d="M558.31 286.232H400.381V336.873H558.31V286.232Z" fill="#93ACBF"/>
<path d="M428.619 325.213H407.818C406.02 325.213 404.562 323.755 404.562 321.956V299.784C404.562 297.986 406.02 296.528 407.818 296.528H428.619C430.417 296.528 431.875 297.986 431.875 299.784V321.956C431.874 323.755 430.417 325.213 428.619 325.213Z" fill="#BBDBF3"/>
<path d="M414.476 300.956H408.303V304.51H414.476V300.956Z" fill="#93ACBF"/>
<path d="M414.476 306.381H408.303V309.935H414.476V306.381Z" fill="#93ACBF"/>
<path d="M414.476 311.806H408.303V315.361H414.476V311.806Z" fill="#93ACBF"/>
<path d="M414.476 317.231H408.303V320.785H414.476V317.231Z" fill="#93ACBF"/>
<path d="M428.941 302.733H416.906V308.158H428.941V302.733Z" fill="#2EC6FC"/>
<path d="M428.941 313.583H416.906V319.008H428.941V313.583Z" fill="#2EC6FC"/>
<path d="M406.558 332.051C407.66 332.051 408.553 331.158 408.553 330.056C408.553 328.954 407.66 328.061 406.558 328.061C405.456 328.061 404.562 328.954 404.562 330.056C404.562 331.158 405.456 332.051 406.558 332.051Z" fill="#F74242"/>
<path d="M414.329 332.051C415.431 332.051 416.325 331.158 416.325 330.056C416.325 328.954 415.431 328.061 414.329 328.061C413.227 328.061 412.334 328.954 412.334 330.056C412.334 331.158 413.227 332.051 414.329 332.051Z" fill="#F9E181"/>
<path d="M422.105 332.051C423.207 332.051 424.1 331.158 424.1 330.056C424.1 328.954 423.207 328.061 422.105 328.061C421.003 328.061 420.109 328.954 420.109 330.056C420.109 331.158 421.003 332.051 422.105 332.051Z" fill="#6ADB6A"/>
<path d="M429.878 332.051C430.98 332.051 431.874 331.158 431.874 330.056C431.874 328.954 430.98 328.061 429.878 328.061C428.776 328.061 427.883 328.954 427.883 330.056C427.883 331.158 428.776 332.051 429.878 332.051Z" fill="#BBDBF3"/>
<path d="M406.558 294.825C407.66 294.825 408.553 293.932 408.553 292.83C408.553 291.728 407.66 290.834 406.558 290.834C405.456 290.834 404.562 291.728 404.562 292.83C404.562 293.932 405.456 294.825 406.558 294.825Z" fill="#F74242"/>
<path d="M414.329 294.825C415.431 294.825 416.325 293.932 416.325 292.83C416.325 291.728 415.431 290.834 414.329 290.834C413.227 290.834 412.334 291.728 412.334 292.83C412.334 293.932 413.227 294.825 414.329 294.825Z" fill="#F9E181"/>
<path d="M422.105 294.825C423.207 294.825 424.1 293.932 424.1 292.83C424.1 291.728 423.207 290.834 422.105 290.834C421.003 290.834 420.109 291.728 420.109 292.83C420.109 293.932 421.003 294.825 422.105 294.825Z" fill="#6ADB6A"/>
<path d="M429.878 294.825C430.98 294.825 431.874 293.932 431.874 292.83C431.874 291.728 430.98 290.834 429.878 290.834C428.776 290.834 427.883 291.728 427.883 292.83C427.883 293.932 428.776 294.825 429.878 294.825Z" fill="#BBDBF3"/>
<path d="M469.369 325.213H448.568C446.77 325.213 445.312 323.755 445.312 321.956V299.784C445.312 297.986 446.77 296.528 448.568 296.528H469.369C471.167 296.528 472.624 297.986 472.624 299.784V321.956C472.625 323.755 471.167 325.213 469.369 325.213Z" fill="#BBDBF3"/>
<path d="M455.226 300.956H449.053V304.51H455.226V300.956Z" fill="#93ACBF"/>
<path d="M455.226 306.381H449.053V309.935H455.226V306.381Z" fill="#93ACBF"/>
<path d="M455.226 311.806H449.053V315.361H455.226V311.806Z" fill="#93ACBF"/>
<path d="M455.226 317.231H449.053V320.785H455.226V317.231Z" fill="#93ACBF"/>
<path d="M469.695 302.733H457.66V308.158H469.695V302.733Z" fill="#2EC6FC"/>
<path d="M469.695 313.583H457.66V319.008H469.695V313.583Z" fill="#2EC6FC"/>
<path d="M447.308 332.051C448.41 332.051 449.303 331.158 449.303 330.056C449.303 328.954 448.41 328.061 447.308 328.061C446.206 328.061 445.312 328.954 445.312 330.056C445.312 331.158 446.206 332.051 447.308 332.051Z" fill="#F74242"/>
<path d="M455.083 332.051C456.185 332.051 457.079 331.158 457.079 330.056C457.079 328.954 456.185 328.061 455.083 328.061C453.981 328.061 453.088 328.954 453.088 330.056C453.088 331.158 453.981 332.051 455.083 332.051Z" fill="#F9E181"/>
<path d="M462.855 332.051C463.957 332.051 464.85 331.158 464.85 330.056C464.85 328.954 463.957 328.061 462.855 328.061C461.753 328.061 460.859 328.954 460.859 330.056C460.859 331.158 461.753 332.051 462.855 332.051Z" fill="#6ADB6A"/>
<path d="M470.63 332.051C471.732 332.051 472.626 331.158 472.626 330.056C472.626 328.954 471.732 328.061 470.63 328.061C469.528 328.061 468.635 328.954 468.635 330.056C468.635 331.158 469.528 332.051 470.63 332.051Z" fill="#BBDBF3"/>
<path d="M447.308 294.825C448.41 294.825 449.303 293.932 449.303 292.83C449.303 291.728 448.41 290.834 447.308 290.834C446.206 290.834 445.312 291.728 445.312 292.83C445.312 293.932 446.206 294.825 447.308 294.825Z" fill="#F74242"/>
<path d="M455.083 294.825C456.185 294.825 457.079 293.932 457.079 292.83C457.079 291.728 456.185 290.834 455.083 290.834C453.981 290.834 453.088 291.728 453.088 292.83C453.088 293.932 453.981 294.825 455.083 294.825Z" fill="#F9E181"/>
<path d="M462.855 294.825C463.957 294.825 464.85 293.932 464.85 292.83C464.85 291.728 463.957 290.834 462.855 290.834C461.753 290.834 460.859 291.728 460.859 292.83C460.859 293.932 461.753 294.825 462.855 294.825Z" fill="#6ADB6A"/>
<path d="M470.63 294.825C471.732 294.825 472.626 293.932 472.626 292.83C472.626 291.728 471.732 290.834 470.63 290.834C469.528 290.834 468.635 291.728 468.635 292.83C468.635 293.932 469.528 294.825 470.63 294.825Z" fill="#BBDBF3"/>
<path d="M510.123 325.213H489.322C487.524 325.213 486.066 323.755 486.066 321.956V299.784C486.066 297.986 487.524 296.528 489.322 296.528H510.123C511.921 296.528 513.378 297.986 513.378 299.784V321.956C513.378 323.755 511.921 325.213 510.123 325.213Z" fill="#BBDBF3"/>
<path d="M495.98 300.956H489.807V304.51H495.98V300.956Z" fill="#93ACBF"/>
<path d="M495.98 306.381H489.807V309.935H495.98V306.381Z" fill="#93ACBF"/>
<path d="M495.98 311.806H489.807V315.361H495.98V311.806Z" fill="#93ACBF"/>
<path d="M495.98 317.231H489.807V320.785H495.98V317.231Z" fill="#93ACBF"/>
<path d="M510.445 302.733H498.41V308.158H510.445V302.733Z" fill="#2EC6FC"/>
<path d="M510.445 313.583H498.41V319.008H510.445V313.583Z" fill="#2EC6FC"/>
<path d="M488.062 332.051C489.164 332.051 490.057 331.158 490.057 330.056C490.057 328.954 489.164 328.061 488.062 328.061C486.96 328.061 486.066 328.954 486.066 330.056C486.066 331.158 486.96 332.051 488.062 332.051Z" fill="#F74242"/>
<path d="M495.833 332.051C496.935 332.051 497.829 331.158 497.829 330.056C497.829 328.954 496.935 328.061 495.833 328.061C494.731 328.061 493.838 328.954 493.838 330.056C493.838 331.158 494.731 332.051 495.833 332.051Z" fill="#F9E181"/>
<path d="M503.609 332.051C504.711 332.051 505.604 331.158 505.604 330.056C505.604 328.954 504.711 328.061 503.609 328.061C502.507 328.061 501.613 328.954 501.613 330.056C501.613 331.158 502.507 332.051 503.609 332.051Z" fill="#6ADB6A"/>
<path d="M511.382 332.051C512.484 332.051 513.378 331.158 513.378 330.056C513.378 328.954 512.484 328.061 511.382 328.061C510.28 328.061 509.387 328.954 509.387 330.056C509.387 331.158 510.28 332.051 511.382 332.051Z" fill="#BBDBF3"/>
<path d="M488.062 294.825C489.164 294.825 490.057 293.932 490.057 292.83C490.057 291.728 489.164 290.834 488.062 290.834C486.96 290.834 486.066 291.728 486.066 292.83C486.066 293.932 486.96 294.825 488.062 294.825Z" fill="#F74242"/>
<path d="M495.833 294.825C496.935 294.825 497.829 293.932 497.829 292.83C497.829 291.728 496.935 290.834 495.833 290.834C494.731 290.834 493.838 291.728 493.838 292.83C493.838 293.932 494.731 294.825 495.833 294.825Z" fill="#F9E181"/>
<path d="M503.609 294.825C504.711 294.825 505.604 293.932 505.604 292.83C505.604 291.728 504.711 290.834 503.609 290.834C502.507 290.834 501.613 291.728 501.613 292.83C501.613 293.932 502.507 294.825 503.609 294.825Z" fill="#6ADB6A"/>
<path d="M511.382 294.825C512.484 294.825 513.378 293.932 513.378 292.83C513.378 291.728 512.484 290.834 511.382 290.834C510.28 290.834 509.387 291.728 509.387 292.83C509.387 293.932 510.28 294.825 511.382 294.825Z" fill="#BBDBF3"/>
<path d="M550.873 325.213H530.072C528.274 325.213 526.816 323.755 526.816 321.956V299.784C526.816 297.986 528.274 296.528 530.072 296.528H550.873C552.671 296.528 554.129 297.986 554.129 299.784V321.956C554.129 323.755 552.671 325.213 550.873 325.213Z" fill="#BBDBF3"/>
<path d="M536.732 300.956H530.559V304.51H536.732V300.956Z" fill="#93ACBF"/>
<path d="M536.732 306.381H530.559V309.935H536.732V306.381Z" fill="#93ACBF"/>
<path d="M536.732 311.806H530.559V315.361H536.732V311.806Z" fill="#93ACBF"/>
<path d="M536.732 317.231H530.559V320.785H536.732V317.231Z" fill="#93ACBF"/>
<path d="M551.199 302.733H539.164V308.158H551.199V302.733Z" fill="#2EC6FC"/>
<path d="M551.199 313.583H539.164V319.008H551.199V313.583Z" fill="#2EC6FC"/>
<path d="M528.812 332.051C529.914 332.051 530.807 331.158 530.807 330.056C530.807 328.954 529.914 328.061 528.812 328.061C527.71 328.061 526.816 328.954 526.816 330.056C526.816 331.158 527.71 332.051 528.812 332.051Z" fill="#F74242"/>
<path d="M536.587 332.051C537.689 332.051 538.583 331.158 538.583 330.056C538.583 328.954 537.689 328.061 536.587 328.061C535.485 328.061 534.592 328.954 534.592 330.056C534.592 331.158 535.485 332.051 536.587 332.051Z" fill="#F9E181"/>
<path d="M544.361 332.051C545.463 332.051 546.356 331.158 546.356 330.056C546.356 328.954 545.463 328.061 544.361 328.061C543.259 328.061 542.365 328.954 542.365 330.056C542.365 331.158 543.259 332.051 544.361 332.051Z" fill="#6ADB6A"/>
<path d="M552.134 332.051C553.236 332.051 554.129 331.158 554.129 330.056C554.129 328.954 553.236 328.061 552.134 328.061C551.032 328.061 550.139 328.954 550.139 330.056C550.139 331.158 551.032 332.051 552.134 332.051Z" fill="#BBDBF3"/>
<path d="M528.812 294.825C529.914 294.825 530.807 293.932 530.807 292.83C530.807 291.728 529.914 290.834 528.812 290.834C527.71 290.834 526.816 291.728 526.816 292.83C526.816 293.932 527.71 294.825 528.812 294.825Z" fill="#F74242"/>
<path d="M536.587 294.825C537.689 294.825 538.583 293.932 538.583 292.83C538.583 291.728 537.689 290.834 536.587 290.834C535.485 290.834 534.592 291.728 534.592 292.83C534.592 293.932 535.485 294.825 536.587 294.825Z" fill="#F9E181"/>
<path d="M544.361 294.825C545.463 294.825 546.356 293.932 546.356 292.83C546.356 291.728 545.463 290.834 544.361 290.834C543.259 290.834 542.365 291.728 542.365 292.83C542.365 293.932 543.259 294.825 544.361 294.825Z" fill="#6ADB6A"/>
<path d="M552.134 294.825C553.236 294.825 554.129 293.932 554.129 292.83C554.129 291.728 553.236 290.834 552.134 290.834C551.032 290.834 550.139 291.728 550.139 292.83C550.139 293.932 551.032 294.825 552.134 294.825Z" fill="#BBDBF3"/>
<path d="M558.31 336.654H400.381V389.253H558.31V336.654Z" fill="#586773"/>
<path d="M449.304 342.313H404.561V346.803H449.304V342.313Z" fill="#F74242"/>
<path d="M449.304 349.672H404.561V354.162H449.304V349.672Z" fill="#F9E181"/>
<path d="M449.304 357.03H404.561V361.52H449.304V357.03Z" fill="#F9ECB8"/>
<path d="M449.304 364.388H404.561V368.878H449.304V364.388Z" fill="#6ADB6A"/>
<path d="M449.304 371.746H404.561V376.236H449.304V371.746Z" fill="#40A87B"/>
<path d="M449.304 379.104H404.561V383.594H449.304V379.104Z" fill="#2EC6FC"/>
<path d="M459.521 346.304C460.623 346.304 461.516 345.411 461.516 344.309C461.516 343.207 460.623 342.313 459.521 342.313C458.419 342.313 457.525 343.207 457.525 344.309C457.525 345.411 458.419 346.304 459.521 346.304Z" fill="#F74242"/>
<path d="M467.294 346.304C468.396 346.304 469.29 345.411 469.29 344.309C469.29 343.207 468.396 342.313 467.294 342.313C466.192 342.313 465.299 343.207 465.299 344.309C465.299 345.411 466.192 346.304 467.294 346.304Z" fill="#F74242"/>
<path d="M475.068 346.304C476.17 346.304 477.063 345.411 477.063 344.309C477.063 343.207 476.17 342.313 475.068 342.313C473.966 342.313 473.072 343.207 473.072 344.309C473.072 345.411 473.966 346.304 475.068 346.304Z" fill="#F74242"/>
<path d="M482.841 346.304C483.943 346.304 484.837 345.411 484.837 344.309C484.837 343.207 483.943 342.313 482.841 342.313C481.739 342.313 480.846 343.207 480.846 344.309C480.846 345.411 481.739 346.304 482.841 346.304Z" fill="#F9E181"/>
<path d="M490.503 346.304C491.605 346.304 492.499 345.411 492.499 344.309C492.499 343.207 491.605 342.313 490.503 342.313C489.401 342.313 488.508 343.207 488.508 344.309C488.508 345.411 489.401 346.304 490.503 346.304Z" fill="#F9E181"/>
<path d="M498.275 346.304C499.377 346.304 500.27 345.411 500.27 344.309C500.27 343.207 499.377 342.313 498.275 342.313C497.173 342.313 496.279 343.207 496.279 344.309C496.279 345.411 497.173 346.304 498.275 346.304Z" fill="#F9E181"/>
<path d="M506.05 346.304C507.152 346.304 508.046 345.411 508.046 344.309C508.046 343.207 507.152 342.313 506.05 342.313C504.948 342.313 504.055 343.207 504.055 344.309C504.055 345.411 504.948 346.304 506.05 346.304Z" fill="#6ADB6A"/>
<path d="M513.824 346.304C514.926 346.304 515.819 345.411 515.819 344.309C515.819 343.207 514.926 342.313 513.824 342.313C512.722 342.313 511.828 343.207 511.828 344.309C511.828 345.411 512.722 346.304 513.824 346.304Z" fill="#6ADB6A"/>
<path d="M459.521 352.712C460.623 352.712 461.516 351.819 461.516 350.717C461.516 349.615 460.623 348.721 459.521 348.721C458.419 348.721 457.525 349.615 457.525 350.717C457.525 351.819 458.419 352.712 459.521 352.712Z" fill="#F74242"/>
<path d="M467.294 352.712C468.396 352.712 469.29 351.819 469.29 350.717C469.29 349.615 468.396 348.721 467.294 348.721C466.192 348.721 465.299 349.615 465.299 350.717C465.299 351.819 466.192 352.712 467.294 352.712Z" fill="#F74242"/>
<path d="M475.068 352.712C476.17 352.712 477.063 351.819 477.063 350.717C477.063 349.615 476.17 348.721 475.068 348.721C473.966 348.721 473.072 349.615 473.072 350.717C473.072 351.819 473.966 352.712 475.068 352.712Z" fill="#F74242"/>
<path d="M482.841 352.712C483.943 352.712 484.837 351.819 484.837 350.717C484.837 349.615 483.943 348.721 482.841 348.721C481.739 348.721 480.846 349.615 480.846 350.717C480.846 351.819 481.739 352.712 482.841 352.712Z" fill="#F9E181"/>
<path d="M490.503 352.712C491.605 352.712 492.499 351.819 492.499 350.717C492.499 349.615 491.605 348.721 490.503 348.721C489.401 348.721 488.508 349.615 488.508 350.717C488.508 351.819 489.401 352.712 490.503 352.712Z" fill="#F9E181"/>
<path d="M498.275 352.712C499.377 352.712 500.27 351.819 500.27 350.717C500.27 349.615 499.377 348.721 498.275 348.721C497.173 348.721 496.279 349.615 496.279 350.717C496.279 351.819 497.173 352.712 498.275 352.712Z" fill="#F9E181"/>
<path d="M506.05 352.712C507.152 352.712 508.046 351.819 508.046 350.717C508.046 349.615 507.152 348.721 506.05 348.721C504.948 348.721 504.055 349.615 504.055 350.717C504.055 351.819 504.948 352.712 506.05 352.712Z" fill="#6ADB6A"/>
<path d="M513.824 352.712C514.926 352.712 515.819 351.819 515.819 350.717C515.819 349.615 514.926 348.721 513.824 348.721C512.722 348.721 511.828 349.615 511.828 350.717C511.828 351.819 512.722 352.712 513.824 352.712Z" fill="#6ADB6A"/>
<path d="M459.521 361.745C460.623 361.745 461.516 360.852 461.516 359.75C461.516 358.648 460.623 357.755 459.521 357.755C458.419 357.755 457.525 358.648 457.525 359.75C457.525 360.852 458.419 361.745 459.521 361.745Z" fill="#F74242"/>
<path d="M467.294 361.745C468.396 361.745 469.29 360.852 469.29 359.75C469.29 358.648 468.396 357.755 467.294 357.755C466.192 357.755 465.299 358.648 465.299 359.75C465.299 360.852 466.192 361.745 467.294 361.745Z" fill="#F74242"/>
<path d="M475.068 361.745C476.17 361.745 477.063 360.852 477.063 359.75C477.063 358.648 476.17 357.755 475.068 357.755C473.966 357.755 473.072 358.648 473.072 359.75C473.072 360.852 473.966 361.745 475.068 361.745Z" fill="#F9E181"/>
<path d="M482.841 361.745C483.943 361.745 484.837 360.852 484.837 359.75C484.837 358.648 483.943 357.755 482.841 357.755C481.739 357.755 480.846 358.648 480.846 359.75C480.846 360.852 481.739 361.745 482.841 361.745Z" fill="#F9E181"/>
<path d="M490.503 361.745C491.605 361.745 492.499 360.852 492.499 359.75C492.499 358.648 491.605 357.755 490.503 357.755C489.401 357.755 488.508 358.648 488.508 359.75C488.508 360.852 489.401 361.745 490.503 361.745Z" fill="#6ADB6A"/>
<path d="M498.275 361.745C499.377 361.745 500.27 360.852 500.27 359.75C500.27 358.648 499.377 357.755 498.275 357.755C497.173 357.755 496.279 358.648 496.279 359.75C496.279 360.852 497.173 361.745 498.275 361.745Z" fill="#6ADB6A"/>
<path d="M506.05 361.745C507.152 361.745 508.046 360.852 508.046 359.75C508.046 358.648 507.152 357.755 506.05 357.755C504.948 357.755 504.055 358.648 504.055 359.75C504.055 360.852 504.948 361.745 506.05 361.745Z" fill="#6ADB6A"/>
<path d="M513.824 361.745C514.926 361.745 515.819 360.852 515.819 359.75C515.819 358.648 514.926 357.755 513.824 357.755C512.722 357.755 511.828 358.648 511.828 359.75C511.828 360.852 512.722 361.745 513.824 361.745Z" fill="#6ADB6A"/>
<path d="M459.521 368.153C460.623 368.153 461.516 367.26 461.516 366.158C461.516 365.056 460.623 364.162 459.521 364.162C458.419 364.162 457.525 365.056 457.525 366.158C457.525 367.26 458.419 368.153 459.521 368.153Z" fill="#F74242"/>
<path d="M467.294 368.153C468.396 368.153 469.29 367.26 469.29 366.158C469.29 365.056 468.396 364.162 467.294 364.162C466.192 364.162 465.299 365.056 465.299 366.158C465.299 367.26 466.192 368.153 467.294 368.153Z" fill="#F9E181"/>
<path d="M475.068 368.153C476.17 368.153 477.063 367.26 477.063 366.158C477.063 365.056 476.17 364.162 475.068 364.162C473.966 364.162 473.072 365.056 473.072 366.158C473.072 367.26 473.966 368.153 475.068 368.153Z" fill="#F9E181"/>
<path d="M482.841 368.153C483.943 368.153 484.837 367.26 484.837 366.158C484.837 365.056 483.943 364.162 482.841 364.162C481.739 364.162 480.846 365.056 480.846 366.158C480.846 367.26 481.739 368.153 482.841 368.153Z" fill="#F9E181"/>
<path d="M490.503 368.153C491.605 368.153 492.499 367.26 492.499 366.158C492.499 365.056 491.605 364.162 490.503 364.162C489.401 364.162 488.508 365.056 488.508 366.158C488.508 367.26 489.401 368.153 490.503 368.153Z" fill="#F9E181"/>
<path d="M498.275 368.153C499.377 368.153 500.27 367.26 500.27 366.158C500.27 365.056 499.377 364.162 498.275 364.162C497.173 364.162 496.279 365.056 496.279 366.158C496.279 367.26 497.173 368.153 498.275 368.153Z" fill="#F9E181"/>
<path d="M506.05 368.153C507.152 368.153 508.046 367.26 508.046 366.158C508.046 365.056 507.152 364.162 506.05 364.162C504.948 364.162 504.055 365.056 504.055 366.158C504.055 367.26 504.948 368.153 506.05 368.153Z" fill="#6ADB6A"/>
<path d="M513.824 368.153C514.926 368.153 515.819 367.26 515.819 366.158C515.819 365.056 514.926 364.162 513.824 364.162C512.722 364.162 511.828 365.056 511.828 366.158C511.828 367.26 512.722 368.153 513.824 368.153Z" fill="#6ADB6A"/>
<path d="M459.521 377.186C460.623 377.186 461.516 376.293 461.516 375.191C461.516 374.089 460.623 373.195 459.521 373.195C458.419 373.195 457.525 374.089 457.525 375.191C457.525 376.293 458.419 377.186 459.521 377.186Z" fill="#6ADB6A"/>
<path d="M467.294 377.186C468.396 377.186 469.29 376.293 469.29 375.191C469.29 374.089 468.396 373.195 467.294 373.195C466.192 373.195 465.299 374.089 465.299 375.191C465.299 376.293 466.192 377.186 467.294 377.186Z" fill="#6ADB6A"/>
<path d="M475.068 377.186C476.17 377.186 477.063 376.293 477.063 375.191C477.063 374.089 476.17 373.195 475.068 373.195C473.966 373.195 473.072 374.089 473.072 375.191C473.072 376.293 473.966 377.186 475.068 377.186Z" fill="#F9E181"/>
<path d="M482.841 377.186C483.943 377.186 484.837 376.293 484.837 375.191C484.837 374.089 483.943 373.196 482.841 373.196C481.739 373.196 480.846 374.089 480.846 375.191C480.846 376.293 481.739 377.186 482.841 377.186Z" fill="#F9E181"/>
<path d="M490.503 377.186C491.605 377.186 492.499 376.293 492.499 375.191C492.499 374.089 491.605 373.196 490.503 373.196C489.401 373.196 488.508 374.089 488.508 375.191C488.508 376.293 489.401 377.186 490.503 377.186Z" fill="#F9E181"/>
<path d="M498.275 377.186C499.377 377.186 500.27 376.293 500.27 375.191C500.27 374.089 499.377 373.195 498.275 373.195C497.173 373.195 496.279 374.089 496.279 375.191C496.279 376.293 497.173 377.186 498.275 377.186Z" fill="#BBDBF3"/>
<path d="M506.05 377.186C507.152 377.186 508.046 376.293 508.046 375.191C508.046 374.089 507.152 373.195 506.05 373.195C504.948 373.195 504.055 374.089 504.055 375.191C504.055 376.293 504.948 377.186 506.05 377.186Z" fill="#BBDBF3"/>
<path d="M513.824 377.186C514.926 377.186 515.819 376.293 515.819 375.191C515.819 374.089 514.926 373.195 513.824 373.195C512.722 373.195 511.828 374.089 511.828 375.191C511.828 376.293 512.722 377.186 513.824 377.186Z" fill="#BBDBF3"/>
<path d="M459.521 383.594C460.623 383.594 461.516 382.701 461.516 381.599C461.516 380.497 460.623 379.603 459.521 379.603C458.419 379.603 457.525 380.497 457.525 381.599C457.525 382.701 458.419 383.594 459.521 383.594Z" fill="#6ADB6A"/>
<path d="M467.294 383.594C468.396 383.594 469.29 382.701 469.29 381.599C469.29 380.497 468.396 379.603 467.294 379.603C466.192 379.603 465.299 380.497 465.299 381.599C465.299 382.701 466.192 383.594 467.294 383.594Z" fill="#6ADB6A"/>
<path d="M475.068 383.594C476.17 383.594 477.063 382.701 477.063 381.599C477.063 380.497 476.17 379.603 475.068 379.603C473.966 379.603 473.072 380.497 473.072 381.599C473.072 382.701 473.966 383.594 475.068 383.594Z" fill="#F9E181"/>
<path d="M482.841 383.594C483.943 383.594 484.837 382.701 484.837 381.599C484.837 380.497 483.943 379.603 482.841 379.603C481.739 379.603 480.846 380.497 480.846 381.599C480.846 382.701 481.739 383.594 482.841 383.594Z" fill="#F9E181"/>
<path d="M490.503 383.594C491.605 383.594 492.499 382.701 492.499 381.599C492.499 380.497 491.605 379.603 490.503 379.603C489.401 379.603 488.508 380.497 488.508 381.599C488.508 382.701 489.401 383.594 490.503 383.594Z" fill="#BBDBF3"/>
<path d="M498.275 383.594C499.377 383.594 500.27 382.701 500.27 381.599C500.27 380.497 499.377 379.603 498.275 379.603C497.173 379.603 496.279 380.497 496.279 381.599C496.279 382.701 497.173 383.594 498.275 383.594Z" fill="#BBDBF3"/>
<path d="M506.05 383.594C507.152 383.594 508.046 382.701 508.046 381.599C508.046 380.497 507.152 379.603 506.05 379.603C504.948 379.603 504.055 380.497 504.055 381.599C504.055 382.701 504.948 383.594 506.05 383.594Z" fill="#BBDBF3"/>
<path d="M513.824 383.594C514.926 383.594 515.819 382.701 515.819 381.599C515.819 380.497 514.926 379.603 513.824 379.603C512.722 379.603 511.828 380.497 511.828 381.599C511.828 382.701 512.722 383.594 513.824 383.594Z" fill="#BBDBF3"/>
<path d="M550.873 376.628H530.072C528.274 376.628 526.816 375.17 526.816 373.372V351.199C526.816 349.401 528.274 347.944 530.072 347.944H550.873C552.671 347.944 554.129 349.401 554.129 351.199V373.372C554.129 375.17 552.671 376.628 550.873 376.628Z" fill="#BBDBF3"/>
<path d="M536.732 352.371H530.559V355.925H536.732V352.371Z" fill="#89A5C7"/>
<path d="M536.732 357.796H530.559V361.35H536.732V357.796Z" fill="#89A5C7"/>
<path d="M536.732 363.221H530.559V366.775H536.732V363.221Z" fill="#89A5C7"/>
<path d="M536.732 368.646H530.559V372.2H536.732V368.646Z" fill="#89A5C7"/>
<path d="M551.199 354.147H539.164V359.573H551.199V354.147Z" fill="#2EC6FC"/>
<path d="M551.199 364.998H539.164V370.423H551.199V364.998Z" fill="#2EC6FC"/>
<path d="M528.812 383.466C529.914 383.466 530.807 382.572 530.807 381.47C530.807 380.368 529.914 379.475 528.812 379.475C527.71 379.475 526.816 380.368 526.816 381.47C526.816 382.572 527.71 383.466 528.812 383.466Z" fill="#F74242"/>
<path d="M536.587 383.466C537.689 383.466 538.583 382.572 538.583 381.47C538.583 380.368 537.689 379.475 536.587 379.475C535.485 379.475 534.592 380.368 534.592 381.47C534.592 382.572 535.485 383.466 536.587 383.466Z" fill="#F9E181"/>
<path d="M544.361 383.466C545.463 383.466 546.356 382.572 546.356 381.47C546.356 380.368 545.463 379.475 544.361 379.475C543.259 379.475 542.365 380.368 542.365 381.47C542.365 382.572 543.259 383.466 544.361 383.466Z" fill="#6ADB6A"/>
<path d="M552.134 383.466C553.236 383.466 554.129 382.572 554.129 381.47C554.129 380.368 553.236 379.475 552.134 379.475C551.032 379.475 550.139 380.368 550.139 381.47C550.139 382.572 551.032 383.466 552.134 383.466Z" fill="#BBDBF3"/>
<path d="M528.812 346.24C529.914 346.24 530.807 345.347 530.807 344.245C530.807 343.143 529.914 342.249 528.812 342.249C527.71 342.249 526.816 343.143 526.816 344.245C526.816 345.347 527.71 346.24 528.812 346.24Z" fill="#F74242"/>
<path d="M536.587 346.24C537.689 346.24 538.583 345.347 538.583 344.245C538.583 343.143 537.689 342.249 536.587 342.249C535.485 342.249 534.592 343.143 534.592 344.245C534.592 345.347 535.485 346.24 536.587 346.24Z" fill="#F9E181"/>
<path d="M544.361 346.24C545.463 346.24 546.356 345.347 546.356 344.245C546.356 343.143 545.463 342.249 544.361 342.249C543.259 342.249 542.365 343.143 542.365 344.245C542.365 345.347 543.259 346.24 544.361 346.24Z" fill="#6ADB6A"/>
<path d="M552.134 346.24C553.236 346.24 554.129 345.347 554.129 344.245C554.129 343.143 553.236 342.249 552.134 342.249C551.032 342.249 550.139 343.143 550.139 344.245C550.139 345.347 551.032 346.24 552.134 346.24Z" fill="#BBDBF3"/>
<path d="M418.216 396.063H402.252V404.356H418.216V396.063Z" fill="white"/>
<path d="M540.473 404.356H556.438V396.063H540.473V404.356Z" fill="white"/>
<path opacity="0.4" d="M458.677 289.641L425.476 385.846H404.695L437.896 289.641H458.677Z" fill="white"/>
<path opacity="0.4" d="M475.531 289.641L442.342 385.846H431.951L465.152 289.641H475.531Z" fill="white"/>
<path opacity="0.4" d="M554.906 289.641V307.467L527.854 385.846H499.338L532.539 289.641H554.906Z" fill="white"/>
<path opacity="0.4" d="M524.672 289.641L491.471 385.846H477.213L510.414 289.641H524.672Z" fill="white"/>
<path d="M520.894 76.4784L520.792 80.5463L496.482 91.9525L508.201 116.929L546.244 99.0795L534.524 74.1028L531.915 75.3274L530.369 72.0327L520.894 76.4784Z" fill="#BBDBF3"/>
<path d="M415.588 23.4325L412.321 25.8575L388.362 13.7305L375.902 38.346L413.395 57.3237L425.855 32.7084L423.282 31.4065L424.926 28.1592L415.588 23.4325Z" fill="#BBDBF3"/>
<path d="M574.113 207.038L571.089 209.762L546.09 199.958L536.018 225.643L575.138 240.985L585.211 215.3L582.527 214.247L583.856 210.859L574.113 207.038Z" fill="#BBDBF3"/>
<path d="M544.259 126.739L545.235 128.835L570.007 140.454L562.171 168.74L524.5 153.542L532.947 123.072L538.132 125.504L538.762 124.161L544.259 126.739Z" fill="#93ACBF"/>
<path d="M561.151 137.131L558.916 137.721L540.833 129.24L524.5 153.542L561.561 170.923L577.894 146.622L566.018 141.052L566.648 139.709L561.151 137.131Z" fill="#BBDBF3"/>
<path d="M454.363 36.6478L456.524 37.4709L482.385 28.5337L496.483 54.2784L458.878 69.6388L443.695 41.9038L449.109 40.0331L448.625 38.631L454.363 36.6478Z" fill="#93ACBF"/>
<path d="M473.719 32.3244L472.527 34.3056L453.65 40.8291L458.878 69.6389L497.567 56.2688L492.34 27.459L479.942 31.7433L479.457 30.3414L473.719 32.3244Z" fill="#BBDBF3"/>
<path d="M310.519 20.4703L311.718 22.4472L337.611 31.2909L332.91 60.2638L293.805 49.2699L298.873 18.0603L304.294 19.9117L304.773 18.5078L310.519 20.4703Z" fill="#93ACBF"/>
<path d="M328.444 28.9549L326.287 29.7854L307.387 23.3303L293.805 49.2699L332.542 62.5005L346.124 36.5607L333.711 32.3209L334.19 30.9173L328.444 28.9549Z" fill="#BBDBF3"/>
<path d="M465.143 125.428L478.8 125.196L478.084 110.855L477.742 103.998L477.723 103.656L467.037 99.1641L466.689 104.011L466.431 107.543L465.143 125.428Z" fill="#FDAE97"/>
<path d="M491.849 169.817L497.592 217.358C497.772 218.56 497.766 219.809 497.521 221.07C496.367 227.006 490.62 230.883 484.684 229.729C478.748 228.575 476.476 223.992 475.41 217.176C473.363 204.091 466.215 164.834 466.215 164.834L491.849 169.817Z" fill="#268BBF"/>
<path d="M454.61 167.424L475.707 168.839L475.602 192.212L473.098 195.915L470.777 218.447L449.422 216.74L454.61 167.424Z" fill="#268BBF"/>
<path d="M509.203 156.81L509.131 156.857C505.984 158.951 501.696 158.09 499.602 154.943L482.539 129.3C480.445 126.153 481.306 121.864 484.454 119.77L484.525 119.723C487.673 117.629 491.961 118.49 494.055 121.637L511.118 147.28C513.212 150.427 512.35 154.715 509.203 156.81Z" fill="#F9E181"/>
<path d="M416.664 124.608L423.91 131.698L431.229 127.242L426.52 119.909L416.977 120.218L416.664 124.608Z" fill="#E89780"/>
<path d="M444.798 158.211C441.387 160.194 437.144 159.35 435.403 156.336L426.785 140.587L423.746 135.004L420.564 129.193L425.855 125.537L429.611 122.943L429.973 122.687L433.834 128.416L437.379 133.663L447.812 149.114C449.554 152.128 448.208 156.228 444.798 158.211Z" fill="#F9E181"/>
<path d="M471.793 119.431C466.782 119.541 464.648 117.05 464.004 116.072L465.878 115.225L478.27 114.602L479.758 115.078C479.13 116.248 476.913 119.318 471.793 119.431Z" fill="#FDAE97"/>
<path d="M454.01 150.607L453.713 171.1H492.289L491.831 119.436L478.594 114.652C478.446 114.924 478.285 115.209 478.087 115.505L478.038 115.567C477.321 116.482 475.949 117.347 472.105 117.434C468.904 117.508 467.334 117.063 466.444 116.482L466.432 116.469C465.95 116.148 465.666 115.765 465.443 115.419L452.947 118.175L453.788 144.254L454.01 150.607Z" fill="#F9E181"/>
<path d="M501.592 265.612L481.748 265.598L475.767 219.42C475.142 213.403 479.505 208.014 485.515 207.38C491.532 206.756 496.913 211.118 497.546 217.128C497.603 217.65 497.61 218.16 497.591 218.677L501.045 259.209L501.592 265.612Z" fill="#268BBF"/>
<path d="M437.886 158.513C441.306 160.256 445.531 158.884 447.274 155.464L461.285 127.977C463.028 124.557 461.656 120.332 458.236 118.589C454.815 116.846 450.591 118.218 448.847 121.638L434.837 149.124C433.094 152.545 434.466 156.769 437.886 158.513Z" fill="#F9E181"/>
<path d="M454.498 177.728L460.591 175.374L458.593 172.897L452.664 175.445L454.498 177.728Z" fill="#268BBF"/>
<path d="M410.271 108.606L415.025 107.836L428.12 127.039L424.516 129.496L410.271 108.606Z" fill="#93ACBF"/>
<path d="M428.114 127.043L449.004 112.797L435.909 93.594L415.019 107.839L428.114 127.043Z" fill="#BBDBF3"/>
<path d="M434.41 105.743L438.543 102.925L435.248 98.0928L431.115 100.911L434.41 105.743Z" fill="#93ACBF"/>
<path d="M423.592 106.043L419.459 108.862L422.754 113.694L426.887 110.875L423.592 106.043Z" fill="#93ACBF"/>
<path d="M420.135 126.45L442.485 111.21C443.422 110.571 444.699 110.812 445.338 111.749L477.835 159.405C478.474 160.342 478.232 161.619 477.295 162.258L454.946 177.499C454.009 178.138 452.731 177.896 452.092 176.959L419.596 129.304C418.956 128.367 419.198 127.089 420.135 126.45Z" fill="#B83232"/>
<path d="M425.124 123.048L447.435 107.834C448.382 107.188 449.675 107.432 450.321 108.38L483.598 157.18C484.245 158.128 484 159.42 483.052 160.066L460.742 175.28C459.794 175.926 458.502 175.682 457.855 174.734L424.578 125.934C423.932 124.986 424.176 123.694 425.124 123.048Z" fill="#F74242"/>
<path d="M435.915 93.5908L431.161 94.3614L410.271 108.606L415.025 107.836L435.915 93.5908Z" fill="#586773"/>
<path d="M470.221 176.704C471.432 176.937 472.726 176.708 473.821 175.961C476.007 174.47 476.58 171.461 475.09 169.276L472.271 165.142C470.781 162.956 467.77 162.392 465.585 163.882C463.4 165.372 462.831 168.377 464.321 170.562L467.141 174.697C467.884 175.787 469.008 176.479 470.221 176.704ZM465.804 169.551C464.868 168.178 465.223 166.301 466.596 165.365C467.969 164.428 469.847 164.784 470.783 166.157L473.602 170.291C474.538 171.664 474.183 173.541 472.81 174.478C471.437 175.414 469.56 175.059 468.624 173.686L465.804 169.551Z" fill="#F74242"/>
<path d="M466.443 116.482L472.104 125.431L478.037 115.567C477.32 116.482 475.948 117.347 472.104 117.434C468.903 117.508 467.333 117.063 466.443 116.482Z" fill="#D6EAFF"/>
<path d="M461.17 160.137C461.251 160.738 464.848 161.511 467.517 161.227C469.78 160.988 474.937 159.877 476.455 159.539L475.886 152.324C474.974 152.279 473.97 152.197 473.117 152.019C471.016 151.598 465.174 151.104 465.109 151.952C465.039 152.792 468.98 153.938 468.662 154.27C468.344 154.602 465.259 154.434 463.954 154.257C462.64 154.086 459.898 153.258 459.362 153.81C458.818 154.369 459.412 155.341 459.412 155.341C459.412 155.341 458.399 154.903 458.241 155.586C458.083 156.268 459.489 157.344 459.489 157.344C459.489 157.344 458.959 157.038 458.972 157.831C458.99 158.633 461.627 159.511 461.627 159.511C461.627 159.511 461.073 159.533 461.17 160.137Z" fill="#FDAE97"/>
<path d="M470.854 217.616L465.758 265.612H446.264L449.389 217.353C449.364 216.845 449.508 216.277 449.55 215.751C450.085 209.724 454.874 205.222 460.902 205.748C466.921 206.282 471.38 211.589 470.854 217.616Z" fill="#268BBF"/>
<path d="M474.693 150.002L481.594 148.613L487.842 147.363L504.512 144.01C507.962 143.551 511.217 146.367 511.748 150.279C512.27 154.19 509.873 157.771 506.42 158.239L489.02 159.523L482.697 159.997L476.163 160.48L474.693 150.002Z" fill="#F9E181"/>
<path d="M466.055 112.769L473.732 107.171L466.431 107.543L466.055 112.769Z" fill="#EA9D85"/>
<path d="M467.194 91.2119C467.194 91.2119 465.978 95.6375 465.115 98.7768L464.402 101.371C463.839 103.421 463.578 106.621 465.692 107.958C467.798 109.294 471.232 109.204 474.1 107.413C476.97 105.615 484.849 96.1293 479.133 90.2541C473.41 84.377 467.644 90.1965 467.194 91.2119Z" fill="#FDAE97"/>
<path d="M477.884 106.826C477.884 106.826 474.175 101.124 476.196 97.8779C478.217 94.6318 476.196 93.8163 474.778 94.0644C473.36 94.3124 470.894 94.2416 469.893 93.8515C469.893 93.8515 472.899 93.9226 474.175 93.1779C474.175 93.1779 468.251 93.6634 466.959 92.0735L466.641 93.2293C466.641 93.2293 464.506 88.2011 467.716 87.0314C470.927 85.8616 472.261 87.1868 472.261 87.1868C472.261 87.1868 471.239 85.1306 472.707 84.7408C474.175 84.3509 475.522 87.3289 475.522 87.3289C475.522 87.3289 477.578 84.7763 479.705 87.2933C481.832 89.8104 480.946 92.1147 480.946 92.1147C480.946 92.1147 483.428 94.1709 482.222 97.3969C481.017 100.623 478.153 103.67 477.884 106.826Z" fill="#322A28"/>
<path d="M476.14 102.69C474.995 103.724 474.539 104.547 475.35 105.446C476.162 106.345 477.853 106.596 478.997 105.563C480.142 104.53 480.413 102.963 479.601 102.064C478.789 101.165 477.285 101.657 476.14 102.69Z" fill="#FDAE97"/>
<path d="M471.741 98.6534C471.61 99.129 471.254 99.4458 470.947 99.3614C470.639 99.2768 470.496 98.8227 470.626 98.3474C470.757 97.8718 471.113 97.555 471.42 97.6393C471.728 97.7237 471.871 98.1778 471.741 98.6534Z" fill="#332B27"/>
<path d="M465.988 97.0725C465.857 97.5481 466.001 98.0022 466.308 98.0865C466.616 98.1712 466.971 97.8541 467.102 97.3785C467.232 96.9029 467.089 96.4488 466.781 96.3644C466.474 96.2801 466.118 96.5969 465.988 97.0725Z" fill="#332B27"/>
<path d="M469.993 101.55C470.019 102.027 470.809 102.371 471.758 102.319C472.707 102.267 473.454 101.838 473.428 101.361C473.402 100.884 472.612 100.539 471.663 100.591C470.714 100.644 469.967 101.073 469.993 101.55Z" fill="#E89780"/>
<path d="M465.116 98.7769L464.652 100.464C465.34 100.742 465.977 100.706 466.178 100.362C466.404 99.9526 465.931 99.2448 465.116 98.7769Z" fill="#E89780"/>
<path d="M478.132 104.366C477.396 104.006 476.717 103.977 476.717 103.977C477.765 102.872 478.734 103.3 478.734 103.3" stroke="#EA9D85" stroke-width="0.356266" stroke-miterlimit="10" stroke-linecap="round" stroke-linejoin="round"/>
<path d="M469.9 103.956C469.9 103.956 468.63 105.339 466.641 104.386" stroke="#332B27" stroke-width="0.227898" stroke-miterlimit="10"/>
<path d="M469.286 98.3323L467.402 101.08C467.211 101.359 467.235 101.732 467.459 101.984L467.806 102.375L468.161 102.775" stroke="#332B27" stroke-width="0.227898" stroke-miterlimit="10"/>
<path d="M472.706 97.8779C472.706 97.8779 471.964 96.5917 470.686 96.5891" stroke="#332B27" stroke-width="0.227898" stroke-miterlimit="10"/>
<path d="M465.877 95.454C465.877 95.454 466.902 94.904 467.877 95.7316" stroke="#332B27" stroke-width="0.227898" stroke-miterlimit="10"/>
<path d="M465.909 114.787L472.104 117.438L468.849 121.392L465.143 115.549L465.909 114.787Z" fill="white"/>
<path d="M478.249 114.201L472.102 117.438L475.033 121.226L478.797 114.733L478.249 114.201Z" fill="white"/>
<path d="M462.945 273.113L463.468 265.612H448.862L448.291 273.113H462.945Z" fill="#FDAE97"/>
<path d="M448.602 269.01L463.466 265.612H448.86L448.602 269.01Z" fill="#EA9D85"/>
<path d="M484.625 273.113L484.064 265.6L499.025 265.612L499.279 273.113H484.625Z" fill="#FDAE97"/>
<path d="M417.079 118.921L419.202 118.973C419.771 118.986 420.266 119.383 420.441 119.967L421.775 124.43C422.054 125.365 421.412 126.343 420.498 126.374L418.193 126.454C417.571 126.475 417.022 126.039 416.861 125.393L415.71 120.798C415.471 119.845 416.162 118.898 417.079 118.921Z" fill="#FDAE97"/>
<path d="M484.377 269.79L499.025 265.612L484.064 265.6L484.377 269.79Z" fill="#EA9D85"/>
<path d="M480.484 91.9019C480.484 91.9019 482.221 90.9802 483.959 92.4338C483.959 92.4338 480.981 91.5828 480.484 92.7173C479.988 93.8516 480.484 91.9019 480.484 91.9019Z" fill="#322A28"/>
<path d="M479.522 116.247L472.101 128.184L464.779 117.018" stroke="white" stroke-width="0.185392" stroke-miterlimit="10" stroke-linecap="round" stroke-linejoin="round"/>
<path d="M493.736 146.124L496.565 145.608" stroke="#322A28" stroke-width="0.185392" stroke-miterlimit="10" stroke-linecap="round" stroke-linejoin="round"/>
<path d="M492.044 143.583L490.316 140.986" stroke="#322A28" stroke-width="0.185392" stroke-miterlimit="10" stroke-linecap="round" stroke-linejoin="round"/>
<path d="M441.094 279.422H462.662L462.699 278.545L462.964 272.732H448.287C446.47 272.732 444.789 273.799 443.504 274.911C442.441 275.863 441.65 277.111 441.279 278.545C441.193 278.829 441.131 279.126 441.094 279.422Z" fill="#322A28"/>
<path d="M441.094 279.422H462.662L462.699 278.545H441.279C441.193 278.829 441.131 279.126 441.094 279.422Z" fill="#FFF1F0"/>
<path d="M447.848 273.928C447.848 273.928 449.712 270.656 450.967 271.949C452.223 273.243 447.848 273.928 447.848 273.928Z" stroke="#FFF1F0" stroke-width="0.282166" stroke-miterlimit="10" stroke-linecap="round" stroke-linejoin="round"/>
<path d="M448.502 274.579L447.846 273.928M447.846 273.928C447.846 273.928 445.982 270.656 444.726 271.949C443.471 273.243 447.846 273.928 447.846 273.928Z" stroke="#FFF1F0" stroke-width="0.282166" stroke-miterlimit="10" stroke-linecap="round" stroke-linejoin="round"/>
<path d="M447.344 274.579L447.845 273.928" stroke="#FFF1F0" stroke-width="0.282166" stroke-miterlimit="10" stroke-linecap="round" stroke-linejoin="round"/>
<path d="M506.364 279.422H484.796L484.759 278.545L484.494 272.732H499.171C500.988 272.732 502.669 273.799 503.954 274.911C505.017 275.863 505.808 277.111 506.179 278.545C506.265 278.829 506.327 279.126 506.364 279.422Z" fill="#322A28"/>
<path d="M506.365 279.422H484.797L484.76 278.545H506.179C506.266 278.829 506.328 279.126 506.365 279.422Z" fill="#FFF1F0"/>
<path d="M499.614 274.126C499.614 274.126 497.75 270.854 496.494 272.147C495.238 273.441 499.614 274.126 499.614 274.126Z" stroke="#FFF1F0" stroke-width="0.282166" stroke-miterlimit="10" stroke-linecap="round" stroke-linejoin="round"/>
<path d="M498.957 274.777L499.613 274.126M499.613 274.126C499.613 274.126 501.477 270.854 502.733 272.147C503.989 273.441 499.613 274.126 499.613 274.126Z" stroke="#FFF1F0" stroke-width="0.282166" stroke-miterlimit="10" stroke-linecap="round" stroke-linejoin="round"/>
<path d="M500.116 274.777L499.615 274.126" stroke="#FFF1F0" stroke-width="0.282166" stroke-miterlimit="10" stroke-linecap="round" stroke-linejoin="round"/>
<path d="M472.563 201.115L471.861 195.368L468.334 192.935L465.469 181.261" stroke="white" stroke-width="0.408687" stroke-miterlimit="10"/>
<path d="M448.291 259.731H462.163" stroke="white" stroke-width="0.408687" stroke-miterlimit="10"/>
<path d="M485.406 259.731H499.278" stroke="white" stroke-width="0.408687" stroke-miterlimit="10"/>
<path d="M583.739 87.7067L573.354 81.3545C572.338 81.8321 571.204 82.0992 570.007 82.0992C568.81 82.0992 567.676 81.8321 566.66 81.3545L556.275 87.7067C556.275 87.7067 554.863 108.815 570.007 115.18C585.151 108.815 583.739 87.7067 583.739 87.7067Z" fill="#E5F0F8"/>
<path d="M171.976 199.315H147.679C147.679 199.315 146.279 194.849 149.547 193.114C152.815 191.378 153.282 189.122 151.881 186.748C150.48 184.375 151.036 181.425 153.437 179.473C155.839 177.52 156.198 172.934 162.227 174.5C162.227 174.5 169.742 175.989 170.231 180.329C170.72 184.668 170.712 184.294 172.735 186.941C174.758 189.588 172.112 194.187 172.735 195.856C173.357 197.525 174.525 199.315 174.525 199.315H171.976Z" fill="#322A28"/>
<path d="M191.107 238.957C187.969 240.883 183.825 239.892 181.898 236.754L167.419 213.165C165.493 210.027 166.484 205.883 169.622 203.956C172.761 202.03 176.904 203.022 178.831 206.16L193.31 229.749C195.236 232.887 194.245 237.031 191.107 238.957Z" fill="#F74242"/>
<path d="M146.806 247.281C146.806 247.281 144.855 249.498 144.079 251.307C143.303 253.115 152.569 252.117 152.569 252.117L151.559 243.431L146.806 247.281Z" fill="#268BBF"/>
<path d="M208.596 285.337C204.977 290.383 197.888 291.55 192.842 287.931L157.597 262.653C152.551 259.034 151.384 251.945 155.003 246.899C158.621 241.853 165.711 240.686 170.757 244.305L206.002 269.583C211.048 273.202 212.216 280.291 208.596 285.337Z" fill="#268BBF"/>
<path d="M198.444 288.5C194.825 293.546 187.736 294.713 182.69 291.094L147.445 265.816C142.399 262.197 141.231 255.107 144.85 250.062C148.469 245.016 155.559 243.848 160.604 247.467L195.849 272.745C200.896 276.364 202.063 283.454 198.444 288.5Z" fill="#268BBF"/>
<path d="M156.388 200.231L144.672 205.749C144.672 205.749 147.277 235.7 147.546 238.999C147.816 242.298 146.806 247.281 146.806 247.281H174.884C174.884 247.281 174.547 231.121 176.433 226.61C177.71 223.553 178.587 221.694 177.847 218.193C177.106 214.692 174.615 209.439 175.49 203.379L168.285 200.484L156.388 200.231Z" fill="#F74242"/>
<path d="M207.505 340.651L205.348 333.044L217.078 331.35L218.027 339.021L207.505 340.651Z" fill="#A06753"/>
<path d="M168.287 186.863V200.487C168.287 200.487 168.287 200.653 168.254 200.92C168.114 202.032 167.395 204.888 163.693 204.848C160.31 204.808 157.947 202.325 156.941 201.02C156.575 200.554 156.389 200.234 156.389 200.234L158.093 186.864L168.287 186.863Z" fill="#A06753"/>
<path d="M167.865 339.325L178.315 341.342L180.531 334.714L168.928 332.983L167.865 339.325Z" fill="#A06753"/>
<path d="M168.284 200.484L162.227 192.751L168.284 191.584V200.484Z" fill="#824C3A"/>
<path d="M169.418 193.67C167.183 194.871 163.723 194.521 160.954 192.496C158.185 190.47 151.305 182.258 157.519 176.736C163.741 171.214 169.14 177.527 169.518 178.587C169.518 178.587 170.281 182.425 170.812 185.131C170.952 185.819 171.073 186.43 171.164 186.891C171.175 186.966 171.195 187.034 171.206 187.101C171.623 189.22 171.651 192.477 169.418 193.67Z" fill="#A06753"/>
<path d="M132.979 242.677C129.656 241.089 128.237 237.072 129.824 233.749L141.756 208.775C143.344 205.453 147.361 204.033 150.684 205.62C154.006 207.208 155.426 211.225 153.838 214.548L141.906 239.522C140.318 242.845 136.301 244.264 132.979 242.677Z" fill="#F74242"/>
<path d="M196.399 269.92C190.772 271.939 187.848 278.138 189.868 283.764L204.025 334.714L221.47 332L210.861 279.477L210.857 279.478C210.797 278.469 210.602 277.45 210.243 276.45C208.224 270.824 202.025 267.9 196.399 269.92Z" fill="#268BBF"/>
<path d="M166.051 347.316L170.997 348.188L171.878 345.051L174.009 348.719L185.679 350.777L178.317 341.342L167.867 339.325L166.051 347.316Z" fill="#322A28"/>
<path d="M191.696 270.624C185.809 269.586 180.195 273.517 179.157 279.404L165.76 333.755L182.47 336.981L199.511 286.097L199.507 286.096C199.956 285.19 200.291 284.209 200.476 283.163C201.514 277.276 197.582 271.662 191.696 270.624Z" fill="#268BBF"/>
<path d="M175.02 342.84L179.688 343.648" stroke="#D1DDFF" stroke-width="0.66585" stroke-miterlimit="10"/>
<path d="M162.227 174.5C162.227 174.5 168.631 173.559 170.547 179.511L167.343 180.251C167.343 180.251 167.017 178.15 165.227 177.527C165.227 177.527 166.659 178.918 166.549 180.552L162.872 181.598C162.872 181.598 162.299 179.356 162.338 178.422C162.338 178.422 161.807 180.661 162.002 181.906L159.497 183.103C159.497 183.103 159.897 185.221 159.079 186.155C158.262 187.088 157.601 190.721 157.601 190.721C157.601 190.721 153.516 183.714 154.294 181.107C155.072 178.5 156.543 174.275 162.227 174.5Z" fill="#322A28"/>
<path d="M175.863 344.647L180.532 345.455" stroke="#D1DDFF" stroke-width="0.66585" stroke-miterlimit="10"/>
<path d="M208.397 348.685L213.356 347.888L213.159 344.635L216.375 347.402L228.075 345.522L218.028 339.021L207.506 340.651L208.397 348.685Z" fill="#322A28"/>
<path d="M215.402 341.517L220.078 340.75" stroke="#D1DDFF" stroke-width="0.66585" stroke-miterlimit="10"/>
<path d="M216.793 342.947L221.468 342.18" stroke="#D1DDFF" stroke-width="0.66585" stroke-miterlimit="10"/>
<path d="M169.42 253.789C169.42 253.789 187.971 266.868 191.555 269.362C195.14 271.857 200.436 274.674 200.642 280.667C200.847 286.66 194.788 299.982 194.788 299.982" stroke="#E5F0F8" stroke-width="0.332939" stroke-miterlimit="10"/>
<path d="M158.987 188.013C159.625 189.192 159.76 189.999 158.834 190.5C157.909 191.001 156.451 190.716 155.813 189.537C155.175 188.359 155.408 186.997 156.333 186.496C157.259 185.995 158.349 186.834 158.987 188.013Z" fill="#A06753"/>
<path d="M156.373 187.791C156.373 187.791 157.937 187.432 158.315 188.742C158.315 188.742 157.712 188.361 156.949 188.643" stroke="#724638" stroke-width="0.16647" stroke-miterlimit="10" stroke-linecap="round" stroke-linejoin="round"/>
<path d="M164.49 185.152C164.579 185.663 164.918 186.029 165.249 185.972C165.579 185.915 165.774 185.454 165.686 184.944C165.597 184.434 165.257 184.067 164.927 184.125C164.597 184.182 164.401 184.642 164.49 185.152Z" fill="#322A28"/>
<path d="M168.781 183.998C168.87 184.508 169.209 184.875 169.54 184.817C169.87 184.76 170.065 184.3 169.977 183.79C169.888 183.279 169.548 182.913 169.218 182.97C168.888 183.027 168.692 183.488 168.781 183.998Z" fill="#322A28"/>
<path d="M167.169 190.78C167.808 190.88 168.407 190.443 168.507 189.805L166.194 189.441C166.094 190.08 166.53 190.68 167.169 190.78Z" fill="white"/>
<path d="M163.15 184.329C163.15 184.329 163.953 182.88 165.227 183.132" stroke="#2C3447" stroke-width="0.247133" stroke-miterlimit="10"/>
<path d="M168.578 182.314C168.578 182.314 169.298 182.046 170.23 182.713" stroke="#2C3447" stroke-width="0.247133" stroke-miterlimit="10"/>
<path d="M167.254 184.339C167.254 184.339 167.752 186.857 169.289 186.908C169.289 186.908 168.892 187.42 168.332 187.699" stroke="#2C3447" stroke-width="0.247133" stroke-miterlimit="10"/>
<path d="M165.799 187.786C165.763 188.294 164.97 188.65 164.029 188.582C163.088 188.514 162.355 188.047 162.392 187.54C162.429 187.033 163.221 186.676 164.162 186.744C165.103 186.812 165.836 187.279 165.799 187.786Z" fill="#A14C53"/>
<path d="M171.164 186.891C170.627 187.009 170.163 186.918 169.996 186.608C169.777 186.204 170.136 185.586 170.813 185.131C170.953 185.818 171.074 186.43 171.164 186.891Z" fill="#A14C53"/>
<path d="M181.289 235.028C179.682 231.327 181.041 227.138 184.308 225.719L214.098 217.25C215.029 216.749 216.074 216.136 216.878 215.523C218.746 214.098 224.276 210.824 224.741 211.624C225.207 212.424 221.872 215.435 222.343 215.61C222.814 215.786 225.776 214.149 226.983 213.35C228.19 212.552 230.502 210.424 231.297 210.713C232.092 211.004 231.981 212.245 231.981 212.245C231.981 212.245 232.764 211.325 233.244 211.924C233.724 212.524 232.852 214.254 232.852 214.254C232.852 214.254 233.235 213.697 233.601 214.49C233.966 215.282 231.785 217.41 231.785 217.41C231.785 217.41 232.346 217.169 232.542 217.808C232.737 218.448 229.562 220.926 226.799 221.923C224.332 222.813 218.235 224.276 216.954 224.58L190.151 239.18C186.884 240.598 182.896 238.73 181.289 235.028Z" fill="#A06753"/>
<path d="M147 228.862L150.974 220.544" stroke="#2C3447" stroke-width="0.342258" stroke-miterlimit="10"/>
<path d="M164.476 263.076L153.977 253.789H185.033L196.585 263.076H164.476Z" fill="#89A5C7"/>
<path d="M159.195 190.866C159.288 191.402 158.928 191.912 158.392 192.005C157.855 192.097 157.345 191.737 157.253 191.201C157.16 190.665 157.52 190.155 158.056 190.062C158.593 189.97 159.103 190.329 159.195 190.866Z" stroke="white" stroke-width="0.281882" stroke-miterlimit="10"/>
<path d="M196.585 263.076H164.477L172.856 239.032H204.965L196.585 263.076Z" fill="#A5BBD6"/>
<path d="M164.827 261.909L154.328 252.622H185.384L196.936 261.909H164.827Z" fill="#89A5C7"/>
<path d="M195.978 262.544H163.869L172.249 238.5H204.358L195.978 262.544Z" fill="#A5BBD6"/>
<path d="M204.358 238.5L204.964 239.032H172.855L164.476 263.076L163.869 262.544L172.249 238.5H204.358Z" fill="#89A5C7"/>
<path d="M154.327 252.622L153.977 253.789L164.476 263.076L164.883 261.909L154.327 252.622Z" fill="#586773"/>
<path d="M189.633 251.327C189.633 252.198 188.04 252.903 186.073 252.903C184.107 252.903 182.514 252.198 182.514 251.327C182.514 250.457 184.108 249.752 186.073 249.752C188.039 249.752 189.633 250.457 189.633 251.327Z" fill="#89A5C7"/>
<path d="M129.799 233.056C131.693 229.493 135.816 227.945 138.961 229.617L164.148 247.639C165.12 248.055 166.25 248.491 167.23 248.737C169.509 249.31 175.515 251.595 175.179 252.458C174.844 253.321 170.411 252.589 170.567 253.066C170.723 253.544 173.85 254.84 175.226 255.287C176.603 255.733 179.708 256.216 179.977 257.018C180.246 257.821 179.206 258.507 179.206 258.507C179.206 258.507 180.413 258.546 180.244 259.295C180.074 260.044 178.177 260.44 178.177 260.44C178.177 260.44 178.851 260.393 178.459 261.172C178.067 261.952 175.043 261.572 175.043 261.572C175.043 261.572 175.582 261.861 175.204 262.412C174.825 262.963 170.909 262.024 168.407 260.484C166.174 259.109 161.23 255.252 160.194 254.44L132.074 242.574C128.929 240.902 127.905 236.619 129.799 233.056Z" fill="#A06753"/>
<path d="M176.334 226.869C176.334 226.869 178.444 222.43 178.102 220.124C177.759 217.819 175.881 211.589 175.633 209.676" stroke="#2C3447" stroke-width="0.342258" stroke-miterlimit="10"/>
<path d="M315.277 249.058C314.977 249.591 317.397 252.403 319.716 253.8C321.68 254.986 326.503 257.234 327.929 257.887L331.866 251.739C331.16 251.148 330.403 250.47 329.826 249.808C328.394 248.19 323.997 244.234 323.429 244.877C322.861 245.51 325.331 248.831 324.873 248.904C324.415 248.977 322.038 246.963 321.096 246.026C320.145 245.089 318.444 242.753 317.677 242.871C316.899 242.988 316.785 244.131 316.785 244.131C316.785 244.131 316.237 243.162 315.694 243.615C315.152 244.068 315.627 245.788 315.627 245.788C315.627 245.788 315.388 245.22 314.914 245.865C314.441 246.522 316.025 248.833 316.025 248.833C316.025 248.833 315.567 248.514 315.277 249.058Z" fill="#FDAE97"/>
<path d="M377.085 212.598C382.194 213.042 386.63 217.384 386.693 223.585C386.755 229.786 387.88 232.977 391.628 232.256C391.628 232.256 381.128 238.346 367.291 232.973C367.291 232.973 369.026 230.916 369.268 226.259C369.511 221.602 377.085 212.598 377.085 212.598Z" fill="#322A28"/>
<path d="M350.215 275.956C353.47 277.707 357.567 276.477 359.319 273.222L372.489 248.753C374.241 245.498 373.011 241.401 369.756 239.649C366.5 237.897 362.403 239.127 360.651 242.382L347.482 266.851C345.73 270.107 346.96 274.203 350.215 275.956Z" fill="#F74242"/>
<path d="M380.149 284.097C384.549 289.859 386.208 301.805 383.402 314.673C380.596 327.541 379.648 336.001 379.648 336.001C378.916 341.958 373.494 346.194 367.538 345.462C361.581 344.731 357.345 339.309 358.076 333.352L362.551 284.097H380.149Z" fill="#268BBF"/>
<path d="M381.12 236.861L392.883 242.188C392.883 242.188 390.267 272.47 389.997 275.782C389.727 279.094 390.741 284.097 390.741 284.097H362.551C362.551 284.097 362.889 267.873 360.997 263.344C359.714 260.275 358.833 258.409 359.577 254.894C360.321 251.379 365.762 245.164 364.883 239.08L371.019 237.115L381.12 236.861Z" fill="#F74242"/>
<path d="M402.317 280.841C405.789 279.57 407.589 275.69 406.318 272.218L396.764 246.124C395.493 242.653 391.613 240.852 388.141 242.123C384.67 243.395 382.869 247.275 384.14 250.746L393.695 276.84C394.966 280.311 398.846 282.112 402.317 280.841Z" fill="#F74242"/>
<path d="M369.598 219.313C369.598 219.313 367.997 215.375 371.844 214.183L369.598 219.313Z" fill="#332B27"/>
<path d="M371.02 223.429V237.112C371.02 237.112 371.295 240.114 374.859 240.379C377.935 240.612 379.898 238.587 380.725 237.505L381.16 236.868L381.17 236.858L379.717 223.429H371.02Z" fill="#FDAE97"/>
<path d="M371.019 235.554L377.084 228.959L371.016 231.239L371.019 235.554Z" fill="#E89780"/>
<path d="M377.036 230.42C374.201 232.092 370.856 232.089 368.838 230.732C366.819 229.383 367.151 226.273 367.752 224.299C367.754 224.291 367.754 224.291 367.756 224.284C367.881 223.875 368.059 223.301 368.258 222.651C369.029 220.101 370.169 216.324 370.169 216.324C370.668 214.328 376.385 209.838 381.797 215.693C387.208 221.556 379.871 228.748 377.036 230.42Z" fill="#FDAE97"/>
<path d="M370.35 215.517C370.35 215.517 370.424 217.909 373.774 219.507C377.125 221.105 380.305 223.549 379.904 227.081C379.503 230.613 380.714 232.606 380.714 232.606C380.714 232.606 381.213 228.204 383.433 224.476C384.294 223.03 385.049 219.98 383.618 217.35C381.362 213.2 375.536 210.047 370.35 215.517Z" fill="#322A28"/>
<path d="M379.333 226.322C378.612 227.387 378.407 228.144 379.243 228.71C380.08 229.276 381.498 229.142 382.219 228.077C382.939 227.012 382.846 225.69 382.01 225.124C381.173 224.559 380.053 225.257 379.333 226.322Z" fill="#FDAE97"/>
<path d="M381.219 227.116C380.518 226.774 379.906 227.081 379.906 227.081C380.391 225.866 381.85 226.357 381.85 226.357" stroke="#E89780" stroke-width="0.159679" stroke-miterlimit="10" stroke-linecap="round" stroke-linejoin="round"/>
<path d="M374.068 223.168C373.935 223.647 373.576 223.965 373.266 223.879C372.956 223.793 372.813 223.335 372.946 222.857C373.079 222.378 373.438 222.06 373.748 222.146C374.057 222.232 374.201 222.69 374.068 223.168Z" fill="#2C3447"/>
<path d="M370.177 221.674C370.054 222.117 369.723 222.41 369.437 222.331C369.151 222.251 369.019 221.829 369.142 221.387C369.264 220.945 369.596 220.651 369.882 220.731C370.167 220.81 370.3 221.233 370.177 221.674Z" fill="#2C3447"/>
<path d="M354.176 392.045H373.269L379.824 335.924L379.908 334.639C379.908 328.537 374.881 323.619 368.737 323.804C363.198 323.963 358.557 328.47 358.229 334.009L354.176 392.045Z" fill="#268BBF"/>
<path d="M375.707 222.411C375.707 222.411 375.078 220.951 373.838 221.072" stroke="#2C3447" stroke-width="0.237075" stroke-miterlimit="10"/>
<path d="M370.715 219.973C370.715 219.973 370.053 219.649 369.1 220.198" stroke="#2C3447" stroke-width="0.237075" stroke-miterlimit="10"/>
<path d="M389.045 392.046H407.266L401.483 334.077L401.467 333.875C401.08 328.244 396.38 323.796 390.648 323.796C384.656 323.796 379.805 328.647 379.805 334.639C379.805 334.975 379.821 335.302 379.855 335.621L389.045 392.046Z" fill="#268BBF"/>
<path d="M326.082 260.778L348.38 274.887L349.699 275.982C352.388 277.845 356.329 276.876 358.445 273.822C360.562 270.768 360.083 266.745 357.394 264.882L332.419 250.884L331.867 251.739L327.929 257.887L326.082 260.778Z" fill="#F74242"/>
<path d="M371.79 222.032C371.79 222.032 371.076 224.388 369.604 224.292C369.604 224.292 369.934 224.818 370.443 225.138" stroke="#2C3447" stroke-width="0.237075" stroke-miterlimit="10"/>
<path d="M371.391 284.102L371.645 285.682L379.823 335.653C380.449 341.625 385.795 345.953 391.767 345.327C397.728 344.701 402.067 339.355 401.441 333.383C401.441 333.383 400.454 324.929 400.295 311.755C400.168 301.551 397.856 293.319 394.217 287.995C393.157 286.446 391.99 285.141 390.738 284.102H371.391Z" fill="#268BBF"/>
<path d="M369.66 227.047C369.66 227.047 371.025 228.129 372.612 226.733" stroke="#2C3447" stroke-width="0.237075" stroke-miterlimit="10"/>
<path d="M376.382 225.259C376.396 225.777 375.585 226.219 374.571 226.247C373.556 226.275 372.722 225.878 372.707 225.361C372.693 224.843 373.504 224.401 374.519 224.373C375.533 224.345 376.368 224.742 376.382 225.259Z" fill="#E89780"/>
<path d="M368.828 224.038C368.664 224.314 368.251 224.391 367.756 224.284C367.881 223.875 368.059 223.301 368.258 222.651C368.79 223.137 369.042 223.695 368.828 224.038Z" fill="#E89780"/>
<path d="M378.851 228.709C378.733 229.15 378.995 229.603 379.436 229.721C379.876 229.839 380.33 229.577 380.448 229.135C380.565 228.694 380.304 228.241 379.862 228.123C379.422 228.006 378.968 228.268 378.851 228.709Z" stroke="white" stroke-width="0.209827" stroke-miterlimit="10"/>
<path d="M410.932 404.356H396.866L395.042 401.577L395.083 404.356H391.985L392.263 396.327L391.584 392.041H403.04L403.082 396.327L410.932 404.356Z" fill="#FDAE97"/>
<path d="M370.586 237.056L371.295 251.442L380.725 237.504C379.898 238.586 377.935 240.612 374.859 240.378C371.295 240.114 370.586 237.056 370.586 237.056Z" fill="#F9ECB8"/>
<path d="M381.085 236.081L374.053 240.265L375.539 242.867L382.076 237.294L381.085 236.081Z" fill="white"/>
<path d="M371.021 236.681L374.051 240.265L372.221 242.473L370.312 237.34L371.021 236.681Z" fill="white"/>
<path d="M333.221 281.038L371.087 282.626L362.394 253.856L324.527 252.268L333.221 281.038Z" fill="#A5BBD6"/>
<path d="M370.732 281.232L383.573 270.799L346.948 269.263L332.865 279.644L370.732 281.232Z" fill="#89A5C7"/>
<path d="M333.963 280.44L371.829 282.028L363.136 253.258L325.27 251.67L333.963 280.44Z" fill="#A5BBD6"/>
<path d="M325.269 251.67L324.527 252.268L362.394 253.856L371.087 282.626L371.828 282.028L363.135 253.258L325.269 251.67Z" fill="#89A5C7"/>
<path d="M383.572 270.799L383.928 272.193L371.086 282.626L370.664 281.229L383.572 270.799Z" fill="#586773"/>
<path d="M341.999 267.526C341.956 268.553 343.8 269.464 346.119 269.561C348.438 269.658 350.352 268.905 350.395 267.878C350.438 266.852 348.594 265.941 346.275 265.844C343.956 265.747 342.042 266.5 341.999 267.526Z" fill="#89A5C7"/>
<path d="M360.338 404.356L363.701 401.853L363.415 404.356H366.544L368.082 396.327L368.909 392.041H356.774L356.308 396.327L346.57 404.356H360.338Z" fill="#FDAE97"/>
<path d="M403.083 396.327L410.932 404.356H396.867L395.043 401.577L395.084 404.356H391.986L392.264 396.327H403.083Z" fill="#322A28"/>
<path d="M360.338 404.356L363.701 401.853L363.415 404.356H366.544L368.082 396.327H356.308L346.57 404.356H360.338Z" fill="#322A28"/>
<path d="M355.454 274.191C354.904 274.751 355.495 275.735 355.495 275.735C355.495 275.735 354.471 275.286 354.318 275.969C354.167 276.605 355.374 277.61 355.531 277.74C355.417 277.684 355.027 277.547 355.039 278.242C355.046 279.008 357.452 279.861 357.68 279.939C357.593 279.952 357.151 280.02 357.23 280.573C357.324 281.189 360.938 281.99 363.63 281.727C365.9 281.5 371.082 280.403 372.633 280.073L372.223 272.805C371.275 272.76 370.212 272.66 369.341 272.469C367.218 272.026 361.33 271.499 361.259 272.354C361.184 273.2 365.151 274.384 364.828 274.713C364.505 275.042 361.398 274.856 360.084 274.676C358.757 274.49 355.993 273.636 355.454 274.191Z" fill="#FDAE97"/>
<path d="M372.096 270.608L372.223 272.805L372.633 280.073L372.742 282.002L400.921 281.535C404.192 281.423 406.766 278.293 406.643 274.579C406.506 270.86 403.721 267.925 400.44 268.041L398.317 268.402L398.307 268.406L372.096 270.608Z" fill="#F74242"/>
<path d="M377.387 270.163L390.838 269.034L388.073 261.482" stroke="#2C3447" stroke-width="0.237075" stroke-miterlimit="10"/>
<path d="M390.338 281.71H396.452" stroke="#2C3447" stroke-width="0.237075" stroke-miterlimit="10"/>
<path d="M372.486 222.853C372.069 223.694 372.25 224.633 372.89 224.951C373.531 225.269 374.389 224.846 374.806 224.005C375.224 223.164 375.043 222.224 374.402 221.906C373.762 221.588 372.904 222.012 372.486 222.853Z" stroke="white" stroke-width="0.30893" stroke-miterlimit="10"/>
<path d="M368.643 221.381C368.225 222.222 368.406 223.161 369.047 223.479C369.687 223.798 370.545 223.374 370.963 222.533C371.38 221.692 371.199 220.752 370.559 220.434C369.918 220.116 369.06 220.54 368.643 221.381Z" stroke="white" stroke-width="0.30893" stroke-miterlimit="10"/>
<path d="M372.711 222.492L371.154 221.957" stroke="white" stroke-width="0.30893" stroke-miterlimit="10"/>
</svg>
