<svg width="474" height="470" viewBox="0 0 474 470" fill="none" xmlns="http://www.w3.org/2000/svg">
<path d="M416.204 404.195C403.892 416.886 392.876 424.345 384.442 429.977C302.183 484.902 208.153 469.071 179.081 463.66C132.177 454.931 92.5835 448.772 58.5657 418.038C-18.733 348.202 -14.9733 202.518 44.0924 112.273C51.0958 101.573 110.072 14.1518 204.306 1.83337C206.611 1.53201 208.331 1.36058 209.837 1.20113C224.415 -0.342284 314.75 -8.48842 388.41 53.2237C398.954 62.0574 415.922 77.9913 431.658 102.293C489.193 191.152 489.375 328.773 416.204 404.195Z" fill="#F4F7FA"/>
<path d="M386.063 171.092L372.969 171.115C372.067 162.465 369.988 154.162 366.893 146.362L377.965 139.941C380.99 138.186 382.025 134.229 380.281 131.092L375.629 122.726C373.874 119.57 369.977 118.411 366.92 120.147L355.986 126.352C350.897 119.221 344.824 112.792 337.945 107.262L344.234 96.4593C346.038 93.3596 344.968 89.2806 341.837 87.3383L333.468 82.1454C330.304 80.1823 326.244 81.1102 324.406 84.2281L318.103 94.9201C310.004 91.1478 301.253 88.4265 292.022 86.9668V74.2874C292.022 70.5469 288.945 67.3742 285.138 67.2006L274.947 66.7356C271.091 66.5596 267.955 69.4821 267.955 73.2637V86.0825C258.439 86.8752 249.267 89.0142 240.644 92.3239L233.842 80.7351C231.843 77.3295 227.403 76.0092 223.918 77.7963L214.599 82.5758C211.075 84.3833 209.865 88.6364 211.903 92.0651L218.952 103.921C211.237 109.375 204.341 115.904 198.5 123.307L185.752 116.094C182.137 114.049 177.499 115.109 175.399 118.473L169.794 127.449C167.68 130.836 168.935 135.231 172.591 137.254L185.782 144.554C182.125 152.978 179.654 162.007 178.579 171.449L162.755 171.476C158.497 171.483 155.033 174.711 155.033 178.686V189.255C155.033 193.229 158.497 196.408 162.755 196.355L178.999 196.153C180.371 205.373 183.079 214.151 186.928 222.301L172.591 230.438C168.935 232.513 167.68 236.925 169.794 240.282L175.399 249.179C177.499 252.513 182.137 253.508 185.752 251.412L200.253 243.002C206.047 249.855 212.786 255.876 220.264 260.888L211.904 275.07C209.866 278.528 211.076 282.764 214.6 284.521L223.919 289.169C227.403 290.906 231.843 289.523 233.842 286.089L242.133 271.846C250.321 274.734 258.986 276.567 267.955 277.199V293.078C267.955 296.859 271.091 299.737 274.947 299.507L285.138 298.897C288.945 298.67 292.022 295.453 292.022 291.713V276.007C300.727 274.519 309.006 271.915 316.713 268.373L324.406 281.314C326.244 284.406 330.304 285.276 333.468 283.268L341.838 277.956C344.968 275.97 346.038 271.876 344.234 268.802L336.766 256.079C343.451 250.789 349.402 244.669 354.464 237.9L366.92 244.793C369.977 246.485 373.874 245.271 375.629 242.09L380.281 233.658C382.025 230.497 380.991 226.554 377.965 224.842L365.92 218.027C369.182 210.375 371.465 202.229 372.617 193.743L386.064 193.576C389.53 193.533 392.331 190.605 392.331 187.036V177.544C392.331 173.975 389.53 171.086 386.063 171.092ZM280.054 249.231C241.308 250.668 208.883 220.597 208.883 182.019C208.883 143.44 241.308 112.954 280.054 113.897C317.484 114.807 346.905 144.899 346.905 181.136C346.905 217.374 317.484 247.842 280.054 249.231Z" fill="#97A6B7"/>
<path d="M236.698 77.2991L227.372 76.9775L224.156 85.339L236.698 77.2991Z" fill="#97A6B7"/>
<path d="M329.176 81.1582L339.93 81.2655V89.198L329.176 81.1582Z" fill="#97A6B7"/>
<path d="M370.16 119.424L380.88 119.857L378.2 125.86L370.16 119.424Z" fill="#97A6B7"/>
<path d="M386.99 171.204L397.817 172.062L394.28 177.314L386.99 171.204Z" fill="#97A6B7"/>
<path d="M368.98 245.492L379.486 246.993L380.772 238.417L368.98 245.492Z" fill="#97A6B7"/>
<path d="M328.781 284.19L338.215 285.906L338.965 278.938L328.781 284.19Z" fill="#97A6B7"/>
<path d="M281.615 300.913L273.146 299.412L280.436 288.585L281.615 300.913Z" fill="#97A6B7"/>
<path d="M235.733 291.802L225.871 289.765L233.482 280.546L235.733 291.802Z" fill="#97A6B7"/>
<path d="M180.312 115.14L190.603 115.462L186.53 122.966L180.312 115.14Z" fill="#97A6B7"/>
<path d="M159.838 195.86L169.271 197.253L168.521 189.535L159.838 195.86Z" fill="#97A6B7"/>
<path d="M180.1 252.353L189.319 253.854L190.069 247.744L180.1 252.353Z" fill="#97A6B7"/>
<path d="M396.645 171.942L383.442 171.965C382.532 163.245 380.436 154.874 377.316 147.01L388.479 140.538C391.53 138.769 392.573 134.779 390.814 131.617L386.123 123.182C384.354 120.001 380.425 118.832 377.342 120.582L366.318 126.838C361.187 119.649 355.063 113.167 348.127 107.592L354.468 96.7014C356.288 93.5767 355.208 89.4643 352.052 87.5063L343.613 82.271C340.422 80.2919 336.329 81.2274 334.476 84.3705L328.121 95.1498C319.955 91.3467 311.131 88.6032 301.824 87.1317V74.3491C301.824 70.578 298.721 67.3795 294.882 67.2044L284.607 66.7356C280.719 66.5583 277.557 69.5046 277.557 73.3169V86.2399C267.963 87.0392 258.714 89.1955 250.02 92.5322L243.161 80.849C241.145 77.4158 236.669 76.0847 233.156 77.8862L223.759 82.7046C220.206 84.5268 218.986 88.8146 221.041 92.2712L228.148 104.224C220.37 109.722 213.416 116.304 207.527 123.767L194.672 116.496C191.028 114.434 186.351 115.503 184.233 118.895L178.583 127.944C176.451 131.358 177.716 135.789 181.403 137.828L194.703 145.188C191.015 153.68 188.524 162.784 187.44 172.302L171.486 172.33C167.192 172.337 163.699 175.591 163.699 179.598V190.253C163.699 194.26 167.192 197.465 171.486 197.411L187.864 197.207C189.247 206.503 191.978 215.353 195.859 223.568L181.402 231.772C177.716 233.864 176.45 238.312 178.582 241.696L184.233 250.666C186.351 254.027 191.028 255.03 194.672 252.917L209.294 244.438C215.136 251.347 221.931 257.418 229.471 262.47L221.041 276.768C218.986 280.254 220.206 284.524 223.759 286.296L233.156 290.982C236.669 292.733 241.145 291.339 243.161 287.877L251.521 273.518C259.777 276.429 268.513 278.277 277.557 278.915V294.922C277.557 298.735 280.719 301.636 284.607 301.404L294.882 300.789C298.721 300.56 301.824 297.317 301.824 293.546V277.713C310.601 276.213 318.948 273.587 326.719 270.016L334.476 283.063C336.329 286.18 340.422 287.057 343.613 285.033L352.052 279.678C355.208 277.675 356.287 273.548 354.468 270.449L346.938 257.622C353.678 252.289 359.678 246.119 364.783 239.295L377.342 246.244C380.425 247.95 384.354 246.726 386.123 243.52L390.814 235.019C392.573 231.832 391.53 227.857 388.479 226.131L376.334 219.261C379.623 211.546 381.925 203.334 383.086 194.779L396.644 194.611C400.139 194.567 402.964 191.615 402.964 188.017V178.447C402.964 174.848 400.139 171.936 396.645 171.942ZM289.756 250.717C250.689 252.167 217.996 221.851 217.996 182.958C217.996 144.065 250.689 113.331 289.756 114.281C327.496 115.199 357.162 145.536 357.162 182.068C357.162 218.601 327.496 249.317 289.756 250.717Z" fill="#D8DEE8"/>
<path d="M429.036 352.096L421.992 350.787C422.38 346.044 422.1 341.369 421.224 336.861L427.826 334.526C429.63 333.888 430.586 331.864 429.965 330.001L428.308 325.032C427.683 323.158 425.704 322.141 423.885 322.766L417.378 324.999C415.361 320.65 412.744 316.579 409.603 312.911L414.076 307.736C415.359 306.251 415.195 303.95 413.708 302.589L409.731 298.951C408.228 297.576 405.951 297.665 404.648 299.157L400.178 304.27C396.204 301.424 391.772 299.077 386.955 297.36L388.235 290.541C388.613 288.529 387.279 286.512 385.249 286.034L379.815 284.756C377.759 284.272 375.777 285.527 375.395 287.56L374.101 294.454C368.904 293.92 363.755 294.144 358.784 295.053L356.295 288.134C355.564 286.101 353.31 284.943 351.256 285.552L345.761 287.181C343.684 287.798 342.603 289.963 343.353 292.012L345.947 299.1C341.247 301.255 336.879 304.069 332.991 307.461L326.863 302.295C325.125 300.83 322.524 300.932 321.055 302.529L317.134 306.791C315.655 308.398 315.887 310.889 317.649 312.346L324.006 317.604C321.188 321.765 318.948 326.371 317.417 331.34L308.904 329.757C306.613 329.331 304.424 330.717 304.023 332.855L302.956 338.539C302.555 340.677 304.097 342.736 306.392 343.137L315.149 344.669C314.955 349.766 315.526 354.76 316.773 359.531L308.241 362.46C306.065 363.207 304.944 365.453 305.743 367.472L307.858 372.822C308.651 374.827 311.045 375.831 313.201 375.068L321.849 372.01C324.273 376.28 327.289 380.199 330.805 383.649L324.877 390.432C323.431 392.086 323.655 394.486 325.372 395.787L329.915 399.227C331.613 400.514 334.14 400.218 335.562 398.573L341.459 391.75C345.571 394.13 350.046 395.991 354.806 397.236L353.203 405.776C352.821 407.809 354.217 409.674 356.314 409.939L361.856 410.64C363.927 410.902 365.906 409.483 366.284 407.472L367.869 399.025C372.701 399.104 377.416 398.539 381.919 397.412L384.749 405.149C385.426 406.997 387.521 407.875 389.426 407.115L394.463 405.103C396.347 404.351 397.336 402.257 396.676 400.422L393.944 392.825C398.073 390.655 401.892 387.965 405.298 384.836L411.3 389.8C412.774 391.019 414.992 390.759 416.257 389.226L419.61 385.161C420.867 383.637 420.709 381.412 419.255 380.186L413.465 375.305C415.992 371.519 418.042 367.369 419.519 362.922L426.767 364.189C428.635 364.516 430.438 363.224 430.798 361.304L431.756 356.2C432.116 354.28 430.901 352.443 429.036 352.096ZM364.136 383.416C343.153 380.277 328.751 360.831 332.646 340.084C336.541 319.336 357.057 306.215 377.8 310.634C397.837 314.903 410.622 334.056 406.963 353.545C403.304 373.033 384.405 386.448 364.136 383.416Z" fill="#97A6B7"/>
<path d="M358.178 286.575L353.195 285.46L350.621 289.632L358.178 286.575Z" fill="#97A6B7"/>
<path d="M407.523 297.987L413.296 299.131L412.495 303.397L407.523 297.987Z" fill="#97A6B7"/>
<path d="M425.699 322.704L431.421 324.019L429.373 326.977L425.699 322.704Z" fill="#97A6B7"/>
<path d="M429.523 352.25L435.26 353.805L432.827 356.273L429.523 352.25Z" fill="#97A6B7"/>
<path d="M412.338 390.384L417.836 392.252L419.394 387.77L412.338 390.384Z" fill="#97A6B7"/>
<path d="M386.811 407.137L391.711 409.012L392.818 405.34L386.811 407.137Z" fill="#97A6B7"/>
<path d="M359.756 411.368L355.354 409.706L360.367 404.619L359.756 411.368Z" fill="#97A6B7"/>
<path d="M336.002 401.836L330.904 399.745L335.928 395.555L336.002 401.836Z" fill="#97A6B7"/>
<path d="M324.033 301.232L329.535 302.444L326.587 306.069L324.033 301.232Z" fill="#97A6B7"/>
<path d="M304.873 342.576L309.806 344.278L310.181 340.051L304.873 342.576Z" fill="#97A6B7"/>
<path d="M310.064 375.003L314.871 376.741L315.891 373.531L310.064 375.003Z" fill="#97A6B7"/>
<path d="M434.639 353.622L427.536 352.301C427.927 347.52 427.645 342.807 426.761 338.263L433.418 335.909C435.237 335.265 436.201 333.225 435.575 331.347L433.903 326.337C433.273 324.448 431.278 323.423 429.443 324.052L422.883 326.304C420.849 321.919 418.211 317.815 415.044 314.117L419.553 308.9C420.847 307.403 420.682 305.083 419.182 303.711L415.172 300.043C413.656 298.657 411.36 298.747 410.046 300.25L405.54 305.405C401.533 302.536 397.064 300.169 392.207 298.438L393.498 291.564C393.879 289.536 392.533 287.502 390.486 287.021L385.008 285.731C382.934 285.243 380.936 286.508 380.552 288.559L379.247 295.509C374.006 294.97 368.815 295.196 363.802 296.112L361.293 289.137C360.556 287.087 358.283 285.919 356.212 286.533L350.672 288.176C348.577 288.797 347.488 290.98 348.244 293.046L350.859 300.192C346.121 302.364 341.717 305.201 337.796 308.62L331.617 303.412C329.865 301.935 327.242 302.038 325.761 303.648L321.808 307.944C320.317 309.565 320.551 312.076 322.327 313.545L328.737 318.845C325.896 323.04 323.637 327.684 322.094 332.694L313.51 331.098C311.2 330.668 308.994 332.066 308.589 334.221L307.513 339.951C307.109 342.106 308.663 344.182 310.978 344.587L319.807 346.131C319.612 351.269 320.187 356.304 321.445 361.115L312.842 364.067C310.648 364.82 309.519 367.084 310.324 369.12L312.457 374.514C313.257 376.535 315.671 377.547 317.844 376.778L326.563 373.695C329.008 378 332.049 381.951 335.594 385.43L329.617 392.268C328.16 393.935 328.385 396.355 330.117 397.666L334.697 401.135C336.409 402.432 338.958 402.134 340.391 400.475L346.337 393.597C350.483 395.996 354.995 397.872 359.794 399.128L358.178 407.737C357.793 409.787 359.2 411.667 361.315 411.934L366.903 412.641C368.991 412.906 370.987 411.475 371.367 409.447L372.966 400.932C377.838 401.011 382.592 400.442 387.132 399.306L389.986 407.106C390.668 408.969 392.781 409.854 394.701 409.088L399.78 407.06C401.68 406.301 402.677 404.191 402.011 402.34L399.257 394.682C403.42 392.494 407.27 389.782 410.704 386.628L416.757 391.633C418.242 392.861 420.479 392.6 421.754 391.054L425.135 386.956C426.403 385.42 426.243 383.176 424.777 381.94L418.939 377.02C421.487 373.203 423.554 369.019 425.042 364.535L432.351 365.813C434.235 366.143 436.052 364.84 436.415 362.905L437.381 357.759C437.744 355.823 436.519 353.972 434.639 353.622ZM369.201 385.195C348.045 382.03 333.523 362.426 337.45 341.509C341.377 320.593 362.062 307.365 382.977 311.82C403.18 316.124 416.071 335.435 412.383 355.082C408.694 374.729 389.639 388.253 369.201 385.195Z" fill="#D8DEE8"/>
<path d="M104.998 389.492C101.183 395.815 94.5367 404.4 87.3403 414.356L207.447 431.746C194.012 395.171 175.072 356.76 203.359 293.25C216.634 263.446 251.915 211.047 237.393 176.104C220.849 136.293 188.117 153.483 179.812 122.662C166.832 74.4876 125.825 40.9754 81.7716 64.9167C38.2927 88.5461 39.7523 174.881 97.0422 269.329C130.467 341.742 124.917 356.474 104.998 389.492Z" fill="url(#paint0_linear_217_3849)"/>
<mask id="mask0_217_3849" style="mask-type:luminance" maskUnits="userSpaceOnUse" x="51" y="56" width="190" height="376">
<path d="M104.998 389.492C101.183 395.815 94.5367 404.4 87.3403 414.356L207.447 431.746C194.012 395.171 175.072 356.76 203.359 293.25C216.634 263.446 251.915 211.047 237.393 176.104C220.849 136.293 188.117 153.483 179.812 122.662C166.832 74.4876 125.825 40.9754 81.7716 64.9167C38.2927 88.5461 39.7523 174.881 97.0422 269.329C130.467 341.742 124.917 356.474 104.998 389.492Z" fill="white"/>
</mask>
<g mask="url(#mask0_217_3849)">
<path d="M150.445 416.387C151.312 400.614 151.331 385.692 151.35 369.894L151.357 364.627C150.898 357.02 150.652 349.506 150.413 342.24C149.875 325.832 149.367 310.335 146.59 293.882C146.536 292.921 146.531 291.988 146.526 290.999C146.508 287.469 146.489 283.819 144.44 280.329L144.393 280.184C136.138 193.166 109.795 106.393 66.0957 22.2769L66.7205 21.9526C110.449 106.124 136.815 192.958 145.087 280.04C147.192 283.674 147.212 287.562 147.23 290.995C147.235 291.975 147.24 292.9 147.289 293.805C150.069 310.264 150.578 325.785 151.117 342.217C151.355 349.478 151.601 356.987 152.061 364.607L152.054 369.895C152.035 385.703 152.016 400.633 151.148 416.426L150.445 416.387Z" fill="#FCFDFE"/>
<path d="M149.637 339.224C148.866 298.072 170.571 249.188 188.916 215.425C208.782 178.863 229.095 151.666 229.297 151.396L229.861 151.818C229.658 152.088 209.372 179.251 189.529 215.77C171.227 249.455 149.572 298.214 150.341 339.211L149.637 339.224Z" fill="#FCFDFE"/>
<path d="M121.997 160.374C118.745 116.75 125.434 70.2153 127.633 54.9234C128.053 51.9986 128.331 50.0661 128.318 49.6906L129.022 49.667C129.036 50.0871 128.82 51.6127 128.329 55.024C126.134 70.2969 119.453 116.775 122.699 160.321L121.997 160.374Z" fill="#FCFDFE"/>
<path d="M137.688 230.13C122.967 192.547 46.0061 159.225 45.2305 158.893L45.5075 158.246C46.2859 158.579 123.516 192.02 138.343 229.874L137.688 230.13Z" fill="#FCFDFE"/>
</g>
<path d="M105.793 256.739C106.447 312.494 133.339 294.123 158.137 299.625C186.756 341.033 189.452 379.451 146.722 412.629L99.1101 405.504C81.4441 404.684 60.715 399.285 61.8847 375.762C63.2075 349.157 69.4991 332.26 39.4702 319.194C9.44164 306.129 -3.45808 282.288 8.70208 255.171C21.4987 226.634 -8.51655 188.168 13.4192 169.048C51.6408 135.732 105.113 198.681 105.793 256.739Z" fill="url(#paint1_linear_217_3849)"/>
<mask id="mask1_217_3849" style="mask-type:luminance" maskUnits="userSpaceOnUse" x="4" y="159" width="176" height="254">
<path d="M105.792 256.739C106.445 312.494 133.337 294.123 158.135 299.625C186.754 341.033 189.45 379.451 146.72 412.629L99.1081 405.504C81.4422 404.684 60.713 399.285 61.8827 375.762C63.2056 349.157 69.4972 332.26 39.4683 319.194C9.43968 306.129 -3.46003 282.288 8.70012 255.171C21.4967 226.634 -8.51851 188.168 13.4173 169.048C51.6389 135.732 105.111 198.681 105.792 256.739Z" fill="white"/>
</mask>
<g mask="url(#mask1_217_3849)">
<path d="M117.615 356.518C97.7365 334.771 80.5139 310.605 66.4249 284.691C52.215 258.553 41.3834 230.984 34.2325 202.749C30.1319 186.559 27.2371 170.063 25.6289 153.722L26.3453 153.651C27.9507 169.957 30.8389 186.416 34.9307 202.572C42.0668 230.748 52.8759 258.261 67.0578 284.346C81.1188 310.209 98.3075 334.328 118.146 356.032L117.615 356.518Z" fill="#FCFDFE"/>
<path d="M66.3698 387.141L66.043 386.499C74.886 381.994 85.3169 378.481 97.047 376.058C102.636 374.903 108.189 374.141 113.55 373.792L113.597 374.511C108.269 374.857 102.75 375.615 97.1931 376.764C85.5255 379.174 75.1554 382.665 66.3698 387.141Z" fill="#FCFDFE"/>
<path d="M75.6945 300.599C51.1086 276.816 -1.22681 278.989 -1.75141 279.018L-1.78516 278.298C-1.25483 278.275 51.3851 276.081 76.1954 300.081L75.6945 300.599Z" fill="#FCFDFE"/>
<path d="M45.3781 238.53C38.0191 200.588 66.4551 156.743 66.743 156.305L67.3447 156.7C67.0582 157.136 38.7824 200.741 46.0852 238.393L45.3781 238.53Z" fill="#FCFDFE"/>
</g>
<path d="M459.669 431.444L34.0879 427.704V438.771C34.0879 441.775 35.9441 444.33 38.4581 444.785L158.8 466.58C160.228 466.838 161.676 466.907 163.117 466.784L455.044 441.935C457.651 441.713 459.669 439.151 459.669 436.064V431.444Z" fill="url(#paint2_linear_217_3849)"/>
<path d="M305.228 413.503L38.49 433.75C33.7168 434.112 29.8359 430.263 29.8359 425.15V220.331C29.8359 215.219 33.7168 211.074 38.49 211.074H305.228C309.161 211.074 312.34 214.821 312.34 219.442V404.595C312.34 409.216 309.161 413.204 305.228 413.503Z" fill="url(#paint3_linear_217_3849)"/>
<path d="M309.482 413.503L42.7439 433.75C37.9707 434.112 34.0898 430.263 34.0898 425.15V220.331C34.0898 215.219 37.9707 211.074 42.7439 211.074H309.482C313.415 211.074 316.594 214.821 316.594 219.442V404.595C316.594 409.216 313.415 413.204 309.482 413.503Z" fill="url(#paint4_linear_217_3849)"/>
<path d="M301.171 400.449L52.7322 418.037C48.8479 418.312 45.6914 415.152 45.6914 410.978V231.659C45.6914 227.485 48.8479 224.088 52.7322 224.07L301.171 222.966C304.415 222.951 307.039 226.021 307.039 229.823V393.151C307.039 396.952 304.415 400.22 301.171 400.449Z" fill="#D8DEE8"/>
<path d="M185.532 216.677C185.532 218.58 184.159 220.127 182.464 220.133C180.766 220.138 179.389 218.596 179.389 216.689C179.389 214.781 180.766 213.234 182.464 213.233C184.159 213.231 185.532 214.773 185.532 216.677Z" fill="white"/>
<path opacity="0.48" d="M245.216 357.328C224.653 345.444 208.484 360.502 192.88 345.645C183.42 336.637 188.064 329.92 176.424 316.46C163.531 301.551 155.137 306.562 142.18 293.144C125.797 276.178 133.991 262.978 119.879 250.796C102.759 236.019 84.296 249.696 67.999 235.524C60.9698 229.412 57.1133 220.525 55.0992 211.074H39.1534C36.3591 211.074 34.0898 213.507 34.0898 216.508V428.821C34.0898 431.821 36.359 434.081 39.1534 433.868L311.004 413.141C312.338 413.04 313.521 412.203 314.28 410.99C294.38 410.211 282.154 403.045 274.339 395.638C259.051 381.146 261.702 366.856 245.216 357.328Z" fill="white"/>
<path d="M320.112 412.585L34.0879 433.897L158.8 456.483C160.228 456.741 161.676 456.81 163.117 456.687L459.669 431.445L324.662 412.73C323.152 412.52 321.629 412.472 320.112 412.585Z" fill="url(#paint5_linear_217_3849)"/>
<path opacity="0.3" d="M75.8223 434.433L313.946 416.425L387.643 426.559L151.571 445.808L75.8223 434.433Z" fill="url(#paint6_linear_217_3849)"/>
<g opacity="0.75">
<path d="M96.3788 238.151L69.0215 238.247V229.394H96.3788V238.151Z" fill="white"/>
<path d="M239.719 237.651L113.756 238.09V229.394H239.719V237.651Z" fill="white"/>
<path d="M140.161 252.697L113.756 252.946V244.249L140.161 244.092V252.697Z" fill="white"/>
<path d="M278.68 251.387L156.939 252.538V243.992L278.68 243.266V251.387Z" fill="white"/>
<path d="M140.161 267.395L113.756 267.803V259.106L140.161 258.791V267.395Z" fill="white"/>
<path d="M278.68 265.259L156.939 267.137V258.59L278.68 257.138V265.259Z" fill="white"/>
<path d="M96.3788 283.03L69.0215 283.615V274.762L96.3788 274.272V283.03Z" fill="white"/>
<path d="M239.719 279.965L113.756 282.659V273.962L239.719 271.708V279.965Z" fill="white"/>
<path d="M140.161 296.792L113.756 297.514V288.817L140.161 288.188V296.792Z" fill="white"/>
<path d="M278.68 293.004L156.939 296.334V287.787L278.68 284.883V293.004Z" fill="white"/>
<path d="M140.161 311.491L113.756 312.371V303.674L140.161 302.886V311.491Z" fill="white"/>
<path d="M278.68 306.877L156.939 310.932V302.386L278.68 298.755V306.877Z" fill="white"/>
<path d="M140.161 326.189L113.756 327.226V318.529L140.161 317.584V326.189Z" fill="white"/>
<path d="M278.68 320.749L156.939 325.531V316.984L278.68 312.628V320.749Z" fill="white"/>
<path d="M182.838 338.957L157.344 340.111V331.566L182.838 330.501V338.957Z" fill="white"/>
<path d="M297.269 333.781L199.041 338.224V329.825L297.269 325.724V333.781Z" fill="white"/>
<path d="M96.3788 357.828L69.0215 359.229V350.375L96.3788 349.07V357.828Z" fill="white"/>
<path d="M239.719 350.489L113.756 356.938V348.241L239.719 342.231V350.489Z" fill="white"/>
<path d="M140.161 370.285L113.756 371.794V363.097L140.161 361.68V370.285Z" fill="white"/>
<path d="M278.68 362.366L156.939 369.326V360.779L278.68 354.245V362.366Z" fill="white"/>
<path d="M140.161 384.983L113.756 386.65V377.953L140.161 376.378V384.983Z" fill="white"/>
<path d="M278.68 376.239L156.939 383.924V375.378L278.68 368.118V376.239Z" fill="white"/>
<path d="M96.3788 402.707L69.0215 404.597V395.744L96.3788 393.949V402.707Z" fill="white"/>
<path d="M239.719 392.803L113.756 401.506V392.809L239.719 384.546V392.803Z" fill="white"/>
</g>
<path d="M384.111 222.373C379.852 222.496 375.698 221.423 372.101 219.266C361.139 212.695 344.942 201.844 330.37 187.639C311.879 169.613 301.255 151.291 298.931 133.299L298.894 133.017L298.443 56.2444C298.443 41.0719 308.34 28.7558 326.919 20.663C342.27 13.9769 362.616 10.6638 384.11 11.286C405.355 11.9008 425.012 16.2842 439.562 23.5878C456.858 32.2702 465.933 44.4715 465.933 58.9374L465.522 132.294L465.489 132.564C463.364 149.793 453.59 167.602 436.313 185.611C422.456 200.056 406.797 211.503 396.042 218.595C392.485 220.942 388.36 222.25 384.111 222.373Z" fill="url(#paint7_linear_217_3849)"/>
<path d="M388.326 222.373C384.124 222.496 380.025 221.423 376.475 219.266C365.658 212.695 349.675 201.844 335.296 187.639C317.049 169.613 306.566 151.291 304.272 133.299L304.236 133.017L303.791 56.2444C303.791 41.0719 313.557 28.7558 331.891 20.663C347.039 13.9769 367.116 10.6638 388.326 11.286C409.29 11.9008 428.688 16.2842 443.045 23.5878C460.113 32.2702 469.068 44.4715 469.068 58.9374L468.662 132.294L468.629 132.564C466.533 149.793 456.887 167.602 439.839 185.611C426.165 200.056 410.712 211.503 400.1 218.595C396.59 220.942 392.519 222.25 388.326 222.373Z" fill="url(#paint8_linear_217_3849)"/>
<path d="M308.859 56.2997L309.308 132.684C314.336 171.657 360.138 203.211 380.086 215.2C385.801 218.634 393.107 218.43 398.781 214.697C418.313 201.844 461.607 169.488 466.233 132.016L466.644 58.8621C466.644 4.58795 308.859 -0.373838 308.859 56.2997Z" fill="url(#paint9_linear_217_3849)"/>
<path d="M389.459 203.426C389.093 203.434 388.539 203.373 387.98 203.034C379.767 198.061 363.845 187.642 349.993 174.036C335.031 159.34 326.402 145.051 324.423 131.631L323.984 56.5111C324.003 49.3034 329.708 43.1347 340.892 38.1989C353.378 32.6885 371.108 29.7971 389.459 30.233C407.626 30.6642 424.839 34.3214 436.764 40.2389C447.313 45.473 452.646 51.6436 452.663 58.602L452.254 131.121C450.407 144.107 442.308 158.107 428.088 172.824C414.718 186.662 399.099 197.631 390.936 202.965C390.377 203.33 389.824 203.417 389.459 203.426Z" fill="url(#paint10_linear_217_3849)"/>
<path d="M387.585 198.291C379.29 193.182 364.54 183.317 351.671 170.652C337.61 156.814 329.473 143.536 327.561 131.249L327.125 56.5655C327.138 51.4122 331.875 46.6849 341.169 42.5702C352.996 37.3332 369.941 34.5737 387.585 34.9695C405.059 35.3619 421.529 38.8133 432.848 44.4134C441.643 48.7646 446.092 53.511 446.104 58.5373L445.696 130.789C443.901 142.71 436.226 155.748 422.805 169.613C410.344 182.485 395.842 192.836 387.585 198.291Z" fill="#268BBF"/>
<path d="M417.264 100.51L361.408 101.007C357.114 101.045 353.615 104.392 353.615 108.481V144.27C353.615 148.334 357.101 151.485 361.379 151.31L417.039 149.031C420.998 148.868 424.208 145.591 424.229 141.707L424.406 107.519C424.426 103.614 421.237 100.475 417.264 100.51Z" fill="url(#paint11_linear_217_3849)"/>
<path d="M396.979 121.033C396.991 117.08 393.599 113.956 389.457 114.217C385.789 114.449 382.747 117.411 382.541 120.965C382.381 123.722 383.872 126.111 386.142 127.323C387.107 127.839 387.585 128.919 387.394 129.986L385.78 139.026C385.574 140.177 386.487 141.189 387.689 141.147L391.776 141.004C392.97 140.962 393.879 139.891 393.682 138.76L392.12 129.805C391.933 128.736 392.484 127.676 393.453 127.094C395.558 125.827 396.971 123.573 396.979 121.033Z" fill="url(#paint12_linear_217_3849)"/>
<path d="M416.48 96.9606C414.803 96.9715 413.446 95.6387 413.453 93.9834L413.487 86.1876C413.521 78.3578 407.049 71.9166 398.981 71.8364L380.749 71.6555C372.4 71.5725 365.535 78.0829 365.528 86.1606L365.521 94.2026C365.52 95.9102 364.066 97.3038 362.27 97.3156C360.47 97.3272 359.009 95.9471 359.01 94.2323L359.013 86.1567C359.017 74.6124 368.849 65.3425 380.761 65.508L399.001 65.7617C410.46 65.9209 419.613 75.092 419.559 86.191L419.522 93.9558C419.514 95.6045 418.154 96.9494 416.48 96.9606Z" fill="url(#paint13_linear_217_3849)"/>
<path d="M130.127 363.137C130.127 363.137 118.533 369.902 121.992 377.868C124.072 382.659 129.147 384.339 132.862 384.917C135.198 385.28 137.353 383.59 137.592 381.238L138.262 374.65L130.127 363.137Z" fill="url(#paint14_linear_217_3849)"/>
<path d="M269.321 296.352C268.621 302.848 273.333 321.564 279.828 322.263L333.339 315.144L335.872 291.622L282.348 285.858C275.853 285.158 270.02 289.857 269.321 296.352Z" fill="#7EACCE"/>
<path d="M372.456 251.588C367.378 247.477 359.93 248.26 355.819 253.338L321.943 295.177L340.33 310.064L374.206 268.225C378.316 263.147 377.533 255.699 372.456 251.588Z" fill="#7EACCE"/>
<path d="M330.488 320.118C339.968 320.118 347.652 312.434 347.652 302.954C347.652 293.475 339.968 285.79 330.488 285.79C321.009 285.79 313.324 293.475 313.324 302.954C313.324 312.434 321.009 320.118 330.488 320.118Z" fill="url(#paint15_linear_217_3849)"/>
<path d="M306.36 247.047C321.012 247.047 332.891 230.354 332.891 209.763C332.891 189.171 321.012 172.478 306.36 172.478C291.707 172.478 279.828 189.171 279.828 209.763C279.828 230.354 291.707 247.047 306.36 247.047Z" fill="#00A8FE"/>
<path d="M225.27 119.416H175.335C124.133 119.416 82.625 160.924 82.625 212.126V212.126C82.625 239.448 104.774 261.597 132.096 261.597H268.509C295.831 261.597 317.98 239.448 317.98 212.126C317.98 160.924 276.473 119.416 225.27 119.416Z" fill="#268BBF"/>
<path d="M221.599 391.111H180.21C137.771 391.111 103.367 356.708 103.367 314.269V314.269C103.367 291.623 121.725 273.265 144.371 273.265H257.438C280.083 273.265 298.442 291.623 298.442 314.269C298.442 356.708 264.038 391.111 221.599 391.111Z" fill="#268BBF"/>
<path d="M270.597 241.6H175.677C162.813 241.6 152.26 231.74 152.26 219.577V200.926C152.26 188.763 162.813 179.24 175.677 179.65L270.597 182.678C282.086 183.045 291.294 192.501 291.294 203.803V221.135C291.295 232.438 282.086 241.6 270.597 241.6Z" fill="url(#paint16_linear_217_3849)"/>
<path d="M206.092 209.262C206.092 217.384 199.177 223.882 190.578 223.773C181.902 223.664 174.811 216.882 174.811 208.626C174.811 200.37 181.902 193.876 190.578 194.119C199.177 194.361 206.092 201.139 206.092 209.262Z" fill="white"/>
<path d="M270.238 210.566C270.238 218.416 263.78 224.698 255.752 224.596C247.654 224.494 241.037 217.946 241.037 209.972C241.037 201.998 247.654 195.719 255.752 195.946C263.78 196.171 270.238 202.715 270.238 210.566Z" fill="white"/>
<path opacity="0.3" d="M234.749 248.593C220.632 232.006 226.905 218.741 208.449 196.264C183.055 165.336 153.431 168.836 146.646 147.859C144.766 142.047 144.55 134.069 149.593 123.041C110.915 134.197 82.625 169.856 82.625 212.126V212.127C82.625 239.448 104.774 261.597 132.095 261.597H250.978C243.857 257.715 238.653 253.181 234.749 248.593Z" fill="#62CAFF"/>
<path d="M95.9669 246.787C110.62 246.787 122.498 230.094 122.498 209.503C122.498 188.911 110.62 172.218 95.9669 172.218C81.3141 172.218 69.4355 188.911 69.4355 209.503C69.4355 230.094 81.3141 246.787 95.9669 246.787Z" fill="#0C9BE5"/>
<path d="M74.9788 225.807C81.3863 225.807 86.5806 218.508 86.5806 209.503C86.5806 200.499 81.3863 193.199 74.9788 193.199C68.5713 193.199 63.377 200.499 63.377 209.503C63.377 218.508 68.5713 225.807 74.9788 225.807Z" fill="#268BBF"/>
<path opacity="0.4" d="M231.792 348.808C226.114 322.14 163.303 322.784 161.595 305.353C160.278 291.915 196.34 278.611 200.872 276.94C204.747 275.51 208.594 274.3 212.403 273.265H144.371C121.725 273.265 103.367 291.623 103.367 314.269V314.269C103.367 356.708 137.771 391.111 180.209 391.111H221.599C225.576 391.111 229.482 390.809 233.296 390.227C229.694 385.762 227.345 380.879 226.778 375.55C225.518 363.736 233.992 359.142 231.792 348.808Z" fill="#268BBF"/>
<path d="M201.924 283.462C238.025 283.462 267.291 279.919 267.291 275.548C267.291 271.177 238.025 267.633 201.924 267.633C165.823 267.633 136.557 271.177 136.557 275.548C136.557 279.919 165.823 283.462 201.924 283.462Z" fill="#7EACCE"/>
<path d="M71.3301 316.294L111.806 291.628C117.505 288.155 124.915 289.637 128.841 295.034C133.309 301.177 131.484 309.836 124.917 313.654L83.8581 337.522L71.3301 316.294Z" fill="#7EACCE"/>
<path d="M151.246 348.107L152.969 358.326C153.493 361.432 150.94 364.168 147.8 363.911C141.15 363.367 131.076 364.086 127.123 372.47C126.084 374.675 125.871 377.183 126.454 379.55L127.402 383.402C127.402 383.402 108.846 377.288 117.616 356.268C124.503 339.762 141.014 342.385 147.788 344.273C149.588 344.775 150.935 346.265 151.246 348.107Z" fill="url(#paint17_linear_217_3849)"/>
<path d="M79.625 322.446L119.978 347.312C125.66 350.813 127.704 358.088 124.678 364.036C121.233 370.806 112.689 373.112 106.306 368.994L66.3984 343.246L79.625 322.446Z" fill="#7EACCE"/>
<path d="M75.3946 347.967C84.8741 347.967 92.5587 340.282 92.5587 330.803C92.5587 321.323 84.8741 313.639 75.3946 313.639C65.9151 313.639 58.2305 321.323 58.2305 330.803C58.2305 340.282 65.9151 347.967 75.3946 347.967Z" fill="url(#paint18_linear_217_3849)"/>
<path d="M368.5 231.684L356.917 223.347C356.917 223.347 353.001 235.323 354.298 238.566C355.595 241.808 367.916 252.831 367.916 252.831C367.916 252.831 366.9 243.523 369.813 236.287C370.481 234.627 369.952 232.729 368.5 231.684Z" fill="url(#paint19_linear_217_3849)"/>
<path d="M356.918 223.347C357.983 223.347 358.743 224.383 358.412 225.396C356.672 230.732 353.492 244.86 367.267 247.968C380.108 250.865 385.5 243.74 389.985 232.738C390.637 231.138 392.506 230.419 394.065 231.162L404.074 235.926C405.745 236.721 406.319 238.824 405.268 240.347C400.576 247.145 387.407 262.727 368.888 256.398C346.273 248.668 353.484 228.821 355.482 224.282C355.732 223.712 356.295 223.347 356.918 223.347Z" fill="url(#paint20_linear_217_3849)"/>
<defs>
<linearGradient id="paint0_linear_217_3849" x1="192.64" y1="186.577" x2="-47.4981" y2="481.086" gradientUnits="userSpaceOnUse">
<stop stop-color="#AA80F9"/>
<stop offset="0.1989" stop-color="#9B7BF2"/>
<stop offset="0.9964" stop-color="#6165D7"/>
</linearGradient>
<linearGradient id="paint1_linear_217_3849" x1="26.9715" y1="205.608" x2="207.597" y2="502.964" gradientUnits="userSpaceOnUse">
<stop offset="0.0036" stop-color="#E38DDD"/>
<stop offset="1" stop-color="#9571F6"/>
</linearGradient>
<linearGradient id="paint2_linear_217_3849" x1="213.843" y1="447.836" x2="183.944" y2="460.394" gradientUnits="userSpaceOnUse">
<stop stop-color="#40447E"/>
<stop offset="0.9964" stop-color="#3C3B6B"/>
</linearGradient>
<linearGradient id="paint3_linear_217_3849" x1="165.197" y1="314.919" x2="134.197" y2="327.939" gradientUnits="userSpaceOnUse">
<stop stop-color="#40447E"/>
<stop offset="0.9964" stop-color="#3C3B6B"/>
</linearGradient>
<linearGradient id="paint4_linear_217_3849" x1="34.0899" y1="322.424" x2="316.594" y2="322.424" gradientUnits="userSpaceOnUse">
<stop stop-color="#40447E"/>
<stop offset="0.9964" stop-color="#3C3B6B"/>
</linearGradient>
<linearGradient id="paint5_linear_217_3849" x1="34.0879" y1="434.636" x2="459.669" y2="434.636" gradientUnits="userSpaceOnUse">
<stop stop-color="#40447E"/>
<stop offset="0.9964" stop-color="#3C3B6B"/>
</linearGradient>
<linearGradient id="paint6_linear_217_3849" x1="75.8223" y1="431.117" x2="387.643" y2="431.117" gradientUnits="userSpaceOnUse">
<stop stop-color="#40447E"/>
<stop offset="0.9964" stop-color="#3C3B6B"/>
</linearGradient>
<linearGradient id="paint7_linear_217_3849" x1="480.432" y1="5.41285" x2="432.158" y2="51.8122" gradientUnits="userSpaceOnUse">
<stop stop-color="#311944"/>
<stop offset="1" stop-color="#A03976"/>
</linearGradient>
<linearGradient id="paint8_linear_217_3849" x1="348.777" y1="158.143" x2="266.303" y2="295.6" gradientUnits="userSpaceOnUse">
<stop stop-color="#FF9085"/>
<stop offset="1" stop-color="#FB6FBB"/>
</linearGradient>
<linearGradient id="paint9_linear_217_3849" x1="423.967" y1="168.795" x2="290.697" y2="-99.1816" gradientUnits="userSpaceOnUse">
<stop stop-color="#FF9085"/>
<stop offset="1" stop-color="#FB6FBB"/>
</linearGradient>
<linearGradient id="paint10_linear_217_3849" x1="323.984" y1="116.808" x2="452.663" y2="116.808" gradientUnits="userSpaceOnUse">
<stop stop-color="#311944"/>
<stop offset="1" stop-color="#893976"/>
</linearGradient>
<linearGradient id="paint11_linear_217_3849" x1="359.35" y1="194.076" x2="394.09" y2="113.015" gradientUnits="userSpaceOnUse">
<stop stop-color="#311944"/>
<stop offset="1" stop-color="#893976"/>
</linearGradient>
<linearGradient id="paint12_linear_217_3849" x1="439.993" y1="48.6571" x2="345.615" y2="195.725" gradientUnits="userSpaceOnUse">
<stop stop-color="#FCB148"/>
<stop offset="0.0521" stop-color="#FDBA46"/>
<stop offset="0.1424" stop-color="#FFC244"/>
<stop offset="0.3183" stop-color="#FFC444"/>
<stop offset="0.4849" stop-color="#FDB946"/>
<stop offset="0.7754" stop-color="#F99C4D"/>
<stop offset="0.8658" stop-color="#F8924F"/>
<stop offset="1" stop-color="#F8924F"/>
</linearGradient>
<linearGradient id="paint13_linear_217_3849" x1="346.328" y1="188.495" x2="381.069" y2="107.435" gradientUnits="userSpaceOnUse">
<stop stop-color="#311944"/>
<stop offset="1" stop-color="#893976"/>
</linearGradient>
<linearGradient id="paint14_linear_217_3849" x1="121.348" y1="374.052" x2="138.262" y2="374.052" gradientUnits="userSpaceOnUse">
<stop stop-color="#444B8C"/>
<stop offset="0.9964" stop-color="#26264F"/>
</linearGradient>
<linearGradient id="paint15_linear_217_3849" x1="328.066" y1="280.463" x2="334.679" y2="341.868" gradientUnits="userSpaceOnUse">
<stop stop-color="#444B8C"/>
<stop offset="0.9964" stop-color="#26264F"/>
</linearGradient>
<linearGradient id="paint16_linear_217_3849" x1="152.26" y1="210.619" x2="291.295" y2="210.619" gradientUnits="userSpaceOnUse">
<stop stop-color="#444B8C"/>
<stop offset="0.9964" stop-color="#26264F"/>
</linearGradient>
<linearGradient id="paint17_linear_217_3849" x1="122.03" y1="349.219" x2="143.59" y2="370.615" gradientUnits="userSpaceOnUse">
<stop stop-color="#444B8C"/>
<stop offset="0.9964" stop-color="#26264F"/>
</linearGradient>
<linearGradient id="paint18_linear_217_3849" x1="72.9725" y1="308.311" x2="79.5851" y2="369.717" gradientUnits="userSpaceOnUse">
<stop stop-color="#444B8C"/>
<stop offset="0.9964" stop-color="#26264F"/>
</linearGradient>
<linearGradient id="paint19_linear_217_3849" x1="378.647" y1="228.639" x2="354.532" y2="242.68" gradientUnits="userSpaceOnUse">
<stop stop-color="#444B8C"/>
<stop offset="0.9964" stop-color="#26264F"/>
</linearGradient>
<linearGradient id="paint20_linear_217_3849" x1="352.799" y1="240.613" x2="405.797" y2="240.613" gradientUnits="userSpaceOnUse">
<stop stop-color="#444B8C"/>
<stop offset="0.9964" stop-color="#26264F"/>
</linearGradient>
</defs>
</svg>
