<svg width="473" height="482" viewBox="0 0 473 482" fill="none" xmlns="http://www.w3.org/2000/svg">
<path d="M438.788 13.0565C439.483 13.457 439.865 14.2203 439.824 15.0212C439.813 15.2385 439.808 15.4569 439.808 15.6765C439.808 15.8983 439.814 16.1179 439.824 16.3363C439.865 17.1349 439.484 17.8948 438.791 18.2941L436.424 19.6592L440.872 27.3688L443.238 26.0048C443.932 25.6044 444.786 25.6442 445.458 26.0822C445.826 26.3234 446.21 26.5452 446.605 26.7466C447.316 27.1095 447.774 27.8284 447.774 28.627V31.3528H456.678V28.627C456.678 27.8284 457.135 27.1095 457.846 26.7466C458.241 26.5452 458.624 26.3234 458.994 26.0822C459.665 25.6431 460.518 25.6044 461.212 26.0048L463.579 27.3688L468.027 19.6592L465.65 18.2861C464.96 17.8868 464.58 17.1281 464.621 16.3306C464.632 16.1133 464.638 15.8949 464.638 15.6753C464.638 15.4558 464.632 15.2373 464.621 15.0201C464.58 14.2192 464.962 13.457 465.657 13.0565L468.027 11.6925L463.579 3.98295L461.219 5.3458C460.525 5.74738 459.672 5.70757 459.001 5.27072C458.63 5.02841 458.245 4.80657 457.848 4.60408C457.136 4.24232 456.678 3.52221 456.678 2.72361V-0.000976562H447.774V2.72361C447.774 3.52221 447.315 4.24232 446.603 4.60408C446.206 4.80544 445.822 5.02841 445.451 5.27072C444.78 5.7087 443.926 5.74738 443.232 5.3458L440.873 3.98295L436.425 11.6925L438.788 13.0565ZM452.223 8.38095C456.249 8.38095 459.517 11.6493 459.517 15.6753C459.517 19.7013 456.249 22.9629 452.223 22.9629C448.197 22.9629 444.935 19.7013 444.935 15.6753C444.935 11.6493 448.196 8.38095 452.223 8.38095Z" fill="#EBEBEB"/>
<path d="M127.562 361.24C127.562 380.381 143.086 395.905 162.227 395.905C181.375 395.905 196.891 380.381 196.891 361.24C196.891 342.092 181.375 326.576 162.227 326.576C143.086 326.575 127.562 342.091 127.562 361.24ZM146.035 361.24C146.035 352.298 153.285 345.048 162.228 345.048C171.171 345.048 178.421 352.298 178.421 361.24C178.421 370.183 171.171 377.425 162.228 377.425C153.285 377.424 146.035 370.183 146.035 361.24Z" fill="#EBEBEB"/>
<path d="M155.564 328.013H168.895L168.158 318.576H156.302L155.564 328.013Z" fill="#EBEBEB"/>
<path d="M180.936 332.504L190.361 341.93L196.513 334.736L188.129 326.353L180.936 332.504Z" fill="#EBEBEB"/>
<path d="M195.703 353.621V366.951L205.14 366.215V354.358L195.703 353.621Z" fill="#EBEBEB"/>
<path d="M191.211 378.994L181.785 388.42L188.978 394.571L197.362 386.187L191.211 378.994Z" fill="#EBEBEB"/>
<path d="M170.092 393.759H156.762L157.499 403.195H169.355L170.092 393.759Z" fill="#EBEBEB"/>
<path d="M144.718 389.268L135.293 379.841L129.141 387.036L137.525 395.42L144.718 389.268Z" fill="#EBEBEB"/>
<path d="M129.954 368.151V354.82L120.518 355.556V367.414L129.954 368.151Z" fill="#EBEBEB"/>
<path d="M134.446 342.778L143.872 333.351L136.679 327.2L128.295 335.584L134.446 342.778Z" fill="#EBEBEB"/>
<path d="M46.2516 113.349C43.6283 113.941 41.5977 112.334 41.5977 109.879C41.5977 107.847 42.9514 106.747 43.9673 106.409C52.1763 103.871 53.3617 101.246 53.3617 95.4912C53.3617 93.7985 53.1911 91.0056 53.1911 89.2275C53.1911 82.626 56.3229 79.4941 61.9939 77.6341C56.4071 75.8561 53.1911 72.64 53.1911 66.0385C53.1911 64.2604 53.3617 61.4687 53.3617 59.7748C53.3617 54.0196 52.1752 51.3951 43.9673 48.8571C42.9514 48.5192 41.5977 47.4192 41.5977 45.3874C41.5977 42.9335 43.6294 41.325 46.2516 41.9177C59.3694 44.7958 62.8392 50.0425 62.8392 58.2526C62.8392 59.5222 62.6696 62.9066 62.6696 64.3457C62.6696 70.6094 64.8698 73.318 70.625 73.5717C73.3336 73.7412 74.9411 75.3475 74.9411 77.6341C74.9411 79.9196 73.3336 81.5271 70.625 81.6954C64.8698 81.8649 62.6696 84.6578 62.6696 90.8361C62.6696 92.2741 62.8392 95.6596 62.8392 96.9292C62.8392 105.225 59.3694 110.471 46.2516 113.349Z" fill="#EBEBEB"/>
<path d="M28.6945 41.9186C31.3178 41.3259 33.3485 42.9345 33.3485 45.3884C33.3485 47.4201 31.9947 48.5202 30.8946 48.8581C22.7687 51.3961 21.5844 54.0206 21.5844 59.7757C21.5844 61.4696 21.7539 64.2613 21.7539 66.0394C21.7539 72.641 18.6232 75.7729 12.9522 77.6351C18.5379 79.4121 21.7539 82.6281 21.7539 89.2285C21.7539 91.0066 21.5844 93.7983 21.5844 95.4922C21.5844 101.247 22.7687 103.872 30.8946 106.41C31.9947 106.748 33.3485 107.848 33.3485 109.88C33.3485 112.335 31.3167 113.942 28.6945 113.35C15.5767 110.472 12.107 105.225 12.107 96.9302C12.107 95.6606 12.2765 92.2762 12.2765 90.8371C12.2765 84.6587 9.991 81.8648 4.23582 81.6964C1.61249 81.5269 0.00390625 79.9206 0.00390625 77.6351C0.00390625 75.3485 1.61249 73.7411 4.23582 73.5727C9.99214 73.319 12.2765 70.6104 12.2765 64.3467C12.2765 62.9087 12.107 59.5232 12.107 58.2536C12.107 50.0423 15.5767 44.7957 28.6945 41.9186Z" fill="#EBEBEB"/>
<path d="M352.243 319.72C353.78 321.313 353.78 323.7 352.243 325.235C351.448 325.968 350.534 326.336 349.552 326.336C348.51 326.336 347.527 325.968 346.733 325.235L329.518 307.772C329.329 307.713 329.27 307.589 329.21 307.405C329.15 307.34 329.022 307.281 329.022 307.281C328.903 307.098 328.903 306.974 328.843 306.791C328.715 306.73 328.655 306.606 328.655 306.546C328.595 306.423 328.594 306.24 328.535 306.179C328.535 305.997 328.407 305.935 328.407 305.873C328.407 305.688 328.407 305.564 328.407 305.445C328.407 305.321 328.348 305.262 328.348 305.078C328.348 305.014 328.407 304.829 328.407 304.771C328.407 304.646 328.407 304.463 328.407 304.345C328.407 304.22 328.535 304.162 328.535 304.097C328.594 303.912 328.595 303.792 328.655 303.604C328.655 303.545 328.715 303.545 328.715 303.485C328.843 303.3 328.903 303.054 329.022 302.934C329.022 302.934 329.022 302.811 329.15 302.811C329.21 302.686 329.329 302.503 329.518 302.384L346.733 284.922C348.262 283.449 350.773 283.449 352.243 284.922C353.78 286.451 353.78 288.903 352.243 290.436L337.727 305.08L352.243 319.72Z" fill="#EBEBEB"/>
<path d="M367.851 321.68L382.862 285.956C383.595 284.244 385.552 283.446 387.329 284.184C388.985 284.854 389.782 286.879 389.047 288.532L374.037 324.314C373.481 325.6 372.2 326.335 370.91 326.335C370.541 326.335 370.056 326.276 369.688 326.093C367.912 325.417 367.116 323.396 367.851 321.68Z" fill="#EBEBEB"/>
<path d="M418.691 307.28C418.691 307.28 418.691 307.34 418.631 307.34C418.503 307.464 418.383 307.647 418.195 307.771L400.981 325.234C400.247 325.967 399.204 326.335 398.221 326.335C397.179 326.335 396.265 325.967 395.47 325.234C393.932 323.699 393.932 321.312 395.47 319.718L409.984 305.076L395.47 290.433C393.932 288.899 393.932 286.448 395.47 284.919C396.939 283.446 399.45 283.446 400.979 284.919L418.194 302.38C418.381 302.5 418.502 302.684 418.629 302.808C418.69 302.808 418.69 302.931 418.69 302.931C418.808 303.174 418.929 303.297 418.997 303.481C418.997 303.542 419.056 303.542 419.056 303.601C419.116 303.788 419.116 303.909 419.237 304.157C419.237 304.216 419.296 304.216 419.296 304.34C419.296 304.459 419.296 304.642 419.296 304.767C419.296 304.826 419.364 305.01 419.364 305.074C419.364 305.133 419.296 305.316 419.296 305.378C419.296 305.56 419.296 305.685 419.296 305.869C419.296 305.933 419.237 305.933 419.237 305.993C419.117 306.237 419.118 306.421 419.056 306.543C419.056 306.603 418.997 306.603 418.997 306.727C418.93 306.853 418.809 307.036 418.691 307.28Z" fill="#EBEBEB"/>
<path d="M331.079 0.984375H54.9043V209.343H331.079V0.984375Z" stroke="#EBEBEB" stroke-width="1.13761" stroke-miterlimit="10"/>
<path d="M64.6965 6.27746C64.6965 7.72792 63.5214 8.90307 62.0709 8.90307C60.6216 8.90307 59.4453 7.72792 59.4453 6.27746C59.4453 4.82701 60.6205 3.65186 62.0709 3.65186C63.5214 3.65186 64.6965 4.82815 64.6965 6.27746Z" fill="#A6A6A6"/>
<path d="M75.4172 6.27746C75.4172 7.72792 74.2421 8.90307 72.7916 8.90307C71.3412 8.90307 70.166 7.72792 70.166 6.27746C70.166 4.82701 71.3412 3.65186 72.7916 3.65186C74.2421 3.65186 75.4172 4.82815 75.4172 6.27746Z" fill="#EBEBEB"/>
<path d="M86.1379 6.27746C86.1379 7.72792 84.9628 8.90307 83.5123 8.90307C82.0619 8.90307 80.8867 7.72792 80.8867 6.27746C80.8867 4.82701 82.0619 3.65186 83.5123 3.65186C84.9628 3.65186 86.1379 4.82815 86.1379 6.27746Z" fill="#268BBF"/>
<path d="M54.9043 11.4209H331.079" stroke="#EBEBEB" stroke-width="1.13761" stroke-miterlimit="10"/>
<path d="M227.47 440.623H467.998L473.001 341.929H222.467L227.47 440.623Z" fill="#EBEBEB"/>
<path d="M456.597 387.108H356.039L354.154 352.844H458.798L456.597 387.108ZM357.189 385.893H455.459L457.503 354.058H355.438L357.189 385.893Z" fill="#DBDBDB"/>
<path d="M454.742 426.525H359.979L358.439 395.597H456.675L454.742 426.525ZM361.132 425.312H453.601L455.381 396.812H359.714L361.132 425.312Z" fill="#DBDBDB"/>
<path d="M416 373.691H399.103L398.037 365.429H417.066L416 373.691ZM400.17 372.476H414.933L415.686 366.641H399.417L400.17 372.476Z" fill="#DBDBDB"/>
<path d="M416 415.192H399.103L398.037 406.929H417.066L416 415.192ZM400.17 413.978H414.933L415.686 408.143H399.417L400.17 413.978Z" fill="#DBDBDB"/>
<path d="M338.315 387.108H237.757L235.871 352.844H340.516L338.315 387.108ZM238.907 385.893H337.177L339.221 354.058H237.153L238.907 385.893Z" fill="#DBDBDB"/>
<path d="M336.459 426.525H241.695L240.156 395.597H338.391L336.459 426.525ZM242.85 425.311H335.318L337.098 396.812H241.432L242.85 425.311Z" fill="#DBDBDB"/>
<path d="M297.719 373.691H280.822L279.756 365.429H298.785L297.719 373.691ZM281.889 372.476H296.652L297.405 366.641H281.136L281.889 372.476Z" fill="#DBDBDB"/>
<path d="M297.719 415.192H280.822L279.756 406.929H298.785L297.719 415.192ZM281.889 413.978H296.652L297.405 408.143H281.136L281.889 413.978Z" fill="#DBDBDB"/>
<path d="M249.04 440.623L247.531 451.375L244.492 472.978H238.553V440.623H249.04Z" fill="#EBEBEB"/>
<path d="M249.04 440.623L247.531 451.375H238.553V440.623H249.04Z" fill="#DBDBDB"/>
<path d="M446.426 440.624L447.935 451.375L450.974 472.978H456.913V440.624H446.426Z" fill="#EBEBEB"/>
<path d="M446.426 440.624L447.935 451.375H456.913V440.624H446.426Z" fill="#DBDBDB"/>
<path d="M455.03 20.6055H93.2637V277.692H455.03V20.6055Z" fill="#263238"/>
<path d="M455.03 20.6055H93.2637V31.3172H455.03V20.6055Z" fill="#455A64"/>
<path d="M104.996 25.9625C104.996 27.43 103.806 28.6188 102.34 28.6188C100.872 28.6188 99.6836 27.4289 99.6836 25.9625C99.6836 24.495 100.874 23.3062 102.34 23.3062C103.807 23.3062 104.996 24.495 104.996 25.9625Z" fill="#C7C7C7"/>
<path d="M115.844 25.9625C115.844 27.43 114.654 28.6188 113.188 28.6188C111.72 28.6188 110.531 27.4289 110.531 25.9625C110.531 24.495 111.72 23.3062 113.188 23.3062C114.655 23.3062 115.844 24.495 115.844 25.9625Z" fill="white"/>
<path d="M126.694 25.9625C126.694 27.43 125.505 28.6188 124.037 28.6188C122.571 28.6188 121.381 27.4289 121.381 25.9625C121.381 24.495 122.571 23.3062 124.037 23.3062C125.505 23.3062 126.694 24.495 126.694 25.9625Z" fill="#268BBF"/>
<path d="M429.457 113.42V116.264H426.613" stroke="#268BBF" stroke-width="1.13761" stroke-miterlimit="10"/>
<path d="M420.859 116.265H124.557" stroke="#268BBF" stroke-width="1.13761" stroke-miterlimit="10" stroke-dasharray="5.75 5.75"/>
<path d="M121.68 116.264H118.836V113.42" stroke="#268BBF" stroke-width="1.13761" stroke-miterlimit="10"/>
<path d="M118.836 107.728V53.6538" stroke="#268BBF" stroke-width="1.13761" stroke-miterlimit="10" stroke-dasharray="5.69 5.69"/>
<path d="M118.836 50.8074V47.9634H121.68" stroke="#268BBF" stroke-width="1.13761" stroke-miterlimit="10"/>
<path d="M127.436 47.9634H423.738" stroke="#268BBF" stroke-width="1.13761" stroke-miterlimit="10" stroke-dasharray="5.75 5.75"/>
<path d="M426.613 47.9634H429.457V50.8074" stroke="#268BBF" stroke-width="1.13761" stroke-miterlimit="10"/>
<path d="M429.457 56.5V110.574" stroke="#268BBF" stroke-width="1.13761" stroke-miterlimit="10" stroke-dasharray="5.69 5.69"/>
<path d="M429.457 253.852V256.696H426.613" stroke="#268BBF" stroke-width="1.13761" stroke-miterlimit="10"/>
<path d="M420.859 256.696H124.557" stroke="#268BBF" stroke-width="1.13761" stroke-miterlimit="10" stroke-dasharray="5.75 5.75"/>
<path d="M121.68 256.696H118.836V253.852" stroke="#268BBF" stroke-width="1.13761" stroke-miterlimit="10"/>
<path d="M118.836 248.074V181.631" stroke="#268BBF" stroke-width="1.13761" stroke-miterlimit="10" stroke-dasharray="5.78 5.78"/>
<path d="M118.836 178.742V175.898H121.68" stroke="#268BBF" stroke-width="1.13761" stroke-miterlimit="10"/>
<path d="M127.436 175.898H423.738" stroke="#268BBF" stroke-width="1.13761" stroke-miterlimit="10" stroke-dasharray="5.75 5.75"/>
<path d="M426.613 175.898H429.457V178.742" stroke="#268BBF" stroke-width="1.13761" stroke-miterlimit="10"/>
<path d="M429.457 184.521V250.964" stroke="#268BBF" stroke-width="1.13761" stroke-miterlimit="10" stroke-dasharray="5.78 5.78"/>
<path d="M144.166 80.9629H133.941V82.8047H144.166V80.9629Z" fill="#EBEBEB"/>
<path d="M300.27 80.9629H156.23V82.8047H300.27V80.9629Z" fill="#EBEBEB"/>
<path d="M325.977 80.9629H306.555V82.8047H325.977V80.9629Z" fill="#268BBF"/>
<path d="M406.367 80.9629H330.197V82.8047H406.367V80.9629Z" fill="#A6A6A6"/>
<path d="M144.166 89.668H133.941V91.5109H144.166V89.668Z" fill="#EBEBEB"/>
<path d="M243.174 89.668H166.201V91.5109H243.174V89.668Z" fill="#A6A6A6"/>
<path d="M217.778 98.3745H166.201V100.217H217.778V98.3745Z" fill="#268BBF"/>
<path d="M397.186 107.079H319.541V108.921H397.186V107.079Z" fill="#A6A6A6"/>
<path d="M332.614 98.3745H223.5V100.217H332.614V98.3745Z" fill="#A6A6A6"/>
<path d="M323.809 89.668H248.004V91.5109H323.809V89.668Z" fill="#EBEBEB"/>
<path d="M373.971 98.3745H340.807V100.217H373.971V98.3745Z" fill="#EBEBEB"/>
<path d="M144.166 98.3745H133.941V100.217H144.166V98.3745Z" fill="#EBEBEB"/>
<path d="M144.166 107.079H133.941V108.921H144.166V107.079Z" fill="#A6A6A6"/>
<path d="M216.66 107.079H156.23V108.921H216.66V107.079Z" fill="#EBEBEB"/>
<path d="M314.789 107.079H222.805V108.921H314.789V107.079Z" fill="#268BBF"/>
<path d="M229.751 184.63H156.23V186.472H229.751V184.63Z" fill="#A6A6A6"/>
<path d="M294.465 202.042H260.711V203.884H294.465V202.042Z" fill="#268BBF"/>
<path d="M217.778 219.454H166.201V221.295H217.778V219.454Z" fill="#268BBF"/>
<path d="M297.25 193.336H156.23V195.178H297.25V193.336Z" fill="#268BBF"/>
<path d="M325.978 184.63H233.914V186.472H325.978V184.63Z" fill="#EBEBEB"/>
<path d="M144.166 184.63H133.941V186.472H144.166V184.63Z" fill="#EBEBEB"/>
<path d="M144.166 202.042H133.941V203.884H144.166V202.042Z" fill="#EBEBEB"/>
<path d="M252.52 202.042H156.23V203.884H252.52V202.042Z" fill="#EBEBEB"/>
<path d="M258.608 245.571H224.854V247.414H258.608V245.571Z" fill="#268BBF"/>
<path d="M216.66 245.571H156.23V247.414H216.66V245.571Z" fill="#EBEBEB"/>
<path d="M144.166 210.748H133.941V212.589H144.166V210.748Z" fill="#EBEBEB"/>
<path d="M243.174 210.748H166.201V212.589H243.174V210.748Z" fill="#A6A6A6"/>
<path d="M229.751 236.865H156.23V238.708H229.751V236.865Z" fill="#A6A6A6"/>
<path d="M332.614 219.454H223.5V221.295H332.614V219.454Z" fill="#A6A6A6"/>
<path d="M357.358 228.159H324.256V230.002H357.358V228.159Z" fill="#EBEBEB"/>
<path d="M144.166 219.454H133.941V221.295H144.166V219.454Z" fill="#EBEBEB"/>
<path d="M144.166 228.159H133.941V230.002H144.166V228.159Z" fill="#A6A6A6"/>
<path d="M144.166 236.865H133.941V238.708H144.166V236.865Z" fill="#EBEBEB"/>
<path d="M144.166 245.571H133.941V247.414H144.166V245.571Z" fill="#EBEBEB"/>
<path d="M216.66 228.159H156.23V230.002H216.66V228.159Z" fill="#EBEBEB"/>
<path d="M325.978 236.865H233.914V238.708H325.978V236.865Z" fill="#EBEBEB"/>
<path d="M314.789 228.159H222.805V230.002H314.789V228.159Z" fill="#268BBF"/>
<path d="M138.901 62.975C139.177 63.2617 139.177 63.6906 138.901 63.967C138.757 64.099 138.593 64.165 138.416 64.165C138.228 64.165 138.052 64.099 137.909 63.967L134.812 60.8261C134.778 60.8158 134.768 60.7931 134.756 60.7601C134.746 60.7487 134.722 60.7373 134.722 60.7373C134.701 60.7043 134.701 60.6816 134.69 60.6486C134.668 60.6384 134.656 60.6156 134.656 60.6042C134.645 60.5826 134.645 60.5496 134.635 60.5383C134.635 60.5053 134.612 60.495 134.612 60.4836C134.612 60.4507 134.612 60.4279 134.612 60.4063C134.612 60.3835 134.602 60.3733 134.602 60.3403C134.602 60.3289 134.612 60.2959 134.612 60.2846C134.612 60.2618 134.612 60.2288 134.612 60.2072C134.612 60.1845 134.635 60.1742 134.635 60.1628C134.645 60.1299 134.645 60.1082 134.656 60.0741C134.656 60.0639 134.668 60.0639 134.668 60.0525C134.69 60.0195 134.702 59.9751 134.723 59.9535C134.723 59.9535 134.723 59.9308 134.746 59.9308C134.756 59.908 134.778 59.875 134.812 59.8534L137.909 56.7125C138.184 56.4474 138.636 56.4474 138.899 56.7125C139.176 56.9878 139.176 57.4292 138.899 57.7045L136.289 60.338L138.901 62.975Z" fill="#268BBF"/>
<path d="M141.707 63.3277L144.407 56.9025C144.539 56.5942 144.89 56.4508 145.21 56.5839C145.508 56.7045 145.651 57.0686 145.519 57.3666L142.82 63.8032C142.72 64.0341 142.49 64.1661 142.258 64.1661C142.192 64.1661 142.104 64.1559 142.038 64.1229C141.718 64 141.575 63.6371 141.707 63.3277Z" fill="#268BBF"/>
<path d="M150.853 60.7375C150.853 60.7375 150.853 60.7477 150.842 60.7477C150.819 60.7705 150.798 60.8035 150.764 60.8251L147.667 63.9661C147.535 64.098 147.347 64.164 147.171 64.164C146.983 64.164 146.819 64.098 146.676 63.9661C146.4 63.6896 146.4 63.2607 146.676 62.9741L149.287 60.3405L146.676 57.7069C146.4 57.4305 146.4 56.9902 146.676 56.7149C146.94 56.4498 147.392 56.4498 147.667 56.7149L150.764 59.8559C150.798 59.8775 150.819 59.9105 150.842 59.9332C150.853 59.9332 150.853 59.956 150.853 59.956C150.875 59.9992 150.897 60.0219 150.909 60.0549C150.909 60.0663 150.919 60.0663 150.919 60.0765C150.93 60.1107 150.93 60.1323 150.952 60.1767C150.952 60.1869 150.963 60.1869 150.963 60.2097C150.963 60.2313 150.963 60.2643 150.963 60.287C150.963 60.2973 150.975 60.3302 150.975 60.3428C150.975 60.353 150.963 60.386 150.963 60.3974C150.963 60.4304 150.963 60.4531 150.963 60.4861C150.963 60.4975 150.952 60.4975 150.952 60.5088C150.931 60.5521 150.931 60.5851 150.919 60.6078C150.919 60.6192 150.909 60.6192 150.909 60.6408C150.897 60.6613 150.875 60.6943 150.853 60.7375Z" fill="#268BBF"/>
<path d="M473.001 183.022L176.525 189.244C168.75 189.406 162.317 183.237 162.153 175.463L161.092 124.871L471.644 118.354L473.001 183.022Z" fill="#37474F"/>
<path d="M449.599 128.794L384.059 130.17L384.097 132.012L449.638 130.635L449.599 128.794Z" fill="#EBEBEB"/>
<path d="M379.448 130.266L350.338 130.878L350.377 132.719L379.487 132.108L379.448 130.266Z" fill="#A6A6A6"/>
<path d="M347.233 156.267L308.543 157.08L308.582 158.921L347.272 158.108L347.233 156.267Z" fill="#A6A6A6"/>
<path d="M343.681 131.019L202.689 133.98L202.728 135.821L343.72 132.86L343.681 131.019Z" fill="#268BBF"/>
<path d="M273.258 141.205L212.84 142.474L212.879 144.317L273.296 143.048L273.258 141.205Z" fill="#EBEBEB"/>
<path d="M436.773 146.478L352.426 148.25L352.464 150.091L436.812 148.32L436.773 146.478Z" fill="#268BBF"/>
<path d="M347.142 148.362L267.658 150.031L267.697 151.874L347.181 150.204L347.142 148.362Z" fill="#EBEBEB"/>
<path d="M258.436 150.225L213.021 151.179L213.06 153.022L258.475 152.068L258.436 150.225Z" fill="#A6A6A6"/>
<path d="M190.627 134.234L180.404 134.449L180.443 136.29L190.666 136.075L190.627 134.234Z" fill="#EBEBEB"/>
<path d="M190.811 142.936L180.588 143.15L180.627 144.993L190.849 144.778L190.811 142.936Z" fill="#A6A6A6"/>
<path d="M190.992 151.642L180.77 151.857L180.808 153.699L191.031 153.485L190.992 151.642Z" fill="#EBEBEB"/>
<path d="M191.16 159.543L180.938 159.757L180.976 161.599L191.199 161.384L191.16 159.543Z" fill="#EBEBEB"/>
<path d="M299.493 157.268L203.223 159.291L203.261 161.132L299.532 159.11L299.493 157.268Z" fill="#EBEBEB"/>
<path d="M191.342 168.249L181.119 168.464L181.158 170.305L191.381 170.091L191.342 168.249Z" fill="#EBEBEB"/>
<path d="M290.331 166.17L213.373 167.786L213.412 169.629L290.37 168.012L290.331 166.17Z" fill="#A6A6A6"/>
<path d="M265.121 175.407L213.555 176.49L213.593 178.332L265.16 177.249L265.121 175.407Z" fill="#268BBF"/>
<path d="M379.936 172.995L270.844 175.286L270.882 177.128L379.975 174.836L379.936 172.995Z" fill="#A6A6A6"/>
<path d="M370.95 164.475L295.16 166.067L295.199 167.91L370.989 166.318L370.95 164.475Z" fill="#EBEBEB"/>
<path d="M191.527 176.95L181.305 177.165L181.343 179.008L191.566 178.793L191.527 176.95Z" fill="#EBEBEB"/>
<path opacity="0.1" d="M179.697 189.176L177.055 189.232C168.983 189.402 162.309 183.002 162.141 174.93C162.141 174.93 170.286 176.521 178.693 175.02C178.693 175.02 177.614 183.86 179.697 189.176Z" fill="white"/>
<path d="M473 472.979C324.201 473.676 157.282 473.681 8.48438 472.979C157.283 472.277 324.201 472.283 473 472.979Z" fill="#263238"/>
<path d="M419.464 371.474C419.464 371.474 409.074 355.532 385.811 358.629C363.7 361.572 349.955 400.303 371.369 407.122C392.784 413.941 392.408 376.859 400.967 371.384C407.246 367.367 415.562 369.146 419.464 371.474Z" fill="#268BBF"/>
<path d="M366.174 378.631C367.79 377.488 369.45 376.399 371.205 375.481C372.846 374.622 374.615 373.837 376.442 373.459C377.463 372.204 378.556 371.006 379.772 369.923C382.012 367.925 384.507 366.312 387.17 365.096C386.945 365.061 386.722 365.015 386.496 364.987C385.291 364.832 384.09 364.712 382.874 364.68C380.414 364.617 378.013 364.962 375.683 365.763C375.55 365.808 375.475 365.6 375.609 365.557C377.943 364.816 380.382 364.296 382.825 364.107C384.011 364.015 385.226 364.016 386.409 364.139C387.047 364.205 387.683 364.31 388.311 364.432C388.428 364.454 388.551 364.473 388.673 364.495C390.853 363.64 393.132 363.043 395.463 362.704C395.257 362.627 395.055 362.541 394.845 362.472C393.757 362.111 392.644 361.838 391.524 361.598C389.265 361.112 387.008 360.954 384.702 361.058C384.561 361.064 384.543 360.844 384.683 360.84C386.981 360.775 389.315 360.909 391.594 361.215C393.462 361.465 395.432 361.864 397.25 362.499C398.637 362.381 400.037 362.345 401.447 362.418C409.416 362.834 417.788 366.623 422.056 373.608C426.338 380.617 426.456 389.403 426.573 397.364C426.736 408.445 426.233 419.616 424.308 430.536C424.195 431.182 423.292 430.977 423.331 430.356C423.919 420.973 424.477 411.584 424.464 402.175C424.459 397.82 424.41 393.442 424.097 389.096C423.829 385.382 423.302 381.649 421.967 378.152C420.576 374.505 418.232 371.452 415.068 369.164C411.947 366.909 408.274 365.476 404.501 364.784C401.075 364.158 397.588 364.189 394.198 364.773C394.281 365.442 394.186 366.124 394.065 366.793C393.914 367.632 393.665 368.45 393.33 369.234C393.014 369.974 392.616 370.682 392.169 371.352C391.673 372.094 391.076 372.74 390.536 373.445C390.451 373.557 390.272 373.404 390.37 373.303C391.469 372.162 392.134 370.484 392.56 368.982C392.774 368.23 392.939 367.461 393.052 366.688C393.138 366.104 393.143 365.508 393.225 364.927C389.533 365.688 385.981 367.144 382.79 369.232C382.194 369.623 381.616 370.041 381.048 370.475C381.766 371.186 382.303 372.206 382.754 373.029C383.421 374.248 383.994 375.508 384.436 376.826C385.311 379.432 385.643 382.209 385.791 384.944C385.799 385.085 385.58 385.103 385.574 384.963C385.458 382.264 384.714 379.705 383.694 377.214C383.202 376.008 382.638 374.82 381.994 373.688C381.662 373.105 381.316 372.525 380.951 371.96C380.755 371.657 380.538 371.347 380.354 371.023C377.442 373.378 374.943 376.269 373.037 379.503C373.051 379.512 373.066 379.513 373.077 379.527C374.102 380.68 374.762 382.213 375.382 383.613C376.062 385.15 376.624 386.754 377.082 388.371C377.965 391.492 378.436 394.708 378.919 397.911C378.939 398.049 378.715 398.07 378.701 397.93C378.376 394.68 377.454 391.543 376.339 388.482C375.795 386.989 375.209 385.518 374.583 384.059C373.995 382.687 373.247 381.313 372.822 379.876C371.006 383.059 369.751 386.555 369.225 390.175C369.205 390.314 368.986 390.274 369.01 390.135C370.001 384.506 372.222 379.019 375.654 374.437C374.206 374.899 372.754 375.338 371.347 375.933C369.554 376.691 367.848 377.63 366.298 378.81C366.187 378.896 366.059 378.713 366.174 378.631Z" fill="#263238"/>
<path d="M382.792 381.055C383.262 383.367 383.915 385.63 384.315 387.96C384.7 390.198 384.899 392.482 384.687 394.748C384.682 394.81 384.583 394.804 384.579 394.742C384.338 390.181 383.784 385.519 382.581 381.101C382.539 380.95 382.76 380.899 382.792 381.055Z" fill="#263238"/>
<path d="M368.899 374.112C369.886 373.343 370.946 372.697 372.117 372.244C373.28 371.793 374.507 371.585 375.724 371.341C375.86 371.313 375.885 371.541 375.744 371.558C374.531 371.71 373.377 372.156 372.255 372.622C371.133 373.087 370.024 373.607 368.981 374.229C368.901 374.276 368.826 374.169 368.899 374.112Z" fill="#263238"/>
<path d="M408.211 352.958C408.211 352.958 406.026 326.208 386.137 317.538C369.53 310.297 360.023 328.958 371.763 340.381C381.261 349.621 396.49 345.451 408.211 352.958Z" fill="#268BBF"/>
<path d="M375.441 322.718C378.452 324.003 381.437 325.277 384.286 326.906C386.672 328.27 388.954 329.812 391.152 331.464C390.822 330.788 390.534 330.08 390.202 329.419C389.682 328.386 389.127 327.374 388.512 326.395C387.248 324.38 385.855 322.495 384.132 320.85C384.031 320.754 384.191 320.599 384.29 320.699C385.933 322.381 387.55 324.138 388.901 326.067C389.582 327.041 390.223 328.05 390.79 329.093C391.309 330.046 391.896 331.101 392.127 332.174C392.199 332.23 392.276 332.278 392.347 332.334C395.836 335.084 398.987 338.232 401.846 341.628C401.79 341.365 401.735 341.102 401.666 340.861C401.294 339.555 400.89 338.261 400.461 336.974C399.558 334.265 398.445 331.561 396.869 329.172C396.792 329.055 396.987 328.945 397.06 329.066C398.565 331.546 400.071 334.003 401.222 336.674C401.773 337.953 402.237 339.283 402.597 340.629C402.81 341.43 403.156 342.398 403.244 343.316C404.111 344.412 404.963 345.52 405.766 346.664C414.303 358.817 418.589 373.519 419.616 388.228C419.924 392.615 419.985 397.01 419.838 401.406C419.691 405.804 419.531 410.304 418.673 414.63C418.619 414.907 418.185 414.824 418.192 414.553C418.292 410.689 418.692 406.84 418.765 402.971C418.841 399.099 418.704 395.218 418.391 391.357C417.769 383.666 416.309 375.974 414.055 368.595C411.75 361.05 408.343 353.784 403.941 347.196C403.104 347.03 402.273 346.803 401.45 346.59C400.457 346.334 399.462 346.08 398.475 345.804C396.576 345.271 394.691 344.67 392.929 343.771C392.805 343.707 392.921 343.514 393.044 343.585C394.78 344.601 396.708 345.135 398.667 345.525C400.223 345.834 401.84 346.038 403.4 346.395C401.958 344.294 400.421 342.26 398.775 340.318C394.997 340.687 391.148 340.352 387.461 339.474C385.497 339.005 383.554 338.396 381.67 337.671C379.677 336.904 377.792 335.918 375.826 335.095C375.68 335.034 375.781 334.817 375.915 334.899C379.288 336.946 383.527 337.997 387.384 338.653C390.943 339.258 394.515 339.477 398.113 339.539C396.7 337.919 395.241 336.339 393.683 334.855C388.459 329.881 382.255 325.309 375.376 322.926C375.244 322.88 375.313 322.664 375.441 322.718Z" fill="#263238"/>
<path d="M391.626 322.8C392.514 323.929 393.347 325.122 394.064 326.366C394.825 327.686 395.379 329.059 395.818 330.514C395.833 330.562 395.76 330.59 395.737 330.546C395.074 329.234 394.513 327.873 393.842 326.567C393.176 325.273 392.395 324.071 391.468 322.951C391.378 322.842 391.539 322.69 391.626 322.8Z" fill="#263238"/>
<path d="M373.133 331.705C374.423 332.453 375.796 332.951 377.21 333.407C378.573 333.848 379.957 334.242 381.363 334.522C381.429 334.535 381.412 334.647 381.344 334.639C379.88 334.466 378.439 334.184 377.045 333.697C375.659 333.214 374.332 332.539 373.018 331.891C372.894 331.831 373.01 331.634 373.133 331.705Z" fill="#263238"/>
<path d="M422.571 349.012C422.697 350.168 425.58 339.3 442.395 329.652C457.667 320.889 475.894 298.1 460.92 283.704C448.834 272.083 416.994 297.416 422.571 349.012Z" fill="#268BBF"/>
<path d="M410.997 411.319C411.247 400.011 412.131 388.716 413.665 377.509C415.075 367.203 417.295 357.061 420.769 347.246C422.021 343.711 423.449 340.231 425 336.805C424.838 335.502 425.009 334.065 425.069 332.804C425.151 331.092 425.306 329.384 425.464 327.677C425.621 325.97 425.795 324.262 425.999 322.56C426.201 320.871 426.563 319.159 426.632 317.46C426.639 317.304 426.884 317.336 426.846 317.494C426.435 319.239 426.381 321.124 426.243 322.908C426.115 324.558 426.02 326.207 425.97 327.861C425.919 329.517 425.928 331.172 425.926 332.827C425.926 333.424 425.958 334.058 425.98 334.695C427.563 331.353 429.258 328.064 431.092 324.859C429.953 317.887 431.432 310.599 432.856 303.783C432.885 303.645 433.094 303.709 433.065 303.846C432.324 307.397 432.038 311.029 431.956 314.651C431.891 317.515 432.026 320.377 432.036 323.239C432.44 322.553 432.841 321.866 433.257 321.188C435.436 317.626 437.766 314.137 440.24 310.752C439.972 309.124 440.165 307.398 440.403 305.787C440.674 303.957 441.089 302.129 441.623 300.356C442.158 298.574 442.776 296.827 443.484 295.106C444.212 293.337 445.182 291.665 445.885 289.891C445.944 289.743 446.164 289.845 446.083 289.98C445.129 291.575 444.545 293.492 443.977 295.255C443.427 296.967 442.956 298.723 442.602 300.486C442.246 302.257 441.956 304.03 441.707 305.819C441.543 307.002 441.438 308.227 441.234 309.424C444.851 304.594 448.766 299.984 453.008 295.722C453.109 295.62 453.25 295.776 453.158 295.88C446.775 303.132 440.998 310.82 436.062 319.136C435.878 319.445 435.704 319.762 435.522 320.072C436.448 319.491 437.511 319.03 438.383 318.546C440.013 317.64 441.646 316.739 443.287 315.854C444.88 314.994 446.468 314.125 448.051 313.246C448.867 312.795 449.67 312.324 450.5 311.898C451.441 311.416 452.503 310.955 453.35 310.319C453.479 310.224 453.615 310.42 453.479 310.495C451.861 311.384 450.43 312.706 448.867 313.704C447.291 314.709 445.697 315.673 444.066 316.583C441.077 318.251 437.83 319.45 434.888 321.175C432.845 324.747 430.967 328.414 429.229 332.148C431.015 331.002 432.839 329.917 434.691 328.878C435.883 328.211 437.077 327.553 438.286 326.917C439.453 326.303 440.665 325.734 441.673 324.871C441.78 324.78 441.924 324.93 441.824 325.029C439.921 326.892 437.648 328.189 435.363 329.523C433.203 330.786 431.02 332.005 428.773 333.106C426.975 337.044 425.347 341.06 423.907 345.139C416.829 365.181 414.228 386.455 412.987 407.584C412.616 413.884 412.425 420.179 412.346 426.489C412.268 432.79 412.6 439.081 412.588 445.378C412.588 445.563 412.281 445.608 412.255 445.414C411.499 439.829 411.367 434.147 411.122 428.521C410.873 422.797 410.869 417.045 410.997 411.319Z" fill="#263238"/>
<path d="M441.549 320.591C444.639 319.322 447.582 317.611 450.485 315.97C453.406 314.317 456.24 312.539 458.969 310.584C459.015 310.553 459.07 310.628 459.027 310.663C456.442 312.733 453.728 314.668 450.88 316.36C447.922 318.116 444.799 319.411 441.655 320.783C441.525 320.838 441.42 320.643 441.549 320.591Z" fill="#263238"/>
<path d="M436.676 297.937C436.925 296.958 437.233 295.998 437.563 295.045C437.527 295.022 437.501 294.986 437.521 294.933C437.733 294.391 437.957 293.854 438.178 293.316C438.204 293.243 438.231 293.173 438.256 293.121C438.298 293.019 438.34 292.915 438.381 292.813C438.395 292.779 438.448 292.793 438.436 292.829C438.375 293.013 438.33 293.202 438.271 293.387C438.241 293.493 438.223 293.589 438.18 293.696C437.034 297.428 436.275 301.255 435.687 305.113C435.669 305.233 435.483 305.238 435.49 305.108C435.638 302.682 436.075 300.29 436.676 297.937Z" fill="#263238"/>
<path d="M419.553 377.984C425.408 359.777 438.657 348.966 455.682 351.469C472.708 353.972 478.487 376.389 467.112 383.879C455.737 391.371 441.148 376.313 434.213 373.781C427.278 371.247 419.553 377.984 419.553 377.984Z" fill="#268BBF"/>
<path d="M417.996 424.449C417.746 422.39 417.532 420.327 417.312 418.266C416.873 414.148 416.427 410.03 415.995 405.91C415.206 398.377 414.962 390.902 417.083 383.551C418.984 376.957 422.723 370.887 428.063 366.533C430.052 364.912 432.234 363.575 434.545 362.568C436.242 360.018 439.192 358.102 441.975 356.991C445.621 355.533 449.533 355.181 453.425 355.064C453.565 355.059 453.591 355.277 453.45 355.281C449.759 355.354 446.071 356.103 442.688 357.605C441.237 358.249 439.841 359.007 438.552 359.933C437.718 360.532 436.974 361.203 436.247 361.901C439.42 360.778 442.796 360.275 446.244 360.573C447.47 360.679 448.68 360.92 449.871 361.223C450.714 360.87 451.688 360.708 452.56 360.603C453.755 360.458 454.974 360.479 456.17 360.603C458.635 360.857 461.019 361.667 463.309 362.58C463.44 362.632 463.353 362.83 463.222 362.78C461 361.94 458.678 361.436 456.311 361.243C455.163 361.15 454.019 361.144 452.87 361.229C452.236 361.276 451.614 361.396 450.993 361.513C455.897 363.026 460.288 366.162 463.058 370.532C463.133 370.65 462.958 370.782 462.883 370.664C459.644 365.476 453.88 362.441 447.883 361.793C447.51 361.752 447.135 361.756 446.761 361.737C446.963 362.246 447.029 362.856 447.169 363.359C447.397 364.172 447.652 364.977 447.936 365.772C448.519 367.406 449.196 369.016 449.975 370.566C450.767 372.138 451.65 373.665 452.644 375.117C453.658 376.599 454.727 378.182 456.071 379.386C456.188 379.49 456.02 379.658 455.916 379.537C454.716 378.139 453.371 376.886 452.248 375.415C451.175 374.01 450.201 372.53 449.355 370.978C448.498 369.403 447.761 367.775 447.171 366.081C446.862 365.189 446.587 364.286 446.347 363.373C446.208 362.844 445.994 362.257 446.003 361.698C444.044 361.669 442.09 361.929 440.184 362.407C441.488 366.363 442.871 370.486 445.649 373.69C445.741 373.795 445.558 373.935 445.475 373.822C444.186 372.055 442.882 370.344 441.84 368.412C440.855 366.588 440.011 364.601 439.577 362.562C436.272 363.481 433.138 365.081 430.444 367.146C425.242 371.133 421.664 376.734 419.666 382.936C417.497 389.673 417.233 396.627 417.788 403.634C418.485 412.414 419.621 421.186 419.988 429.987C420.012 430.561 419.14 430.881 418.939 430.256C418.344 428.385 418.232 426.393 417.996 424.449Z" fill="#263238"/>
<path d="M429.052 364.999C429.414 364.257 430.135 363.601 430.686 362.994C431.285 362.335 431.902 361.693 432.562 361.095C433.873 359.904 435.33 358.943 436.957 358.241C437.087 358.185 437.171 358.394 437.039 358.443C435.387 359.054 433.968 360.167 432.719 361.389C432.099 361.995 431.512 362.635 430.946 363.292C430.419 363.902 429.924 364.695 429.276 365.177C429.161 365.261 428.986 365.135 429.052 364.999Z" fill="#263238"/>
<path d="M456.368 367.401C457.929 368.829 459.513 370.27 460.884 371.885C462.261 373.509 463.49 375.214 464.509 377.084C464.539 377.14 464.45 377.186 464.414 377.138C461.891 373.811 459.343 370.378 456.232 367.572C456.129 367.478 456.264 367.305 456.368 367.401Z" fill="#263238"/>
<path d="M438.305 368.257C438.636 369.294 439.091 370.287 439.681 371.204C440.253 372.093 440.945 372.92 441.647 373.708C441.692 373.759 441.614 373.833 441.561 373.791C439.866 372.433 438.735 370.394 438.103 368.339C438.063 368.206 438.263 368.123 438.305 368.257Z" fill="#263238"/>
<path d="M393.23 415.382L394.428 429.605L398.102 472.98H437.448L441.122 429.605L442.321 415.382H393.23Z" fill="#455A64"/>
<path d="M393.23 415.382L394.428 429.605H441.122L442.321 415.382H393.23Z" fill="#263238"/>
<path d="M389.369 423.319H446.182V409.675H389.369V423.319Z" fill="#455A64"/>
<path d="M152.548 473.489C149.914 474.338 74.8361 473.366 72.0034 471.51C70.9148 470.824 70.2891 397.703 70.2891 397.703L120.512 398.206L118.611 447.126C118.611 447.126 147.183 460.351 150.085 462.719C152.963 465.077 155.183 472.65 152.548 473.489Z" fill="#F7A9A0"/>
<path d="M129.987 452.261C129.791 452.203 129.689 452.146 129.678 452.088C129.678 452.088 129.791 452.146 129.987 452.261Z" fill="#268BBF"/>
<path d="M152.544 473.492C149.915 474.334 74.839 473.367 72.0064 471.513C71.631 471.274 71.3124 462.455 71.0508 450.997C82.0424 454.889 126.135 464.015 135.226 463.308C143.408 462.671 135.999 456.083 133.895 454.342C141.211 457.847 148.687 461.567 150.086 462.717C152.965 465.072 155.183 472.65 152.544 473.492Z" fill="#263238"/>
<path d="M54.8809 181.437C54.8809 181.437 66.1535 308.3 67.9907 317.981C68.4162 320.186 68.6801 332.177 68.8519 347.589C69.2421 381.217 69.01 441.871 69.01 441.871H121.933C121.933 441.871 120.362 336.782 118.019 317.441C115.677 298.089 100.7 181.436 100.7 181.436H54.8809V181.437Z" fill="#37474F"/>
<path d="M119.538 432.651C111.28 432.479 113.653 432.412 105.393 432.333C101.351 432.294 74.7911 432.062 71.0154 432.688C70.9324 432.701 70.9324 432.842 71.0154 432.856C74.7923 433.482 101.351 433.25 105.393 433.211C113.652 433.131 111.28 433.064 119.538 432.892C119.693 432.889 119.693 432.654 119.538 432.651Z" fill="#263238"/>
<path d="M79.0637 372.575C79.0057 364.9 78.9477 357.223 78.8919 349.548C78.8385 342.113 78.8487 334.671 78.4949 327.244C77.7782 312.204 74.7283 297.418 72.5577 282.548C70.3871 267.67 68.5772 252.74 66.9379 237.795C65.0984 221.028 63.4739 204.238 61.7504 187.459C61.739 187.346 61.5615 187.348 61.5707 187.464C64.0643 217.423 66.8469 247.374 70.9946 277.156C72.0264 284.563 73.1561 291.955 74.3768 299.333C75.6122 306.802 76.8397 314.275 77.429 321.827C78.0057 329.221 78.099 336.639 78.1752 344.051C78.2537 351.722 78.33 359.392 78.4039 367.063C78.5689 384.103 78.7338 410.33 78.8999 427.369C78.9033 427.699 79.4141 427.686 79.4107 427.357C79.2947 412.16 79.1786 387.774 79.0637 372.575Z" fill="#263238"/>
<path d="M43.7227 181.437C43.7227 181.437 66.153 308.3 67.9902 317.981C68.4157 320.186 68.6796 332.177 68.8514 347.589L68.8628 347.634L94.0836 181.436H43.7227V181.437Z" fill="#263238"/>
<path d="M89.19 481.921C86.4882 482.521 11.8312 474.528 9.18516 472.416C8.16586 471.632 14.3841 398.772 14.3841 398.772L64.34 403.972L57.8704 452.499C57.8704 452.499 85.0787 468.34 87.7464 470.968C90.3891 473.585 91.8907 481.333 89.19 481.921Z" fill="#F7A9A0"/>
<path d="M68.7162 458.675C68.5273 458.6 68.4295 458.533 68.4238 458.475C68.4238 458.475 68.5319 458.543 68.7162 458.675Z" fill="#268BBF"/>
<path d="M89.1898 481.922C86.4812 482.525 11.8265 474.527 9.18725 472.421C8.82321 472.136 9.38064 462.658 10.2566 450.585C21.9422 455.774 63.258 468.576 72.1905 468.758C78.3689 468.883 76.0709 464.775 73.7377 461.919C80.2346 465.845 86.5267 469.759 87.7451 470.966C90.3843 473.582 91.886 481.331 89.1898 481.922Z" fill="#263238"/>
<path d="M61.3552 444.73L8.48242 442.489C8.48242 442.489 22.9142 326.464 23.1815 319.333C23.5785 308.731 28.6637 264.975 32.932 229.549C32.932 229.549 24.8379 210.368 39.9863 181.395H100.748C100.748 181.395 96.6758 208.966 89.7046 226.447C89.7046 226.447 84.3953 228.094 76.1954 232.614C76.1954 232.614 70.1479 311.602 69.9215 321.455C69.4732 340.931 61.3552 444.73 61.3552 444.73Z" fill="#37474F"/>
<path d="M59.9479 435.04C51.7048 434.519 54.0778 434.552 45.8301 434.122C41.7939 433.911 15.2682 432.555 11.4686 433.02C11.3844 433.031 11.3787 433.171 11.4617 433.189C15.2079 433.974 41.7529 434.867 45.7926 435C54.0483 435.271 51.6809 435.102 59.9377 435.281C60.0924 435.283 60.1026 435.05 59.9479 435.04Z" fill="#263238"/>
<path d="M92.0083 225.249C86.5318 227.132 81.2465 229.809 76.1932 232.615C75.9953 232.725 76.1261 233.032 76.3411 232.94C81.6686 230.652 87.1018 228.462 92.2961 225.884C92.7034 225.682 92.4281 225.104 92.0083 225.249Z" fill="#263238"/>
<path d="M93.7007 188.691C93.686 188.507 93.3629 188.466 93.364 188.665C93.4072 194.99 93.0034 200.555 92.471 206.466C92.223 209.21 90.016 224.377 85.2574 223.271C84.4611 223.086 84.0538 222.302 83.9286 221.101C83.7785 219.657 84.3223 217.886 84.5612 216.449C85.089 213.274 85.5133 210.09 85.7864 206.882C86.2949 200.895 86.3199 194.908 85.593 188.94C85.5691 188.745 85.2858 188.759 85.2858 188.957C85.2926 197.245 85.0765 205.516 83.8365 213.724C83.2415 217.668 81.2541 223.608 85.3791 224.214C89.5826 224.833 92.2992 214.885 92.8123 212.164C94.2445 204.572 94.3014 196.373 93.7007 188.691Z" fill="#263238"/>
<path d="M85.3842 223.678C84.9542 224.697 84.6084 225.757 84.3137 226.822C84.0851 227.649 83.7745 228.543 83.8689 229.405C83.8871 229.572 84.109 229.588 84.1988 229.476C84.7574 228.768 84.9929 227.8 85.3046 226.962C85.6664 225.989 86.0497 225.024 86.3831 224.042C86.6049 223.391 85.6493 223.05 85.3842 223.678Z" fill="#263238"/>
<path d="M18.2676 425.716C24.3163 365.835 32.5822 292.498 39.3521 232.546L39.4499 231.613C39.4203 230.843 38.9585 229.664 38.8015 228.942C36.119 219.021 37.2873 208.474 40.0597 198.712C41.4009 193.796 43.3667 189.09 45.3837 184.433C43.4509 189.128 41.5739 193.861 40.327 198.786C37.7742 208.525 36.7629 218.952 39.4932 228.753C39.6729 229.538 40.1917 230.831 40.1962 231.616L40.1075 232.58C33.8745 292.648 25.5676 365.909 18.2676 425.716Z" fill="#263238"/>
<path d="M100.889 101.583C101.232 105.576 101.586 109.588 101.763 113.597C101.871 116.046 101.818 118.463 101.691 120.886C100.909 121.701 99.9633 122.491 98.82 123.231C98.8587 122.615 98.8894 122.003 98.9224 121.402C99.0851 118.501 98.9895 115.636 98.8643 112.737C98.8621 112.639 98.7233 112.662 98.7256 112.76C98.7495 115.738 98.5504 118.748 98.3217 121.722C98.2717 122.369 98.2023 123.018 98.126 123.66C97.2125 124.203 96.1898 124.715 95.0363 125.186C95.1091 124.477 95.1682 123.766 95.2285 123.072C95.3742 121.432 95.4856 119.79 95.5493 118.142C95.6745 114.89 95.5971 111.654 95.3605 108.416C95.3514 108.281 95.1694 108.319 95.1717 108.448C95.2138 111.781 95.1375 115.128 94.9532 118.461C94.8656 120.037 94.7542 121.617 94.6063 123.189C94.5346 123.944 94.4368 124.698 94.3446 125.457C92.6189 126.109 90.6292 126.674 88.3301 127.121C82.4702 128.262 76.2645 127.36 70.5492 125.768C65.6586 124.401 60.9557 122.003 57.1037 118.38C58.7612 116.046 60.0046 113.258 60.8977 110.606C60.925 110.516 60.8135 110.47 60.7725 110.549C59.9239 112.277 59.0092 113.96 58.0252 115.602C57.5622 116.373 57.0639 117.116 56.5668 117.863C56.5099 117.807 56.4564 117.752 56.3995 117.695C56.0321 117.326 55.6442 116.935 55.2653 116.512C56.2391 114.978 57.0616 113.308 57.8523 111.681C58.9876 109.349 59.9739 106.965 60.6906 104.456C60.7384 104.293 60.5359 104.197 60.462 104.354C59.3824 106.636 58.3631 108.948 57.2516 111.214C56.4701 112.809 55.585 114.354 54.7602 115.926C53.675 114.599 52.8047 113.033 52.9924 111.186C53.1494 109.664 53.9491 108.336 54.6112 107.03C55.3609 105.564 56.0298 104.057 56.6271 102.514C57.8648 99.3393 61.8453 74.6236 70.3558 75.4119C70.3922 75.3357 80.4987 64.591 92.9692 71.874C106.82 79.9612 105.665 110.251 105.25 113.492C105.001 115.404 104.303 117.74 102.489 119.984C102.585 117.935 102.537 115.875 102.444 113.878C102.256 109.726 101.683 105.645 101.083 101.549C101.059 101.422 100.877 101.452 100.889 101.583Z" fill="#268BBF"/>
<path opacity="0.6" d="M100.889 101.583C101.232 105.576 101.586 109.588 101.763 113.597C101.871 116.046 101.818 118.463 101.691 120.886C100.909 121.701 99.9633 122.491 98.82 123.231C98.8587 122.615 98.8894 122.003 98.9224 121.402C99.0851 118.501 98.9895 115.636 98.8643 112.737C98.8621 112.639 98.7233 112.662 98.7256 112.76C98.7495 115.738 98.5504 118.748 98.3217 121.722C98.2717 122.369 98.2023 123.018 98.126 123.66C97.2125 124.203 96.1898 124.715 95.0363 125.186C95.1091 124.477 95.1682 123.766 95.2285 123.072C95.3742 121.432 95.4856 119.79 95.5493 118.142C95.6745 114.89 95.5971 111.654 95.3605 108.416C95.3514 108.281 95.1694 108.319 95.1717 108.448C95.2138 111.781 95.1375 115.128 94.9532 118.461C94.8656 120.037 94.7542 121.617 94.6063 123.189C94.5346 123.944 94.4368 124.698 94.3446 125.457C92.6189 126.109 90.6292 126.674 88.3301 127.121C82.4702 128.262 76.2645 127.36 70.5492 125.768C65.6586 124.401 60.9557 122.003 57.1037 118.38C58.7612 116.046 60.0046 113.258 60.8977 110.606C60.925 110.516 60.8135 110.47 60.7725 110.549C59.9239 112.277 59.0092 113.96 58.0252 115.602C57.5622 116.373 57.0639 117.116 56.5668 117.863C56.5099 117.807 56.4564 117.752 56.3995 117.695C56.0321 117.326 55.6442 116.935 55.2653 116.512C56.2391 114.978 57.0616 113.308 57.8523 111.681C58.9876 109.349 59.9739 106.965 60.6906 104.456C60.7384 104.293 60.5359 104.197 60.462 104.354C59.3824 106.636 58.3631 108.948 57.2516 111.214C56.4701 112.809 55.585 114.354 54.7602 115.926C53.675 114.599 52.8047 113.033 52.9924 111.186C53.1494 109.664 53.9491 108.336 54.6112 107.03C55.3609 105.564 56.0298 104.057 56.6271 102.514C57.8648 99.3393 61.8453 74.6236 70.3558 75.4119C70.3922 75.3357 80.4987 64.591 92.9692 71.874C106.82 79.9612 105.665 110.251 105.25 113.492C105.001 115.404 104.303 117.74 102.489 119.984C102.585 117.935 102.537 115.875 102.444 113.878C102.256 109.726 101.683 105.645 101.083 101.549C101.059 101.422 100.877 101.452 100.889 101.583Z" fill="black"/>
<path d="M72.727 126.992C77.0454 141.077 99.3039 176.999 113.766 180.069C125.397 182.537 157.15 179.746 165.558 178.215C168.382 177.701 163.424 144.589 160.102 144.589C152.269 144.589 127.469 153.507 120.766 151.065C118.133 150.106 102.567 137.011 83.8961 121.03C76.6643 114.841 70.1492 118.584 72.727 126.992Z" fill="#F7A9A0"/>
<path d="M163.425 178.495C167.305 178.224 184.978 175.415 189.722 173.534C194.464 171.652 207.723 165.247 206.651 161.468C205.578 157.689 201.547 159.254 201.547 159.254C201.547 159.254 206.718 155.664 205.291 151.958C203.866 148.253 197.674 150.893 197.674 150.893C197.674 150.893 202.714 146.818 201.027 143.223C199.341 139.63 193.56 143.327 193.56 143.327C193.56 143.327 198.343 139.816 195.707 137.44C192.536 134.581 184.451 142.049 179.058 143.734C177.834 144.116 153.686 149.72 153.686 149.72L163.425 178.495Z" fill="#F7A9A0"/>
<path d="M194.062 143.019C188.103 148.497 184.548 149.863 176.708 151.292C176.555 151.32 176.562 151.554 176.724 151.539C184.528 150.839 189.235 149.769 194.341 143.294C194.592 142.978 194.345 142.758 194.062 143.019Z" fill="#263238"/>
<path d="M198.14 150.449C191.453 155.599 187.611 157.114 179.51 159.214C179.395 159.244 179.434 159.441 179.552 159.421C187.672 158.026 192.342 156.85 198.346 150.828C198.618 150.554 198.445 150.212 198.14 150.449Z" fill="#263238"/>
<path d="M201.132 159.348C194.299 163.865 190.158 165.71 182.032 166.739C181.839 166.763 181.858 167.045 182.052 167.039C190.44 166.795 195.625 164.533 201.247 159.57C201.63 159.232 201.561 159.064 201.132 159.348Z" fill="#263238"/>
<path d="M148.66 150.54C148.66 150.54 154.729 142.414 158.183 139.431C161.637 136.45 178.598 130.074 180.182 133.659C182.229 138.288 173.162 143.896 168.362 146.064C168.362 146.064 173.106 156.766 167.471 162.199C161.836 167.634 148.66 150.54 148.66 150.54Z" fill="#F7A9A0"/>
<path d="M180.33 135.116C179.151 140.684 172.667 143.122 168.169 145.572C167.826 145.759 167.856 146.099 168.05 146.333C169.738 150.952 170.776 157.959 167.794 162.208C167.707 162.332 167.872 162.473 167.976 162.36C171.794 158.237 171.337 151.271 169.163 146.33C173.816 143.89 180.21 141.158 180.384 135.127C180.384 135.09 180.336 135.081 180.33 135.116Z" fill="#263238"/>
<path d="M147.769 144.59L147.552 185.552C147.552 185.552 122.718 184.842 111.484 180.885C100.25 176.927 79.5957 147.601 73.5982 134.238C67.6018 120.874 70.7837 109.146 86.6978 121.794C102.611 134.442 120.578 149.683 121.114 149.985C121.65 150.287 147.769 144.59 147.769 144.59Z" fill="#C7C7C7"/>
<path d="M139.54 165.668C139.54 162.732 139.678 151.051 139.959 148.19C139.967 148.105 140.078 148.132 140.085 148.205C140.364 151.111 140.462 162.867 140.454 165.801C140.438 171.664 140.491 177.57 140.058 183.411C140.049 183.532 139.895 183.54 139.887 183.415C139.465 177.521 139.54 171.573 139.54 165.668Z" fill="#263238"/>
<path opacity="0.1" d="M131.535 184.504C124.452 183.809 116.567 182.685 111.486 180.888C100.252 176.929 79.5927 147.604 73.6009 134.241C68.4759 122.825 70.0493 112.598 80.5335 117.754L131.535 184.504Z" fill="black"/>
<path d="M39.9844 181.396C47.4437 181.981 100.7 181.439 100.7 181.439L97.7569 165.623C97.7569 165.623 102.326 157.97 100.939 150.978C100.067 146.636 95.0016 138.408 90.4 131.64C90.3215 131.552 90.2646 131.456 90.2066 131.369C86.4809 125.918 83.0976 121.472 82.5152 120.879C77.554 115.778 69.8456 115.004 63.0552 121.592C63.0449 121.592 63.0438 121.602 63.0438 121.602C62.9789 121.651 62.9232 121.71 62.8686 121.769C62.649 121.976 62.4295 122.204 62.219 122.431C60.3328 124.453 58.4956 127.299 56.7334 130.7C56.6527 130.852 56.5719 131.004 56.4911 131.155C53.0863 137.872 49.9567 146.641 47.264 155.589C47.2264 155.702 47.2003 155.804 47.1639 155.906C41.1311 176.049 39.9844 181.396 39.9844 181.396Z" fill="#C7C7C7"/>
<path d="M95.7266 137.973C96.334 138.831 96.7698 139.766 97.1509 140.724C97.3295 141.207 97.5012 141.694 97.6218 142.199C97.7458 142.701 97.8573 143.216 97.8505 143.747C97.3977 142.807 96.9779 141.888 96.6105 140.931C96.2533 139.973 95.9177 139.006 95.7266 137.973Z" fill="#263238"/>
<path d="M78.7579 164.719C81.5598 164.613 84.3845 164.599 87.1751 164.91C88.5641 165.064 89.9349 165.281 91.3103 165.529C91.9952 165.652 92.68 165.752 93.3694 165.849C94.077 165.947 94.8312 166.026 95.5456 165.949C95.6105 165.942 95.6219 166.037 95.5582 166.048C94.8699 166.164 94.2112 166.274 93.5116 166.298C92.8472 166.321 92.176 166.273 91.5139 166.206C90.1044 166.062 88.7018 165.854 87.2934 165.697C84.4528 165.38 81.6133 165.064 78.7556 164.951C78.6248 164.946 78.6259 164.723 78.7579 164.719Z" fill="#263238"/>
<path d="M72.2563 168.141C74.4951 167.589 76.7943 167.135 79.082 166.839C80.2333 166.691 81.3834 166.611 82.5426 166.559C83.0955 166.536 83.6495 166.521 84.2035 166.514C84.8133 166.505 85.4242 166.579 86.0328 166.562C86.0965 166.559 86.1102 166.657 86.0453 166.661C85.472 166.694 84.9009 166.822 84.3309 166.889C83.7576 166.956 83.1831 167.019 82.6097 167.086C81.4607 167.219 80.3152 167.366 79.165 167.489C76.8625 167.736 74.5736 168.003 72.2813 168.328C72.1562 168.347 72.1403 168.169 72.2563 168.141Z" fill="#263238"/>
<path d="M69.8194 118.682C69.9593 119.939 74.8454 128.573 80.4652 128.979C82.2956 129.107 83.4457 119.149 83.4457 119.149L83.6994 118.433L87.2329 108.412L76.0649 99.2053L74.4404 97.9688C74.4404 97.9688 73.6543 100.774 72.7101 104.278C72.6657 104.441 72.6202 104.602 72.5759 104.776C72.5178 104.973 72.4598 105.158 72.4132 105.344C72.2653 105.865 72.1174 106.398 71.9797 106.933C71.874 107.339 71.7682 107.734 71.6737 108.164C71.5668 108.594 71.4724 109.012 71.3643 109.442C70.4007 113.697 69.7671 118.149 69.8194 118.682Z" fill="#F7A9A0"/>
<path d="M72.709 104.277C74.6782 112.825 80.8259 116.949 83.6972 118.433L87.2306 108.412L76.0627 99.2053L74.4382 97.9688C74.4382 97.9688 73.6532 100.773 72.709 104.277Z" fill="#263238"/>
<path d="M102.614 91.5288C105.923 109.883 95.3034 113.937 91.3456 114.646C87.7519 115.29 75.4338 117.025 70.2475 99.1121C65.0599 81.1981 72.5466 73.8583 80.6873 71.9505C88.8281 70.0427 99.3044 73.1746 102.614 91.5288Z" fill="#F7A9A0"/>
<path d="M99.4543 88.8273C99.0141 88.8455 98.6045 88.7886 98.1677 88.7613C97.674 88.7306 97.2781 88.7568 96.8686 88.4439C96.649 88.2755 96.6001 87.8728 96.7434 87.6442C97.0767 87.1106 97.6899 86.9991 98.286 87.0117C98.9322 87.0253 99.4259 87.2016 99.9173 87.6203C100.394 88.0241 100.035 88.8034 99.4543 88.8273Z" fill="#268BBF"/>
<path opacity="0.6" d="M99.4543 88.8273C99.0141 88.8455 98.6045 88.7886 98.1677 88.7613C97.674 88.7306 97.2781 88.7568 96.8686 88.4439C96.649 88.2755 96.6001 87.8728 96.7434 87.6442C97.0767 87.1106 97.6899 86.9991 98.286 87.0117C98.9322 87.0253 99.4259 87.2016 99.9173 87.6203C100.394 88.0241 100.035 88.8034 99.4543 88.8273Z" fill="black"/>
<path d="M86.8154 90.7787C87.2397 90.6604 87.6117 90.4806 88.019 90.3202C88.4797 90.1393 88.8642 90.0426 89.1577 89.6183C89.3147 89.3908 89.2374 88.9915 89.0303 88.8186C88.5491 88.4136 87.9314 88.4955 87.3694 88.6912C86.7585 88.9028 86.3421 89.2224 86.0043 89.7719C85.6744 90.3032 86.2557 90.9345 86.8154 90.7787Z" fill="#268BBF"/>
<path opacity="0.6" d="M86.8154 90.7787C87.2397 90.6604 87.6117 90.4806 88.019 90.3202C88.4797 90.1393 88.8642 90.0426 89.1577 89.6183C89.3147 89.3908 89.2374 88.9915 89.0303 88.8186C88.5491 88.4136 87.9314 88.4955 87.3694 88.6912C86.7585 88.9028 86.3421 89.2224 86.0043 89.7719C85.6744 90.3032 86.2557 90.9345 86.8154 90.7787Z" fill="black"/>
<path d="M90.4481 94.841C90.4299 94.7955 90.3616 94.9183 90.3719 94.9684C90.6381 96.2107 90.7348 97.6782 89.6802 98.2982C89.6472 98.3175 89.662 98.3801 89.703 98.3664C91.0476 97.9216 90.8997 95.9752 90.4481 94.841Z" fill="#263238"/>
<path d="M89.0975 93.7386C87.06 93.9514 87.6345 98.0104 89.523 97.8136C91.3807 97.619 90.8062 93.56 89.0975 93.7386Z" fill="#263238"/>
<path d="M88.3307 94.0651C88.0088 94.3449 87.7187 94.7999 87.2978 94.9023C86.8097 95.0218 86.3763 94.6498 85.9952 94.2869C85.9554 94.2494 85.9258 94.2892 85.9326 94.3438C86.0316 95.123 86.4434 95.8784 87.2932 95.8761C88.0691 95.875 88.5173 95.1082 88.6003 94.2994C88.6163 94.1492 88.4593 93.9524 88.3307 94.0651Z" fill="#263238"/>
<path d="M97.3976 93.5863C97.401 93.5374 97.5045 93.6329 97.5091 93.6841C97.6376 94.948 97.9971 96.3734 99.1916 96.6396C99.2291 96.6476 99.2337 96.7113 99.1905 96.7113C97.7753 96.7022 97.3168 94.8047 97.3976 93.5863Z" fill="#263238"/>
<path d="M98.3461 92.121C100.349 91.6967 101.051 95.7352 99.1948 96.1288C97.3678 96.5156 96.6659 92.4771 98.3461 92.121Z" fill="#263238"/>
<path d="M99.2333 92.2403C99.5894 92.3985 99.9728 92.7329 100.358 92.692C100.805 92.6442 101.056 92.1505 101.265 91.6829C101.287 91.634 101.324 91.6624 101.336 91.7159C101.491 92.4838 101.375 93.3324 100.66 93.61C100.007 93.8626 99.3948 93.2869 99.0774 92.5498C99.0183 92.4133 99.09 92.1766 99.2333 92.2403Z" fill="#263238"/>
<path d="M91.7632 105.182C92.0942 105.449 92.4355 105.828 92.8974 105.822C93.341 105.818 93.837 105.57 94.2261 105.374C94.2648 105.355 94.3091 105.393 94.2875 105.433C94.0054 105.95 93.3444 106.319 92.7483 106.273C92.167 106.227 91.836 105.76 91.6471 105.25C91.621 105.179 91.7142 105.143 91.7632 105.182Z" fill="#263238"/>
<path d="M96.3147 99.8382C96.3147 99.8382 96.8619 101.673 96.9973 102.557C97.0098 102.64 96.8016 102.712 96.5047 102.776C96.4911 102.782 96.4842 102.789 96.4706 102.782C94.9473 103.266 93.2921 102.968 92.1476 101.839C92.0726 101.762 92.1715 101.654 92.2603 101.697C93.5572 102.374 94.8791 102.397 96.2681 102.208C96.2931 101.953 95.226 99.0965 95.3648 99.0646C95.8415 98.9486 96.8449 99.1318 97.4432 99.2114C96.4148 95.356 94.7767 91.6975 93.8097 87.8432C93.7779 87.7044 93.9724 87.6328 94.0315 87.7511C96.0201 91.4643 97.301 95.8748 98.4648 99.828C98.6138 100.319 96.6913 99.9349 96.3147 99.8382Z" fill="#263238"/>
<path d="M71.7599 99.6354C75.2603 99.6501 75.1795 91.6436 75.1795 91.6436C75.1795 91.6436 89.5647 87.3582 89.3485 75.2449C89.3485 75.2449 92.7978 82.5609 100.913 85.0716C100.913 85.0716 98.7975 72.0221 88.0903 70.7445C88.0903 70.7445 74.6153 67.6252 68.6144 78.7488C62.6123 89.8724 69.4096 99.6263 71.7599 99.6354Z" fill="#268BBF"/>
<path d="M89.2908 74.355C89.7105 76.1547 89.673 78.0613 89.3021 79.8952C88.9324 81.729 88.2112 83.5207 87.1202 85.0645C86.879 85.4717 86.5366 85.805 86.2499 86.1782L85.7994 86.7231C85.6356 86.8915 85.4627 87.0507 85.2898 87.2111C84.9417 87.5274 84.6061 87.8584 84.2477 88.1599C83.87 88.4375 83.4867 88.7071 83.101 88.9722C82.9076 89.103 82.7199 89.2429 82.5231 89.3658L81.9065 89.6957L80.6756 90.3498C79.819 90.7059 78.9442 91.0165 78.0762 91.3111C78.8748 90.839 79.7052 90.4579 80.4845 89.9869L81.6278 89.2463L82.1977 88.8789C82.3786 88.7435 82.5481 88.5933 82.7233 88.4511C83.0703 88.1622 83.4184 87.8778 83.7722 87.6013C84.1021 87.2987 84.407 86.9677 84.7255 86.6537L85.1999 86.1793L85.6185 85.656C85.8847 85.2988 86.2055 84.9803 86.4285 84.5924C87.4774 83.1442 88.1748 81.4719 88.6764 79.7495C88.9233 78.8838 89.086 77.9931 89.1861 77.0921C89.3055 76.1877 89.3306 75.2742 89.2908 74.355Z" fill="#268BBF"/>
<g opacity="0.6">
<path d="M71.7599 99.6354C75.2603 99.6501 75.1795 91.6436 75.1795 91.6436C75.1795 91.6436 89.5647 87.3582 89.3485 75.2449C89.3485 75.2449 92.7978 82.5609 100.913 85.0716C100.913 85.0716 98.7975 72.0221 88.0903 70.7445C88.0903 70.7445 74.6153 67.6252 68.6144 78.7488C62.6123 89.8724 69.4096 99.6263 71.7599 99.6354Z" fill="black"/>
<path d="M89.2908 74.355C89.7105 76.1547 89.673 78.0613 89.3021 79.8952C88.9324 81.729 88.2112 83.5207 87.1202 85.0645C86.879 85.4717 86.5366 85.805 86.2499 86.1782L85.7994 86.7231C85.6356 86.8915 85.4627 87.0507 85.2898 87.2111C84.9417 87.5274 84.6061 87.8584 84.2477 88.1599C83.87 88.4375 83.4867 88.7071 83.101 88.9722C82.9076 89.103 82.7199 89.2429 82.5231 89.3658L81.9065 89.6957L80.6756 90.3498C79.819 90.7059 78.9442 91.0165 78.0762 91.3111C78.8748 90.839 79.7052 90.4579 80.4845 89.9869L81.6278 89.2463L82.1977 88.8789C82.3786 88.7435 82.5481 88.5933 82.7233 88.4511C83.0703 88.1622 83.4184 87.8778 83.7722 87.6013C84.1021 87.2987 84.407 86.9677 84.7255 86.6537L85.1999 86.1793L85.6185 85.656C85.8847 85.2988 86.2055 84.9803 86.4285 84.5924C87.4774 83.1442 88.1748 81.4719 88.6764 79.7495C88.9233 78.8838 89.086 77.9931 89.1861 77.0921C89.3055 76.1877 89.3306 75.2742 89.2908 74.355Z" fill="black"/>
</g>
<path d="M71.432 105.884C71.7505 105.972 72.0395 106.016 72.3125 106.027C72.6344 106.055 72.9268 106.028 73.1896 105.969C73.6037 105.89 73.9484 105.726 74.2282 105.524C74.4887 105.348 74.7072 105.13 74.8801 104.918C75.326 104.362 75.4887 103.809 75.4887 103.809L74.0041 98.9428C74.0041 98.9428 69.4116 93.5209 66.9213 95.2091C64.4197 96.9007 68.2364 105.022 71.432 105.884Z" fill="#F7A9A0"/>
<path d="M68.0694 97.5088C68.0194 97.5088 68.0159 97.5793 68.0603 97.593C70.306 98.271 71.6313 100.173 72.621 102.182C71.9032 101.44 70.9863 101.082 69.9829 101.948C69.9294 101.993 69.992 102.076 70.0523 102.058C70.9214 101.786 71.5755 101.882 72.2399 102.537C72.7109 103.001 73.059 103.61 73.4162 104.163C73.5356 104.347 73.8746 104.21 73.7814 103.995C73.7745 103.98 73.7654 103.964 73.7586 103.947C73.5607 101.18 71.0591 97.5145 68.0694 97.5088Z" fill="#263238"/>
<path d="M71.6165 105.079C71.753 105.537 72.2342 105.796 72.6915 105.659C73.1488 105.523 73.4082 105.041 73.2717 104.584C73.1352 104.127 72.654 103.868 72.1967 104.004C71.7393 104.141 71.48 104.622 71.6165 105.079Z" fill="white"/>
<path d="M69.7309 103.944C69.8276 104.267 70.1678 104.45 70.4908 104.354C70.8139 104.257 70.9982 103.917 70.9004 103.594C70.8037 103.271 70.4635 103.086 70.1405 103.183C69.8174 103.28 69.6342 103.62 69.7309 103.944Z" fill="white"/>
<path d="M126.62 132.434C135.438 142.943 134.062 158.669 123.552 167.488C113.041 176.307 97.3163 174.93 88.4975 164.421C79.6787 153.911 81.0552 138.185 91.5656 129.367C102.076 120.547 117.801 121.923 126.62 132.434ZM116.466 140.953C112.344 136.042 104.996 135.398 100.085 139.52C95.1741 143.64 94.5302 150.989 98.6518 155.9C102.772 160.811 110.12 161.454 115.031 157.334C119.943 153.212 120.586 145.864 116.466 140.953Z" fill="#268BBF"/>
<path d="M125.1 140.935L270.303 129.837C270.303 129.837 261.571 153.983 247.787 160.238C231.971 167.414 166.128 164.235 166.128 164.235C164.125 164.243 162.206 163.428 160.821 161.981L156.343 157.298C155.033 155.929 153.242 155.122 151.348 155.048L124.932 154.025L125.1 140.935Z" fill="#268BBF"/>
<g opacity="0.2">
<path d="M126.62 132.434C135.438 142.943 134.062 158.669 123.552 167.488C113.041 176.307 97.3163 174.93 88.4975 164.421C79.6787 153.911 81.0552 138.185 91.5656 129.367C102.076 120.547 117.801 121.923 126.62 132.434ZM116.466 140.953C112.344 136.042 104.996 135.398 100.085 139.52C95.1741 143.64 94.5302 150.989 98.6518 155.9C102.772 160.811 110.12 161.454 115.031 157.334C119.943 153.212 120.586 145.864 116.466 140.953Z" fill="black"/>
<path d="M125.1 140.935L270.303 129.837C270.303 129.837 261.571 153.983 247.787 160.238C231.971 167.414 166.128 164.235 166.128 164.235C164.125 164.243 162.206 163.428 160.821 161.981L156.343 157.298C155.033 155.929 153.242 155.122 151.348 155.048L124.932 154.025L125.1 140.935Z" fill="black"/>
</g>
<path d="M137.108 217.069C123.848 220.595 110.193 212.675 106.668 199.416C103.144 186.157 111.063 172.502 124.323 168.977C137.583 165.451 151.237 173.372 154.762 186.63C158.287 199.889 150.367 213.544 137.108 217.069ZM127.727 181.786C121.531 183.434 117.83 189.815 119.477 196.01C121.125 202.207 127.506 205.907 133.701 204.26C139.898 202.613 143.598 196.232 141.951 190.036C140.305 183.84 133.924 180.139 127.727 181.786Z" fill="#268BBF"/>
<path d="M146.932 182.982L239.529 70.5873C239.529 70.5873 214.756 63.8413 201.711 71.519C186.743 80.3287 151.47 136.018 151.47 136.018C150.311 137.653 149.875 139.692 150.263 141.656L151.517 148.013C151.884 149.873 151.513 151.803 150.484 153.394L136.125 175.591L146.932 182.982Z" fill="#268BBF"/>
<g opacity="0.1">
<path d="M137.108 217.069C123.848 220.595 110.193 212.675 106.668 199.416C103.144 186.157 111.063 172.502 124.323 168.977C137.583 165.451 151.237 173.372 154.762 186.63C158.287 199.889 150.367 213.544 137.108 217.069ZM127.727 181.786C121.531 183.434 117.83 189.815 119.477 196.01C121.125 202.207 127.506 205.907 133.701 204.26C139.898 202.613 143.598 196.232 141.951 190.036C140.305 183.84 133.924 180.139 127.727 181.786Z" fill="black"/>
<path d="M146.932 182.982L239.529 70.5873C239.529 70.5873 214.756 63.8413 201.711 71.519C186.743 80.3287 151.47 136.018 151.47 136.018C150.311 137.653 149.875 139.692 150.263 141.656L151.517 148.013C151.884 149.873 151.513 151.803 150.484 153.394L136.125 175.591L146.932 182.982Z" fill="black"/>
</g>
<path opacity="0.2" d="M166.418 145.183C169.196 150.933 160.973 155.261 157.818 149.648C155.037 143.835 163.312 139.602 166.418 145.183ZM166.418 145.183C163.555 140.124 156.235 144.092 158.723 149.179C161.454 154.146 168.91 150.435 166.418 145.183Z" fill="black"/>
<path d="M220.232 71.0065C212.64 72.168 205.296 74.9358 199.843 80.3349C194.394 85.7602 189.496 91.7588 184.391 97.5368C181.007 101.44 177.606 105.335 174.078 109.144C179.687 100.397 186.009 92.174 192.892 84.3871C196.422 80.5385 200.134 76.5023 204.96 74.2498C209.748 71.9302 215.039 70.8199 220.232 71.0065Z" fill="white"/>
<path d="M110.286 196.65C107.682 185.927 115.439 174.355 126.142 172.128C128.526 171.485 131.038 171.436 133.48 171.56C119.911 171.986 109.004 182.848 110.286 196.65Z" fill="white"/>
<path d="M89.1523 137.231C92.9884 129.229 102.854 125.002 111.399 126.808C102.859 126.708 94.3114 130.288 89.1523 137.231Z" fill="white"/>
<path d="M61.2032 123.19C48.0968 138.418 22.5289 174.865 29.5355 183.832C41.055 198.574 70.2711 212.73 79.4687 215.687C83.4811 216.977 99.3201 188.504 95.6376 185.908C91.218 182.792 59.6367 170.504 59.9302 167.76C60.0963 166.205 64.4306 153.378 68.4498 136.8C73.1117 117.571 67.451 115.932 61.2032 123.19Z" fill="#F7A9A0"/>
<path d="M81.051 183.129C81.051 183.129 93.5158 180.133 101.759 178.556C106.358 177.677 114.377 176.873 118.052 177.771C123.548 179.117 145.674 188.252 143.574 193.665C141.673 198.565 123.661 188.301 123.661 188.301C123.661 188.301 142.753 197.05 139.38 202.528C136.007 208.006 117.198 193.705 117.198 193.705C117.198 193.705 136.612 203.133 132.24 208.233C128.937 212.086 111.17 200.093 111.17 200.093C111.17 200.093 127.801 208.314 124.574 212.423C121.007 216.964 103.914 206.923 103.914 206.923C93.9527 215.987 85.5173 216.633 79.4686 215.684C78.0193 215.459 81.051 183.129 81.051 183.129Z" fill="#F7A9A0"/>
<path d="M117.251 184.853C119.531 185.799 121.845 186.742 124.033 187.888C126.22 189.034 128.37 190.258 130.442 191.601C135.522 194.898 138.188 197.758 138.004 197.6C133.654 193.847 125.887 189.623 123.697 188.477C121.514 187.334 119.388 186.08 117.205 184.935C117.149 184.906 117.197 184.83 117.251 184.853Z" fill="#263238"/>
<path d="M112.97 192.677C116.39 193.772 122.795 196.946 129.499 201.413C129.701 201.547 129.57 201.609 129.358 201.491C126.616 199.957 115.366 194.272 112.933 192.742C112.891 192.717 112.924 192.664 112.97 192.677Z" fill="#263238"/>
<path d="M108.089 198.733C112.964 200.57 116.084 202.654 120.076 205.339C120.275 205.473 120.092 205.538 119.878 205.419C115.988 203.231 113.237 201.892 108.026 198.889C107.948 198.843 107.994 198.696 108.089 198.733Z" fill="#263238"/>
<path d="M85.194 180.18L64.924 217.803C64.924 217.803 33.0743 194.377 27.8629 182.529C23.1827 171.889 52.3727 132.11 59.0278 124.428C65.6828 116.744 71.8088 115.805 70.132 129.356C68.4552 142.907 60.9879 167.163 60.9583 167.553C60.9299 167.938 85.194 180.18 85.194 180.18Z" fill="#C7C7C7"/>
<path d="M67.8226 194.138C69.3106 191.281 75.3797 179.989 77.1362 177.361C77.1874 177.283 77.2955 177.37 77.2659 177.447C76.0976 180.429 70.2468 191.923 68.752 194.775C65.7635 200.473 62.8284 206.249 59.3963 211.694C59.3257 211.805 59.1539 211.729 59.2074 211.603C61.7341 205.633 64.8295 199.886 67.8226 194.138Z" fill="#263238"/>
<path d="M64.7677 152.641C66.134 147.541 67.3899 142.41 68.6629 137.286C68.6868 137.189 68.8506 137.228 68.8346 137.327C68.3716 140.246 67.8074 143.139 67.1771 146.019C67.7641 144.552 68.3113 143.068 68.8346 141.577C68.8733 141.467 69.0269 141.533 69.0007 141.641C68.5081 143.631 67.746 145.536 66.87 147.388C66.473 149.135 66.0589 150.878 65.6118 152.617C64.9599 155.155 61.8224 166.297 61.381 167.54C65.6232 169.356 69.3329 171.488 73.4625 173.548C75.4829 174.556 77.4942 175.581 79.4941 176.632C81.4656 177.669 83.8784 178.603 85.6269 179.848C85.7362 179.926 85.3118 180.437 85.1594 180.697C85.0923 180.812 84.8909 180.781 84.9421 180.655C84.9421 180.655 85.0468 180.392 85.0752 180.29C84.0661 179.941 80.0674 177.886 79.0322 177.373C77.0107 176.371 74.996 175.358 72.9778 174.348C68.8813 172.297 60.3754 168.037 60.3867 167.972C60.5858 166.777 64.0749 155.226 64.7677 152.641Z" fill="#263238"/>
</svg>
