<svg width="473" height="528" viewBox="0 0 473 528" fill="none" xmlns="http://www.w3.org/2000/svg">
<path d="M424.519 380.796L439.797 380.477L447.323 380.349C449.826 380.295 452.315 380.306 454.811 380.286L454.3 380.796L454.239 367.996L454.81 368.566L439.664 368.494C434.616 368.489 429.567 368.365 424.519 368.307L424.831 367.994C424.809 370.089 424.733 372.196 424.681 374.327L424.519 380.796ZM424.519 380.796L424.356 374.463C424.305 372.328 424.228 370.168 424.207 367.996L424.203 367.687L424.519 367.683C429.567 367.625 434.616 367.501 439.664 367.496L454.81 367.424L455.384 367.421L455.381 367.996L455.32 380.796L455.317 381.31L454.81 381.305C452.256 381.284 449.697 381.296 447.151 381.242L439.531 381.114L424.519 380.796Z" fill="#EBEBEB"/>
<path d="M441.415 396.935L456.693 396.616L464.219 396.488C466.722 396.434 469.211 396.446 471.707 396.425L471.197 396.935L471.135 384.135L471.706 384.706L456.561 384.634C451.513 384.628 446.463 384.505 441.415 384.446L441.728 384.134C441.706 386.228 441.629 388.335 441.578 390.466L441.415 396.935ZM441.415 396.935L441.253 390.602C441.201 388.467 441.125 386.307 441.103 384.135L441.1 383.826L441.415 383.823C446.463 383.764 451.513 383.641 456.561 383.635L471.706 383.563L472.28 383.561L472.278 384.135L472.216 396.935L472.214 397.449L471.706 397.444C469.153 397.424 466.594 397.435 464.048 397.381L456.428 397.253L441.415 396.935Z" fill="#EBEBEB"/>
<path d="M407.62 396.935L422.898 396.616L430.424 396.488C432.927 396.434 435.416 396.446 437.912 396.425L437.402 396.935L437.34 384.135L437.911 384.706L422.766 384.634C417.718 384.628 412.668 384.505 407.62 384.446L407.933 384.134C407.911 386.228 407.834 388.335 407.783 390.466L407.62 396.935ZM407.62 396.935L407.458 390.602C407.406 388.467 407.33 386.307 407.308 384.135L407.305 383.826L407.62 383.823C412.668 383.764 417.718 383.641 422.766 383.635L437.911 383.563L438.485 383.561L438.483 384.135L438.421 396.935L438.419 397.449L437.911 397.444C435.358 397.424 432.799 397.435 430.253 397.381L422.633 397.253L407.62 396.935Z" fill="#EBEBEB"/>
<path d="M17.2122 396.935L32.4902 396.616L40.016 396.488C42.5189 396.434 45.008 396.446 47.504 396.425L46.9938 396.935L46.9321 384.135L47.5029 384.706L32.3575 384.634C27.3095 384.628 22.2603 384.505 17.2122 384.446L17.5245 384.136C17.5028 386.23 17.4261 388.338 17.3746 390.469L17.2122 396.935ZM17.2122 396.935L17.0498 390.602C16.9983 388.467 16.9216 386.307 16.8999 384.135L16.8965 383.826L17.2122 383.823C22.2603 383.764 27.3095 383.641 32.3575 383.635L47.5029 383.563L48.0771 383.561L48.0748 384.135L48.0131 396.935L48.0108 397.449L47.5029 397.444C44.9497 397.424 42.3908 397.435 39.8444 397.381L32.2248 397.253L17.2122 396.935Z" fill="#EBEBEB"/>
<path d="M17.2122 98.108L32.4902 97.7888L40.016 97.6607C42.5189 97.6069 45.008 97.6184 47.504 97.5978L46.9938 98.108L46.9321 85.3076L47.5029 85.8784L32.3575 85.8064C27.3095 85.8007 22.2603 85.6771 17.2122 85.6188L17.5245 85.3088C17.5028 87.4033 17.4261 89.5104 17.3746 91.6415L17.2122 98.108ZM17.2122 98.108L17.0498 91.7753C16.9983 89.6396 16.9216 87.4799 16.8999 85.3076L16.8965 84.9988L17.2122 84.9954C22.2603 84.937 27.3095 84.8135 32.3575 84.8078L47.5029 84.7357L48.0771 84.7334L48.0748 85.3076L48.0131 98.108L48.0108 98.6216L47.5029 98.617C44.9497 98.5964 42.3908 98.6079 39.8444 98.5541L32.2248 98.426L17.2122 98.108Z" fill="#EBEBEB"/>
<path d="M0.313766 114.249L15.5918 113.929L23.1176 113.801C25.6204 113.748 28.1096 113.759 30.6056 113.738L30.0954 114.249L30.0336 101.448L30.6044 102.019L15.4591 101.947C10.411 101.941 5.36183 101.818 0.313766 101.759L0.626052 101.447C0.604318 103.542 0.527675 105.649 0.476199 107.78L0.313766 114.249ZM0.313766 114.249L0.151329 107.916C0.0998533 105.78 0.023211 103.621 0.00147671 101.448L-0.00195312 101.139L0.313766 101.136C5.36183 101.078 10.411 100.954 15.4591 100.948L30.6044 100.876L31.1787 100.874L31.1764 101.448L31.1146 114.249L31.1123 114.762L30.6044 114.758C28.0512 114.737 25.4923 114.748 22.946 114.695L15.3264 114.567L0.313766 114.249Z" fill="#EBEBEB"/>
<path d="M441.415 98.1221L456.693 97.803L464.219 97.6749C466.722 97.6211 469.211 97.6325 471.707 97.6119L471.197 98.1221L471.135 85.3218L471.706 85.8926L456.561 85.8205C451.513 85.8148 446.463 85.6913 441.415 85.6329L441.728 85.3207C441.706 87.4152 441.629 89.5222 441.578 91.6533L441.415 98.1221ZM441.415 98.1221L441.253 91.7895C441.201 89.6538 441.125 87.4941 441.103 85.3218L441.1 85.0129L441.415 85.0095C446.463 84.9512 451.513 84.8276 456.561 84.8219L471.706 84.7498L472.28 84.7476L472.278 85.3218L472.216 98.1221L472.214 98.6357L471.706 98.6312C469.153 98.6106 466.594 98.622 464.048 98.5682L456.428 98.4401L441.415 98.1221Z" fill="#EBEBEB"/>
<path d="M258.867 172.287L243.589 172.606L236.063 172.734C233.56 172.788 231.071 172.776 228.575 172.797L229.085 172.287L229.147 185.087L228.576 184.516L243.722 184.588C248.77 184.594 253.819 184.717 258.867 184.776L258.555 185.088C258.576 182.994 258.653 180.886 258.704 178.755L258.867 172.287ZM258.867 172.287L259.029 178.619C259.081 180.755 259.157 182.915 259.179 185.087L259.183 185.396L258.867 185.399C253.819 185.458 248.77 185.581 243.722 185.587L228.576 185.659L228.002 185.661L228.004 185.087L228.066 172.287L228.068 171.773L228.576 171.778C231.129 171.798 233.688 171.787 236.235 171.84L243.854 171.969L258.867 172.287Z" fill="#EBEBEB"/>
<path d="M241.97 156.146L226.692 156.466L219.167 156.594C216.664 156.647 214.175 156.636 211.679 156.657L212.188 156.146L212.249 168.947L211.679 168.376L226.824 168.448C231.873 168.454 236.921 168.577 241.969 168.636L241.657 168.948C241.679 166.853 241.755 164.746 241.807 162.615L241.97 156.146ZM241.97 156.146L242.133 162.479C242.184 164.615 242.261 166.774 242.283 168.947L242.286 169.256L241.97 169.259C236.922 169.317 231.873 169.441 226.825 169.447L211.68 169.519L211.105 169.521L211.108 168.947L211.17 156.146L211.172 155.633L211.68 155.637C214.233 155.658 216.792 155.647 219.338 155.7L226.958 155.828L241.97 156.146Z" fill="#EBEBEB"/>
<path d="M431.443 316.623H325.818V455.873H431.443V316.623Z" fill="#EBEBEB"/>
<path d="M436.559 311.199H320.699V316.622H436.559V311.199Z" fill="#DBDBDB"/>
<path d="M472.995 311.199H436.559V316.622H472.995V311.199Z" fill="#EBEBEB"/>
<path d="M467.227 316.623H431.441V455.873H467.227V316.623Z" fill="#DBDBDB"/>
<path d="M419.94 327.777H337.322V374.357H419.94V327.777Z" stroke="#C7C7C7" stroke-width="0.285977" stroke-miterlimit="10"/>
<path d="M383.199 341.337H367.064V350.611H383.199V341.337Z" fill="#C7C7C7"/>
<path d="M387.969 342.036H371.834V349.911H387.969V342.036Z" stroke="#C7C7C7" stroke-width="0.285977" stroke-miterlimit="10"/>
<path d="M419.94 386.624H337.322V433.204H419.94V386.624Z" stroke="#C7C7C7" stroke-width="0.285977" stroke-miterlimit="10"/>
<path d="M383.199 400.184H367.064V409.458H383.199V400.184Z" fill="#C7C7C7"/>
<path d="M387.969 400.883H371.834V408.757H387.969V400.883Z" stroke="#C7C7C7" stroke-width="0.285977" stroke-miterlimit="10"/>
<path d="M310.253 49.8642L257.336 78.1499L275.624 112.363L328.541 84.077L310.253 49.8642Z" fill="#DBDBDB"/>
<path d="M272.124 65.6953L255.447 74.6098L257.342 78.1525L274.977 68.7267L272.124 65.6953Z" fill="#DBDBDB"/>
<path d="M328.419 84.1471L275.501 112.432L255.09 83.0032L308.008 54.7178L328.419 84.1471Z" fill="#EBEBEB"/>
<path d="M269.654 71.041L252.977 79.9555L255.09 83.0029L272.725 73.5771L269.654 71.041Z" fill="#EBEBEB"/>
<path d="M417.491 74.0886C406.483 64.6708 395.588 55.388 384.779 46.207C372.337 58.9353 364.474 77.1566 350.58 88.145C361.588 97.5628 372.482 106.846 383.291 116.027C395.734 103.297 403.596 85.0759 417.491 74.0886Z" fill="#EBEBEB"/>
<path d="M359.389 85.376C365.382 90.4606 371.351 95.5156 377.299 100.545C377.597 100.193 377.894 99.8384 378.188 99.4815C372.253 94.4666 366.299 89.43 360.322 84.3647C360.013 84.7068 359.702 85.0431 359.389 85.376Z" fill="#DBDBDB"/>
<path d="M361.713 82.7894C367.667 87.8272 373.6 92.8386 379.517 97.8318C379.805 97.4669 380.091 97.1008 380.376 96.7313C374.47 91.7508 368.549 86.753 362.607 81.7324C362.312 82.0882 362.014 82.4405 361.713 82.7894Z" fill="#DBDBDB"/>
<path d="M363.947 80.0933C369.869 85.0921 375.774 90.0693 381.666 95.0327C381.947 94.6586 382.225 94.2823 382.501 93.9048C376.617 88.9505 370.721 83.9837 364.811 78.9985C364.525 79.3657 364.237 79.7306 363.947 80.0933Z" fill="#DBDBDB"/>
<path d="M366.109 77.3074C374.748 84.5861 383.358 91.8304 391.956 99.0599C392.227 98.6756 392.498 98.2901 392.769 97.9046C384.177 90.682 375.575 83.4479 366.949 76.1841C366.671 76.5593 366.391 76.9345 366.109 77.3074Z" fill="#DBDBDB"/>
<path d="M368.213 74.4536C376.824 81.6992 385.415 88.9206 394.001 96.1364C394.27 95.7486 394.539 95.362 394.808 94.9742C386.223 87.7596 377.636 80.5438 369.033 73.3086C368.761 73.6907 368.487 74.0727 368.213 74.4536Z" fill="#DBDBDB"/>
<path d="M370.275 71.5517C378.868 78.7755 387.451 85.9866 396.036 93.2024C396.305 92.8146 396.574 92.428 396.844 92.0413C388.255 84.8233 379.675 77.6132 371.085 70.394C370.816 70.7795 370.546 71.1662 370.275 71.5517Z" fill="#DBDBDB"/>
<path d="M372.318 68.6236C380.903 75.8383 389.486 83.0495 398.081 90.2767C398.353 89.8912 398.624 89.508 398.897 89.1247C390.296 81.8907 381.71 74.6749 373.125 67.4614C372.856 67.8481 372.587 68.2359 372.318 68.6236Z" fill="#DBDBDB"/>
<path d="M374.354 65.6882C382.941 72.9052 391.534 80.1301 400.149 87.379C400.424 86.9992 400.701 86.6206 400.979 86.2443C392.355 78.9827 383.754 71.7498 375.163 64.5283C374.892 64.915 374.623 65.3016 374.354 65.6882Z" fill="#DBDBDB"/>
<path d="M376.402 62.7689C385.001 70.0007 393.616 77.2496 402.259 84.534C402.542 84.1623 402.825 83.7928 403.11 83.4256C394.453 76.124 385.828 68.8625 377.221 61.6216C376.947 62.0025 376.675 62.3846 376.402 62.7689Z" fill="#DBDBDB"/>
<path d="M378.479 59.8847C387.1 67.1428 395.745 74.4284 404.427 81.7597C404.719 81.3993 405.011 81.0401 405.307 80.6844C396.606 73.3314 387.947 66.0275 379.314 58.7568C379.033 59.1309 378.755 59.5061 378.479 59.8847Z" fill="#DBDBDB"/>
<path d="M380.604 57.056C389.257 64.3518 397.942 71.6866 406.673 79.0762C406.975 78.7285 407.281 78.3842 407.588 78.0433C398.835 70.6273 390.131 63.2709 381.463 55.9556C381.174 56.3205 380.888 56.6877 380.604 57.056Z" fill="#DBDBDB"/>
<path d="M382.793 54.3062C391.488 61.6524 400.224 69.0466 409.014 76.5071C409.329 76.1766 409.648 75.8483 409.971 75.5245C401.155 68.0331 392.397 60.6114 383.682 53.2412C383.383 53.5935 383.087 53.9481 382.793 54.3062Z" fill="#DBDBDB"/>
<path d="M39.2441 116.474V0.000488281" stroke="#C7C7C7" stroke-width="1.14391" stroke-miterlimit="10"/>
<path d="M77.7172 153.56L74.623 160.363H3.85855L0.773438 153.56L30.9005 132.707H47.5901L77.7172 153.56Z" fill="#EBEBEB"/>
<path d="M49.6803 112.616L47.5893 132.707H30.8997L28.8086 112.616H49.6803Z" fill="#DBDBDB"/>
<path d="M77.7145 153.563L74.619 160.365H3.85465L0.769531 153.563H77.7145Z" fill="#DBDBDB"/>
<path d="M121.639 65.8495V0.000488281" stroke="#C7C7C7" stroke-width="1.14391" stroke-miterlimit="10"/>
<path d="M160.11 102.935L157.016 109.738H86.2511L83.166 102.935L113.293 82.083H129.983L160.11 102.935Z" fill="#EBEBEB"/>
<path d="M132.073 61.9912L129.982 82.0828H113.292L111.201 61.9912H132.073Z" fill="#DBDBDB"/>
<path d="M160.106 102.938L157.012 109.741H86.2472L83.1621 102.938H160.106Z" fill="#DBDBDB"/>
<path d="M0.765625 455.536L59.5762 455.258L118.388 455.157L236.01 454.966L353.632 455.156L412.443 455.257L471.255 455.536L412.443 455.816L353.632 455.917L236.01 456.108L118.388 455.916L59.5762 455.815L0.765625 455.536Z" fill="#263238"/>
<path d="M95.517 325.358C91.399 321.323 86.0752 316.447 79.7803 318.187C73.8571 319.824 71.5899 326.291 70.5284 331.677C69.1614 338.62 68.0976 345.632 66.9948 352.62C65.8818 359.679 64.8363 366.748 63.8194 373.822C63.2451 377.813 62.6777 381.804 62.1207 385.799C61.8427 387.795 61.5647 389.792 61.2879 391.79C61.0168 393.748 60.6885 395.705 60.581 397.682C60.5466 398.311 61.5338 398.402 61.6722 397.802C62.4352 394.472 62.7509 391.008 63.2405 387.628C63.7324 384.228 64.2243 380.829 64.7219 377.43C65.7091 370.676 66.7306 363.929 67.7487 357.181C68.7668 350.429 69.8191 343.684 70.8967 336.941C71.8107 331.224 72.2408 324.121 77.3106 320.349C80.0914 318.281 83.6387 318.258 86.7902 319.46C90.1258 320.732 92.79 323.122 95.3992 325.484C95.4804 325.558 95.5971 325.437 95.517 325.358Z" fill="#263238"/>
<path d="M89.88 321.236C89.88 321.236 81.4609 318.206 77.3073 324.35C73.1538 330.493 78.1195 346.119 116.448 354.935C116.448 354.935 115.444 338.206 107.226 320.286C99.0095 302.367 84.3675 309.153 89.88 321.236Z" fill="#268BBF"/>
<path d="M114.245 352.378C113.718 351.291 112.973 350.281 112.317 349.269C111.676 348.28 111.029 347.297 110.373 346.318C109.88 345.583 109.377 344.853 108.874 344.123C108.91 343.946 108.92 343.761 108.944 343.575C108.988 343.244 109.033 342.912 109.076 342.579C109.17 341.861 109.275 341.143 109.38 340.427C109.486 339.711 109.606 338.999 109.742 338.288C109.881 337.562 109.953 336.707 110.244 336.029C110.292 335.917 110.091 335.862 110.076 335.994C110.029 336.42 109.848 336.85 109.734 337.263C109.645 337.585 109.56 337.908 109.476 338.232C109.29 338.959 109.114 339.688 108.949 340.42C108.798 341.095 108.67 341.774 108.554 342.455C108.499 342.783 108.45 343.11 108.406 343.439C107.723 342.465 107.026 341.499 106.308 340.552C104.273 337.871 102.12 335.291 99.8916 332.775C99.9007 332.749 99.9247 332.735 99.9259 332.705C100.125 328.677 100.028 324.692 100.921 320.729C100.945 320.622 100.783 320.562 100.759 320.671C99.9213 324.387 99.0851 328.289 99.3265 332.129C98.528 331.236 97.7193 330.351 96.9026 329.472C95.0357 327.465 93.1345 325.489 91.1922 323.555C91.1132 323.477 90.9897 323.591 91.0652 323.673C94.2956 327.149 97.3624 330.77 100.35 334.457C98.0224 334.381 95.658 334.545 93.3438 334.717C90.7449 334.909 88.162 335.242 85.5813 335.599C85.4715 335.614 85.5047 335.785 85.6145 335.768C88.1803 335.384 90.7724 335.181 93.3644 335.074C95.865 334.97 98.3519 335.082 100.85 335.075C102.464 337.077 104.062 339.092 105.635 341.126C105.523 341.123 105.405 341.122 105.279 341.119C104.693 341.108 104.105 341.099 103.517 341.109C102.352 341.13 101.185 341.211 100.025 341.31C97.6461 341.514 95.2782 341.847 92.9469 342.37C92.8371 342.395 92.8703 342.552 92.9801 342.539C95.3354 342.274 97.6953 342.053 100.064 341.969C101.194 341.929 102.325 341.93 103.455 341.929C104.043 341.929 104.63 341.925 105.218 341.934C105.571 341.94 105.89 341.978 106.184 341.845C107.216 343.183 108.248 344.521 109.268 345.867C110.082 346.938 110.885 348.017 111.673 349.107C112.477 350.22 113.207 351.436 114.102 352.478C114.172 352.555 114.288 352.465 114.245 352.378Z" fill="#263238"/>
<path d="M93.5451 329.942C92.201 329.723 90.8054 329.744 89.4465 329.743C88.0783 329.742 86.7091 329.783 85.3433 329.831C85.2186 329.836 85.2266 330.012 85.3535 330.003C86.74 329.903 88.1252 329.879 89.5151 329.9C90.8557 329.919 92.201 330.048 93.5405 330.012C93.584 330.01 93.5885 329.949 93.5451 329.942Z" fill="#263238"/>
<path d="M105.576 333.031C105.733 331.722 105.898 330.407 106.177 329.118C106.203 328.995 106.028 328.958 106.009 329.082C105.812 330.37 105.561 331.65 105.37 332.941C105.275 333.586 105.187 334.232 105.108 334.878C105.036 335.47 104.898 336.112 104.952 336.706C104.962 336.82 105.147 336.831 105.177 336.724C105.332 336.144 105.318 335.495 105.375 334.899C105.434 334.276 105.501 333.653 105.576 333.031Z" fill="#263238"/>
<path d="M103.054 318.527C102.719 319.802 102.386 321.091 102.151 322.388C102.032 323.046 101.932 323.707 101.842 324.369C101.757 325.002 101.642 325.668 101.714 326.306C101.72 326.357 101.799 326.361 101.814 326.313C102 325.721 102.034 325.079 102.117 324.467C102.201 323.829 102.3 323.194 102.41 322.561C102.642 321.225 102.879 319.901 103.217 318.586C103.245 318.478 103.082 318.42 103.054 318.527Z" fill="#263238"/>
<path d="M53.1439 396.266C52.9323 393.852 52.6978 391.441 52.4439 389.032C51.9405 384.256 51.3571 379.492 50.7166 374.733C50.0783 369.988 49.4686 365.234 48.7056 360.508C48.3555 358.342 47.9952 356.122 47.2437 354.05C46.5974 352.269 45.5312 350.657 43.6667 350.013C39.1574 348.456 36.1146 353.132 34.2935 356.441C34.2386 356.54 34.3827 356.613 34.4445 356.524C35.5346 354.957 38.5488 350.558 41.9691 350.762C44.2706 350.901 46.1123 352.53 47.2173 358.27C49.9707 372.572 52.4519 401.594 52.7424 403.493C52.8957 404.5 53.6072 404.456 53.6129 403.377C53.6267 401.006 53.351 398.629 53.1439 396.266Z" fill="#263238"/>
<path d="M35.5098 354.663C35.5098 354.663 39.4506 340.745 30.7375 347.703C16.2327 359.289 15.7168 384.487 15.7168 384.487C15.7168 384.487 41.5005 369.511 44.7068 359.633C49.4838 344.92 35.5098 354.663 35.5098 354.663Z" fill="#268BBF"/>
<path d="M40.391 361.494C38.3674 361.905 36.3164 362.174 34.2722 362.466C33.3056 362.606 32.3379 362.741 31.3701 362.875C30.717 362.964 30.0558 363.027 29.3981 363.108C31.3187 360.462 33.2553 357.827 35.097 355.127C35.1679 355.023 35.0078 354.916 34.9243 355C33.3937 356.559 31.9764 358.242 30.6163 359.973C30.2388 358.895 29.8522 357.82 29.4736 356.742C29.0354 355.495 28.5641 354.257 28.2473 352.971C28.221 352.863 28.0517 352.914 28.0814 353.021C28.4337 354.297 28.6831 355.598 29.024 356.877C29.3534 358.113 29.7286 359.333 30.1656 360.534C29.2208 361.761 28.3159 363.017 27.4351 364.285C26.9913 363.028 26.4411 361.811 26.0521 360.533C26.0201 360.427 25.8519 360.477 25.8863 360.584C26.3484 361.996 26.5966 363.465 27.0313 364.886C26.4399 365.749 25.8474 366.614 25.2823 367.488C24.2413 369.098 23.2598 370.736 22.299 372.385C22.1491 372.47 22.053 372.592 22.0736 372.774C20.4447 375.592 18.8947 378.451 17.3664 381.336C17.3138 381.435 17.4648 381.518 17.5174 381.42C19.048 378.569 20.7501 375.796 22.5209 373.07C22.5266 373.068 22.5346 373.07 22.5403 373.068C22.7279 372.965 23.1523 372.953 23.3834 372.906C23.6808 372.845 23.9771 372.778 24.2734 372.712C24.9402 372.567 25.6003 372.394 26.2626 372.231C27.5701 371.906 28.865 371.598 30.1931 371.369C30.3017 371.351 30.2526 371.183 30.1427 371.204C28.5813 371.5 27.0164 371.677 25.439 371.86C24.6943 371.946 23.9519 372.042 23.2118 372.16C23.1809 372.165 23.1409 372.17 23.1043 372.176C24.032 370.768 24.97 369.369 25.9229 367.987C26.8597 366.628 27.8217 365.285 28.7895 363.947C29.684 363.821 30.5706 363.586 31.4571 363.417C32.4557 363.226 33.4532 363.032 34.4507 362.835C36.4468 362.44 38.4338 361.993 40.4413 361.66C40.5489 361.643 40.5008 361.472 40.391 361.494Z" fill="#263238"/>
<path d="M24.8943 362.866C24.7742 362.498 24.6632 362.129 24.5465 361.759C24.3017 360.99 24.1141 360.216 23.9551 359.424C23.9334 359.316 23.7664 359.366 23.7893 359.475C23.9574 360.261 24.1416 361.044 24.3212 361.827C24.4973 362.596 24.6941 363.41 24.9926 364.141C25.067 364.323 25.345 364.248 25.2912 364.05C25.1803 363.651 25.0235 363.261 24.8943 362.866Z" fill="#263238"/>
<path d="M43.0292 358.273C41.8532 358.449 40.667 358.531 39.4831 358.635C38.2923 358.739 37.1209 358.904 35.9392 359.081C35.8752 359.091 35.8729 359.19 35.9415 359.185C37.13 359.104 38.3071 359.013 39.4888 358.857C40.6682 358.703 41.8464 358.527 43.0338 358.445C43.147 358.437 43.1367 358.255 43.0292 358.273Z" fill="#263238"/>
<path d="M72.1183 378.645C71.6607 368.397 71.011 358.168 69.9803 347.96C69.4678 342.877 68.8936 337.797 68.1775 332.738C67.4763 327.78 66.6207 322.825 65.2423 318.005C64.1876 314.317 62.8023 310.614 60.3372 307.618C57.9064 304.662 54.3214 302.812 50.4286 303.292C45.9434 303.847 42.3321 306.673 39.2092 309.742C35.7054 313.186 32.4968 316.946 29.2503 320.631C28.429 321.563 27.6146 322.501 26.807 323.445C26.7349 323.529 26.8584 323.648 26.9316 323.564C30.1048 319.918 33.4027 316.375 36.8516 312.989C40.0397 309.86 43.3238 306.438 47.7405 305.146C49.7858 304.547 52.005 304.38 54.0663 304.997C55.7329 305.495 57.1891 306.487 58.388 307.734C60.8737 310.32 62.2704 313.822 63.2621 317.212C66.019 326.63 67.005 336.508 68.0288 346.235C69.0686 356.118 69.771 366.027 70.2674 375.951C70.7673 385.928 71.1563 395.917 72.1171 405.863C72.2361 407.091 72.3951 408.315 72.5507 409.539C72.6559 410.362 73.9337 410.363 73.865 409.507C73.0517 399.23 72.5781 388.944 72.1183 378.645Z" fill="#263238"/>
<path d="M38.6473 310.854C38.6473 310.854 44.4984 300.023 37.5834 296.55C30.6685 293.077 7.52612 318.908 0.765625 356.682C0.765625 356.682 38.1428 340.144 50.8356 323.665C63.5284 307.186 49.1392 303.559 38.6473 310.854Z" fill="#268BBF"/>
<path d="M44.1397 319.662C39.9393 319.672 35.7492 319.344 31.5476 319.373C32.3346 318.47 33.1193 317.565 33.9155 316.669C35.0148 315.43 36.2685 314.226 37.1997 312.854C37.2591 312.767 37.1322 312.644 37.0475 312.71C35.8807 313.624 34.8832 314.821 33.8686 315.898C32.8162 317.016 31.7695 318.138 30.7274 319.265C29.1214 321.002 27.5485 322.769 25.9791 324.537C25.9756 324.364 25.9722 324.194 25.9733 324.028C25.9779 323.292 25.9722 322.557 25.9768 321.821C25.9871 320.396 26.0077 318.972 26.0214 317.547C26.0488 314.658 26.042 311.755 26.2422 308.873C26.2502 308.762 26.0763 308.767 26.0694 308.878C25.8681 311.776 25.5695 314.659 25.4266 317.561C25.3556 318.987 25.3225 320.411 25.3053 321.837C25.2962 322.573 25.2847 323.308 25.2904 324.044C25.2939 324.444 25.2778 324.868 25.3087 325.282C25.0639 325.56 24.81 325.827 24.5663 326.106C21.2135 329.937 18.0266 333.9 14.9232 337.932C14.9186 337.71 14.8889 337.481 14.8683 337.263C14.8248 336.818 14.7722 336.374 14.7219 335.93C14.6132 334.966 14.4805 334.006 14.3364 333.047C14.2014 332.145 14.0584 331.246 13.9074 330.347C13.737 329.338 13.491 328.314 13.4132 327.294C13.4041 327.17 13.2176 327.197 13.2439 327.321C13.459 328.322 13.499 329.38 13.5951 330.397C13.6821 331.321 13.769 332.245 13.8514 333.17C13.9337 334.095 14.0184 335.021 14.1133 335.945C14.1591 336.389 14.1991 336.834 14.2471 337.278C14.2712 337.501 14.2986 337.723 14.3284 337.945C14.3684 338.239 14.4142 338.275 14.5091 338.473C13.976 339.169 13.4396 339.861 12.9111 340.561C10.7914 343.366 8.71178 346.203 6.62987 349.035C6.56467 349.123 6.68706 349.243 6.7557 349.154C8.72665 346.584 10.7548 344.06 12.8093 341.559C14.3478 341.625 15.9161 341.511 17.4535 341.486C19.0744 341.459 20.6954 341.451 22.3163 341.446C22.4272 341.446 22.4238 341.271 22.3117 341.273C20.6908 341.302 19.0699 341.326 17.4489 341.333C15.9722 341.339 14.4645 341.267 12.9854 341.346C14.7928 339.148 16.6185 336.968 18.4499 334.79C19.1179 333.996 19.7894 333.204 20.4574 332.411C21.0648 332.537 21.718 332.475 22.3346 332.473C23.0712 332.472 23.8079 332.472 24.5446 332.47C25.9253 332.465 27.306 332.433 28.6867 332.412C31.5396 332.368 34.3936 332.273 37.2465 332.266C37.3587 332.266 37.3541 332.095 37.242 332.094C34.3845 332.058 31.5293 331.935 28.673 331.864C27.2911 331.828 25.9093 331.783 24.5263 331.764C23.7896 331.755 23.0529 331.747 22.3163 331.739C21.8976 331.734 21.4652 331.705 21.0397 331.721C22.608 329.86 24.174 327.996 25.748 326.141C25.7857 326.118 25.8155 326.085 25.8349 326.039C27.3678 324.233 28.8983 322.425 30.4472 320.633C30.6588 320.387 30.875 320.146 31.0878 319.901C35.4426 320.036 39.7917 319.75 44.1455 319.836C44.2553 319.837 44.2518 319.662 44.1397 319.662Z" fill="#263238"/>
<path d="M41.9919 327.089C41.6521 327.092 41.3135 327.095 40.9738 327.098C40.8731 327.099 40.8777 327.252 40.9772 327.254C41.3169 327.257 41.6555 327.259 41.9953 327.263C42.1074 327.263 42.1028 327.088 41.9919 327.089Z" fill="#263238"/>
<path d="M39.7278 327.102C38.3826 327.082 37.0362 327.055 35.691 327.017C35.0183 326.998 34.3457 326.976 33.6731 326.953C33.0714 326.932 32.3839 326.839 31.7948 326.975C31.7285 326.99 31.741 327.082 31.7982 327.099C32.3805 327.276 33.076 327.222 33.68 327.232C34.3526 327.245 35.0252 327.254 35.6978 327.261C37.0431 327.274 38.3883 327.279 39.7335 327.274C39.8433 327.273 39.8388 327.103 39.7278 327.102Z" fill="#263238"/>
<path d="M27.9781 339.716C25.243 339.333 22.4793 338.945 19.7122 338.97C19.6722 338.97 19.6756 339.027 19.7134 339.031C22.4587 339.293 25.2098 339.44 27.9358 339.884C28.0456 339.902 28.0868 339.731 27.9781 339.716Z" fill="#263238"/>
<path d="M16.7415 327.691C16.714 327.451 16.6877 327.211 16.6557 326.97C16.5848 326.429 16.5001 325.891 16.4143 325.352C16.253 324.325 16.0734 323.302 15.879 322.28C15.8607 322.185 15.6971 322.211 15.7097 322.308C15.8389 323.364 15.9522 324.422 16.0506 325.481C16.0986 326.002 16.1375 326.522 16.1844 327.042C16.2267 327.513 16.1844 328.095 16.3949 328.524C16.4738 328.685 16.7152 328.62 16.7575 328.468C16.8284 328.209 16.7724 327.951 16.7415 327.691Z" fill="#263238"/>
<path d="M71.7501 296.945C70.4117 294.455 68.7096 291.165 65.3705 291.374C62.6137 291.547 61.3714 294.36 60.7823 296.685C58.9612 303.878 58.8331 311.467 58.4785 318.837C57.7292 334.417 57.0555 350.013 56.9571 365.613C56.9296 369.937 56.9457 374.261 56.9846 378.585C57.0257 382.994 57.0131 387.43 57.2934 391.831C57.3197 392.247 57.9397 392.234 57.942 391.815C57.9672 388.044 57.8333 384.269 57.8173 380.496C57.8024 376.815 57.831 373.134 57.8905 369.453C58.0106 361.997 58.2108 354.543 58.4865 347.092C58.7599 339.685 59.0871 332.282 59.4005 324.877C59.5572 321.176 59.7128 317.476 59.8809 313.777C60.0434 310.192 60.1978 306.604 60.6073 303.038C60.8372 301.04 61.1324 299.042 61.5487 297.075C61.8462 295.672 62.274 294.157 63.2726 293.08C64.5904 291.659 66.5831 291.76 68.1457 292.726C69.7643 293.727 70.748 295.389 71.6014 297.038C71.6529 297.135 71.8027 297.043 71.7501 296.945Z" fill="#263238"/>
<path d="M70.8459 295.757C70.8459 295.757 68.1005 286.061 74.1701 290.909C84.2742 298.979 84.6334 316.532 84.6334 316.532C84.6334 316.532 66.6729 306.1 64.4389 299.219C61.1124 288.97 70.8459 295.757 70.8459 295.757Z" fill="#268BBF"/>
<path d="M80.8543 309.336C80.6896 309.068 80.5134 308.806 80.3441 308.541C80.3876 308.273 80.3441 307.974 80.343 307.714C80.3407 307.296 80.3372 306.88 80.3464 306.462C80.3658 305.643 80.3967 304.824 80.4368 304.006C80.4425 303.896 80.2697 303.9 80.264 304.011C80.2217 304.814 80.1897 305.617 80.1668 306.421C80.1554 306.824 80.1371 307.225 80.1245 307.627C80.1199 307.784 80.0993 307.964 80.0902 308.145C79.3855 307.05 78.6614 305.966 77.9122 304.901C77.6948 304.592 77.4672 304.291 77.2464 303.985C77.0817 302.948 77.1801 301.861 77.1926 300.818C77.2064 299.692 77.2224 298.566 77.2613 297.439C77.2647 297.328 77.0908 297.333 77.0885 297.444C77.0554 298.616 76.9982 299.787 76.9376 300.958C76.8952 301.787 76.8186 302.633 76.8689 303.467C75.1336 301.108 73.2953 298.834 71.4308 296.572C71.369 296.497 71.2363 296.603 71.2969 296.681C72.4511 298.141 73.5562 299.639 74.6394 301.154C72.5255 300.661 70.3761 300.377 68.229 300.067C68.1203 300.051 68.0768 300.218 68.1878 300.235C70.4619 300.578 72.6925 301.149 74.9369 301.644C74.9552 301.648 74.9655 301.636 74.9815 301.636C75.8428 302.848 76.6927 304.067 77.5381 305.287C77.8824 305.784 78.2164 306.287 78.5562 306.787C78.5241 306.784 78.491 306.779 78.4601 306.775C78.2279 306.742 77.9945 306.707 77.7612 306.679C77.2647 306.619 76.7648 306.579 76.2672 306.54C75.232 306.459 74.1933 306.404 73.1569 306.349C73.0471 306.343 73.0494 306.52 73.1615 306.522C74.183 306.546 75.1977 306.623 76.2135 306.732C76.7499 306.791 77.2841 306.864 77.8195 306.927C78.0529 306.954 78.2874 306.982 78.5207 307.01C78.5905 307.018 78.658 307.029 78.7266 307.039C79.302 307.888 79.8797 308.734 80.4539 309.584C81.4674 311.084 82.3734 312.691 83.4555 314.139C83.5196 314.225 83.6397 314.148 83.5951 314.052C82.8413 312.418 81.7969 310.868 80.8543 309.336Z" fill="#263238"/>
<path d="M76.3803 298.385C76.3792 298.008 76.3883 297.63 76.3872 297.253C76.3861 296.463 76.3758 295.66 76.4833 294.878C76.5004 294.753 76.3128 294.734 76.3128 294.86C76.3106 295.644 76.2271 296.429 76.1893 297.213C76.1699 297.605 76.1699 297.997 76.1687 298.391C76.1687 298.572 76.1687 298.754 76.1699 298.934C76.171 299.118 76.1458 299.324 76.211 299.498C76.2385 299.571 76.3369 299.568 76.3609 299.495C76.4147 299.331 76.3861 299.146 76.3838 298.976C76.3826 298.778 76.3803 298.581 76.3803 298.385Z" fill="#263238"/>
<path d="M74.1614 302.4C73.4934 302.287 72.8093 302.251 72.1344 302.194C71.3932 302.131 70.6542 302.066 69.9164 301.971C69.7928 301.955 69.7711 302.134 69.8969 302.142C71.3154 302.233 72.7258 302.486 74.1454 302.536C74.2232 302.539 74.2392 302.413 74.1614 302.4Z" fill="#263238"/>
<path d="M79.8036 302.46C79.8562 302.533 79.8208 302.746 79.8208 302.833V303.145C79.8208 303.372 79.8185 303.597 79.8162 303.824C79.8151 304.05 79.8128 304.275 79.8105 304.502C79.8093 304.682 79.7613 304.93 79.8437 305.094C79.8562 305.121 79.8986 305.117 79.9111 305.093C79.9546 305.005 79.9466 304.909 79.9455 304.812C79.9443 304.708 79.9432 304.604 79.9432 304.5C79.9409 304.274 79.9397 304.048 79.9374 303.822C79.9352 303.597 79.934 303.371 79.934 303.144V302.832C79.934 302.736 79.8974 302.537 79.9535 302.458C80.0633 302.3 79.6881 302.296 79.8036 302.46Z" fill="#263238"/>
<path d="M72.1691 348.678C68.3919 345.842 64.998 341.767 59.9179 341.568C55.7243 341.403 52.7856 344.56 51.1052 348.075C50.2187 349.93 49.6124 351.896 49.0496 353.867C48.2912 356.521 47.5774 359.187 46.9094 361.864C45.5939 367.131 44.4625 372.447 43.5463 377.799C43.0361 380.782 42.5602 383.776 42.1827 386.78C41.8018 389.807 41.3065 392.919 41.3008 395.974C41.2996 396.505 42.1301 396.608 42.2388 396.078C42.7501 393.566 42.964 390.973 43.3346 388.436C43.7064 385.883 44.0931 383.332 44.5254 380.789C45.3891 375.701 46.3854 370.631 47.5339 365.599C48.6184 360.847 49.6822 356.023 51.2162 351.393C52.3143 348.077 54.0782 344.204 57.6609 343.011C63.1128 341.197 68.0625 345.81 72.0513 348.805C72.1382 348.869 72.2583 348.745 72.1691 348.678Z" fill="#263238"/>
<path d="M68.2583 345.964C68.2583 345.964 64.7773 336.022 69.8128 334.072C77.3603 331.151 97.1145 353.4 93.2481 387.491C93.2481 387.491 77.9849 379.083 66.714 369.624C55.4442 360.165 52.5593 347.811 57.5238 344.617C62.4884 341.422 68.2583 345.964 68.2583 345.964Z" fill="#268BBF"/>
<path d="M90.968 380.183C90.5253 378.985 89.7509 377.862 89.1332 376.746C88.488 375.579 87.8348 374.416 87.1622 373.265C85.8502 371.022 84.5473 368.773 83.2032 366.548C82.9858 366.188 82.7605 365.831 82.542 365.472C82.5717 365.34 82.5946 365.204 82.6255 365.072C82.6999 364.744 82.7753 364.415 82.8497 364.086C83.0179 363.347 83.146 362.599 83.2855 361.855C83.5589 360.396 83.8117 358.917 84.2052 357.485C84.235 357.378 84.0588 357.345 84.0348 357.455C83.7225 358.914 83.2638 360.348 82.8325 361.774C82.6198 362.477 82.3944 363.177 82.208 363.887C82.1439 364.131 82.081 364.373 82.0169 364.617C80.3937 361.958 78.7431 359.309 76.9643 356.752C77.1141 356.418 77.1004 356.041 77.1405 355.658C77.1931 355.159 77.2537 354.662 77.3132 354.163C77.4459 353.041 77.5751 351.92 77.7399 350.802C78.0636 348.606 78.3896 346.426 78.9352 344.27C78.9627 344.163 78.7923 344.133 78.7648 344.241C78.2215 346.387 77.63 348.534 77.2217 350.711C77.0215 351.778 76.8327 352.85 76.6898 353.926C76.6188 354.465 76.5616 355.006 76.5056 355.546C76.4896 355.705 76.4644 355.87 76.4438 356.034C75.8959 355.262 75.3491 354.489 74.776 353.735C73.0315 351.443 71.2265 349.203 69.4031 346.972C69.3333 346.886 69.1903 346.985 69.2612 347.072C72.4619 350.987 75.1684 355.324 77.8451 359.607C78.345 360.406 78.8334 361.214 79.3288 362.016C79.1629 361.994 78.997 361.975 78.838 361.955C78.1997 361.874 77.5534 361.834 76.9128 361.774C75.6282 361.655 74.3436 361.542 73.0579 361.44C70.4863 361.236 67.908 361.078 65.3433 360.803C65.2335 360.792 65.2026 360.961 65.3136 360.974C67.9126 361.271 70.4989 361.689 73.0899 362.057C74.363 362.238 75.6374 362.408 76.9128 362.572C77.7936 362.685 78.8964 362.947 79.8561 362.874C80.8662 364.514 81.8797 366.153 82.8874 367.795C82.6632 367.764 82.4299 367.773 82.2057 367.769C81.7779 367.762 81.3489 367.765 80.9199 367.765C80.1238 367.765 79.3265 367.764 78.5303 367.764C76.8739 367.765 75.2187 367.798 73.5623 367.796C73.4514 367.796 73.4685 367.968 73.5783 367.969C75.2564 367.988 76.93 368.074 78.6058 368.161C79.4008 368.202 80.1947 368.25 80.9886 368.305C81.3855 368.332 81.7824 368.366 82.1794 368.391C82.5271 368.413 82.9 368.48 83.2283 368.35C84.0851 369.748 84.9511 371.139 85.8067 372.536C86.596 373.827 87.3944 375.111 88.2112 376.384C89.0314 377.663 89.7921 379.134 90.7999 380.27C90.8685 380.348 91.0081 380.293 90.968 380.183Z" fill="#263238"/>
<path d="M83.6951 352.63C83.5739 353.72 83.2833 354.809 83.0133 355.871C82.7319 356.976 82.4105 358.07 82.0525 359.152C82.0033 359.3 82.2092 359.368 82.2572 359.217C82.5958 358.143 82.8989 357.058 83.1632 355.965C83.4286 354.87 83.599 353.752 83.8655 352.66C83.8919 352.552 83.7077 352.519 83.6951 352.63Z" fill="#263238"/>
<path d="M72.4821 359.29C72.2442 359.05 71.9765 359.026 71.6494 358.98C71.1689 358.912 70.6885 358.848 70.208 358.783C69.3158 358.661 68.4201 358.562 67.5244 358.458C65.6644 358.24 63.8022 358.06 61.9433 357.825C61.8324 357.811 61.8026 357.981 61.9136 357.995C63.6672 358.209 65.4128 358.474 67.1641 358.704C68.022 358.816 68.88 358.939 69.7402 359.039C70.1531 359.087 70.5672 359.132 70.9813 359.178C71.4389 359.229 71.9788 359.217 72.3975 359.42C72.481 359.46 72.5416 359.349 72.4821 359.29Z" fill="#263238"/>
<path d="M83.6687 374.282C82.7913 374.208 81.9059 374.179 81.0262 374.153C80.5813 374.139 80.1374 374.125 79.6936 374.111C79.4808 374.105 79.2669 374.098 79.0541 374.092C78.7853 374.084 78.4833 374.109 78.2225 374.044C78.1001 374.013 78.0875 374.235 78.2157 374.216C78.4639 374.176 78.7453 374.225 78.9947 374.24C79.2257 374.253 79.4557 374.267 79.6867 374.281C80.1306 374.307 80.5744 374.335 81.0182 374.361C81.8967 374.413 82.781 374.466 83.6618 374.471C83.767 374.471 83.775 374.291 83.6687 374.282Z" fill="#263238"/>
<path d="M89.0492 370.468C89.1499 369.969 89.2448 369.469 89.3364 368.968C89.5171 367.986 89.6967 367.003 89.8774 366.021C89.898 365.911 89.731 365.882 89.707 365.991C89.4908 366.948 89.2757 367.905 89.0595 368.862C88.952 369.34 88.8445 369.82 88.745 370.3C88.6992 370.522 88.6534 370.743 88.6077 370.965C88.5596 371.198 88.4853 371.431 88.5288 371.669C88.5436 371.749 88.6626 371.814 88.7186 371.729C88.9497 371.378 88.968 370.873 89.0492 370.468Z" fill="#263238"/>
<path d="M81.6266 399.85L80.7789 413.94L78.2704 455.538H35.6129L33.1043 413.94L32.2578 399.85H81.6266Z" fill="#37474F"/>
<path d="M81.6266 399.85L80.7789 413.94H33.1043L32.2578 399.85H81.6266Z" fill="#263238"/>
<path d="M85.5645 389.881H28.3223V403.981H85.5645V389.881Z" fill="#37474F"/>
<path d="M236.011 527.575C349.812 527.575 442.066 519.517 442.066 509.576C442.066 499.635 349.812 491.577 236.011 491.577C122.211 491.577 29.957 499.635 29.957 509.576C29.957 519.517 122.211 527.575 236.011 527.575Z" fill="#EBEBEB"/>
<path d="M270.174 103.87C270.174 112.526 276.871 119.616 285.373 120.244V120.29H378.37C389.032 120.29 397.669 111.651 397.669 100.991C397.669 90.9407 389.988 82.6759 380.174 81.7734C379.618 64.3059 365.285 50.3091 347.682 50.3091C333.668 50.3091 321.722 59.1755 317.156 71.6041C314.56 70.292 311.635 69.5633 308.528 69.5633C298.268 69.5633 289.875 77.5638 289.264 87.6691C288.399 87.5238 287.506 87.4506 286.595 87.4506C277.528 87.4495 270.174 94.8036 270.174 103.87Z" fill="#268BBF"/>
<path d="M343.902 96.3916H323.943V120.29H343.902V96.3916Z" fill="white"/>
<path d="M317.693 99.8975H350.151L333.922 80.8389L317.693 99.8975Z" fill="white"/>
<path d="M379.477 127.592H290.629V133.832H379.477V127.592Z" fill="#DBDBDB"/>
<path d="M356.965 127.592H290.629V133.832H356.965V127.592Z" fill="#268BBF"/>
<path d="M199.729 367.688L202.687 385.428L222.727 493.651H225.957L211.384 385.428L209.231 367.688H199.729Z" fill="#C7C7C7"/>
<path d="M209.229 367.688H199.727L202.685 385.428H211.382L209.229 367.688Z" fill="#A6A6A6"/>
<path d="M136.791 493.65H140.021L160.062 385.427L163.02 367.687H153.517L151.364 385.427L136.791 493.65Z" fill="#C7C7C7"/>
<path d="M153.518 367.687L151.365 385.427H160.062L163.021 367.687H153.518Z" fill="#A6A6A6"/>
<path d="M76.6836 493.65H79.914L99.9541 385.427L102.912 367.688H93.4098L91.257 385.427L76.6836 493.65Z" fill="#C7C7C7"/>
<path d="M91.2578 385.427H99.9549L102.913 367.688H93.4106L91.2578 385.427Z" fill="#A6A6A6"/>
<path d="M81.8066 376.024H228.651V360.55H173.68L155.205 273.03H87.4049L81.8066 376.024Z" fill="#C7C7C7"/>
<path d="M90.3627 360.551H228.652V376.024H89.8125L90.3627 360.551Z" fill="#DBDBDB"/>
<path d="M81.8066 376.024H89.8117L95.0291 273.03H87.4049L81.8066 376.024Z" fill="#DBDBDB"/>
<path d="M251.122 513.892C248.278 514.16 170.873 495.64 168.438 493.126C168.139 492.847 169.667 485.812 171.914 476.218L171.957 476.029C173.36 469.947 195.963 420.766 195.963 420.766L246.131 434.808L223.286 480.439C223.286 480.439 232.723 487.267 240.814 493.749C240.823 493.763 240.833 493.765 240.831 493.777C245.829 497.757 250.135 501.333 251.049 502.491C253.415 505.514 253.96 513.646 251.122 513.892Z" fill="#D3766A"/>
<path d="M251.119 513.888C248.282 514.159 170.88 495.635 168.433 493.127C168.138 492.842 169.671 485.815 171.914 476.215L171.96 476.033C172.474 473.767 175.957 465.502 180.102 456.029C188.357 458.258 217.954 466.286 228.703 469.623L223.292 480.439C223.292 480.439 232.728 487.271 240.82 493.75C240.82 493.762 240.832 493.762 240.832 493.773C245.828 497.754 250.141 501.336 251.052 502.486C253.417 505.519 253.966 513.652 251.119 513.888Z" fill="white"/>
<path d="M251.373 514.261C248.448 514.511 170.991 495.777 168.488 493.197C167.534 492.223 169.26 479.998 173.515 467.049L223.439 479.186C223.439 479.186 248.922 499.4 251.362 502.526C253.786 505.648 254.298 514.01 251.373 514.261Z" fill="#268BBF"/>
<path d="M251.013 510.895C238.106 507.436 185.72 494.702 172.699 492.264C172.592 492.245 172.575 492.316 172.679 492.345C185.397 496.053 237.884 508.362 250.962 511.108C251.238 511.165 251.286 510.967 251.013 510.895Z" fill="#263238"/>
<path d="M247.053 498.536C244.005 497.665 240.641 498.4 238.519 499.827C236.479 501.2 234.5 503.344 233.941 506.058C233.925 506.136 234.067 506.173 234.097 506.096C236.068 501.194 241.768 497.848 247.014 498.698C247.12 498.716 247.157 498.566 247.053 498.536Z" fill="#263238"/>
<path d="M227.199 481.475C222.019 480.145 215.551 480.523 211.293 483.992C211.128 484.127 211.322 484.36 211.494 484.317C216.778 483.031 221.681 482.307 227.133 482.137C227.518 482.123 227.57 481.57 227.199 481.475Z" fill="#263238"/>
<path d="M230.83 484.008C225.65 482.679 219.182 483.056 214.924 486.526C214.759 486.661 214.952 486.893 215.126 486.85C220.41 485.565 225.313 484.841 230.765 484.67C231.149 484.658 231.201 484.103 230.83 484.008Z" fill="#263238"/>
<path d="M234.467 486.543C229.287 485.214 222.818 485.591 218.561 489.061C218.396 489.195 218.589 489.428 218.763 489.386C224.047 488.1 228.948 487.376 234.401 487.205C234.786 487.192 234.837 486.638 234.467 486.543Z" fill="#263238"/>
<path d="M238.099 489.077C232.92 487.748 226.451 488.125 222.193 491.595C222.029 491.729 222.222 491.962 222.395 491.92C227.678 490.634 232.581 489.91 238.033 489.739C238.419 489.727 238.471 489.173 238.099 489.077Z" fill="#263238"/>
<path d="M178.99 480.73C173.155 479.336 170.979 488.402 176.824 489.797C182.659 491.191 184.834 482.125 178.99 480.73Z" fill="#263238"/>
<path d="M236.166 468.964C234.064 466.147 230.234 467.477 228.064 469.35C224.55 472.382 221.501 477.087 220.127 481.497C220.094 481.605 220.167 481.671 220.254 481.684C220.275 482.084 220.64 482.503 221.087 482.33C225.406 480.665 230.23 479.421 233.91 476.481C236.058 474.765 238.155 471.629 236.166 468.964ZM227.119 478.468C225.014 479.337 222.881 480.1 220.809 481.047C222.364 478.682 223.808 476.262 225.6 474.055C226.455 473.001 227.353 471.936 228.346 471.008C229.891 469.565 236.042 466.454 235.191 472.233C234.722 475.42 229.627 477.43 227.119 478.468Z" fill="#263238"/>
<path d="M206.753 480.3C211.11 482.089 216.088 481.93 220.701 482.316C221.18 482.356 221.412 481.851 221.32 481.463C221.399 481.425 221.452 481.341 221.389 481.246C218.833 477.399 214.586 473.739 210.363 471.814C207.755 470.625 203.705 470.423 202.478 473.717C201.314 476.835 204.209 479.256 206.753 480.3ZM204.33 476.584C201.891 471.275 208.669 472.534 210.556 473.486C211.77 474.098 212.931 474.869 214.046 475.639C216.385 477.254 218.451 479.172 220.606 481.006C218.352 480.678 216.09 480.545 213.825 480.3C211.128 480.01 205.674 479.511 204.33 476.584Z" fill="#263238"/>
<path d="M228.965 476.266L175.217 460.146C175.217 460.146 219.518 367.82 218.122 363.124C217.188 359.987 150.765 359.77 131.298 342.29C111.149 324.197 126.837 288.658 126.837 288.658L182.682 288.37C182.682 288.37 181.722 300.026 183.857 301.839C185.264 303.047 261.619 309.766 276.24 337.84C289.511 363.321 228.965 476.266 228.965 476.266Z" fill="#263238"/>
<path d="M218.124 363.122C218.365 363.912 217.287 367.232 215.319 372.193L255.458 421.508C269.773 388.877 283.229 351.247 276.242 337.842C261.614 309.771 185.271 303.048 183.851 301.841C181.729 300.03 182.686 288.367 182.686 288.367L147.238 288.55L206.151 360.912C213.245 361.694 217.883 362.304 218.124 363.122Z" fill="#263238"/>
<path d="M230.299 464.895C228.909 464.193 227.38 463.762 225.916 463.266C224.366 462.739 222.816 462.207 221.257 461.706C218.191 460.718 215.111 459.775 212.011 458.898C205.77 457.133 199.517 455.403 193.229 453.805C189.952 452.972 182.931 451.153 182.495 451.221C182.286 451.253 182.239 451.604 182.426 451.67C188.502 453.845 194.671 455.707 200.839 457.588C206.996 459.466 213.166 461.321 219.41 462.898C221.14 463.335 222.879 463.721 224.614 464.136C226.429 464.571 228.265 465.152 230.139 465.32C230.318 465.338 230.494 464.993 230.299 464.895Z" fill="#455A64"/>
<path d="M129.836 299.295C130.007 297.43 130.217 295.57 130.428 293.709C130.454 293.494 130.79 293.496 130.769 293.716C130.025 301.268 129.259 309 130.649 316.525C131.949 323.565 135.396 329.726 140.624 334.599C151.704 344.932 167.196 347.974 181.631 350.431C189.899 351.838 198.216 352.919 206.562 353.738C210.651 354.138 214.746 354.466 218.846 354.721C222.909 354.974 226.98 355.013 231.042 355.24C232.324 355.311 233.469 355.897 233.27 357.364C233.149 358.253 232.649 359.115 232.293 359.929C231.861 360.917 231.423 361.903 230.987 362.89C229.357 366.578 227.717 370.263 226.068 373.943C222.669 381.527 219.22 389.087 215.724 396.627C208.784 411.597 201.579 426.448 194.125 441.167C193.199 442.993 192.271 444.82 191.341 446.645C191.281 446.764 191.109 446.655 191.165 446.537C198.29 431.629 205.338 416.681 212.277 401.685C215.722 394.241 219.174 386.804 222.582 379.343C224.285 375.614 225.978 371.88 227.662 368.142C228.504 366.273 229.342 364.402 230.179 362.531C230.598 361.595 231.016 360.66 231.432 359.723C231.779 358.945 233.043 357.08 232.171 356.353C231.589 355.868 230.378 356.034 229.681 356.014C228.601 355.983 227.521 355.943 226.44 355.907C224.388 355.838 222.337 355.756 220.286 355.653C216.131 355.444 211.98 355.16 207.835 354.8C199.717 354.097 191.625 353.069 183.581 351.774C169.237 349.465 153.637 346.862 142.156 337.232C137.093 332.985 133.113 327.518 131.144 321.174C128.954 314.117 129.163 306.571 129.836 299.295Z" fill="#455A64"/>
<path d="M369.215 443.125C367.195 445.145 295.763 480.243 292.283 479.861C291.876 479.836 288.567 473.442 284.179 464.621L284.092 464.448C281.293 458.869 255.881 411.937 255.881 411.937L300.323 389.436L326.439 435.109C326.439 435.109 338.063 434.349 348.429 434.182C348.444 434.188 348.454 434.182 348.46 434.193C354.847 434.072 360.445 434.079 361.888 434.388C365.638 435.209 371.244 441.126 369.215 443.125Z" fill="#D3766A"/>
<path d="M369.217 443.122C367.196 445.141 295.764 480.244 292.279 479.859C291.875 479.84 288.565 473.44 284.178 464.626L284.092 464.453C283.898 464.065 283.697 463.668 283.487 463.277C283.348 462.988 283.201 462.706 283.043 462.429C282.831 462.013 282.604 461.591 282.377 461.17C280.442 457.501 277.264 451.563 273.764 445.062L319.078 422.224L326.443 435.11C326.443 435.11 338.064 434.355 348.431 434.184C348.447 434.188 348.456 434.183 348.462 434.192C354.848 434.076 360.45 434.08 361.885 434.388C365.635 435.212 371.25 441.124 369.217 443.122Z" fill="white"/>
<path d="M369.646 443.248C367.552 445.307 295.944 480.275 292.369 479.882C291.013 479.741 284.547 469.225 279.566 456.536L325.76 434.047C325.76 434.047 358.279 433.367 362.152 434.218C366.011 435.076 371.738 441.19 369.646 443.248Z" fill="#268BBF"/>
<path d="M367.22 440.885C355.073 446.453 306.602 470.053 295.017 476.479C294.923 476.53 294.955 476.597 295.054 476.554C307.214 471.299 355.493 447.307 367.318 441.082C367.567 440.949 367.477 440.767 367.22 440.885Z" fill="#263238"/>
<path d="M356.29 433.89C353.387 435.164 351.265 437.874 350.541 440.328C349.845 442.686 349.687 445.599 350.988 448.047C351.026 448.117 351.158 448.055 351.133 447.976C349.525 442.944 351.783 436.732 356.365 434.041C356.456 433.986 356.389 433.847 356.29 433.89Z" fill="#263238"/>
<path d="M330.113 433.411C325.276 435.691 320.534 440.106 319.467 445.494C319.426 445.703 319.723 445.758 319.829 445.615C323.079 441.255 326.393 437.571 330.484 433.962C330.773 433.708 330.46 433.248 330.113 433.411Z" fill="#263238"/>
<path d="M334.529 433.046C329.692 435.325 324.95 439.741 323.883 445.129C323.842 445.337 324.139 445.393 324.245 445.25C327.495 440.891 330.809 437.206 334.901 433.597C335.189 433.343 334.876 432.883 334.529 433.046Z" fill="#263238"/>
<path d="M338.945 432.681C334.108 434.961 329.366 439.376 328.299 444.764C328.258 444.973 328.555 445.028 328.661 444.885C331.911 440.526 335.225 436.841 339.317 433.232C339.604 432.978 339.291 432.517 338.945 432.681Z" fill="#263238"/>
<path d="M343.359 432.316C338.522 434.596 333.78 439.011 332.713 444.399C332.672 444.609 332.968 444.663 333.075 444.52C336.325 440.161 339.639 436.475 343.731 432.867C344.019 432.612 343.706 432.153 343.359 432.316Z" fill="#263238"/>
<path d="M292.506 463.582C287.123 466.23 291.23 474.6 296.621 471.949C302.004 469.301 297.899 460.931 292.506 463.582Z" fill="#263238"/>
<path d="M329.045 418.056C325.628 417.226 323.527 420.693 323.05 423.52C322.276 428.097 322.93 433.665 324.683 437.938C324.727 438.043 324.824 438.046 324.901 438.002C325.172 438.296 325.72 438.386 325.954 437.968C328.219 433.931 331.142 429.896 332.1 425.285C332.661 422.593 332.276 418.84 329.045 418.056ZM328.137 431.146C327.071 433.159 325.913 435.107 324.921 437.158C324.61 434.345 324.18 431.559 324.151 428.717C324.139 427.36 324.151 425.967 324.324 424.619C324.593 422.523 327.347 416.204 330.379 421.198C332.051 423.95 329.408 428.748 328.137 431.146Z" fill="#263238"/>
<path d="M313.617 445.548C318.114 444.148 321.847 440.85 325.646 438.205C326.04 437.931 325.898 437.395 325.579 437.154C325.615 437.074 325.603 436.977 325.494 436.945C321.072 435.612 315.467 435.5 310.986 436.711C308.219 437.459 304.971 439.886 306.127 443.206C307.219 446.345 310.99 446.365 313.617 445.548ZM309.38 444.23C304.117 441.697 310.139 438.344 312.201 437.874C313.525 437.572 314.912 437.424 316.263 437.306C319.095 437.059 321.909 437.218 324.739 437.256C322.793 438.441 320.966 439.782 319.066 441.036C316.801 442.533 312.282 445.627 309.38 444.23Z" fill="#263238"/>
<path d="M326.215 427.719L272.626 454.497C272.626 454.497 230.799 369.456 226.209 363.976C220.091 356.671 140.412 366.988 121.619 343.396C102.183 318.998 118.837 288.699 118.837 288.699L179.488 288.661C179.488 288.661 179.668 295.388 176.171 305.223C176.171 305.223 245.526 301.095 265.151 320.172C280.217 334.817 326.215 427.719 326.215 427.719Z" fill="#263238"/>
<path d="M165.117 311.347C168.246 309.228 171.423 307.224 174.765 305.452C176.454 304.558 179.918 303.023 182.074 302.5C183.841 302.071 184.618 301.942 182.958 302.725C182.008 303.174 180.188 304.04 178.497 304.845C178.816 304.835 179.131 304.824 179.437 304.81C180.628 304.748 181.822 304.707 183.014 304.676C185.345 304.615 187.68 304.631 190.012 304.617C194.747 304.59 199.432 305.037 204.153 305.274C204.278 305.28 204.275 305.473 204.149 305.468C199.437 305.315 194.705 305.566 189.991 305.546C187.656 305.537 185.326 305.603 182.992 305.647C181.853 305.669 180.712 305.689 179.572 305.707C178.632 305.722 177.629 305.798 176.675 305.712C176.17 305.952 175.71 306.171 175.376 306.327C171.947 307.945 168.525 309.632 165.222 311.493C165.122 311.547 165.02 311.412 165.117 311.347Z" fill="#455A64"/>
<path d="M180.921 286.394C180.306 289.256 179.776 292.136 179.06 294.976C178.73 296.279 178.408 297.603 177.962 298.872C177.585 299.941 177.002 301.169 175.788 301.447C174.388 301.766 173.945 300.573 174.021 299.406C174.106 298.103 174.394 296.79 174.607 295.503C174.853 294.019 175.102 292.537 175.32 291.05C175.429 290.306 175.545 289.563 175.644 288.817C175.669 288.629 175.76 287.209 175.848 286.799C175.86 286.833 175.883 286.865 175.928 286.857C175.944 286.854 175.96 286.852 175.977 286.848C176.015 286.841 176.057 286.815 176.061 286.773C176.071 286.661 176.069 286.638 175.983 286.562C175.945 286.529 175.894 286.534 175.854 286.556C175.589 286.713 175.582 287.084 175.505 287.358C175.3 288.085 175.091 288.809 174.905 289.541C174.559 290.908 174.221 292.279 173.923 293.659C173.624 295.036 173.335 296.417 173.044 297.797C172.827 298.828 172.564 299.916 172.876 300.958C173.217 302.096 174.153 302.644 175.165 302.698C175.119 302.793 175.064 302.882 175.024 302.98C174.91 303.263 174.829 303.564 174.734 303.854C174.635 304.151 174.547 304.447 174.473 304.751C174.437 304.896 174.417 305.044 174.405 305.192C174.393 305.358 174.432 305.517 174.417 305.681C174.393 305.937 174.743 306.081 174.862 305.824C174.932 305.676 175.036 305.561 175.113 305.418C175.196 305.27 175.252 305.098 175.301 304.937C175.388 304.65 175.46 304.364 175.523 304.071C175.585 303.781 175.664 303.491 175.707 303.198C175.733 303.024 175.733 302.848 175.743 302.673C176.317 302.595 176.886 302.378 177.358 301.996C178.183 301.327 178.645 300.334 178.966 299.347C179.355 298.151 179.646 296.917 179.937 295.694C180.659 292.668 181.256 289.599 181.438 286.489C181.456 286.16 180.994 286.054 180.921 286.394Z" fill="#455A64"/>
<path d="M151.678 294.54C151.469 295.957 151.353 297.385 151.075 298.792C150.803 300.17 150.479 301.548 150.073 302.891C149.685 304.175 149.199 305.476 148.465 306.607C147.753 307.704 146.797 308.662 145.805 309.506C143.859 311.16 141.639 312.499 139.265 313.441C138.07 313.916 136.845 314.327 135.599 314.65C134.951 314.82 134.294 314.956 133.632 315.063C133.08 315.152 132.535 315.191 132.05 315.486C131.843 315.612 131.89 315.943 132.098 316.038C132.96 316.427 134.147 316.157 135.049 316.032C136.107 315.887 137.154 315.673 138.18 315.373C140.245 314.769 142.236 313.826 144.047 312.664C145.824 311.525 147.603 310.117 148.886 308.427C150.216 306.675 150.924 304.645 151.35 302.505C151.86 299.942 152.178 297.166 151.95 294.554C151.938 294.401 151.701 294.385 151.678 294.54Z" fill="#455A64"/>
<path d="M315.339 417.97C313.846 418.413 312.439 419.151 311.034 419.794C309.545 420.475 308.053 421.153 306.575 421.859C303.667 423.248 300.781 424.674 297.926 426.166C292.177 429.168 286.442 432.203 280.774 435.358C277.82 437.002 271.466 440.501 271.195 440.85C271.065 441.017 271.272 441.304 271.454 441.224C277.363 438.634 283.127 435.753 288.903 432.885C294.669 430.022 300.43 427.136 306.051 423.996C307.608 423.125 309.139 422.213 310.685 421.325C312.304 420.395 314.037 419.556 315.515 418.392C315.657 418.277 315.549 417.907 315.339 417.97Z" fill="#455A64"/>
<path d="M118.879 302.804C118.884 302.545 119.283 302.552 119.281 302.812C119.166 315.981 121.201 330.708 131.337 340.153C142.452 350.511 158.486 351.747 172.917 351.627C181.2 351.557 189.468 351.345 197.751 351.61C206.072 351.874 214.475 352.283 222.737 353.338C226.072 353.764 228.868 354.965 231.222 357.395C233.511 359.76 235.156 362.68 236.845 365.479C241.011 372.382 245.048 379.362 248.952 386.415C256.714 400.436 263.889 414.769 270.498 429.369C271.318 431.182 272.13 433 272.934 434.821C272.987 434.941 272.81 435.043 272.754 434.922C266.046 420.263 258.791 405.858 251.092 391.696C247.242 384.612 243.259 377.601 239.147 370.667C237.213 367.408 235.342 364.072 233.187 360.952C231.282 358.195 228.898 355.604 225.598 354.604C223.609 354.001 221.486 353.896 219.427 353.708C217.312 353.513 215.194 353.339 213.076 353.184C208.948 352.882 204.813 352.656 200.676 352.506C192.325 352.202 183.987 352.304 175.636 352.456C161.137 352.718 145.298 352.218 133.277 342.989C128.078 338.997 124.329 333.526 122.103 327.385C119.834 321.124 119.024 314.405 118.872 307.777C118.833 306.119 118.84 304.461 118.879 302.804Z" fill="#455A64"/>
<path d="M205.68 360.486C208.638 360.538 211.595 360.662 214.551 360.762C217.011 360.844 219.484 360.819 221.891 361.417C224.13 361.974 225.908 362.245 227.74 364.748C230.028 367.874 242.478 391.927 247.706 402.577C249.155 405.53 250.587 408.49 251.992 411.465C253.442 414.538 254.728 417.686 256.173 420.759C256.225 420.873 256.058 420.967 256.002 420.853C254.722 418.283 253.296 415.782 251.975 413.233C250.651 410.681 249.365 408.108 248.081 405.536C245.486 400.344 242.894 395.151 240.284 389.967C237.696 384.828 234.554 379.818 231.929 374.699C229.722 370.397 226.711 364.524 224.61 363.653C222.135 362.628 218.106 361.615 215.454 361.428C212.194 361.201 208.931 361.001 205.675 360.72C205.525 360.707 205.529 360.484 205.68 360.486Z" fill="#455A64"/>
<path d="M201.477 230.406C201.471 230.684 201.268 230.956 200.979 230.976C200.316 230.983 199.523 230.979 198.63 230.979C196.889 225.387 194.91 220.905 195.393 222.636C196.092 225.141 196.495 228.707 196.323 230.969C195.288 230.961 192.89 230.92 191.69 230.9C190.495 221.175 188.623 213.9 188.627 216.109C188.638 225.013 187.929 227.829 187.116 230.835C175.936 230.633 161.284 230.209 150.697 229.675C149.82 224.286 149.123 218.468 148.911 218.858C147.275 221.768 146.601 226.094 146.351 229.446C142.983 229.251 140.293 229.035 138.661 228.821C138.661 228.821 138.163 224.305 138.145 222.829C138.08 219.069 138.743 215.262 140.05 211.718C141.41 208.067 143.559 204.904 145.612 201.652C145.628 201.625 145.644 201.597 145.663 201.581C145.66 201.57 145.671 201.568 145.679 201.554C147.085 199.304 148.159 197.13 148.941 194.807C148.949 194.793 148.957 194.78 148.963 194.756C149.506 193.105 149.904 191.39 150.178 189.49C151.094 182.963 155.155 177.527 161.43 176.191C173.782 165.977 185.147 171.336 188.125 179.972C188.411 180.814 188.679 181.775 188.933 182.82L188.94 182.853C189.887 186.72 190.637 191.707 191.378 195.574C191.37 195.587 191.382 195.595 191.382 195.595C191.374 195.609 191.377 195.619 191.392 195.639L191.394 195.649C191.761 197.491 192.115 199.06 192.492 200.13C194.989 207.159 201.459 211.477 201.477 230.406Z" fill="#263238"/>
<path d="M158.628 177.825C154.446 179.673 151.766 182.596 150.829 187.343C150.284 190.11 149.921 192.821 148.68 195.386C147.399 198.033 145.503 200.15 143.56 202.262C140.471 205.617 138.249 209.012 137.501 213.683C136.741 218.425 136.606 224.071 137.927 228.625C137.935 228.651 137.974 228.642 137.967 228.614C136.954 224.017 137.324 217.767 138.435 213.089C139.654 207.952 142.807 204.872 146.071 201.117C148.664 198.134 150.412 194.765 151.178 190.8C151.632 188.453 151.757 185.989 152.853 183.821C154.162 181.234 156.537 179.686 158.882 178.328C159.203 178.143 158.946 177.684 158.628 177.825Z" fill="#263238"/>
<path d="M198.795 207.898C196.181 203.998 193.414 200.638 192.041 195.917C190.79 191.616 190.207 187.117 188.928 182.819C188.907 182.75 188.804 182.771 188.822 182.844C190.729 190.454 190.705 198.007 195.115 204.586C197.512 208.16 199.923 211.484 201.384 215.681C202.919 220.091 203.41 224.611 203.222 229.34C203.215 229.504 203.428 229.509 203.452 229.352C204.663 221.756 202.899 214.023 198.795 207.898Z" fill="#263238"/>
<path d="M166.833 234.816C170.503 256.832 185.21 284.65 188.74 286.357C194.986 289.377 236.761 292.621 238.416 292.475C242.511 292.083 247.593 264.696 244.198 261.892C243.417 261.253 203.714 260.959 202.025 260.454C199.956 259.837 190.162 245.71 180.011 231.333C172.885 221.235 164.881 223.105 166.833 234.816Z" fill="#D3766A"/>
<path d="M233.359 291.07C233.865 291.291 241.036 294.222 245.423 295.22C248.696 295.965 258.173 297.855 259.351 294.333C260.158 291.932 254.715 290.165 250.894 288.829C248.881 288.125 246.339 286.21 246.845 284.913C247.728 282.646 252.917 284.568 256.355 286.307C263.006 289.667 271.969 295.895 275.708 292.401C277.12 291.08 275.263 288.935 272.612 286.88C276.855 289.207 281.346 291.057 282.972 289.654C283.905 288.853 283.892 287.83 283.278 286.697C284.567 287.033 285.68 286.888 286.409 286.019C287.66 284.548 286.89 282.532 285.31 280.509C285.774 280.434 286.179 280.171 286.472 279.644C289.039 275.183 274.213 263.672 269.267 262.803C254.715 260.23 239.521 262.367 239.521 262.367C234.149 267.2 233.348 291.061 233.359 291.07Z" fill="#D3766A"/>
<path d="M253.68 276.455C257.091 276.787 260.524 277.803 263.468 279.58C266.953 281.684 269.797 284.671 273.043 287.09C273.131 287.156 273.022 287.294 272.936 287.224C271.403 285.963 269.732 284.854 268.148 283.655C266.603 282.486 265.081 281.257 263.456 280.199C260.478 278.259 257.204 276.967 253.671 276.515C253.633 276.51 253.642 276.452 253.68 276.455Z" fill="#263238"/>
<path d="M255.999 270.209C259.831 271.02 263.757 271.837 267.362 273.416C271.308 275.144 274.492 278.152 277.62 281.042C279.498 282.779 281.34 284.553 283.136 286.373C283.211 286.449 283.11 286.582 283.03 286.507C279.854 283.518 276.589 280.62 273.235 277.83C270.08 275.206 266.62 273.258 262.703 272.022C260.497 271.326 258.241 270.8 255.988 270.276C255.946 270.267 255.955 270.2 255.999 270.209Z" fill="#263238"/>
<path d="M259.716 264.648C263.424 265.185 266.659 265.643 270.019 267.417C274.467 269.765 278.87 273.903 280.417 275.372C282.125 276.994 283.776 278.67 285.403 280.373C285.469 280.442 285.35 280.559 285.282 280.491C281.574 276.776 277.61 273.276 273.454 270.072C271.468 268.541 269.33 267.232 266.966 266.373C264.627 265.524 262.152 265.11 259.712 264.673C259.695 264.67 259.7 264.645 259.716 264.648Z" fill="#263238"/>
<path d="M234.448 273.027L234.426 293.639C234.426 293.639 199.695 292.221 188.543 287.406C182.547 284.817 167.283 246.321 165.196 233.994C163.146 221.877 167.944 214.694 180.338 228.756C189.846 239.542 203.805 259.003 204.909 259.543C206.013 260.083 234.464 257.986 234.464 257.986L234.448 273.027Z" fill="#268BBF"/>
<path d="M167.861 242.394C167.861 242.692 167.758 242.978 167.586 243.195C167.369 242.497 167.151 241.811 166.957 241.147C167.483 241.319 167.861 241.811 167.861 242.394ZM184.445 241.065C183.711 241.065 183.115 241.66 183.115 242.395C183.115 243.13 183.711 243.726 184.445 243.726C185.179 243.726 185.775 243.13 185.775 242.395C185.774 241.66 185.179 241.065 184.445 241.065ZM175.489 227.373C174.755 227.373 174.159 227.969 174.159 228.703C174.159 229.437 174.755 230.033 175.489 230.033C176.224 230.033 176.82 229.437 176.82 228.703C176.82 227.969 176.224 227.373 175.489 227.373ZM184.445 267.652C183.711 267.652 183.115 268.248 183.115 268.982C183.115 269.717 183.711 270.313 184.445 270.313C185.179 270.313 185.775 269.717 185.775 268.982C185.774 268.248 185.179 267.652 184.445 267.652ZM202.354 267.652C201.62 267.652 201.024 268.248 201.024 268.982C201.024 269.717 201.62 270.313 202.354 270.313C203.088 270.313 203.684 269.717 203.684 268.982C203.684 268.248 203.088 267.652 202.354 267.652ZM220.264 267.652C219.53 267.652 218.934 268.248 218.934 268.982C218.934 269.717 219.53 270.313 220.264 270.313C220.999 270.313 221.595 269.717 221.595 268.982C221.593 268.248 220.999 267.652 220.264 267.652ZM175.489 253.96C174.755 253.96 174.159 254.556 174.159 255.291C174.159 256.025 174.755 256.621 175.489 256.621C176.224 256.621 176.82 256.025 176.82 255.291C176.82 254.555 176.224 253.96 175.489 253.96ZM193.4 253.96C192.665 253.96 192.069 254.556 192.069 255.291C192.069 256.025 192.665 256.621 193.4 256.621C194.134 256.621 194.73 256.025 194.73 255.291C194.73 254.555 194.134 253.96 193.4 253.96ZM193.4 280.547C192.665 280.547 192.069 281.143 192.069 281.877C192.069 282.612 192.665 283.208 193.4 283.208C194.134 283.208 194.73 282.612 194.73 281.877C194.73 281.142 194.134 280.547 193.4 280.547ZM211.309 280.547C210.574 280.547 209.978 281.143 209.978 281.877C209.978 282.612 210.574 283.208 211.309 283.208C212.043 283.208 212.639 282.612 212.639 281.877C212.639 281.142 212.044 280.547 211.309 280.547ZM229.219 280.547C228.484 280.547 227.888 281.143 227.888 281.877C227.888 282.612 228.484 283.208 229.219 283.208C229.953 283.208 230.549 282.612 230.549 281.877C230.549 281.142 229.953 280.547 229.219 280.547Z" fill="white"/>
<path d="M227.027 275.144C227.058 272.632 227.1 270.12 227.161 267.608C227.22 265.11 227.183 262.57 227.429 260.083C227.44 259.971 227.625 259.95 227.636 260.071C227.854 262.483 227.801 264.941 227.84 267.362C227.882 269.929 227.903 272.498 227.917 275.066C227.946 280.146 227.767 285.207 227.507 290.276C227.501 290.402 227.323 290.379 227.318 290.26C227.101 285.22 226.964 280.192 227.027 275.144Z" fill="#263238"/>
<path opacity="0.1" d="M215.342 292.296C205.343 291.333 194.057 289.791 188.537 287.401C182.541 284.815 167.276 246.318 165.2 233.988C164.052 227.191 165.049 221.937 168.355 221.147L215.342 292.296Z" fill="black"/>
<path d="M184.147 276.561L185.322 297.824L112.197 297.797C112.197 297.797 133.042 237.668 147.096 224.967C156.605 216.374 166.692 218.008 172.559 225.166C174.044 226.977 189.332 248.286 190.484 258.337C191.479 267.203 184.147 276.561 184.147 276.561Z" fill="#268BBF"/>
<path d="M184.795 288.266C184.403 284.374 184.087 280.478 183.802 276.58L183.793 276.458L183.882 276.339C185.843 273.704 187.502 270.779 188.643 267.694C189.227 266.153 189.617 264.549 189.867 262.936C190.126 261.318 190.19 259.687 189.923 258.073C189.707 256.452 189.274 254.851 188.739 253.286C188.242 251.706 187.605 250.168 186.947 248.64C185.571 245.607 184.036 242.633 182.311 239.762C184.283 242.473 186.017 245.36 187.514 248.374C188.98 251.395 190.302 254.548 190.806 257.945C191.394 261.367 190.699 264.853 189.499 268.015C188.257 271.183 186.592 274.161 184.413 276.785L184.493 276.544C184.641 280.447 184.756 284.355 184.795 288.266Z" fill="#263238"/>
<path d="M185.838 242.793C186.577 244.006 187.106 245.308 187.549 246.641C187.759 247.311 187.952 247.989 188.075 248.686C188.202 249.38 188.308 250.089 188.247 250.801C187.828 249.455 187.358 248.165 186.934 246.839C186.52 245.512 186.106 244.185 185.838 242.793Z" fill="#263238"/>
<path d="M149.954 242.394C149.954 243.128 149.358 243.724 148.624 243.724C147.889 243.724 147.294 243.128 147.294 242.394C147.294 241.659 147.889 241.063 148.624 241.063C149.359 241.065 149.954 241.659 149.954 242.394ZM166.534 241.065C165.8 241.065 165.204 241.659 165.204 242.395C165.204 243.129 165.8 243.725 166.534 243.725C167.268 243.725 167.864 243.129 167.864 242.395C167.864 241.659 167.268 241.065 166.534 241.065ZM183.383 241.593C183.211 241.81 183.108 242.096 183.108 242.394C183.108 243.126 183.714 243.721 184.446 243.721C184.492 243.721 184.538 243.721 184.584 243.709C184.195 243 183.794 242.291 183.383 241.593ZM157.58 227.372C156.845 227.372 156.249 227.968 156.249 228.702C156.249 229.437 156.844 230.033 157.58 230.033C158.315 230.033 158.91 229.437 158.91 228.702C158.909 227.968 158.314 227.372 157.58 227.372ZM174.506 227.82C174.289 228.049 174.163 228.358 174.163 228.701C174.163 229.433 174.758 230.028 175.49 230.028C175.661 230.028 175.833 229.994 175.982 229.937C175.444 229.147 174.952 228.438 174.506 227.82ZM130.715 267.651C129.98 267.651 129.385 268.247 129.385 268.982C129.385 269.716 129.98 270.312 130.715 270.312C131.449 270.312 132.045 269.716 132.045 268.982C132.045 268.247 131.449 267.651 130.715 267.651ZM148.624 267.651C147.889 267.651 147.294 268.247 147.294 268.982C147.294 269.716 147.889 270.312 148.624 270.312C149.358 270.312 149.954 269.716 149.954 268.982C149.954 268.247 149.359 267.651 148.624 267.651ZM166.534 267.651C165.8 267.651 165.204 268.247 165.204 268.982C165.204 269.716 165.8 270.312 166.534 270.312C167.268 270.312 167.864 269.716 167.864 268.982C167.864 268.247 167.268 267.651 166.534 267.651ZM184.444 267.651C183.71 267.651 183.114 268.247 183.114 268.982C183.114 269.716 183.71 270.312 184.444 270.312C185.179 270.312 185.775 269.716 185.775 268.982C185.773 268.247 185.179 267.651 184.444 267.651ZM139.669 253.96C138.935 253.96 138.339 254.556 138.339 255.29C138.339 256.025 138.935 256.621 139.669 256.621C140.404 256.621 141 256.025 141 255.29C141 254.555 140.404 253.96 139.669 253.96ZM157.58 253.96C156.845 253.96 156.249 254.556 156.249 255.29C156.249 256.025 156.844 256.621 157.58 256.621C158.315 256.621 158.91 256.025 158.91 255.29C158.909 254.555 158.314 253.96 157.58 253.96ZM175.489 253.96C174.754 253.96 174.158 254.556 174.158 255.29C174.158 256.025 174.754 256.621 175.489 256.621C176.223 256.621 176.819 256.025 176.819 255.29C176.819 254.555 176.223 253.96 175.489 253.96ZM113.398 294.384C113.021 295.448 112.723 296.283 112.518 296.867C112.609 296.89 112.701 296.901 112.804 296.901C113.536 296.901 114.13 296.306 114.13 295.563C114.13 295.048 113.833 294.602 113.398 294.384ZM130.715 294.238C129.98 294.238 129.385 294.834 129.385 295.568C129.385 296.303 129.98 296.899 130.715 296.899C131.449 296.899 132.045 296.303 132.045 295.568C132.045 294.834 131.449 294.238 130.715 294.238ZM148.624 294.238C147.889 294.238 147.294 294.834 147.294 295.568C147.294 296.303 147.889 296.899 148.624 296.899C149.358 296.899 149.954 296.303 149.954 295.568C149.954 294.834 149.359 294.238 148.624 294.238ZM166.534 294.238C165.8 294.238 165.204 294.834 165.204 295.568C165.204 296.303 165.8 296.899 166.534 296.899C167.268 296.899 167.864 296.303 167.864 295.568C167.864 294.834 167.268 294.238 166.534 294.238ZM185.144 294.442C184.938 294.304 184.698 294.236 184.446 294.236C183.714 294.236 183.108 294.831 183.108 295.563C183.108 296.306 183.714 296.901 184.446 296.901C184.755 296.901 185.041 296.798 185.259 296.615L185.144 294.442ZM121.76 280.547C121.026 280.547 120.43 281.143 120.43 281.877C120.43 282.611 121.026 283.207 121.76 283.207C122.495 283.207 123.091 282.611 123.091 281.877C123.09 281.141 122.495 280.547 121.76 280.547ZM139.669 280.547C138.935 280.547 138.339 281.143 138.339 281.877C138.339 282.611 138.935 283.207 139.669 283.207C140.404 283.207 141 282.611 141 281.877C141 281.141 140.404 280.547 139.669 280.547ZM157.58 280.547C156.845 280.547 156.249 281.143 156.249 281.877C156.249 282.611 156.844 283.207 157.58 283.207C158.315 283.207 158.91 282.611 158.91 281.877C158.909 281.141 158.314 280.547 157.58 280.547ZM175.489 280.547C174.754 280.547 174.158 281.143 174.158 281.877C174.158 282.611 174.754 283.207 175.489 283.207C176.223 283.207 176.819 282.611 176.819 281.877C176.819 281.141 176.223 280.547 175.489 280.547Z" fill="white"/>
<path d="M172.799 272.145C169.364 272.499 165.917 272.97 162.568 273.828C160.901 274.255 159.266 274.756 157.633 275.294C156.818 275.563 156.001 275.802 155.177 276.039C154.332 276.282 153.424 276.508 152.541 276.536C152.461 276.538 152.464 276.657 152.544 276.659C153.403 276.683 154.225 276.703 155.082 276.612C155.896 276.525 156.706 276.351 157.501 276.156C159.195 275.739 160.87 275.243 162.56 274.809C165.969 273.933 169.377 273.058 172.842 272.43C173.001 272.4 172.962 272.128 172.799 272.145Z" fill="#263238"/>
<path d="M181.317 275.199C178.493 274.91 175.61 274.754 172.77 274.788C171.341 274.805 169.925 274.905 168.502 275.043C167.823 275.108 167.145 275.187 166.469 275.273C165.724 275.368 164.992 275.562 164.248 275.647C164.17 275.655 164.17 275.776 164.25 275.77C164.954 275.712 165.673 275.772 166.381 275.754C167.091 275.738 167.803 275.716 168.513 275.698C169.937 275.664 171.36 275.645 172.783 275.597C175.633 275.501 178.471 275.433 181.321 275.435C181.475 275.433 181.463 275.213 181.317 275.199Z" fill="#263238"/>
<path d="M149.444 221.767C122.954 233.114 91.6007 260.59 92.6897 270.483C93.9022 281.503 131.95 265.497 131.681 263.836C131.453 262.424 139.956 251.229 152.116 235.186C164.485 218.868 155.995 218.961 149.444 221.767Z" fill="#268BBF"/>
<path d="M132.045 242.392C132.045 243.127 131.45 243.723 130.715 243.723C129.981 243.723 129.385 243.127 129.385 242.392C129.385 241.658 129.981 241.062 130.715 241.062C131.45 241.063 132.045 241.658 132.045 242.392Z" fill="white"/>
<path d="M141.001 228.701C141.001 229.436 140.405 230.032 139.67 230.032C138.936 230.032 138.34 229.436 138.34 228.701C138.34 227.967 138.936 227.371 139.67 227.371C140.405 227.371 141.001 227.967 141.001 228.701Z" fill="white"/>
<path d="M157.119 227.454C156.879 227.945 156.605 228.46 156.284 229.009C156.261 228.918 156.25 228.803 156.25 228.7C156.25 228.129 156.616 227.648 157.119 227.454Z" fill="white"/>
<path d="M96.2252 268.981C96.2252 269.715 95.6292 270.311 94.8948 270.311C94.1604 270.311 93.5645 269.715 93.5645 268.981C93.5645 268.246 94.1604 267.65 94.8948 267.65C95.6292 267.65 96.2252 268.246 96.2252 268.981Z" fill="white"/>
<path d="M114.135 268.981C114.135 269.715 113.539 270.311 112.805 270.311C112.071 270.311 111.475 269.715 111.475 268.981C111.475 268.246 112.071 267.65 112.805 267.65C113.539 267.65 114.135 268.246 114.135 268.981Z" fill="white"/>
<path d="M105.18 255.288C105.18 256.023 104.584 256.619 103.85 256.619C103.116 256.619 102.52 256.023 102.52 255.288C102.52 254.554 103.116 253.958 103.85 253.958C104.584 253.959 105.18 254.554 105.18 255.288Z" fill="white"/>
<path d="M123.088 255.288C123.088 256.023 122.492 256.619 121.758 256.619C121.024 256.619 120.428 256.023 120.428 255.288C120.428 254.554 121.024 253.958 121.758 253.958C122.494 253.959 123.088 254.554 123.088 255.288Z" fill="white"/>
<path d="M92.6921 270.483C94.448 278.236 105.46 284.073 131.808 301.37C135.454 303.763 159.268 282.576 155.505 279.821C150.766 276.349 131.625 263.904 130.11 263.171C117.335 256.986 91.5013 265.223 92.6921 270.483Z" fill="#D3766A"/>
<path d="M150.309 276.177C150.309 276.177 161.693 282.962 166.571 288.378C173.102 295.631 175.755 304.58 176.64 308.398C178.489 316.367 177.447 336.913 171.477 337.646C166.073 338.31 168.198 317.361 168.198 317.361C168.198 317.361 169.556 339.077 162.902 338.679C156.248 338.281 160.099 314.103 160.099 314.103C160.099 314.103 160.994 336.447 154.197 334.951C149.061 333.821 151.314 311.726 151.314 311.726C151.314 311.726 151.95 330.937 146.617 330.002C140.725 328.969 141.526 308.443 141.526 308.443C128.372 303.785 124.014 296.186 121.558 290.412C120.963 289.014 150.309 276.177 150.309 276.177Z" fill="#D3766A"/>
<path d="M168.21 309.82C168.461 312.365 168.734 314.939 168.758 317.497C168.782 320.056 168.717 322.618 168.504 325.167C167.98 331.421 166.673 335.254 166.728 335.008C168.027 329.201 168.08 320.039 168.055 317.479C168.03 314.926 168.134 312.371 168.111 309.816C168.111 309.753 168.204 309.759 168.21 309.82Z" fill="#263238"/>
<path d="M158.97 309.74C159.15 313.004 159.45 316.238 159.487 319.511C159.523 322.767 159.273 325.86 159.085 329.111C159.071 329.362 158.941 329.272 158.946 329.02C159.004 325.764 158.806 322.75 158.826 319.495C158.845 316.249 158.991 312.981 158.893 309.739C158.891 309.688 158.967 309.691 158.97 309.74Z" fill="#263238"/>
<path d="M151.051 308.246C151.583 313.22 151.196 318.286 150.697 323.246C150.672 323.494 150.518 323.359 150.528 323.105C150.739 318.121 150.941 314.212 150.877 308.265C150.877 308.172 151.04 308.142 151.051 308.246Z" fill="#263238"/>
<path d="M156.136 277.209C156.136 277.209 123.069 299.152 122.742 299.009C122.415 298.865 92.656 278.678 92.6914 270.484C92.7269 262.29 118.748 257.849 130.09 263.112C141.43 268.374 156.136 277.209 156.136 277.209Z" fill="#268BBF"/>
<path d="M145.69 273.04C144.41 273.701 133.942 281.066 131.702 282.715C129.461 284.364 120.24 291.017 118.072 292.908C117.976 292.993 118.074 293.14 118.187 293.074C120.667 291.621 129.986 284.936 132.304 283.303C134.62 281.669 144.812 274.157 145.817 273.18C145.902 273.098 145.778 272.995 145.69 273.04Z" fill="#263238"/>
<path d="M96.2252 268.982C96.2252 269.716 95.6292 270.312 94.8948 270.312C94.1604 270.312 93.5645 269.716 93.5645 268.982C93.5645 268.247 94.1604 267.651 94.8948 267.651C95.6292 267.651 96.2252 268.247 96.2252 268.982ZM112.805 267.651C112.071 267.651 111.475 268.247 111.475 268.982C111.475 269.716 112.071 270.312 112.805 270.312C113.539 270.312 114.135 269.716 114.135 268.982C114.135 268.247 113.539 267.651 112.805 267.651ZM130.715 267.651C129.981 267.651 129.385 268.247 129.385 268.982C129.385 269.716 129.981 270.312 130.715 270.312C131.45 270.312 132.045 269.716 132.045 268.982C132.045 268.247 131.45 267.651 130.715 267.651ZM103.85 280.547C103.116 280.547 102.52 281.143 102.52 281.877C102.52 282.611 103.116 283.207 103.85 283.207C104.585 283.207 105.181 282.611 105.181 281.877C105.181 281.141 104.585 280.547 103.85 280.547ZM121.761 280.547C121.026 280.547 120.43 281.143 120.43 281.877C120.43 282.611 121.026 283.207 121.761 283.207C122.495 283.207 123.091 282.611 123.091 281.877C123.09 281.141 122.495 280.547 121.761 280.547ZM139.67 280.547C138.935 280.547 138.339 281.143 138.339 281.877C138.339 282.611 138.935 283.207 139.67 283.207C140.404 283.207 141 282.611 141 281.877C141 281.141 140.404 280.547 139.67 280.547Z" fill="white"/>
<path d="M116.158 260.984C118.889 260.733 126.369 260.595 132.208 264.017C132.273 264.055 132.236 264.139 132.166 264.108C127.089 261.912 118.868 261.036 116.175 261.083C116.104 261.085 116.089 260.991 116.158 260.984Z" fill="#263238"/>
<path d="M154.095 278.562L156.091 277.141L156.092 277.276C154.097 276.073 152.066 274.928 150.057 273.752C148.04 272.586 146.012 271.444 143.971 270.324C139.909 268.05 135.796 265.869 131.604 263.866L131.172 263.659L131.426 263.259C134.104 259.04 136.865 254.887 139.8 250.849C142.731 246.811 145.794 242.863 149.117 239.143C146.061 243.083 143.144 247.116 140.33 251.222C137.53 255.334 134.752 259.47 132.151 263.705L131.973 263.099C136.181 265.137 140.283 267.374 144.323 269.708C146.332 270.896 148.328 272.105 150.309 273.336C152.296 274.557 154.241 275.848 156.181 277.143L156.287 277.213L156.182 277.279L154.095 278.562Z" fill="#263238"/>
<path d="M142.201 248.048C142.622 247.59 143.04 247.132 143.48 246.7C143.911 246.257 144.371 245.846 144.83 245.436C145.764 244.63 146.723 243.855 147.795 243.205C147.019 244.191 146.128 245.046 145.206 245.866C144.737 246.267 144.267 246.668 143.766 247.031C143.266 247.394 142.771 247.773 142.201 248.048Z" fill="#263238"/>
<path d="M113.992 292.769C115.284 293.427 116.471 294.222 117.637 295.05C118.79 295.895 119.916 296.775 120.951 297.798C119.665 297.145 118.474 296.348 117.306 295.516C116.152 294.669 115.021 293.787 113.992 292.769Z" fill="#263238"/>
<path d="M157.983 222.66C158.072 224.606 161.434 233.826 167.255 234.398C170.248 234.692 171.687 224.26 171.687 224.26L171.936 223.512L175.41 213.039L161.927 202.445C161.927 202.445 157.957 222.105 157.983 222.66Z" fill="#D3766A"/>
<path d="M160.453 209.784C162.83 218.096 169.011 222.066 171.938 223.513L175.412 213.039L161.92 202.441C161.92 202.441 161.242 205.798 160.453 209.784Z" fill="#263238"/>
<path d="M192.037 198.04C191.491 217.396 179.835 219.255 175.662 219.133C171.873 219.022 158.986 218.162 157.528 198.853C156.072 179.543 165.244 173.679 173.923 173.474C182.603 173.269 192.583 178.683 192.037 198.04Z" fill="#D3766A"/>
<path d="M189.24 193.363C188.793 193.271 188.394 193.111 187.96 192.975C187.471 192.821 187.065 192.747 186.731 192.33C186.551 192.106 186.604 191.687 186.805 191.493C187.274 191.038 187.92 191.08 188.517 191.241C189.165 191.417 189.619 191.718 190.01 192.262C190.388 192.787 189.832 193.484 189.24 193.363Z" fill="#263238"/>
<path d="M176.892 192.341C177.35 192.327 177.769 192.239 178.219 192.179C178.728 192.112 179.14 192.111 179.541 191.756C179.756 191.566 179.778 191.144 179.613 190.919C179.23 190.39 178.586 190.318 177.971 190.375C177.303 190.437 176.803 190.654 176.325 191.123C175.861 191.575 176.289 192.358 176.892 192.341Z" fill="#263238"/>
<path d="M179.037 197.431C179.03 197.381 178.93 197.487 178.928 197.541C178.887 198.859 178.617 200.362 177.399 200.723C177.361 200.735 177.361 200.801 177.405 200.798C178.87 200.686 179.208 198.687 179.037 197.431Z" fill="#263238"/>
<path d="M177.95 195.982C175.844 195.686 175.408 199.92 177.36 200.195C179.279 200.463 179.715 196.23 177.95 195.982Z" fill="#263238"/>
<path d="M177.096 196.121C176.701 196.323 176.295 196.708 175.846 196.707C175.324 196.705 174.981 196.222 174.688 195.761C174.657 195.713 174.617 195.746 174.61 195.802C174.514 196.612 174.741 197.477 175.599 197.687C176.381 197.879 177.024 197.219 177.311 196.424C177.363 196.276 177.254 196.039 177.096 196.121Z" fill="#263238"/>
<path d="M186.278 197.95C186.294 197.901 186.373 198.024 186.366 198.077C186.179 199.383 186.185 200.91 187.322 201.476C187.357 201.493 187.346 201.559 187.304 201.548C185.878 201.184 185.891 199.157 186.278 197.95Z" fill="#263238"/>
<path d="M187.598 196.712C189.723 196.785 189.42 201.031 187.451 200.962C185.514 200.895 185.817 196.65 187.598 196.712Z" fill="#263238"/>
<path d="M188.465 197.053C188.784 197.303 189.088 197.735 189.487 197.79C189.949 197.853 190.325 197.418 190.654 196.999C190.688 196.956 190.719 196.994 190.716 197.05C190.681 197.863 190.353 198.689 189.561 198.788C188.84 198.88 188.368 198.146 188.232 197.324C188.206 197.173 188.336 196.952 188.465 197.053Z" fill="#263238"/>
<path d="M177.46 207.707C177.659 208.1 177.82 208.605 178.261 208.797C178.683 208.981 179.258 208.958 179.709 208.94C179.754 208.937 179.779 208.994 179.741 209.022C179.254 209.392 178.47 209.459 177.926 209.161C177.395 208.87 177.281 208.285 177.319 207.723C177.325 207.643 177.43 207.649 177.46 207.707Z" fill="#263238"/>
<path d="M183.862 203.619C183.862 203.619 183.954 205.605 183.87 206.53C183.862 206.617 180.941 206.974 179.16 204.593C179.094 204.504 179.23 204.413 179.309 204.478C180.447 205.484 181.774 205.838 183.22 205.993C183.308 205.743 182.948 202.598 183.095 202.601C183.604 202.603 184.57 203.038 185.152 203.268C185.079 199.125 184.343 195.029 184.332 190.903C184.334 190.755 184.548 190.731 184.579 190.865C185.654 195.105 185.843 199.869 186.028 204.145C186.058 204.678 184.217 203.81 183.862 203.619Z" fill="#263238"/>
<path d="M182.615 206.316C182.615 206.316 181.69 207.315 180.543 207.587C180.121 207.689 179.676 207.698 179.231 207.525C178.315 207.174 178.387 206.306 178.641 205.585C178.848 204.991 179.188 204.497 179.188 204.497C179.188 204.497 180.423 205.938 182.615 206.316Z" fill="#263238"/>
<path d="M180.543 207.587C180.121 207.689 179.676 207.698 179.231 207.525C178.315 207.174 178.387 206.306 178.641 205.585C179.64 205.8 180.565 206.595 180.543 207.587Z" fill="#FF9BBC"/>
<path d="M163.07 174.649C164.823 174.357 168.149 165.532 162.994 160.016C157.916 154.583 149.186 157.973 150.956 166.08C152.073 171.203 159.362 175.265 163.07 174.649Z" fill="#263238"/>
<path d="M154.709 157.846C152.586 158.988 150.995 160.883 150.123 162.96C149.243 165.058 149.465 167.42 150.801 169.196C152.074 171.041 154.082 172.326 156.195 173.271C157.267 173.73 158.388 174.097 159.539 174.358C160.687 174.636 161.871 174.808 163.069 174.65C161.929 175.106 160.655 175.071 159.439 175.001C158.215 174.886 156.999 174.641 155.826 174.239C153.5 173.434 151.225 172.088 149.718 169.962C148.982 168.899 148.458 167.626 148.379 166.303C148.302 164.983 148.603 163.67 149.184 162.537C150.329 160.268 152.375 158.517 154.709 157.846Z" fill="#263238"/>
<path d="M158.666 198.443C162.188 199.373 164.201 191.288 164.201 191.288C164.201 191.288 179.813 190.735 182.765 178.477C182.765 178.477 184.325 186.749 191.844 191.4C191.844 191.4 193.126 177.701 182.674 173.614C182.674 173.614 169.916 166.947 160.961 176.582C152.007 186.216 156.301 197.82 158.666 198.443Z" fill="#263238"/>
<path d="M182.942 177.564C182.894 179.488 182.356 181.397 181.504 183.149C180.652 184.9 179.456 186.515 177.953 187.785C177.604 188.133 177.172 188.378 176.785 188.679L176.189 189.111C175.98 189.238 175.764 189.353 175.549 189.47C175.115 189.697 174.692 189.943 174.252 190.153C173.799 190.335 173.341 190.505 172.885 190.671C172.656 190.752 172.431 190.844 172.2 190.916L171.491 191.086L170.081 191.422C169.125 191.556 168.163 191.641 167.211 191.711C168.139 191.445 169.076 191.277 169.983 191.006L171.329 190.559L171.999 190.338C172.217 190.25 172.427 190.142 172.641 190.045C173.065 189.845 173.491 189.649 173.92 189.464C174.332 189.246 174.725 188.992 175.128 188.759L175.73 188.406L176.288 187.988C176.649 187.698 177.055 187.461 177.381 187.128C178.817 185.943 179.957 184.441 180.913 182.839C181.387 182.031 181.784 181.176 182.122 180.294C182.479 179.415 182.742 178.502 182.942 177.564Z" fill="#263238"/>
<path d="M174.449 204.047C171.727 203.449 169.643 201.063 169.548 198.152C169.436 194.709 172.145 191.817 175.587 191.705C179.03 191.591 181.922 194.3 182.034 197.742C182.146 201.183 179.439 204.076 175.996 204.189C175.463 204.205 174.946 204.156 174.449 204.047ZM176.954 192.661C176.524 192.566 176.074 192.524 175.614 192.539C172.632 192.636 170.286 195.142 170.382 198.124C170.481 201.105 172.987 203.456 175.968 203.355C178.95 203.257 181.296 200.752 181.2 197.77C181.117 195.247 179.312 193.18 176.954 192.661Z" fill="#268BBF"/>
<path d="M188.718 205.398C186.385 204.885 184.792 202.028 185.116 198.785C185.28 197.148 185.9 195.652 186.864 194.571C187.859 193.452 189.102 192.906 190.364 193.033C191.631 193.156 192.737 193.941 193.492 195.234C194.221 196.484 194.534 198.074 194.37 199.71C194.027 203.136 191.673 205.716 189.123 205.462C188.986 205.449 188.852 205.427 188.718 205.398ZM190.595 193.913C190.492 193.891 190.388 193.873 190.282 193.863C189.294 193.765 188.301 194.213 187.486 195.126C186.641 196.077 186.093 197.405 185.946 198.868C185.65 201.837 187.104 204.424 189.205 204.631C191.299 204.84 193.242 202.595 193.54 199.627C193.686 198.165 193.413 196.754 192.771 195.655C192.221 194.711 191.457 194.103 190.595 193.913Z" fill="#268BBF"/>
<path d="M181.753 198.44L181.283 197.75C182.305 197.054 184.591 196.206 185.947 197.983L185.283 198.489C184.07 196.896 181.847 198.377 181.753 198.44Z" fill="#268BBF"/>
<path d="M153.901 197.271L153.201 196.816C153.414 196.49 155.33 193.624 157.216 193.507C158.978 193.405 170.012 195.562 170.48 195.653L170.319 196.472C167.156 195.851 158.628 194.257 157.268 194.341C156.022 194.417 154.416 196.482 153.901 197.271Z" fill="#268BBF"/>
<path d="M161.029 198.029C161.029 198.029 157.522 191.541 154.625 192.724C151.727 193.906 153.881 202.974 156.944 204.535C160.005 206.094 161.504 203.288 161.504 203.288L161.029 198.029Z" fill="#D3766A"/>
<path d="M155.308 195.308C155.257 195.298 155.239 195.369 155.281 195.392C157.419 196.558 158.361 198.774 158.94 201.027C158.368 200.119 157.512 199.56 156.309 200.226C156.246 200.261 156.29 200.358 156.355 200.353C157.297 200.262 157.941 200.498 158.477 201.304C158.857 201.876 159.081 202.57 159.326 203.208C159.409 203.421 159.783 203.354 159.732 203.115C159.729 203.098 159.724 203.08 159.72 203.062C160.106 200.207 158.346 195.95 155.308 195.308Z" fill="#263238"/>
<path d="M157.388 203.862C157.457 204.316 157.88 204.629 158.334 204.56C158.788 204.491 159.101 204.068 159.032 203.614C158.963 203.16 158.54 202.848 158.086 202.916C157.633 202.985 157.32 203.408 157.388 203.862Z" fill="#455A64"/>
<path d="M157.821 203.797C157.853 204.012 158.054 204.159 158.268 204.127C158.483 204.095 158.631 203.895 158.599 203.68C158.567 203.465 158.367 203.318 158.152 203.35C157.937 203.382 157.788 203.582 157.821 203.797Z" fill="#263238"/>
<path d="M156.062 202.689C156.11 203.01 156.409 203.231 156.731 203.183C157.052 203.135 157.273 202.835 157.224 202.514C157.176 202.192 156.876 201.971 156.555 202.021C156.234 202.069 156.012 202.367 156.062 202.689Z" fill="#455A64"/>
<path d="M43.3802 307.504L428.643 307.504V293.804L43.3802 293.804V307.504Z" fill="#37474F"/>
<path d="M57.1708 321.206L414.854 321.206V307.509L57.1708 307.509V321.206Z" fill="#455A64"/>
<path d="M414.825 513.444H420.363L404.245 321.206H390.111L414.825 513.444Z" fill="#455A64"/>
<path d="M390.113 321.209L391.769 334.071H405.318L404.244 321.209H390.113Z" fill="#263238"/>
<path d="M57.1998 513.444H51.6621L67.7798 321.206H81.9139L57.1998 513.444Z" fill="#455A64"/>
<path d="M81.9118 321.209L80.2566 334.071H66.707L67.7812 321.209H81.9118Z" fill="#263238"/>
<path d="M264.251 290.431H189.064V293.803H264.251V290.431Z" fill="#C7C7C7"/>
<path d="M264.251 290.431H226.408V293.803H264.251V290.431Z" fill="#A6A6A6"/>
<path d="M230.479 293.799H303.753L313.333 244.034H240.059L230.479 293.799Z" fill="#C7C7C7"/>
<path d="M267.447 268.917C267.232 271.38 269.054 273.377 271.517 273.377C273.98 273.377 276.152 271.38 276.367 268.917C276.582 266.453 274.76 264.457 272.297 264.457C269.833 264.457 267.662 266.453 267.447 268.917Z" fill="#A6A6A6"/>
<path d="M346.477 192.84L337.73 145.51L290.4 154.256L299.146 201.586L346.477 192.84Z" fill="#455A64"/>
<path d="M316.384 187.031C316.758 189.315 315.209 191.469 312.925 191.843C310.64 192.217 308.486 190.668 308.112 188.384C307.738 186.099 309.287 183.945 311.572 183.571C313.856 183.197 316.011 184.746 316.384 187.031Z" fill="white"/>
<path d="M312.979 166.202L309.82 166.719L313.221 187.51L316.379 186.994L312.979 166.202Z" fill="white"/>
<path d="M328.788 178.825C329.162 181.109 327.613 183.263 325.329 183.637C323.044 184.011 320.89 182.463 320.516 180.178C320.143 177.894 321.691 175.74 323.976 175.366C326.259 174.992 328.414 176.541 328.788 178.825Z" fill="white"/>
<path d="M325.389 157.986L322.23 158.503L325.633 179.294L328.792 178.777L325.389 157.986Z" fill="white"/>
<path d="M325.386 158.029L310.27 169.488L309.814 166.709L324.931 155.249L325.386 158.029Z" fill="white"/>
<path d="M326.243 163.268L311.126 174.729L310.672 171.949L325.789 160.488L326.243 163.268Z" fill="white"/>
<path d="M355.872 221.939L319.879 204.967L341.665 158.764L368.39 171.365L373.508 184.538L355.872 221.939Z" fill="#EBEBEB"/>
<path d="M368.39 171.365L373.507 184.538L364.238 180.169L368.39 171.365Z" fill="#DBDBDB"/>
<path d="M340.962 169.35L360.975 178.786L361.534 177.599L341.522 168.163L340.962 169.35Z" fill="#DBDBDB"/>
<path d="M339.548 172.345L359.561 181.781L360.12 180.594L340.108 171.158L339.548 172.345Z" fill="#DBDBDB"/>
<path d="M338.136 175.34L358.148 184.776L358.708 183.59L338.696 174.153L338.136 175.34Z" fill="#DBDBDB"/>
<path d="M336.727 178.336L366.049 192.162L366.608 190.975L337.287 177.149L336.727 178.336Z" fill="#DBDBDB"/>
<path d="M335.315 181.329L364.637 195.155L365.196 193.968L335.875 180.142L335.315 181.329Z" fill="#DBDBDB"/>
<path d="M333.903 184.323L363.225 198.149L363.784 196.962L334.463 183.136L333.903 184.323Z" fill="#DBDBDB"/>
<path d="M332.491 187.317L361.812 201.143L362.372 199.956L333.051 186.13L332.491 187.317Z" fill="#DBDBDB"/>
<path d="M331.079 190.312L360.4 204.138L360.96 202.951L331.639 189.125L331.079 190.312Z" fill="#DBDBDB"/>
<path d="M329.667 193.306L358.988 207.132L359.548 205.945L330.227 192.119L329.667 193.306Z" fill="#DBDBDB"/>
<path d="M328.257 196.302L357.578 210.127L358.138 208.941L328.816 195.115L328.257 196.302Z" fill="#DBDBDB"/>
<path d="M326.847 199.295L356.168 213.121L356.728 211.934L327.406 198.108L326.847 199.295Z" fill="#DBDBDB"/>
<path d="M325.433 202.292L354.754 216.118L355.314 214.931L325.992 201.105L325.433 202.292Z" fill="#DBDBDB"/>
<path d="M354.179 235.945L363.449 191.841L311.46 180.913L302.189 225.016L354.179 235.945Z" fill="#268BBF"/>
<path d="M327.238 217.361L356.792 223.572L345.843 202.254L327.238 217.361Z" fill="#268BBF"/>
<g opacity="0.3">
<path d="M327.238 217.361L356.792 223.572L345.843 202.254L327.238 217.361Z" fill="white"/>
</g>
<path d="M312.688 214.32L338.896 219.827L328.284 205.214L312.688 214.32Z" fill="#268BBF"/>
<g opacity="0.5">
<path d="M312.688 214.32L338.896 219.827L328.284 205.214L312.688 214.32Z" fill="white"/>
</g>
<path d="M356.777 223.583L304.787 212.655L302.182 225.05L354.171 235.978L356.777 223.583Z" fill="#268BBF"/>
<g opacity="0.5">
<path d="M356.777 223.583L304.787 212.655L302.182 225.05L354.171 235.978L356.777 223.583Z" fill="white"/>
</g>
<path opacity="0.9" d="M316.84 201.056C319.547 202.184 322.485 200.267 322.543 197.334C322.575 195.695 321.572 194.157 320.059 193.528C317.351 192.402 314.415 194.318 314.356 197.251C314.323 198.889 315.327 200.427 316.84 201.056Z" fill="white"/>
<path d="M259.838 229.985V227.697" stroke="#263238" stroke-width="1.14391" stroke-miterlimit="10"/>
<path d="M259.838 223.96V190.942" stroke="#263238" stroke-width="1.14391" stroke-miterlimit="10" stroke-dasharray="4.98 3.74"/>
<path d="M259.838 189.072V186.785H262.126" stroke="#263238" stroke-width="1.14391" stroke-miterlimit="10"/>
<path d="M265.445 186.785H279.289" stroke="#263238" stroke-width="1.14391" stroke-miterlimit="10" stroke-dasharray="4.43 3.32"/>
<path d="M280.951 186.785H283.239" stroke="#263238" stroke-width="1.14391" stroke-miterlimit="10"/>
<path d="M259.838 232.028C261.026 232.028 261.989 231.065 261.989 229.877C261.989 228.689 261.026 227.727 259.838 227.727C258.65 227.727 257.688 228.689 257.688 229.877C257.688 231.065 258.65 232.028 259.838 232.028Z" fill="#263238"/>
<path d="M283.131 188.935C284.319 188.935 285.282 187.973 285.282 186.785C285.282 185.597 284.319 184.634 283.131 184.634C281.943 184.634 280.98 185.597 280.98 186.785C280.98 187.973 281.943 188.935 283.131 188.935Z" fill="#263238"/>
<path d="M381.52 186.004H383.807" stroke="#263238" stroke-width="1.14391" stroke-miterlimit="10"/>
<path d="M387.678 186.004H403.793" stroke="#263238" stroke-width="1.14391" stroke-miterlimit="10" stroke-dasharray="5.16 3.87"/>
<path d="M405.725 186.005H408.012V183.717" stroke="#263238" stroke-width="1.14391" stroke-miterlimit="10"/>
<path d="M408.014 180.337V134.689" stroke="#263238" stroke-width="1.14391" stroke-miterlimit="10" stroke-dasharray="4.51 3.38"/>
<path d="M408.012 132.999V130.711H405.725" stroke="#263238" stroke-width="1.14391" stroke-miterlimit="10"/>
<path d="M401.345 130.711H393.312" stroke="#263238" stroke-width="1.14391" stroke-miterlimit="10" stroke-dasharray="5.84 4.38"/>
<path d="M391.122 130.711H388.834" stroke="#263238" stroke-width="1.14391" stroke-miterlimit="10"/>
<path d="M381.629 188.155C380.442 188.155 379.479 187.192 379.479 186.005C379.479 184.817 380.442 183.854 381.629 183.854C382.816 183.854 383.78 184.817 383.78 186.005C383.78 187.192 382.816 188.155 381.629 188.155Z" fill="#263238"/>
<path d="M388.942 128.561C387.754 128.561 386.791 129.524 386.791 130.712C386.791 131.899 387.754 132.862 388.942 132.862C390.129 132.862 391.092 131.899 391.092 130.712C391.092 129.523 390.129 128.561 388.942 128.561Z" fill="#263238"/>
</svg>
