<svg width="473" height="358" viewBox="0 0 473 358" fill="none" xmlns="http://www.w3.org/2000/svg">
<path d="M107.387 278.838H343.235V112.404C343.235 107.841 339.537 104.142 334.973 104.142H115.649C111.086 104.142 107.387 107.841 107.387 112.404V278.838Z" fill="url(#paint0_linear_217_2596)"/>
<path d="M115.723 247.084H334.479V112.699H115.723V247.084Z" fill="url(#paint1_linear_217_2596)"/>
<path d="M92.7442 113.319H37.0996L37.1964 112.824C38.0895 108.241 42.1344 104.914 46.8125 104.914C47.4876 104.914 48.1608 104.984 48.8184 105.123C51.7174 99.6138 57.3496 96.2056 63.595 96.2056C68.9176 96.2056 73.9341 98.76 77.0798 103.054C78.2249 102.706 79.418 102.529 80.6259 102.529C86.6803 102.529 91.7456 106.866 92.6692 112.841L92.7442 113.319ZM38.1252 112.487H91.763C90.7174 107.25 86.014 103.36 80.6277 103.36C79.4049 103.36 78.2014 103.553 77.0502 103.936L76.7563 104.033L76.5792 103.781C73.6035 99.558 68.7501 97.0376 63.5958 97.0376C57.5581 97.0376 52.1238 100.39 49.4124 105.788L49.2632 106.084L48.9414 106.005C48.2481 105.834 47.5329 105.747 46.8134 105.747C42.7022 105.746 39.1264 108.551 38.1252 112.487Z" fill="#6AAFE8"/>
<path d="M297.099 44.8266L296.91 44.7298C277.164 34.648 279.816 15.1236 279.845 14.9273L279.898 14.5724H280.256C292.811 14.5724 296.757 10.5266 296.795 10.4856L297.101 10.1611L297.407 10.4882C297.444 10.5274 301.389 14.5732 313.944 14.5732H314.303L314.356 14.9282C314.385 15.1244 317.037 34.6488 297.29 44.7307L297.099 44.8266ZM280.629 15.4026C280.378 18.0469 279.547 34.8076 297.099 43.8917C314.652 34.8076 313.82 18.0469 313.571 15.4026C302.67 15.3346 298.233 12.2979 297.099 11.335C295.966 12.2987 291.529 15.3346 280.629 15.4026Z" fill="#6AAFE8"/>
<path d="M405.147 304.313C402.175 290.73 408.597 287.34 414.808 284.063C419.883 281.384 424.677 278.853 424.421 270.849C424.083 260.237 431.312 256.376 437.69 252.97C442.435 250.436 446.916 248.043 447.585 243.213C449.194 231.595 459.911 217.154 460.018 217.01L460.685 217.508C460.577 217.649 449.988 231.921 448.409 243.327C447.683 248.575 443.019 251.065 438.082 253.703C431.616 257.156 424.931 260.726 425.252 270.822C425.525 279.345 420.274 282.117 415.196 284.797C408.987 288.074 403.122 291.169 405.959 304.134L405.147 304.313Z" fill="url(#paint2_linear_217_2596)"/>
<path d="M408.41 300.851C408.268 300.851 408.126 300.846 407.982 300.836C405.295 300.637 402.662 298.596 399.695 294.415L399.51 294.152L399.717 293.907C399.765 293.849 404.521 288.053 402.775 277.171C402.367 274.632 401.823 272.688 401.385 271.128C400.746 268.851 400.324 267.347 401.031 266.146C401.928 264.622 404.353 263.823 411.181 262.198C418.453 260.466 420.884 252.273 423.029 245.044C425.049 238.236 426.964 231.815 432.621 232.014C437.821 232.213 445.717 224.065 452.683 216.883C459.148 210.219 465.248 203.94 469.15 204.065C470.087 204.099 470.877 204.491 471.499 205.232C474.976 209.373 471.733 215.657 468.596 221.733C465.919 226.916 463.39 231.813 465.016 235.042C467.062 239.099 467.348 242.772 465.844 245.658C464.066 249.076 459.918 251.279 453.516 252.207C447.664 253.057 447.032 259.439 446.361 266.197C445.58 274.084 444.694 283.021 434.873 283.872C427.58 284.503 422.664 289.623 418.326 294.139C414.878 297.729 411.88 300.851 408.41 300.851ZM400.553 294.185C403.256 297.928 405.707 299.834 408.043 300.007C411.307 300.249 414.282 297.15 417.727 293.561C422.166 288.938 427.196 283.698 434.801 283.041C443.935 282.25 444.747 274.046 445.535 266.113C446.238 259.021 446.9 252.323 453.398 251.381C459.52 250.494 463.459 248.44 465.108 245.272C466.482 242.632 466.196 239.222 464.275 235.414C462.457 231.806 465.08 226.725 467.856 221.349C470.869 215.515 473.984 209.482 470.862 205.763C470.392 205.202 469.822 204.918 469.12 204.892C465.594 204.775 459.612 210.932 453.279 217.459C445.94 225.026 438.354 232.845 432.802 232.846C432.732 232.846 432.661 232.845 432.591 232.843C427.573 232.656 425.836 238.506 423.826 245.278C421.617 252.723 419.113 261.161 411.373 263.003C405.198 264.474 402.496 265.295 401.748 266.565C401.221 267.461 401.585 268.756 402.186 270.902C402.629 272.483 403.181 274.449 403.596 277.037C405.218 287.151 401.492 292.92 400.553 294.185Z" fill="url(#paint3_linear_217_2596)"/>
<path d="M408.715 298.006C408.618 298.006 408.52 298.001 408.424 297.992C404.018 297.591 400.631 287.94 397.355 278.607C395.801 274.18 394.333 269.998 392.903 267.315C391.795 265.232 390.385 263.061 389.023 260.962C385.394 255.371 381.641 249.588 382.862 244.515C383.504 241.847 385.42 239.625 388.719 237.724C395.937 233.563 394.828 231.214 392.395 226.066C390.608 222.288 388.162 217.114 388.068 208.972C388.028 205.472 387.947 202.446 387.874 199.777C387.644 191.195 387.529 186.888 389.361 185.33C390.12 184.685 391.181 184.519 392.701 184.807C395.3 185.302 396.423 187.401 397.613 189.622C399.131 192.456 400.852 195.668 406.043 196.755C410.916 197.774 415.603 199.164 416.895 202.402C417.805 204.678 416.945 207.672 414.263 211.555C413.614 212.496 413.39 213.297 413.582 214.002C414.006 215.566 416.434 216.699 419.246 218.01C423.245 219.878 428.224 222.201 429.635 227.01C430.771 230.887 429.456 235.723 425.615 241.793C416.528 256.156 416.894 265.896 417.215 274.489C417.454 280.857 417.68 286.871 413.84 293.591C412.146 296.558 410.466 298.005 408.715 298.006ZM391.4 185.502C390.752 185.502 390.263 185.654 389.899 185.962C388.371 187.263 388.489 191.7 388.705 199.755C388.777 202.427 388.858 205.456 388.899 208.962C388.991 216.923 391.393 222.002 393.145 225.711C395.56 230.819 397.017 233.901 389.133 238.444C386.043 240.226 384.255 242.276 383.669 244.711C382.532 249.437 386.186 255.066 389.72 260.511C391.092 262.626 392.511 264.812 393.636 266.926C395.096 269.666 396.573 273.876 398.138 278.334C401.178 286.996 404.624 296.814 408.498 297.167C409.976 297.298 411.531 295.96 413.119 293.181C416.841 286.667 416.629 281.039 416.385 274.521C416.059 265.808 415.688 255.931 424.913 241.351C428.618 235.493 429.902 230.879 428.837 227.245C427.533 222.795 422.943 220.653 418.894 218.764C415.896 217.366 413.305 216.157 412.78 214.221C412.521 213.264 412.782 212.239 413.58 211.083C416.09 207.447 416.922 204.709 416.124 202.711C414.973 199.829 410.296 198.495 405.873 197.569C400.301 196.402 398.405 192.859 396.88 190.014C395.738 187.884 394.754 186.044 392.545 185.625C392.117 185.543 391.737 185.502 391.4 185.502Z" fill="url(#paint4_linear_217_2596)"/>
<path d="M408.801 303.156L408.009 302.905C412.45 288.868 404.416 257.375 402.023 249.711C400.845 245.942 401.933 240.268 402.986 234.782C404.346 227.695 405.751 220.368 402.167 217.621C395.439 212.462 395.793 200.527 395.811 200.021L396.641 200.052C396.638 200.171 396.286 212.063 402.673 216.961C406.664 220.02 405.209 227.604 403.802 234.938C402.77 240.324 401.702 245.892 402.816 249.462C405.778 258.941 413.231 289.153 408.801 303.156Z" fill="url(#paint5_linear_217_2596)"/>
<path d="M375.211 211.981C373.362 207.288 366.142 208.001 366.806 214.636C367.469 221.272 372.114 228.35 365.036 239.632C357.957 250.913 374.105 253.126 379.856 260.204C385.608 267.282 387.599 277.015 392.466 283.21C397.332 289.404 400.651 304.225 404.631 298.694C408.614 293.164 404.866 285.973 405.308 276.018C405.75 266.064 414.61 259.762 405.75 253.347C396.889 246.931 387.978 244.965 390.904 230.497C392.194 224.113 380.962 226.581 375.211 211.981Z" fill="url(#paint6_linear_217_2596)"/>
<path d="M411.079 299.975C411.03 299.681 406.111 270.522 395.097 262.531C383.866 254.383 381.825 246.855 377.902 229.104L378.714 228.925C382.589 246.457 384.599 253.889 395.586 261.86C406.875 270.051 411.7 298.627 411.9 299.84L411.079 299.975Z" fill="white"/>
<path d="M401.14 298.93C401.14 298.93 404.413 290.837 398.458 279.333C392.501 267.829 387.681 269.598 402.039 260.748C416.396 251.899 402.128 224.023 414.35 220.483C426.572 216.943 437.191 171.825 446.484 177.57C455.777 183.315 443.386 205.439 450.024 212.076C456.661 218.714 457.547 227.16 443.829 233.998C430.112 240.837 453.564 266.944 434.981 274.908C416.395 282.872 421.726 314.102 401.14 298.93Z" fill="url(#paint7_linear_217_2596)"/>
<path d="M406.818 307.513C406.797 307.409 404.799 297.047 411.113 283.657C417.545 270.016 420.623 255.104 419.348 243.767C418.657 237.628 422.59 235.226 426.394 232.903C430.139 230.617 434.011 228.252 433.798 222.202C433.605 216.737 435.918 203.927 436.016 203.384L436.834 203.533C436.81 203.665 434.438 216.798 434.629 222.173C434.859 228.708 430.776 231.202 426.827 233.611C423.08 235.9 419.542 238.059 420.174 243.673C421.466 255.157 418.359 270.237 411.864 284.01C405.675 297.136 407.612 307.247 407.633 307.348L406.818 307.513Z" fill="white"/>
<path d="M421.835 250.333C426.008 246.457 431.527 245.898 430.377 251.648C429.228 257.398 425.284 259.041 427.257 262.655C429.228 266.27 432.513 269.883 426.928 274.32C421.342 278.755 418.221 279.247 416.578 287.628C414.934 296.005 415.263 301.727 408.034 302.085C400.805 302.442 403.598 291.898 405.898 287.133C405.898 287.133 409.348 281.697 407.048 274.558C404.748 267.419 400.312 263.563 409.677 261.137C419.04 258.712 419.02 252.946 421.835 250.333Z" fill="white"/>
<path d="M408.556 307.44C408.533 306.414 408.036 282.278 412.551 278.216C417.161 274.066 418.047 266.734 418.165 262.733C418.319 257.519 425.054 254.424 425.341 254.295L425.682 255.052C425.617 255.082 419.134 258.063 418.995 262.756C418.847 267.806 417.705 274.695 413.106 278.833C408.873 282.644 409.381 307.173 409.387 307.421L408.556 307.44Z" fill="url(#paint8_linear_217_2596)"/>
<path d="M425.512 297.59L418.024 326H401.289L393.801 297.59H425.512Z" fill="url(#paint9_linear_217_2596)"/>
<path d="M425.512 297.59C425.512 297.59 409.027 300.685 409.027 325.999H401.289L393.801 297.59H425.512Z" fill="url(#paint10_linear_217_2596)"/>
<path d="M130.492 223.346H108.451V225.841H130.492V223.346Z" fill="#1487E3"/>
<path d="M103.851 154.491H68.6738V109.505H69.505V153.66H103.851V154.491Z" fill="#78C2FF"/>
<path d="M252.747 124.85H251.916V78.4609H296.683V39.4487H297.515V79.292H252.747V124.85Z" fill="#78C2FF"/>
<path d="M397.367 176.523H350.789V175.691H396.535V148.645H397.367V176.523Z" fill="#78C2FF"/>
<path d="M49.1373 214.11C49.1373 214.11 48.1396 228.104 50.8737 229.78C52.5866 230.829 59.4162 234.368 59.2139 235.032C59.0116 235.695 55.3573 240.936 55.3573 240.936C55.3573 240.936 42.2387 232.297 41.8157 229.575C41.4024 226.915 42.4611 209.085 44.2656 208.262C45.6165 207.647 46.3282 208.156 48.0314 209.42C50.4193 211.193 49.1373 214.11 49.1373 214.11Z" fill="#FF7E55"/>
<path d="M47.614 315.952C47.614 315.952 47.2059 318.784 47.1562 319.209C47.1047 319.634 42.6176 318.958 42.6176 318.958L42.2539 315.588C42.2539 315.588 47.0532 315.553 47.614 315.952Z" fill="#424773"/>
<path d="M47.2019 318.849C47.2019 318.849 48.6226 320.555 49.9979 321.299C51.3733 322.043 53.5335 322.337 54.3472 323.108C54.9333 323.664 56.4848 326.055 50.7732 326.007C45.0616 325.958 42.3092 326.345 41.6978 325.428C41.0856 324.51 42.583 318.657 42.583 318.657C42.583 318.657 43.9357 319.143 47.2019 318.849Z" fill="#292C47"/>
<path d="M70.073 315.952C70.073 315.952 69.664 318.784 69.6134 319.209C69.5619 319.634 65.0757 318.958 65.0757 318.958L64.7129 315.588C64.7129 315.588 69.5122 315.553 70.073 315.952Z" fill="#424773"/>
<path d="M69.6585 318.849C69.6585 318.849 71.0801 320.555 72.4546 321.299C73.8299 322.043 78.89 322.654 79.7037 323.424C80.2907 323.979 81.2666 326.216 73.2316 326.007C67.5218 325.858 64.7676 326.345 64.1545 325.428C63.5431 324.51 65.0406 318.657 65.0406 318.657C65.0406 318.657 66.3139 319.177 69.6585 318.849Z" fill="#292C47"/>
<path d="M49.2225 243.192C49.2225 243.192 45.0066 249.892 45.3206 255.946C45.6345 262.001 44.9447 268.47 44.3115 274.794C43.606 281.846 41.682 296.522 41.5774 300.293C41.4719 304.066 41.7143 318.26 41.7143 318.26L49.028 318.205C49.028 318.205 51.6243 289.531 52.8828 286.553C54.1396 283.574 59.3043 262.033 59.5145 259.65C59.7229 257.269 49.2225 243.192 49.2225 243.192Z" fill="#292C47"/>
<path d="M71.4203 244.099C71.4203 244.099 73.086 260.561 73.5055 264.267C73.9242 267.973 73.6381 284.032 73.8474 286.348C74.0576 288.664 72.4468 313.163 72.0491 317.828L64.0106 317.777C64.0106 317.777 63.456 297.959 63.456 288.33C63.456 278.701 60.9852 267.493 58.1543 261.139C55.3233 254.786 48.8434 254.636 47.1035 242.848C47.1035 242.85 69.0638 240.361 71.4203 244.099Z" fill="#292C47"/>
<path d="M53.6804 186.713C53.6804 186.713 58.7038 183.357 62.2316 186.952C65.7594 190.546 67.4932 198.999 64.9605 200.686C62.427 202.372 58.1291 202.815 56.0892 200.526C54.0493 198.238 51.8716 194.746 51.3369 192.198C50.7997 189.648 52.4062 187.786 53.6804 186.713Z" fill="#EEA886"/>
<path d="M63.2474 201.254C63.2474 201.254 63.182 204.786 63.571 205.538C63.9608 206.29 56.2399 206.31 56.2399 206.31C56.2399 206.31 55.6128 202.216 54.4241 198.758C53.2363 195.298 63.2474 201.254 63.2474 201.254Z" fill="#EEA886"/>
<path d="M54.6204 198.7C54.6204 198.7 55.34 199.434 57.379 198.603C59.4189 197.772 61.3367 194.346 62.1478 193.829C62.9606 193.311 62.8455 192.791 62.8455 192.791L63.5903 193.468L64.5436 193.305C64.5436 193.305 63.0932 190.988 64.1432 189.656C65.1924 188.325 60.8806 181.816 54.6484 185.789C54.6484 185.789 49.7723 188.456 50.661 191.377C51.5497 194.299 53.1047 197.498 54.6204 198.7Z" fill="#754836"/>
<path d="M64.0329 205.448C64.0329 205.448 64.0094 204.011 63.357 203.872C62.7056 203.734 56.1619 203.105 55.3613 203.42V205.094C55.3613 205.094 56.9033 206.044 64.0329 205.448Z" fill="#E2D2CA"/>
<path d="M62.4494 191.745C62.2139 191.275 60.6135 190.152 60.4871 191.788C60.3615 193.425 62.0613 195.185 62.6979 194.851C63.3355 194.516 63.0485 192.935 62.4494 191.745Z" fill="#EEA886"/>
<path d="M52.223 187.578C52.223 187.578 45.0384 189.504 54.3257 198.423L52.223 187.578Z" fill="#754836"/>
<path d="M116.415 225.777L109.093 225.709C109.726 225.341 110.747 224.68 110.521 224.379C110.198 223.95 108.125 224.893 107.283 224.979C106.51 225.059 105.215 224.959 104.232 225.318L101.92 226.303L104.04 228.265C104.04 228.265 107.87 228.814 108.99 228.893C110.813 229.021 116.389 226.85 116.482 226.521C116.648 225.926 116.415 225.777 116.415 225.777Z" fill="#EEA886"/>
<path d="M73.5869 207.441C68.9297 206.622 64.0292 205.448 64.0292 205.448L55.3576 205.094C55.3576 205.094 47.3994 206.846 44.265 208.263C43.9667 208.397 43.9667 215.364 43.1504 217.189L45.7485 222.671C45.7485 222.671 47.2503 233.531 47.5608 238.36C47.7038 240.578 44.4656 259.152 44.4656 259.152C44.4656 259.152 47.9358 260.173 53.8549 260.825C59.7723 261.478 74.5602 260.59 74.6535 259.891C74.7468 259.192 71.7903 233.862 71.6586 232.551C71.458 230.537 72.2394 221.235 72.2394 221.235C73.3549 222.732 79.8026 228.35 82.9492 230.136C85.188 231.406 90.6798 230.629 92.2976 230.465C95.7992 230.107 105.47 229.415 105.66 229.071C105.81 228.865 105.103 225.338 104.698 225.203C104.344 225.084 91.858 224.468 88.7262 224.63C87.4555 224.697 83.3103 220.068 83.3103 220.068C83.3103 220.068 76.1553 208.595 73.5869 207.441Z" fill="#FF7E55"/>
<path d="M20.2598 172.388H43.1811V189.001V192.5L39.6812 189.001H20.2598V172.388Z" fill="#FFCB55"/>
<path d="M389.373 119.516H367.104V97.2461H389.373V119.516ZM367.846 118.773H388.63V97.9883H367.846V118.773Z" fill="#6AAFE8"/>
<path d="M444.8 105.411H393.828V99.9673H444.8V105.411ZM394.569 104.669H444.057V100.709H394.569V104.669Z" fill="#6AAFE8"/>
<path d="M444.8 130.727H367.104V125.283H444.8V130.727ZM367.846 129.985H444.057V126.025H367.846V129.985Z" fill="#6AAFE8"/>
<path d="M416.592 141.183H367.104V135.739H416.592V141.183ZM367.846 140.44H415.849V136.481H367.846V140.44Z" fill="#6AAFE8"/>
<path d="M428.345 115.796H393.828V110.353H428.345V115.796ZM394.569 115.053H427.602V111.094H394.569V115.053Z" fill="#6AAFE8"/>
<path d="M453.646 153.02H358.258V85.4067H453.646V153.02ZM359.001 152.278H452.904V86.1498H359.001V152.278Z" fill="#6AAFE8"/>
<path d="M324.624 55.1256H317.486V54.2935H323.793V47.9941H324.624V55.1256Z" fill="#6AAFE8"/>
<path d="M276.63 55.1256H269.492V47.9941H270.325V54.2935H276.63V55.1256Z" fill="#6AAFE8"/>
<path d="M270.33 7.13665H269.498V0H276.629V0.83114H270.33V7.13665Z" fill="#6AAFE8"/>
<path d="M324.624 7.13386H323.793V0.834457H317.486V0.00244141H324.624V7.13386Z" fill="#6AAFE8"/>
<path d="M324.622 17.7915H323.791V37.3377H324.622V17.7915Z" fill="#6AAFE8"/>
<path d="M270.325 17.7915H269.492V37.3377H270.325V17.7915Z" fill="#6AAFE8"/>
<path d="M69.0902 109.921C67.4044 109.921 66.0352 108.551 66.0352 106.866C66.0352 105.182 67.4044 103.812 69.0902 103.812C70.7743 103.812 72.1444 105.182 72.1444 106.866C72.1444 108.551 70.7734 109.921 69.0902 109.921ZM69.0902 104.644C67.864 104.644 66.8663 105.641 66.8663 106.867C66.8663 108.092 67.864 109.09 69.0902 109.09C70.3156 109.09 71.3124 108.092 71.3124 106.867C71.3124 105.64 70.3156 104.644 69.0902 104.644Z" fill="#78C2FF"/>
<path d="M297.097 39.8651C295.413 39.8651 294.043 38.4941 294.043 36.8101C294.043 35.126 295.413 33.7559 297.097 33.7559C298.782 33.7559 300.152 35.126 300.152 36.8101C300.152 38.4941 298.782 39.8651 297.097 39.8651ZM297.097 34.587C295.873 34.587 294.874 35.5847 294.874 36.8101C294.874 38.0363 295.872 39.0331 297.097 39.0331C298.323 39.0331 299.32 38.0363 299.32 36.8101C299.32 35.5847 298.324 34.587 297.097 34.587Z" fill="#78C2FF"/>
<path d="M396.952 149.205C395.267 149.205 393.896 147.834 393.896 146.15C393.896 144.466 395.267 143.096 396.952 143.096C398.636 143.096 400.006 144.466 400.006 146.15C400.006 147.834 398.636 149.205 396.952 149.205ZM396.952 143.927C395.726 143.927 394.728 144.925 394.728 146.15C394.728 147.375 395.725 148.373 396.952 148.373C398.177 148.373 399.175 147.375 399.175 146.15C399.175 144.925 398.178 143.927 396.952 143.927Z" fill="#78C2FF"/>
<path d="M89.3486 25.0976H68.3809V4.12891H89.3486V25.0976ZM69.212 24.2655H88.5166V4.96092H69.212V24.2655Z" fill="#A1D4FF"/>
<path d="M79.2804 9.84375H78.4492V19.6177H79.2804V9.84375Z" fill="#A1D4FF"/>
<path d="M83.7507 14.3145H73.9785V15.1465H83.7507V14.3145Z" fill="#A1D4FF"/>
<path d="M408.885 50.3911H378.912V28.9951H408.885V50.3911ZM379.745 49.5591H408.053V29.8263H379.745V49.5591Z" fill="#A1D4FF"/>
<path d="M393.9 41.9538L379.066 29.7317L379.595 29.0898L393.9 40.8767L408.207 29.0898L408.735 29.7317L393.9 41.9538Z" fill="#A1D4FF"/>
<path d="M397.996 38.3377L397.393 38.9097L408.151 50.2507L408.754 49.6787L397.996 38.3377Z" fill="#A1D4FF"/>
<path d="M389.796 38.3632L379.047 49.7114L379.651 50.2836L390.4 38.9353L389.796 38.3632Z" fill="#A1D4FF"/>
<path d="M141.671 71.8845L141.36 71.0691C141.081 71.0325 140.806 70.9697 140.54 70.8807L139.904 71.4781L138.057 70.1638L138.413 69.3667C138.241 69.1443 138.092 68.9053 137.966 68.6533L137.093 68.6254L136.717 66.3901L137.532 66.0779C137.568 65.7979 137.632 65.5241 137.721 65.2581L137.123 64.6223L138.438 62.7751L139.234 63.131C139.457 62.96 139.695 62.81 139.947 62.6844L139.974 61.8114L142.209 61.4355L142.522 62.2501C142.8 62.2867 143.076 62.3495 143.342 62.4385L143.978 61.8411L145.824 63.1554L145.469 63.9525C145.64 64.1749 145.789 64.4139 145.915 64.6659L146.788 64.693L147.164 66.9282L146.349 67.2404C146.312 67.5195 146.249 67.7943 146.16 68.0611L146.759 68.6969L145.443 70.5441L144.647 70.1882C144.425 70.3592 144.187 70.5092 143.935 70.6348L143.907 71.5078L141.671 71.8845ZM140.394 70.1621L140.576 70.2319C140.907 70.3583 141.254 70.4377 141.61 70.4682L141.805 70.4848L142.073 71.1834L143.301 70.9767L143.324 70.2284L143.503 70.1481C143.828 70.0025 144.13 69.8141 144.4 69.5856L144.55 69.4591L145.233 69.7644L145.954 68.7501L145.442 68.205L145.512 68.0219C145.64 67.6922 145.718 67.3442 145.749 66.9884L145.767 66.7939L146.465 66.527L146.259 65.2991L145.511 65.2755L145.431 65.0968C145.286 64.7723 145.097 64.4697 144.869 64.1985L144.742 64.0493L145.047 63.3673L144.034 62.6452L143.488 63.1571L143.306 63.0874C142.974 62.96 142.627 62.8815 142.272 62.851L142.078 62.8336L141.809 62.135L140.582 62.3417L140.559 63.0891L140.38 63.1693C140.054 63.3141 139.752 63.5034 139.481 63.7319L139.332 63.8575L138.649 63.5531L137.927 64.5674L138.439 65.1124L138.369 65.2947C138.242 65.6244 138.163 65.9724 138.132 66.3282L138.115 66.5227L137.416 66.7904L137.624 68.0184L138.371 68.0428L138.451 68.2207C138.595 68.546 138.785 68.8487 139.014 69.1199L139.14 69.269L138.835 69.9519L139.849 70.674L140.394 70.1621ZM141.936 69.1251C141.428 69.1251 140.934 68.9681 140.512 68.6681C139.405 67.8806 139.146 66.3387 139.933 65.2319C140.721 64.1243 142.264 63.8653 143.369 64.6528C143.906 65.034 144.262 65.6017 144.371 66.2515C144.48 66.9003 144.33 67.5535 143.949 68.089C143.567 68.6254 143 68.9812 142.35 69.0902C142.213 69.1138 142.073 69.1251 141.936 69.1251ZM141.944 64.8203C141.369 64.8203 140.801 65.0898 140.442 65.593C140.156 65.9933 140.045 66.4808 140.127 66.9657C140.209 67.4506 140.474 67.8745 140.874 68.1597C141.275 68.4449 141.762 68.5565 142.247 68.4754C142.731 68.3934 143.156 68.1283 143.44 67.7271C143.725 67.3268 143.838 66.8393 143.756 66.3544C143.674 65.8695 143.409 65.4456 143.008 65.1604C142.685 64.931 142.313 64.8203 141.944 64.8203Z" fill="#A1D4FF"/>
<path d="M124.357 74.4914L123.66 72.6721C122.913 72.5884 122.18 72.421 121.474 72.1715L120.055 73.5033L116.2 70.7595L116.993 68.9821C116.528 68.3969 116.128 67.7594 115.805 67.0809L113.858 67.0198L113.072 62.3539L114.892 61.658C114.975 60.9114 115.144 60.178 115.392 59.4724L114.06 58.0535L116.803 54.1986L118.582 54.9923C119.167 54.5257 119.804 54.1271 120.483 53.8027L120.544 51.8561L125.21 51.0703L125.907 52.8896C126.652 52.9742 127.385 53.1416 128.092 53.3911L129.511 52.0584L133.366 54.8022L132.572 56.5796C133.039 57.1648 133.437 57.8023 133.762 58.4808L135.708 58.5419L136.494 63.2078L134.675 63.9037C134.59 64.6511 134.423 65.3837 134.173 66.0893L135.506 67.5082L132.762 71.3639L130.986 70.5703C130.401 71.0369 129.763 71.4354 129.085 71.7599L129.024 73.7065L124.357 74.4914ZM121.283 71.2113L121.526 71.3046C122.316 71.6073 123.145 71.7974 123.992 71.8698L124.252 71.8924L124.891 73.5591L128.213 72.9992L128.269 71.2157L128.507 71.1093C129.284 70.763 130.006 70.3113 130.653 69.7671L130.852 69.5996L132.481 70.3261L134.433 67.5815L133.214 66.2812L133.307 66.0378C133.609 65.2485 133.799 64.4183 133.872 63.5714L133.894 63.3115L135.56 62.674L134.999 59.3512L133.216 59.2954L133.11 59.0573C132.764 58.2802 132.311 57.559 131.768 56.9127L131.601 56.713L132.327 55.0856L129.583 53.132L128.283 54.3513L128.041 54.258C127.25 53.9562 126.421 53.7661 125.574 53.6928L125.313 53.671L124.677 52.0044L121.354 52.5643L121.297 54.3478L121.06 54.4542C120.284 54.8004 119.562 55.2513 118.915 55.7964L118.715 55.9638L117.088 55.2374L115.135 57.982L116.354 59.2823L116.261 59.5256C115.958 60.3149 115.769 61.1452 115.696 61.992L115.674 62.2519L114.008 62.8894L114.568 66.2123L116.351 66.2681L116.457 66.5062C116.804 67.2824 117.255 68.0045 117.8 68.6516L117.967 68.8513L117.24 70.4787L119.985 72.4323L121.283 71.2113ZM124.775 68.1606C123.696 68.1606 122.606 67.837 121.662 67.1655C119.245 65.4448 118.677 62.0784 120.398 59.6599C122.119 57.2433 125.484 56.6755 127.902 58.3962C130.32 60.1169 130.887 63.4834 129.167 65.9C128.118 67.3748 126.459 68.1606 124.775 68.1606ZM124.788 58.2331C123.365 58.2331 121.962 58.8977 121.076 60.1431C120.37 61.1338 120.094 62.3391 120.295 63.5374C120.498 64.7357 121.153 65.784 122.143 66.4878C124.188 67.9426 127.033 67.4629 128.488 65.4186C129.193 64.4287 129.469 63.2235 129.269 62.0252C129.066 60.8268 128.41 59.7785 127.42 59.0739C126.622 58.5061 125.701 58.2331 124.788 58.2331Z" fill="#A1D4FF"/>
<path d="M15.5178 78.8666C6.96135 78.8666 0 71.9044 0 63.3479H0.83114C0.83114 71.4465 7.42009 78.0337 15.5178 78.0337C23.6156 78.0337 30.2045 71.4456 30.2045 63.3479C30.2045 55.2502 23.6156 48.6621 15.5178 48.6621V47.8301C24.0743 47.8301 31.0357 54.7914 31.0357 63.3479C31.0357 71.9053 24.0743 78.8666 15.5178 78.8666ZM15.5178 76.7098C8.15094 76.7098 2.15853 70.7165 2.15853 63.3488C2.15853 55.9819 8.15094 49.9886 15.5178 49.9886C22.8847 49.9886 28.878 55.9819 28.878 63.3488H28.046C28.046 56.4406 22.426 50.8206 15.5178 50.8206C8.60881 50.8206 2.98967 56.4406 2.98967 63.3488C2.98967 70.2569 8.60881 75.8778 15.5178 75.8778V76.7098Z" fill="#78C2FF"/>
<path d="M13.6169 68.4901L8.01953 62.8927L8.60822 62.3049L13.6169 67.3136L22.4289 58.5024L23.0167 59.0903L13.6169 68.4901Z" fill="#78C2FF"/>
<path d="M343.224 253.615H225.345H107.467L81.668 350.044H226.118H369.022L343.224 253.615Z" fill="#268BBF"/>
<path d="M116.387 270.532H130.871C131.477 270.532 131.934 271.003 131.82 271.511L130.418 277.812C130.331 278.2 129.932 278.482 129.469 278.482H114.736C114.118 278.482 113.658 277.992 113.793 277.478L115.444 271.178C115.542 270.801 115.934 270.532 116.387 270.532Z" fill="white"/>
<path d="M137.513 270.532H148.462L147.007 278.481H135.848L137.513 270.532Z" fill="white"/>
<path d="M153.94 270.532H164.89L163.745 278.481L152.584 278.492L153.94 270.532Z" fill="white"/>
<path d="M170.364 270.532H181.313L180.48 278.481H169.322L170.364 270.532Z" fill="white"/>
<path d="M186.792 270.532H197.741L197.221 278.481H186.062L186.792 270.532Z" fill="white"/>
<path d="M203.214 270.532H214.164L213.957 278.481L202.797 278.492L203.214 270.532Z" fill="white"/>
<path d="M334.656 270.532H318.23L320 278.481H336.737L334.656 270.532Z" fill="white"/>
<path d="M312.754 270.532H301.805L303.263 278.481H314.421L312.754 270.532Z" fill="white"/>
<path d="M296.329 270.532H285.379L286.523 278.481L297.684 278.492L296.329 270.532Z" fill="white"/>
<path d="M279.904 270.532H268.953L269.786 278.481H280.945L279.904 270.532Z" fill="white"/>
<path d="M263.478 270.532H252.527L253.048 278.481H264.206L263.478 270.532Z" fill="white"/>
<path d="M247.052 270.532H236.102L236.311 278.481L247.47 278.492L247.052 270.532Z" fill="white"/>
<path d="M219.641 270.532H230.591L230.772 278.481H219.641V270.532Z" fill="white"/>
<path d="M111.569 284.404H134.451L133.148 292.604H109.832L111.569 284.404Z" fill="white"/>
<path d="M338.227 284.404H309.943L311.554 292.604H340.376L338.227 284.404Z" fill="white"/>
<path d="M304.287 284.404H292.975L294.263 292.604H305.791L304.287 284.404Z" fill="white"/>
<path d="M287.317 284.404H276.004L276.97 292.604H288.499L287.317 284.404Z" fill="white"/>
<path d="M270.347 284.404H259.033L259.677 292.604H271.206L270.347 284.404Z" fill="white"/>
<path d="M253.376 284.404H242.062L242.384 292.604H253.913L253.376 284.404Z" fill="white"/>
<path d="M108.152 299.021H131.544L129.837 307.165H106.018L108.152 299.021Z" fill="white"/>
<path d="M137.391 299.021H149.088L147.701 307.165H135.791L137.391 299.021Z" fill="white"/>
<path d="M154.936 299.021H166.633H242.654L242.979 307.165H153.656L154.936 299.021Z" fill="white"/>
<path d="M248.51 299.021H260.205L260.846 307.165H248.936L248.51 299.021Z" fill="white"/>
<path d="M266.055 299.021H277.752L278.711 307.165H266.801L266.055 299.021Z" fill="white"/>
<path d="M283.6 299.021H295.295L296.576 307.165H284.665L283.6 299.021Z" fill="white"/>
<path d="M301.145 299.021H312.841L314.441 307.165H302.531L301.145 299.021Z" fill="white"/>
<path d="M318.689 299.021H342.082L344.216 307.165H320.396L318.689 299.021Z" fill="white"/>
<path d="M236.429 284.404H225.207V292.604H236.644L236.429 284.404Z" fill="white"/>
<path d="M219.459 284.404H208.145L207.822 292.604H219.351L219.459 284.404Z" fill="white"/>
<path d="M202.489 284.404H191.176L190.531 292.604H202.06L202.489 284.404Z" fill="white"/>
<path d="M185.518 284.404H174.204L173.236 292.604H184.766L185.518 284.404Z" fill="white"/>
<path d="M168.548 284.404H157.234L155.945 292.604H167.473L168.548 284.404Z" fill="white"/>
<path d="M151.578 284.404H140.264L138.654 292.604H150.182L151.578 284.404Z" fill="white"/>
<path d="M116.922 265.537L118.78 258.44H124.097L122.362 265.537H116.922Z" fill="white"/>
<path d="M129.416 258.44H140.048L138.561 265.537H127.742L129.416 258.44Z" fill="white"/>
<path d="M145.366 258.44H155.998L154.79 265.537H143.971L145.366 258.44Z" fill="white"/>
<path d="M161.316 258.44H171.948L171.019 265.537H160.199L161.316 258.44Z" fill="white"/>
<path d="M177.266 258.44H187.899L187.248 265.537H176.43L177.266 258.44Z" fill="white"/>
<path d="M193.216 258.44H203.849L203.479 265.537H192.658L193.216 258.44Z" fill="white"/>
<path d="M209.165 258.44H219.798L219.706 265.537H208.887L209.165 258.44Z" fill="white"/>
<path d="M225.115 258.44H235.75L235.935 265.537H225.115V258.44Z" fill="white"/>
<path d="M241.066 258.44H251.701L252.166 265.537H241.345L241.066 258.44Z" fill="white"/>
<path d="M257.016 258.44H267.65L268.393 265.537H257.575L257.016 258.44Z" fill="white"/>
<path d="M272.967 258.44H283.602L284.624 265.537H273.803L272.967 258.44Z" fill="white"/>
<path d="M288.918 258.44H299.553L300.854 265.537H290.034L288.918 258.44Z" fill="white"/>
<path d="M304.867 258.44H315.501L317.081 265.537H306.263L304.867 258.44Z" fill="white"/>
<path d="M320.818 258.44H331.452L333.312 265.537H322.491L320.818 258.44Z" fill="white"/>
<path d="M361.515 357.551H89.1744C85.0283 357.551 81.668 354.19 81.668 350.044H369.022C369.022 354.19 365.66 357.551 361.515 357.551Z" fill="url(#paint11_linear_217_2596)"/>
<path d="M258.75 318.883C258.469 317.185 257.001 315.941 255.279 315.941H225.344H195.409C193.689 315.941 192.222 317.185 191.941 318.883L188.2 341.517C187.846 343.659 189.498 345.606 191.669 345.606H225.344H259.02C261.191 345.606 262.843 343.659 262.49 341.517L258.75 318.883Z" fill="#DAE3FE"/>
<path d="M154.864 124.101H130.494V126.596H154.864V124.101Z" fill="#E0E0E0"/>
<path d="M179.279 142.89H161.684V145.385H179.279V142.89Z" fill="#E0E0E0"/>
<path d="M193.696 142.89H182.02V145.385H193.696V142.89Z" fill="#1487E3"/>
<path d="M142.446 190.139H130.77V192.634H142.446V190.139Z" fill="#1487E3"/>
<path d="M224.195 142.89H196.004V145.385H224.195V142.89Z" fill="#E0E0E0"/>
<path d="M148.885 180.676H130.77V183.171H148.885V180.676Z" fill="#E0E0E0"/>
<path d="M167.08 199.535H156.021V202.029H167.08V199.535Z" fill="#E0E0E0"/>
<path d="M152.679 199.535H130.77V202.029H152.679V199.535Z" fill="#1487E3"/>
<path d="M142.854 208.928H130.77V211.423H142.854V208.928Z" fill="#E0E0E0"/>
<path d="M176.906 124.101H159.605V126.596H176.906V124.101Z" fill="#78C2FF"/>
<path d="M176.906 152.284H159.605V154.779H176.906V152.284Z" fill="#1487E3"/>
<path d="M158.347 161.679H150.955V164.174H158.347V161.679Z" fill="#E0E0E0"/>
<path d="M160.166 171.212H143.562V173.708H160.166V171.212Z" fill="#78C2FF"/>
<path d="M185.596 171.212H162.676V173.708H185.596V171.212Z" fill="#1487E3"/>
<path d="M148.07 161.748H130.77V164.243H148.07V161.748Z" fill="#1487E3"/>
<path d="M141.035 171.212H130.77V173.708H141.035V171.212Z" fill="#1487E3"/>
<path d="M171.516 161.748H161.832V164.243H171.516V161.748Z" fill="#FF8761"/>
<path d="M140.744 218.324H131.061V220.818H140.744V218.324Z" fill="#FF8761"/>
<path d="M148.001 142.89H130.701V145.385H148.001V142.89Z" fill="#78C2FF"/>
<path d="M163.3 190.139H146V192.634H163.3V190.139Z" fill="#78C2FF"/>
<path d="M163.514 208.929H146.215V211.424H163.514V208.929Z" fill="#78C2FF"/>
<path d="M194.247 208.929H176.947V211.424H194.247V208.929Z" fill="#78C2FF"/>
<path d="M155.362 152.285H130.701V154.78H155.362V152.285Z" fill="#78C2FF"/>
<path d="M263.567 124.101H246.268V126.596H263.567V124.101Z" fill="#78C2FF"/>
<path d="M201.935 218.324H184.635V220.818H201.935V218.324Z" fill="#78C2FF"/>
<path d="M280.528 124.101H268.947V126.596H280.528V124.101Z" fill="#78C2FF"/>
<path d="M319.709 133.495H308.129V135.99H319.709V133.495Z" fill="#78C2FF"/>
<path d="M203.604 124.101H181.562V126.596H203.604V124.101Z" fill="#1487E3"/>
<path d="M289.482 133.495H267.441V135.99H289.482V133.495Z" fill="#1487E3"/>
<path d="M262.452 142.89H240.41V145.385H262.452V142.89Z" fill="#1487E3"/>
<path d="M233.755 152.285H211.715V154.78H233.755V152.285Z" fill="#1487E3"/>
<path d="M280.893 142.89H265.225V145.385H280.893V142.89Z" fill="#78C2FF"/>
<path d="M241.947 124.101H219.906V126.596H241.947V124.101Z" fill="#FF8761"/>
<path d="M207.679 152.285H194.756V154.78H207.679V152.285Z" fill="#FF8761"/>
<path d="M197.558 190.279H184.635V192.774H197.558V190.279Z" fill="#FF8761"/>
<path d="M215.749 124.101H207.68V126.596H215.749V124.101Z" fill="#E0E0E0"/>
<path d="M189.63 152.285H181.562V154.78H189.63V152.285Z" fill="#E0E0E0"/>
<path d="M302.868 133.495H294.799V135.99H302.868V133.495Z" fill="#E0E0E0"/>
<path d="M143.116 133.495H130.494V135.99H143.116V133.495Z" fill="#1487E3"/>
<path d="M174.137 180.745H164.172V183.24H174.137V180.745Z" fill="#1487E3"/>
<path d="M150.289 133.495H146.215V135.99H150.289V133.495Z" fill="#1487E3"/>
<path d="M263.564 133.495H229.879V135.99H263.564V133.495Z" fill="#E0E0E0"/>
<path d="M231.245 208.928H197.559V211.423H231.245V208.928Z" fill="#E0E0E0"/>
<path d="M157.443 133.495H153.285V135.99H157.443V133.495Z" fill="#FF8761"/>
<path d="M226.768 133.495H215.748V135.99H226.768V133.495Z" fill="#1487E3"/>
<path d="M237.791 142.89H226.77V145.385H237.791V142.89Z" fill="#FF8761"/>
<path d="M181.121 218.324H170.1V220.818H181.121V218.324Z" fill="#FF8761"/>
<path d="M212.83 133.495H189.381V135.99H212.83V133.495Z" fill="#1487E3"/>
<path d="M181.254 190.278H167.555V192.773H181.254V190.278Z" fill="#1487E3"/>
<path d="M173.524 208.928H166.674V211.423H173.524V208.928Z" fill="#1487E3"/>
<path d="M186.055 133.495H177.986V135.99H186.055V133.495Z" fill="#78C2FF"/>
<path d="M158.897 142.89H150.83V145.385H158.897V142.89Z" fill="#FF8761"/>
<path d="M160.505 180.745H152.438V183.24H160.505V180.745Z" fill="#FF8761"/>
<path d="M174.911 133.495H160.854V135.99H174.911V133.495Z" fill="#1487E3"/>
<g opacity="0.76">
<path d="M366.673 233.074H264.735C262.802 233.074 261.234 231.506 261.234 229.573V158.907C261.234 156.974 262.802 155.406 264.735 155.406H366.673C368.607 155.406 370.175 156.973 370.175 158.907V229.573C370.174 231.506 368.606 233.074 366.673 233.074Z" fill="white"/>
</g>
<path d="M358.413 200.775H340.862C340.118 200.775 339.518 200.174 339.518 199.433V196.722C339.518 195.981 340.118 195.379 340.862 195.379H358.413C359.156 195.379 359.757 195.981 359.757 196.722V199.433C359.757 200.174 359.155 200.775 358.413 200.775Z" fill="#268BBF"/>
<path d="M358.413 210.88H340.862C340.118 210.88 339.518 210.28 339.518 209.538V206.827C339.518 206.085 340.118 205.484 340.862 205.484H358.413C359.156 205.484 359.757 206.086 359.757 206.827V209.538C359.757 210.279 359.155 210.88 358.413 210.88Z" fill="#268BBF"/>
<path d="M358.413 220.985H340.862C340.118 220.985 339.518 220.383 339.518 219.642V216.932C339.518 216.189 340.118 215.588 340.862 215.588H358.413C359.156 215.588 359.757 216.189 359.757 216.932V219.642C359.757 220.383 359.155 220.985 358.413 220.985Z" fill="#268BBF"/>
<path d="M329.73 183.34C325.228 170.752 313.198 163.021 300.518 163.403C297.448 163.495 294.342 164.062 291.293 165.152C282.057 168.457 275.434 175.812 272.713 184.504C270.827 190.527 270.815 197.191 273.104 203.592C273.332 204.229 273.579 204.854 273.845 205.466C275.049 208.239 276.63 210.747 278.506 212.951C286.375 222.202 299.431 226.112 311.544 221.781C327.181 216.188 335.323 198.978 329.73 183.34ZM309.009 214.694C299.928 217.943 290.139 215.011 284.24 208.076C282.834 206.423 281.648 204.543 280.746 202.464C280.547 202.006 280.361 201.535 280.19 201.059C278.473 196.259 278.483 191.263 279.897 186.749C281.937 180.231 286.901 174.716 293.825 172.24C296.111 171.422 298.442 170.997 300.743 170.927C310.249 170.64 319.269 176.437 322.645 185.875C326.839 197.598 320.733 210.501 309.009 214.694Z" fill="#268BBF"/>
<path d="M279.899 186.748L272.715 184.505C275.436 175.813 282.059 168.458 291.295 165.153C294.344 164.063 297.451 163.495 300.52 163.404L300.745 170.927C298.444 170.997 296.114 171.422 293.827 172.24C286.903 174.714 281.938 180.231 279.899 186.748Z" fill="#1A598C"/>
<path d="M280.746 202.463L273.845 205.466C273.579 204.854 273.332 204.229 273.104 203.592C270.815 197.191 270.827 190.528 272.713 184.504L279.897 186.747C278.483 191.261 278.473 196.258 280.19 201.057C280.361 201.535 280.547 202.005 280.746 202.463Z" fill="#2273B5"/>
<path d="M278.507 212.952C276.631 210.748 275.05 208.24 273.846 205.467L280.747 202.464C281.649 204.544 282.835 206.424 284.241 208.076L278.507 212.952Z" fill="#3788CC"/>
<path d="M311.455 211.301C311.455 211.301 309.999 208.751 312.308 201.92C314.542 195.314 322.276 195.912 324.732 200.145C327.19 204.378 326.361 207.007 322.742 211.785C319.124 216.565 312.957 213.485 311.455 211.301Z" fill="#EEA886"/>
<path d="M329.418 328.832C329.418 328.832 329.801 331.637 329.849 332.059C329.896 332.48 334.106 331.811 334.106 331.811L334.447 328.47C334.447 328.47 329.944 328.436 329.418 328.832Z" fill="#EEA886"/>
<path d="M329.802 331.703C329.802 331.703 328.469 333.394 327.179 334.129C325.889 334.867 323.862 335.158 323.099 335.921C322.549 336.472 321.094 338.843 326.452 338.794C331.809 338.747 334.392 339.13 334.965 338.221C335.539 337.312 334.136 331.514 334.136 331.514C334.136 331.514 332.824 331.883 329.802 331.703Z" fill="#414773"/>
<path d="M300.273 328.832C300.273 328.832 300.656 331.637 300.704 332.059C300.752 332.48 304.961 331.811 304.961 331.811L305.302 328.47C305.302 328.47 300.799 328.436 300.273 328.832Z" fill="#EEA886"/>
<path d="M300.661 331.703C300.661 331.703 299.327 333.394 298.037 334.129C296.747 334.867 292 335.471 291.237 336.235C290.686 336.786 289.771 339.002 297.308 338.794C302.664 338.647 305.248 339.13 305.823 338.221C306.397 337.312 304.993 331.514 304.993 331.514C304.993 331.514 303.329 331.808 300.661 331.703Z" fill="#414773"/>
<path d="M328.001 258.976C328.001 258.976 330.159 265.681 329.874 271.461C329.59 277.241 330.989 283.565 331.562 289.603C332.2 296.333 334.812 312.267 334.905 315.868C335 319.467 334.501 330.965 334.501 330.965L329.273 331.09C329.273 331.09 324.884 303.234 323.746 300.392C322.609 297.55 316.97 277.286 316.782 275.011C316.593 272.738 328.001 258.976 328.001 258.976Z" fill="#2D314F"/>
<path d="M306.327 258.277C306.327 258.277 303.153 276.01 302.774 279.548C302.396 283.085 302.142 296.666 301.953 298.877C301.764 301.087 300.69 327.807 299.68 331.092H305.509C305.509 331.092 311.493 311.668 311.493 302.477C311.493 293.286 315.455 282.497 318.014 276.434C320.572 270.37 326.427 270.227 328 258.976C328 258.976 308.456 254.709 306.327 258.277Z" fill="#2D314F"/>
<path d="M313.567 213.104C313.567 213.104 314.225 215.017 313.567 216.384C312.91 217.748 321.967 216.93 321.967 216.93C321.967 216.93 321.557 214.108 322.741 211.786C323.924 209.465 313.567 213.104 313.567 213.104Z" fill="#EEA886"/>
<path d="M328.423 260.437C328.423 260.437 325.166 263.783 306.039 259.916L306.331 258.277L328.074 259.097L328.423 260.437Z" fill="#2B3B57"/>
<path d="M312.196 216.827C312.196 216.827 308.851 217.168 307.895 217.351C306.939 217.532 300.506 216.2 299.186 216.063C297.866 215.927 292.238 212.071 292.055 211.615C291.874 211.16 288.632 202.951 288.449 201.176C288.267 199.4 285.291 200.317 285.547 201.54C286.024 203.829 286.637 209.382 286.974 210.993C287.336 212.731 288.308 216.668 288.855 217.153C289.401 217.638 294.469 221.492 299.429 223.131C304.392 224.769 308.125 227.182 308.125 227.182H332.576C332.576 227.182 342.085 213.588 342.29 211.54C342.494 209.491 335.648 195.879 334.282 194.172C332.917 192.465 330.942 194.729 330.942 194.729C330.942 194.729 335.033 206.735 335.578 208.441C336.125 210.148 330.82 217.648 329.363 217.67C327.906 217.693 324.167 217.215 322.506 217.146C320.845 217.077 319.092 216.349 319.092 216.349L312.196 216.827Z" fill="#EEA886"/>
<path d="M301.663 225.906C301.663 225.906 304.657 227.896 304.93 231.309C305.203 234.723 306.295 240.117 306.841 241.959C307.388 243.803 306.363 257.184 306.226 258.14C306.09 259.097 325.146 261.367 328.073 259.097C328.073 259.097 328.892 246.603 329.234 243.052C329.575 239.503 331.213 230.9 331.76 229.739C332.306 228.578 338.928 219.29 339.201 218.065C339.201 218.065 335.775 212.603 333.318 212.535C333.318 212.535 329.415 217.109 328.142 217.314C326.868 217.518 319.068 216.089 319.066 216.077C319.066 216.077 318.214 217.237 313.689 215.871C313.689 215.871 308.297 216.479 307.422 216.591C306.359 216.727 298.978 215.665 298.978 215.665C298.978 215.665 296.017 220.666 296.536 223.189L301.663 225.906Z" fill="#FFC655"/>
<path d="M288.62 202.243C288.62 202.243 287.951 199.079 288.757 198.17C289.215 197.653 290.316 196.284 290.416 196.082C290.516 195.882 291.699 195.201 291.699 194.874C291.699 194.547 290.543 194.145 289.536 195.076C288.531 196.005 287.902 196.208 287.5 196.107C287.096 196.006 286.519 192.662 286.468 191.832C286.417 191.002 286.097 188.814 285.577 188.966C285.059 189.116 285.085 190.072 285.085 190.072C285.085 190.072 284.481 188.412 284.079 188.74C283.676 189.066 283.727 189.872 283.727 189.872C283.727 189.872 282.972 188.941 282.771 189.62C282.57 190.299 282.771 190.903 282.771 190.903C282.771 190.903 281.99 190.475 281.942 191.531C281.89 192.588 282.168 195.681 282.721 196.788C283.274 197.894 285.346 200.788 285.592 201.918C285.84 203.049 288.62 202.243 288.62 202.243Z" fill="#EEA886"/>
<path d="M331.61 196.686C331.61 196.686 329.335 192.862 328.561 192.521C327.787 192.179 326.695 191.986 325.739 191.304C324.783 190.622 323.521 190.052 323.589 189.825C323.657 189.598 324.783 189.688 325.99 190.212C327.197 190.735 327.724 190.482 327.838 190.209C327.953 189.935 327.197 188.008 326.832 187.552C326.467 187.096 323.873 184.487 324.306 184.101C324.739 183.714 326.423 185.148 326.696 185.443C326.696 185.443 325.353 182.622 325.877 182.485C326.4 182.348 327.379 183.349 327.379 183.349C327.379 183.349 327.265 180.937 329.86 184.852C329.86 184.852 329.313 183.555 330.11 183.987C330.907 184.419 331.681 186.855 331.931 188.084C332.181 189.312 333.317 193.227 334.285 194.17C335.252 195.115 331.61 196.686 331.61 196.686Z" fill="#EEA886"/>
<path d="M322.744 211.786C322.744 211.786 321.546 211.892 318.997 211.012C316.447 210.131 316.257 205.676 315.707 206.202C314.582 207.279 313.52 206.536 313.095 205.898C313.095 205.898 314.339 204.26 313.763 203.471C313.186 202.682 312.248 202.107 312.248 202.107C312.248 202.107 314.041 193.467 322.199 197.403C331.756 202.016 322.744 211.786 322.744 211.786Z" fill="#353A3D"/>
<path d="M313.568 216.384L313.855 215.134C313.855 215.134 319.063 215.028 321.903 215.439L322.203 216.932C322.203 216.932 318.564 218.583 313.568 216.384Z" fill="#D4D8E8"/>
<path d="M314.856 205.11C315.328 204.325 317.077 203.794 317.283 206.02C317.442 207.746 314.157 209.632 314.126 208.024C314.096 206.414 314.54 205.633 314.856 205.11Z" fill="#EEA886"/>
<path d="M288.499 201.525C288.499 201.525 286.62 201.57 285.709 202.394C285.709 202.394 285.65 202.917 285.861 203.328C285.861 203.328 287.489 202.568 288.739 202.426C288.739 202.426 288.717 201.743 288.499 201.525Z" fill="#E55353"/>
<path d="M286.284 201.992C286.111 202.403 286.303 202.878 286.714 203.051C287.125 203.224 287.599 203.032 287.773 202.621C287.946 202.209 287.755 201.736 287.343 201.562C286.932 201.389 286.458 201.582 286.284 201.992Z" fill="#353A3D"/>
<path d="M240.139 135.224C240.139 135.224 242.824 139.777 243.958 140.52C245.498 141.529 244.533 142.55 243.802 142.551C243.071 142.552 239.338 142.818 238.516 141.885C237.693 140.952 237.286 138.154 236.52 137.423C235.756 136.691 234.966 133.782 236.893 133.076C238.597 132.45 240.139 135.224 240.139 135.224Z" fill="#6069A8"/>
<path d="M238.973 133.222C238.973 133.222 242.049 138.554 242.579 139.341C243.108 140.129 241.58 140.127 240.633 139.754C239.686 139.38 237.305 135.556 236.962 134.859C236.554 134.028 236.889 133.077 236.889 133.077L238.973 133.222Z" fill="#202338"/>
<path d="M235.857 136.091L236.567 141.556L236.944 141.572L236.826 137.641L235.857 136.091Z" fill="#6069A8"/>
<path d="M213.508 135.226C213.508 135.226 216.194 139.778 217.327 140.521C218.867 141.53 217.903 142.551 217.172 142.552C216.441 142.553 212.708 142.82 211.886 141.887C211.064 140.954 210.655 138.156 209.891 137.424C209.126 136.692 208.309 133.709 210.263 133.077C211.976 132.523 213.508 135.226 213.508 135.226Z" fill="#6069A8"/>
<path d="M212.504 133.233C212.504 133.233 215.419 138.553 215.949 139.341C216.478 140.128 214.95 140.126 214.004 139.753C213.057 139.379 210.675 135.556 210.333 134.859C209.925 134.028 210.26 133.076 210.26 133.076L212.504 133.233Z" fill="#202338"/>
<path d="M209.227 136.091L209.937 141.556L210.313 141.572L210.197 137.641L209.227 136.091Z" fill="#6069A8"/>
<path d="M201.592 93.7942L225.893 104.867C225.893 104.867 228.604 105.748 228.91 108.761C229.858 118.162 236.89 133.076 236.89 133.076C239.147 134.179 238.974 133.221 238.974 133.221C237.552 128.657 235.821 109.846 235.204 102.282C235.073 100.68 234.992 99.5825 234.973 99.2319C234.961 98.993 234.701 98.6807 234.251 98.3162C230.916 95.6117 217.195 90.0135 217.195 90.0135C206.894 89.7536 201.592 93.7942 201.592 93.7942Z" fill="#202338"/>
<path d="M197.012 98.5493C197.763 105.118 207.141 104.366 207.141 104.366H218.505C218.505 104.366 215.519 111.009 214.366 116.611C213.144 122.556 210.26 133.077 210.26 133.077C210.26 133.077 210.449 133.434 212.504 133.234C212.504 133.234 221.425 115.455 224.841 110.985C225.575 110.023 227.68 104.802 228.043 101.688C228.166 100.64 228.09 99.8313 227.699 99.5025C227.303 99.1728 226.398 98.5493 225.189 97.7879C221.629 95.543 215.448 92.0876 212.004 91.314C207.391 90.2771 200.096 88.334 200.096 88.334C200.096 88.334 196.26 91.9812 197.012 98.5493Z" fill="#202338"/>
<path d="M204.746 47.954C204.746 47.954 203.045 44.7245 203.874 41.2856C204.703 37.8468 207.894 34.4202 212.567 35.9944C217.239 37.5677 221.016 41.1976 218.215 45.3943C215.414 49.5901 220.75 51.4861 219.39 53.4833C218.03 55.4804 218.546 57.5648 219.121 58.0297C219.697 58.4937 221.554 60.1507 221.35 62.1113C221.146 64.0718 212.285 56.3962 212.285 56.3962C212.285 56.3962 207.458 46.7007 204.746 47.954Z" fill="#464240"/>
<path d="M218.988 89.2276C218.988 89.2276 218.284 92.6464 200.135 88.3302C200.135 88.3302 206.218 86.3086 218.988 89.2276Z" fill="#EB4747"/>
<path d="M199.927 89.2887C199.645 89.8259 199.364 90.3632 199.083 90.9004C205.717 91.094 212.352 91.2867 218.986 91.4804C217.938 87.9665 218.277 83.2073 218.461 79.5949C218.686 75.1828 221.122 72.1156 220.863 67.6529C222.175 67.8657 222.402 67.9058 223.716 68.1072C221.705 62.3791 221.017 59.542 214.773 57.3364C212.739 56.6187 211.404 56.4765 209.202 56.6579C201.97 57.2536 199.788 57.339 196.236 63.8931C201.797 64.7783 200.881 66.7755 202.568 72.3074C203.39 75.0049 204.249 78.0155 203.808 80.8613C203.375 83.6617 199.927 86.7342 199.927 89.2887Z" fill="#325BB3"/>
<path d="M211.469 58.7245C208.508 58.1646 209.138 56.5189 209.138 56.5189C209.138 56.5189 209.275 55.5901 209.329 54.4153C209.343 54.1144 209.35 53.797 209.348 53.476C209.348 52.9885 209.324 52.4897 209.267 52.0205C209.025 50.0337 214.64 51.219 214.64 51.219C214.64 51.219 214.316 55.2386 215.091 56.4439C215.865 57.6492 214.429 59.2836 211.469 58.7245Z" fill="#EEA886"/>
<path d="M205.824 56.5085C205.824 56.5085 211.795 63.4027 214.002 65.0004C214.002 65.0004 216.537 62.7085 214.975 56.6576C214.975 56.6576 212.091 55.2143 205.824 56.5085Z" fill="#EEA886"/>
<path d="M205.986 39.9154C205.986 39.9154 202.884 45.8904 205.96 51.5488C209.036 57.2081 215.078 49.0841 215.468 48.1309C215.859 47.1777 217.93 41.787 213.81 40.1483C209.69 38.5113 206.864 38.2941 205.986 39.9154Z" fill="#EEA886"/>
<path d="M207.016 42.036C207.016 42.036 204.881 44.8399 204.628 46.9112C204.628 46.9112 203.778 42.9944 206.181 39.2321C208.584 35.4697 214.693 39.0533 215.511 40.5568C216.329 42.0604 218.727 43.3851 214.698 49.8459C214.698 49.8459 207.454 44.812 207.016 42.036Z" fill="#464240"/>
<path d="M211.971 52.1455C211.971 52.1455 211.433 53.322 209.33 54.4157C209.344 54.1148 209.351 53.7973 209.349 53.4764C209.349 53.4764 210.773 53.3046 211.971 52.1455Z" fill="#A77860"/>
<path d="M180.634 83.9141C180.634 83.9141 179.161 84.5691 178.46 84.2726C177.762 83.9752 176.681 83.9176 176.34 83.9168C175.885 83.9159 174.457 83.4066 174.481 83.9639C174.506 84.522 176.798 84.9101 177.267 85.0845C177.736 85.2581 175.864 86.2889 175.69 86.7468C175.516 87.2047 177.63 90.21 178.821 89.3536C180.014 88.4972 180.659 86.7878 180.902 86.6797C181.145 86.5715 181.797 86.091 181.797 86.091L180.634 83.9141Z" fill="#EEA886"/>
<path d="M175.915 86.481C175.915 86.481 172.457 89.3476 172.404 89.734C172.349 90.1212 172.532 90.3026 172.867 90.048C173.202 89.7942 176.296 87.3766 176.296 87.3766C176.296 87.3766 172.832 91.4669 172.716 91.7713C172.647 91.9492 172.98 92.319 173.173 92.1995C173.366 92.08 177.049 88.2287 177.049 88.2287C177.049 88.2287 173.822 92.0539 173.805 92.3408C173.789 92.5911 174.178 92.8615 174.439 92.5946C174.7 92.3277 177.91 88.9526 177.91 88.9526C177.91 88.9526 175.751 91.889 175.885 92.1481C175.967 92.3059 176.239 92.6382 176.771 91.862C177.302 91.0858 178.762 89.393 178.762 89.393L175.915 86.481Z" fill="#EEA886"/>
<path d="M217.32 104.366H207.142C207.142 104.366 197.765 105.118 197.014 98.5501C196.261 91.9812 200.097 88.334 200.097 88.334C200.097 88.334 205.051 89.6526 209.375 90.6975C211.54 90.2378 214.15 89.9387 217.198 90.0154C217.198 90.0154 235.53 96.0733 234.978 99.2618C234.978 99.2618 227.308 95.1619 217.32 104.366Z" fill="#FF7E55"/>
<path d="M210.693 92.9916L230.098 92.7056L220.301 97.6811L210.693 92.9916Z" fill="#5E5853"/>
<path d="M216.723 90.5126C216.723 90.5126 212.358 92.2037 207.006 90.6748L206.756 88.6768L217.774 89.289L216.723 90.5126Z" fill="#325BB3"/>
<path d="M220.301 97.6816L210.693 93.9594V92.9922L221.06 96.7319L220.301 97.6816Z" fill="#91887F"/>
<path d="M216.656 91.437C216.605 92.1539 217.329 92.6711 217.991 92.3885L219.117 91.908C219.456 91.7641 219.653 91.4065 219.594 91.042C219.126 88.1064 218.12 76.6815 219.591 74.72C220.134 73.9953 220.473 73.3604 220.664 72.8057C221.635 75.3096 222.844 78.5347 223.324 80.2703L232.492 92.467L235.566 93.2467C231.73 84.0039 228.649 79.1069 228.649 79.1069C228.048 77.496 226.328 72.6173 224.804 68.275C223.842 65.5321 222.959 63.003 222.485 61.6442C222.244 60.9552 221.769 60.3735 221.142 60.0002C219.722 59.1508 217.356 57.8138 215.21 56.7716C215.201 56.7672 215.193 56.7637 215.185 56.7594C215.116 56.7262 215.048 56.6931 214.98 56.66C214.977 56.66 214.975 56.6591 214.975 56.6591L214.975 56.6582C219.054 62.8311 217.464 80.2642 216.659 91.4126C216.658 91.4205 216.657 91.4292 216.656 91.437Z" fill="#EDDAD3"/>
<path d="M201.511 57.185C200.204 57.3873 196.963 60.5331 195.242 63.7085C193.278 67.3331 191.279 71.4591 189.78 72.8162C187.025 75.3131 179.312 84.1364 178.946 83.9228C178.805 83.8408 181.061 86.5575 181.348 86.6839C181.491 86.7476 194.024 75.8878 195.228 74.2325C196.37 72.6635 199.422 66.0798 200.334 66.2246C200.334 66.2246 200.335 66.2263 200.337 66.229L200.338 66.2316C200.407 66.3807 201.517 68.7887 202.57 72.3068C202.588 72.3653 202.604 72.4237 202.622 72.4821C203.347 74.9363 203.281 77.6007 202.888 80.5947C202.592 82.8544 200.905 86.5496 199.888 88.3471C199.765 88.5634 199.798 88.975 199.929 89.2881C200.009 89.4747 200.124 89.6265 200.263 89.678L203.943 91.042L204.808 91.362C205.431 91.5923 206.084 91.4728 206.571 91.1178C206.972 90.8274 207.26 90.38 207.331 89.8393C208.149 83.546 209.184 77.1158 210.009 74.6939C213.629 64.0652 208.595 56.0791 208.595 56.0791C208.595 56.0791 202.657 56.7567 201.511 57.185Z" fill="#EDDAD3"/>
<path d="M220.303 97.6817L226.075 81.9214L244.683 82.2258L239.181 96.7485L220.303 97.6817Z" fill="#6E6760"/>
<path d="M232.03 88.8929C231.463 90.0284 231.634 91.2642 232.413 91.6549C233.193 92.0448 234.284 91.4404 234.852 90.3057C235.42 89.1711 235.249 87.9344 234.469 87.5437C233.69 87.1539 232.598 87.7582 232.03 88.8929Z" fill="#807066"/>
<path d="M212.414 45.8652C212.414 45.8652 213.605 47.7193 212.504 49.3206C211.402 50.9209 212.782 52.4934 213.021 54.1853C213.26 55.8772 208.424 60.38 213.803 62.645C219.18 64.9099 220.892 61.1658 219.52 59.105C218.149 57.0441 217.175 55.3723 217.059 52.4349C216.942 49.4967 215.975 44.9172 212.414 45.8652Z" fill="#464240"/>
<path d="M173.459 23.6113H196.379V40.2254V43.7244L192.88 40.2254H173.459V23.6113Z" fill="#78C2FF"/>
<defs>
<linearGradient id="paint0_linear_217_2596" x1="100.272" y1="191.49" x2="362.285" y2="191.49" gradientUnits="userSpaceOnUse">
<stop stop-color="#40D5E6"/>
<stop offset="1" stop-color="#5577FF"/>
</linearGradient>
<linearGradient id="paint1_linear_217_2596" x1="115.722" y1="179.891" x2="334.479" y2="179.891" gradientUnits="userSpaceOnUse">
<stop stop-color="#404B61"/>
<stop offset="0.486" stop-color="#3C4860"/>
<stop offset="1" stop-color="#2F3E5C"/>
</linearGradient>
<linearGradient id="paint2_linear_217_2596" x1="404.398" y1="260.662" x2="460.684" y2="260.662" gradientUnits="userSpaceOnUse">
<stop stop-color="#3076A1"/>
<stop offset="1" stop-color="#639C38"/>
</linearGradient>
<linearGradient id="paint3_linear_217_2596" x1="399.51" y1="252.456" x2="472.999" y2="252.456" gradientUnits="userSpaceOnUse">
<stop stop-color="#3076A1"/>
<stop offset="1" stop-color="#639C38"/>
</linearGradient>
<linearGradient id="paint4_linear_217_2596" x1="382.627" y1="241.338" x2="430.029" y2="241.338" gradientUnits="userSpaceOnUse">
<stop stop-color="#3076A1"/>
<stop offset="1" stop-color="#639C38"/>
</linearGradient>
<linearGradient id="paint5_linear_217_2596" x1="395.802" y1="251.589" x2="410.174" y2="251.589" gradientUnits="userSpaceOnUse">
<stop stop-color="#3076A1"/>
<stop offset="1" stop-color="#639C38"/>
</linearGradient>
<linearGradient id="paint6_linear_217_2596" x1="363.273" y1="254.437" x2="409.672" y2="254.437" gradientUnits="userSpaceOnUse">
<stop stop-color="#3076A1"/>
<stop offset="1" stop-color="#639C38"/>
</linearGradient>
<linearGradient id="paint7_linear_217_2596" x1="394.34" y1="359.564" x2="433.377" y2="207.752" gradientUnits="userSpaceOnUse">
<stop stop-color="#3076A1"/>
<stop offset="1" stop-color="#639C38"/>
</linearGradient>
<linearGradient id="paint8_linear_217_2596" x1="408.529" y1="280.868" x2="425.682" y2="280.868" gradientUnits="userSpaceOnUse">
<stop stop-color="#3076A1"/>
<stop offset="1" stop-color="#639C38"/>
</linearGradient>
<linearGradient id="paint9_linear_217_2596" x1="393.801" y1="311.795" x2="425.513" y2="311.795" gradientUnits="userSpaceOnUse">
<stop stop-color="#FF9340"/>
<stop offset="1" stop-color="#FFCE45"/>
</linearGradient>
<linearGradient id="paint10_linear_217_2596" x1="393.801" y1="311.795" x2="425.513" y2="311.795" gradientUnits="userSpaceOnUse">
<stop stop-color="#C97332"/>
<stop offset="1" stop-color="#FFCE45"/>
</linearGradient>
<linearGradient id="paint11_linear_217_2596" x1="-51.5168" y1="353.798" x2="235.838" y2="353.798" gradientUnits="userSpaceOnUse">
<stop stop-color="#40D5E6"/>
<stop offset="1" stop-color="#5577FF"/>
</linearGradient>
</defs>
</svg>
