<svg width="17" height="26" viewBox="0 0 17 26" fill="none" xmlns="http://www.w3.org/2000/svg">
<path d="M1.01525 21.5173L1.0155 23.2288L0.20051 23.229L0.200885 26L11.7813 25.9983H14.0561V23.2225H13.3221L13.3219 21.5155H12.6144C12.6676 21.1224 12.7114 20.7331 12.7188 20.3436C12.7256 19.9261 12.6825 19.5222 12.6006 19.1294C12.3914 18.1259 11.9288 17.1958 11.3978 16.2985C10.4627 14.726 9.2346 13.3974 7.96257 12.1015C7.8262 11.9689 7.69733 11.8279 7.47693 11.5963C8.59193 11.8567 9.54348 11.6194 10.4782 11.2942C11.1524 11.0616 11.6781 11.2539 12.1591 11.7348C13.1753 12.7665 14.1867 12.9344 15.4669 12.317C16.0093 12.0517 16.5144 11.0413 16.4013 10.4539C16.3649 10.2662 16.2855 10.0459 16.3461 9.88155C16.5422 9.31093 16.2405 9.01779 15.8436 8.69655C14.9209 7.94681 14.0093 7.17658 13.1389 6.3699C12.7009 5.96468 12.3711 5.44645 11.9789 4.9936C11.8098 4.80029 11.6165 4.60798 11.3961 4.48005C11.1234 4.31946 10.8106 4.2308 10.5136 4.1113C9.87289 3.85087 9.68895 3.77526 9.63563 3.39427L9.64394 3.29618C9.67235 2.95858 9.44832 2.65133 9.11822 2.57516L8.66623 2.47089L8.66586 0H8.63783C7.24741 0.000249748 6.10456 1.05937 5.97126 2.41532C3.02048 3.30848 1.28017 5.35848 0.404679 8.23758C-0.384963 10.8272 0.0916198 13.3186 0.887631 15.8108C1.36971 17.3236 1.79484 18.8652 2.14062 20.4181C2.21629 20.7664 2.20043 21.14 2.16409 21.5173L1.01525 21.5173ZM10.2059 7.01181C9.88238 7.01181 9.62021 6.74958 9.62021 6.42615C9.62021 6.10273 9.88238 5.84049 10.2059 5.84049C10.5294 5.84049 10.7915 6.10267 10.7915 6.42615C10.7915 6.74964 10.5294 7.01181 10.2059 7.01181Z" fill="#268BBF"/>
</svg>
