<svg width="28" height="26" viewBox="0 0 28 26" fill="none" xmlns="http://www.w3.org/2000/svg">
<path d="M26.4545 25.0901C26.6772 25.0901 26.8879 24.9898 27.0282 24.8167C27.1684 24.6437 27.2231 24.4168 27.1771 24.1989L26.712 21.9982C26.9769 21.7419 27.1434 21.3842 27.1434 20.9865C27.1434 20.5678 26.9569 20.1964 26.6674 19.9384V12.2958L24.8032 13.4495V19.9384C24.5138 20.1964 24.3272 20.5678 24.3272 20.9865C24.3272 21.3843 24.4938 21.742 24.7586 21.9982L24.2935 24.1989C24.2475 24.4168 24.3022 24.6438 24.4424 24.8167C24.5827 24.9897 24.7933 25.0901 25.016 25.0901H26.4545ZM27.0864 7.8361L14.9586 0.328615C14.6034 0.10983 14.203 0 13.8026 0C13.4022 0 13.0015 0.109738 12.6485 0.328615L0.520529 7.8361C0.196686 8.03648 0 8.3904 0 8.77131C0 9.15228 0.196686 9.50632 0.520529 9.70702L12.6485 17.2146C13.0015 17.4336 13.4022 17.5432 13.8026 17.5432C14.203 17.5432 14.6034 17.4334 14.9585 17.2146L27.0864 9.70702C27.4103 9.50641 27.607 9.15228 27.607 8.77131C27.607 8.3904 27.4103 8.03636 27.0864 7.8361ZM13.8026 19.4073C13.0471 19.4073 12.3098 19.1975 11.6671 18.7997L4.59279 14.4201V21.9613C4.59279 24.1933 8.71809 26 13.8026 26C18.8889 26 23.0138 24.1932 23.0138 21.9613V14.4201L15.9398 18.7997C15.2971 19.1975 14.558 19.4073 13.8026 19.4073Z" fill="#268BBF"/>
</svg>
