<svg width="24" height="26" viewBox="0 0 24 26" fill="none" xmlns="http://www.w3.org/2000/svg">
<path d="M11.7856 0C11.5444 0 11.3477 0.196776 11.3477 0.437986L11.4691 3.12938C11.4691 3.30473 11.6119 3.44676 11.7856 3.44676C11.961 3.44676 12.1022 3.30473 12.1022 3.12938L12.2244 0.437986C12.2244 0.196776 12.0277 0 11.7856 0Z" fill="#268BBF"/>
<path d="M6.49156 1.73926C6.37014 1.52978 6.10278 1.45757 5.89331 1.57899C5.68384 1.70041 5.61163 1.96777 5.73223 2.17724L7.18345 4.44731C7.27074 4.59965 7.46432 4.65124 7.6159 4.56395C7.76743 4.47589 7.81984 4.28227 7.73173 4.13074L6.49156 1.73926Z" fill="#268BBF"/>
<path d="M4.44687 7.18475L2.17757 5.73272C1.96728 5.61212 1.69911 5.68433 1.5785 5.8938C1.45708 6.10327 1.5293 6.37144 1.73877 6.49205L4.13101 7.73222C4.28178 7.81952 4.47617 7.76792 4.56346 7.61639C4.64999 7.46486 4.59845 7.27205 4.44687 7.18475Z" fill="#268BBF"/>
<path d="M21.8351 17.083L19.4428 15.842C19.2921 15.7547 19.0985 15.8063 19.0112 15.9578C18.9239 16.1086 18.9755 16.3022 19.127 16.3903L21.3971 17.8415C21.6066 17.9621 21.8747 17.8907 21.9953 17.6812C22.116 17.471 22.0454 17.2036 21.8351 17.083Z" fill="#268BBF"/>
<path d="M3.44595 11.7876C3.44595 11.613 3.30473 11.4711 3.12938 11.4711L0.437986 11.3489C0.195964 11.3489 0 11.5457 0 11.7877C0 12.0297 0.195964 12.2257 0.437986 12.2257L3.12938 12.1042C3.30473 12.1042 3.44595 11.9622 3.44595 11.7876Z" fill="#268BBF"/>
<path d="M23.1369 11.3489L20.4455 11.4711C20.2709 11.4711 20.1289 11.6131 20.1289 11.7876C20.1289 11.9622 20.2709 12.1042 20.4455 12.1042L23.1369 12.2256C23.3789 12.2256 23.5757 12.0288 23.5757 11.7876C23.5757 11.5457 23.3789 11.3497 23.1369 11.3489Z" fill="#268BBF"/>
<path d="M4.13101 15.842L1.73877 17.083C1.5293 17.2036 1.45708 17.4718 1.5785 17.6812C1.69911 17.8907 1.96728 17.9621 2.17757 17.8415L4.44687 16.3903C4.5984 16.3022 4.64999 16.1086 4.56351 15.9578C4.47617 15.8063 4.28178 15.7547 4.13101 15.842Z" fill="#268BBF"/>
<path d="M19.4428 7.73222L21.8351 6.49205C22.0454 6.37144 22.1159 6.10327 21.9953 5.8938C21.8747 5.68433 21.6066 5.61212 21.3971 5.73272L19.127 7.18475C18.9755 7.27205 18.9239 7.46486 19.0112 7.61639C19.0985 7.76792 19.2921 7.81947 19.4428 7.73222Z" fill="#268BBF"/>
<path d="M17.681 1.57899C17.4707 1.45757 17.2034 1.52978 17.0828 1.73926L15.8418 4.13074C15.7537 4.28227 15.8053 4.47589 15.9576 4.56395C16.1092 4.65124 16.3028 4.59965 16.3901 4.44731L17.8413 2.17724C17.9627 1.96777 17.8905 1.70036 17.681 1.57899Z" fill="#268BBF"/>
<path d="M15.944 11.0487L6.93034 14.0305C6.90338 14.0393 6.87956 14.0535 6.85417 14.0647C6.81451 14.0813 6.77561 14.0956 6.7391 14.1163C6.70655 14.1337 6.67801 14.1552 6.64785 14.1758C6.61692 14.1972 6.58595 14.2162 6.55741 14.2408C6.52806 14.2654 6.50185 14.2932 6.4757 14.3202C6.45112 14.3456 6.42573 14.3694 6.40349 14.3972C6.38049 14.4265 6.36063 14.4583 6.34001 14.4884C6.3194 14.5194 6.29873 14.5488 6.28207 14.5805C6.2646 14.6122 6.25272 14.6464 6.23845 14.6789C6.22418 14.7139 6.2091 14.7479 6.19798 14.7844C6.18686 14.8194 6.18051 14.8566 6.1734 14.8939C6.16705 14.9289 6.15832 14.9637 6.15436 15.0003C6.1504 15.0415 6.15197 15.0836 6.15197 15.1264C6.15278 15.1542 6.14877 15.1811 6.15116 15.2105C6.15116 15.216 6.15355 15.2216 6.15436 15.228C6.15832 15.2645 6.16705 15.301 6.17421 15.3374C6.18295 15.3771 6.1893 15.4184 6.20118 15.4572C6.20356 15.462 6.20356 15.4675 6.20514 15.4731C6.22261 15.5247 6.24404 15.5755 6.26862 15.6231C6.27496 15.6358 6.28131 15.65 6.28923 15.6627C6.31782 15.7167 6.35113 15.7667 6.38765 15.8143C6.40192 15.8317 6.417 15.8468 6.43051 15.8635C6.46143 15.8984 6.49317 15.9317 6.52729 15.9619C6.54552 15.9778 6.56381 15.9928 6.58285 16.0079C6.61855 16.0357 6.65506 16.0619 6.69314 16.0849C6.713 16.0968 6.73204 16.1087 6.75185 16.1198C6.80344 16.1468 6.85661 16.1706 6.91135 16.1905C6.92009 16.1928 6.92801 16.1976 6.93593 16.2008C7.00098 16.2214 7.06842 16.2349 7.13667 16.2444C7.15332 16.2468 7.17079 16.2476 7.18826 16.2484C7.22081 16.2523 7.25412 16.2563 7.28825 16.2563C7.30968 16.2563 7.33029 16.2531 7.35172 16.2523C7.36203 16.2507 7.37234 16.2531 7.38346 16.2523C7.85639 16.2134 8.26659 16.3602 8.63872 16.7022C8.88389 16.9283 9.08701 17.2163 9.24494 17.5163H8.79426C8.2896 17.5163 7.88101 17.9257 7.88101 18.4303V21.2423C7.88101 21.747 8.28965 22.1564 8.79426 22.1564H9.60351C9.60351 22.2516 9.60351 22.3706 9.60351 22.5031C9.421 22.5031 9.27262 22.6515 9.27262 22.8348C9.27262 23.0173 9.421 23.1656 9.60351 23.1656C9.60351 23.2751 9.60351 23.3862 9.60351 23.4973C9.421 23.4973 9.27262 23.6457 9.27262 23.8289C9.27262 24.0114 9.421 24.1598 9.60351 24.1598C9.60351 24.4566 9.60351 24.7136 9.60351 24.8732C9.60351 25.5357 10.0018 25.6016 10.6644 25.6016C10.6644 25.6016 10.7961 25.9999 12.0561 25.9999C13.3153 25.9999 13.4478 25.6016 13.4478 25.6016C14.1103 25.6016 14.5086 25.5357 14.5086 24.8732C14.5086 24.7121 14.5086 24.4534 14.5086 24.1527C14.6594 24.1225 14.7737 23.9884 14.7737 23.8289C14.7737 23.6687 14.6594 23.5346 14.5086 23.5036C14.5086 23.3886 14.5086 23.2727 14.5086 23.1593C14.6594 23.1291 14.7737 22.9943 14.7737 22.8348C14.7737 22.6737 14.6594 22.5404 14.5086 22.5102C14.5086 22.3737 14.5086 22.2539 14.5086 22.1563H15.3838C15.8885 22.1563 16.2971 21.7469 16.2971 21.2423V18.4303C16.2971 17.9256 15.8884 17.5162 15.3838 17.5162H14.9839C15.2235 16.9854 15.575 16.5236 16.0487 16.2657C16.6026 15.9626 16.8073 15.27 16.505 14.7161C16.2027 14.163 15.5092 13.9591 14.9561 14.2606C13.6573 14.9684 12.9177 16.2443 12.5655 17.5162H11.7038C11.4625 16.7394 11.0373 15.9221 10.4366 15.2754L16.6613 13.2164C17.2587 13.0181 17.584 12.3722 17.3857 11.7739C17.1873 11.1749 16.5415 10.8504 15.944 11.0487Z" fill="#268BBF"/>
<path d="M7.28774 12.589C7.40677 12.589 7.52814 12.5699 7.64717 12.5303L16.6608 9.54848C17.2583 9.35013 17.5836 8.70424 17.3852 8.10599C17.1869 7.50693 16.541 7.18238 15.9435 7.38079L6.92989 10.3626C6.33164 10.5609 6.00628 11.206 6.20468 11.8051C6.36337 12.2843 6.80928 12.589 7.28774 12.589Z" fill="#268BBF"/>
<path d="M8.04524 8.71766C8.16427 8.71766 8.28564 8.6978 8.40467 8.65972L14.7142 6.57135C15.3125 6.373 15.637 5.72793 15.4394 5.12886C15.2411 4.53061 14.596 4.20526 13.9969 4.40366L7.68739 6.49203C7.08914 6.68962 6.7646 7.33545 6.96218 7.93375C7.12088 8.41378 7.56678 8.71766 8.04524 8.71766Z" fill="#268BBF"/>
</svg>
