<svg width="24" height="26" viewBox="0 0 24 26" fill="none" xmlns="http://www.w3.org/2000/svg">
<path d="M11.9167 0C10.6301 0 9.58183 1.04825 9.58183 2.33484C9.58183 3.6204 10.6198 4.66865 11.9167 4.66865C13.1929 4.66865 14.2505 3.6204 14.2505 2.33484C14.2505 1.04825 13.2033 0 11.9167 0ZM14.8571 5.15873H8.97619C7.3677 5.15873 6.0873 6.5423 6.0873 8.15079V11.4524H8.15079V8.66667C8.15079 8.49024 8.28389 8.35714 8.46032 8.35714C8.63675 8.35714 8.76984 8.49024 8.76984 8.66667V11.4524H15.0635V8.66667C15.0635 8.49024 15.1966 8.35714 15.373 8.35714C15.5494 8.35714 15.6825 8.49024 15.6825 8.66667V11.4524H17.746V8.15079C17.746 6.55262 16.4553 5.15873 14.8571 5.15873ZM0 11.9683V14.754H2.37302V26H21.4603V14.754H23.9365V11.9683H0ZM11.961 24.0758C9.32079 24.0758 7.17786 21.9329 7.17786 19.2926C7.17786 16.6379 9.30635 14.4806 11.961 14.4806C14.6157 14.4806 16.7586 16.6235 16.7586 19.2782C16.7586 21.9329 14.6013 24.0758 11.961 24.0758ZM12.4253 18.8098C11.7629 18.5405 11.4544 18.4125 11.4544 18.0814C11.4544 17.8399 11.7196 17.5985 12.2076 17.5985C12.6946 17.5985 13.0495 17.7502 13.2672 17.8399L13.5365 16.8938C13.2435 16.737 12.8463 16.6235 12.2974 16.6235V15.8714H11.635V16.6617C10.7498 16.8412 10.2669 17.4138 10.2669 18.1422C10.2669 18.9325 10.8158 19.3772 11.6959 19.6847C12.3304 19.9313 12.5904 20.0685 12.5904 20.3997C12.5904 20.7309 12.3211 20.9723 11.7722 20.9723C11.2605 20.9723 10.7787 20.7917 10.4712 20.6411L10.2298 21.611C10.5083 21.7667 11.0861 21.9184 11.6587 21.9184V22.6468H12.3211V21.8947C13.291 21.677 13.7501 21.1044 13.7501 20.3522C13.7501 19.6001 13.3281 19.141 12.4253 18.8098Z" fill="#268BBF"/>
</svg>
