<svg width="23" height="26" viewBox="0 0 23 26" fill="none" xmlns="http://www.w3.org/2000/svg">
<path d="M22.75 15.1667V26H14.625V23.8333H7.58333V26H0V15.1667H22.75ZM17.8474 13.1923C17.5365 11.8333 16.835 10.6383 15.7295 9.72508C14.6586 8.83513 13.3916 8.66667 11.9221 8.125H11.9167V4.69733L12.2005 4.62096L12.8218 4.39075C13.0607 4.31004 13.2768 4.24233 13.5021 4.19467C13.7231 4.14213 13.8764 4.11992 13.9815 4.11992C14.1857 4.11992 14.4441 4.15242 14.7463 4.2185C15.054 4.29325 15.3817 4.37396 15.7148 4.4655C16.062 4.57058 16.3719 4.65021 16.6725 4.71792C16.959 4.78346 17.199 4.81054 17.3978 4.81054C17.7141 4.81108 17.875 4.76721 18.4167 4.67079V0.748042C17.875 0.876958 17.7791 0.947917 17.3972 0.947917C17.1985 0.947917 16.9525 0.917583 16.6655 0.845C16.3659 0.787583 16.0572 0.698208 15.71 0.597458C15.3768 0.496167 15.0621 0.419792 14.7712 0.355875C14.4771 0.286 14.2859 0.252417 14.0779 0.252417C13.3884 0.252417 12.4583 0.415458 11.9167 0.716083V0H10.8333V8.125H10.7992C9.34104 8.66667 8.06433 8.866 6.99454 9.75596C5.91012 10.6703 5.20596 11.7878 4.87283 13.1473C4.87283 13.1473 3.83446 13 3.83446 14.0833H18.9849C18.9849 13 17.8474 13.1923 17.8474 13.1923Z" fill="#268BBF"/>
</svg>
