<svg width="26" height="26" viewBox="0 0 26 26" fill="none" xmlns="http://www.w3.org/2000/svg">
<path d="M13 8.67286C10.6043 8.67286 8.67286 10.6229 8.67286 13C8.67286 15.3771 10.6229 17.3271 13 17.3271C15.3771 17.3271 17.3271 15.3771 17.3271 13C17.3271 10.6229 15.3771 8.67286 13 8.67286ZM26 13C26 11.1986 26 9.43429 25.9071 7.63286C25.8143 5.55286 25.3314 3.69571 23.8086 2.19143C22.2857 0.668572 20.4471 0.185714 18.3671 0.0928571C16.5657 -8.99391e-08 14.8014 0 13 0C11.1986 0 9.43429 -8.99391e-08 7.63286 0.0928571C5.55286 0.185714 3.69571 0.668572 2.19143 2.19143C0.668572 3.71429 0.185714 5.55286 0.0928571 7.63286C-8.99392e-08 9.43429 0 11.1986 0 13C0 14.8014 -8.99392e-08 16.5657 0.0928571 18.3671C0.185714 20.4471 0.668572 22.3043 2.19143 23.8086C3.71429 25.3314 5.55286 25.8143 7.63286 25.9071C9.43429 26 11.1986 26 13 26C14.8014 26 16.5657 26 18.3671 25.9071C20.4471 25.8143 22.3043 25.3314 23.8086 23.8086C25.3314 22.2857 25.8143 20.4471 25.9071 18.3671C26.0186 16.5843 26 14.8014 26 13ZM13 19.6671C9.30429 19.6671 6.33286 16.6957 6.33286 13C6.33286 9.30429 9.30429 6.33286 13 6.33286C16.6957 6.33286 19.6671 9.30429 19.6671 13C19.6671 16.6957 16.6957 19.6671 13 19.6671ZM19.9457 7.61429C19.0914 7.61429 18.3857 6.92714 18.3857 6.05429C18.3857 5.18143 19.0729 4.49429 19.9457 4.49429C20.8186 4.49429 21.5057 5.18143 21.5057 6.05429C21.5104 6.25771 21.4733 6.45993 21.3966 6.64841C21.3199 6.83689 21.2054 7.00762 21.06 7.15C20.9176 7.29537 20.7469 7.40994 20.5584 7.48661C20.3699 7.56328 20.1677 7.60041 19.9643 7.59571L19.9457 7.61429Z" fill="#414141"/>
</svg>
