<svg width="32" height="32" viewBox="0 0 32 32" fill="none" xmlns="http://www.w3.org/2000/svg">
<path d="M26.666 5.33325H5.33268C3.86602 5.33325 2.66602 6.53325 2.66602 7.99992V23.9999C2.66602 25.4666 3.86602 26.6666 5.33268 26.6666H26.666C28.1327 26.6666 29.3327 25.4666 29.3327 23.9999V7.99992C29.3327 6.53325 28.1327 5.33325 26.666 5.33325ZM26.1327 10.9999L17.4127 16.4533C16.546 16.9999 15.4527 16.9999 14.586 16.4533L5.86602 10.9999C5.73232 10.9249 5.61524 10.8235 5.52187 10.7019C5.42849 10.5802 5.36077 10.441 5.32278 10.2924C5.2848 10.1439 5.27735 9.98917 5.30089 9.83766C5.32443 9.68616 5.37846 9.541 5.45972 9.41099C5.54098 9.28097 5.64778 9.16879 5.77365 9.08125C5.89952 8.9937 6.04184 8.9326 6.19201 8.90165C6.34218 8.8707 6.49706 8.87054 6.64729 8.90118C6.79752 8.93182 6.93997 8.99263 7.06602 9.07992L15.9993 14.6666L24.9327 9.07992C25.0587 8.99263 25.2012 8.93182 25.3514 8.90118C25.5016 8.87054 25.6565 8.8707 25.8067 8.90165C25.9569 8.9326 26.0992 8.9937 26.225 9.08125C26.3509 9.16879 26.4577 9.28097 26.539 9.41099C26.6202 9.541 26.6743 9.68616 26.6978 9.83766C26.7213 9.98917 26.7139 10.1439 26.6759 10.2924C26.6379 10.441 26.5702 10.5802 26.4768 10.7019C26.3835 10.8235 26.2664 10.9249 26.1327 10.9999Z" fill="white"/>
</svg>
