<svg width="25" height="26" viewBox="0 0 25 26" fill="none" xmlns="http://www.w3.org/2000/svg">
<path d="M1.66411 15.8229H22.7442C23.0468 15.8229 23.3432 15.7366 23.5985 15.5742C23.8538 15.4118 24.0576 15.18 24.1859 14.906C24.3142 14.6319 24.3617 14.3269 24.3229 14.0268C24.2841 13.7267 24.1606 13.4439 23.9668 13.2115L13.4268 0.572424C13.2774 0.393254 13.0904 0.249109 12.8792 0.150191C12.6679 0.0512734 12.4375 0 12.2042 0C11.9709 0 11.7405 0.0512734 11.5292 0.150191C11.3179 0.249109 11.131 0.393254 10.9816 0.572424L0.441583 13.2115C0.247778 13.4439 0.124229 13.7267 0.0854154 14.0268C0.0466017 14.3269 0.0941317 14.6319 0.222435 14.906C0.350738 15.18 0.554498 15.4118 0.809835 15.5742C1.06517 15.7366 1.36151 15.8229 1.66411 15.8229ZM12.2042 2.42034L21.6108 13.7004H2.7975L12.2042 2.42034Z" fill="#268BBF"/>
<path d="M22.8163 18.5715H1.59183C1.1698 18.572 0.765185 18.7399 0.466761 19.0383C0.168337 19.3367 0.00047399 19.7413 0 20.1634V24.4083C0.00047399 24.8303 0.168337 25.2349 0.466761 25.5333C0.765185 25.8318 1.1698 25.9996 1.59183 26.0001H22.8163C23.2383 25.9996 23.6429 25.8318 23.9414 25.5333C24.2398 25.2349 24.4076 24.8303 24.4081 24.4083V20.1634C24.4076 19.7413 24.2398 19.3367 23.9414 19.0383C23.6429 18.7399 23.2383 18.572 22.8163 18.5715ZM22.2857 23.8776H2.12244V20.694H22.2857V23.8776Z" fill="#268BBF"/>
</svg>
