<svg width="32" height="32" viewBox="0 0 32 32" fill="none" xmlns="http://www.w3.org/2000/svg">
<path fill-rule="evenodd" clip-rule="evenodd" d="M22.07 29.5107C20.15 29.44 14.7087 28.688 9.00998 22.9907C3.31265 17.292 2.56198 11.852 2.48998 9.93071C2.38332 7.00271 4.62598 4.15871 7.21665 3.04804C7.52862 2.91333 7.87025 2.86204 8.20802 2.89921C8.5458 2.93638 8.8681 3.06072 9.14332 3.26004C11.2767 4.81471 12.7487 7.16671 14.0127 9.01604C14.2908 9.42235 14.4097 9.91677 14.3467 10.4051C14.2838 10.8934 14.0434 11.3415 13.6713 11.664L11.07 13.596C10.9443 13.6868 10.8558 13.8201 10.821 13.9711C10.7862 14.1222 10.8074 14.2808 10.8807 14.4174C11.47 15.488 12.518 17.0827 13.718 18.2827C14.918 19.4827 16.5887 20.6 17.734 21.256C17.8776 21.3367 18.0466 21.3592 18.2063 21.319C18.366 21.2788 18.5043 21.179 18.5927 21.04L20.286 18.4627C20.5973 18.0492 21.0566 17.7721 21.5676 17.6896C22.0786 17.6071 22.6017 17.7255 23.0273 18.02C24.9033 19.3187 27.0927 20.7654 28.6953 22.8174C28.9108 23.0946 29.0479 23.4246 29.0922 23.7729C29.1366 24.1212 29.0865 24.475 28.9473 24.7974C27.8313 27.4014 25.0073 29.6187 22.07 29.5107Z" fill="white"/>
</svg>
