<svg width="39" height="26" viewBox="0 0 39 26" fill="none" xmlns="http://www.w3.org/2000/svg">
<path d="M19.4134 8.43557C21.7483 8.43557 23.6312 6.55255 23.6312 4.21779C23.6312 1.88303 21.7633 0 19.4134 0C17.0785 0 15.1956 1.88303 15.1956 4.21779C15.2106 6.56777 17.0936 8.43557 19.4134 8.43557ZM9.62204 20.6523H2.04503C-0.410268 20.6523 -0.54588 16.9014 2.09024 16.9014H8.65785L12.4238 11.358C13.5385 9.83658 14.8039 9.11348 16.5963 9.11348H22.2151C24.0078 9.11348 25.273 9.77631 26.3877 11.358L30.1687 16.9014H36.7817C39.4328 16.9014 39.2671 20.6523 36.8721 20.6523H29.2951C28.6925 20.6523 27.9694 20.4413 27.5476 19.7937L24.6554 15.6663L24.6403 26H14.2766L14.2616 15.6663L11.3693 19.7937C10.9476 20.4263 10.2246 20.6523 9.62204 20.6523Z" fill="#268BBF"/>
<path d="M38.7463 15.0679H35.3771V12.8577H33.9395V15.0679H30.5703V4.51101H32.5919V3.74731H36.7248V4.51101H38.7463V15.0679ZM33.2658 9.89272H31.9181V11.2404H33.2658V9.89272ZM33.2658 7.88023H31.9181V9.22788H33.2658V7.88023ZM33.2658 5.85867H31.9181V7.20632H33.2658V5.85867ZM35.3771 9.89272H33.9395V11.2404H35.3771V9.89272ZM35.3681 9.22788V7.88023H34.6583H34.6494H33.9397V9.22788H35.3773H35.3681ZM35.3771 5.85867H34.6674H34.6585H33.9488V7.20632H34.6585H34.6674H35.3771V5.85867ZM37.3987 9.89272H36.051V11.2404H37.3987V9.89272ZM37.3987 7.88023H36.051V9.22788H36.1679H37.3988L37.3987 7.88023ZM37.3987 5.85867H36.051V7.20632H37.3987V5.85867Z" fill="#268BBF"/>
<path d="M9.82859 10.2216C9.82859 10.5174 9.58873 10.7654 9.28476 10.7654C9.12485 10.7654 8.97279 10.6935 8.87685 10.5815L8.23708 9.98972V15.0679H5.94768V11.4887H3.97655V15.0679H1.65547V9.94959L0.919758 10.6134C0.823815 10.7093 0.687897 10.7653 0.543829 10.7653C0.247852 10.7654 0 10.5254 0 10.2216C0 10.0537 0.0799522 9.89363 0.199881 9.79769L4.96626 5.53516L6.39772 6.83869V5.73504H7.62129V7.95832L9.69267 9.85365C9.78062 9.94959 9.82859 10.0777 9.82859 10.2216Z" fill="#268BBF"/>
</svg>
