<svg width="26" height="26" viewBox="0 0 26 26" fill="none" xmlns="http://www.w3.org/2000/svg">
<path d="M0 8.138L3.25 0H22.75L26 8.138C26 9.03933 25.6793 9.802 25.038 10.426C24.3967 11.05 23.634 11.3707 22.75 11.388C21.866 11.4053 21.1033 11.0847 20.462 10.426C19.8207 9.76733 19.5 9.00467 19.5 8.138C19.5 9.03933 19.1793 9.802 18.538 10.426C17.8967 11.05 17.134 11.3707 16.25 11.388C15.366 11.4053 14.6033 11.0847 13.962 10.426C13.3207 9.76733 13 9.00467 13 8.138C13 9.03933 12.6793 9.802 12.038 10.426C11.3967 11.05 10.634 11.3707 9.75 11.388C8.866 11.4053 8.10333 11.0847 7.462 10.426C6.82067 9.76733 6.5 9.00467 6.5 8.138C6.5 9.03933 6.17933 9.802 5.538 10.426C4.89667 11.05 4.134 11.3707 3.25 11.388C2.366 11.4053 1.60333 11.0847 0.962 10.426C0.320667 9.76733 0 9.00467 0 8.138ZM1.638 24.388H24.388V26H1.638V24.388ZM3.25 22.75V13C4.48067 13 5.564 12.584 6.5 11.752V19.5H19.5V11.752C20.436 12.584 21.5193 13 22.75 13V22.75H3.25Z" fill="#268BBF"/>
</svg>
