<svg width="26" height="26" viewBox="0 0 26 26" fill="none" xmlns="http://www.w3.org/2000/svg">
<path d="M17.133 1.7109L16.5365 2.30813C14.5866 0.358225 11.4125 0.358225 9.4626 2.30813L8.86611 1.7109C11.1451 -0.5703 14.8547 -0.5703 17.133 1.7109ZM9.89789 2.74193L10.4944 3.33916C11.8753 1.95974 14.1245 1.95974 15.5047 3.33916L16.1027 2.74193C14.392 1.03271 11.6086 1.03271 9.89789 2.74193ZM10.9631 3.80862L11.5611 4.40585C12.3544 3.61103 13.6476 3.61103 14.4395 4.40585L15.0389 3.80788C13.9136 2.68399 12.0862 2.68399 10.9631 3.80862ZM17.133 24.2897L16.5365 23.6917C14.5866 25.6416 11.4125 25.6416 9.4626 23.6917L8.86611 24.2897C11.1458 26.5701 14.8562 26.5701 17.133 24.2897ZM16.1019 23.2579L15.5054 22.6614C14.1245 24.0401 11.8745 24.0401 10.4951 22.6614L9.89715 23.2579C11.6086 24.9671 14.392 24.9671 16.1019 23.2579ZM15.0375 22.1919L14.4402 21.594C13.6462 22.3888 12.3529 22.3888 11.5603 21.594L10.9624 22.1927C12.0862 23.3158 13.9136 23.3158 15.0375 22.1919ZM24.2908 8.86723L23.6921 9.46445C25.642 11.4151 25.642 14.5877 23.6921 16.5368L24.2908 17.1341C26.5697 14.8544 26.5697 11.1455 24.2908 8.86723ZM23.2575 9.89826L22.661 10.4955C24.0404 11.8749 24.0404 14.1249 22.661 15.5043L23.2575 16.1023C24.9675 14.3916 24.9675 11.6082 23.2575 9.89826ZM22.1923 10.9635L21.5936 11.5599C22.3884 12.3548 22.3884 13.648 21.5936 14.4399L22.1923 15.0386C23.3154 13.9132 23.3154 12.0866 22.1923 10.9635ZM1.70979 17.1326L2.30924 16.5361C0.357853 14.5855 0.357854 11.4121 2.30776 9.46223L1.70979 8.86574C-0.569929 11.1462 -0.569929 14.8551 1.70979 17.1326ZM2.74231 16.1023L3.33879 15.5051C1.95937 14.1249 1.95937 11.8749 3.33879 10.4962L2.74231 9.89826C1.03233 11.609 1.03233 14.3923 2.74231 16.1023ZM3.80825 15.0371L4.40548 14.4399C3.61066 13.6458 3.61066 12.3525 4.40548 11.5599L3.80751 10.962C2.68437 12.0866 2.68437 13.9132 3.80825 15.0371ZM17.5125 9.69696L17.4464 9.78758L17.8468 10.3038L18.0786 10.1612C18.0288 10.1449 17.979 10.1122 17.9389 10.0609C17.9389 10.0609 17.6321 9.84849 17.5125 9.69696ZM19.8829 13.0003C19.8829 16.8005 16.8031 19.8818 13.0014 19.8818C9.19964 19.8818 6.11694 16.802 6.11694 13.0003C6.11694 9.20075 9.1989 6.11805 13.0014 6.11805C16.8024 6.11805 19.8829 9.20075 19.8829 13.0003ZM8.45311 8.73946C8.51253 8.71049 8.57196 8.68598 8.63138 8.66815C8.63138 8.66815 9.20558 8.60947 8.96491 8.2492C8.78663 8.40296 8.6143 8.56639 8.45311 8.73946ZM9.39872 13.7535C9.39872 13.7535 9.30735 13.4519 8.84754 13.4519C8.84754 13.4519 8.57047 13.1496 8.32386 13.1496C8.32386 13.1496 8.23249 12.3013 7.7712 12.484C7.7712 12.484 7.7088 12.149 7.52458 12.1809C7.52458 12.1809 7.40424 11.8504 7.18808 11.9388L6.94147 11.788C6.94147 11.788 6.91993 11.8281 6.88353 11.8868C6.8241 12.2344 6.79067 12.5888 6.79067 12.9527C6.79067 14.7095 7.52904 16.2984 8.71012 17.4223C8.71161 17.3703 8.72572 17.3153 8.75618 17.27C8.75618 17.27 8.87874 17.0271 8.72423 16.8176C8.72423 16.8176 8.87874 16.6044 8.87874 16.3303C8.87874 16.3303 8.72423 15.8505 9.12387 15.7888C9.12387 15.7888 9.67653 15.7888 9.40094 14.818C9.40094 14.818 9.37049 14.5468 9.58665 14.275C9.58442 14.269 9.7991 13.6926 9.39872 13.7535ZM9.77013 7.6698C9.49305 7.83619 9.23084 8.02561 8.98496 8.23286C9.1261 8.24772 9.71218 8.28931 9.75081 7.95579L9.77013 7.6698ZM18.1127 10.1686C18.2294 10.1991 18.3549 10.1642 18.4477 10.1248C17.5081 8.30714 15.6926 7.01166 13.5578 6.8059C13.0645 7.28576 13.6692 7.48707 13.6692 7.48707C13.8853 7.63638 14.3422 7.36302 14.3422 7.36302C14.5294 7.57472 13.8215 7.87779 13.8215 7.87779C13.4241 7.90676 13.1165 8.11995 13.1165 8.11995C12.9316 7.84734 12.7473 8.05755 12.7473 8.05755C12.5958 8.24029 12.9628 8.33314 12.9628 8.33314C13.2079 8.39182 13.147 8.5441 13.0526 8.63324C12.9628 8.72386 12.5639 8.63324 12.5639 8.63324C12.3485 8.75506 12.5015 9.17773 12.5015 9.17773H12.6864C13.2993 9.35749 13.3319 8.90585 13.3319 8.90585C13.5139 8.90585 13.5778 8.60278 13.5778 8.60278C13.7316 8.75506 14.1 8.51216 14.1 8.51216C14.1305 8.63324 14.3132 8.81449 14.3132 8.81449C14.5903 8.90585 14.6512 9.02693 14.6512 9.02693C14.3741 9.08785 14.6207 9.2067 14.6207 9.2067C14.9907 9.05442 14.7121 8.84643 14.7121 8.84643C14.0087 8.51216 14.3132 8.42154 14.3132 8.42154C14.438 8.63324 14.9298 8.72386 14.9298 8.72386C14.9907 9.11682 15.1749 9.17773 15.1749 9.17773C15.3888 9.26909 15.4497 9.08784 15.4497 9.08784C15.2358 9.02693 15.2031 8.84643 15.2031 8.84643C15.1444 8.6637 15.4193 8.78477 15.4193 8.78477C15.6659 9.14579 16.1881 9.11681 16.1881 9.11681C16.5238 9.08784 16.4332 9.69027 16.4332 9.69027C16.0648 9.93392 15.3569 9.50977 15.3569 9.50977C15.4193 9.72221 15.1444 9.7497 15.1444 9.7497C14.8659 9.41989 14.438 9.57068 14.438 9.57068C14.5294 9.41989 14.3741 9.17773 14.3741 9.17773C14.1305 9.11681 13.7316 9.23715 13.7316 9.23715C13.4241 9.35749 12.8395 9.38943 12.8395 9.38943C12.5639 9.38943 12.3797 9.93392 12.3797 9.93392C11.7646 10.205 11.7037 10.7503 11.7037 10.7503C11.7037 11.0845 11.6428 11.4158 11.6428 11.4158C11.4274 11.7471 12.0402 12.1126 12.0402 12.1126C12.4109 12.8086 12.8699 12.5063 12.8699 12.5063C13.2398 12.6564 14.0376 12.3548 14.0376 12.3548C14.1305 12.6564 14.5598 12.5665 14.5598 12.5665C14.7121 12.6564 14.6512 12.9609 14.6512 12.9609C14.438 13.3197 14.8369 13.6577 14.8369 13.6577C15.4497 14.3544 15.0479 14.5342 15.0479 14.5342C14.6207 14.9576 14.8978 15.3231 14.8978 15.3231C15.2031 15.9901 15.2031 16.5599 15.2031 16.5599C16.2475 16.7107 16.616 15.9255 16.616 15.9255C16.9539 15.9255 16.9539 15.6254 16.9539 15.6254C16.9539 15.2622 17.1701 15.1129 17.1701 15.1129C17.6611 14.7801 17.5697 14.113 17.5697 14.113C17.5088 13.7216 17.6611 13.3561 17.6611 13.3561C18.2427 12.6905 18.2138 11.6929 18.2138 11.6929C17.9686 11.814 17.8149 11.7219 17.8149 11.7219C17.263 11.1759 16.587 9.99557 16.587 9.99557C17.2332 10.2682 17.754 11.5392 17.754 11.5392C18.1239 11.3572 18.2427 11.0259 18.2427 11.0259C18.6015 10.7087 18.2086 10.266 18.1127 10.1686Z" fill="#268BBF"/>
</svg>
