<svg width="38" height="26" viewBox="0 0 38 26" fill="none" xmlns="http://www.w3.org/2000/svg">
<path d="M0.770724 17.849H20.1982C20.4885 17.849 20.7261 17.6114 20.7261 17.3211V1.58375C20.7261 0.709041 20.017 0 19.1423 0H1.82662C0.951908 0 0.242867 0.709041 0.242867 1.58375V17.321C0.242806 17.6114 0.480399 17.849 0.770724 17.849ZM4.68547 7.24425C4.68547 6.88237 4.9788 6.58898 5.34074 6.58898H10.5235V4.74231C10.5235 4.15854 11.2295 3.86619 11.6422 4.27914L16.1082 8.74732C16.364 9.00318 16.364 9.41798 16.1082 9.67378L11.6422 14.1412C11.2295 14.5541 10.5235 14.2618 10.5235 13.678V11.8309H5.34068C4.9788 11.8309 4.68541 11.5375 4.68541 11.1756L4.68547 7.24425ZM6.95797 22.0881H0.527918C0.237532 22.0881 0 21.8506 0 21.5602V19.9554C0 19.665 0.237532 19.4274 0.527918 19.4274H8.41505C7.64427 20.0979 7.11108 21.0323 6.95797 22.0881ZM36.9966 19.4275H35.7138V12.253C35.7138 11.4136 35.4603 10.5901 34.9905 9.89322L31.7755 5.13135C30.9889 3.96993 29.6796 3.27309 28.2754 3.27309H23.2919C22.7058 3.27309 22.236 3.74822 22.236 4.32893V19.4275H14.0743C14.8504 20.0979 15.3836 21.0323 15.5367 22.0882H24.1417C24.4479 19.9923 26.2534 18.3716 28.4338 18.3716C30.6141 18.3716 32.4142 19.9924 32.7204 22.0882H36.9966C37.287 22.0882 37.5245 21.8506 37.5245 21.5602V19.9554C37.5245 19.665 37.287 19.4275 36.9966 19.4275ZM31.7385 10.8434H25.1607C24.8703 10.8434 24.6327 10.6111 24.6327 10.3155V6.66759C24.6327 6.37726 24.8703 6.13967 25.1607 6.13967H29.1676C29.3418 6.13967 29.5002 6.2241 29.6005 6.36138L32.1715 10.0146C32.4142 10.3631 32.1661 10.8434 31.7385 10.8434ZM11.2447 19.4275C9.43398 19.4275 7.96102 20.9003 7.96102 22.7164C7.96102 24.5271 9.43392 26 11.2447 26C13.0607 26 14.5284 24.5272 14.5284 22.7164C14.5283 20.9003 13.0607 19.4275 11.2447 19.4275ZM11.2447 24.3582C10.3366 24.3582 9.6029 23.6191 9.6029 22.7164C9.6029 21.8083 10.3367 21.0746 11.2447 21.0746C12.1527 21.0746 12.8865 21.8084 12.8865 22.7164C12.8865 23.6191 12.1527 24.3582 11.2447 24.3582ZM28.4337 19.4275C26.6177 19.4275 25.15 20.9003 25.15 22.7164C25.15 24.5271 26.6177 26 28.4337 26C30.2444 26 31.7173 24.5272 31.7173 22.7164C31.7174 20.9003 30.2446 19.4275 28.4337 19.4275ZM28.4337 24.3582C27.5256 24.3582 26.7919 23.6191 26.7919 22.7164C26.7919 21.8083 27.5257 21.0746 28.4337 21.0746C29.3417 21.0746 30.0755 21.8084 30.0755 22.7164C30.0756 23.6191 29.3418 24.3582 28.4337 24.3582Z" fill="#268BBF"/>
</svg>
