<svg width="26" height="26" viewBox="0 0 26 26" fill="none" xmlns="http://www.w3.org/2000/svg">
<path d="M24.3907 4.45168L19.5525 9.28982L19.5652 9.33215L23.2393 22.8561C23.3022 23.1516 23.2946 23.4577 23.217 23.7497C23.1394 24.0416 22.9941 24.3112 22.7928 24.5365L21.5801 25.7492C21.5016 25.8408 21.4014 25.9111 21.2886 25.9537C21.1758 25.9963 21.0541 26.0098 20.9347 25.9929C20.8153 25.9761 20.7021 25.9294 20.6055 25.8572C20.509 25.785 20.4321 25.6896 20.3822 25.5799L15.4128 16.5851L13.8361 15.0063L9.66674 19.1756C9.18887 19.602 8.65479 19.9609 8.07943 20.2423L9.01065 23.3047C9.08131 23.5967 9.0799 23.9015 9.00652 24.1927C8.93315 24.484 8.79002 24.7531 8.58948 24.9767L8.21911 25.3492C8.03001 25.5369 7.7744 25.6422 7.50799 25.6422C7.24158 25.6422 6.98597 25.5369 6.79688 25.3492L4.5958 23.1502L4.5577 23.1079L2.88997 21.4444L2.84764 21.4021L0.650794 19.2031C0.463135 19.014 0.357829 18.7584 0.357829 18.492C0.357829 18.2256 0.463135 17.97 0.650794 17.7809L1.02328 17.4084C1.24731 17.2086 1.51656 17.0662 1.80782 16.9936C2.09909 16.921 2.40364 16.9202 2.69526 16.9915L5.75771 17.9185C6.03932 17.3432 6.39819 16.8092 6.82439 16.3311L10.9937 12.1618L9.41489 10.5872L0.420104 5.61783C0.310375 5.56786 0.215009 5.49103 0.142817 5.39446C0.0706254 5.29789 0.0239356 5.18468 0.00706126 5.0653C-0.00981311 4.94591 0.00367211 4.8242 0.0462713 4.7114C0.0888706 4.5986 0.15921 4.49836 0.250791 4.41994L1.4635 3.20723C1.68887 3.00609 1.95844 2.86085 2.25039 2.78327C2.54233 2.70568 2.84844 2.69794 3.14394 2.76066L16.6679 6.43477L16.7102 6.44747L21.5483 1.60933C22.3314 0.822022 24.979 -0.549417 25.7663 0.233658C26.5494 1.02097 25.1759 3.66649 24.3907 4.45168Z" fill="#268BBF"/>
</svg>
