<svg width="38" height="26" viewBox="0 0 38 26" fill="none" xmlns="http://www.w3.org/2000/svg">
<path d="M14.8591 18.5714L24.4977 13L14.8591 7.42857V18.5714ZM36.3277 4.03C36.5691 4.90286 36.7362 6.07286 36.8477 7.55857C36.9777 9.04428 37.0334 10.3257 37.0334 11.44L37.1448 13C37.1448 17.0671 36.8477 20.0571 36.3277 21.97C35.8634 23.6414 34.7862 24.7186 33.1148 25.1829C32.242 25.4243 30.6448 25.5914 28.1934 25.7029C25.7791 25.8329 23.5691 25.8886 21.5262 25.8886L18.5734 26C10.792 26 5.94481 25.7029 4.03195 25.1829C2.36052 24.7186 1.28338 23.6414 0.819096 21.97C0.577668 21.0971 0.410525 19.9271 0.299096 18.4414C0.169096 16.9557 0.113382 15.6743 0.113382 14.56L0.00195312 13C0.00195312 8.93286 0.299096 5.94286 0.819096 4.03C1.28338 2.35857 2.36052 1.28143 4.03195 0.817143C4.90481 0.575714 6.50195 0.408571 8.95338 0.297143C11.3677 0.167143 13.5777 0.111428 15.6205 0.111428L18.5734 0C26.3548 0 31.202 0.297143 33.1148 0.817143C34.7862 1.28143 35.8634 2.35857 36.3277 4.03Z" fill="white"/>
</svg>
