<svg width="56" height="60" viewBox="0 0 56 60" fill="none" xmlns="http://www.w3.org/2000/svg">
<path d="M55.0428 52.3802C55.0539 54.5134 54.1491 56.5489 52.5579 57.9698C50.9667 59.3907 48.8422 60.0603 46.7238 59.8086C42.9118 59.2446 40.1183 55.9273 40.2112 52.0749V7.7842C40.1192 3.92763 42.9195 0.608756 46.7366 0.0504922C48.8529 -0.197213 50.9738 0.474202 52.5621 1.89463C54.1503 3.31505 55.0535 5.34819 55.0428 7.47892V52.3802Z" fill="white"/>
<path d="M8.37274 45.0409C12.4683 45.0409 15.7885 48.3611 15.7885 52.4566C15.7885 56.5522 12.4683 59.8724 8.37274 59.8724C4.27716 59.8724 0.957031 56.5522 0.957031 52.4566C0.957031 48.3611 4.27716 45.0409 8.37274 45.0409ZM27.8851 22.5648C23.7701 22.7904 20.5774 26.2421 20.6729 30.3622V50.2815C20.6729 55.6875 23.0515 58.9692 26.5368 59.6688C28.7248 60.1123 30.9962 59.5482 32.7225 58.1326C34.4488 56.717 35.447 54.6001 35.4408 52.3676V30.0187C35.4444 28.023 34.6462 26.1095 33.2255 24.7079C31.8048 23.3063 29.8806 22.5341 27.8851 22.5648Z" fill="white"/>
</svg>
