<svg width="52" height="60" viewBox="0 0 52 60" fill="none" xmlns="http://www.w3.org/2000/svg">
<path d="M10.1334 19.8047H41.8663V45.6637C41.8663 47.1999 40.6209 48.4454 39.0865 48.4454H35.908V56.3207C35.908 58.3206 34.3129 59.9414 32.3438 59.9414C30.3697 59.9414 28.7768 58.3206 28.7768 56.3207V48.4454H23.2255V56.3207C23.2255 58.3206 21.6272 59.9414 19.6582 59.9414C17.6896 59.9414 16.0914 58.3206 16.0914 56.3207V48.4454H12.9157C11.3811 48.4454 10.1332 47.1999 10.1332 45.6637L10.1334 19.8047ZM3.9148 19.5937C1.92566 19.5937 0.314453 21.23 0.314453 23.2499V37.5394C0.314453 39.557 1.92566 41.1961 3.9148 41.1961C5.9043 41.1961 7.51516 39.557 7.51516 37.5394V23.2499C7.51516 21.23 5.9043 19.5937 3.9148 19.5937ZM41.8664 17.199H10.1334C10.525 12.6781 13.4576 8.7877 17.6793 6.53512L14.6622 2.10497C14.2553 1.50754 14.4088 0.692388 15.0074 0.28563C15.6053 -0.121128 16.4188 0.0335597 16.8277 0.630513L20.1161 5.46239C21.9393 4.83192 23.9184 4.46993 25.9998 4.46993C28.0838 4.46993 30.063 4.83192 31.8861 5.46321L35.1745 0.632271C35.5783 0.0336769 36.3944 -0.121011 36.9923 0.285747C37.5909 0.692505 37.7444 1.50766 37.3375 2.10508L34.3229 6.53524C38.5444 8.78641 41.475 12.6768 41.8664 17.199ZM21.0621 11.0561C21.0621 10.0866 20.2771 9.30028 19.308 9.30028C18.3364 9.30028 17.5513 10.0866 17.5513 11.0561C17.5513 12.0251 18.3389 12.8111 19.308 12.8111C20.277 12.8111 21.0621 12.0251 21.0621 11.0561ZM34.6708 11.0561C34.6708 10.0866 33.8831 9.30028 32.9141 9.30028C31.9425 9.30028 31.1598 10.0866 31.1598 11.0561C31.1598 12.0251 31.9425 12.8111 32.9141 12.8111C33.8832 12.8111 34.6708 12.0251 34.6708 11.0561ZM48.0873 19.5886C46.1003 19.5886 44.4845 21.2274 44.4845 23.2475V37.542C44.4845 39.5621 46.1003 41.2013 48.0873 41.2013C50.077 41.2013 51.6851 39.5622 51.6851 37.542V23.2475C51.6852 21.2274 50.077 19.5886 48.0873 19.5886Z" fill="white"/>
</svg>
