<svg width="54" height="54" viewBox="0 0 54 54" fill="none" xmlns="http://www.w3.org/2000/svg">
<path d="M27.0006 8.25C27.0006 6.5924 26.3421 5.00269 25.17 3.83058C23.9979 2.65848 22.4082 2 20.7506 2C19.093 2 17.5033 2.65848 16.3312 3.83058C15.1591 5.00269 14.5006 6.5924 14.5006 8.25C13.1706 8.24962 11.8644 8.60292 10.7159 9.27369C9.56744 9.94446 8.618 10.9086 7.96491 12.0672C7.31182 13.2258 6.97858 14.5372 6.99935 15.8671C7.02011 17.1969 7.39413 18.4973 8.08308 19.635C6.37193 19.9656 4.82926 20.8817 3.71995 22.2258C2.61065 23.57 2.00391 25.2584 2.00391 27.0012C2.00391 28.744 2.61065 30.4325 3.71995 31.7767C4.82926 33.1208 6.37193 34.0369 8.08308 34.3675C7.39477 35.5051 7.02127 36.8052 7.00083 38.1347C6.98039 39.4642 7.31376 40.7752 7.96677 41.9334C8.61978 43.0917 9.56897 44.0555 10.7171 44.7261C11.8652 45.3967 13.1709 45.7501 14.5006 45.75C14.5009 47.4076 15.1597 48.9972 16.332 50.1691C17.5044 51.3409 19.0942 51.9991 20.7518 51.9988C22.4094 51.9984 23.999 51.3396 25.1709 50.1673C26.3427 48.9949 27.0009 47.4051 27.0006 45.7475" stroke="#268BBF" stroke-width="3.75" stroke-linecap="round" stroke-linejoin="round"/>
<path d="M27 45.75C27 47.4076 27.6585 48.9973 28.8306 50.1694C30.0027 51.3415 31.5924 52 33.25 52C34.9076 52 36.4973 51.3415 37.6694 50.1694C38.8415 48.9973 39.5 47.4076 39.5 45.75C40.8296 45.7501 42.1354 45.3968 43.2835 44.7261C44.4316 44.0555 45.3808 43.0917 46.0338 41.9335C46.6868 40.7752 47.0202 39.4642 46.9997 38.1347C46.9793 36.8053 46.6058 35.5051 45.9175 34.3675C47.6286 34.0369 49.1713 33.1209 50.2806 31.7767C51.3899 30.4325 51.9967 28.7441 51.9967 27.0013C51.9967 25.2585 51.3899 23.57 50.2806 22.2259C49.1713 20.8817 47.6286 19.9657 45.9175 19.635C46.6064 18.4974 46.9805 17.197 47.0012 15.8671C47.022 14.5373 46.6888 13.2258 46.0357 12.0672C45.3826 10.9086 44.4331 9.94449 43.2847 9.27372C42.1362 8.60295 40.83 8.24965 39.5 8.25003C39.5002 7.42927 39.3387 6.61651 39.0247 5.85816C38.7108 5.09982 38.2505 4.41073 37.6703 3.83025C37.09 3.24976 36.4011 2.78925 35.6429 2.47501C34.8847 2.16077 34.072 1.99894 33.2512 1.99878C31.5936 1.99845 30.0038 2.65661 28.8315 3.82848C27.6591 5.00035 27.0003 6.58993 27 8.24753" stroke="#268BBF" stroke-width="3.75" stroke-linecap="round" stroke-linejoin="round"/>
<path d="M23.2175 14.5025V19.45M14.5 23.2525H19.63M34.5575 23.2525H39.6875M34.5575 30.6875H39.6875M14.5 30.6875H19.63M23.2175 34.55V39.5M30.78 34.55V39.5M30.7575 14.5V19.45M22.1325 34.4225H32.06C32.723 34.4225 33.3589 34.1591 33.8278 33.6903C34.2966 33.2214 34.56 32.5855 34.56 31.9225V21.95C34.56 21.287 34.2966 20.6511 33.8278 20.1822C33.3589 19.7134 32.723 19.45 32.06 19.45H22.1325C21.4695 19.45 20.8336 19.7134 20.3647 20.1822C19.8959 20.6511 19.6325 21.287 19.6325 21.95V31.9225C19.6325 32.5855 19.8959 33.2214 20.3647 33.6903C20.8336 34.1591 21.4695 34.4225 22.1325 34.4225Z" stroke="#268BBF" stroke-width="3.75" stroke-linecap="round" stroke-linejoin="round"/>
</svg>
