<svg width="60" height="37" viewBox="0 0 60 37" fill="none" xmlns="http://www.w3.org/2000/svg">
<path d="M16.9124 13.8263C16.9124 14.565 16.9874 15.165 17.1299 15.6075C17.2874 16.0462 17.4899 16.5262 17.7674 17.0475C17.856 17.1852 17.9041 17.345 17.9062 17.5087C17.9062 17.7075 17.7862 17.91 17.5312 18.1088L16.2712 18.9488C16.1199 19.0579 15.94 19.1205 15.7537 19.1287C15.5512 19.1287 15.3524 19.0313 15.1537 18.8513C14.8841 18.5612 14.643 18.246 14.4337 17.91C14.2119 17.5252 14.0067 17.1311 13.8187 16.7288C12.2587 18.57 10.3049 19.4925 7.94992 19.4925C6.27367 19.4925 4.93492 19.0087 3.95992 18.0487C2.98117 17.0887 2.48242 15.8063 2.48242 14.205C2.48242 12.5025 3.08242 11.1225 4.29742 10.08C5.51617 9.0375 7.13242 8.52 9.18742 8.52C9.86242 8.52 10.5637 8.58 11.3024 8.6775C12.0412 8.77875 12.8024 8.94 13.5974 9.12V7.6575C13.5974 6.135 13.2787 5.07375 12.6599 4.455C12.0224 3.8325 10.9424 3.5325 9.40492 3.5325C8.70742 3.5325 7.99117 3.615 7.25242 3.795C6.51845 3.96968 5.79787 4.19651 5.09617 4.47375C4.86963 4.57632 4.63663 4.66401 4.39867 4.73625C4.29556 4.77032 4.18837 4.7905 4.07992 4.79625C3.79867 4.79625 3.65992 4.59375 3.65992 4.17375V3.19125C3.65992 2.8725 3.69742 2.62875 3.79867 2.49375C3.94979 2.30976 4.14263 2.16448 4.36117 2.07C5.05492 1.71 5.89492 1.41 6.87367 1.17C7.84867 0.9075 8.88742 0.791251 9.98617 0.791251C12.3599 0.791251 14.0962 1.33125 15.2137 2.41125C16.3124 3.49125 16.8712 5.13375 16.8712 7.33875V13.8263H16.9087H16.9124ZM8.80867 16.8675C9.46492 16.8675 10.1437 16.7475 10.8637 16.5075C11.5837 16.2675 12.2212 15.825 12.7574 15.225C13.079 14.8566 13.3112 14.419 13.4362 13.9462C13.5562 13.4625 13.6387 12.885 13.6387 12.2025V11.3625C13.033 11.2156 12.4195 11.1029 11.8012 11.025C11.1794 10.9446 10.5531 10.9032 9.92617 10.9013C8.58742 10.9013 7.61242 11.1637 6.95242 11.7037C6.29242 12.2437 5.97742 13.005 5.97742 14.0063C5.97742 14.9438 6.21367 15.645 6.71242 16.1287C7.19242 16.6275 7.88992 16.8675 8.80867 16.8675ZM24.8324 19.0312C24.4724 19.0312 24.2324 18.9713 24.0749 18.8288C23.9137 18.7087 23.7749 18.4312 23.6549 18.0487L18.9674 2.5725C18.8762 2.31296 18.8158 2.04362 18.7874 1.77C18.7874 1.45125 18.9449 1.27125 19.2637 1.27125H21.2212C21.5962 1.27125 21.8587 1.33125 21.9974 1.47C22.1587 1.59 22.2787 1.87125 22.3987 2.25L25.7512 15.5063L28.8637 2.25C28.9612 1.8525 29.0812 1.59 29.2424 1.47C29.482 1.32337 29.7608 1.25398 30.0412 1.27125H31.6387C32.0137 1.27125 32.2762 1.33125 32.4337 1.47C32.5949 1.59 32.7337 1.87125 32.8162 2.25L35.9662 15.6675L39.4162 2.25C39.4803 1.95971 39.6186 1.69099 39.8174 1.47C40.0499 1.32298 40.323 1.2534 40.5974 1.27125H42.4537C42.7724 1.27125 42.9524 1.4325 42.9524 1.77C42.9524 1.87125 42.9299 1.9725 42.9149 2.0925C42.8825 2.2627 42.8348 2.42963 42.7724 2.59125L37.9612 18.0675C37.8449 18.4688 37.7024 18.7313 37.5449 18.8513C37.3185 18.9961 37.052 19.0657 36.7837 19.05H35.0699C34.6912 19.05 34.4324 18.99 34.2712 18.8513C34.1099 18.7088 33.9712 18.45 33.8924 18.0487L30.7987 5.1375L27.7237 18.0338C27.6262 18.435 27.5062 18.6938 27.3487 18.8325C27.1874 18.975 26.9062 19.035 26.5499 19.035H24.8324V19.0312ZM50.4749 19.5713C49.4393 19.5726 48.4072 19.4518 47.3999 19.2113C46.4024 18.9713 45.6262 18.7088 45.1049 18.4088C44.7862 18.2288 44.5687 18.03 44.4862 17.8463C44.4101 17.6697 44.3706 17.4797 44.3699 17.2875V16.2675C44.3699 15.8475 44.5274 15.645 44.8274 15.645C44.9499 15.6453 45.0715 15.6655 45.1874 15.705C45.3074 15.7463 45.4874 15.825 45.6862 15.9075C46.3612 16.2075 47.1037 16.4475 47.8799 16.6088C48.6787 16.7663 49.4549 16.8488 50.2537 16.8488C51.5137 16.8488 52.4887 16.6275 53.1674 16.1888C53.4935 15.9914 53.7614 15.7111 53.9439 15.3764C54.1263 15.0418 54.2169 14.6648 54.2062 14.2838C54.2129 14.0265 54.1687 13.7705 54.076 13.5304C53.9833 13.2903 53.844 13.071 53.6662 12.885C53.3099 12.5025 52.6312 12.1613 51.6524 11.8425L48.7574 10.9425C47.3024 10.4813 46.2224 9.79875 45.5662 8.89875C44.9237 8.06716 44.5732 7.04708 44.5687 5.99625C44.5687 5.15625 44.7487 4.41375 45.1049 3.7725C45.4649 3.135 45.9449 2.5725 46.5449 2.13C47.1449 1.6725 47.8199 1.33125 48.6187 1.09125C49.4174 0.85125 50.2537 0.75 51.1312 0.75C51.5737 0.75 52.0312 0.768751 52.4699 0.828751C52.9274 0.888751 53.3474 0.971251 53.7674 1.05375C54.1649 1.15125 54.5474 1.24875 54.9037 1.3725C55.2637 1.4925 55.5412 1.6125 55.7437 1.7325C55.9791 1.85086 56.1843 2.02145 56.3437 2.23125C56.472 2.4265 56.5339 2.658 56.5199 2.89125V3.8325C56.5199 4.2525 56.3624 4.47375 56.0624 4.47375C55.7968 4.44342 55.5396 4.36192 55.3049 4.23375C54.099 3.69921 52.7913 3.43307 51.4724 3.45375C50.3362 3.45375 49.4362 3.63375 48.8174 4.01625C48.1987 4.39125 47.8799 4.97625 47.8799 5.7975C47.8799 6.35625 48.0787 6.83625 48.4799 7.21875C48.8774 7.5975 49.6162 7.97625 50.6737 8.3175L53.5087 9.2175C54.9449 9.67875 55.9837 10.32 56.6024 11.1413C57.2212 11.9625 57.5174 12.9038 57.5174 13.9462C57.5174 14.8088 57.3412 15.585 56.9999 16.2675C56.6467 16.9524 56.1505 17.5535 55.5449 18.03C54.9262 18.5287 54.1874 18.8925 53.3287 19.1513C52.4287 19.4325 51.4912 19.5713 50.4749 19.5713Z" fill="white"/>
<path fill-rule="evenodd" clip-rule="evenodd" d="M54.2435 29.2989C47.681 34.1626 38.141 36.7464 29.9397 36.7464C18.446 36.7464 8.08849 32.4826 0.265989 25.3951C-0.352761 24.8326 0.205988 24.0714 0.940988 24.5139C9.40474 29.4376 19.841 32.4226 30.641 32.4226C37.9197 32.4226 45.9222 30.9001 53.2872 27.7764C54.386 27.2776 55.3235 28.4964 54.2435 29.2989Z" fill="white"/>
<path fill-rule="evenodd" clip-rule="evenodd" d="M56.9774 26.1752C56.1412 25.0989 51.4312 25.6577 49.2974 25.9164C48.6599 25.9989 48.5587 25.4364 49.1362 25.0164C52.8862 22.3727 59.0549 23.1339 59.7712 24.0152C60.4912 24.9152 59.5724 31.1027 56.0587 34.0652C55.5224 34.5264 55.0049 34.2902 55.2449 33.6902C56.0399 31.7027 57.8174 27.2402 56.9774 26.1789V26.1752Z" fill="white"/>
</svg>
