<svg width="60" height="60" viewBox="0 0 60 60" fill="none" xmlns="http://www.w3.org/2000/svg">
<circle cx="30" cy="30" r="30" fill="#268BBF"/>
<path d="M21.0008 40.6574L21.0011 42.7989L19.9814 42.7991L19.9818 46.2664L34.4719 46.2643H37.3182V42.791H36.3999L36.3996 40.6551H35.5144C35.581 40.1633 35.6357 39.6761 35.645 39.1888C35.6535 38.6663 35.5996 38.1609 35.4971 37.6695C35.2353 36.4139 34.6565 35.2501 33.9921 34.1273C32.8221 32.1597 31.2853 30.4973 29.6937 28.8758C29.5231 28.7098 29.3618 28.5334 29.086 28.2436C30.4812 28.5694 31.6718 28.2725 32.8414 27.8657C33.685 27.5746 34.3428 27.8152 34.9446 28.4169C36.2161 29.7079 37.4817 29.9179 39.0835 29.1454C39.7623 28.8135 40.3942 27.5491 40.2528 26.8142C40.2072 26.5793 40.1078 26.3036 40.1837 26.098C40.429 25.384 40.0515 25.0172 39.5549 24.6153C38.4003 23.6772 37.2597 22.7134 36.1706 21.704C35.6225 21.197 35.21 20.5486 34.7192 19.9819C34.5076 19.74 34.2657 19.4994 33.99 19.3393C33.6488 19.1384 33.2573 19.0275 32.8857 18.8779C32.084 18.5521 31.8539 18.4575 31.7871 17.9808L31.7975 17.858C31.8331 17.4356 31.5528 17.0511 31.1397 16.9558L30.5742 16.8254L30.5737 13.7336H30.5386C28.7989 13.734 27.3689 15.0592 27.2021 16.7558C23.5099 17.8734 21.3323 20.4385 20.2368 24.041C19.2488 27.2813 19.8451 30.3986 20.8411 33.5171C21.4443 35.41 21.9763 37.339 22.4089 39.282C22.5036 39.7178 22.4838 40.1853 22.4383 40.6573L21.0008 40.6574ZM32.5007 22.5072C32.0959 22.5072 31.7678 22.1791 31.7678 21.7744C31.7678 21.3697 32.0959 21.0416 32.5007 21.0416C32.9054 21.0416 33.2335 21.3697 33.2335 21.7744C33.2335 22.1792 32.9054 22.5072 32.5007 22.5072Z" fill="white"/>
</svg>
