<svg width="46" height="46" viewBox="0 0 46 46" fill="none" xmlns="http://www.w3.org/2000/svg">
<path d="M23.0008 22.7125C18.1133 22.7125 13.8008 18.6875 13.8008 13.5125C13.8008 8.33748 17.8258 4.59998 23.0008 4.59998C27.8883 4.59998 32.2008 8.62498 32.2008 13.8C32.2008 18.975 27.8883 22.7125 23.0008 22.7125ZM23.0008 6.61248C19.2633 6.61248 16.1008 9.77497 16.1008 13.5125C16.1008 17.25 18.9758 20.4125 23.0008 20.4125C27.0258 20.4125 29.9008 17.25 29.9008 13.5125C29.9008 9.77497 26.7383 6.61248 23.0008 6.61248Z" fill="#268BBF"/>
<path d="M37.3758 38.8125C37.3758 29.325 30.7633 21.85 22.7133 21.85C14.6633 21.85 8.05078 29.325 8.05078 38.8125H37.3758Z" fill="#268BBF" fill-opacity="0.4"/>
<path d="M37.3758 39.9625H6.61328V38.8125C6.61328 28.75 13.8008 20.7 22.4258 20.7C31.0508 20.7 38.2383 28.75 38.2383 38.525V39.675L37.3758 39.9625ZM8.91328 37.6625H36.2258C35.9383 29.6125 29.9008 23 22.7133 23C15.2383 23 9.48828 29.6125 8.91328 37.6625ZM31.9133 22.425C31.3383 22.425 30.7633 21.85 30.7633 21.275C30.7633 20.7 31.3383 20.125 31.9133 20.125C34.7883 20.125 37.3758 17.825 37.3758 14.6625C37.3758 12.3625 35.9383 10.35 33.6383 9.48747C33.0633 9.19997 32.7758 8.62497 33.0633 8.04997C33.3508 7.47497 33.9258 7.18747 34.5008 7.47497C37.6633 8.33747 39.6758 11.2125 39.6758 14.6625C39.3883 18.975 35.9383 22.425 31.9133 22.425Z" fill="#268BBF"/>
<path d="M43.4121 36.225H40.8246C40.2496 36.225 39.6746 35.65 39.6746 35.075C39.6746 34.5 40.2496 33.925 40.8246 33.925H42.2621C41.6871 27.6 37.0871 22.7125 31.6246 22.7125C31.0496 22.7125 30.4746 22.1375 30.4746 21.5625C30.4746 20.9875 31.0496 20.4125 31.6246 20.4125C38.8121 20.4125 44.5621 27.025 44.5621 35.075V36.225H43.4121Z" fill="#268BBF"/>
<path d="M13.5121 22.4249C13.2246 22.4249 13.2246 22.4249 13.5121 22.4249C11.4996 22.4249 9.48711 21.8499 8.04961 20.4124C6.61211 18.9749 6.03711 16.9624 6.03711 14.9499C6.03711 11.7874 8.04961 8.91245 11.2121 7.76245C11.7871 7.47495 12.3621 7.76245 12.6496 8.33745C12.9371 8.91245 12.6496 9.48745 12.0746 9.77495C9.48711 10.6374 8.04961 12.6499 8.04961 14.9499C8.04961 16.3874 8.62461 17.8249 9.48711 18.6874C10.3496 19.8374 11.7871 20.1249 13.2246 20.4124C14.0871 20.4124 14.3746 20.9874 14.3746 21.5624C14.3746 22.1374 14.0871 22.4249 13.5121 22.4249Z" fill="#268BBF"/>
<path d="M4.02422 36.225H0.574219V35.075C0.574219 27.025 6.32422 20.7 13.5117 20.7C14.0867 20.7 14.6617 21.275 14.6617 21.85C14.6617 22.425 14.0867 23 13.5117 23C8.04922 23 3.44922 27.8875 2.87422 34.2125H4.31172C4.88672 34.2125 5.46172 34.7875 5.46172 35.3625C5.17422 35.65 4.88672 36.225 4.02422 36.225Z" fill="#268BBF"/>
</svg>
