<svg width="60" height="60" viewBox="0 0 60 60" fill="none" xmlns="http://www.w3.org/2000/svg">
<path d="M56.25 35.625H48.75V28.125H45V45H15V15H31.875V11.25H24.375V3.75H20.625V11.25H15C14.0054 11.25 13.0516 11.6451 12.3483 12.3483C11.6451 13.0516 11.25 14.0054 11.25 15V20.625H3.75V24.375H11.25V35.625H3.75V39.375H11.25V45C11.25 45.9946 11.6451 46.9484 12.3483 47.6516C13.0516 48.3549 14.0054 48.75 15 48.75H20.625V56.25H24.375V48.75H35.625V56.25H39.375V48.75H45C45.9941 48.7485 46.9471 48.3529 47.65 47.65C48.3529 46.9471 48.7485 45.9941 48.75 45V39.375H56.25V35.625Z" fill="#268BBF"/>
<path d="M39.375 39.375H20.625V20.625H39.375V39.375ZM24.375 35.625H35.625V24.375H24.375V35.625ZM58.125 24.375H54.375C54.37 19.4037 52.393 14.6375 48.8778 11.1222C45.3625 7.607 40.5963 5.62996 35.625 5.625V1.875C41.5904 1.88145 47.3096 4.25405 51.5278 8.47222C55.7459 12.6904 58.1185 18.4096 58.125 24.375Z" fill="#268BBF"/>
<path d="M48.75 24.375H45C44.997 21.8895 44.0083 19.5067 42.2508 17.7492C40.4933 15.9917 38.1105 15.003 35.625 15V11.25C39.1044 11.255 42.44 12.6394 44.9003 15.0997C47.3606 17.56 48.745 20.8956 48.75 24.375Z" fill="#268BBF"/>
</svg>
