<svg width="1308" height="411" viewBox="0 0 1308 411" fill="none" xmlns="http://www.w3.org/2000/svg">
<g clip-path="url(#clip0_590_297)">
<path d="M58.2938 24.5925C58.6436 26.6061 58.818 28.6463 58.815 30.69C58.815 39.8175 55.5525 47.535 49.875 52.7588H49.8825C44.9175 57.345 38.0925 60 30 60C22.0435 60 14.4129 56.8393 8.7868 51.2132C3.16071 45.5871 0 37.9565 0 30C0 22.0435 3.16071 14.4129 8.7868 8.78682C14.4129 3.16073 22.0435 2.645e-05 30 2.645e-05C37.4473 -0.0871924 44.6394 2.71065 50.07 7.80753L41.505 16.3725C38.4089 13.4212 34.2769 11.805 30 11.8725C22.1737 11.8725 15.525 17.1525 13.155 24.2625C11.8984 27.9882 11.8984 32.0231 13.155 35.7488H13.1662C15.5475 42.8475 22.185 48.1275 30.0113 48.1275C34.0537 48.1275 37.5263 47.0925 40.2188 45.2625H40.2075C41.7709 44.2268 43.1083 42.885 44.1388 41.3182C45.1694 39.7514 45.8718 37.992 46.2038 36.1463H30V24.5963L58.2938 24.5925Z" fill="white"/>
</g>
<g clip-path="url(#clip1_590_297)">
<path d="M258.451 0H217.549C212.283 0 208 4.28372 208 9.54884V50.4512C208 55.7163 212.283 59.9997 217.549 59.9997H258.451C263.716 59.9997 268 55.7163 268 50.4512V9.54884C268 4.28372 263.716 0 258.451 0ZM245.534 13.3072C245.534 8.25662 249.643 4.14794 254.693 4.14794C259.743 4.14794 263.852 8.25662 263.852 13.3072C263.852 16.6313 258.762 24.7378 254.693 30.3422C250.623 24.7378 245.534 16.6313 245.534 13.3072ZM212.148 9.54884C212.148 6.57089 214.571 4.14794 217.549 4.14794H245.053C242.783 6.53578 241.386 9.76039 241.386 13.3072C241.386 15.3687 242.46 18.1832 243.959 21.1078L236.535 28.5315C236.535 28.532 236.534 28.5326 236.533 28.5334C236.532 28.5343 236.532 28.5348 236.531 28.5356L212.557 52.5094C212.295 51.8745 212.148 51.1798 212.148 50.4514V9.54884ZM217.549 55.8521C216.82 55.8521 216.126 55.7052 215.491 55.4425L238 32.9336L260.509 55.4425C259.874 55.7052 259.179 55.8521 258.451 55.8521H217.549ZM263.852 50.4512C263.852 51.1798 263.705 51.8742 263.443 52.5091L240.934 29.9999L246.065 24.8691C249.021 29.7872 252.402 34.2324 253.05 35.0739C253.443 35.5835 254.05 35.8822 254.693 35.8822C255.337 35.8822 255.943 35.5835 256.336 35.0739C257.023 34.1815 260.784 29.2375 263.852 23.9737L263.852 50.4512Z" fill="white"/>
<path d="M225.688 27.1691C231.222 27.1691 235.723 22.6678 235.723 17.1347C235.723 15.9893 234.795 15.0607 233.649 15.0607H225.688C224.543 15.0607 223.614 15.9893 223.614 17.1347C223.614 18.2801 224.543 19.2087 225.688 19.2087H231.198C230.357 21.4342 228.205 23.0212 225.688 23.0212C222.443 23.0212 219.802 20.3806 219.802 17.1347C219.802 13.8891 222.443 11.2485 225.688 11.2485C227.26 11.2485 228.739 11.8607 229.851 12.9724C230.661 13.7821 231.974 13.7821 232.784 12.9718C233.594 12.1619 233.593 10.8486 232.783 10.039C230.888 8.14418 228.368 7.10083 225.688 7.10083C220.156 7.10083 215.654 11.6022 215.654 17.135C215.654 22.6678 220.156 27.1691 225.688 27.1691Z" fill="white"/>
</g>
<g clip-path="url(#clip2_590_297)">
<path d="M449.758 5.00244L424.758 30.0024L432.465 37.7099L465.165 5.00244H449.758ZM449.743 27.9974L436.305 41.5499L449.735 54.9999H465.208L451.74 41.4999L465.213 27.9999L449.743 27.9974Z" fill="white"/>
</g>
<g clip-path="url(#clip3_590_297)">
<path d="M648.625 21.05C647.7 20.675 646.7 20.525 645.675 20.55C645.025 20.55 644.45 20.55 643.975 20.575C643.475 20.55 643.125 20.575 642.95 20.6V29C643.3 29.025 643.625 29.05 643.925 29.05H645.25C646.225 29.05 647.2 28.9 648.125 28.6C648.925 28.375 649.625 27.9 650.175 27.275C650.7 26.65 650.95 25.8 650.95 24.7C650.975 23.925 650.775 23.15 650.375 22.475C649.95 21.825 649.35 21.325 648.625 21.05ZM673.375 0.75H634.625C628.75 0.75 624 5.5 624 11.375V48.6225C624 54.4975 628.75 59.2475 634.625 59.2475H673.375C679.25 59.2475 684 54.4975 684 48.6225V11.375C684 5.5 679.25 0.75 673.375 0.75ZM654.898 29.875C653.9 31.275 652.5 32.325 650.875 32.925C649.175 33.55 647.3 33.775 645.25 33.775C644.65 33.775 644.25 33.775 644 33.75C643.75 33.725 643.4 33.725 642.925 33.725V41.7475C642.95 41.9225 642.825 42.075 642.65 42.1H637.8C637.6 42.1 637.5 41.9975 637.5 41.7725V16.05C637.5 15.875 637.575 15.775 637.75 15.775C638.175 15.775 638.575 15.775 639.15 15.75C639.75 15.725 640.375 15.725 641.05 15.7C641.725 15.675 642.45 15.675 643.225 15.65C644 15.625 644.75 15.625 645.5 15.625C647.55 15.625 649.25 15.875 650.65 16.4C651.9 16.825 653.05 17.525 654 18.45C654.8 19.25 655.425 20.225 655.825 21.3C656.197 22.35 656.397 23.425 656.397 24.55C656.4 26.7 655.9 28.475 654.898 29.875ZM672.625 39.6C671.925 40.6 670.947 41.3725 669.825 41.8275C668.6 42.35 667.1 42.6225 665.297 42.6225C664.15 42.6225 663.022 42.525 661.9 42.3C661.025 42.1475 660.15 41.875 659.35 41.5C659.175 41.4025 659.048 41.2275 659.073 41.0275V36.6775C659.073 36.605 659.1 36.5025 659.175 36.4525C659.247 36.4025 659.325 36.4275 659.4 36.4775C660.375 37.0525 661.4 37.455 662.5 37.7025C663.447 37.9525 664.447 38.0775 665.45 38.0775C666.4 38.0775 667.075 37.95 667.525 37.725C667.925 37.55 668.2 37.125 668.2 36.675C668.2 36.3225 668 36 667.6 35.675C667.2 35.3525 666.378 34.9775 665.153 34.4975C663.878 34.0475 662.705 33.4475 661.603 32.7C660.827 32.1475 660.18 31.425 659.7 30.575C659.302 29.775 659.103 28.9 659.127 28.0225C659.127 26.9475 659.428 25.9225 659.98 24.9975C660.605 23.9975 661.528 23.1975 662.603 22.6975C663.775 22.1 665.25 21.825 667.025 21.825C668.05 21.825 669.1 21.9 670.125 22.05C670.875 22.15 671.6 22.35 672.275 22.625C672.372 22.65 672.475 22.75 672.525 22.85C672.55 22.95 672.575 23.05 672.575 23.15V27.225C672.575 27.325 672.525 27.425 672.45 27.475C672.225 27.525 672.1 27.525 672 27.475C671.25 27.075 670.45 26.8 669.6 26.625C668.675 26.425 667.75 26.3 666.8 26.3C666.3 26.275 665.775 26.35 665.297 26.475C664.975 26.55 664.697 26.725 664.522 26.975C664.397 27.175 664.322 27.425 664.322 27.65C664.322 27.875 664.423 28.1 664.575 28.3C664.8 28.575 665.097 28.8 665.425 28.975C665.997 29.275 666.6 29.55 667.197 29.8C668.55 30.25 669.85 30.875 671.05 31.625C671.875 32.1475 672.55 32.85 673.022 33.7C673.422 34.495 673.623 35.375 673.598 36.2725C673.625 37.45 673.275 38.6225 672.625 39.6Z" fill="white"/>
</g>
<g clip-path="url(#clip4_590_297)">
<path d="M860.009 21.6545C857.61 16.5689 856.663 8.37539 860.064 8.23641C863.809 8.57109 861.527 16.2926 860.009 21.6545M856.655 38.0455C860.493 36.7785 864.376 35.7335 868.327 35.0182C865.834 32.5542 863.627 29.583 861.646 26.2091C860.16 30.5702 858.574 34.5282 856.655 38.0455ZM840.973 50.4818C843.605 52.5935 848.314 46.5977 851.773 40.7455C845.37 43.4479 838.307 47.6455 840.973 50.4818ZM892 0V60H832V0H892ZM869.391 34.8273C866.547 32.0807 864.092 28.8199 861.973 25.1182C864.819 16.249 866.018 7.69066 860.064 7.36359C854.944 7.73145 857.024 17.3719 859.573 22.8818C857.609 28.7296 855.389 34.3612 852.482 39.5182C845.044 42.3459 836.842 47.3862 840.427 51.1364C845.684 54.8613 851.707 46.7454 856 39.1909C860.245 37.7033 864.636 36.6054 869.118 35.7545C875.081 41.4086 883.863 42.9102 885.373 39.2727C886.679 34.519 879.323 33.1567 869.391 34.8273M870.236 35.5636C875.093 39.7949 881.556 41.9175 882.563 38.1818C883.448 34.0222 875.377 34.7927 870.236 35.5636Z" fill="white"/>
</g>
<path d="M1065.36 31.4216V51.5418L1044.29 48.6366V31.4216H1065.36ZM1065.36 8.45803V28.8255H1044.29V11.3633L1065.36 8.45803ZM1095.71 31.4216V55.7142L1067.68 51.8509V31.4216H1095.71ZM1095.71 4.28564V28.8255H1067.68V8.14897L1095.71 4.28564Z" fill="white"/>
<g clip-path="url(#clip5_590_297)">
<path d="M1293.75 18.63C1293.75 17.2615 1294.29 15.949 1295.26 14.9813C1296.23 14.0136 1297.54 13.47 1298.91 13.47C1300.28 13.47 1301.59 14.0136 1302.56 14.9813C1303.53 15.949 1304.07 17.2615 1304.07 18.63C1304.07 19.9985 1303.53 21.311 1302.56 22.2787C1301.59 23.2464 1300.28 23.79 1298.91 23.79C1297.54 23.79 1296.23 23.2464 1295.26 22.2787C1294.29 21.311 1293.75 19.9985 1293.75 18.63ZM1257.09 23.79C1258.46 23.79 1259.77 23.2464 1260.74 22.2787C1261.71 21.311 1262.25 19.9985 1262.25 18.63C1262.25 17.2615 1261.71 15.949 1260.74 14.9813C1259.77 14.0136 1258.46 13.47 1257.09 13.47C1255.72 13.47 1254.41 14.0136 1253.44 14.9813C1252.47 15.949 1251.93 17.2615 1251.93 18.63C1251.93 19.9985 1252.47 21.311 1253.44 22.2787C1254.41 23.2464 1255.72 23.79 1257.09 23.79ZM1278 49.68C1276.63 49.68 1275.32 50.2236 1274.35 51.1913C1273.38 52.159 1272.84 53.4715 1272.84 54.84C1272.84 56.2085 1273.38 57.521 1274.35 58.4887C1275.32 59.4564 1276.63 60 1278 60C1279.37 60 1280.68 59.4564 1281.65 58.4887C1282.62 57.521 1283.16 56.2085 1283.16 54.84C1283.16 53.4715 1282.62 52.159 1281.65 51.1913C1280.68 50.2236 1279.37 49.68 1278 49.68ZM1263.56 41.8025C1263.5 41.394 1263.41 40.9922 1263.27 40.6025L1263.26 40.5875C1263.13 40.2095 1262.96 39.8447 1262.76 39.4975L1262.75 39.4775C1262.55 39.132 1262.32 38.8056 1262.06 38.5025L1262.06 38.5C1261.8 38.1938 1261.51 37.9126 1261.2 37.66C1260.04 36.7078 1258.59 36.185 1257.09 36.18C1255.79 36.18 1254.52 36.5653 1253.44 37.2872C1252.36 38.0092 1251.52 39.0353 1251.02 40.2358C1250.52 41.4363 1250.39 42.7573 1250.65 44.0317C1250.9 45.3062 1251.53 46.4769 1252.44 47.3957C1253.36 48.3145 1254.53 48.9403 1255.81 49.1938C1257.08 49.4473 1258.4 49.3172 1259.6 48.8199C1260.8 48.3226 1261.83 47.4805 1262.55 46.4001C1263.27 45.3197 1263.66 44.0494 1263.66 42.75C1263.66 42.425 1263.61 42.115 1263.56 41.8V41.8025ZM1284.81 35.4775C1284.89 35.3592 1284.97 35.2367 1285.05 35.11C1285.24 34.8138 1285.4 34.5047 1285.55 34.185C1285.62 34.05 1285.68 33.9133 1285.73 33.775C1286.13 32.795 1286.34 31.7476 1286.34 30.69C1286.34 26.915 1283.81 23.76 1280.37 22.7325C1280.03 22.6241 1279.68 22.5405 1279.32 22.4825C1278.88 22.3994 1278.44 22.3551 1278 22.35C1277.54 22.35 1277.1 22.4025 1276.67 22.485C1276.31 22.5445 1275.95 22.6306 1275.6 22.7425C1273.89 23.2526 1272.38 24.3012 1271.31 25.7328C1270.24 27.1644 1269.66 28.9027 1269.66 30.69C1269.66 32.1075 1270.05 33.4225 1270.67 34.5925C1270.74 34.7292 1270.81 34.8625 1270.89 34.9925C1271.04 35.2458 1271.21 35.4892 1271.39 35.7225C1271.49 35.8492 1271.59 35.9717 1271.69 36.09C1272.43 36.9684 1273.35 37.6828 1274.38 38.1879C1275.41 38.6929 1276.54 38.9776 1277.69 39.0237C1278.84 39.0697 1279.98 38.8763 1281.05 38.4556C1282.12 38.0349 1283.09 37.3961 1283.9 36.58C1284.24 36.24 1284.54 35.8733 1284.81 35.48V35.4775ZM1262.34 36.9975C1263.53 38.08 1264.39 39.5025 1264.73 41.125L1271.17 37.41C1270.04 36.2528 1269.23 34.827 1268.81 33.2675L1262.34 37V36.9975ZM1275.6 13.9725V21.4425C1276.38 21.2263 1277.19 21.1112 1278 21.1C1278.82 21.1 1279.61 21.2375 1280.37 21.4325V13.9825C1279.62 14.225 1278.83 14.39 1278 14.39C1277.16 14.39 1276.36 14.22 1275.6 13.9725ZM1293.89 36.8025L1287.28 33C1286.89 34.5746 1286.1 36.0231 1284.99 37.2075L1291.35 40.8575C1291.75 39.2711 1292.64 37.8517 1293.89 36.8025ZM1298.91 36.18C1297.46 36.18 1296.13 36.665 1295.04 37.4625C1294.39 37.9384 1293.82 38.5328 1293.39 39.215L1293.35 39.275C1293.15 39.5983 1292.97 39.9392 1292.82 40.2975L1292.77 40.45C1292.64 40.7915 1292.54 41.1436 1292.46 41.5025C1292.21 42.831 1292.37 44.2065 1292.92 45.4409C1293.48 46.6754 1294.4 47.7086 1295.56 48.3994C1296.72 49.0902 1298.07 49.4049 1299.42 49.3004C1300.77 49.196 1302.06 48.6775 1303.1 47.8159C1304.14 46.9542 1304.89 45.7914 1305.25 44.4864C1305.61 43.1814 1305.55 41.7977 1305.1 40.5246C1304.64 39.2514 1303.8 38.1508 1302.69 37.3732C1301.58 36.5956 1300.26 36.1789 1298.91 36.18ZM1276.75 13.015C1277.57 13.18 1278.41 13.18 1279.23 13.015C1280.84 12.7103 1282.27 11.8168 1283.25 10.5096C1284.24 9.20233 1284.7 7.57542 1284.54 5.94732C1284.39 4.31922 1283.63 2.80716 1282.42 1.70714C1281.21 0.607128 1279.63 -0.00164334 1278 3.33184e-06C1276.37 0.00117458 1274.79 0.610479 1273.59 1.70908C1272.38 2.80769 1271.62 4.31681 1271.47 5.94212C1271.31 7.56743 1271.77 9.19237 1272.74 10.5C1273.72 11.8077 1275.15 12.7043 1276.75 13.015Z" fill="white"/>
</g>
<g clip-path="url(#clip6_590_297)">
<path fill-rule="evenodd" clip-rule="evenodd" d="M50 132H10C8.67392 132 7.40215 132.527 6.46447 133.464C5.52678 134.402 5 135.674 5 137V157C5 158.326 5.52678 159.598 6.46447 160.536C7.40215 161.473 8.67392 162 10 162H50C51.3261 162 52.5978 161.473 53.5355 160.536C54.4732 159.598 55 158.326 55 157V137C55 135.674 54.4732 134.402 53.5355 133.464C52.5978 132.527 51.3261 132 50 132ZM23.225 154L22.5 151.325H17.9L17.175 154H12.925L17.5 139.675H22.725L27.5 154H23.225ZM39.075 146.15C38.8951 146.743 38.588 147.289 38.175 147.75C37.7053 148.237 37.1331 148.612 36.5 148.85C35.7002 149.145 34.8525 149.29 34 149.275H32.9V154H29V139.725H34C35.447 139.621 36.8836 140.037 38.05 140.9C38.5194 141.322 38.887 141.845 39.1252 142.43C39.3633 143.014 39.4659 143.645 39.425 144.275C39.4108 144.915 39.2926 145.548 39.075 146.15ZM45.525 154H41.65V139.725H45.525V154ZM21.125 145.825L21.725 148.15H18.7L19.3 145.825C19.3 145.5 19.5 145.125 19.6 144.65C19.7 144.175 19.825 143.7 19.925 143.225C20.0295 142.83 20.1129 142.429 20.175 142.025C20.175 142.35 20.35 142.75 20.45 143.275L20.825 144.725L21.125 145.825ZM35.1 143.325C35.2375 143.467 35.3441 143.635 35.4129 143.82C35.4818 144.006 35.5114 144.203 35.5 144.4C35.5139 144.769 35.4182 145.135 35.225 145.45C35.0605 145.697 34.8252 145.889 34.55 146C34.2575 146.123 33.9422 146.183 33.625 146.175H32.85V142.85H33.85C34.0604 142.84 34.2705 142.873 34.468 142.946C34.6656 143.019 34.8465 143.131 35 143.275L35.1 143.325Z" fill="white"/>
</g>
<g clip-path="url(#clip7_590_297)">
<path d="M259.755 122.725C253.52 118.84 245.31 119.757 237.99 124.36C230.69 119.76 222.475 118.84 216.25 122.725C206.397 128.882 205.2 144.74 213.575 158.142C219.75 168.027 229.407 173.815 238 173.707C246.597 173.815 256.252 168.025 262.427 158.142C270.795 144.74 269.607 128.882 259.755 122.725ZM218.105 155.32C216.377 152.581 215.074 149.596 214.24 146.467C213.497 143.752 213.214 140.931 213.4 138.122C213.775 133.172 215.79 129.312 219.075 127.26C222.362 125.205 226.705 125.085 231.332 126.917C232.035 127.2 232.722 127.517 233.395 127.872C230.823 130.213 228.587 132.898 226.75 135.85C221.662 143.987 220.112 153.045 221.887 160.262C220.473 158.735 219.206 157.078 218.102 155.312L218.105 155.32ZM261.767 146.467C260.931 149.595 259.627 152.579 257.9 155.317C256.798 157.086 255.531 158.747 254.117 160.277C255.705 153.805 254.625 145.877 250.735 138.442C250.674 138.319 250.587 138.21 250.48 138.122C250.374 138.035 250.25 137.971 250.117 137.935C249.984 137.899 249.845 137.891 249.709 137.913C249.573 137.934 249.443 137.984 249.327 138.06L237.197 145.64C236.975 145.779 236.817 146.001 236.758 146.257C236.699 146.513 236.744 146.782 236.882 147.005L238.662 149.852C238.731 149.963 238.821 150.06 238.927 150.136C239.033 150.212 239.153 150.266 239.28 150.295C239.408 150.324 239.539 150.328 239.668 150.306C239.797 150.284 239.92 150.237 240.03 150.167L247.892 145.255C248.145 146.02 248.4 146.77 248.592 147.545C249.332 150.26 249.617 153.08 249.43 155.887C249.055 160.842 247.04 164.7 243.755 166.755C242.059 167.791 240.117 168.352 238.13 168.38H237.877C235.891 168.352 233.948 167.791 232.252 166.755C228.967 164.7 226.95 160.842 226.577 155.887C226.392 153.079 226.675 150.26 227.415 147.545C229.12 141.264 232.642 135.626 237.54 131.34C239.653 129.484 242.06 127.993 244.662 126.927C249.275 125.095 253.627 125.215 256.912 127.27C260.202 129.325 262.217 133.182 262.59 138.132C262.779 140.937 262.502 143.754 261.767 146.467Z" fill="white"/>
</g>
<path d="M432.912 145.826C432.912 146.565 432.987 147.165 433.13 147.608C433.287 148.046 433.49 148.526 433.767 149.047C433.856 149.185 433.904 149.345 433.906 149.509C433.906 149.707 433.786 149.91 433.531 150.109L432.271 150.949C432.12 151.058 431.94 151.121 431.754 151.129C431.551 151.129 431.352 151.031 431.154 150.851C430.884 150.561 430.643 150.246 430.434 149.91C430.212 149.525 430.007 149.131 429.819 148.729C428.259 150.57 426.305 151.493 423.95 151.493C422.274 151.493 420.935 151.009 419.96 150.049C418.981 149.089 418.482 147.806 418.482 146.205C418.482 144.503 419.082 143.123 420.297 142.08C421.516 141.038 423.132 140.52 425.187 140.52C425.862 140.52 426.564 140.58 427.302 140.678C428.041 140.779 428.802 140.94 429.597 141.12V139.658C429.597 138.135 429.279 137.074 428.66 136.455C428.022 135.833 426.942 135.533 425.405 135.533C424.707 135.533 423.991 135.615 423.252 135.795C422.518 135.97 421.798 136.197 421.096 136.474C420.87 136.576 420.637 136.664 420.399 136.736C420.296 136.77 420.188 136.79 420.08 136.796C419.799 136.796 419.66 136.594 419.66 136.174V135.191C419.66 134.873 419.697 134.629 419.799 134.494C419.95 134.31 420.143 134.164 420.361 134.07C421.055 133.71 421.895 133.41 422.874 133.17C423.849 132.907 424.887 132.791 425.986 132.791C428.36 132.791 430.096 133.331 431.214 134.411C432.312 135.491 432.871 137.134 432.871 139.339V145.826H432.909H432.912ZM424.809 148.868C425.465 148.868 426.144 148.748 426.864 148.508C427.584 148.268 428.221 147.825 428.757 147.225C429.079 146.857 429.311 146.419 429.436 145.946C429.556 145.463 429.639 144.885 429.639 144.203V143.363C429.033 143.216 428.42 143.103 427.801 143.025C427.179 142.945 426.553 142.903 425.926 142.901C424.587 142.901 423.612 143.164 422.952 143.704C422.292 144.244 421.977 145.005 421.977 146.006C421.977 146.944 422.214 147.645 422.712 148.129C423.192 148.627 423.89 148.868 424.809 148.868ZM440.832 151.031C440.472 151.031 440.232 150.971 440.075 150.829C439.914 150.709 439.775 150.431 439.655 150.049L434.967 134.573C434.876 134.313 434.816 134.044 434.787 133.77C434.787 133.451 434.945 133.271 435.264 133.271H437.221C437.596 133.271 437.859 133.331 437.997 133.47C438.159 133.59 438.279 133.871 438.399 134.25L441.751 147.506L444.864 134.25C444.961 133.853 445.081 133.59 445.242 133.47C445.482 133.323 445.761 133.254 446.041 133.271H447.639C448.014 133.271 448.276 133.331 448.434 133.47C448.595 133.59 448.734 133.871 448.816 134.25L451.966 147.668L455.416 134.25C455.48 133.96 455.619 133.691 455.817 133.47C456.05 133.323 456.323 133.253 456.597 133.271H458.454C458.772 133.271 458.952 133.433 458.952 133.77C458.952 133.871 458.93 133.973 458.915 134.093C458.883 134.263 458.835 134.43 458.772 134.591L453.961 150.068C453.845 150.469 453.702 150.731 453.545 150.851C453.318 150.996 453.052 151.066 452.784 151.05H451.07C450.691 151.05 450.432 150.99 450.271 150.851C450.11 150.709 449.971 150.45 449.892 150.049L446.799 137.138L443.724 150.034C443.626 150.435 443.506 150.694 443.349 150.833C443.187 150.975 442.906 151.035 442.55 151.035H440.832V151.031ZM466.475 151.571C465.439 151.573 464.407 151.452 463.4 151.211C462.402 150.971 461.626 150.709 461.105 150.409C460.786 150.229 460.569 150.03 460.486 149.846C460.41 149.67 460.371 149.48 460.37 149.287V148.268C460.37 147.848 460.527 147.645 460.827 147.645C460.95 147.645 461.071 147.666 461.187 147.705C461.307 147.746 461.487 147.825 461.686 147.907C462.361 148.207 463.104 148.448 463.88 148.609C464.679 148.766 465.455 148.849 466.254 148.849C467.514 148.849 468.489 148.628 469.167 148.189C469.493 147.991 469.761 147.711 469.944 147.376C470.126 147.042 470.217 146.665 470.206 146.284C470.213 146.027 470.169 145.77 470.076 145.53C469.983 145.29 469.844 145.071 469.666 144.885C469.31 144.503 468.631 144.161 467.652 143.843L464.757 142.943C463.302 142.481 462.222 141.799 461.566 140.899C460.924 140.067 460.573 139.047 460.569 137.996C460.569 137.156 460.749 136.414 461.105 135.773C461.465 135.135 461.945 134.573 462.545 134.13C463.145 133.673 463.82 133.331 464.619 133.091C465.417 132.851 466.254 132.75 467.131 132.75C467.574 132.75 468.031 132.769 468.47 132.829C468.927 132.889 469.347 132.971 469.767 133.054C470.165 133.151 470.547 133.249 470.904 133.373C471.264 133.493 471.541 133.613 471.744 133.733C471.979 133.851 472.184 134.021 472.344 134.231C472.472 134.426 472.534 134.658 472.52 134.891V135.832C472.52 136.253 472.362 136.474 472.062 136.474C471.797 136.443 471.54 136.362 471.305 136.234C470.099 135.699 468.791 135.433 467.472 135.454C466.336 135.454 465.436 135.634 464.817 136.016C464.199 136.391 463.88 136.976 463.88 137.798C463.88 138.356 464.079 138.836 464.48 139.219C464.877 139.598 465.616 139.976 466.674 140.318L469.509 141.218C470.945 141.679 471.984 142.32 472.602 143.141C473.221 143.963 473.517 144.904 473.517 145.946C473.517 146.809 473.341 147.585 473 148.268C472.647 148.952 472.151 149.553 471.545 150.03C470.926 150.529 470.187 150.893 469.329 151.151C468.429 151.433 467.491 151.571 466.475 151.571Z" fill="white"/>
<path fill-rule="evenodd" clip-rule="evenodd" d="M470.243 161.299C463.681 166.163 454.141 168.746 445.94 168.746C434.446 168.746 424.088 164.483 416.266 157.395C415.647 156.833 416.206 156.071 416.941 156.514C425.405 161.438 435.841 164.423 446.641 164.423C453.92 164.423 461.922 162.9 469.287 159.776C470.386 159.278 471.323 160.496 470.243 161.299Z" fill="white"/>
<path fill-rule="evenodd" clip-rule="evenodd" d="M472.977 158.175C472.141 157.099 467.431 157.658 465.297 157.916C464.66 157.999 464.559 157.436 465.136 157.016C468.886 154.373 475.055 155.134 475.771 156.015C476.491 156.915 475.572 163.103 472.059 166.065C471.522 166.526 471.005 166.29 471.245 165.69C472.04 163.703 473.817 159.24 472.977 158.179V158.175Z" fill="white"/>
<path d="M649.902 148.107H653.882L651.802 144.722L647.939 150.84H646.157L650.852 143.475C650.974 143.355 651.112 143.247 651.257 143.155L651.267 143.15C651.414 143.057 651.594 143.002 651.787 143.002H651.802C651.979 143.005 652.144 143.06 652.282 143.152L652.279 143.15C652.437 143.247 652.572 143.355 652.694 143.475L657.389 150.84H655.607L654.774 149.475H650.794L649.902 148.107ZM668.079 149.475V143.12H666.594V150.07V150.092C666.594 150.192 666.617 150.287 666.657 150.372L666.654 150.367C666.702 150.46 666.762 150.537 666.832 150.605C666.874 150.687 666.944 150.75 667.029 150.782C667.124 150.82 667.234 150.842 667.349 150.842H667.357H674.129L674.962 149.477L668.079 149.475ZM643.544 148.285H643.582C644.284 148.285 644.922 148.002 645.387 147.542C645.862 147.1 646.159 146.47 646.159 145.77C646.159 145.755 646.159 145.742 646.159 145.727C646.159 145.707 646.159 145.685 646.159 145.66C646.159 144.952 645.862 144.312 645.387 143.86C644.924 143.4 644.287 143.117 643.582 143.117C643.569 143.117 643.554 143.117 643.542 143.117H637.007V150.84H638.499V144.485H643.429H643.467C643.802 144.485 644.102 144.622 644.319 144.842C644.539 145.06 644.677 145.362 644.677 145.695V145.735V145.732C644.674 146.067 644.539 146.372 644.322 146.595C644.109 146.832 643.799 146.982 643.457 146.982C643.447 146.982 643.437 146.982 643.429 146.982H639.207L643.662 150.845H645.799L642.827 148.29L643.544 148.285ZM627.859 150.84C627.854 150.84 627.847 150.84 627.839 150.84C626.789 150.84 625.839 150.407 625.159 149.712C624.444 149.04 624.002 148.09 624.002 147.035C624.002 147.015 624.002 146.995 624.002 146.975V146.977C624.002 146.962 624.002 146.942 624.002 146.922C624.002 145.867 624.447 144.917 625.159 144.247L625.162 144.245C625.844 143.547 626.794 143.117 627.844 143.117H627.864H632.379H632.442C633.489 143.117 634.434 143.55 635.112 144.245C635.809 144.922 636.239 145.867 636.239 146.915V146.98V147.035C636.239 148.085 635.804 149.032 635.107 149.71C634.429 150.407 633.484 150.837 632.437 150.837C632.414 150.837 632.392 150.837 632.372 150.837L627.859 150.84ZM632.259 149.475H632.319C632.997 149.475 633.609 149.19 634.039 148.732C634.479 148.29 634.752 147.68 634.752 147.007C634.752 146.997 634.752 146.987 634.752 146.98V146.982C634.752 146.962 634.752 146.937 634.752 146.915C634.752 146.245 634.479 145.637 634.039 145.2C633.602 144.76 632.994 144.487 632.324 144.487C632.302 144.487 632.277 144.487 632.254 144.487H627.977C627.969 144.487 627.959 144.487 627.949 144.487C627.277 144.487 626.667 144.76 626.224 145.2C625.767 145.632 625.482 146.245 625.482 146.922V146.985V146.982V147C625.482 147.682 625.767 148.297 626.222 148.735C626.659 149.192 627.274 149.477 627.957 149.477H627.974L632.259 149.475ZM660.477 150.84C660.459 150.84 660.437 150.84 660.414 150.84C659.367 150.84 658.422 150.407 657.744 149.712C657.047 149.035 656.617 148.09 656.617 147.042C656.617 147.02 656.617 146.997 656.617 146.977C656.617 146.96 656.617 146.94 656.617 146.917C656.617 145.87 657.049 144.925 657.744 144.247C658.422 143.55 659.367 143.12 660.414 143.12H660.479H660.477H665.822L664.929 144.485H660.529C660.522 144.485 660.512 144.485 660.502 144.485C659.829 144.485 659.219 144.757 658.777 145.197C658.319 145.63 658.034 146.242 658.034 146.92V146.982V146.98V146.997C658.034 147.68 658.319 148.295 658.774 148.732C659.212 149.19 659.827 149.475 660.509 149.475H660.527H665.927L665.034 150.84H660.477ZM678.594 149.475C678.589 149.475 678.582 149.475 678.574 149.475C678.014 149.475 677.502 149.272 677.104 148.937L677.107 148.94C676.692 148.607 676.382 148.165 676.219 147.652L676.214 147.632H682.569L683.402 146.267H676.214C676.377 145.747 676.684 145.315 677.092 145.002L677.097 144.997C677.494 144.682 678.004 144.492 678.557 144.492H678.584H682.982L683.874 143.127H678.529C678.512 143.127 678.489 143.127 678.467 143.127C677.419 143.127 676.474 143.56 675.797 144.255C675.099 144.932 674.669 145.877 674.669 146.925V146.99V146.987V147.05C674.669 148.097 675.102 149.042 675.797 149.72C676.474 150.417 677.419 150.847 678.467 150.847H678.532H683.097L683.989 149.482L678.594 149.475Z" fill="white"/>
<g clip-path="url(#clip8_590_297)">
<path d="M889.396 137.934H881.27V129.972L867.433 117H834.604V177H881.27V168.389H889.396V137.934ZM884.396 163.389H849.396V142.934H884.396V163.389Z" fill="white"/>
<path d="M856.946 156.182C856.526 156.182 856.118 156.131 855.719 156.029C855.32 155.927 854.957 155.802 854.63 155.653C854.303 155.505 854.02 155.357 853.779 155.209C853.539 155.061 853.373 154.94 853.281 154.848L852.346 156.673C852.979 157.123 853.695 157.47 854.492 157.716C855.29 157.961 856.097 158.084 856.915 158.084C857.447 158.084 857.955 158.025 858.441 157.907C858.926 157.79 859.355 157.603 859.729 157.348C860.102 157.092 860.398 156.757 860.618 156.343C860.838 155.929 860.948 155.431 860.948 154.848C860.948 154.348 860.866 153.926 860.702 153.583C860.539 153.241 860.306 152.947 860.005 152.702C859.703 152.456 859.335 152.252 858.901 152.088C858.466 151.925 857.983 151.772 857.452 151.628C857.043 151.526 856.682 151.429 856.371 151.337C856.059 151.245 855.801 151.143 855.596 151.03C855.392 150.918 855.236 150.788 855.129 150.639C855.021 150.491 854.968 150.305 854.968 150.08C854.968 149.691 855.111 149.39 855.397 149.175C855.683 148.96 856.118 148.853 856.7 148.853C857.027 148.853 857.35 148.894 857.666 148.976C857.983 149.058 858.277 149.157 858.548 149.275C858.819 149.392 859.049 149.512 859.238 149.635C859.427 149.758 859.557 149.855 859.629 149.926L860.564 148.209C860.084 147.882 859.522 147.598 858.878 147.358C858.234 147.118 857.528 146.998 856.762 146.998C856.21 146.998 855.693 147.072 855.213 147.22C854.732 147.368 854.311 147.585 853.948 147.872C853.585 148.158 853.301 148.516 853.097 148.945C852.892 149.374 852.79 149.865 852.79 150.417C852.79 150.836 852.854 151.197 852.982 151.498C853.11 151.8 853.302 152.065 853.557 152.295C853.812 152.525 854.132 152.725 854.515 152.893C854.899 153.062 855.351 153.218 855.872 153.361C856.302 153.484 856.69 153.596 857.038 153.698C857.385 153.801 857.682 153.913 857.927 154.036C858.172 154.158 858.361 154.301 858.494 154.465C858.627 154.629 858.694 154.828 858.694 155.063C858.694 155.809 858.111 156.182 856.946 156.182Z" fill="white"/>
<path d="M863.347 156.32C863.812 156.832 864.369 157.246 865.018 157.562C865.667 157.879 866.39 158.038 867.188 158.038C867.709 158.038 868.2 157.969 868.66 157.831C869.12 157.693 869.549 157.501 869.948 157.256L870.577 157.961H872.57L871.083 156.29C871.532 155.789 871.882 155.216 872.133 154.572C872.383 153.928 872.509 153.254 872.509 152.548C872.509 151.864 872.381 151.189 872.125 150.524C871.87 149.86 871.512 149.267 871.052 148.746C870.592 148.224 870.037 147.803 869.388 147.481C868.739 147.159 868.021 146.998 867.234 146.998C866.467 146.998 865.757 147.148 865.103 147.45C864.448 147.752 863.884 148.158 863.408 148.669C862.933 149.18 862.56 149.768 862.289 150.432C862.018 151.097 861.883 151.792 861.883 152.518C861.883 153.213 862.011 153.893 862.266 154.557C862.521 155.222 862.882 155.809 863.347 156.32ZM864.236 151.191C864.374 150.757 864.576 150.366 864.842 150.018C865.108 149.671 865.44 149.392 865.839 149.183C866.237 148.973 866.692 148.868 867.203 148.868C867.694 148.868 868.136 148.971 868.53 149.175C868.923 149.38 869.255 149.65 869.526 149.988C869.797 150.325 870.007 150.713 870.155 151.153C870.303 151.593 870.377 152.048 870.377 152.518C870.377 152.916 870.321 153.31 870.208 153.698C870.096 154.087 869.937 154.445 869.733 154.772L868.982 153.928H866.988L868.644 155.799C868.44 155.912 868.217 156.001 867.977 156.067C867.737 156.134 867.479 156.167 867.203 156.167C866.702 156.167 866.255 156.065 865.861 155.86C865.468 155.656 865.136 155.385 864.865 155.048C864.594 154.71 864.387 154.322 864.244 153.882C864.1 153.443 864.029 152.988 864.029 152.518C864.029 152.068 864.098 151.626 864.236 151.191Z" fill="white"/>
<path d="M881.784 156.106H876.233V147.074H874.117V157.961H881.784V156.106Z" fill="white"/>
</g>
<path d="M1048.81 123.411L1052.67 166.673L1069.97 171.478L1087.33 166.667L1091.19 123.413H1048.81L1048.81 123.411ZM1064.8 134.614L1064.03 142.941L1082.16 142.943L1082.04 144.368L1080.79 158.336L1080.71 159.233L1069.83 162.249L1058.96 159.233L1058.22 150.902H1063.54L1063.92 155.134L1069.83 156.728L1075.75 155.13L1076.37 148.249L1058.23 148.247L1058.36 146.822L1059.61 132.853L1060 128.942H1081.17L1081.41 131.938L1082.17 140.288H1076.84L1076.35 134.809L1070.93 134.483H1069.97V134.475L1064.8 134.614H1064.8Z" fill="white"/>
<g clip-path="url(#clip9_590_297)">
<path d="M1305.04 169.38C1305.05 171.513 1304.15 173.549 1302.56 174.97C1300.97 176.391 1298.84 177.06 1296.72 176.809C1292.91 176.245 1290.12 172.927 1290.21 169.075V124.784C1290.12 120.928 1292.92 117.609 1296.74 117.05C1298.85 116.803 1300.97 117.474 1302.56 118.895C1304.15 120.315 1305.05 122.348 1305.04 124.479V169.38Z" fill="white"/>
<path d="M1258.37 162.041C1262.47 162.041 1265.79 165.361 1265.79 169.457C1265.79 173.552 1262.47 176.872 1258.37 176.872C1254.28 176.872 1250.96 173.552 1250.96 169.457C1250.96 165.361 1254.28 162.041 1258.37 162.041ZM1277.89 139.565C1273.77 139.79 1270.58 143.242 1270.67 147.362V167.282C1270.67 172.688 1273.05 175.969 1276.54 176.669C1278.72 177.112 1281 176.548 1282.72 175.133C1284.45 173.717 1285.45 171.6 1285.44 169.368V147.019C1285.44 145.023 1284.65 143.109 1283.23 141.708C1281.8 140.306 1279.88 139.534 1277.89 139.565Z" fill="white"/>
</g>
<g clip-path="url(#clip10_590_297)">
<path d="M52.875 248.75L32.125 237C31.4601 236.688 30.7346 236.526 30 236.526C29.2654 236.526 28.5399 236.688 27.875 237L7.125 248.75C6.48701 249.118 5.9557 249.646 5.58317 250.281C5.21063 250.917 5.00968 251.638 5 252.375V275.625C5.00968 276.361 5.21063 277.083 5.58317 277.718C5.9557 278.354 6.48701 278.882 7.125 279.25L12.625 282.375C14.0618 283.224 15.7064 283.657 17.375 283.625C21.25 283.625 23.5 281.25 23.5 277.25V254.375C23.5 254.209 23.4342 254.05 23.3169 253.933C23.1997 253.816 23.0408 253.75 22.875 253.75H20.25C20.0842 253.75 19.9253 253.816 19.8081 253.933C19.6908 254.05 19.625 254.209 19.625 254.375V277.25C19.625 279.125 17.75 280.875 14.75 279.375L9 276.125C8.92238 276.067 8.85938 275.991 8.81598 275.904C8.77259 275.818 8.75 275.722 8.75 275.625V252.375C8.7586 252.144 8.84694 251.923 9 251.75L29.625 240.125H30.375L51 251.75C51.1531 251.923 51.2414 252.144 51.25 252.375V275.625C51.25 275.722 51.2274 275.818 51.184 275.904C51.1406 275.991 51.0776 276.067 51 276.125L30.375 287.75C30.261 287.816 30.1317 287.85 30 287.85C29.8683 287.85 29.739 287.816 29.625 287.75L24.375 284.75C24.3062 284.688 24.2172 284.654 24.125 284.654C24.0328 284.654 23.9438 284.688 23.875 284.75L20.75 286.125C20.375 286.25 19.875 286.375 20.875 287L27.875 290.875C28.5064 291.289 29.245 291.51 30 291.51C30.755 291.51 31.4936 291.289 32.125 290.875L52.875 279.25C53.513 278.882 54.0443 278.354 54.4168 277.718C54.7894 277.083 54.9903 276.361 55 275.625V252.375C54.9903 251.638 54.7894 250.917 54.4168 250.281C54.0443 249.646 53.513 249.118 52.875 248.75Z" fill="white"/>
<path d="M36.375 271.875C30.875 271.875 29.75 270.625 29.25 268C29.25 267.867 29.1973 267.74 29.1036 267.646C29.0098 267.553 28.8826 267.5 28.75 267.5H26C25.8674 267.5 25.7402 267.553 25.6464 267.646C25.5527 267.74 25.5 267.867 25.5 268C25.5 271.375 27.375 275.5 36.375 275.5C42.875 275.5 46.625 273 46.625 268.625C46.625 264.25 43.625 263 37.25 262.25C30.875 261.5 30.25 261 30.25 259.5C30.25 258 30.75 256.75 35.5 256.75C40.25 256.75 41.375 257.625 42 260.375C42.0292 260.518 42.1078 260.647 42.222 260.738C42.3362 260.83 42.4788 260.878 42.625 260.875H45.25L45.75 260.625C45.7952 260.574 45.8296 260.515 45.8511 260.45C45.8726 260.386 45.8807 260.318 45.875 260.25C45.5 255.375 42.125 253.125 35.5 253.125C28.875 253.125 26.125 255.625 26.125 259.625C26.125 263.625 29.625 265.25 35.25 265.875C40.875 266.5 42.625 267.375 42.625 268.75C42.625 270.125 40.75 271.875 36.375 271.875Z" fill="white"/>
</g>
<path d="M226.187 242.895C225.246 243.438 224.256 244.936 224.141 248.204C224.086 249.757 222.784 250.971 221.231 250.916C219.679 250.862 218.465 249.559 218.519 248.007C218.66 244 219.927 240.013 223.375 238.023C226.832 236.027 230.931 236.934 234.48 238.827C235.85 239.558 236.369 241.262 235.637 242.632C234.906 244.003 233.203 244.521 231.832 243.79C228.932 242.243 227.131 242.35 226.187 242.895ZM241.268 247.773C242.464 246.782 244.237 246.948 245.228 248.144C247.307 250.654 249.301 253.515 251.111 256.65C255.012 263.407 257.417 270.329 258.066 276.136C258.389 279.034 258.29 281.792 257.614 284.158C256.931 286.541 255.603 288.698 253.375 289.985C250.679 291.541 247.566 291.32 244.717 290.283C241.858 289.242 238.915 287.271 236.109 284.71C234.962 283.663 234.881 281.884 235.928 280.737C236.976 279.59 238.754 279.508 239.902 280.556C242.373 282.812 244.696 284.289 246.641 284.998C248.596 285.709 249.826 285.538 250.562 285.113C251.179 284.758 251.799 284.032 252.206 282.61C252.618 281.17 252.748 279.198 252.476 276.76C251.932 271.892 249.847 265.71 246.24 259.463C244.581 256.59 242.766 253.989 240.896 251.733C239.905 250.537 240.072 248.764 241.268 247.773Z" fill="white"/>
<path d="M262.375 264.771C262.375 263.684 261.573 262.078 258.8 260.344C257.483 259.521 257.083 257.785 257.906 256.468C258.73 255.151 260.465 254.751 261.782 255.575C265.181 257.7 268 260.79 268 264.771C268 268.763 265.166 271.859 261.751 273.986C260.433 274.808 258.698 274.405 257.877 273.086C257.056 271.768 257.459 270.033 258.777 269.212C261.567 267.474 262.375 265.861 262.375 264.771ZM250.61 275.392C250.87 276.923 249.84 278.376 248.308 278.636C245.096 279.182 241.621 279.478 238 279.478C230.198 279.478 223.001 278.1 217.648 275.758C214.976 274.589 212.637 273.125 210.927 271.356C209.204 269.573 208 267.344 208 264.771C208 261.658 209.748 259.073 212.071 257.124C214.402 255.168 217.58 253.605 221.2 252.456C222.681 251.986 224.262 252.806 224.732 254.286C225.202 255.767 224.383 257.348 222.902 257.818C219.713 258.83 217.272 260.103 215.686 261.433C214.092 262.771 213.625 263.921 213.625 264.771C213.625 265.483 213.943 266.383 214.971 267.446C216.012 268.523 217.655 269.622 219.903 270.605C224.39 272.568 230.786 273.853 238 273.853C241.318 273.853 244.477 273.581 247.366 273.09C248.897 272.83 250.35 273.861 250.61 275.392Z" fill="white"/>
<path d="M226.27 285.114C227.211 285.657 229.004 285.765 231.892 284.231C233.263 283.502 234.966 284.023 235.695 285.395C236.424 286.766 235.903 288.469 234.531 289.198C230.991 291.079 226.905 291.975 223.458 289.985C220.001 287.989 218.736 283.986 218.601 279.966C218.549 278.413 219.765 277.113 221.318 277.061C222.87 277.008 224.171 278.225 224.223 279.777C224.333 283.063 225.326 284.569 226.27 285.114ZM222.955 269.614C221.498 269.074 220.756 267.455 221.296 265.999C222.43 262.944 223.911 259.786 225.721 256.651C229.622 249.894 234.414 244.35 239.118 240.885C241.467 239.156 243.904 237.862 246.292 237.266C248.697 236.665 251.23 236.737 253.458 238.023C256.153 239.58 257.519 242.386 258.045 245.372C258.573 248.369 258.337 251.903 257.522 255.613C257.189 257.13 255.689 258.09 254.172 257.756C252.655 257.423 251.695 255.923 252.028 254.406C252.746 251.137 252.864 248.387 252.505 246.348C252.144 244.299 251.381 243.32 250.645 242.895C250.029 242.539 249.091 242.364 247.656 242.723C246.202 243.086 244.43 243.96 242.454 245.415C238.51 248.319 234.199 253.216 230.592 259.463C228.933 262.336 227.589 265.209 226.57 267.956C226.029 269.412 224.411 270.155 222.955 269.614Z" fill="white"/>
<path d="M243.473 264.248C243.473 267.063 241.19 269.346 238.375 269.346C235.56 269.346 233.277 267.063 233.277 264.248C233.277 261.433 235.56 259.15 238.375 259.15C241.19 259.15 243.473 261.433 243.473 264.248Z" fill="white"/>
<path d="M421.953 272.533C421.952 273.075 421.723 273.563 421.357 273.908H421.355C420.98 274.26 420.474 274.476 419.917 274.476C419.36 274.476 418.852 274.258 418.475 273.906L418.477 273.908C418.112 273.563 417.883 273.075 417.883 272.535C417.883 271.995 418.112 271.506 418.479 271.163C418.854 270.81 419.362 270.594 419.919 270.594C420.476 270.594 420.982 270.81 421.359 271.164L421.357 271.163C421.723 271.508 421.952 271.995 421.953 272.537V272.533ZM442.346 274.157H438.695L429.084 258.992C428.863 258.651 428.658 258.257 428.495 257.843L428.478 257.798H428.394C428.471 258.482 428.514 259.273 428.514 260.076C428.514 260.271 428.512 260.466 428.507 260.661V260.633V274.157H425.28V253.526H429.167L438.457 268.335C438.849 268.946 439.102 269.37 439.215 269.601H439.271C439.177 268.899 439.125 268.089 439.125 267.266C439.125 267.111 439.127 266.957 439.13 266.801V266.824V253.524H442.346V274.157ZM458.062 274.157H446.765V253.526H457.614V256.433H450.105V262.277H457.023V265.168H450.105V271.269H458.062V274.157ZM474.118 256.433H468.335V274.159H464.996V256.433H459.227V253.526H474.116L474.118 256.433Z" fill="white"/>
<g clip-path="url(#clip11_590_297)">
<path fill-rule="evenodd" clip-rule="evenodd" d="M671.463 276.363C670.74 278.41 667.866 280.103 665.574 280.598C664.005 280.931 661.959 281.195 655.065 278.338C647.322 275.13 636.57 263.703 636.57 256.099C636.57 252.227 638.802 247.72 642.705 247.72C644.583 247.72 644.997 247.756 645.615 249.239C646.338 250.985 648.102 255.288 648.312 255.729C649.179 257.539 647.43 258.598 646.161 260.174C645.756 260.648 645.297 261.161 645.81 262.043C646.32 262.907 648.084 265.782 650.676 268.09C654.024 271.073 656.739 272.025 657.711 272.43C658.434 272.73 659.298 272.66 659.826 272.096C660.495 271.373 661.326 270.173 662.172 268.991C662.769 268.144 663.528 268.039 664.323 268.339C664.86 268.525 671.685 271.695 671.973 272.202C672.186 272.571 672.186 274.317 671.463 276.363ZM654.006 234H653.991C637.452 234 624 247.456 624 264C624 270.56 626.115 276.646 629.712 281.583L625.974 292.73L637.503 289.046C642.246 292.185 647.907 294 654.006 294C670.545 294 684 280.544 684 264C684 247.456 670.545 234 654.006 234Z" fill="white"/>
</g>
<path d="M862 235C858.06 235 854.159 235.776 850.519 237.284C846.88 238.791 843.573 241.001 840.787 243.787C835.161 249.413 832 257.044 832 265C832 278.26 840.61 289.51 852.52 293.5C854.02 293.74 854.5 292.81 854.5 292V286.93C846.19 288.73 844.42 282.91 844.42 282.91C843.04 279.43 841.09 278.5 841.09 278.5C838.36 276.64 841.3 276.7 841.3 276.7C844.3 276.91 845.89 279.79 845.89 279.79C848.5 284.35 852.91 283 854.62 282.28C854.89 280.33 855.67 279.01 856.51 278.26C849.85 277.51 842.86 274.93 842.86 263.5C842.86 260.17 844 257.5 845.95 255.37C845.65 254.62 844.6 251.5 846.25 247.45C846.25 247.45 848.77 246.64 854.5 250.51C856.87 249.85 859.45 249.52 862 249.52C864.55 249.52 867.13 249.85 869.5 250.51C875.23 246.64 877.75 247.45 877.75 247.45C879.4 251.5 878.35 254.62 878.05 255.37C880 257.5 881.14 260.17 881.14 263.5C881.14 274.96 874.12 277.48 867.43 278.23C868.51 279.16 869.5 280.99 869.5 283.78V292C869.5 292.81 869.98 293.77 871.51 293.5C883.42 289.48 892 278.26 892 265C892 261.06 891.224 257.159 889.716 253.519C888.209 249.88 885.999 246.573 883.213 243.787C880.427 241.001 877.12 238.791 873.481 237.284C869.841 235.776 865.94 235 862 235Z" fill="white"/>
<path d="M1086.55 278.784H1080.37L1077.04 270.577H1062.96L1059.63 278.788H1053.44L1070 242.092L1086.55 278.784ZM1070 235.882L1043.48 245.212L1047.52 279.821L1070 292.115L1092.49 279.832L1096.52 245.216L1070 235.884V235.882ZM1065.15 265.511H1074.85L1070 254.012L1065.15 265.511Z" fill="white"/>
<path fill-rule="evenodd" clip-rule="evenodd" d="M1259.97 245.57C1260.44 241.817 1263.63 239 1267.41 239H1280.5C1285.03 239 1288.55 240.921 1290.89 243.844C1293.18 246.705 1294.25 250.409 1294.25 254C1294.25 257.591 1293.18 261.295 1290.89 264.155C1288.55 267.079 1285.03 269 1280.5 269H1273C1272.78 269 1272.59 269.16 1272.56 269.377L1271.16 277.733C1270.56 281.35 1267.43 284 1263.76 284H1260.5C1257.67 284 1255.48 281.518 1255.83 278.709L1259.97 245.57Z" fill="white"/>
<path d="M1263.87 286.499C1264.64 287.974 1266.19 289 1268 289H1271.6C1275.04 289 1278.04 286.658 1278.87 283.319L1279.82 279.532C1279.9 279.219 1280.18 279 1280.5 279H1288C1291.95 279 1295.16 277.535 1297.48 275.176C1299.77 272.858 1301.08 269.789 1301.55 266.668C1302.32 261.559 1300.85 255.6 1296.66 252.046C1296.72 252.7 1296.75 253.353 1296.75 254C1296.75 258.056 1295.54 262.34 1292.84 265.717C1290.04 269.221 1285.8 271.5 1280.5 271.5H1274.74L1273.63 278.144C1272.83 282.933 1268.71 286.452 1263.87 286.499Z" fill="white"/>
<g clip-path="url(#clip12_590_297)">
<path d="M30.4944 381.011C30.4944 384.496 29.213 387.262 26.7395 387.262C24.2892 387.262 22.9625 384.474 22.9625 381.079C22.9625 377.909 24.1542 374.896 26.7622 374.896C29.3029 374.895 30.4944 377.841 30.4944 381.011ZM59.9414 361.039V400.961C59.9414 406.45 55.4502 410.942 49.9609 410.942H10.0391C4.5498 410.941 0.0585938 406.45 0.0585938 400.961V361.039C0.0585938 355.55 4.5498 351.059 10.0391 351.059H49.961C55.4502 351.059 59.9414 355.55 59.9414 361.039ZM17.1616 377.212H13.834V389.735H17.1616V377.212ZM17.2739 373.794C17.2739 372.759 16.5546 372.018 15.4754 372.018C14.441 372.018 13.6989 372.759 13.6989 373.794C13.6989 374.806 14.4184 375.57 15.4754 375.57C16.5095 375.57 17.2739 374.873 17.2739 373.794ZM33.9796 380.876C33.9796 376.267 31.6413 372.175 26.8519 372.175C22.3331 372.175 19.4776 375.975 19.4776 381.146C19.4776 386.16 22.0629 389.983 26.6272 389.983C30.922 389.982 33.9796 386.902 33.9796 380.876ZM46.3011 384.744C46.3011 382.473 45.0643 380.876 42.2993 379.64C40.1857 378.673 39.3309 378.111 39.3309 376.874C39.3309 375.907 40.1181 374.963 41.8719 374.963C43.2881 374.963 44.345 375.39 44.9523 375.705L45.6492 372.984C44.8392 372.579 43.5805 372.197 41.9392 372.197C38.2066 372.197 35.9811 374.378 35.9811 377.212C35.9811 379.46 37.6 381.079 40.2076 382.203C42.1189 383.035 42.9512 383.777 42.9512 385.013C42.9512 386.295 41.9844 387.171 40.1404 387.171C38.7466 387.171 37.3076 386.744 36.4084 386.205L35.7564 388.993C36.5653 389.487 38.2969 389.96 40.0055 389.96C44.0302 389.96 46.3011 387.756 46.3011 384.744Z" fill="white"/>
</g>
<path d="M222.133 370.805H253.866V396.664C253.866 398.2 252.621 399.445 251.087 399.445H247.908V407.321C247.908 409.321 246.313 410.941 244.344 410.941C242.37 410.941 240.777 409.321 240.777 407.321V399.445H235.226V407.321C235.226 409.321 233.627 410.941 231.658 410.941C229.69 410.941 228.091 409.321 228.091 407.321V399.445H224.916C223.381 399.445 222.133 398.2 222.133 396.664L222.133 370.805ZM215.915 370.594C213.926 370.594 212.314 372.23 212.314 374.25V388.539C212.314 390.557 213.926 392.196 215.915 392.196C217.904 392.196 219.515 390.557 219.515 388.539V374.25C219.515 372.23 217.904 370.594 215.915 370.594ZM253.866 368.199H222.133C222.525 363.678 225.458 359.788 229.679 357.535L226.662 353.105C226.255 352.508 226.409 351.692 227.007 351.286C227.605 350.879 228.419 351.034 228.828 351.631L232.116 356.462C233.939 355.832 235.918 355.47 238 355.47C240.084 355.47 242.063 355.832 243.886 356.463L247.174 351.632C247.578 351.034 248.394 350.879 248.992 351.286C249.591 351.693 249.744 352.508 249.338 353.105L246.323 357.535C250.544 359.786 253.475 363.677 253.866 368.199ZM233.062 362.056C233.062 361.087 232.277 360.3 231.308 360.3C230.336 360.3 229.551 361.087 229.551 362.056C229.551 363.025 230.339 363.811 231.308 363.811C232.277 363.811 233.062 363.025 233.062 362.056ZM246.671 362.056C246.671 361.087 245.883 360.3 244.914 360.3C243.943 360.3 243.16 361.087 243.16 362.056C243.16 363.025 243.943 363.811 244.914 363.811C245.883 363.811 246.671 363.025 246.671 362.056ZM260.087 370.589C258.1 370.589 256.485 372.227 256.485 374.247V388.542C256.485 390.562 258.1 392.201 260.087 392.201C262.077 392.201 263.685 390.562 263.685 388.542V374.247C263.685 372.227 262.077 370.589 260.087 370.589Z" fill="white"/>
<path d="M439.225 408.109C438.805 407.927 438.46 407.749 438.126 407.55L438.171 407.574C436.339 406.575 434.768 405.379 433.399 403.984L433.396 403.98C430.953 401.368 429.126 398.149 428.166 394.577L428.131 394.421C427.521 392.233 427.107 389.69 426.974 387.073L426.97 386.989C426.933 386.447 426.912 385.813 426.912 385.175C426.912 384.095 426.972 383.03 427.09 381.982L427.079 382.112C427.384 378.99 428.324 376.142 429.768 373.62L429.713 373.723C430.804 371.822 432.201 370.224 433.855 368.94L433.891 368.912C434.989 368.062 436.255 367.35 437.616 366.836L437.718 366.802C438.991 366.326 440.461 366.052 441.994 366.052C443.416 366.052 444.783 366.289 446.058 366.724L445.969 366.697C446.037 366.697 446.037 366.697 446.074 366.767C446.11 366.802 446.179 366.802 446.215 366.836C446.32 366.874 446.459 366.941 446.601 367.009C447.248 367.346 447.788 367.672 448.306 368.029L448.249 367.993C450.361 369.484 452.033 371.46 453.124 373.766L453.162 373.856C454.083 375.881 454.626 378.245 454.641 380.735V380.741C454.645 380.863 454.647 381.005 454.647 381.15C454.647 383.674 454.088 386.068 453.087 388.215L453.13 388.112C451.769 390.934 449.643 393.204 447.023 394.708L446.95 394.747C447.16 394.819 447.372 394.852 447.586 394.924C448.068 395.029 448.624 395.092 449.194 395.096H449.198C452.804 395.06 456.061 393.594 458.431 391.237C458.884 390.817 459.299 390.369 459.678 389.891L459.696 389.867C460.186 389.295 460.66 388.667 461.091 388.009L461.134 387.939C461.629 387.174 462.109 386.287 462.522 385.363L462.573 385.235C463.066 384.12 463.478 382.815 463.744 381.457L463.765 381.337C464.041 379.862 464.2 378.165 464.2 376.43C464.2 375.662 464.168 374.9 464.108 374.149L464.114 374.248C463.9 369.232 462.319 364.624 459.738 360.739L459.798 360.836C459.353 360.199 458.926 359.649 458.474 359.122L458.498 359.15C457.726 358.279 456.912 357.485 456.044 356.756L456.008 356.728C455.073 355.954 454.028 355.243 452.918 354.635L452.815 354.583C451.699 354.054 450.381 353.576 449.013 353.218L448.851 353.182L448.148 353.042C447.659 352.972 447.164 352.939 446.663 352.901C446.401 352.888 446.095 352.882 445.786 352.882C445.257 352.882 444.734 352.903 444.216 352.944L444.286 352.94C442.467 353.064 440.778 353.345 439.146 353.773L439.336 353.73C431.253 355.894 424.703 361.262 421.006 368.353L420.931 368.512C419.056 372.155 417.955 376.462 417.955 381.028C417.955 382.322 418.043 383.593 418.214 384.84L418.197 384.695C418.499 387.281 419.142 389.638 420.083 391.837L420.019 391.67C420.631 393.172 421.279 394.442 422.02 395.649L421.953 395.531C424.589 399.705 428.155 403.069 432.372 405.392L432.518 405.467C433.953 406.282 435.623 407.03 437.367 407.619L437.573 407.679C438.102 407.852 438.627 408.03 439.188 408.17L439.225 408.109ZM446.101 409.042C447.28 409.04 448.441 408.96 449.577 408.808L449.442 408.823C452.185 408.459 454.671 407.75 456.991 406.73L456.813 406.8C460.257 405.3 463.201 403.295 465.704 400.839L465.7 400.843C468.01 398.578 469.926 395.921 471.344 392.981L471.417 392.812C472.559 390.446 473.399 387.699 473.791 384.812L473.808 384.669C473.959 383.55 474.046 382.256 474.046 380.942C474.046 379.363 473.92 377.814 473.68 376.305L473.703 376.472C473.311 374.021 472.664 371.825 471.775 369.757L471.844 369.939C471.211 368.471 470.543 367.226 469.782 366.047L469.844 366.15C467.035 361.854 463.227 358.429 458.736 356.15L458.573 356.075C457.139 355.322 455.451 354.63 453.696 354.094L453.483 354.037H453.471C453.751 354.185 454.034 354.347 454.279 354.508C454.561 354.68 454.84 354.849 455.103 355.035C456.477 355.965 457.675 356.992 458.744 358.138L458.755 358.151C461.134 360.757 462.931 363.937 463.913 367.457L463.953 367.618C464.562 369.699 464.976 372.116 465.109 374.606L465.113 374.687C465.158 375.287 465.183 375.988 465.183 376.693C465.183 377.825 465.117 378.945 464.989 380.044L465.003 379.91C464.644 383.066 463.621 385.924 462.074 388.425L462.124 388.337C460.932 390.262 459.447 391.882 457.711 393.187L457.666 393.219C455.487 394.982 452.682 396.047 449.628 396.047C448.795 396.047 447.979 395.968 447.192 395.816L447.273 395.829C446.601 395.67 446.018 395.462 445.463 395.201L445.519 395.225C444.82 394.903 444.222 394.552 443.661 394.149L443.693 394.172C442.583 393.424 441.625 392.569 440.794 391.601L440.779 391.582C439.791 390.41 438.963 389.059 438.359 387.59L438.321 387.489C437.62 385.727 437.198 383.687 437.164 381.553V381.538C437.157 381.343 437.151 381.112 437.151 380.882C437.151 377.97 437.898 375.234 439.208 372.853L439.165 372.939C440.183 371.164 441.486 369.671 443.028 368.471L443.061 368.445C443.539 368.072 444.078 367.7 444.638 367.363L444.711 367.322L444.749 367.305C443.944 367.114 443.022 367.003 442.075 367.003C441.828 367.003 441.584 367.01 441.34 367.025L441.374 367.024C440.322 367.095 439.341 367.295 438.415 367.61L438.498 367.586C437.579 367.892 436.789 368.248 436.045 368.675L436.111 368.642C435.454 369.02 434.894 369.403 434.363 369.823L434.393 369.8C433.898 370.222 433.409 370.644 432.951 371.102C430.473 373.766 428.77 377.184 428.224 380.975L428.213 381.075C428.018 382.414 427.908 383.959 427.908 385.53C427.908 386.394 427.941 387.251 428.007 388.099L427.999 387.986C428.221 391.47 429.014 394.71 430.287 397.697L430.214 397.504C431.059 399.454 432.119 401.134 433.396 402.622L433.373 402.596C435.338 404.857 437.796 406.637 440.584 407.775L440.712 407.822C442.154 408.429 443.828 408.875 445.576 409.078L445.662 409.085C445.788 409.108 445.934 409.121 446.082 409.121C446.106 409.121 446.131 409.121 446.155 409.119H446.151L446.101 409.042Z" fill="white"/>
<path d="M669.441 363.223L638.56 363.215L639.058 369.36L662.783 369.364L662.185 375.727H646.626L647.188 381.755H661.673L660.816 390.011L653.998 391.895L647.072 389.998L646.632 385.054H640.515L641.194 394.085L653.998 398.075L666.587 394.49L669.439 363.225L669.441 363.223ZM629.398 352.882H678.602L674.127 403.406L653.946 409.115L633.878 403.402L629.398 352.882Z" fill="white"/>
<g clip-path="url(#clip13_590_297)">
<path d="M889.568 371.811H881.1V363.972L867.263 351H834.434V411H881.1V402.265H889.567V371.811H889.568ZM884.568 397.265H849.568V376.811H884.567V397.265H884.568Z" fill="white"/>
<path d="M851.873 391.629H854.073L856.552 387.903L859.016 391.629H861.201L857.608 386.495L861.319 381.215H859.133L856.552 385.087L853.956 381.215H851.756L855.467 386.495L851.873 391.629Z" fill="white"/>
<path d="M864.383 384.735L867.067 389.869H868.167L870.851 384.735V391.629H872.875V381.215H870.719L867.61 387.141L864.53 381.215H862.359V391.629H864.383V384.735Z" fill="white"/>
<path d="M882.38 389.854H877.071V381.215H875.047V391.629H882.38V389.854Z" fill="white"/>
</g>
<path d="M1061.89 375.743L1061.35 369.392L1084.86 369.399L1085.39 363.272L1054.61 363.264L1056.24 381.983H1077.56L1076.8 389.989L1070 391.868L1063.1 389.976L1062.66 385.044H1056.56L1057.33 394.791L1070 398.179L1082.57 394.808L1084.31 375.746H1061.89V375.743ZM1045.46 352.959H1094.54L1090.07 403.348L1069.95 409.043L1049.93 403.346L1045.46 352.959Z" fill="white"/>
<path d="M1304.09 351L1274.32 370.432L1271.38 381.122L1287.94 370.38L1277.13 411H1288.1L1304.09 351ZM1283.65 376.245L1256.47 393.915L1251.91 411H1274.43L1283.65 376.245Z" fill="white"/>
<defs>
<clipPath id="clip0_590_297">
<rect width="60" height="60" fill="white"/>
</clipPath>
<clipPath id="clip1_590_297">
<rect width="60" height="60" fill="white" transform="translate(208)"/>
</clipPath>
<clipPath id="clip2_590_297">
<rect width="60" height="60" fill="white" transform="translate(416)"/>
</clipPath>
<clipPath id="clip3_590_297">
<rect width="60" height="60" fill="white" transform="translate(624)"/>
</clipPath>
<clipPath id="clip4_590_297">
<rect x="832" width="60" height="60" rx="8" fill="white"/>
</clipPath>
<clipPath id="clip5_590_297">
<rect width="60" height="60" fill="white" transform="translate(1248)"/>
</clipPath>
<clipPath id="clip6_590_297">
<rect width="60" height="60" fill="white" transform="translate(0 117)"/>
</clipPath>
<clipPath id="clip7_590_297">
<rect width="60" height="60" fill="white" transform="translate(208 117)"/>
</clipPath>
<clipPath id="clip8_590_297">
<rect width="60" height="60" fill="white" transform="translate(832 117)"/>
</clipPath>
<clipPath id="clip9_590_297">
<rect width="60" height="60" fill="white" transform="translate(1248 117)"/>
</clipPath>
<clipPath id="clip10_590_297">
<rect width="60" height="60" fill="white" transform="translate(0 234)"/>
</clipPath>
<clipPath id="clip11_590_297">
<rect width="60" height="60" fill="white" transform="translate(624 234)"/>
</clipPath>
<clipPath id="clip12_590_297">
<rect width="60" height="60" fill="white" transform="translate(0 351)"/>
</clipPath>
<clipPath id="clip13_590_297">
<rect width="60" height="60" fill="white" transform="translate(832 351)"/>
</clipPath>
</defs>
</svg>
