<svg width="60" height="60" viewBox="0 0 60 60" fill="none" xmlns="http://www.w3.org/2000/svg">
<path d="M35 45.7875C32.258 44.4811 29.9007 42.4873 28.1575 40H7.5V10H52.5V15.66C54.5255 17.0809 56.2291 18.9123 57.5 21.035V10C57.496 8.67513 56.968 7.40566 56.0312 6.46884C55.0943 5.53201 53.8249 5.00396 52.5 5H7.5C6.17513 5.00396 4.90566 5.53201 3.96884 6.46884C3.03201 7.40566 2.50396 8.67513 2.5 10V40C2.50396 41.3249 3.03201 42.5943 3.96884 43.5312C4.90566 44.468 6.17513 44.996 7.5 45H25V50H20V55H40V50H35V45.7875Z" fill="white"/>
<path d="M42.5 15C39.5333 15 36.6332 15.8797 34.1665 17.528C31.6997 19.1762 29.7771 21.5189 28.6418 24.2597C27.5065 27.0006 27.2094 30.0166 27.7882 32.9264C28.367 35.8361 29.7956 38.5088 31.8934 40.6066C33.9912 42.7044 36.6639 44.133 39.5737 44.7118C42.4834 45.2906 45.4994 44.9935 48.2403 43.8582C50.9811 42.7229 53.3238 40.8003 54.972 38.3336C56.6203 35.8668 57.5 32.9667 57.5 30C57.5 26.0218 55.9197 22.2064 53.1066 19.3934C50.2936 16.5804 46.4783 15 42.5 15ZM42.5 40C40.5222 40 38.5888 39.4135 36.9443 38.3147C35.2998 37.2159 34.0181 35.6541 33.2612 33.8268C32.5043 31.9996 32.3063 29.9889 32.6922 28.0491C33.078 26.1093 34.0304 24.3275 35.4289 22.9289C36.8275 21.5304 38.6093 20.578 40.5491 20.1921C42.4889 19.8063 44.4996 20.0043 46.3268 20.7612C48.1541 21.5181 49.7159 22.7998 50.8147 24.4443C51.9135 26.0888 52.5 28.0222 52.5 30C52.4967 32.6511 51.4421 35.1928 49.5674 37.0674C47.6928 38.9421 45.1512 39.9967 42.5 40Z" fill="white"/>
<path d="M42.5 32.5C43.8807 32.5 45 31.3807 45 30C45 28.6193 43.8807 27.5 42.5 27.5C41.1193 27.5 40 28.6193 40 30C40 31.3807 41.1193 32.5 42.5 32.5Z" fill="white"/>
</svg>
