<svg width="56" height="60" viewBox="0 0 56 60" fill="none" xmlns="http://www.w3.org/2000/svg">
<path d="M43.7495 18.63C43.7495 17.2615 44.2932 15.949 45.2609 14.9813C46.2285 14.0136 47.541 13.47 48.9095 13.47C50.278 13.47 51.5905 14.0136 52.5582 14.9813C53.5259 15.949 54.0695 17.2615 54.0695 18.63C54.0695 19.9985 53.5259 21.311 52.5582 22.2787C51.5905 23.2464 50.278 23.79 48.9095 23.79C47.541 23.79 46.2285 23.2464 45.2609 22.2787C44.2932 21.311 43.7495 19.9985 43.7495 18.63ZM7.08953 23.79C8.45805 23.79 9.77052 23.2464 10.7382 22.2787C11.7059 21.311 12.2495 19.9985 12.2495 18.63C12.2495 17.2615 11.7059 15.949 10.7382 14.9813C9.77052 14.0136 8.45805 13.47 7.08953 13.47C5.72102 13.47 4.40855 14.0136 3.44086 14.9813C2.47318 15.949 1.92953 17.2615 1.92953 18.63C1.92953 19.9985 2.47318 21.311 3.44086 22.2787C4.40855 23.2464 5.72102 23.79 7.08953 23.79ZM27.9995 49.68C26.631 49.68 25.3186 50.2236 24.3509 51.1913C23.3832 52.159 22.8395 53.4715 22.8395 54.84C22.8395 56.2085 23.3832 57.521 24.3509 58.4887C25.3186 59.4564 26.631 60 27.9995 60C29.3681 60 30.6805 59.4564 31.6482 58.4887C32.6159 57.521 33.1595 56.2085 33.1595 54.84C33.1595 53.4715 32.6159 52.159 31.6482 51.1913C30.6805 50.2236 29.3681 49.68 27.9995 49.68ZM13.5645 41.8025C13.5045 41.394 13.4058 40.9922 13.2695 40.6025L13.2645 40.5875C13.1318 40.2095 12.9644 39.8447 12.7645 39.4975L12.7545 39.4775C12.5549 39.132 12.324 38.8056 12.0645 38.5025L12.062 38.5C11.8003 38.1938 11.5108 37.9126 11.197 37.66C10.0395 36.7078 8.58839 36.185 7.08953 36.18C5.79011 36.18 4.51987 36.5653 3.43944 37.2872C2.35901 38.0092 1.51691 39.0353 1.01965 40.2358C0.522378 41.4363 0.39227 42.7573 0.645775 44.0317C0.89928 45.3062 1.52501 46.4769 2.44384 47.3957C3.36267 48.3145 4.53334 48.9403 5.80779 49.1938C7.08225 49.4473 8.40325 49.3172 9.60376 48.8199C10.8043 48.3226 11.8304 47.4805 12.5523 46.4001C13.2742 45.3197 13.6595 44.0494 13.6595 42.75C13.6595 42.425 13.6095 42.115 13.5645 41.8V41.8025ZM34.812 35.4775C34.892 35.3592 34.9704 35.2367 35.047 35.11C35.236 34.8138 35.4039 34.5047 35.5495 34.185C35.6162 34.05 35.6779 33.9133 35.7345 33.775C36.1321 32.795 36.3375 31.7476 36.3395 30.69C36.3395 26.915 33.8145 23.76 30.3695 22.7325C30.026 22.6241 29.6751 22.5405 29.3195 22.4825C28.8843 22.3994 28.4426 22.3551 27.9995 22.35C27.542 22.35 27.102 22.4025 26.6695 22.485C26.307 22.5445 25.9494 22.6306 25.5995 22.7425C23.8866 23.2526 22.3837 24.3012 21.3137 25.7328C20.2437 27.1644 19.6637 28.9027 19.6595 30.69C19.6595 32.1075 20.047 33.4225 20.672 34.5925C20.7387 34.7292 20.8104 34.8625 20.887 34.9925C21.0437 35.2458 21.2112 35.4892 21.3895 35.7225C21.4895 35.8492 21.5895 35.9717 21.6895 36.09C22.4311 36.9684 23.3474 37.6828 24.3801 38.1879C25.4128 38.6929 26.5393 38.9776 27.6879 39.0237C28.8366 39.0697 29.9822 38.8763 31.0521 38.4556C32.1219 38.0349 33.0925 37.3961 33.902 36.58C34.2354 36.24 34.5387 35.8733 34.812 35.48V35.4775ZM12.3445 36.9975C13.527 38.08 14.3895 39.5025 14.7345 41.125L21.172 37.41C20.0442 36.2528 19.2302 34.827 18.807 33.2675L12.3445 37V36.9975ZM25.5995 13.9725V21.4425C26.3816 21.2263 27.1882 21.1112 27.9995 21.1C28.822 21.1 29.607 21.2375 30.3695 21.4325V13.9825C29.6195 14.225 28.832 14.39 27.9995 14.39C27.157 14.39 26.3595 14.22 25.5995 13.9725ZM43.892 36.8025L37.277 33C36.8871 34.5746 36.1004 36.0231 34.992 37.2075L41.347 40.8575C41.7462 39.2711 42.637 37.8517 43.892 36.8025ZM48.9095 36.18C47.4595 36.18 46.1295 36.665 45.042 37.4625C44.3859 37.9384 43.8246 38.5328 43.387 39.215L43.3545 39.275C43.1462 39.5983 42.9695 39.9392 42.8245 40.2975L42.7745 40.45C42.6417 40.7915 42.538 41.1436 42.4645 41.5025C42.2076 42.831 42.3671 44.2065 42.9214 45.4409C43.4756 46.6754 44.3975 47.7086 45.561 48.3994C46.7245 49.0902 48.073 49.4049 49.4221 49.3004C50.7712 49.196 52.0552 48.6775 53.0986 47.8159C54.1419 46.9542 54.8938 45.7914 55.2514 44.4864C55.609 43.1814 55.555 41.7977 55.0966 40.5246C54.6383 39.2514 53.798 38.1508 52.6906 37.3732C51.5832 36.5956 50.2627 36.1789 48.9095 36.18ZM26.7545 13.015C27.5713 13.18 28.4128 13.18 29.2295 13.015C30.8362 12.7103 32.2714 11.8168 33.254 10.5096C34.2366 9.20233 34.6959 7.57542 34.542 5.94732C34.3882 4.31922 33.6322 2.80716 32.4221 1.70714C31.212 0.607128 29.6349 -0.00164334 27.9995 3.33184e-06C26.3668 0.00117458 24.7931 0.610479 23.5852 1.70908C22.3774 2.80769 21.6221 4.31681 21.4666 5.94212C21.3111 7.56743 21.7666 9.19237 22.7443 10.5C23.7219 11.8077 25.1516 12.7043 26.7545 13.015Z" fill="white"/>
</svg>
