<svg width="60" height="60" viewBox="0 0 60 60" fill="none" xmlns="http://www.w3.org/2000/svg">
<path d="M5.95344 38.5332C5.95156 39.075 5.72281 39.5625 5.35719 39.9075H5.35531C4.98031 40.26 4.47406 40.4757 3.91719 40.4757C3.36031 40.4757 2.85219 40.2582 2.47531 39.9057L2.47719 39.9075C2.11156 39.5625 1.88281 39.075 1.88281 38.535C1.88281 37.995 2.11156 37.5057 2.47906 37.1625C2.85406 36.81 3.36219 36.5944 3.91906 36.5944C4.47594 36.5944 4.98219 36.81 5.35906 37.1644L5.35719 37.1625C5.72281 37.5075 5.95156 37.995 5.95344 38.5369V38.5332ZM26.3459 40.1569H22.6953L13.0841 24.9919C12.8628 24.6507 12.6584 24.2569 12.4953 23.8425L12.4784 23.7975H12.3941C12.4709 24.4819 12.5141 25.2732 12.5141 26.0757C12.5141 26.2707 12.5122 26.4657 12.5066 26.6607V26.6325V40.1569H9.27969V19.5263H13.1666L22.4572 34.335C22.8491 34.9463 23.1022 35.37 23.2147 35.6007H23.2709C23.1772 34.8994 23.1247 34.0894 23.1247 33.2663C23.1247 33.1107 23.1266 32.9569 23.1303 32.8013V32.8238V19.5244H26.3459V40.1569ZM42.0622 40.1569H30.7653V19.5263H41.6141V22.4325H34.1047V28.2769H41.0234V31.1682H34.1047V37.2694H42.0622V40.1569ZM58.1178 22.4325H52.3353V40.1588H48.9959V22.4325H43.2266V19.5263H58.1159L58.1178 22.4325Z" fill="white"/>
</svg>
