<svg width="60" height="60" viewBox="0 0 60 60" fill="none" xmlns="http://www.w3.org/2000/svg">
<circle cx="30" cy="30" r="30" fill="#268BBF"/>
<path d="M45.71 45.015C45.9866 45.015 46.2482 44.8904 46.4224 44.6754C46.5965 44.4606 46.6645 44.1787 46.6073 43.9082L46.0298 41.175C46.3587 40.8568 46.5655 40.4126 46.5655 39.9186C46.5655 39.3986 46.3339 38.9374 45.9744 38.6169V29.1254L43.6591 30.5582V38.6169C43.2997 38.9374 43.068 39.3986 43.068 39.9186C43.068 40.4126 43.2748 40.8569 43.6038 41.175L43.0261 43.9082C42.969 44.1788 43.037 44.4606 43.2111 44.6754C43.3852 44.8903 43.6469 45.015 43.9235 45.015H45.71ZM46.4947 23.5868L31.4329 14.2631C30.9918 13.9914 30.4945 13.855 29.9973 13.855C29.5 13.855 29.0024 13.9913 28.564 14.2631L13.5019 23.5868C13.0997 23.8357 12.8555 24.2752 12.8555 24.7483C12.8555 25.2214 13.0997 25.6611 13.5019 25.9104L28.5639 35.2342C29.0023 35.5062 29.4999 35.6423 29.9972 35.6423C30.4945 35.6423 30.9918 35.506 31.4328 35.2342L46.4947 25.9104C46.8969 25.6612 47.1412 25.2214 47.1412 24.7483C47.1412 24.2752 46.8969 23.8355 46.4947 23.5868ZM29.9972 37.9574C29.059 37.9574 28.1433 37.6968 27.3451 37.2028L18.5594 31.7637V41.1293C18.5594 43.9012 23.6827 46.145 29.9972 46.145C36.314 46.145 41.4369 43.9011 41.4369 41.1293V31.7637L32.6515 37.2028C31.8533 37.6968 30.9354 37.9574 29.9972 37.9574Z" fill="white"/>
</svg>
