<svg width="60" height="60" viewBox="0 0 60 60" fill="none" xmlns="http://www.w3.org/2000/svg">
<circle cx="30" cy="30" r="30" fill="#268BBF"/>
<g clip-path="url(#clip0_590_1139)">
<path d="M30.002 10C29.6309 10 29.3281 10.3027 29.3281 10.6738L29.5149 14.8145C29.5149 15.0842 29.7347 15.3027 30.002 15.3027C30.2717 15.3027 30.489 15.0842 30.489 14.8145L30.677 10.6738C30.677 10.3027 30.3743 10 30.002 10Z" fill="white"/>
<path d="M21.8557 12.6757C21.6689 12.3534 21.2576 12.2423 20.9353 12.4291C20.6131 12.6159 20.502 13.0272 20.6875 13.3495L22.9202 16.8419C23.0545 17.0763 23.3523 17.1557 23.5855 17.0214C23.8186 16.8859 23.8992 16.588 23.7637 16.3549L21.8557 12.6757Z" fill="white"/>
<path d="M18.7106 21.0535L15.2194 18.8196C14.8959 18.634 14.4833 18.7451 14.2978 19.0674C14.111 19.3897 14.2221 19.8022 14.5443 19.9878L18.2247 21.8958C18.4567 22.0301 18.7557 21.9507 18.89 21.7176C19.0231 21.4844 18.9439 21.1878 18.7106 21.0535Z" fill="white"/>
<path d="M45.4605 36.2816L41.7801 34.3724C41.5482 34.2381 41.2504 34.3175 41.1161 34.5506C40.9818 34.7826 41.0612 35.0804 41.2943 35.2159L44.7867 37.4486C45.109 37.6341 45.5216 37.5243 45.7071 37.202C45.8927 36.8786 45.7841 36.4672 45.4605 36.2816Z" fill="white"/>
<path d="M17.1687 28.1347C17.1687 27.8661 16.9514 27.6477 16.6816 27.6477L12.541 27.4597C12.1687 27.4597 11.8672 27.7625 11.8672 28.1348C11.8672 28.5071 12.1687 28.8086 12.541 28.8086L16.6816 28.6218C16.9514 28.6217 17.1687 28.4033 17.1687 28.1347Z" fill="white"/>
<path d="M47.4636 27.4597L43.323 27.6477C43.0544 27.6477 42.8359 27.8662 42.8359 28.1347C42.8359 28.4032 43.0545 28.6217 43.323 28.6217L47.4636 28.8085C47.8359 28.8085 48.1387 28.5058 48.1387 28.1347C48.1387 27.7625 47.8359 27.461 47.4636 27.4597Z" fill="white"/>
<path d="M18.2247 34.3727L14.5443 36.2819C14.2221 36.4674 14.111 36.88 14.2978 37.2023C14.4833 37.5245 14.8959 37.6344 15.2194 37.4488L18.7106 35.2162C18.9438 35.0807 19.0231 34.7828 18.8901 34.5509C18.7557 34.3178 18.4567 34.2384 18.2247 34.3727Z" fill="white"/>
<path d="M41.7801 21.8958L45.4605 19.9878C45.7841 19.8022 45.8926 19.3897 45.7071 19.0674C45.5216 18.7451 45.109 18.634 44.7867 18.8196L41.2943 21.0535C41.0612 21.1878 40.9818 21.4844 41.1161 21.7176C41.2504 21.9507 41.5482 22.03 41.7801 21.8958Z" fill="white"/>
<path d="M39.0676 12.4291C38.7441 12.2423 38.3327 12.3534 38.1472 12.6757L36.238 16.3549C36.1025 16.588 36.1818 16.8859 36.4162 17.0214C36.6493 17.1557 36.9472 17.0763 37.0815 16.8419L39.3141 13.3495C39.5009 13.0272 39.3898 12.6158 39.0676 12.4291Z" fill="white"/>
<path d="M36.3952 26.9983L22.5281 31.5857C22.4866 31.5992 22.4499 31.6211 22.4109 31.6382C22.3499 31.6639 22.29 31.6858 22.2338 31.7176C22.1838 31.7445 22.1399 31.7775 22.0934 31.8092C22.0459 31.8421 21.9982 31.8714 21.9543 31.9092C21.9092 31.9471 21.8688 31.9898 21.8286 32.0314C21.7908 32.0704 21.7517 32.1071 21.7175 32.1498C21.6821 32.195 21.6516 32.2438 21.6199 32.2902C21.5881 32.3378 21.5563 32.383 21.5307 32.4318C21.5038 32.4807 21.4856 32.5332 21.4636 32.5832C21.4417 32.637 21.4184 32.6894 21.4013 32.7456C21.3842 32.7993 21.3745 32.8567 21.3635 32.914C21.3538 32.9678 21.3403 33.0214 21.3342 33.0776C21.3281 33.1411 21.3306 33.2058 21.3306 33.2717C21.3318 33.3144 21.3256 33.3559 21.3293 33.401C21.3293 33.4096 21.333 33.4182 21.3342 33.4279C21.3403 33.4841 21.3538 33.5403 21.3648 33.5964C21.3782 33.6574 21.388 33.7209 21.4063 33.7807C21.4099 33.788 21.4099 33.7965 21.4124 33.8051C21.4392 33.8845 21.4722 33.9626 21.51 34.0358C21.5198 34.0553 21.5295 34.0773 21.5417 34.0968C21.5857 34.1799 21.637 34.2567 21.6931 34.33C21.7151 34.3568 21.7383 34.38 21.7591 34.4057C21.8067 34.4594 21.8555 34.5107 21.908 34.5571C21.936 34.5815 21.9642 34.6046 21.9934 34.6278C22.0484 34.6706 22.1045 34.7109 22.1631 34.7463C22.1937 34.7646 22.223 34.7829 22.2534 34.8C22.3328 34.8415 22.4146 34.8782 22.4988 34.9087C22.5123 34.9124 22.5245 34.9197 22.5367 34.9246C22.6367 34.9563 22.7405 34.9771 22.8455 34.9917C22.8711 34.9953 22.898 34.9966 22.9249 34.9978C22.9749 35.0039 23.0262 35.01 23.0787 35.01C23.1117 35.01 23.1434 35.005 23.1763 35.0039C23.1922 35.0014 23.2081 35.0051 23.2252 35.0039C23.9527 34.944 24.5838 35.1699 25.1563 35.696C25.5335 36.0439 25.846 36.487 26.089 36.9484H25.3956C24.6192 36.9484 23.9906 37.5783 23.9906 38.3546V42.6808C23.9906 43.4572 24.6193 44.0871 25.3956 44.0871H26.6406C26.6406 44.2335 26.6406 44.4167 26.6406 44.6205C26.3599 44.6205 26.1316 44.8488 26.1316 45.1307C26.1316 45.4115 26.3599 45.6398 26.6406 45.6398C26.6406 45.8082 26.6406 45.9792 26.6406 46.15C26.3599 46.15 26.1316 46.3783 26.1316 46.6603C26.1316 46.941 26.3599 47.1693 26.6406 47.1693C26.6406 47.6259 26.6406 48.0214 26.6406 48.2667C26.6406 49.286 27.2534 49.3874 28.2727 49.3874C28.2727 49.3874 28.4754 50.0002 30.4138 50.0002C32.3511 50.0002 32.5549 49.3874 32.5549 49.3874C33.5742 49.3874 34.187 49.286 34.187 48.2667C34.187 48.0189 34.187 47.621 34.187 47.1583C34.419 47.1119 34.5948 46.9057 34.5948 46.6603C34.5948 46.4137 34.419 46.2074 34.187 46.1598C34.187 45.9828 34.187 45.8046 34.187 45.63C34.419 45.5836 34.5948 45.3761 34.5948 45.1307C34.5948 44.8829 34.419 44.6778 34.187 44.6314C34.187 44.4214 34.187 44.2371 34.187 44.087H35.5334C36.3099 44.087 36.9384 43.4571 36.9384 42.6807V38.3546C36.9384 37.5782 36.3098 36.9483 35.5334 36.9483H34.9182C35.2869 36.1317 35.8277 35.4212 36.5564 35.0245C37.4084 34.5582 37.7234 33.4925 37.2583 32.6404C36.7932 31.7896 35.7263 31.4759 34.8755 31.9397C32.8772 33.0286 31.7395 34.9915 31.1975 36.9482H29.8718C29.5007 35.7532 28.8464 34.4958 27.9224 33.501L37.4988 30.3332C38.418 30.0281 38.9184 29.0344 38.6133 28.114C38.3081 27.1925 37.3145 26.6932 36.3952 26.9983Z" fill="white"/>
<path d="M23.08 29.3677C23.2631 29.3677 23.4498 29.3384 23.633 29.2774L37.5002 24.69C38.4194 24.3848 38.9198 23.3911 38.6147 22.4707C38.3095 21.5491 37.3159 21.0498 36.3966 21.355L22.5295 25.9425C21.6091 26.2476 21.1085 27.24 21.4138 28.1617C21.6579 28.8989 22.3439 29.3677 23.08 29.3677Z" fill="white"/>
<path d="M24.2436 23.4118C24.4267 23.4118 24.6134 23.3812 24.7966 23.3227L34.5036 20.1098C35.424 19.8046 35.9233 18.8122 35.6193 17.8905C35.3141 16.9702 34.3217 16.4696 33.4001 16.7748L23.693 19.9877C22.7727 20.2917 22.2734 21.2853 22.5773 22.2058C22.8215 22.9443 23.5075 23.4118 24.2436 23.4118Z" fill="white"/>
</g>
<defs>
<clipPath id="clip0_590_1139">
<rect width="40" height="40" fill="white" transform="translate(10 10)"/>
</clipPath>
</defs>
</svg>
