<svg width="60" height="60" viewBox="0 0 60 60" fill="none" xmlns="http://www.w3.org/2000/svg">
<circle cx="30" cy="30" r="30" fill="#268BBF"/>
<path d="M17.586 32.3875H42.416C42.7724 32.3875 43.1214 32.2859 43.4222 32.0947C43.723 31.9034 43.963 31.6303 44.1141 31.3075C44.2652 30.9847 44.3212 30.6255 44.2755 30.272C44.2298 29.9185 44.0842 29.5854 43.856 29.3117L31.441 14.4243C31.2651 14.2132 31.0449 14.0434 30.796 13.9269C30.5472 13.8104 30.2757 13.75 30.001 13.75C29.7262 13.75 29.4548 13.8104 29.2059 13.9269C28.957 14.0434 28.7368 14.2132 28.5609 14.4243L16.146 29.3117C15.9177 29.5854 15.7721 29.9185 15.7264 30.272C15.6807 30.6255 15.7367 30.9847 15.8878 31.3075C16.0389 31.6303 16.279 31.9034 16.5797 32.0947C16.8805 32.2859 17.2295 32.3875 17.586 32.3875ZM30.001 16.6009L41.081 29.8875H18.921L30.001 16.6009Z" fill="white"/>
<path d="M42.5 35.625H17.5C17.0029 35.6256 16.5263 35.8233 16.1748 36.1748C15.8233 36.5263 15.6256 37.0029 15.625 37.5V42.5C15.6256 42.9971 15.8233 43.4737 16.1748 43.8252C16.5263 44.1767 17.0029 44.3744 17.5 44.375H42.5C42.9971 44.3744 43.4737 44.1767 43.8252 43.8252C44.1767 43.4737 44.3744 42.9971 44.375 42.5V37.5C44.3744 37.0029 44.1767 36.5263 43.8252 36.1748C43.4737 35.8233 42.9971 35.6256 42.5 35.625ZM41.875 41.875H18.125V38.125H41.875V41.875Z" fill="white"/>
</svg>
