<svg width="60" height="60" viewBox="0 0 60 60" fill="none" xmlns="http://www.w3.org/2000/svg">
<circle cx="30" cy="30" r="30" fill="#268BBF"/>
<path d="M29.9219 10.3125C27.9734 10.3125 26.3859 11.9 26.3859 13.8484C26.3859 15.7953 27.9578 17.3828 29.9219 17.3828C31.8547 17.3828 33.4562 15.7953 33.4562 13.8484C33.4562 11.9 31.8703 10.3125 29.9219 10.3125ZM34.375 18.125H25.4688C23.0328 18.125 21.0938 20.2203 21.0938 22.6562V27.6562H24.2188V23.4375C24.2188 23.1703 24.4203 22.9688 24.6875 22.9688C24.9547 22.9688 25.1562 23.1703 25.1562 23.4375V27.6562H34.6875V23.4375C34.6875 23.1703 34.8891 22.9688 35.1562 22.9688C35.4234 22.9688 35.625 23.1703 35.625 23.4375V27.6562H38.75V22.6562C38.75 20.2359 36.7953 18.125 34.375 18.125ZM11.875 28.4375V32.6562H15.4688V49.6875H44.375V32.6562H48.125V28.4375H11.875ZM29.9891 46.7734C25.9906 46.7734 22.7453 43.5281 22.7453 39.5297C22.7453 35.5094 25.9688 32.2422 29.9891 32.2422C34.0094 32.2422 37.2547 35.4875 37.2547 39.5078C37.2547 43.5281 33.9875 46.7734 29.9891 46.7734ZM30.6922 38.7984C29.6891 38.3906 29.2219 38.1969 29.2219 37.6953C29.2219 37.3297 29.6234 36.9641 30.3625 36.9641C31.1 36.9641 31.6375 37.1938 31.9672 37.3297L32.375 35.8969C31.9312 35.6594 31.3297 35.4875 30.4984 35.4875V34.3484H29.4953V35.5453C28.1547 35.8172 27.4234 36.6844 27.4234 37.7875C27.4234 38.9844 28.2547 39.6578 29.5875 40.1234C30.5484 40.4969 30.9422 40.7047 30.9422 41.2062C30.9422 41.7078 30.5344 42.0734 29.7031 42.0734C28.9281 42.0734 28.1984 41.8 27.7328 41.5719L27.3672 43.0406C27.7891 43.2766 28.6641 43.5062 29.5312 43.5062V44.6094H30.5344V43.4703C32.0031 43.1406 32.6984 42.2734 32.6984 41.1344C32.6984 39.9953 32.0594 39.3 30.6922 38.7984Z" fill="white"/>
</svg>
