<svg width="60" height="54" viewBox="0 0 60 54" fill="none" xmlns="http://www.w3.org/2000/svg">
<path d="M51.7548 2.7249C45.5198 -1.1601 37.3098 -0.242604 29.9898 4.3599C22.6898 -0.240104 14.4748 -1.1601 8.24981 2.7249C-1.60269 8.88239 -2.80019 24.7399 5.57481 38.1424C11.7498 48.0274 21.4073 53.8149 29.9998 53.7074C38.5973 53.8149 48.2523 48.0249 54.4273 38.1424C62.7948 24.7399 61.6073 8.88239 51.7548 2.7249ZM10.1048 35.3199C8.37726 32.5809 7.07417 29.5963 6.23981 26.4674C5.49747 23.7518 5.21357 20.9314 5.39981 18.1224C5.77481 13.1724 7.78981 9.3124 11.0748 7.2599C14.3623 5.2049 18.7048 5.0849 23.3323 6.9174C24.0348 7.19989 24.7223 7.5174 25.3948 7.87239C22.8232 10.213 20.5871 12.8976 18.7498 15.8499C13.6623 23.9874 12.1123 33.0449 13.8873 40.2624C12.4729 38.735 11.2056 37.0777 10.1023 35.3124L10.1048 35.3199ZM53.7673 26.4674C52.9309 29.5952 51.627 32.5789 49.8998 35.3174C48.7978 37.086 47.5313 38.7467 46.1173 40.2774C47.7048 33.8049 46.6248 25.8774 42.7348 18.4424C42.6736 18.3189 42.5868 18.2098 42.4804 18.1223C42.3739 18.0348 42.25 17.9709 42.117 17.9348C41.984 17.8986 41.8449 17.8911 41.7088 17.9126C41.5726 17.9342 41.4426 17.9844 41.3273 18.0599L29.1973 25.6399C28.9749 25.7795 28.8169 26.0015 28.7579 26.2573C28.6988 26.5132 28.7436 26.782 28.8823 27.0049L30.6623 29.8524C30.731 29.9634 30.8209 30.0596 30.927 30.1356C31.0331 30.2116 31.1532 30.2658 31.2804 30.2951C31.4075 30.3244 31.5392 30.3281 31.6679 30.3062C31.7965 30.2843 31.9195 30.2371 32.0298 30.1674L39.8923 25.2549C40.1448 26.0199 40.3998 26.7699 40.5923 27.5449C41.3323 30.2599 41.6173 33.0799 41.4298 35.8874C41.0548 40.8424 39.0398 44.6999 35.7548 46.7549C34.0592 47.7906 32.1165 48.3518 30.1298 48.3799H29.8773C27.8905 48.3524 25.9477 47.7911 24.2523 46.7549C20.9673 44.6999 18.9498 40.8424 18.5773 35.8874C18.3921 33.0794 18.6751 30.2601 19.4148 27.5449C21.1195 21.2637 24.6419 15.626 29.5398 11.3399C31.653 9.48448 34.06 7.99331 36.6623 6.92739C41.2748 5.09489 45.6273 5.21489 48.9123 7.26989C52.2023 9.32489 54.2173 13.1824 54.5898 18.1324C54.7786 20.9372 54.5023 23.754 53.7673 26.4674Z" fill="white"/>
</svg>
