<svg width="59" height="60" viewBox="0 0 59 60" fill="none" xmlns="http://www.w3.org/2000/svg">
<path d="M58.2938 24.5925C58.6436 26.6061 58.818 28.6463 58.815 30.69C58.815 39.8175 55.5525 47.535 49.875 52.7588H49.8825C44.9175 57.345 38.0925 60 30 60C22.0435 60 14.4129 56.8393 8.7868 51.2132C3.16071 45.5871 0 37.9565 0 30C0 22.0435 3.16071 14.4129 8.7868 8.78682C14.4129 3.16073 22.0435 2.645e-05 30 2.645e-05C37.4473 -0.0871924 44.6394 2.71065 50.07 7.80753L41.505 16.3725C38.4089 13.4212 34.2769 11.805 30 11.8725C22.1737 11.8725 15.525 17.1525 13.155 24.2625C11.8984 27.9882 11.8984 32.0231 13.155 35.7488H13.1662C15.5475 42.8475 22.185 48.1275 30.0113 48.1275C34.0537 48.1275 37.5263 47.0925 40.2188 45.2625H40.2075C41.7709 44.2268 43.1083 42.885 44.1388 41.3182C45.1694 39.7514 45.8718 37.992 46.2038 36.1463H30V24.5963L58.2938 24.5925Z" fill="white"/>
</svg>
