<svg width="60" height="60" viewBox="0 0 60 60" fill="none" xmlns="http://www.w3.org/2000/svg">
<g clip-path="url(#clip0_590_300)">
<path d="M50.4506 0H9.54856C4.28344 0 0 4.28372 0 9.54884V50.4512C0 55.7163 4.28344 59.9997 9.54856 59.9997H50.4506C55.716 59.9997 59.9997 55.7163 59.9997 50.4512V9.54884C60 4.28372 55.716 0 50.4506 0ZM37.5336 13.3072C37.5336 8.25662 41.6426 4.14794 46.6926 4.14794C51.7431 4.14794 55.8518 8.25662 55.8518 13.3072C55.8518 16.6313 50.7623 24.7378 46.6926 30.3422C42.6234 24.7378 37.5336 16.6313 37.5336 13.3072ZM4.14794 9.54884C4.14794 6.57089 6.57062 4.14794 9.54856 4.14794H37.053C34.7833 6.53578 33.3857 9.76039 33.3857 13.3072C33.3857 15.3687 34.4603 18.1832 35.9591 21.1078L28.5354 28.5315C28.5345 28.532 28.534 28.5326 28.5331 28.5334C28.5323 28.5343 28.5318 28.5348 28.5312 28.5356L4.55748 52.5094C4.29478 51.8745 4.14794 51.1798 4.14794 50.4514V9.54884ZM9.54856 55.8521C8.81991 55.8521 8.12554 55.7052 7.49063 55.4425L29.9999 32.9336L52.5088 55.4425C51.8739 55.7052 51.1793 55.8521 50.4506 55.8521H9.54856ZM55.8521 50.4512C55.8521 51.1798 55.7052 51.8742 55.4425 52.5091L32.9336 29.9999L38.0646 24.8691C41.0207 29.7872 44.4021 34.2324 45.0503 35.0739C45.4429 35.5835 46.0496 35.8822 46.6931 35.8822C47.3366 35.8822 47.9433 35.5835 48.336 35.0739C49.0232 34.1815 52.784 29.2375 55.8523 23.9737L55.8521 50.4512Z" fill="white"/>
<path d="M17.6884 27.1691C23.2215 27.1691 27.7229 22.6678 27.7229 17.1347C27.7229 15.9893 26.7946 15.0607 25.6489 15.0607H17.6884C16.5428 15.0607 15.6145 15.9893 15.6145 17.1347C15.6145 18.2801 16.5428 19.2087 17.6884 19.2087H23.1977C22.3574 21.4342 20.2046 23.0212 17.6884 23.0212C14.4428 23.0212 11.8022 20.3806 11.8022 17.1347C11.8022 13.8891 14.4428 11.2485 17.6884 11.2485C19.2602 11.2485 20.7386 11.8607 21.8508 12.9724C22.661 13.7821 23.974 13.7821 24.7839 12.9718C25.5936 12.1619 25.5933 10.8486 24.7834 10.039C22.888 8.14418 20.368 7.10083 17.6884 7.10083C12.1556 7.10083 7.6543 11.6022 7.6543 17.135C7.6543 22.6678 12.1556 27.1691 17.6884 27.1691Z" fill="white"/>
</g>
<defs>
<clipPath id="clip0_590_300">
<rect width="60" height="60" fill="white"/>
</clipPath>
</defs>
</svg>
