<svg width="60" height="60" viewBox="0 0 60 60" fill="none" xmlns="http://www.w3.org/2000/svg">
<circle cx="30" cy="30" r="30" fill="#268BBF"/>
<path d="M46.7992 33.2V49.2001H34.7992V46H24.3992V49.2001H13.1992V33.2H46.7992ZM39.5584 30.284C39.0992 28.2768 38.0632 26.512 36.4304 25.1632C34.8488 23.8488 32.9776 23.6 30.8072 22.8H30.7992V17.7376L31.2184 17.6248L32.136 17.2848C32.4888 17.1656 32.808 17.0656 33.1408 16.9952C33.4672 16.9176 33.6936 16.8848 33.8488 16.8848C34.1504 16.8848 34.532 16.9328 34.9784 17.0304C35.4328 17.1408 35.9168 17.26 36.4088 17.3952C36.9216 17.5504 37.3792 17.668 37.8232 17.768C38.2464 17.8648 38.6008 17.9048 38.8944 17.9048C39.3616 17.9056 39.5992 17.8408 40.3992 17.6984V11.9048C39.5992 12.0952 39.4576 12.2 38.8936 12.2C38.6 12.2 38.2368 12.1552 37.8128 12.048C37.3704 11.9632 36.9144 11.8312 36.4016 11.6824C35.9096 11.5328 35.4448 11.42 35.0152 11.3256C34.5808 11.2224 34.2984 11.1728 33.9912 11.1728C32.9728 11.1728 31.5992 11.4136 30.7992 11.8576V10.8H29.1992V22.8H29.1488C26.9952 23.6 25.1096 23.8944 23.5296 25.2088C21.928 26.5592 20.888 28.2096 20.396 30.2176C20.396 30.2176 18.8624 30 18.8624 31.6H41.2384C41.2384 30 39.5584 30.284 39.5584 30.284Z" fill="white"/>
</svg>
