<svg width="60" height="60" viewBox="0 0 60 60" fill="none" xmlns="http://www.w3.org/2000/svg">
<circle cx="30" cy="30" r="30" fill="#268BBF"/>
<path d="M23.2422 18.0938C23.2422 17.4844 23.7422 16.9844 24.3516 16.9844H35.6484C36.2578 16.9844 36.7578 17.4844 36.7578 18.0938V22.3438H39.7891V18.0938C39.7891 15.8125 37.9297 13.9531 35.6484 13.9531H24.3516C22.0703 13.9531 20.2109 15.8125 20.2109 18.0938V22.3438H23.2422V18.0938Z" fill="white"/>
<path d="M15.7656 32.1406C15.6953 32.1406 15.6172 32.1406 15.5469 32.1328V44.0937C15.5469 45.1719 16.5703 46.0469 17.8281 46.0469H42.1797C43.4375 46.0469 44.4609 45.1719 44.4609 44.0937V32.125C44.3906 32.1328 44.3203 32.1328 44.2422 32.1328H15.7656V32.1406ZM34.7891 41.1953H32.1094V43.875H27.8906V41.1953H25.2109V36.9766H27.8906V34.2969H32.1094V36.9766H34.7891V41.1953Z" fill="white"/>
<path d="M41.625 25.75H45.9766V25.1797C45.9766 24.2187 45.1953 23.4453 44.2422 23.4453H15.7656C14.8047 23.4453 14.0312 24.2266 14.0312 25.1797V29.3047C14.0312 30.2656 14.8125 31.0469 15.7656 31.0469H44.2422C45.2031 31.0469 45.9766 30.2656 45.9766 29.3047V26.8438H41.625C41.3203 26.8438 41.0781 26.6016 41.0781 26.2969C41.0781 25.9922 41.3203 25.75 41.625 25.75ZM40.3047 26.6797C40.2031 26.7812 40.0625 26.8359 39.9219 26.8359C39.7734 26.8359 39.6406 26.7734 39.5312 26.6797C39.4297 26.5781 39.375 26.4375 39.375 26.2891C39.375 26.1406 39.4375 26.0078 39.5312 25.8984C39.6328 25.7969 39.7734 25.7422 39.9219 25.7422C40.0703 25.7422 40.2031 25.7969 40.3047 25.8984C40.4062 26 40.4688 26.1406 40.4688 26.2891C40.4688 26.4375 40.4062 26.5781 40.3047 26.6797Z" fill="white"/>
</svg>
