<svg width="60" height="60" viewBox="0 0 60 60" fill="none" xmlns="http://www.w3.org/2000/svg">
<path d="M8.80852 6.41064L12.6654 49.6725L29.9735 54.4781L47.3285 49.6669L51.1891 6.41252H8.80664L8.80852 6.41064ZM24.7985 17.6138L24.0316 25.9406L42.1648 25.9425L42.0354 27.3675L40.7885 41.3363L40.7098 42.2325L29.8273 45.2494L18.9598 42.2325L18.2173 33.9019H23.5423L23.921 38.1338L29.8348 39.7275L35.7523 38.13L36.3673 31.2488L18.2341 31.2469L18.3635 29.8219L19.6104 15.8531L20.0023 11.9419H41.1654L41.411 14.9381L42.1666 23.2875H36.8398L36.3485 17.8088L30.9316 17.4825H29.966V17.475L24.8004 17.6138H24.7985Z" fill="white"/>
</svg>
