<svg width="60" height="60" viewBox="0 0 60 60" fill="none" xmlns="http://www.w3.org/2000/svg">
<path d="M41.4776 18.5231C40.4228 17.4686 38.9923 16.8762 37.5008 16.8762C36.0092 16.8762 34.5787 17.4686 33.5239 18.5231L32.652 19.3931L35.3033 22.0444L36.1751 21.1744C36.5288 20.8328 37.0024 20.6439 37.494 20.6481C37.9856 20.6524 38.4559 20.8496 38.8035 21.1972C39.1512 21.5449 39.3484 22.0151 39.3527 22.5068C39.3569 22.9984 39.1679 23.472 38.8264 23.8256L32.652 30L35.3033 32.6513L41.4776 26.4769C42.5322 25.4221 43.1246 23.9916 43.1246 22.5C43.1246 21.0085 42.5322 19.578 41.4776 18.5231ZM23.8264 38.8256C23.4728 39.1672 22.9991 39.3562 22.5075 39.3519C22.0159 39.3476 21.5456 39.1504 21.198 38.8028C20.8503 38.4552 20.6531 37.9849 20.6489 37.4933C20.6446 37.0017 20.8336 36.528 21.1751 36.1744L27.3495 30L24.6983 27.3488L18.5239 33.5231C17.9866 34.042 17.5581 34.6627 17.2633 35.349C16.9685 36.0353 16.8133 36.7734 16.8069 37.5203C16.8004 38.2671 16.9427 39.0078 17.2255 39.6991C17.5083 40.3904 17.926 41.0185 18.4542 41.5466C18.9823 42.0748 19.6104 42.4924 20.3016 42.7753C20.9929 43.0581 21.7336 43.2004 22.4805 43.1939C23.2274 43.1874 23.9655 43.0323 24.6518 42.7375C25.3381 42.4427 25.9587 42.0141 26.4776 41.4769L27.3495 40.6069L24.6983 37.9556L23.8264 38.8256ZM26.4776 18.525C25.4124 17.5252 24.0001 16.979 22.5393 17.0021C21.0786 17.0251 19.6842 17.6155 18.651 18.6484C17.6179 19.6813 17.0271 21.0756 17.0037 22.5364C16.9804 23.9971 17.5262 25.4096 18.5258 26.475L19.3958 27.3469L22.047 24.6956L21.177 23.8238C20.8355 23.4701 20.6465 22.9965 20.6507 22.5049C20.655 22.0133 20.8522 21.543 21.1999 21.1954C21.5475 20.8477 22.0178 20.6505 22.5094 20.6463C23.001 20.642 23.4746 20.831 23.8283 21.1725L30.0008 27.3488L32.652 24.6975L26.4776 18.525Z" fill="#268BBF"/>
<path d="M41.4777 33.5232L40.6077 32.6514L37.9565 35.3026L38.8265 36.1745C39.168 36.5281 39.357 37.0018 39.3527 37.4934C39.3485 37.985 39.1513 38.4553 38.8036 38.8029C38.456 39.1505 37.9857 39.3477 37.4941 39.352C37.0025 39.3563 36.5289 39.1673 36.1752 38.8257L30.0009 32.6514L27.3496 35.3026L33.524 41.477C34.5849 42.5016 36.0058 43.0686 37.4806 43.0558C38.9555 43.043 40.3663 42.4514 41.4092 41.4085C42.4521 40.3656 43.0437 38.9547 43.0565 37.4799C43.0693 36.005 42.5024 34.5841 41.4777 33.5232Z" fill="#268BBF"/>
<path d="M30 58.1251C29.668 58.1252 29.3419 58.0372 29.055 57.8701L6.555 44.7451C6.27192 44.5799 6.03708 44.3434 5.8739 44.0591C5.71072 43.7749 5.6249 43.4528 5.625 43.1251V16.8751C5.6249 16.5473 5.71072 16.2253 5.8739 15.941C6.03708 15.6568 6.27192 15.4203 6.555 15.2551L29.055 2.13007C29.3418 1.9627 29.6679 1.87451 30 1.87451C30.3321 1.87451 30.6582 1.9627 30.945 2.13007L53.445 15.2551L51.555 18.4951L30 5.92132L9.375 17.9513V42.0488L30 54.0807L50.625 42.0488V28.1251H54.375V43.1251C54.3751 43.4528 54.2893 43.7749 54.1261 44.0591C53.9629 44.3434 53.7281 44.5799 53.445 44.7451L30.945 57.8701C30.6581 58.0372 30.332 58.1252 30 58.1251Z" fill="#268BBF"/>
</svg>
