<svg width="60" height="60" viewBox="0 0 60 60" fill="none" xmlns="http://www.w3.org/2000/svg">
<path d="M30.4944 30.0113C30.4944 33.4961 29.213 36.2617 26.7395 36.2617C24.2892 36.2617 22.9625 33.4737 22.9625 30.0788C22.9625 26.9087 24.1542 23.8956 26.7622 23.8956C29.3029 23.8955 30.4944 26.8409 30.4944 30.0113ZM59.9414 10.0391V49.961C59.9414 55.4503 55.4502 59.9415 49.9609 59.9415H10.0391C4.5498 59.9414 0.0585938 55.4502 0.0585938 49.9609V10.0391C0.0585938 4.5498 4.5498 0.0585938 10.0391 0.0585938H49.961C55.4502 0.0585938 59.9414 4.5498 59.9414 10.0391ZM17.1616 26.2118H13.834V38.7348H17.1616V26.2118ZM17.2739 22.7939C17.2739 21.7595 16.5546 21.0176 15.4754 21.0176C14.441 21.0176 13.6989 21.7595 13.6989 22.7939C13.6989 23.8056 14.4184 24.5702 15.4754 24.5702C16.5095 24.5702 17.2739 23.8733 17.2739 22.7939ZM33.9796 29.8765C33.9796 25.2671 31.6413 21.1753 26.8519 21.1753C22.3331 21.1753 19.4776 24.975 19.4776 30.1464C19.4776 35.1599 22.0629 38.9825 26.6272 38.9825C30.922 38.9824 33.9796 35.902 33.9796 29.8765ZM46.3011 33.7437C46.3011 31.4727 45.0643 29.8765 42.2993 28.6398C40.1857 27.673 39.3309 27.1109 39.3309 25.8742C39.3309 24.9074 40.1181 23.9631 41.8719 23.9631C43.2881 23.9631 44.345 24.3902 44.9523 24.705L45.6492 21.9843C44.8392 21.5795 43.5805 21.1975 41.9392 21.1975C38.2066 21.1975 35.9811 23.3782 35.9811 26.2116C35.9811 28.4596 37.6 30.0785 40.2076 31.2026C42.1189 32.035 42.9512 32.7766 42.9512 34.0134C42.9512 35.2946 41.9844 36.1713 40.1404 36.1713C38.7466 36.1713 37.3076 35.7443 36.4084 35.2049L35.7564 37.9929C36.5653 38.4871 38.2969 38.9598 40.0055 38.9598C44.0302 38.96 46.3011 36.7563 46.3011 33.7437Z" fill="white"/>
</svg>
