<svg width="60" height="60" viewBox="0 0 60 60" fill="none" xmlns="http://www.w3.org/2000/svg">
<circle cx="30" cy="30" r="30" fill="#268BBF"/>
<g clip-path="url(#clip0_590_1132)">
<path d="M49.2074 30.8933L43.632 25.3406C42.5263 24.2341 40.7344 24.2306 39.6227 25.3302L35.6988 29.2122L31.8159 25.3415C30.7102 24.235 28.9209 24.2088 27.8083 25.3084L21.4002 31.6267H20.3869L19.3057 12.0709C19.2647 11.5948 18.8662 11.26 18.3875 11.26H14.8307C14.3529 11.26 13.9544 11.5948 13.9125 12.0709L12.8313 31.6267H12.6944C11.2347 31.6267 10 32.8719 10 34.3298V46.0997C10 47.5576 11.2347 48.7391 12.6944 48.7391H47.3353C48.7932 48.7391 50.0009 47.5576 50.0009 46.0997V32.7742C49.9991 32.0688 49.7061 31.3912 49.2074 30.8933ZM28.4771 44.3261C28.4771 44.681 28.2173 44.9609 27.8624 44.9609H26.1716C25.8158 44.9609 25.5368 44.6819 25.5368 44.3261V36.1513C25.5368 35.7964 25.815 35.5122 26.1716 35.5122H27.8624C28.2173 35.5122 28.4771 35.7964 28.4771 36.1513V44.3261ZM34.3577 44.3261C34.3577 44.681 34.1057 44.9609 33.7517 44.9609H32.06C31.7069 44.9609 31.4191 44.6819 31.4191 44.3261V36.1513C31.4191 35.7964 31.7069 35.5122 32.06 35.5122H33.7517C34.1057 35.5122 34.3577 35.7964 34.3577 36.1513V44.3261ZM40.3412 44.3261C40.3412 44.681 40.029 44.9609 39.6724 44.9609H37.9825C37.6276 44.9609 37.2971 44.6819 37.2971 44.3261V36.1513C37.2971 35.7964 37.6276 35.5122 37.9825 35.5122H39.6724C40.0281 35.5122 40.3412 35.7964 40.3412 36.1513V44.3261ZM46.22 44.3261C46.22 44.681 45.9157 44.9609 45.5599 44.9609H43.8692C43.5151 44.9609 43.1751 44.6819 43.1751 44.3261V36.1513C43.1751 35.7964 43.5151 35.5122 43.8692 35.5122H45.5599C45.9157 35.5122 46.22 35.7964 46.22 36.1513V44.3261Z" fill="white"/>
</g>
<defs>
<clipPath id="clip0_590_1132">
<rect width="40" height="40" fill="white" transform="translate(10 10)"/>
</clipPath>
</defs>
</svg>
