<svg width="60" height="60" viewBox="0 0 60 60" fill="none" xmlns="http://www.w3.org/2000/svg">
<g clip-path="url(#clip0_590_1201)">
<path d="M50.625 13.125H43.125V20.625H50.625V13.125Z" fill="white"/>
<path d="M50.625 24.375H43.125V31.875H50.625V24.375Z" fill="white"/>
<path d="M39.375 13.125H31.875V20.625H39.375V13.125Z" fill="white"/>
<path d="M39.375 24.375H31.875V31.875H39.375V24.375Z" fill="white"/>
<path d="M27.1875 48.75C28.7408 48.75 30 47.4908 30 45.9375C30 44.3842 28.7408 43.125 27.1875 43.125C25.6342 43.125 24.375 44.3842 24.375 45.9375C24.375 47.4908 25.6342 48.75 27.1875 48.75Z" fill="white"/>
<path d="M39.375 56.25H15C14.0058 56.2489 13.0526 55.8534 12.3496 55.1504C11.6466 54.4474 11.2511 53.4942 11.25 52.5V7.5C11.2511 6.50579 11.6466 5.55262 12.3496 4.84961C13.0526 4.1466 14.0058 3.75114 15 3.75H39.375V7.5H15V52.5H39.375V37.5H43.125V52.5C43.1239 53.4942 42.7284 54.4474 42.0254 55.1504C41.3224 55.8534 40.3692 56.2489 39.375 56.25Z" fill="white"/>
</g>
<defs>
<clipPath id="clip0_590_1201">
<rect width="60" height="60" fill="white"/>
</clipPath>
</defs>
</svg>
