<svg width="60" height="60" viewBox="0 0 60 60" fill="none" xmlns="http://www.w3.org/2000/svg">
<g clip-path="url(#clip0_590_340)">
<path d="M52.875 14.7499L32.125 2.99991C31.4601 2.68773 30.7346 2.52588 30 2.52588C29.2654 2.52588 28.5399 2.68773 27.875 2.99991L7.125 14.7499C6.48701 15.1182 5.9557 15.6459 5.58317 16.2814C5.21063 16.9169 5.00968 17.6383 5 18.3749V41.6249C5.00968 42.3615 5.21063 43.0829 5.58317 43.7184C5.9557 44.3539 6.48701 44.8816 7.125 45.2499L12.625 48.3749C14.0618 49.2239 15.7064 49.6567 17.375 49.6249C21.25 49.6249 23.5 47.2499 23.5 43.2499V20.3749C23.5 20.2092 23.4342 20.0502 23.3169 19.933C23.1997 19.8158 23.0408 19.7499 22.875 19.7499H20.25C20.0842 19.7499 19.9253 19.8158 19.8081 19.933C19.6908 20.0502 19.625 20.2092 19.625 20.3749V43.2499C19.625 45.1249 17.75 46.8749 14.75 45.3749L9 42.1249C8.92238 42.0667 8.85938 41.9912 8.81598 41.9044C8.77259 41.8176 8.75 41.7219 8.75 41.6249V18.3749C8.7586 18.1439 8.84694 17.9231 9 17.7499L29.625 6.12491H30.375L51 17.7499C51.1531 17.9231 51.2414 18.1439 51.25 18.3749V41.6249C51.25 41.7219 51.2274 41.8176 51.184 41.9044C51.1406 41.9912 51.0776 42.0667 51 42.1249L30.375 53.7499C30.261 53.8157 30.1317 53.8504 30 53.8504C29.8683 53.8504 29.739 53.8157 29.625 53.7499L24.375 50.7499C24.3062 50.6884 24.2172 50.6544 24.125 50.6544C24.0328 50.6544 23.9438 50.6884 23.875 50.7499L20.75 52.1249C20.375 52.2499 19.875 52.3749 20.875 52.9999L27.875 56.8749C28.5064 57.289 29.245 57.5095 30 57.5095C30.755 57.5095 31.4936 57.289 32.125 56.8749L52.875 45.2499C53.513 44.8816 54.0443 44.3539 54.4168 43.7184C54.7894 43.0829 54.9903 42.3615 55 41.6249V18.3749C54.9903 17.6383 54.7894 16.9169 54.4168 16.2814C54.0443 15.6459 53.513 15.1182 52.875 14.7499Z" fill="white"/>
<path d="M36.375 37.875C30.875 37.875 29.75 36.625 29.25 34C29.25 33.8674 29.1973 33.7402 29.1036 33.6464C29.0098 33.5527 28.8826 33.5 28.75 33.5H26C25.8674 33.5 25.7402 33.5527 25.6464 33.6464C25.5527 33.7402 25.5 33.8674 25.5 34C25.5 37.375 27.375 41.5 36.375 41.5C42.875 41.5 46.625 39 46.625 34.625C46.625 30.25 43.625 29 37.25 28.25C30.875 27.5 30.25 27 30.25 25.5C30.25 24 30.75 22.75 35.5 22.75C40.25 22.75 41.375 23.625 42 26.375C42.0292 26.5183 42.1078 26.6468 42.222 26.7382C42.3362 26.8295 42.4788 26.8779 42.625 26.875H45.25L45.75 26.625C45.7952 26.5743 45.8296 26.5149 45.8511 26.4504C45.8726 26.3859 45.8807 26.3177 45.875 26.25C45.5 21.375 42.125 19.125 35.5 19.125C28.875 19.125 26.125 21.625 26.125 25.625C26.125 29.625 29.625 31.25 35.25 31.875C40.875 32.5 42.625 33.375 42.625 34.75C42.625 36.125 40.75 37.875 36.375 37.875Z" fill="white"/>
</g>
<defs>
<clipPath id="clip0_590_340">
<rect width="60" height="60" fill="white"/>
</clipPath>
</defs>
</svg>
