<svg width="60" height="60" viewBox="0 0 60 60" fill="none" xmlns="http://www.w3.org/2000/svg">
<path d="M23.2251 57.1086C22.8051 56.9267 22.4601 56.7486 22.1263 56.5498L22.1713 56.5742C20.3395 55.5748 18.7682 54.3786 17.3995 52.9836L17.3957 52.9798C14.9526 50.3679 13.1263 47.1486 12.1663 43.5767L12.1307 43.4211C11.5213 41.2329 11.107 38.6904 10.9738 36.0729L10.9701 35.9886C10.9326 35.4467 10.912 34.8129 10.912 34.1754C10.912 33.0954 10.972 32.0304 11.0901 30.9823L11.0788 31.1117C11.3845 27.9898 12.3238 25.1417 13.7676 22.6198L13.7132 22.7229C14.8045 20.8217 16.2013 19.2242 17.8551 17.9398L17.8907 17.9117C18.9895 17.0623 20.2551 16.3498 21.6163 15.8361L21.7176 15.8023C22.9907 15.3261 24.4607 15.0523 25.9945 15.0523C27.4157 15.0523 28.7826 15.2886 30.0576 15.7236L29.9695 15.6973C30.037 15.6973 30.037 15.6973 30.0745 15.7667C30.1101 15.8023 30.1795 15.8023 30.2151 15.8361C30.3201 15.8736 30.4588 15.9411 30.6013 16.0086C31.2482 16.3461 31.7882 16.6723 32.3057 17.0286L32.2495 16.9929C34.3607 18.4836 36.0332 20.4598 37.1245 22.7661L37.162 22.8561C38.0826 24.8811 38.6263 27.2454 38.6413 29.7354V29.7411C38.6451 29.8629 38.647 30.0054 38.647 30.1498C38.647 32.6736 38.0882 35.0679 37.087 37.2148L37.1301 37.1117C35.7688 39.9336 33.6426 42.2042 31.0232 43.7079L30.9501 43.7473C31.1601 43.8186 31.372 43.8523 31.5857 43.9236C32.0676 44.0286 32.6245 44.0923 33.1945 44.0961H33.1982C36.8038 44.0604 40.0607 42.5942 42.4307 40.2373C42.8845 39.8173 43.2988 39.3692 43.6776 38.8911L43.6963 38.8667C44.1857 38.2948 44.6601 37.6667 45.0913 37.0086L45.1345 36.9392C45.6295 36.1742 46.1095 35.2873 46.522 34.3629L46.5726 34.2355C47.0657 33.1198 47.4782 31.8148 47.7445 30.4573L47.7651 30.3373C48.0407 28.8617 48.2001 27.1648 48.2001 25.4304C48.2001 24.6617 48.1682 23.9004 48.1082 23.1486L48.1138 23.2479C47.9001 18.2323 46.3195 13.6236 43.7376 9.73857L43.7976 9.83607C43.3532 9.19857 42.9257 8.6492 42.4738 8.12232L42.4982 8.15045C41.7257 7.27857 40.912 6.48545 40.0438 5.75607L40.0082 5.72795C39.0726 4.95357 38.0282 4.24295 36.9182 3.63545L36.8151 3.58295C35.6995 3.0542 34.3813 2.57607 33.0126 2.21795L32.8513 2.18232L32.1482 2.0417C31.6588 1.97232 31.1638 1.93857 30.6632 1.90107C30.4007 1.88795 30.0951 1.88232 29.7857 1.88232C29.257 1.88232 28.7338 1.90295 28.2163 1.9442L28.2857 1.94045C26.467 2.0642 24.7776 2.34545 23.1463 2.77295L23.3357 2.72982C15.2526 4.89357 8.7032 10.2617 5.0057 17.3529L4.9307 17.5123C3.0557 21.1554 1.95508 25.4623 1.95508 30.0279C1.95508 31.3217 2.0432 32.5929 2.21383 33.8398L2.19695 33.6954C2.49883 36.2811 3.14195 38.6379 4.0832 40.8373L4.01945 40.6704C4.6307 42.1723 5.27945 43.4417 6.02008 44.6492L5.95258 44.5311C8.58883 48.7048 12.1551 52.0686 16.372 54.3917L16.5182 54.4667C17.9526 55.2823 19.6232 56.0304 21.367 56.6192L21.5732 56.6792C22.102 56.8517 22.627 57.0298 23.1876 57.1704L23.2251 57.1086ZM30.1007 58.0423C31.2801 58.0404 32.4407 57.9598 33.577 57.8079L33.442 57.8229C36.1851 57.4592 38.6713 56.7504 40.9907 55.7304L40.8126 55.7998C44.257 54.2998 47.2007 52.2954 49.7038 49.8392L49.7001 49.8429C52.0101 47.5779 53.9263 44.9211 55.3438 41.9811L55.417 41.8123C56.5588 39.4461 57.3988 36.6992 57.7907 33.8117L57.8076 33.6692C57.9595 32.5498 58.0457 31.2561 58.0457 29.9417C58.0457 28.3629 57.9201 26.8142 57.6801 25.3048L57.7026 25.4717C57.3107 23.0211 56.6638 20.8254 55.7751 18.7573L55.8445 18.9392C55.2107 17.4711 54.5432 16.2261 53.782 15.0467L53.8438 15.1498C51.0351 10.8542 47.227 7.42857 42.7363 5.15045L42.5732 5.07545C41.1388 4.3217 39.4513 3.62982 37.6963 3.09357L37.4826 3.03732H37.4713C37.7507 3.18545 38.0338 3.3467 38.2795 3.50795C38.5607 3.68045 38.8401 3.8492 39.1026 4.03482C40.477 4.96482 41.6751 5.99232 42.7438 7.13795L42.7551 7.15107C45.1345 9.75732 46.9307 12.9373 47.9132 16.4567L47.9526 16.6179C48.562 18.6992 48.9763 21.1161 49.1095 23.6061L49.1132 23.6867C49.1582 24.2867 49.1826 24.9879 49.1826 25.6929C49.1826 26.8254 49.117 27.9448 48.9895 29.0436L49.0026 28.9104C48.6445 32.0661 47.6207 34.9236 46.0738 37.4248L46.1245 37.3367C44.932 39.2623 43.447 40.8823 41.7107 42.1873L41.6657 42.2192C39.487 43.9817 36.682 45.0467 33.6276 45.0467C32.7951 45.0467 31.9795 44.9679 31.192 44.8161L31.2726 44.8292C30.6013 44.6698 30.0182 44.4617 29.4632 44.2011L29.5195 44.2254C28.8201 43.9029 28.222 43.5523 27.6613 43.1492L27.6932 43.1717C26.5832 42.4236 25.6251 41.5686 24.7945 40.6011L24.7795 40.5823C23.7913 39.4104 22.9626 38.0586 22.3588 36.5904L22.3213 36.4892C21.6201 34.7267 21.1982 32.6867 21.1645 30.5529V30.5379C21.157 30.3429 21.1513 30.1123 21.1513 29.8817C21.1513 26.9698 21.8976 24.2342 23.2082 21.8529L23.1651 21.9392C24.1832 20.1636 25.4863 18.6711 27.0276 17.4711L27.0613 17.4448C27.5395 17.0717 28.0776 16.7004 28.6382 16.3629L28.7113 16.3217L28.7488 16.3048C27.9445 16.1136 27.022 16.0029 26.0751 16.0029C25.8276 16.0029 25.5838 16.0104 25.3401 16.0254L25.3738 16.0236C24.322 16.0948 23.3413 16.2954 22.4151 16.6104L22.4976 16.5861C21.5788 16.8917 20.7895 17.2479 20.0451 17.6754L20.1107 17.6417C19.4545 18.0204 18.8938 18.4029 18.3632 18.8229L18.3932 18.8004C17.8982 19.2223 17.4088 19.6442 16.9513 20.1017C14.4726 22.7661 12.7701 26.1842 12.2245 29.9754L12.2132 30.0748C12.0182 31.4136 11.9076 32.9586 11.9076 34.5298C11.9076 35.3942 11.9413 36.2511 12.007 37.0986L11.9995 36.9861C12.2207 40.4698 13.0138 43.7098 14.287 46.6967L14.2138 46.5036C15.0595 48.4536 16.1188 50.1336 17.3957 51.6223L17.3732 51.5961C19.3382 53.8573 21.7963 55.6367 24.5845 56.7748L24.712 56.8217C26.1538 57.4292 27.8282 57.8754 29.5757 58.0779L29.662 58.0854C29.7876 58.1079 29.9338 58.1211 30.082 58.1211C30.1063 58.1211 30.1307 58.1211 30.1551 58.1192H30.1513L30.1007 58.0423Z" fill="white"/>
</svg>
