<svg width="60" height="8" viewBox="0 0 60 8" fill="none" xmlns="http://www.w3.org/2000/svg">
<path d="M25.9019 5.10744H29.882L27.802 1.72244L23.9395 7.83994H22.1569L26.8519 0.474942C26.9744 0.354942 27.1119 0.247441 27.2569 0.154941L27.2669 0.149941C27.4144 0.0574414 27.5944 0.00244141 27.7869 0.00244141H27.802C27.9795 0.00494141 28.1444 0.0599425 28.2819 0.152442L28.2794 0.149941C28.437 0.247441 28.5719 0.354942 28.6944 0.474942L33.3895 7.83994H31.6069L30.7745 6.47494H26.7945L25.9019 5.10744ZM44.0794 6.47494V0.119941H42.5945V7.06994V7.09244C42.5945 7.19244 42.617 7.28744 42.6569 7.37244L42.6544 7.36744C42.702 7.45994 42.7619 7.53744 42.8319 7.60494C42.8745 7.68744 42.9445 7.74994 43.0294 7.78244C43.1245 7.81994 43.2345 7.84244 43.3494 7.84244H43.357H50.1294L50.9619 6.47744L44.0794 6.47494ZM19.5445 5.28494H19.582C20.2845 5.28494 20.922 5.00244 21.387 4.54244C21.8619 4.09994 22.1595 3.46994 22.1595 2.76994C22.1595 2.75494 22.1595 2.74244 22.1595 2.72744C22.1595 2.70744 22.1595 2.68494 22.1595 2.65994C22.1595 1.95244 21.8619 1.31244 21.387 0.859942C20.9245 0.399942 20.287 0.11744 19.582 0.11744C19.5695 0.11744 19.5545 0.11744 19.542 0.11744H13.007V7.83994H14.4995V1.48494H19.4295H19.467C19.802 1.48494 20.102 1.62244 20.3195 1.84244C20.5395 2.05994 20.677 2.36244 20.677 2.69494V2.73494V2.73244C20.6744 3.06744 20.5394 3.37244 20.3219 3.59494C20.1094 3.83244 19.7995 3.98244 19.457 3.98244C19.447 3.98244 19.437 3.98244 19.4295 3.98244H15.207L19.662 7.84494H21.7994L18.827 5.28994L19.5445 5.28494ZM3.85945 7.83994C3.85445 7.83994 3.84695 7.83994 3.83945 7.83994C2.78945 7.83994 1.83945 7.40744 1.15945 6.71244C0.444453 6.03994 0.00195312 5.08994 0.00195312 4.03494C0.00195312 4.01494 0.00195312 3.99494 0.00195312 3.97494V3.97744C0.00195312 3.96244 0.00195312 3.94244 0.00195312 3.92244C0.00195312 2.86744 0.446953 1.91744 1.15945 1.24744L1.16195 1.24494C1.84445 0.547441 2.79445 0.11744 3.84445 0.11744H3.86445H8.37945H8.44195C9.48945 0.11744 10.4345 0.549941 11.112 1.24494C11.8095 1.92244 12.2395 2.86744 12.2395 3.91494V3.97994V4.03494C12.2395 5.08494 11.8045 6.03244 11.107 6.70994C10.4295 7.40744 9.48445 7.83744 8.43695 7.83744C8.41445 7.83744 8.39195 7.83744 8.37195 7.83744L3.85945 7.83994ZM8.25945 6.47494H8.31945C8.99695 6.47494 9.60945 6.18994 10.0395 5.73244C10.4795 5.28994 10.752 4.67994 10.752 4.00744C10.752 3.99744 10.752 3.98744 10.752 3.97994V3.98244C10.752 3.96244 10.752 3.93744 10.752 3.91494C10.752 3.24494 10.4795 2.63744 10.0395 2.19994C9.60195 1.75994 8.99445 1.48744 8.32445 1.48744C8.30195 1.48744 8.27695 1.48744 8.25445 1.48744H3.97695C3.96945 1.48744 3.95945 1.48744 3.94945 1.48744C3.27695 1.48744 2.66695 1.75994 2.22445 2.19994C1.76695 2.63244 1.48195 3.24494 1.48195 3.92244V3.98494V3.98244V3.99994C1.48195 4.68244 1.76695 5.29744 2.22195 5.73494C2.65945 6.19244 3.27445 6.47744 3.95695 6.47744H3.97445L8.25945 6.47494ZM36.4769 7.83994C36.4594 7.83994 36.4369 7.83994 36.4144 7.83994C35.3669 7.83994 34.4219 7.40744 33.7444 6.71244C33.0469 6.03494 32.6169 5.08994 32.6169 4.04244C32.6169 4.01994 32.6169 3.99744 32.6169 3.97744C32.6169 3.95994 32.6169 3.93994 32.6169 3.91744C32.6169 2.86994 33.0494 1.92494 33.7444 1.24744C34.4219 0.549942 35.3669 0.119941 36.4144 0.119941H36.4795H36.4769H41.8219L40.9295 1.48494H36.5294C36.5219 1.48494 36.5119 1.48494 36.5019 1.48494C35.8294 1.48494 35.2194 1.75744 34.777 2.19744C34.3195 2.62994 34.0345 3.24244 34.0345 3.91994V3.98244V3.97994V3.99744C34.0345 4.67994 34.3194 5.29494 34.7744 5.73244C35.2119 6.18994 35.827 6.47494 36.5094 6.47494H36.5269H41.9269L41.0345 7.83994H36.4769ZM54.5944 6.47494C54.5894 6.47494 54.5819 6.47494 54.5744 6.47494C54.0145 6.47494 53.5019 6.27244 53.1045 5.93744L53.1069 5.93994C52.6919 5.60744 52.382 5.16494 52.2195 4.65244L52.2144 4.63244H58.5694L59.4019 3.26744H52.2144C52.3769 2.74744 52.6844 2.31494 53.0919 2.00244L53.097 1.99744C53.4944 1.68244 54.0044 1.49244 54.5569 1.49244H54.5844H58.9819L59.8745 0.127442H54.5294C54.512 0.127442 54.4895 0.127442 54.4669 0.127442C53.4195 0.127442 52.4744 0.559942 51.7969 1.25494C51.0994 1.93244 50.6694 2.87744 50.6694 3.92494V3.98994V3.98744V4.04994C50.6694 5.09744 51.1019 6.04244 51.7969 6.71994C52.4744 7.41744 53.4195 7.84744 54.4669 7.84744H54.5319H59.097L59.9894 6.48244L54.5944 6.47494Z" fill="white"/>
</svg>
