<svg width="46" height="46" viewBox="0 0 46 46" fill="none" xmlns="http://www.w3.org/2000/svg">
<g clip-path="url(#clip0_590_661)">
<path d="M34.5 40.25H16.2917L14.7584 40.0583C15.1502 39.2188 15.3468 38.3014 15.3334 37.375C15.3334 35.5959 14.6266 33.8896 13.3685 32.6315C12.1105 31.3734 10.4042 30.6667 8.62502 30.6667V29.9C8.63931 27.984 9.36173 26.141 10.6533 24.7256C11.9448 23.3102 13.7141 22.4225 15.6209 22.2333L31.7209 21.0833C31.9727 21.0711 32.2196 21.0092 32.4474 20.9014C32.6753 20.7936 32.8797 20.6418 33.0488 20.4549C33.218 20.2679 33.3485 20.0495 33.4331 19.812C33.5177 19.5745 33.5546 19.3226 33.5417 19.0708C33.5175 18.7324 33.4082 18.4056 33.2239 18.1208C33.0396 17.836 32.7863 17.6024 32.4875 17.4417L33.0625 15.9083C33.1539 15.6695 33.1966 15.4148 33.188 15.1592C33.1795 14.9036 33.1199 14.6523 33.0127 14.4201C32.9055 14.1879 32.753 13.9795 32.564 13.8072C32.3751 13.6349 32.1536 13.5021 31.9125 13.4167C31.6803 13.3265 31.4321 13.2849 31.1832 13.2945C30.9343 13.3041 30.69 13.3647 30.4654 13.4725C30.2408 13.5803 30.0408 13.733 29.8776 13.9212C29.7144 14.1094 29.5916 14.3291 29.5167 14.5667L28.3667 17.4417L26.2584 17.6333L29.7084 8.52918C29.7998 8.29034 29.8424 8.03562 29.8339 7.78003C29.8253 7.52444 29.7657 7.27315 29.6585 7.04095C29.5514 6.80876 29.3988 6.60035 29.2099 6.42802C29.0209 6.25569 28.7994 6.12291 28.5584 6.03751C28.3195 5.94611 28.0648 5.90343 27.8092 5.91199C27.5536 5.92054 27.3023 5.98016 27.0701 6.08732C26.8379 6.19449 26.6295 6.34704 26.4572 6.53599C26.2849 6.72494 26.1521 6.94646 26.0667 7.18751L22.0417 17.9208L20.0292 18.1125L24.9167 4.69585C25.1063 4.22555 25.1019 3.69928 24.9043 3.23227C24.7067 2.76526 24.3321 2.39557 23.8625 2.20418C23.3788 2.04504 22.8527 2.07522 22.3903 2.28863C21.9279 2.50204 21.5636 2.88281 21.3709 3.35418L16.0042 17.7292C15.9256 17.9436 15.8929 18.1722 15.9084 18.4H15.3334C13.6012 18.5664 11.928 19.1173 10.4359 20.0126C8.94377 20.9079 7.67028 22.1249 6.70835 23.575L10.5417 10.2542C10.6109 10.0088 10.6311 9.75213 10.6011 9.49892C10.5712 9.2457 10.4916 9.00087 10.367 8.77839C10.2425 8.55592 10.0753 8.36016 9.87504 8.2023C9.6748 8.04444 9.44543 7.92756 9.20002 7.85835C8.95461 7.78913 8.69798 7.76892 8.44476 7.79889C8.19154 7.82885 7.94671 7.9084 7.72424 8.03298C7.50176 8.15757 7.30601 8.32476 7.14814 8.52499C6.99028 8.72523 6.8734 8.9546 6.80419 9.20001L3.06669 22.425L2.30002 24.9167C1.55179 27.7486 1.8938 30.7582 3.25835 33.35C2.37467 34.5045 1.90241 35.9212 1.91669 37.375C1.91669 39.1542 2.62346 40.8605 3.88151 42.1185C5.13957 43.3766 6.84586 44.0833 8.62502 44.0833C9.77037 44.1058 10.8991 43.807 11.8834 43.2208C13.2832 43.7906 14.7803 44.0835 16.2917 44.0833H34.5C35.0084 44.0833 35.4959 43.8814 35.8553 43.522C36.2148 43.1625 36.4167 42.675 36.4167 42.1667C36.4167 41.6583 36.2148 41.1708 35.8553 40.8114C35.4959 40.4519 35.0084 40.25 34.5 40.25Z" fill="#268BBF"/>
<path d="M40.2493 34.5H26.8327C26.3244 34.5 25.8368 34.7019 25.4774 35.0614C25.1179 35.4208 24.916 35.9083 24.916 36.4167C24.916 36.925 25.1179 37.4125 25.4774 37.772C25.8368 38.1314 26.3244 38.3333 26.8327 38.3333H40.2493C40.7577 38.3333 41.2452 38.1314 41.6046 37.772C41.9641 37.4125 42.166 36.925 42.166 36.4167C42.166 35.9083 41.9641 35.4208 41.6046 35.0614C41.2452 34.7019 40.7577 34.5 40.2493 34.5Z" fill="#268BBF"/>
<path d="M42.166 28.75H26.8327C26.3244 28.75 25.8368 28.9519 25.4774 29.3114C25.1179 29.6708 24.916 30.1583 24.916 30.6667C24.916 31.175 25.1179 31.6625 25.4774 32.022C25.8368 32.3814 26.3244 32.5833 26.8327 32.5833H42.166C42.6743 32.5833 43.1619 32.3814 43.5213 32.022C43.8807 31.6625 44.0827 31.175 44.0827 30.6667C44.0827 30.1583 43.8807 29.6708 43.5213 29.3114C43.1619 28.9519 42.6743 28.75 42.166 28.75Z" fill="#268BBF"/>
<path d="M26.8327 23C26.3244 23 25.8368 23.2019 25.4774 23.5614C25.1179 23.9208 24.916 24.4083 24.916 24.9167C24.916 25.425 25.1179 25.9125 25.4774 26.272C25.8368 26.6314 26.3244 26.8333 26.8327 26.8333H40.2493C40.7577 26.8333 41.2452 26.6314 41.6046 26.272C41.9641 25.9125 42.166 25.425 42.166 24.9167C42.166 24.4083 41.9641 23.9208 41.6046 23.5614C41.2452 23.2019 40.7577 23 40.2493 23H26.8327Z" fill="#268BBF"/>
<path d="M11.7883 18.2084H12.4592C12.841 18.2078 13.213 18.0872 13.5226 17.8636C13.8321 17.6401 14.0636 17.3248 14.1842 16.9625L18.88 4.5042C18.9714 4.26536 19.0141 4.01064 19.0055 3.75505C18.997 3.49946 18.9373 3.24817 18.8302 3.01597C18.723 2.78378 18.5705 2.57538 18.3815 2.40304C18.1926 2.23071 17.971 2.09794 17.73 2.01253C17.2594 1.85738 16.7471 1.89048 16.3004 2.10489C15.8537 2.31929 15.5074 2.69835 15.3342 3.16253L10.6383 15.7167C10.5469 15.9555 10.5042 16.2103 10.5128 16.4658C10.5213 16.7214 10.581 16.9727 10.6881 17.2049C10.7953 17.4371 10.9478 17.6455 11.1368 17.8179C11.3257 17.9902 11.5473 18.123 11.7883 18.2084Z" fill="#268BBF"/>
<path d="M34.5 9.58337C36.0878 9.58337 37.375 8.29619 37.375 6.70837C37.375 5.12056 36.0878 3.83337 34.5 3.83337C32.9122 3.83337 31.625 5.12056 31.625 6.70837C31.625 8.29619 32.9122 9.58337 34.5 9.58337Z" fill="#268BBF"/>
<path d="M34.9785 15.3334C34.9785 16.1863 35.2314 17.0201 35.7053 17.7293C36.1792 18.4385 36.8527 18.9912 37.6407 19.3176C38.4287 19.644 39.2958 19.7294 40.1323 19.563C40.9689 19.3966 41.7373 18.9859 42.3404 18.3828C42.9435 17.7797 43.3543 17.0112 43.5207 16.1747C43.687 15.3382 43.6017 14.4711 43.2752 13.6831C42.9488 12.895 42.3961 12.2215 41.6869 11.7477C40.9777 11.2738 40.1439 11.0209 39.291 11.0209C38.1473 11.0209 37.0504 11.4752 36.2416 12.284C35.4329 13.0927 34.9785 14.1896 34.9785 15.3334Z" fill="#268BBF"/>
</g>
<defs>
<clipPath id="clip0_590_661">
<rect width="46" height="46" fill="white"/>
</clipPath>
</defs>
</svg>
