<svg width="60" height="60" viewBox="0 0 60 60" fill="none" xmlns="http://www.w3.org/2000/svg">
<path fill-rule="evenodd" clip-rule="evenodd" d="M11.9724 11.5698C12.4416 7.81653 15.6321 5 19.4145 5H32.5006C37.0264 5 40.5511 6.92062 42.8904 9.8445C45.1786 12.7048 46.2506 16.4089 46.2506 20C46.2506 23.5911 45.1786 27.2952 42.8904 30.1555C40.5511 33.0792 37.0264 35 32.5006 35H25.0006C24.7801 35 24.5919 35.1595 24.5556 35.377L23.1629 43.733C22.5602 47.3495 19.4313 50 15.765 50H12.5006C9.66939 50 7.47884 47.5185 7.83001 44.7092L11.9724 11.5698Z" fill="white"/>
<path d="M15.8652 52.4993C16.6408 53.9736 18.1864 54.9998 20.0007 54.9998H23.5968C27.0383 54.9998 30.0383 52.6576 30.8728 49.3188L31.8198 45.5316C31.8978 45.2191 32.1786 44.9998 32.5008 44.9998H40.0008C43.9518 44.9998 47.1631 43.5346 49.4843 41.1763C51.7666 38.8578 53.0841 35.7893 53.5523 32.6683C54.3193 27.5586 52.8501 21.6002 48.6576 18.0464C48.7201 18.7002 48.7508 19.3529 48.7508 19.9998C48.7508 24.0563 47.5446 28.3396 44.8426 31.7171C42.0396 35.2208 37.8028 37.4998 32.5008 37.4998H26.7366L25.6291 44.1438C24.831 48.9328 20.7104 52.4516 15.8652 52.4993Z" fill="white"/>
</svg>
