<svg width="60" height="60" viewBox="0 0 60 60" fill="none" xmlns="http://www.w3.org/2000/svg">
<g clip-path="url(#clip0_590_310)">
<path d="M28.009 21.6545C25.6104 16.5689 24.6628 8.37539 28.0636 8.23641C31.8093 8.57109 29.5266 16.2926 28.0091 21.6545M24.6546 38.0455C28.4929 36.7785 32.3762 35.7335 36.3274 35.0182C33.8343 32.5542 31.6266 29.583 29.6456 26.2091C28.1603 30.5702 26.5741 34.5282 24.6546 38.0455ZM8.9727 50.4818C11.6051 52.5935 16.3145 46.5977 19.7727 40.7455C13.3698 43.4479 6.30656 47.6455 8.9727 50.4818ZM60 0V60H0V0H60ZM37.391 34.8273C34.5466 32.0807 32.0925 28.8199 29.9727 25.1182C32.8187 16.249 34.0177 7.69066 28.0637 7.36359C22.9438 7.73145 25.0245 17.3719 27.5727 22.8818C25.6086 28.7296 23.3892 34.3612 20.4818 39.5182C13.0437 42.3459 4.84242 47.3862 8.42731 51.1364C13.6843 54.8613 19.7071 46.7454 24 39.1909C28.2452 37.7033 32.6357 36.6054 37.1182 35.7545C43.0812 41.4086 51.863 42.9102 53.3727 39.2727C54.679 34.519 47.3235 33.1567 37.3909 34.8273M38.2363 35.5636C43.0935 39.7949 49.5557 41.9175 50.5635 38.1818C51.4484 34.0222 43.3774 34.7927 38.2363 35.5636Z" fill="white"/>
</g>
<defs>
<clipPath id="clip0_590_310">
<rect width="60" height="60" rx="8" fill="white"/>
</clipPath>
</defs>
</svg>
