<svg width="46" height="46" viewBox="0 0 46 46" fill="none" xmlns="http://www.w3.org/2000/svg">
<path d="M41.6875 2.875H4.3125C2.73125 2.875 1.4375 4.16875 1.4375 5.75V33.0625C1.4375 34.6437 2.73125 35.9375 4.3125 35.9375H41.6875C43.2687 35.9375 44.5625 34.6437 44.5625 33.0625V5.75C44.5625 4.16875 43.2687 2.875 41.6875 2.875ZM41.6875 28.75C41.6875 29.5406 41.0406 30.1875 40.25 30.1875H5.75C4.95937 30.1875 4.3125 29.5406 4.3125 28.75V7.1875C4.3125 6.39687 4.95937 5.75 5.75 5.75H40.25C41.0406 5.75 41.6875 6.39687 41.6875 7.1875V28.75ZM31.625 41.6875C31.625 42.481 30.9824 43.125 30.1875 43.125H15.8125C15.0176 43.125 14.375 42.481 14.375 41.6875C14.375 40.894 15.0176 40.25 15.8125 40.25H17.25V37.375H28.75V40.25H30.1875C30.9824 40.25 31.625 40.894 31.625 41.6875ZM31.625 20.125C31.625 20.9185 30.9824 21.5625 30.1875 21.5625H15.8125C15.0176 21.5625 14.375 20.9185 14.375 20.125C14.375 19.3315 15.0176 18.6875 15.8125 18.6875H30.1875C30.9824 18.6875 31.625 19.3315 31.625 20.125ZM31.625 14.375C31.625 15.1685 30.9824 15.8125 30.1875 15.8125H15.8125C15.0176 15.8125 14.375 15.1685 14.375 14.375C14.375 13.5815 15.0176 12.9375 15.8125 12.9375H30.1875C30.9824 12.9375 31.625 13.5815 31.625 14.375Z" fill="#268BBF"/>
</svg>
