<svg width="43" height="33" viewBox="0 0 43 33" fill="none" xmlns="http://www.w3.org/2000/svg">
<path d="M10.402 32.128C8.354 32.128 6.51933 31.616 4.898 30.592C3.362 29.568 2.16733 28.16 1.314 26.368C0.460667 24.4907 0.0340004 22.3147 0.0340004 19.84C0.0340004 17.7067 0.375334 15.7013 1.058 13.824C1.74067 11.8613 2.722 10.0693 4.002 8.448C5.36733 6.74133 6.98867 5.20533 8.866 3.84C10.8287 2.38933 13.0473 1.152 15.522 0.127998L18.978 4.73599C16.162 6.18666 13.9007 7.808 12.194 9.6C10.4873 11.392 9.634 13.0987 9.634 14.72C9.634 15.8293 9.93267 16.8107 10.53 17.664C11.1273 18.5173 11.9807 19.4133 13.09 20.352C14.4553 21.376 15.394 22.3573 15.906 23.296C16.5033 24.2347 16.802 25.216 16.802 26.24C16.802 28.032 16.2047 29.4827 15.01 30.592C13.9007 31.616 12.3647 32.128 10.402 32.128ZM34.21 32.128C32.162 32.128 30.3273 31.616 28.706 30.592C27.17 29.568 25.9753 28.16 25.122 26.368C24.2687 24.4907 23.842 22.3147 23.842 19.84C23.842 17.7067 24.1833 15.7013 24.866 13.824C25.5487 11.8613 26.53 10.0693 27.81 8.448C29.1753 6.74133 30.7967 5.20533 32.674 3.84C34.6367 2.38933 36.8553 1.152 39.33 0.127998L42.786 4.73599C39.97 6.18666 37.7087 7.808 36.002 9.6C34.2953 11.392 33.442 13.0987 33.442 14.72C33.442 15.8293 33.7407 16.8107 34.338 17.664C34.9353 18.5173 35.7887 19.4133 36.898 20.352C38.2633 21.376 39.202 22.3573 39.714 23.296C40.3113 24.2347 40.61 25.216 40.61 26.24C40.61 28.032 40.0127 29.4827 38.818 30.592C37.7087 31.616 36.1727 32.128 34.21 32.128Z" fill="white"/>
</svg>
