<svg width="60" height="60" viewBox="0 0 60 60" fill="none" xmlns="http://www.w3.org/2000/svg">
<circle cx="30" cy="30" r="30" fill="#268BBF"/>
<path d="M30.0404 25.3694C32.4132 25.3694 34.3267 23.4558 34.3267 21.0831C34.3267 18.7105 32.4284 16.7969 30.0404 16.7969C27.6676 16.7969 25.7542 18.7105 25.7542 21.0831C25.7693 23.4713 27.6829 25.3694 30.0404 25.3694ZM20.0901 37.7844H12.3901C9.89496 37.7844 9.75714 33.9727 12.4361 33.9727H19.1103L22.9373 28.3392C24.0701 26.7931 25.3561 26.0583 27.1776 26.0583H32.8876C34.7093 26.0583 35.9951 26.7319 37.1279 28.3392L40.9703 33.9727H47.6906C50.3848 33.9727 50.2164 37.7844 47.7825 37.7844H40.0825C39.4701 37.7844 38.7353 37.57 38.3067 36.9119L35.3675 32.7175L35.3521 43.2189H24.8203L24.805 32.7175L21.8657 36.9119C21.4371 37.5547 20.7025 37.7844 20.0901 37.7844Z" fill="white"/>
<path d="M49.6877 32.1094H46.2638V29.8633H44.8028V32.1094H41.3789V21.3811H43.4333V20.605H47.6333V21.3811H49.6877V32.1094ZM44.1181 26.8501H42.7486V28.2197H44.1181V26.8501ZM44.1181 24.805H42.7486V26.1745H44.1181V24.805ZM44.1181 22.7506H42.7486V24.1201H44.1181V22.7506ZM46.2638 26.8501H44.8028V28.2197H46.2638V26.8501ZM46.2545 26.1745V24.805H45.5333H45.5242H44.803V26.1745H46.2639H46.2545ZM46.2638 22.7506H45.5425H45.5334H44.8122V24.1201H45.5334H45.5425H46.2638V22.7506ZM48.3181 26.8501H46.9486V28.2197H48.3181V26.8501ZM48.3181 24.805H46.9486V26.1745H47.0673H48.3183L48.3181 24.805ZM48.3181 22.7506H46.9486V24.1201H48.3181V22.7506Z" fill="white"/>
<path d="M20.3006 27.1844C20.3006 27.485 20.0569 27.737 19.748 27.737C19.5855 27.737 19.4309 27.6639 19.3334 27.5502L18.6833 26.9488V32.1094H16.3567V28.472H14.3536V32.1094H11.9948V26.908L11.2472 27.5825C11.1497 27.68 11.0116 27.7369 10.8652 27.7369C10.5644 27.737 10.3125 27.4931 10.3125 27.1844C10.3125 27.0138 10.3937 26.8511 10.5156 26.7536L15.3594 22.4219L16.8141 23.7466V22.625H18.0575V24.8844L20.1625 26.8105C20.2519 26.908 20.3006 27.0381 20.3006 27.1844Z" fill="white"/>
</svg>
