<svg width="60" height="60" viewBox="0 0 60 60" fill="none" xmlns="http://www.w3.org/2000/svg">
<circle cx="30" cy="30" r="30" fill="#268BBF"/>
<g clip-path="url(#clip0_590_1099)">
<path d="M14 24.016L18 14H42L46 24.016C46 25.1253 45.6053 26.064 44.816 26.832C44.0267 27.6 43.088 27.9947 42 28.016C40.912 28.0373 39.9733 27.6427 39.184 26.832C38.3947 26.0213 38 25.0827 38 24.016C38 25.1253 37.6053 26.064 36.816 26.832C36.0267 27.6 35.088 27.9947 34 28.016C32.912 28.0373 31.9733 27.6427 31.184 26.832C30.3947 26.0213 30 25.0827 30 24.016C30 25.1253 29.6053 26.064 28.816 26.832C28.0267 27.6 27.088 27.9947 26 28.016C24.912 28.0373 23.9733 27.6427 23.184 26.832C22.3947 26.0213 22 25.0827 22 24.016C22 25.1253 21.6053 26.064 20.816 26.832C20.0267 27.6 19.088 27.9947 18 28.016C16.912 28.0373 15.9733 27.6427 15.184 26.832C14.3947 26.0213 14 25.0827 14 24.016ZM16.016 44.016H44.016V46H16.016V44.016ZM18 42V30C19.5147 30 20.848 29.488 22 28.464V38H38V28.464C39.152 29.488 40.4853 30 42 30V42H18Z" fill="white"/>
</g>
<defs>
<clipPath id="clip0_590_1099">
<rect width="32" height="32" fill="white" transform="translate(14 14)"/>
</clipPath>
</defs>
</svg>
