<svg width="60" height="60" viewBox="0 0 60 60" fill="none" xmlns="http://www.w3.org/2000/svg">
<path d="M41.4757 18.5231C40.4208 17.4686 38.9904 16.8762 37.4988 16.8762C36.0073 16.8762 34.5768 17.4686 33.5219 18.5231L32.6501 19.3931L35.3013 22.0444L36.1732 21.1744C36.5268 20.8328 37.0004 20.6439 37.4921 20.6481C37.9837 20.6524 38.454 20.8496 38.8016 21.1972C39.1492 21.5449 39.3464 22.0151 39.3507 22.5068C39.355 22.9984 39.166 23.472 38.8244 23.8256L32.6501 30L35.3013 32.6513L41.4757 26.4769C42.5302 25.4221 43.1226 23.9916 43.1226 22.5C43.1226 21.0085 42.5302 19.578 41.4757 18.5231ZM23.8244 38.8256C23.4708 39.1672 22.9972 39.3562 22.5056 39.3519C22.0139 39.3476 21.5437 39.1504 21.196 38.8028C20.8484 38.4552 20.6512 37.9849 20.6469 37.4933C20.6426 37.0017 20.8316 36.528 21.1732 36.1744L27.3476 30L24.6963 27.3488L18.5219 33.5231C17.9847 34.042 17.5562 34.6627 17.2614 35.349C16.9666 36.0353 16.8114 36.7734 16.8049 37.5203C16.7984 38.2671 16.9407 39.0078 17.2236 39.6991C17.5064 40.3904 17.9241 41.0185 18.4522 41.5466C18.9804 42.0748 19.6084 42.4924 20.2997 42.7753C20.991 43.0581 21.7317 43.2004 22.4786 43.1939C23.2254 43.1874 23.9636 43.0323 24.6498 42.7375C25.3361 42.4427 25.9568 42.0141 26.4757 41.4769L27.3476 40.6069L24.6963 37.9556L23.8244 38.8256ZM26.4757 18.525C25.4105 17.5252 23.9981 16.979 22.5374 17.0021C21.0767 17.0251 19.6822 17.6155 18.6491 18.6484C17.6159 19.6813 17.0252 21.0756 17.0018 22.5364C16.9784 23.9971 17.5243 25.4096 18.5238 26.475L19.3938 27.3469L22.0451 24.6956L21.1751 23.8238C20.8335 23.4701 20.6445 22.9965 20.6488 22.5049C20.6531 22.0133 20.8503 21.543 21.1979 21.1954C21.5455 20.8477 22.0158 20.6505 22.5074 20.6463C22.9991 20.642 23.4727 20.831 23.8263 21.1725L29.9988 27.3488L32.6501 24.6975L26.4757 18.525Z" fill="white"/>
<path d="M41.4758 33.5231L40.6058 32.6512L37.9545 35.3025L38.8245 36.1744C39.1661 36.528 39.3551 37.0016 39.3508 37.4932C39.3465 37.9849 39.1493 38.4551 38.8017 38.8028C38.4541 39.1504 37.9838 39.3476 37.4922 39.3519C37.0005 39.3562 36.5269 39.1672 36.1733 38.8256L29.9989 32.6512L27.3477 35.3025L33.522 41.4769C34.5829 42.5015 36.0038 43.0685 37.4787 43.0557C38.9535 43.0428 40.3643 42.4513 41.4073 41.4084C42.4502 40.3654 43.0418 38.9546 43.0546 37.4798C43.0674 36.0049 42.5004 34.584 41.4758 33.5231Z" fill="white"/>
<path d="M30 58.1249C29.668 58.1251 29.3419 58.0371 29.055 57.8699L6.555 44.7449C6.27192 44.5798 6.03708 44.3432 5.8739 44.059C5.71072 43.7748 5.6249 43.4527 5.625 43.1249V16.8749C5.6249 16.5472 5.71072 16.2251 5.8739 15.9409C6.03708 15.6566 6.27192 15.4201 6.555 15.2549L29.055 2.12995C29.3418 1.96258 29.6679 1.87439 30 1.87439C30.3321 1.87439 30.6582 1.96258 30.945 2.12995L53.445 15.2549L51.555 18.4949L30 5.9212L9.375 17.9512V42.0487L30 54.0806L50.625 42.0487V28.1249H54.375V43.1249C54.3751 43.4527 54.2893 43.7748 54.1261 44.059C53.9629 44.3432 53.7281 44.5798 53.445 44.7449L30.945 57.8699C30.6581 58.0371 30.332 58.1251 30 58.1249Z" fill="white"/>
</svg>
