<svg width="56" height="60" viewBox="0 0 56 60" fill="none" xmlns="http://www.w3.org/2000/svg">
<path d="M55.3959 20.9342H47.2702V12.9723L33.4332 0H0.603516V60H47.2702V51.3887H55.3959V20.9342ZM50.3959 46.3887H15.3958V25.9342H50.3959V46.3887Z" fill="white"/>
<path d="M22.9457 39.1822C22.5264 39.1822 22.1177 39.1312 21.719 39.0289C21.3204 38.9267 20.9574 38.8016 20.6304 38.6532C20.3032 38.5052 20.0195 38.3569 19.7794 38.2086C19.539 38.0606 19.373 37.9402 19.281 37.8482L18.3457 39.6729C18.9794 40.1229 19.695 40.4702 20.4924 40.7156C21.2897 40.9609 22.097 41.0836 22.915 41.0836C23.4465 41.0836 23.955 41.0246 24.4407 40.9072C24.926 40.7897 25.3554 40.6032 25.7287 40.3476C26.1017 40.0922 26.3982 39.7572 26.618 39.3432C26.8377 38.9292 26.9477 38.4309 26.9477 37.8482C26.9477 37.3476 26.8657 36.9257 26.7024 36.5832C26.5387 36.2409 26.306 35.9469 26.0047 35.7016C25.703 35.4562 25.335 35.2519 24.9007 35.0882C24.4662 34.9249 23.983 34.7716 23.4517 34.6282C23.0427 34.5262 22.6824 34.4289 22.3707 34.3369C22.0587 34.2449 21.8009 34.1429 21.5964 34.0302C21.3917 33.9179 21.236 33.7876 21.1287 33.6392C21.0214 33.4912 20.9677 33.3046 20.9677 33.0796C20.9677 32.6912 21.1107 32.3896 21.397 32.1749C21.683 31.9602 22.1177 31.8529 22.7004 31.8529C23.0274 31.8529 23.3495 31.8939 23.6664 31.9756C23.983 32.0576 24.277 32.1572 24.548 32.2746C24.8189 32.3922 25.0487 32.5122 25.238 32.6349C25.427 32.7576 25.5574 32.8549 25.629 32.9262L26.5644 31.2089C26.0837 30.8819 25.5217 30.5982 24.8777 30.3579C24.2337 30.1179 23.5284 29.9976 22.7617 29.9976C22.2097 29.9976 21.6934 30.0717 21.213 30.2199C20.7324 30.3682 20.3107 30.5854 19.948 30.8716C19.585 31.1579 19.3014 31.5156 19.097 31.9449C18.8924 32.3742 18.7904 32.8649 18.7904 33.4169C18.7904 33.8362 18.854 34.1966 18.982 34.4979C19.1099 34.7996 19.3015 35.0652 19.557 35.2952C19.8124 35.5252 20.132 35.7246 20.5154 35.8932C20.8987 36.0619 21.351 36.2179 21.8724 36.3609C22.3017 36.4836 22.69 36.5962 23.0377 36.6982C23.385 36.8006 23.6817 36.9129 23.927 37.0356C24.1724 37.1582 24.3614 37.3014 24.4944 37.4649C24.627 37.6286 24.6937 37.8279 24.6937 38.0629C24.6935 38.8092 24.111 39.1822 22.9457 39.1822Z" fill="white"/>
<path d="M29.347 39.3202C29.812 39.8316 30.3691 40.2456 31.0183 40.5622C31.6673 40.8792 32.3905 41.0376 33.188 41.0376C33.7093 41.0376 34.2 40.9686 34.66 40.8306C35.12 40.6926 35.5493 40.5009 35.9481 40.2556L36.5766 40.9609H38.57L37.0826 39.2896C37.5323 38.7889 37.8825 38.2162 38.133 37.5722C38.3833 36.9282 38.5086 36.2536 38.5086 35.5482C38.5086 34.8636 38.3806 34.1889 38.1253 33.5242C37.8698 32.8599 37.512 32.2669 37.0521 31.7456C36.592 31.2242 36.0375 30.8026 35.3885 30.4806C34.7391 30.1586 34.0211 29.9976 33.2341 29.9976C32.4673 29.9976 31.7568 30.1484 31.1028 30.4499C30.4485 30.7516 29.8838 31.1579 29.4085 31.6689C28.933 32.1801 28.5598 32.7679 28.2891 33.4322C28.0181 34.0967 27.8828 34.7919 27.8828 35.5176C27.8828 36.2129 28.0106 36.8926 28.2661 37.5569C28.5215 38.2216 28.8816 38.8094 29.347 39.3202ZM30.2363 34.1912C30.3743 33.7569 30.576 33.3659 30.842 33.0182C31.1078 32.6707 31.44 32.3922 31.8386 32.1826C32.2373 31.9732 32.692 31.8682 33.2033 31.8682C33.694 31.8682 34.1361 31.9706 34.5296 32.1749C34.923 32.3796 35.2553 32.6502 35.5263 32.9876C35.797 33.3249 36.0066 33.7134 36.1548 34.1529C36.303 34.5926 36.3771 35.0476 36.3771 35.5176C36.3771 35.9162 36.321 36.3099 36.2085 36.6982C36.0958 37.0869 35.9375 37.4446 35.7331 37.7716L34.9818 36.9282H32.9883L34.6445 38.7989C34.4398 38.9116 34.2175 39.0009 33.9775 39.0672C33.7371 39.1337 33.4791 39.1669 33.2031 39.1669C32.7021 39.1669 32.255 39.0649 31.8615 38.8602C31.468 38.6559 31.1356 38.3849 30.8648 38.0476C30.5938 37.7102 30.3868 37.3219 30.2436 36.8822C30.1005 36.4429 30.029 35.9879 30.029 35.5176C30.0293 35.0679 30.0983 34.6259 30.2363 34.1912Z" fill="white"/>
<path d="M47.7839 39.1056H42.2334V30.0742H40.1172V40.9609H47.7839V39.1056Z" fill="white"/>
</svg>
