<svg width="60" height="60" viewBox="0 0 60 60" fill="none" xmlns="http://www.w3.org/2000/svg">
<circle cx="30" cy="30" r="30" fill="#268BBF"/>
<g clip-path="url(#clip0_590_1119)">
<path d="M36.359 12.632L35.4413 13.5508C32.4414 10.5509 27.5581 10.5509 24.5582 13.5508L23.6405 12.632C27.1467 9.12235 32.8539 9.12235 36.359 12.632ZM25.2279 14.2182L26.1455 15.137C28.2701 13.0148 31.7305 13.0148 33.8539 15.137L34.7739 14.2182C32.1419 11.5886 27.8598 11.5886 25.2279 14.2182ZM26.8667 15.8593L27.7866 16.7781C29.0072 15.5553 30.9968 15.5553 32.2151 16.7781L33.1373 15.8582C31.406 14.1291 28.5946 14.1291 26.8667 15.8593ZM36.359 47.3693L35.4413 46.4493C32.4414 49.4492 27.5581 49.4492 24.5582 46.4493L23.6405 47.3693C27.1478 50.8777 32.8562 50.8777 36.359 47.3693ZM34.7727 45.7819L33.855 44.8642C31.7305 46.9853 28.2689 46.9853 26.1467 44.8642L25.2267 45.7819C27.8598 48.4115 32.1419 48.4115 34.7727 45.7819ZM33.1351 44.1419L32.2162 43.222C30.9945 44.4448 29.0049 44.4448 27.7855 43.222L26.8655 44.1431C28.5946 45.871 31.406 45.871 33.1351 44.1419ZM47.3712 23.6419L46.4501 24.5608C49.45 27.5618 49.45 32.4428 46.4501 35.4416L47.3712 36.3604C50.8774 32.8531 50.8774 27.147 47.3712 23.6419ZM45.7816 25.2282L44.8639 26.147C46.9861 28.2692 46.9861 31.7309 44.8639 33.8531L45.7816 34.773C48.4123 32.1411 48.4123 27.859 45.7816 25.2282ZM44.1427 26.867L43.2216 27.7847C44.4444 29.0075 44.4444 30.9972 43.2216 32.2154L44.1427 33.1365C45.8707 31.4051 45.8707 28.5949 44.1427 26.867ZM12.6305 36.3581L13.5528 35.4405C10.5506 32.4394 10.5506 27.5573 13.5505 24.5573L12.6305 23.6397C9.12317 27.1481 9.12317 32.8542 12.6305 36.3581ZM14.219 34.773L15.1367 33.8542C13.0145 31.7308 13.0145 28.2692 15.1367 26.1482L14.219 25.2282C11.5882 27.8601 11.5882 32.1423 14.219 34.773ZM15.859 33.1342L16.7778 32.2154C15.555 30.9937 15.555 29.0041 16.7778 27.7847L15.8578 26.8647C14.1299 28.5949 14.1299 31.4051 15.859 33.1342ZM36.9429 24.9185L36.8412 25.0579L37.4572 25.8522L37.8138 25.6327C37.7372 25.6076 37.6606 25.5573 37.5989 25.4785C37.5989 25.4785 37.1269 25.1516 36.9429 24.9185ZM40.5897 30.0006C40.5897 35.8473 35.8515 40.5877 30.0026 40.5877C24.1536 40.5877 19.4109 35.8496 19.4109 30.0006C19.4109 24.1551 24.1525 19.4123 30.0026 19.4123C35.8504 19.4123 40.5897 24.1551 40.5897 30.0006ZM23.0051 23.4454C23.0965 23.4008 23.1879 23.3631 23.2793 23.3357C23.2793 23.3357 24.1627 23.2454 23.7925 22.6911C23.5182 22.9277 23.2531 23.1791 23.0051 23.4454ZM24.4599 31.1594C24.4599 31.1594 24.3193 30.6954 23.6119 30.6954C23.6119 30.6954 23.1856 30.2303 22.8062 30.2303C22.8062 30.2303 22.6656 28.9252 21.9559 29.2064C21.9559 29.2064 21.8599 28.6909 21.5765 28.7401C21.5765 28.7401 21.3914 28.2315 21.0588 28.3675L20.6794 28.1355C20.6794 28.1355 20.6463 28.1972 20.5903 28.2875C20.4988 28.8224 20.4474 29.3675 20.4474 29.9275C20.4474 32.6303 21.5834 35.0748 23.4005 36.8038C23.4028 36.7239 23.4245 36.6393 23.4713 36.5696C23.4713 36.5696 23.6599 36.1959 23.4222 35.8736C23.4222 35.8736 23.6599 35.5456 23.6599 35.1239C23.6599 35.1239 23.4222 34.3856 24.037 34.2908C24.037 34.2908 24.8873 34.2908 24.4633 32.7971C24.4633 32.7971 24.4164 32.38 24.749 31.9617C24.7456 31.9526 25.0759 31.0657 24.4599 31.1594ZM25.0313 21.7997C24.605 22.0557 24.2016 22.3471 23.8233 22.666C24.0405 22.6888 24.9421 22.7528 25.0016 22.2397L25.0313 21.7997ZM37.8663 25.6442C38.0458 25.691 38.2389 25.6373 38.3818 25.5767C36.9361 22.7802 34.143 20.7872 30.8585 20.4706C30.0997 21.2089 31.03 21.5186 31.03 21.5186C31.3625 21.7483 32.0654 21.3277 32.0654 21.3277C32.3534 21.6534 31.2643 22.1197 31.2643 22.1197C30.6528 22.1643 30.1797 22.4923 30.1797 22.4923C29.8951 22.0728 29.6117 22.3963 29.6117 22.3963C29.3786 22.6774 29.9431 22.8202 29.9431 22.8202C30.3203 22.9105 30.2266 23.1448 30.0814 23.2819C29.9431 23.4214 29.3294 23.2819 29.3294 23.2819C28.998 23.4694 29.2335 24.1196 29.2335 24.1196H29.518C30.4608 24.3962 30.5111 23.7014 30.5111 23.7014C30.7911 23.7014 30.8894 23.2351 30.8894 23.2351C31.126 23.4694 31.6928 23.0957 31.6928 23.0957C31.7397 23.2819 32.0208 23.5608 32.0208 23.5608C32.4471 23.7014 32.5408 23.8876 32.5408 23.8876C32.1145 23.9814 32.4939 24.1642 32.4939 24.1642C33.0631 23.9299 32.6345 23.6099 32.6345 23.6099C31.5522 23.0957 32.0208 22.9562 32.0208 22.9562C32.2128 23.2819 32.9693 23.4214 32.9693 23.4214C33.0631 24.0259 33.3465 24.1196 33.3465 24.1196C33.6756 24.2602 33.7693 23.9814 33.7693 23.9814C33.4402 23.8876 33.3899 23.6099 33.3899 23.6099C33.2996 23.3288 33.7225 23.5151 33.7225 23.5151C34.1019 24.0705 34.9053 24.0259 34.9053 24.0259C35.4218 23.9814 35.2824 24.9082 35.2824 24.9082C34.7156 25.283 33.6265 24.6305 33.6265 24.6305C33.7225 24.9573 33.2996 24.9996 33.2996 24.9996C32.8711 24.4922 32.2128 24.7242 32.2128 24.7242C32.3534 24.4922 32.1145 24.1196 32.1145 24.1196C31.7397 24.0259 31.126 24.2111 31.126 24.2111C30.6528 24.3962 29.7534 24.4453 29.7534 24.4453C29.3294 24.4453 29.046 25.283 29.046 25.283C28.0998 25.7002 28.0061 26.539 28.0061 26.539C28.0061 27.0533 27.9123 27.563 27.9123 27.563C27.5809 28.0727 28.5238 28.6349 28.5238 28.6349C29.094 29.7058 29.8003 29.2406 29.8003 29.2406C30.3694 29.4715 31.5968 29.0075 31.5968 29.0075C31.7397 29.4715 32.4002 29.3332 32.4002 29.3332C32.6345 29.4715 32.5408 29.94 32.5408 29.94C32.2128 30.492 32.8265 31.012 32.8265 31.012C33.7693 32.084 33.1511 32.3605 33.1511 32.3605C32.4939 33.012 32.9202 33.5742 32.9202 33.5742C33.3899 34.6005 33.3899 35.477 33.3899 35.477C34.9967 35.709 35.5636 34.5011 35.5636 34.5011C36.0835 34.5011 36.0835 34.0394 36.0835 34.0394C36.0835 33.4805 36.4161 33.2508 36.4161 33.2508C37.1715 32.7388 37.0309 31.7126 37.0309 31.7126C36.9372 31.1103 37.1715 30.548 37.1715 30.548C38.0663 29.5241 38.0218 27.9892 38.0218 27.9892C37.6446 28.1755 37.4081 28.0338 37.4081 28.0338C36.559 27.1938 35.519 25.3779 35.519 25.3779C36.5132 25.7973 37.3144 27.7527 37.3144 27.7527C37.8835 27.4727 38.0663 26.963 38.0663 26.963C38.6183 26.475 38.0138 25.7939 37.8663 25.6442Z" fill="white"/>
</g>
<defs>
<clipPath id="clip0_590_1119">
<rect width="40" height="40" fill="white" transform="translate(10 10)"/>
</clipPath>
</defs>
</svg>
