<svg width="60" height="60" viewBox="0 0 60 60" fill="none" xmlns="http://www.w3.org/2000/svg">
<circle cx="30" cy="30" r="30" fill="#268BBF"/>
<g clip-path="url(#clip0_590_1166)">
<g clip-path="url(#clip1_590_1166)">
<path d="M10.8216 35.1688H31.5307C31.8401 35.1688 32.0934 34.9155 32.0934 34.6061V17.8306C32.0934 16.8982 31.3376 16.1423 30.4052 16.1423H11.9471C11.0147 16.1423 10.2589 16.8982 10.2589 17.8306V34.606C10.2588 34.9155 10.5121 35.1688 10.8216 35.1688ZM14.9946 23.8645C14.9946 23.4787 15.3073 23.166 15.6931 23.166H21.2178V21.1975C21.2178 20.5752 21.9703 20.2636 22.4103 20.7038L27.1709 25.4667C27.4435 25.7395 27.4435 26.1816 27.1709 26.4543L22.4103 31.2165C21.9703 31.6566 21.2178 31.345 21.2178 30.7227V28.7537H15.693C15.3073 28.7537 14.9945 28.441 14.9945 28.0552L14.9946 23.8645ZM17.417 39.6876H10.5627C10.2532 39.6876 10 39.4344 10 39.1249V37.4142C10 37.1046 10.2532 36.8514 10.5627 36.8514H18.9702C18.1486 37.5661 17.5802 38.5621 17.417 39.6876ZM49.4373 36.8514H48.0698V29.2036C48.0698 28.3089 47.7997 27.431 47.2988 26.6882L43.8718 21.6122C43.0332 20.3742 41.6376 19.6314 40.1407 19.6314H34.8284C34.2037 19.6314 33.7029 20.1378 33.7029 20.7568V36.8514H25.0028C25.8301 37.5661 26.3984 38.5621 26.5616 39.6877H35.7344C36.0608 37.4536 37.9854 35.7259 40.3095 35.7259C42.6337 35.7259 44.5526 37.4536 44.879 39.6877H49.4373C49.7468 39.6877 50 39.4344 50 39.1249V37.4142C50 37.1047 49.7468 36.8514 49.4373 36.8514ZM43.8323 27.7011H36.8205C36.511 27.7011 36.2578 27.4534 36.2578 27.1383V23.2498C36.2578 22.9403 36.511 22.687 36.8205 22.687H41.0918C41.2775 22.687 41.4463 22.777 41.5533 22.9234L44.2939 26.8176C44.5526 27.1891 44.2881 27.7011 43.8323 27.7011ZM21.9865 36.8514C20.0563 36.8514 18.4862 38.4214 18.4862 40.3574C18.4862 42.2875 20.0563 43.8576 21.9865 43.8576C23.9224 43.8576 25.4868 42.2876 25.4868 40.3574C25.4867 38.4215 23.9224 36.8514 21.9865 36.8514ZM21.9865 42.1075C21.0186 42.1075 20.2364 41.3196 20.2364 40.3574C20.2364 39.3893 21.0186 38.6072 21.9865 38.6072C22.9544 38.6072 23.7367 39.3894 23.7367 40.3574C23.7367 41.3196 22.9544 42.1075 21.9865 42.1075ZM40.3095 36.8514C38.3737 36.8514 36.8092 38.4214 36.8092 40.3574C36.8092 42.2875 38.3737 43.8576 40.3095 43.8576C42.2397 43.8576 43.8097 42.2876 43.8097 40.3574C43.8098 38.4215 42.2398 36.8514 40.3095 36.8514ZM40.3095 42.1075C39.3415 42.1075 38.5593 41.3196 38.5593 40.3574C38.5593 39.3893 39.3416 38.6072 40.3095 38.6072C41.2774 38.6072 42.0596 39.3894 42.0596 40.3574C42.0597 41.3196 41.2775 42.1075 40.3095 42.1075Z" fill="white"/>
</g>
</g>
<defs>
<clipPath id="clip0_590_1166">
<rect width="40" height="40" fill="white" transform="translate(10 10)"/>
</clipPath>
<clipPath id="clip1_590_1166">
<rect width="40" height="40" fill="white" transform="translate(10 10)"/>
</clipPath>
</defs>
</svg>
