<svg width="56" height="60" viewBox="0 0 56 60" fill="none" xmlns="http://www.w3.org/2000/svg">
<path d="M55.5676 20.8108H47.1004V12.9723L33.2633 0H0.433594V60H47.1003V51.2653H55.5674V20.8108H55.5676ZM50.5676 46.2653H15.5676V25.8108H50.5674V46.2653H50.5676Z" fill="white"/>
<path d="M17.8732 40.6287H20.0732L22.5519 36.9033L25.0159 40.6287H27.2012L23.6079 35.4953L27.3185 30.2153H25.1332L22.5519 34.0873L19.9559 30.2153H17.7559L21.4665 35.4953L17.8732 40.6287Z" fill="white"/>
<path d="M30.3832 33.7353L33.0674 38.8687H34.1672L36.8514 33.7353V40.6287H38.8752V30.2153H36.7194L33.6099 36.1407L30.53 30.2153H28.3594V40.6287H30.3832V33.7353Z" fill="white"/>
<path d="M48.3802 38.854H43.0707V30.2153H41.0469V40.6287H48.3802V38.854Z" fill="white"/>
</svg>
